<?xml version="1.0" encoding="utf-8"?>
<!-- Generator: Adobe Illustrator 19.2.1, SVG Export Plug-In . SVG Version: 6.00 Build 0)  -->
<svg version="1.1" xmlns="http://www.w3.org/2000/svg" xmlns:xlink="http://www.w3.org/1999/xlink" x="0px" y="0px"
	 viewBox="0 0 800 800" style="enable-background:new 0 0 800 800;" xml:space="preserve">
<style type="text/css">
	.st0{fill:#0D3D3B;}
	.st1{fill:#FFFFFF;}
	.st2{display:none;}
</style>
<g id="Circle">
	<circle class="st0" cx="400" cy="400" r="179.5"/>
</g>
<g id="Swis721_BT_x5F_Bold_x5F_C__x28_250pt_x29_">
	<g>
		<path class="st1" d="M482,428.6c-1.4,20.4-9.3,36.7-23.6,48.7c-14.4,12-33.1,18.1-56.2,18.1c-26.6,0-47.3-8.3-62.1-24.9
			c-14.8-16.6-22.2-39.9-22.2-69.8c0-30.6,7.5-54,22.6-70.3c15.1-16.3,36.7-24.4,64.9-24.4c22.9,0,41.1,5.6,54.4,16.8
			c13.3,11.2,20.6,27,21.9,47.4h-36.5c-1.5-10.2-5.7-17.9-12.5-23.3c-6.8-5.3-15.9-8-27.3-8c-16.3,0-28.6,5.2-37.1,15.7
			c-8.5,10.5-12.7,25.8-12.7,46c0,19.5,4.2,34.6,12.6,45.3c8.4,10.7,20.4,16,36,16c11.2,0,20.4-2.9,27.6-8.6
			c7.2-5.7,11.8-14,13.9-24.7H482z"/>
	</g>
</g>
<g id="Color_Codes" class="st2">
</g>
</svg>
