<?xml version="1.0" encoding="UTF-8" standalone="no"?>
<!DOCTYPE svg PUBLIC "-//W3C//DTD SVG 1.1//EN" "http://www.w3.org/Graphics/SVG/1.1/DTD/svg11.dtd">
<svg width="100%" height="100%" viewBox="0 0 2048 1536" version="1.1" xmlns="http://www.w3.org/2000/svg" xmlns:xlink="http://www.w3.org/1999/xlink" xml:space="preserve" xmlns:serif="http://www.serif.com/" style="fill-rule:evenodd;clip-rule:evenodd;stroke-linejoin:round;stroke-miterlimit:2;">
    <g id="Layer18">
        <ellipse cx="131.039" cy="1246.64" rx="78.162" ry="32.961" style="fill:rgb(12,61,58);fill-opacity:0.55;"/>
        <g transform="matrix(0.33825,0,0,0.61139,1200.89,377.481)">
            <ellipse cx="1096.2" cy="1189.61" rx="854.789" ry="78.644" style="fill:rgb(12,61,58);fill-opacity:0.55;"/>
        </g>
        <g transform="matrix(0.33825,0,0,0.61139,182.235,402.306)">
            <ellipse cx="1096.2" cy="1189.61" rx="854.789" ry="78.644" style="fill:rgb(12,61,58);fill-opacity:0.55;"/>
        </g>
        <g transform="matrix(0.33825,0,0,0.61139,437.585,402.318)">
            <ellipse cx="1096.2" cy="1189.61" rx="854.789" ry="78.644" style="fill:rgb(12,61,58);fill-opacity:0.55;"/>
        </g>
        <g transform="matrix(0.587358,-0.0138319,0.0273476,1.16129,581.844,-202.01)">
            <ellipse cx="1096.2" cy="1189.61" rx="854.789" ry="78.644" style="fill:rgb(12,61,58);fill-opacity:0.55;"/>
        </g>
    </g>
    <g>
        <g transform="matrix(3.88187,0,0,3.88187,-6856.26,32.112)">
            <g transform="matrix(1.61898,0,0,1.57296,153.025,-612.456)">
                <path d="M1106.54,470.527C1106.54,469.991 1106.12,469.557 1105.6,469.557L1103.71,469.557C1103.19,469.557 1102.77,469.991 1102.77,470.527L1102.77,488.862C1102.77,489.398 1103.19,489.833 1103.71,489.833L1105.6,489.833C1106.12,489.833 1106.54,489.398 1106.54,488.862L1106.54,470.527Z" style="fill:rgb(0,34,31);"/>
            </g>
            <g transform="matrix(1.61898,0,0,1.57296,149.029,-628.332)">
                <path d="M1119.34,501.287L1070.43,499.94L1064.87,577.61L1119.98,574.982L1119.34,501.287Z" style="fill:rgb(0,34,31);"/>
            </g>
            <g transform="matrix(1.4803,0,0,1.2491,254.965,-478.959)">
                <path d="M1126.93,477.498L1159.2,517.004L1093.07,512.224L1126.93,477.498Z" style="fill:rgb(0,34,31);"/>
            </g>
            <g transform="matrix(1.95032,-0.00841925,0.00777675,1.70054,-210.423,-693.741)">
                <rect x="1074.7" y="513.866" width="10.181" height="13.889" style="fill:rgb(0,34,31);"/>
            </g>
            <g transform="matrix(1.95021,-0.0217159,0.0200587,1.70044,-176.704,-678.113)">
                <rect x="1074.7" y="513.866" width="10.181" height="13.889" style="fill:rgb(0,34,31);"/>
            </g>
            <g transform="matrix(1.95,-0.0350115,0.0323397,1.70026,-222.38,-611.566)">
                <rect x="1074.7" y="513.866" width="10.181" height="13.889" style="fill:rgb(0,34,31);"/>
            </g>
            <g transform="matrix(1.61755,-0.0659113,0.0687973,1.59377,112.015,-566.96)">
                <path d="M1110.4,546.764L1096.5,546.764L1096.47,575.381L1110.41,575.309L1110.4,546.764Z" style="fill:rgb(0,34,31);"/>
            </g>
            <g transform="matrix(1.61898,0,0,2.21188,148.884,-956.644)">
                <rect x="1076.84" y="510.969" width="2.729" height="3.303" style="fill:rgb(0,34,31);"/>
            </g>
            <g transform="matrix(1.61894,-0.0110379,0.0159754,2.21183,180.695,-943.459)">
                <rect x="1076.84" y="510.969" width="2.729" height="3.303" style="fill:rgb(0,34,31);"/>
            </g>
            <g transform="matrix(1.61882,-0.0220752,0.0319499,2.21167,133.094,-879.343)">
                <rect x="1076.84" y="510.969" width="2.729" height="3.303" style="fill:rgb(0,34,31);"/>
            </g>
            <g transform="matrix(1.61898,0,0,2.21188,158.722,-956.644)">
                <rect x="1076.84" y="510.969" width="2.729" height="3.303" style="fill:rgb(0,34,31);"/>
            </g>
            <g transform="matrix(1.61894,-0.0110379,0.0159754,2.21183,190.533,-943.526)">
                <rect x="1076.84" y="510.969" width="2.729" height="3.303" style="fill:rgb(0,34,31);"/>
            </g>
            <g transform="matrix(1.61882,-0.0220752,0.0319499,2.21167,142.93,-879.477)">
                <rect x="1076.84" y="510.969" width="2.729" height="3.303" style="fill:rgb(0,34,31);"/>
            </g>
            <g transform="matrix(1.61898,0,0,1.98737,148.884,-830.395)">
                <rect x="1076.84" y="510.969" width="2.729" height="3.303" style="fill:rgb(0,34,31);"/>
            </g>
            <g transform="matrix(1.61894,-0.0110379,0.0143538,1.98733,181.607,-817.213)">
                <rect x="1076.84" y="510.969" width="2.729" height="3.303" style="fill:rgb(0,34,31);"/>
            </g>
            <g transform="matrix(1.61882,-0.0220752,0.0287069,1.98718,134.917,-753.106)">
                <rect x="1076.84" y="510.969" width="2.729" height="3.303" style="fill:rgb(0,34,31);"/>
            </g>
            <g transform="matrix(1.61898,0,0,1.98737,158.722,-830.395)">
                <rect x="1076.84" y="510.969" width="2.729" height="3.303" style="fill:rgb(0,34,31);"/>
            </g>
            <g transform="matrix(1.61894,-0.0110379,0.0143538,1.98733,191.445,-817.28)">
                <rect x="1076.84" y="510.969" width="2.729" height="3.303" style="fill:rgb(0,34,31);"/>
            </g>
            <g transform="matrix(1.61882,-0.0220752,0.0287069,1.98718,144.754,-753.24)">
                <rect x="1076.84" y="510.969" width="2.729" height="3.303" style="fill:rgb(0,34,31);"/>
            </g>
            <g transform="matrix(1.06304,-0.0541627,0.0203115,0.376314,787.839,123.269)">
                <rect x="1076.84" y="510.969" width="2.729" height="3.303" style="fill:rgb(0,34,31);"/>
            </g>
        </g>
        <g transform="matrix(3.88187,0,0,3.88187,-6444.08,-90.9255)">
            <g transform="matrix(1.61898,0,0,1.57296,149.029,-628.332)">
                <rect x="1102.77" y="469.557" width="3.771" height="20.276" style="fill:rgb(0,34,31);"/>
            </g>
            <g transform="matrix(1.61898,0,0,1.57296,149.029,-628.332)">
                <path d="M1119.34,501.287L1070.43,499.94L1064.87,577.61L1119.98,574.982L1119.34,501.287Z" style="fill:rgb(0,34,31);"/>
            </g>
            <g transform="matrix(1.4803,0,0,1.2491,254.965,-478.959)">
                <path d="M1126.93,477.498L1159.2,517.004L1093.07,512.224L1126.93,477.498Z" style="fill:rgb(0,34,31);"/>
            </g>
            <g transform="matrix(1.95032,-0.00841925,0.00777675,1.70054,-210.423,-693.741)">
                <rect x="1074.7" y="513.866" width="10.181" height="13.889" style="fill:rgb(0,34,31);"/>
            </g>
            <g transform="matrix(1.95021,-0.0217159,0.0200587,1.70044,-176.704,-678.113)">
                <rect x="1074.7" y="513.866" width="10.181" height="13.889" style="fill:rgb(0,34,31);"/>
            </g>
            <g transform="matrix(1.95,-0.0350115,0.0323397,1.70026,-222.38,-611.566)">
                <rect x="1074.7" y="513.866" width="10.181" height="13.889" style="fill:rgb(0,34,31);"/>
            </g>
            <g transform="matrix(1.61755,-0.0659113,0.0687973,1.59377,112.015,-566.96)">
                <path d="M1110.4,546.764L1096.5,546.764L1096.47,575.381L1110.41,575.309L1110.4,546.764Z" style="fill:rgb(0,34,31);"/>
            </g>
            <g transform="matrix(1.61898,0,0,2.21188,148.884,-956.644)">
                <rect x="1076.84" y="510.969" width="2.729" height="3.303" style="fill:rgb(0,34,31);"/>
            </g>
            <g transform="matrix(1.61894,-0.0110379,0.0159754,2.21183,180.695,-943.459)">
                <rect x="1076.84" y="510.969" width="2.729" height="3.303" style="fill:rgb(0,34,31);"/>
            </g>
            <g transform="matrix(1.61882,-0.0220752,0.0319499,2.21167,133.094,-879.343)">
                <rect x="1076.84" y="510.969" width="2.729" height="3.303" style="fill:rgb(0,34,31);"/>
            </g>
            <g transform="matrix(1.61898,0,0,2.21188,158.722,-956.644)">
                <rect x="1076.84" y="510.969" width="2.729" height="3.303" style="fill:rgb(0,34,31);"/>
            </g>
            <g transform="matrix(1.61894,-0.0110379,0.0159754,2.21183,190.533,-943.526)">
                <rect x="1076.84" y="510.969" width="2.729" height="3.303" style="fill:rgb(0,34,31);"/>
            </g>
            <g transform="matrix(1.61882,-0.0220752,0.0319499,2.21167,142.93,-879.477)">
                <rect x="1076.84" y="510.969" width="2.729" height="3.303" style="fill:rgb(0,34,31);"/>
            </g>
            <g transform="matrix(1.61898,0,0,1.98737,148.884,-830.395)">
                <rect x="1076.84" y="510.969" width="2.729" height="3.303" style="fill:rgb(0,34,31);"/>
            </g>
            <g transform="matrix(1.61894,-0.0110379,0.0143538,1.98733,181.607,-817.213)">
                <rect x="1076.84" y="510.969" width="2.729" height="3.303" style="fill:rgb(0,34,31);"/>
            </g>
            <g transform="matrix(1.61882,-0.0220752,0.0287069,1.98718,134.917,-753.106)">
                <rect x="1076.84" y="510.969" width="2.729" height="3.303" style="fill:rgb(0,34,31);"/>
            </g>
            <g transform="matrix(1.61898,0,0,1.98737,158.722,-830.395)">
                <rect x="1076.84" y="510.969" width="2.729" height="3.303" style="fill:rgb(0,34,31);"/>
            </g>
            <g transform="matrix(1.61894,-0.0110379,0.0143538,1.98733,191.445,-817.28)">
                <rect x="1076.84" y="510.969" width="2.729" height="3.303" style="fill:rgb(0,34,31);"/>
            </g>
            <g transform="matrix(1.61882,-0.0220752,0.0287069,1.98718,144.754,-753.24)">
                <rect x="1076.84" y="510.969" width="2.729" height="3.303" style="fill:rgb(0,34,31);"/>
            </g>
            <g transform="matrix(1.06304,-0.0541627,0.0203115,0.376314,787.839,123.269)">
                <rect x="1076.84" y="510.969" width="2.729" height="3.303" style="fill:rgb(0,34,31);"/>
            </g>
        </g>
        <g transform="matrix(3.88187,0,0,3.25207,-5951.93,57.2622)">
            <g transform="matrix(1.61898,0,0,1.57296,149.029,-628.332)">
                <rect x="1102.77" y="469.557" width="3.771" height="20.276" style="fill:rgb(0,34,31);"/>
            </g>
            <g transform="matrix(1.61898,0,0,1.57296,149.029,-628.332)">
                <path d="M1119.34,501.287L1070.43,499.94L1064.87,577.61L1119.98,574.982L1119.34,501.287Z" style="fill:rgb(0,34,31);"/>
            </g>
            <g transform="matrix(1.4803,0,0,1.2491,254.965,-478.959)">
                <path d="M1126.93,477.498L1159.2,517.004L1093.07,512.224L1126.93,477.498Z" style="fill:rgb(0,34,31);"/>
            </g>
            <g transform="matrix(1.95032,-0.00841925,0.00777675,1.70054,-210.423,-693.741)">
                <rect x="1074.7" y="513.866" width="10.181" height="13.889" style="fill:rgb(0,34,31);"/>
            </g>
            <g transform="matrix(1.95021,-0.0217159,0.0200587,1.70044,-176.704,-678.113)">
                <rect x="1074.7" y="513.866" width="10.181" height="13.889" style="fill:rgb(0,34,31);"/>
            </g>
            <g transform="matrix(1.95,-0.0350115,0.0323397,1.70026,-222.38,-611.566)">
                <rect x="1074.7" y="513.866" width="10.181" height="13.889" style="fill:rgb(0,34,31);"/>
            </g>
            <g transform="matrix(1.61755,-0.0659113,0.0687973,1.59377,112.015,-566.96)">
                <path d="M1110.4,546.764L1096.5,546.764L1096.47,575.381L1110.41,575.309L1110.4,546.764Z" style="fill:rgb(0,34,31);"/>
            </g>
            <g transform="matrix(1.61898,0,0,2.21188,148.884,-956.644)">
                <rect x="1076.84" y="510.969" width="2.729" height="3.303" style="fill:rgb(0,34,31);"/>
            </g>
            <g transform="matrix(1.61894,-0.0110379,0.0159754,2.21183,180.695,-943.459)">
                <rect x="1076.84" y="510.969" width="2.729" height="3.303" style="fill:rgb(0,34,31);"/>
            </g>
            <g transform="matrix(1.61882,-0.0220752,0.0319499,2.21167,133.094,-879.343)">
                <rect x="1076.84" y="510.969" width="2.729" height="3.303" style="fill:rgb(0,34,31);"/>
            </g>
            <g transform="matrix(1.61898,0,0,2.21188,158.722,-956.644)">
                <rect x="1076.84" y="510.969" width="2.729" height="3.303" style="fill:rgb(0,34,31);"/>
            </g>
            <g transform="matrix(1.61894,-0.0110379,0.0159754,2.21183,190.533,-943.526)">
                <rect x="1076.84" y="510.969" width="2.729" height="3.303" style="fill:rgb(0,34,31);"/>
            </g>
            <g transform="matrix(1.61882,-0.0220752,0.0319499,2.21167,142.93,-879.477)">
                <rect x="1076.84" y="510.969" width="2.729" height="3.303" style="fill:rgb(0,34,31);"/>
            </g>
            <g transform="matrix(1.61898,0,0,1.98737,148.884,-830.395)">
                <rect x="1076.84" y="510.969" width="2.729" height="3.303" style="fill:rgb(0,34,31);"/>
            </g>
            <g transform="matrix(1.61894,-0.0110379,0.0143538,1.98733,181.607,-817.213)">
                <rect x="1076.84" y="510.969" width="2.729" height="3.303" style="fill:rgb(0,34,31);"/>
            </g>
            <g transform="matrix(1.61882,-0.0220752,0.0287069,1.98718,134.917,-753.106)">
                <rect x="1076.84" y="510.969" width="2.729" height="3.303" style="fill:rgb(0,34,31);"/>
            </g>
            <g transform="matrix(1.61898,0,0,1.98737,158.722,-830.395)">
                <rect x="1076.84" y="510.969" width="2.729" height="3.303" style="fill:rgb(0,34,31);"/>
            </g>
            <g transform="matrix(1.61894,-0.0110379,0.0143538,1.98733,191.445,-817.28)">
                <rect x="1076.84" y="510.969" width="2.729" height="3.303" style="fill:rgb(0,34,31);"/>
            </g>
            <g transform="matrix(1.61882,-0.0220752,0.0287069,1.98718,144.754,-753.24)">
                <rect x="1076.84" y="510.969" width="2.729" height="3.303" style="fill:rgb(0,34,31);"/>
            </g>
            <g transform="matrix(1.06304,-0.0541627,0.0203115,0.376314,787.839,123.269)">
                <rect x="1076.84" y="510.969" width="2.729" height="3.303" style="fill:rgb(0,34,31);"/>
            </g>
        </g>
        <g transform="matrix(4.41958,0,0,4.41958,-6864.39,-809.56)">
            <g transform="matrix(0.908059,0,0,1.20571,163.006,-64.475)">
                <rect x="1766.1" y="300.263" width="6.838" height="13.169" style="fill:rgb(0,34,31);"/>
            </g>
            <path d="M1783.39,336.18L1730.7,335.653L1729.11,396.085L1787.42,396.085L1783.39,336.18Z" style="fill:rgb(0,34,31);"/>
            <path d="M1775.18,369.107L1764.13,369.107L1758.33,396.085L1780.67,396.085L1775.18,369.107Z" style="fill:rgb(0,34,31);"/>
            <g transform="matrix(0.773592,0,0,0.940193,400.961,23.6888)">
                <path d="M1775.18,369.107L1764.13,369.107L1758.33,396.085L1780.67,396.085L1775.18,369.107Z" style="fill:rgb(0,34,31);"/>
            </g>
            <path d="M1785.03,313.416L1730.94,311.676L1727.93,337.991L1787.71,338.343L1785.03,313.416Z" style="fill:rgb(0,34,31);"/>
            <rect x="1737.24" y="343.998" width="13.591" height="14.459" style="fill:rgb(0,34,31);"/>
            <g transform="matrix(1,0,0,1,25.9118,0.151114)">
                <rect x="1737.24" y="343.998" width="13.591" height="14.459" style="fill:rgb(0,34,31);"/>
            </g>
            <g transform="matrix(1,0,0,1,0,26.3358)">
                <rect x="1737.24" y="343.998" width="13.591" height="14.459" style="fill:rgb(0,34,31);"/>
            </g>
            <g transform="matrix(1,0,0,0.337339,0,229.107)">
                <rect x="1738.84" y="345.737" width="3.329" height="10.693" style="fill:rgb(0,34,31);"/>
            </g>
            <g transform="matrix(1,0,0,0.337339,25.9118,229.258)">
                <rect x="1738.84" y="345.737" width="3.329" height="10.693" style="fill:rgb(0,34,31);"/>
            </g>
            <g transform="matrix(1,0,0,0.337339,6.75555,229.107)">
                <rect x="1738.84" y="345.737" width="3.329" height="10.693" style="fill:rgb(0,34,31);"/>
            </g>
            <g transform="matrix(1,0,0,0.337339,32.6674,229.258)">
                <rect x="1738.84" y="345.737" width="3.329" height="10.693" style="fill:rgb(0,34,31);"/>
            </g>
            <g transform="matrix(1,0,0,0.337339,6.75555,235.623)">
                <rect x="1738.84" y="345.737" width="3.329" height="10.693" style="fill:rgb(0,34,31);"/>
            </g>
            <g transform="matrix(1,0,0,0.337339,32.6674,235.774)">
                <rect x="1738.84" y="345.737" width="3.329" height="10.693" style="fill:rgb(0,34,31);"/>
            </g>
            <g transform="matrix(1,0,0,0.337339,0,235.623)">
                <rect x="1738.84" y="345.737" width="3.329" height="10.693" style="fill:rgb(0,34,31);"/>
            </g>
            <g transform="matrix(1,0,0,0.337339,25.9118,235.774)">
                <rect x="1738.84" y="345.737" width="3.329" height="10.693" style="fill:rgb(0,34,31);"/>
            </g>
            <g transform="matrix(1,0,0,0.337339,0.485603,255.455)">
                <rect x="1738.84" y="345.737" width="3.329" height="10.693" style="fill:rgb(0,34,31);"/>
            </g>
            <g transform="matrix(1,0,0,0.337339,0.485603,261.953)">
                <rect x="1738.84" y="345.737" width="3.329" height="10.693" style="fill:rgb(0,34,31);"/>
            </g>
            <g transform="matrix(1,0,0,0.337339,6.62644,261.953)">
                <rect x="1738.84" y="345.737" width="3.329" height="10.693" style="fill:rgb(0,34,31);"/>
            </g>
            <g transform="matrix(1,0,0,0.337339,6.62644,255.455)">
                <rect x="1738.84" y="345.737" width="3.329" height="10.693" style="fill:rgb(0,34,31);"/>
            </g>
        </g>
        <g transform="matrix(4.88291,0,0,4.88291,-6971.06,-860.069)">
            <g transform="matrix(0.908059,0,0,1.20571,163.006,-64.475)">
                <rect x="1766.1" y="300.263" width="6.838" height="13.169" style="fill:rgb(0,34,31);"/>
            </g>
            <path d="M1783.39,336.18L1730.7,335.653L1729.11,396.085L1787.42,396.085L1783.39,336.18Z" style="fill:rgb(0,34,31);"/>
            <path d="M1775.18,369.107L1764.13,369.107L1758.33,396.085L1780.67,396.085L1775.18,369.107Z" style="fill:rgb(0,34,31);"/>
            <g transform="matrix(0.773592,0,0,0.940193,400.961,23.6888)">
                <path d="M1775.18,369.107L1764.13,369.107L1758.33,396.085L1780.67,396.085L1775.18,369.107Z" style="fill:rgb(0,34,31);"/>
            </g>
            <path d="M1785.03,313.416L1730.94,311.676L1727.93,337.991L1787.71,338.343L1785.03,313.416Z" style="fill:rgb(0,34,31);"/>
            <rect x="1737.24" y="343.998" width="13.591" height="14.459" style="fill:rgb(0,34,31);"/>
            <g transform="matrix(1,0,0,1,25.9118,0.151114)">
                <rect x="1737.24" y="343.998" width="13.591" height="14.459" style="fill:rgb(0,34,31);"/>
            </g>
            <g transform="matrix(1,0,0,1,0,26.3358)">
                <rect x="1737.24" y="343.998" width="13.591" height="14.459" style="fill:rgb(0,34,31);"/>
            </g>
            <g transform="matrix(1,0,0,0.337339,0,229.107)">
                <rect x="1738.84" y="345.737" width="3.329" height="10.693" style="fill:rgb(0,34,31);"/>
            </g>
            <g transform="matrix(1,0,0,0.337339,25.9118,229.258)">
                <rect x="1738.84" y="345.737" width="3.329" height="10.693" style="fill:rgb(0,34,31);"/>
            </g>
            <g transform="matrix(1,0,0,0.337339,6.75555,229.107)">
                <rect x="1738.84" y="345.737" width="3.329" height="10.693" style="fill:rgb(0,34,31);"/>
            </g>
            <g transform="matrix(1,0,0,0.337339,32.6674,229.258)">
                <rect x="1738.84" y="345.737" width="3.329" height="10.693" style="fill:rgb(0,34,31);"/>
            </g>
            <g transform="matrix(1,0,0,0.337339,6.75555,235.623)">
                <rect x="1738.84" y="345.737" width="3.329" height="10.693" style="fill:rgb(0,34,31);"/>
            </g>
            <g transform="matrix(1,0,0,0.337339,32.6674,235.774)">
                <rect x="1738.84" y="345.737" width="3.329" height="10.693" style="fill:rgb(0,34,31);"/>
            </g>
            <g transform="matrix(1,0,0,0.337339,0,235.623)">
                <rect x="1738.84" y="345.737" width="3.329" height="10.693" style="fill:rgb(0,34,31);"/>
            </g>
            <g transform="matrix(1,0,0,0.337339,25.9118,235.774)">
                <rect x="1738.84" y="345.737" width="3.329" height="10.693" style="fill:rgb(0,34,31);"/>
            </g>
            <g transform="matrix(1,0,0,0.337339,0.485603,255.455)">
                <rect x="1738.84" y="345.737" width="3.329" height="10.693" style="fill:rgb(0,34,31);"/>
            </g>
            <g transform="matrix(1,0,0,0.337339,0.485603,261.953)">
                <rect x="1738.84" y="345.737" width="3.329" height="10.693" style="fill:rgb(0,34,31);"/>
            </g>
            <g transform="matrix(1,0,0,0.337339,6.62644,261.953)">
                <rect x="1738.84" y="345.737" width="3.329" height="10.693" style="fill:rgb(0,34,31);"/>
            </g>
            <g transform="matrix(1,0,0,0.337339,6.62644,255.455)">
                <rect x="1738.84" y="345.737" width="3.329" height="10.693" style="fill:rgb(0,34,31);"/>
            </g>
        </g>
    </g>
    <g transform="matrix(4.41958,0,0,4.41958,-7288.87,-625.004)">
        <g transform="matrix(0.907274,0.0377586,-0.0501353,1.20466,155.222,-127.804)">
            <path d="M1772.94,301.551C1772.94,300.84 1772.17,300.263 1771.23,300.263L1767.81,300.263C1766.87,300.263 1766.1,300.84 1766.1,301.551L1766.1,312.145C1766.1,312.856 1766.87,313.433 1767.81,313.433L1771.23,313.433C1772.17,313.433 1772.94,312.856 1772.94,312.145L1772.94,301.551Z" style="fill:rgb(242,112,112);"/>
        </g>
        <path d="M1783.39,336.18L1730.7,335.653L1729.11,396.085L1787.42,396.085L1783.39,336.18Z" style="fill:rgb(242,112,112);"/>
        <path d="M1775.18,369.107L1764.13,369.107L1758.33,396.085L1780.67,396.085L1775.18,369.107Z" style="fill:rgb(220,236,251);"/>
        <g transform="matrix(0.773592,0,0,0.940193,400.961,23.6888)">
            <path d="M1775.18,369.107L1764.13,369.107L1758.33,396.085L1780.67,396.085L1775.18,369.107Z" style="fill:rgb(12,61,58);"/>
        </g>
        <path d="M1785.03,313.416L1730.94,311.676L1727.93,337.991L1787.71,338.343L1785.03,313.416Z" style="fill:rgb(12,61,58);"/>
        <g transform="matrix(0.999933,0.0115996,-0.0115996,0.999933,4.77704,-22.7007)">
            <rect x="1737.24" y="343.998" width="13.591" height="14.459" style="fill:rgb(220,236,251);"/>
        </g>
        <g transform="matrix(1,0,0,1,26.0892,1.46036)">
            <rect x="1737.24" y="343.998" width="13.591" height="14.459" style="fill:rgb(220,236,251);"/>
        </g>
        <g transform="matrix(1.31539,0,0,1.14614,-548.299,-29.4702)">
            <rect x="1737.24" y="343.998" width="13.591" height="14.459" style="fill:rgb(220,236,251);"/>
        </g>
        <g transform="matrix(0.999933,0.0115996,-0.00391299,0.337316,2.1195,206.39)">
            <path d="M1742.17,348.204C1742.17,346.842 1741.8,345.737 1741.34,345.737L1739.67,345.737C1739.22,345.737 1738.84,346.842 1738.84,348.204L1738.84,353.963C1738.84,355.325 1739.22,356.43 1739.67,356.43L1741.34,356.43C1741.8,356.43 1742.17,355.325 1742.17,353.963L1742.17,348.204Z" style="fill:rgb(96,108,96);"/>
        </g>
        <g transform="matrix(1,0,0,0.337339,26.0892,230.567)">
            <path d="M1742.17,348.204C1742.17,346.842 1741.8,345.737 1741.34,345.737L1739.67,345.737C1739.22,345.737 1738.84,346.842 1738.84,348.204L1738.84,353.963C1738.84,355.325 1739.22,356.43 1739.67,356.43L1741.34,356.43C1741.8,356.43 1742.17,355.325 1742.17,353.963L1742.17,348.204Z" style="fill:rgb(96,108,96);"/>
        </g>
        <g transform="matrix(0.999933,0.0115996,-0.00391299,0.337316,8.87459,206.469)">
            <path d="M1742.17,348.204C1742.17,346.842 1741.8,345.737 1741.34,345.737L1739.67,345.737C1739.22,345.737 1738.84,346.842 1738.84,348.204L1738.84,353.963C1738.84,355.325 1739.22,356.43 1739.67,356.43L1741.34,356.43C1741.8,356.43 1742.17,355.325 1742.17,353.963L1742.17,348.204Z" style="fill:rgb(96,108,96);"/>
        </g>
        <g transform="matrix(1,0,0,0.337339,32.8447,230.567)">
            <path d="M1742.17,348.204C1742.17,346.842 1741.8,345.737 1741.34,345.737L1739.67,345.737C1739.22,345.737 1738.84,346.842 1738.84,348.204L1738.84,353.963C1738.84,355.325 1739.22,356.43 1739.67,356.43L1741.34,356.43C1741.8,356.43 1742.17,355.325 1742.17,353.963L1742.17,348.204Z" style="fill:rgb(96,108,96);"/>
        </g>
        <g transform="matrix(0.999933,0.0115996,-0.00391299,0.337316,8.799,212.985)">
            <path d="M1742.17,348.204C1742.17,346.842 1741.8,345.737 1741.34,345.737L1739.67,345.737C1739.22,345.737 1738.84,346.842 1738.84,348.204L1738.84,353.963C1738.84,355.325 1739.22,356.43 1739.67,356.43L1741.34,356.43C1741.8,356.43 1742.17,355.325 1742.17,353.963L1742.17,348.204Z" style="fill:rgb(96,108,96);"/>
        </g>
        <g transform="matrix(1,0,0,0.337339,32.8447,237.084)">
            <path d="M1742.17,348.204C1742.17,346.842 1741.8,345.737 1741.34,345.737L1739.67,345.737C1739.22,345.737 1738.84,346.842 1738.84,348.204L1738.84,353.963C1738.84,355.325 1739.22,356.43 1739.67,356.43L1741.34,356.43C1741.8,356.43 1742.17,355.325 1742.17,353.963L1742.17,348.204Z" style="fill:rgb(96,108,96);"/>
        </g>
        <g transform="matrix(0.999933,0.0115996,-0.00391299,0.337316,2.04391,212.907)">
            <path d="M1742.17,348.204C1742.17,346.842 1741.8,345.737 1741.34,345.737L1739.67,345.737C1739.22,345.737 1738.84,346.842 1738.84,348.204L1738.84,353.963C1738.84,355.325 1739.22,356.43 1739.67,356.43L1741.34,356.43C1741.8,356.43 1742.17,355.325 1742.17,353.963L1742.17,348.204Z" style="fill:rgb(96,108,96);"/>
        </g>
        <g transform="matrix(1,0,0,0.337339,26.0892,237.084)">
            <path d="M1742.17,348.204C1742.17,346.842 1741.8,345.737 1741.34,345.737L1739.67,345.737C1739.22,345.737 1738.84,346.842 1738.84,348.204L1738.84,353.963C1738.84,355.325 1739.22,356.43 1739.67,356.43L1741.34,356.43C1741.8,356.43 1742.17,355.325 1742.17,353.963L1742.17,348.204Z" style="fill:rgb(96,108,96);"/>
        </g>
        <g transform="matrix(1.31539,0,0,0.386637,-547.66,233.132)">
            <path d="M1742.17,348.41C1742.17,346.935 1741.82,345.737 1741.39,345.737L1739.63,345.737C1739.19,345.737 1738.84,346.935 1738.84,348.41L1738.84,353.757C1738.84,355.232 1739.19,356.43 1739.63,356.43L1741.39,356.43C1741.82,356.43 1742.17,355.232 1742.17,353.757L1742.17,348.41Z" style="fill:rgb(96,108,96);"/>
        </g>
        <g transform="matrix(1.31539,0,0,0.386637,-547.66,240.58)">
            <path d="M1742.17,348.41C1742.17,346.935 1741.82,345.737 1741.39,345.737L1739.63,345.737C1739.19,345.737 1738.84,346.935 1738.84,348.41L1738.84,353.757C1738.84,355.232 1739.19,356.43 1739.63,356.43L1741.39,356.43C1741.82,356.43 1742.17,355.232 1742.17,353.757L1742.17,348.41Z" style="fill:rgb(96,108,96);"/>
        </g>
        <g transform="matrix(1.31539,0,0,0.386637,-539.583,240.58)">
            <path d="M1742.17,348.41C1742.17,346.935 1741.82,345.737 1741.39,345.737L1739.63,345.737C1739.19,345.737 1738.84,346.935 1738.84,348.41L1738.84,353.757C1738.84,355.232 1739.19,356.43 1739.63,356.43L1741.39,356.43C1741.82,356.43 1742.17,355.232 1742.17,353.757L1742.17,348.41Z" style="fill:rgb(96,108,96);"/>
        </g>
        <g transform="matrix(1.31539,0,0,0.386637,-539.583,233.132)">
            <path d="M1742.17,348.41C1742.17,346.935 1741.82,345.737 1741.39,345.737L1739.63,345.737C1739.19,345.737 1738.84,346.935 1738.84,348.41L1738.84,353.757C1738.84,355.232 1739.19,356.43 1739.63,356.43L1741.39,356.43C1741.82,356.43 1742.17,355.232 1742.17,353.757L1742.17,348.41Z" style="fill:rgb(96,108,96);"/>
        </g>
    </g>
    <g transform="matrix(4.41958,0,0,4.41958,-6097.66,-626.088)">
        <g transform="matrix(0.908059,0,0,1.20571,136.503,-55.9885)">
            <path d="M1772.94,301.551C1772.94,300.84 1772.17,300.263 1771.23,300.263L1767.81,300.263C1766.87,300.263 1766.1,300.84 1766.1,301.551L1766.1,312.145C1766.1,312.856 1766.87,313.433 1767.81,313.433L1771.23,313.433C1772.17,313.433 1772.94,312.856 1772.94,312.145L1772.94,301.551Z" style="fill:rgb(219,225,57);"/>
        </g>
        <path d="M1783.39,336.18L1730.7,335.653L1729.11,396.085L1787.42,396.085L1783.39,336.18Z" style="fill:rgb(219,225,57);"/>
        <g transform="matrix(0.773592,0,0,0.940193,400.961,23.6888)">
            <path d="M1780.67,369.107C1773.76,363.433 1766.4,362.572 1758.33,369.107L1758.33,396.085L1780.67,396.085L1780.67,369.107Z" style="fill:rgb(182,73,70);"/>
        </g>
        <path d="M1785.03,313.416L1730.94,311.676L1727.93,337.991L1787.71,338.343L1785.03,313.416Z" style="fill:rgb(182,73,70);"/>
        <rect x="1737.24" y="343.998" width="13.591" height="14.459" style="fill:rgb(220,236,251);"/>
        <g transform="matrix(1,0,0,1,25.9118,0.151114)">
            <rect x="1737.24" y="343.998" width="13.591" height="14.459" style="fill:rgb(220,236,251);"/>
        </g>
        <g transform="matrix(1,0,0,1,0,26.3358)">
            <rect x="1737.24" y="343.998" width="13.591" height="14.459" style="fill:rgb(220,236,251);"/>
        </g>
        <g transform="matrix(1,0,0,0.337339,0,229.107)">
            <rect x="1738.84" y="345.737" width="3.329" height="10.693" style="fill:rgb(96,108,96);"/>
        </g>
        <g transform="matrix(1,0,0,0.337339,25.9118,229.258)">
            <path d="M1742.17,348.204C1742.17,346.842 1741.8,345.737 1741.34,345.737L1739.67,345.737C1739.22,345.737 1738.84,346.842 1738.84,348.204L1738.84,353.963C1738.84,355.325 1739.22,356.43 1739.67,356.43L1741.34,356.43C1741.8,356.43 1742.17,355.325 1742.17,353.963L1742.17,348.204Z" style="fill:rgb(96,108,96);"/>
        </g>
        <g transform="matrix(1,0,0,0.337339,6.75555,229.107)">
            <path d="M1742.17,348.204C1742.17,346.842 1741.8,345.737 1741.34,345.737L1739.67,345.737C1739.22,345.737 1738.84,346.842 1738.84,348.204L1738.84,353.963C1738.84,355.325 1739.22,356.43 1739.67,356.43L1741.34,356.43C1741.8,356.43 1742.17,355.325 1742.17,353.963L1742.17,348.204Z" style="fill:rgb(96,108,96);"/>
        </g>
        <g transform="matrix(1,0,0,0.337339,32.6674,229.258)">
            <path d="M1742.17,348.204C1742.17,346.842 1741.8,345.737 1741.34,345.737L1739.67,345.737C1739.22,345.737 1738.84,346.842 1738.84,348.204L1738.84,353.963C1738.84,355.325 1739.22,356.43 1739.67,356.43L1741.34,356.43C1741.8,356.43 1742.17,355.325 1742.17,353.963L1742.17,348.204Z" style="fill:rgb(96,108,96);"/>
        </g>
        <g transform="matrix(1,0,0,0.337339,6.75555,235.623)">
            <path d="M1742.17,348.204C1742.17,346.842 1741.8,345.737 1741.34,345.737L1739.67,345.737C1739.22,345.737 1738.84,346.842 1738.84,348.204L1738.84,353.963C1738.84,355.325 1739.22,356.43 1739.67,356.43L1741.34,356.43C1741.8,356.43 1742.17,355.325 1742.17,353.963L1742.17,348.204Z" style="fill:rgb(96,108,96);"/>
        </g>
        <g transform="matrix(1,0,0,0.337339,32.6674,235.774)">
            <path d="M1742.17,348.204C1742.17,346.842 1741.8,345.737 1741.34,345.737L1739.67,345.737C1739.22,345.737 1738.84,346.842 1738.84,348.204L1738.84,353.963C1738.84,355.325 1739.22,356.43 1739.67,356.43L1741.34,356.43C1741.8,356.43 1742.17,355.325 1742.17,353.963L1742.17,348.204Z" style="fill:rgb(96,108,96);"/>
        </g>
        <g transform="matrix(1,0,0,0.337339,0,235.623)">
            <rect x="1738.84" y="345.737" width="3.329" height="10.693" style="fill:rgb(96,108,96);"/>
        </g>
        <g transform="matrix(1,0,0,0.337339,25.9118,235.774)">
            <path d="M1742.17,348.204C1742.17,346.842 1741.8,345.737 1741.34,345.737L1739.67,345.737C1739.22,345.737 1738.84,346.842 1738.84,348.204L1738.84,353.963C1738.84,355.325 1739.22,356.43 1739.67,356.43L1741.34,356.43C1741.8,356.43 1742.17,355.325 1742.17,353.963L1742.17,348.204Z" style="fill:rgb(96,108,96);"/>
        </g>
        <g transform="matrix(1,0,0,0.337339,0.485603,255.455)">
            <rect x="1738.84" y="345.737" width="3.329" height="10.693" style="fill:rgb(96,108,96);"/>
        </g>
        <g transform="matrix(1,0,0,0.337339,0.485603,261.953)">
            <rect x="1738.84" y="345.737" width="3.329" height="10.693" style="fill:rgb(96,108,96);"/>
        </g>
        <g transform="matrix(1,0,0,0.337339,6.62644,261.953)">
            <path d="M1742.17,348.204C1742.17,346.842 1741.8,345.737 1741.34,345.737L1739.67,345.737C1739.22,345.737 1738.84,346.842 1738.84,348.204L1738.84,353.963C1738.84,355.325 1739.22,356.43 1739.67,356.43L1741.34,356.43C1741.8,356.43 1742.17,355.325 1742.17,353.963L1742.17,348.204Z" style="fill:rgb(96,108,96);"/>
        </g>
        <g transform="matrix(1,0,0,0.337339,6.62644,255.455)">
            <rect x="1738.84" y="345.737" width="3.329" height="10.693" style="fill:rgb(96,108,96);"/>
        </g>
    </g>
    <g transform="matrix(3.88187,0,0,3.88187,-6716,46.8765)">
        <g transform="matrix(1.60103,0.240372,-0.23354,1.55553,293.006,-863.641)">
            <path d="M1106.54,470.527C1106.54,469.991 1106.12,469.557 1105.6,469.557L1103.71,469.557C1103.19,469.557 1102.77,469.991 1102.77,470.527L1102.77,488.862C1102.77,489.398 1103.19,489.833 1103.71,489.833L1105.6,489.833C1106.12,489.833 1106.54,489.398 1106.54,488.862L1106.54,470.527Z" style="fill:rgb(198,225,244);"/>
        </g>
        <g transform="matrix(1.61898,0,0,1.57296,149.029,-628.332)">
            <path d="M1119.34,501.287L1070.43,499.94L1064.87,577.61L1119.98,574.982L1119.34,501.287Z" style="fill:rgb(198,225,244);"/>
        </g>
        <g transform="matrix(1.4803,0,0,1.2491,254.965,-478.959)">
            <path d="M1126.93,477.498L1159.2,517.004L1093.07,512.224L1126.93,477.498Z" style="fill:rgb(88,87,83);"/>
        </g>
        <g transform="matrix(1.94863,0.0815313,-0.0706542,1.69909,-165.85,-784.914)">
            <rect x="1074.7" y="513.866" width="10.181" height="13.889" style="fill:rgb(252,255,255);"/>
        </g>
        <g transform="matrix(1.94911,-0.0689502,0.0612433,1.69946,-196.039,-610.422)">
            <rect x="1074.7" y="513.866" width="10.181" height="13.889" style="fill:rgb(252,255,255);"/>
        </g>
        <g transform="matrix(1.94861,-0.0816281,0.0729856,1.69901,-242.284,-561.728)">
            <rect x="1074.7" y="513.866" width="10.181" height="13.889" style="fill:rgb(252,255,255);"/>
        </g>
        <g transform="matrix(1.61755,-0.0659113,0.0687973,1.59377,112.015,-566.96)">
            <path d="M1110.4,546.764L1096.5,546.764L1096.47,575.381L1110.41,575.309L1110.4,546.764Z" style="fill:rgb(249,255,255);"/>
        </g>
        <g transform="matrix(1.61725,0.0746614,-0.102004,2.20953,205.199,-1030.97)">
            <path d="M1079.57,511.468C1079.57,511.192 1079.26,510.969 1078.88,510.969L1077.52,510.969C1077.14,510.969 1076.84,511.192 1076.84,511.468L1076.84,513.773C1076.84,514.048 1077.14,514.272 1077.52,514.272L1078.88,514.272C1079.26,514.272 1079.57,514.048 1079.57,513.773L1079.57,511.468Z" style="fill:rgb(114,139,143);"/>
        </g>
        <g transform="matrix(1.61819,-0.0502508,0.0695487,2.21079,154.828,-884.348)">
            <path d="M1079.57,511.468C1079.57,511.192 1079.26,510.969 1078.88,510.969L1077.52,510.969C1077.14,510.969 1076.84,511.192 1076.84,511.468L1076.84,513.773C1076.84,514.048 1077.14,514.272 1077.52,514.272L1078.88,514.272C1079.26,514.272 1079.57,514.048 1079.57,513.773L1079.57,511.468Z" style="fill:rgb(114,139,143);"/>
        </g>
        <g transform="matrix(1.61783,-0.0607765,0.0848241,2.21027,106.685,-837.928)">
            <path d="M1079.57,511.468C1079.57,511.192 1079.26,510.969 1078.88,510.969L1077.52,510.969C1077.14,510.969 1076.84,511.192 1076.84,511.468L1076.84,513.773C1076.84,514.048 1077.14,514.272 1077.52,514.272L1078.88,514.272C1079.26,514.272 1079.57,514.048 1079.57,513.773L1079.57,511.468Z" style="fill:rgb(114,139,143);"/>
        </g>
        <g transform="matrix(1.61725,0.0746614,-0.102004,2.20953,215.026,-1030.51)">
            <path d="M1079.57,511.468C1079.57,511.192 1079.26,510.969 1078.88,510.969L1077.52,510.969C1077.14,510.969 1076.84,511.192 1076.84,511.468L1076.84,513.773C1076.84,514.048 1077.14,514.272 1077.52,514.272L1078.88,514.272C1079.26,514.272 1079.57,514.048 1079.57,513.773L1079.57,511.468Z" style="fill:rgb(114,139,143);"/>
        </g>
        <g transform="matrix(1.61819,-0.0502508,0.0695487,2.21079,164.661,-884.653)">
            <path d="M1079.57,511.468C1079.57,511.192 1079.26,510.969 1078.88,510.969L1077.52,510.969C1077.14,510.969 1076.84,511.192 1076.84,511.468L1076.84,513.773C1076.84,514.048 1077.14,514.272 1077.52,514.272L1078.88,514.272C1079.26,514.272 1079.57,514.048 1079.57,513.773L1079.57,511.468Z" style="fill:rgb(114,139,143);"/>
        </g>
        <g transform="matrix(1.61783,-0.0607765,0.0848241,2.21027,116.516,-838.297)">
            <path d="M1079.57,511.468C1079.57,511.192 1079.26,510.969 1078.88,510.969L1077.52,510.969C1077.14,510.969 1076.84,511.192 1076.84,511.468L1076.84,513.773C1076.84,514.048 1077.14,514.272 1077.52,514.272L1078.88,514.272C1079.26,514.272 1079.57,514.048 1079.57,513.773L1079.57,511.468Z" style="fill:rgb(114,139,143);"/>
        </g>
        <g transform="matrix(1.61725,0.0746614,-0.0916505,1.98526,199.377,-904.853)">
            <path d="M1079.57,511.524C1079.57,511.218 1079.26,510.969 1078.88,510.969L1077.52,510.969C1077.14,510.969 1076.84,511.218 1076.84,511.524L1076.84,513.716C1076.84,514.023 1077.14,514.272 1077.52,514.272L1078.88,514.272C1079.26,514.272 1079.57,514.023 1079.57,513.716L1079.57,511.524Z" style="fill:rgb(114,139,143);"/>
        </g>
        <g transform="matrix(1.61819,-0.0502508,0.0624894,1.98639,158.798,-758.161)">
            <path d="M1079.57,511.524C1079.57,511.218 1079.26,510.969 1078.88,510.969L1077.52,510.969C1077.14,510.969 1076.84,511.218 1076.84,511.524L1076.84,513.716C1076.84,514.023 1077.14,514.272 1077.52,514.272L1078.88,514.272C1079.26,514.272 1079.57,514.023 1079.57,513.716L1079.57,511.524Z" style="fill:rgb(114,139,143);"/>
        </g>
        <g transform="matrix(1.61783,-0.0607765,0.0762143,1.98592,111.527,-711.771)">
            <path d="M1079.57,511.524C1079.57,511.218 1079.26,510.969 1078.88,510.969L1077.52,510.969C1077.14,510.969 1076.84,511.218 1076.84,511.524L1076.84,513.716C1076.84,514.023 1077.14,514.272 1077.52,514.272L1078.88,514.272C1079.26,514.272 1079.57,514.023 1079.57,513.716L1079.57,511.524Z" style="fill:rgb(114,139,143);"/>
        </g>
        <g transform="matrix(1.61725,0.0746614,-0.0916505,1.98526,209.204,-904.399)">
            <path d="M1079.57,511.524C1079.57,511.218 1079.26,510.969 1078.88,510.969L1077.52,510.969C1077.14,510.969 1076.84,511.218 1076.84,511.524L1076.84,513.716C1076.84,514.023 1077.14,514.272 1077.52,514.272L1078.88,514.272C1079.26,514.272 1079.57,514.023 1079.57,513.716L1079.57,511.524Z" style="fill:rgb(114,139,143);"/>
        </g>
        <g transform="matrix(1.61819,-0.0502508,0.0624894,1.98639,168.631,-758.466)">
            <path d="M1079.57,511.524C1079.57,511.218 1079.26,510.969 1078.88,510.969L1077.52,510.969C1077.14,510.969 1076.84,511.218 1076.84,511.524L1076.84,513.716C1076.84,514.023 1077.14,514.272 1077.52,514.272L1078.88,514.272C1079.26,514.272 1079.57,514.023 1079.57,513.716L1079.57,511.524Z" style="fill:rgb(114,139,143);"/>
        </g>
        <g transform="matrix(1.61783,-0.0607765,0.0762143,1.98592,121.358,-712.14)">
            <path d="M1079.57,511.524C1079.57,511.218 1079.26,510.969 1078.88,510.969L1077.52,510.969C1077.14,510.969 1076.84,511.218 1076.84,511.524L1076.84,513.716C1076.84,514.023 1077.14,514.272 1077.52,514.272L1078.88,514.272C1079.26,514.272 1079.57,514.023 1079.57,513.716L1079.57,511.524Z" style="fill:rgb(114,139,143);"/>
        </g>
        <g transform="matrix(1.06304,-0.0541627,0.0203115,0.376314,787.839,123.269)">
            <rect x="1076.84" y="510.969" width="2.729" height="3.303" style="fill:rgb(114,139,143);"/>
        </g>
    </g>
    <g transform="matrix(1.28553,0,0,1.30385,-89.6256,-767.782)">
        <g transform="matrix(1.18384,0,0,1.01255,-986.048,28.6786)">
            <rect x="1481.31" y="885.466" width="480.946" height="567.609" style="fill:rgb(105,186,201);"/>
        </g>
        <g transform="matrix(0.872957,0,0,1.03447,-162.352,-23.6011)">
            <path d="M1391.38,714.065L1730.5,925.253L1052.26,925.253L1391.38,714.065Z" style="fill:rgb(105,186,201);"/>
        </g>
        <g transform="matrix(0.290083,0,0,0.970723,902.797,504.023)">
            <path d="M1104.5,278.649C1104.5,273.337 1089.86,269.025 1071.83,269.025L1006.5,269.025C988.476,269.025 973.839,273.337 973.839,278.649L973.839,397.597C973.839,402.908 988.476,407.221 1006.5,407.221L1071.83,407.221C1089.86,407.221 1104.5,402.908 1104.5,397.597L1104.5,278.649Z" style="fill:rgb(105,186,201);"/>
        </g>
    </g>
    <g id="Layer17">
        <g transform="matrix(0.104495,0,0,0.126696,1416.14,532.405)">
            <ellipse cx="1096.2" cy="1189.61" rx="854.789" ry="78.644" style="fill:rgb(12,61,58);fill-opacity:0.55;"/>
        </g>
        <g transform="matrix(0.107749,0,0,0.126696,1335.8,764.729)">
            <ellipse cx="1096.2" cy="1189.61" rx="854.789" ry="78.644" style="fill:rgb(12,61,58);fill-opacity:0.55;"/>
        </g>
        <g transform="matrix(0.0307476,0,0,0.0834108,1562.35,819.679)">
            <ellipse cx="1096.2" cy="1189.61" rx="854.789" ry="78.644" style="fill:rgb(12,61,58);fill-opacity:0.55;"/>
        </g>
        <g transform="matrix(0.0335619,0,0,0.0231931,1516.29,889.49)">
            <ellipse cx="1096.2" cy="1189.61" rx="854.789" ry="78.644" style="fill:rgb(12,61,58);fill-opacity:0.55;"/>
        </g>
        <g transform="matrix(0.0653032,0,0,0.126696,1276.99,533.785)">
            <ellipse cx="1096.2" cy="1189.61" rx="854.789" ry="78.644" style="fill:rgb(12,61,58);fill-opacity:0.55;"/>
        </g>
        <g transform="matrix(0.0212604,0,0,0.126696,922.134,532.195)">
            <ellipse cx="1096.2" cy="1189.61" rx="854.789" ry="78.644" style="fill:rgb(12,61,58);fill-opacity:0.55;"/>
        </g>
        <g transform="matrix(0.0752933,0,0,0.126696,972.302,531.213)">
            <ellipse cx="1096.2" cy="1189.61" rx="854.789" ry="78.644" style="fill:rgb(12,61,58);fill-opacity:0.55;"/>
        </g>
        <g transform="matrix(0.163369,0,0,0.234539,879.909,628.01)">
            <ellipse cx="1096.2" cy="1189.61" rx="854.789" ry="78.644" style="fill:rgb(12,61,58);fill-opacity:0.55;"/>
        </g>
        <g transform="matrix(0.0771031,0,0,0.268319,1467.37,830.964)">
            <ellipse cx="1096.2" cy="1189.61" rx="854.789" ry="78.644" style="fill:rgb(12,61,58);fill-opacity:0.55;"/>
        </g>
        <g transform="matrix(0.156092,0,0,0.12756,1167.84,1009.49)">
            <ellipse cx="1096.2" cy="1189.61" rx="854.789" ry="78.644" style="fill:rgb(12,61,58);fill-opacity:0.55;"/>
        </g>
        <g transform="matrix(0.0950772,0,0,0.0822613,1018.21,1062.4)">
            <ellipse cx="1096.2" cy="1189.61" rx="854.789" ry="78.644" style="fill:rgb(12,61,58);fill-opacity:0.55;"/>
        </g>
        <g transform="matrix(0.0686446,0,0,0.0822613,890.412,1063.62)">
            <ellipse cx="1096.2" cy="1189.61" rx="854.789" ry="78.644" style="fill:rgb(12,61,58);fill-opacity:0.55;"/>
        </g>
        <g transform="matrix(0.054853,-0.00121298,0.00442488,0.200101,1244.93,675.633)">
            <ellipse cx="1096.2" cy="1189.61" rx="854.789" ry="78.644" style="fill:rgb(12,61,58);fill-opacity:0.55;"/>
        </g>
    </g>
    <g transform="matrix(1.28553,0,0,1.28553,-91.7801,-737.918)">
        <g transform="matrix(1,0,0,1.48829,-2.03841e-10,-458.964)">
            <rect x="1272.25" y="939.952" width="1.422" height="21.289"/>
        </g>
        <g transform="matrix(1,0,0,1,-0.472102,28.3853)">
            <ellipse cx="1274.15" cy="958.222" rx="2.885" ry="3.019" style="fill:white;"/>
        </g>
        <g transform="matrix(4.10486e-17,0.676083,-0.999537,6.06872e-17,2258.37,120.669)">
            <path d="M1287.71,967.473C1274.15,967.473 1263.14,975.395 1263.14,985.154C1263.14,994.912 1274.15,1002.83 1287.71,1002.83C1283.64,998.709 1280.34,992.207 1280.34,985.154C1280.34,978.101 1283.64,971.598 1287.71,967.473Z"/>
        </g>
        <g transform="matrix(1,0,0,1,-1.18324,13.4139)">
            <ellipse cx="1274.15" cy="958.222" rx="2.885" ry="3.019"/>
        </g>
    </g>
    <g transform="matrix(1.28553,0,0,1.28553,-91.7801,-737.918)">
        <g transform="matrix(0.458843,-1.2326e-32,2.46519e-32,1.13616,470.15,-139.216)">
            <path d="M935.057,985.771C903.726,974.775 868.705,974.147 829.506,985.609L829.506,1028.97L935.057,1028.97L935.057,985.771Z" style="fill:rgb(128,128,128);"/>
        </g>
        <g transform="matrix(1.55146,0,0,0.566368,-470.704,443.555)">
            <path d="M863.633,986.097C863.633,983.712 862.926,981.775 862.055,981.775L858.899,981.775C858.028,981.775 857.321,983.712 857.321,986.097L857.321,1018.56C857.321,1020.95 858.028,1022.88 858.899,1022.88L862.055,1022.88C862.926,1022.88 863.633,1020.95 863.633,1018.56L863.633,986.097Z" style="fill:white;"/>
        </g>
        <g transform="matrix(1.55146,0,0,0.566368,-449.929,443.555)">
            <path d="M863.633,986.097C863.633,983.712 862.926,981.775 862.055,981.775L858.899,981.775C858.028,981.775 857.321,983.712 857.321,986.097L857.321,1018.56C857.321,1020.95 858.028,1022.88 858.899,1022.88L862.055,1022.88C862.926,1022.88 863.633,1020.95 863.633,1018.56L863.633,986.097Z" style="fill:white;"/>
        </g>
        <g transform="matrix(6.245e-17,1,-1,6.245e-17,1852.99,129.155)">
            <path d="M851.856,953.797C838.689,953.797 827.999,964.648 827.999,978.013C827.999,991.378 838.689,1002.23 851.856,1002.23C847.244,996.984 843.5,987.938 843.5,978.013C843.5,968.087 847.244,959.042 851.856,953.797Z" style="fill:rgb(128,128,128);"/>
        </g>
        <g transform="matrix(1.55146,0,0,0.566368,-449.929,414.18)">
            <path d="M863.633,986.097C863.633,983.712 862.926,981.775 862.055,981.775L858.899,981.775C858.028,981.775 857.321,983.712 857.321,986.097L857.321,1018.56C857.321,1020.95 858.028,1022.88 858.899,1022.88L862.055,1022.88C862.926,1022.88 863.633,1020.95 863.633,1018.56L863.633,986.097Z" style="fill:white;"/>
        </g>
        <g transform="matrix(1.55146,-1.2326e-32,6.16298e-33,0.566368,-470.704,414.18)">
            <path d="M863.633,986.097C863.633,983.712 862.926,981.775 862.055,981.775L858.899,981.775C858.028,981.775 857.321,983.712 857.321,986.097L857.321,1018.56C857.321,1020.95 858.028,1022.88 858.899,1022.88L862.055,1022.88C862.926,1022.88 863.633,1020.95 863.633,1018.56L863.633,986.097Z" style="fill:white;"/>
        </g>
    </g>
    <g id="Layer3">
        <g transform="matrix(1.28553,0,0,1.28553,-119.577,-739.528)">
            <rect x="941.505" y="972.339" width="124.958" height="6.904"/>
        </g>
        <g transform="matrix(0.743122,0,0,1.28553,457.281,-699.027)">
            <rect x="941.505" y="972.339" width="124.958" height="6.904"/>
        </g>
        <g transform="matrix(1.28553,0,0,0.306563,-119.577,212.356)">
            <path d="M999.939,959.043C999.939,956.597 999.466,954.611 998.883,954.611L952.456,954.611C951.873,954.611 951.399,956.597 951.399,959.043L951.399,967.907C951.399,970.353 951.873,972.339 952.456,972.339L998.883,972.339C999.466,972.339 999.939,970.353 999.939,967.907L999.939,959.043Z" style="fill:white;"/>
        </g>
        <g transform="matrix(1.28553,0,0,0.306563,-119.577,206.922)">
            <path d="M999.939,959.043C999.939,956.597 999.466,954.611 998.883,954.611L952.456,954.611C951.873,954.611 951.399,956.597 951.399,959.043L951.399,967.907C951.399,970.353 951.873,972.339 952.456,972.339L998.883,972.339C999.466,972.339 999.939,970.353 999.939,967.907L999.939,959.043Z" style="fill:rgb(181,153,139);"/>
        </g>
        <g transform="matrix(1.28553,0,0,0.306563,-119.577,201.487)">
            <path d="M999.939,959.043C999.939,956.597 999.466,954.611 998.883,954.611L952.456,954.611C951.873,954.611 951.399,956.597 951.399,959.043L951.399,967.907C951.399,970.353 951.873,972.339 952.456,972.339L998.883,972.339C999.466,972.339 999.939,970.353 999.939,967.907L999.939,959.043Z" style="fill:rgb(249,255,255);"/>
        </g>
        <g transform="matrix(1.28553,0,0,0.757259,-119.577,-225.872)">
            <rect x="1024" y="950.809" width="5.965" height="21.53" style="fill:white;"/>
        </g>
        <g transform="matrix(1.28553,0,0,0.590568,-119.577,-72.6061)">
            <path d="M1029.96,959.656C1029.23,966.632 1024.43,966.348 1024,959.656L1025.49,955.359L1028.47,955.359L1029.96,959.656Z" style="fill:white;"/>
        </g>
        <g transform="matrix(7.13611e-17,1.28553,-1.28553,7.13611e-17,2430.48,-828.828)">
            <path d="M1027.31,955.689C1027.13,955.689 1026.98,956.135 1026.98,956.685C1026.98,957.235 1027.13,957.682 1027.31,957.682C1027.26,957.449 1027.21,957.083 1027.21,956.685C1027.21,956.288 1027.26,955.921 1027.31,955.689Z" style="fill:white;"/>
        </g>
        <g transform="matrix(1.28553,0,0,1.02077,-51.8964,-482.098)">
            <ellipse cx="961.32" cy="1001.35" rx="9.921" ry="11.029" style="fill:white;"/>
        </g>
        <g transform="matrix(1.28553,0,0,1.28553,-53.0256,-748.582)">
            <ellipse cx="961.912" cy="992.307" rx="3.013" ry="2.754" style="fill:rgb(181,153,139);"/>
        </g>
        <g transform="matrix(1.28553,0,0,1.28553,-56.1653,-750.398)">
            <ellipse cx="993.704" cy="993.065" rx="2.2" ry="1.996" style="fill:rgb(181,153,139);"/>
        </g>
        <g transform="matrix(1.28553,0,0,1.28553,-55.6596,-751.362)">
            <path d="M997.206,995.061L990.073,995.061L987.145,1012.58L1001.34,1012.58L997.206,995.061Z" style="fill:white;"/>
        </g>
        <g transform="matrix(1.11143,0,0,1.04599,99.0413,-493.05)">
            <path d="M1021.63,1036.58C1021.63,1032.38 1018.42,1028.97 1014.47,1028.97L1000.16,1028.97C996.213,1028.97 993.007,1032.38 993.007,1036.58L993.007,1061.59C993.007,1065.78 996.213,1069.19 1000.16,1069.19L1014.47,1069.19C1018.42,1069.19 1021.63,1065.78 1021.63,1061.59L1021.63,1036.58Z" style="fill:white;"/>
        </g>
        <g transform="matrix(1.11143,0,0,1.04599,53.302,-493.05)">
            <path d="M1021.63,1036.58C1021.63,1032.38 1018.42,1028.97 1014.47,1028.97L1000.16,1028.97C996.213,1028.97 993.007,1032.38 993.007,1036.58L993.007,1061.59C993.007,1065.78 996.213,1069.19 1000.16,1069.19L1014.47,1069.19C1018.42,1069.19 1021.63,1065.78 1021.63,1061.59L1021.63,1036.58Z" style="fill:white;"/>
        </g>
        <g id="Layer2" transform="matrix(1,0,0,1,-740.681,67.936)">
            <g transform="matrix(1.28553,0,0,0.642763,-333.988,-55.8051)">
                <path d="M1617.19,1034.09C1617.19,1033.29 1616.87,1032.64 1616.47,1032.64L1615.03,1032.64C1614.63,1032.64 1614.3,1033.29 1614.3,1034.09L1614.3,1045.1C1614.3,1045.9 1614.63,1046.55 1615.03,1046.55L1616.47,1046.55C1616.87,1046.55 1617.19,1045.9 1617.19,1045.1L1617.19,1034.09Z"/>
            </g>
            <g transform="matrix(1.28553,0,0,0.642763,-231.814,-55.8051)">
                <path d="M1617.19,1034.09C1617.19,1033.29 1616.87,1032.64 1616.47,1032.64L1615.03,1032.64C1614.63,1032.64 1614.3,1033.29 1614.3,1034.09L1614.3,1045.1C1614.3,1045.9 1614.63,1046.55 1615.03,1046.55L1616.47,1046.55C1616.87,1046.55 1617.19,1045.9 1617.19,1045.1L1617.19,1034.09Z"/>
            </g>
            <g transform="matrix(1.28553,0,0,1.28553,-333.988,-719.551)">
                <path d="M1569.11,984.223L1572.45,987.729L1574.65,987.552C1580.92,997.873 1587.19,1008.2 1593.69,1018.37C1595.13,1020.61 1596.58,1022.89 1598.44,1024.79C1600.91,1027.3 1603.49,1029.84 1606.6,1031.49C1608.88,1032.71 1611.6,1032.94 1614.17,1033.16L1703.79,1033.77C1709.03,1031.61 1712.38,1027.77 1714.27,1022.64L1718.49,1009.73L1721.66,999.106L1723.55,997.799C1725.21,999.324 1727.15,999.311 1729.43,997.443L1726.38,994.185C1720.67,984.239 1675.36,985.975 1674.62,987.782C1656.85,991.659 1639.97,990.35 1623.67,985.62L1612.55,981.098C1600.52,974.529 1570.57,976.355 1569.11,984.223Z" style="fill:rgb(252,255,255);"/>
            </g>
            <g transform="matrix(0.712011,0,0,0.90736,1250.49,-208.114)">
                <path d="M614.109,723.454C609.232,740.443 627.903,739.116 625.724,726.628C621.508,702.463 591.736,701.778 590.38,720.791C588.174,751.709 590.38,909.222 590.38,909.222L600.85,909.222L600.274,722.838C602.462,711.578 615.16,719.791 614.109,723.454Z"/>
            </g>
            <g transform="matrix(0.420358,-0.0139317,0.024239,0.731358,1404.32,-78.4276)">
                <path d="M671.565,750.387L612.456,750.387L627.233,730.241L656.788,730.241L671.565,750.387Z"/>
            </g>
            <g transform="matrix(0.709477,0.0600156,-0.0764815,0.904131,1307.66,-245.616)">
                <path d="M610.85,743.478C610.85,743.478 607.651,751.804 607.651,755.372C607.651,756.757 609.084,757.882 610.85,757.882C612.615,757.882 614.049,756.757 614.049,755.372C614.049,751.804 610.85,743.478 610.85,743.478Z" style="fill:white;"/>
            </g>
            <g transform="matrix(0.514572,-0.0370253,0.0353191,0.490861,1351.37,136.807)">
                <path d="M610.85,743.478C610.85,743.478 607.651,754.218 607.651,754.529C607.651,756.379 609.084,757.882 610.85,757.882C612.615,757.882 614.049,756.379 614.049,754.529C614.049,754.218 610.85,743.478 610.85,743.478Z" style="fill:white;"/>
            </g>
            <g transform="matrix(0.626476,-0.0307904,0.0279308,0.568293,1297.67,66.2832)">
                <path d="M610.85,743.478C610.85,743.478 607.651,754.05 607.651,754.356C607.651,756.302 609.084,757.882 610.85,757.882C612.615,757.882 614.049,756.302 614.049,754.356C614.049,754.05 610.85,743.478 610.85,743.478Z" style="fill:white;"/>
            </g>
            <g transform="matrix(1.28553,0,0,1.28553,621.104,-807.464)">
                <rect x="973.558" y="1032.82" width="96.137" height="5.051" style="fill:white;"/>
            </g>
            <g transform="matrix(1.28553,0,0,1.28553,621.104,-807.464)">
                <ellipse cx="975.234" cy="1034.66" rx="5.865" ry="5.685"/>
            </g>
            <g transform="matrix(1.28553,0,0,1.28553,742.536,-807.464)">
                <ellipse cx="975.234" cy="1034.66" rx="5.865" ry="5.685"/>
            </g>
        </g>
    </g>
    <g transform="matrix(0.793569,0,0,0.793569,-1.40488,-306.696)">
        <path d="M1661.4,1230.3C1661.4,1230.3 1657.49,1243.55 1657.49,1249.23C1657.49,1251.39 1659.24,1253.14 1661.4,1253.14C1663.56,1253.14 1665.31,1251.39 1665.31,1249.23C1665.31,1243.55 1661.4,1230.3 1661.4,1230.3Z"/>
        <g transform="matrix(1,0,0,1,76.1626,0)">
            <path d="M1661.4,1230.3C1661.4,1230.3 1657.49,1243.55 1657.49,1249.23C1657.49,1251.39 1659.24,1253.14 1661.4,1253.14C1663.56,1253.14 1665.31,1251.39 1665.31,1249.23C1665.31,1243.55 1661.4,1230.3 1661.4,1230.3Z"/>
        </g>
        <g transform="matrix(0.997689,0,0,1.01162,150.376,-14.3181)">
            <rect x="1484" y="1142.77" width="137.745" height="93.645" style="fill:white;"/>
        </g>
        <g transform="matrix(1,0,0,1,0,30.5124)">
            <rect x="1630.94" y="1164.83" width="137.427" height="2.623" style="fill:rgb(105,186,201);"/>
        </g>
        <rect x="1630.94" y="1164.83" width="137.427" height="2.623" style="fill:rgb(105,186,201);"/>
        <ellipse cx="1661.4" cy="1154.83" rx="3.911" ry="3.771"/>
        <g transform="matrix(1,0,0,1,80.0739,0)">
            <ellipse cx="1661.4" cy="1154.83" rx="3.911" ry="3.771"/>
        </g>
        <g transform="matrix(1,0,0,1,80.0739,28.8683)">
            <ellipse cx="1661.4" cy="1154.83" rx="3.911" ry="3.771"/>
        </g>
        <g transform="matrix(1,0,0,1,80.0739,63.618)">
            <ellipse cx="1661.4" cy="1154.83" rx="3.911" ry="3.771"/>
        </g>
        <g transform="matrix(1,0,0,1,0,25.0977)">
            <ellipse cx="1661.4" cy="1154.83" rx="3.911" ry="3.771"/>
        </g>
        <g transform="matrix(1,0,0,1,0,59.8474)">
            <ellipse cx="1661.4" cy="1154.83" rx="3.911" ry="3.771"/>
        </g>
    </g>
    <g transform="matrix(1.28553,0,0,1.28553,-91.7801,-737.918)">
        <g transform="matrix(1.02879,0,0,2.23966,-46.3716,-1316.79)">
            <path d="M1342.25,1065.46C1342.25,1064.84 1341.15,1064.34 1339.8,1064.34L1200.84,1064.34C1199.49,1064.34 1198.39,1064.84 1198.39,1065.46L1198.39,1067.72C1198.39,1068.34 1199.49,1068.84 1200.84,1068.84L1339.8,1068.84C1341.15,1068.84 1342.25,1068.34 1342.25,1067.72L1342.25,1065.46Z"/>
        </g>
        <path d="M1204.08,1075.15C1204.08,1073.99 1203.14,1073.05 1201.98,1073.05L1197.78,1073.05C1196.62,1073.05 1195.68,1073.99 1195.68,1075.15L1195.68,1106.01C1195.68,1107.17 1196.62,1108.11 1197.78,1108.11L1201.98,1108.11C1203.14,1108.11 1204.08,1107.17 1204.08,1106.01L1204.08,1075.15Z"/>
        <g transform="matrix(1,0,0,1,121.377,1.07946)">
            <path d="M1204.08,1075.15C1204.08,1073.99 1203.14,1073.05 1201.98,1073.05L1197.78,1073.05C1196.62,1073.05 1195.68,1073.99 1195.68,1075.15L1195.68,1106.01C1195.68,1107.17 1196.62,1108.11 1197.78,1108.11L1201.98,1108.11C1203.14,1108.11 1204.08,1107.17 1204.08,1106.01L1204.08,1075.15Z"/>
        </g>
        <g transform="matrix(1.16438,0,0,1,-801.266,546.69)">
            <path d="M1701.87,526.358C1701.87,526.358 1707.6,514.904 1712,513.545C1712,513.545 1746.56,507.795 1771.08,509.437C1771.08,509.437 1796.51,508.262 1819.27,522.934L1701.87,526.358Z" style="fill:white;"/>
        </g>
        <g transform="matrix(1,0,0,1.09282,-527.391,504.234)">
            <path d="M1825.15,517.75C1825.15,517.75 1837.39,488.606 1863.75,494.593L1863.75,517.75L1825.15,517.75Z" style="fill:white;"/>
        </g>
    </g>
    <g transform="matrix(1.5125,0.587704,-0.595031,1.53135,209.67,-1703.44)">
        <path d="M1246.61,995.109L1248.47,1000.83L1254.48,1000.83L1249.62,1004.37L1251.48,1010.09L1246.61,1006.55L1241.75,1010.09L1243.61,1004.37L1238.74,1000.83L1244.75,1000.83L1246.61,995.109Z" style="fill:white;"/>
    </g>
    <g transform="matrix(0.569998,-0.539855,0.462041,0.487839,274.514,702.336)">
        <path d="M1218.15,972.355C1207.05,972.355 1198.04,984.464 1198.04,999.379C1198.04,1014.3 1207.05,1026.4 1218.15,1026.4C1212.6,1021.9 1208.1,1011.34 1208.1,999.379C1208.1,987.418 1212.6,976.859 1218.15,972.355Z" style="fill:white;"/>
    </g>
    <g transform="matrix(0.838431,-0.444752,0.458539,0.864422,-91.6829,266.633)">
        <path d="M1246.61,995.109L1248.47,1000.83L1254.48,1000.83L1249.62,1004.37L1251.48,1010.09L1246.61,1006.55L1241.75,1010.09L1243.61,1004.37L1238.74,1000.83L1244.75,1000.83L1246.61,995.109Z" style="fill:white;"/>
    </g>
    <g transform="matrix(1.28553,0,0,1.28553,-93.2454,-753.288)">
        <g transform="matrix(1.18243,0,0,1,-289.366,158.546)">
            <path d="M1105.93,1020.32C1105.93,1019.87 1105.63,1019.51 1105.25,1019.51L1103.89,1019.51C1103.52,1019.51 1103.21,1019.87 1103.21,1020.32L1103.21,1039.11C1103.21,1039.55 1103.52,1039.91 1103.89,1039.91L1105.25,1039.91C1105.63,1039.91 1105.93,1039.55 1105.93,1039.11L1105.93,1020.32Z" style="fill:white;"/>
        </g>
        <g transform="matrix(1.18243,0,0,1,-256.607,161.993)">
            <path d="M1105.93,1020.32C1105.93,1019.87 1105.63,1019.51 1105.25,1019.51L1103.89,1019.51C1103.52,1019.51 1103.21,1019.87 1103.21,1020.32L1103.21,1039.11C1103.21,1039.55 1103.52,1039.91 1103.89,1039.91L1105.25,1039.91C1105.63,1039.91 1105.93,1039.55 1105.93,1039.11L1105.93,1020.32Z" style="fill:white;"/>
        </g>
        <g transform="matrix(1.18243,0,0,1,-285.332,158.562)">
            <path d="M1105.93,1020.32C1105.93,1019.87 1105.63,1019.51 1105.25,1019.51L1103.89,1019.51C1103.52,1019.51 1103.21,1019.87 1103.21,1020.32L1103.21,1039.11C1103.21,1039.55 1103.52,1039.91 1103.89,1039.91L1105.25,1039.91C1105.63,1039.91 1105.93,1039.55 1105.93,1039.11L1105.93,1020.32Z" style="fill:white;"/>
        </g>
        <g transform="matrix(1.18243,0,0,1,-264.12,161.902)">
            <path d="M1105.93,1020.32C1105.93,1019.87 1105.63,1019.51 1105.25,1019.51L1103.89,1019.51C1103.52,1019.51 1103.21,1019.87 1103.21,1020.32L1103.21,1039.11C1103.21,1039.55 1103.52,1039.91 1103.89,1039.91L1105.25,1039.91C1105.63,1039.91 1105.93,1039.55 1105.93,1039.11L1105.93,1020.32Z" style="fill:white;"/>
        </g>
        <g transform="matrix(1.18243,0,0,1,-281.318,158.546)">
            <path d="M1105.93,1020.32C1105.93,1019.87 1105.63,1019.51 1105.25,1019.51L1103.89,1019.51C1103.52,1019.51 1103.21,1019.87 1103.21,1020.32L1103.21,1039.11C1103.21,1039.55 1103.52,1039.91 1103.89,1039.91L1105.25,1039.91C1105.63,1039.91 1105.93,1039.55 1105.93,1039.11L1105.93,1020.32Z" style="fill:white;"/>
        </g>
        <g transform="matrix(1.18243,0,0,1,-277.226,158.469)">
            <path d="M1105.93,1020.32C1105.93,1019.87 1105.63,1019.51 1105.25,1019.51L1103.89,1019.51C1103.52,1019.51 1103.21,1019.87 1103.21,1020.32L1103.21,1039.11C1103.21,1039.55 1103.52,1039.91 1103.89,1039.91L1105.25,1039.91C1105.63,1039.91 1105.93,1039.55 1105.93,1039.11L1105.93,1020.32Z" style="fill:white;"/>
        </g>
        <g transform="matrix(1.18243,0,0,1,-273.359,158.493)">
            <path d="M1105.93,1020.32C1105.93,1019.87 1105.63,1019.51 1105.25,1019.51L1103.89,1019.51C1103.52,1019.51 1103.21,1019.87 1103.21,1020.32L1103.21,1039.11C1103.21,1039.55 1103.52,1039.91 1103.89,1039.91L1105.25,1039.91C1105.63,1039.91 1105.93,1039.55 1105.93,1039.11L1105.93,1020.32Z" style="fill:white;"/>
        </g>
        <g transform="matrix(1.18243,0,0,1,-269.367,158.583)">
            <path d="M1105.93,1020.32C1105.93,1019.87 1105.63,1019.51 1105.25,1019.51L1103.89,1019.51C1103.52,1019.51 1103.21,1019.87 1103.21,1020.32L1103.21,1039.11C1103.21,1039.55 1103.52,1039.91 1103.89,1039.91L1105.25,1039.91C1105.63,1039.91 1105.93,1039.55 1105.93,1039.11L1105.93,1020.32Z" style="fill:white;"/>
        </g>
        <g transform="matrix(1.18243,0,0,1,-260.403,161.902)">
            <path d="M1105.93,1020.32C1105.93,1019.87 1105.63,1019.51 1105.25,1019.51L1103.89,1019.51C1103.52,1019.51 1103.21,1019.87 1103.21,1020.32L1103.21,1039.11C1103.21,1039.55 1103.52,1039.91 1103.89,1039.91L1105.25,1039.91C1105.63,1039.91 1105.93,1039.55 1105.93,1039.11L1105.93,1020.32Z" style="fill:white;"/>
        </g>
    </g>
    <g transform="matrix(1.28553,0,0,1.28553,-114.324,-736.844)">
        <g transform="matrix(1.18243,0,0,1,-199.446,0.482383)">
            <path d="M1105.93,1020.32C1105.93,1019.87 1105.63,1019.51 1105.25,1019.51L1103.89,1019.51C1103.52,1019.51 1103.21,1019.87 1103.21,1020.32L1103.21,1039.11C1103.21,1039.55 1103.52,1039.91 1103.89,1039.91L1105.25,1039.91C1105.63,1039.91 1105.93,1039.55 1105.93,1039.11L1105.93,1020.32Z" style="fill:white;"/>
        </g>
        <g transform="matrix(1.18243,0,0,1,-195.412,0.498863)">
            <path d="M1105.93,1020.32C1105.93,1019.87 1105.63,1019.51 1105.25,1019.51L1103.89,1019.51C1103.52,1019.51 1103.21,1019.87 1103.21,1020.32L1103.21,1039.11C1103.21,1039.55 1103.52,1039.91 1103.89,1039.91L1105.25,1039.91C1105.63,1039.91 1105.93,1039.55 1105.93,1039.11L1105.93,1020.32Z" style="fill:white;"/>
        </g>
        <g transform="matrix(1.18243,0,0,1,-191.397,0.482383)">
            <path d="M1105.93,1020.32C1105.93,1019.87 1105.63,1019.51 1105.25,1019.51L1103.89,1019.51C1103.52,1019.51 1103.21,1019.87 1103.21,1020.32L1103.21,1039.11C1103.21,1039.55 1103.52,1039.91 1103.89,1039.91L1105.25,1039.91C1105.63,1039.91 1105.93,1039.55 1105.93,1039.11L1105.93,1020.32Z" style="fill:white;"/>
        </g>
        <g transform="matrix(0.903591,0,0,1,101.386,7.79484)">
            <path d="M1146.02,1023.81C1146.02,1023.42 1145.67,1023.1 1145.24,1023.1L1126.57,1023.1C1126.14,1023.1 1125.79,1023.42 1125.79,1023.81L1125.79,1025.23C1125.79,1025.62 1126.14,1025.93 1126.57,1025.93L1145.24,1025.93C1145.67,1025.93 1146.02,1025.62 1146.02,1025.23L1146.02,1023.81Z" style="fill:white;"/>
        </g>
        <g transform="matrix(0.903591,0,0,1,101.451,10.7262)">
            <path d="M1146.02,1023.81C1146.02,1023.42 1145.67,1023.1 1145.24,1023.1L1126.57,1023.1C1126.14,1023.1 1125.79,1023.42 1125.79,1023.81L1125.79,1025.23C1125.79,1025.62 1126.14,1025.93 1126.57,1025.93L1145.24,1025.93C1145.67,1025.93 1146.02,1025.62 1146.02,1025.23L1146.02,1023.81Z" style="fill:white;"/>
        </g>
        <g transform="matrix(0.903591,0,0,1,101.228,13.6385)">
            <path d="M1146.02,1023.81C1146.02,1023.42 1145.67,1023.1 1145.24,1023.1L1126.57,1023.1C1126.14,1023.1 1125.79,1023.42 1125.79,1023.81L1125.79,1025.23C1125.79,1025.62 1126.14,1025.93 1126.57,1025.93L1145.24,1025.93C1145.67,1025.93 1146.02,1025.62 1146.02,1025.23L1146.02,1023.81Z" style="fill:white;"/>
        </g>
    </g>
    <g transform="matrix(1.28553,0,0,1.28553,-97.9718,-737.918)">
        <path d="M1213.38,975.598C1213.38,975.077 1213.84,974.654 1214.4,974.654C1214.96,974.654 1215.41,975.077 1215.41,975.598C1215.7,975.147 1216.32,974.992 1216.81,975.253C1217.29,975.513 1217.46,976.091 1217.18,976.542C1217.66,976.282 1218.29,976.437 1218.57,976.888C1218.85,977.339 1218.68,977.917 1218.2,978.177C1218.76,978.177 1219.21,978.6 1219.21,979.121C1219.21,979.642 1218.76,980.065 1218.2,980.065C1218.68,980.326 1218.85,980.904 1218.57,981.355C1218.29,981.806 1217.66,981.961 1217.18,981.7C1217.46,982.151 1217.29,982.729 1216.81,982.99C1216.32,983.25 1215.7,983.095 1215.41,982.644C1215.41,983.165 1214.96,983.588 1214.4,983.588C1213.84,983.588 1213.38,983.165 1213.38,982.644C1213.1,983.095 1212.48,983.25 1211.99,982.99C1211.5,982.729 1211.34,982.151 1211.62,981.7C1211.13,981.961 1210.51,981.806 1210.23,981.355C1209.94,980.904 1210.11,980.326 1210.6,980.065C1210.04,980.065 1209.58,979.642 1209.58,979.121C1209.58,978.6 1210.04,978.177 1210.6,978.177C1210.11,977.917 1209.94,977.339 1210.23,976.888C1210.51,976.437 1211.13,976.282 1211.62,976.542C1211.34,976.091 1211.5,975.513 1211.99,975.253C1212.48,974.992 1213.1,975.147 1213.38,975.598Z" style="fill:white;"/>
    </g>
    <g id="Layer4">
        <g transform="matrix(1.28553,0,0,1.28553,-1153.45,-67.9176)">
            <path d="M1649.51,746.034C1649.51,746.034 1644.09,757.613 1644.09,762.575C1644.09,765.569 1646.52,768 1649.51,768C1652.51,768 1654.94,765.569 1654.94,762.575C1654.94,757.613 1649.51,746.034 1649.51,746.034Z"/>
        </g>
        <g transform="matrix(1.28553,0,0,1.28553,-968.885,-67.9176)">
            <path d="M1649.51,746.034C1649.51,746.034 1644.09,757.613 1644.09,762.575C1644.09,765.569 1646.52,768 1649.51,768C1652.51,768 1654.94,765.569 1654.94,762.575C1654.94,757.613 1649.51,746.034 1649.51,746.034Z"/>
        </g>
        <g transform="matrix(1.30494,0,0,1.44781,-1188.51,-189.586)">
            <path d="M1805.61,709.275C1805.61,700.022 1798.32,682.681 1788.05,682.681L1658.36,682.681C1648.09,682.681 1639.76,700.022 1639.76,709.275C1595.67,713.863 1606,752.173 1658.36,749.74L1788.05,749.74C1825.3,752.062 1852.09,719.541 1805.61,709.275Z" style="fill:white;"/>
        </g>
        <g transform="matrix(1.2534,0.285608,-0.285608,1.2534,272.394,-961.506)">
            <path d="M856.13,1227.5C863.935,1229.79 869.339,1234.83 872.706,1242.21C869.845,1250.17 864.437,1255.2 856.13,1256.91C846.39,1254.99 841.213,1249.85 839.555,1242.21C842.313,1233.48 848.192,1229.07 856.13,1227.5Z" style="fill:rgb(105,186,201);"/>
        </g>
        <g transform="matrix(-0.731539,1.1535,-1.22947,-0.779723,3176.57,819.452)">
            <path d="M856.13,1227.5C863.935,1229.79 869.339,1234.83 872.706,1242.21C869.845,1250.17 864.437,1255.2 856.13,1256.91C846.39,1254.99 841.213,1249.85 839.555,1242.21C842.313,1233.48 848.192,1229.07 856.13,1227.5Z" style="fill:rgb(181,153,139);"/>
        </g>
        <g transform="matrix(-1.33727,-0.278238,0.296564,-1.42535,1829.67,2846.32)">
            <path d="M856.13,1227.5C863.935,1229.79 869.339,1234.83 872.706,1242.21C869.845,1250.17 864.437,1255.2 856.13,1256.91C846.39,1254.99 841.213,1249.85 839.555,1242.21C842.313,1233.48 848.192,1229.07 856.13,1227.5Z"/>
        </g>
    </g>
    <g transform="matrix(1.28553,0,0,1.28553,-93.2454,-753.288)">
        <g>
            <ellipse cx="1102.3" cy="1158.07" rx="10.617" ry="8.974" style="fill:rgb(181,153,139);"/>
            <path d="M1075.28,1167.04L1030.9,1167.04C1036.53,1159.78 1040.81,1152.5 1042.57,1145.16C1049.29,1146.95 1056.49,1146.98 1064.18,1145.16C1065.37,1152.65 1069.4,1159.92 1075.28,1167.04Z" style="fill:white;"/>
        </g>
        <g transform="matrix(1,0,0,1,7.09097,7.32563)">
            <rect x="1005.42" y="1159.24" width="132.767" height="5.631"/>
        </g>
        <g transform="matrix(1,0,0,1,-5.37583,37.843)">
            <rect x="1005.42" y="1159.24" width="132.767" height="5.631"/>
        </g>
    </g>
    <g id="Layer5">
        <g transform="matrix(1.28553,0,0,1.28553,775.557,459.218)">
            <path d="M588.546,302.447C588.546,301.525 587.798,300.777 586.876,300.777L460.706,300.777C459.784,300.777 459.035,301.525 459.035,302.447L459.035,305.787C459.035,306.709 459.784,307.458 460.706,307.458L586.876,307.458C587.798,307.458 588.546,306.709 588.546,305.787L588.546,302.447Z"/>
        </g>
        <g transform="matrix(1.28553,0,0,1.32429,-93.2454,-803.712)">
            <rect x="1236.03" y="1250.65" width="24.495" height="50.121"/>
        </g>
        <g transform="matrix(-1.24172,-0.332719,0.332719,-1.24172,1864.58,1458.48)">
            <path d="M476.898,306.758L483.529,360.328L470.267,360.328L476.898,306.758Z"/>
        </g>
        <g transform="matrix(1.28553,0,0,1.28553,-93.2454,-753.288)">
            <ellipse cx="1142.14" cy="1298.58" rx="2.281" ry="2.195"/>
        </g>
        <g transform="matrix(1.28553,0,0,1.28553,-93.2454,-753.26)">
            <path d="M1258.71,1253.08C1258.71,1252.91 1258.57,1252.77 1258.39,1252.77L1238.4,1252.77C1238.23,1252.77 1238.09,1252.91 1238.09,1253.08L1238.09,1253.7C1238.09,1253.87 1238.23,1254.01 1238.4,1254.01L1258.39,1254.01C1258.57,1254.01 1258.71,1253.87 1258.71,1253.7L1258.71,1253.08Z" style="fill:white;"/>
        </g>
        <g transform="matrix(1.28553,0,0,1.28553,-93.2454,-749.994)">
            <path d="M1258.71,1253.08C1258.71,1252.91 1258.57,1252.77 1258.39,1252.77L1238.4,1252.77C1238.23,1252.77 1238.09,1252.91 1238.09,1253.08L1238.09,1253.7C1238.09,1253.87 1238.23,1254.01 1238.4,1254.01L1258.39,1254.01C1258.57,1254.01 1258.71,1253.87 1258.71,1253.7L1258.71,1253.08Z" style="fill:white;"/>
        </g>
        <g transform="matrix(1.28553,0,0,1.28553,-93.2454,-746.837)">
            <path d="M1258.71,1253.08C1258.71,1252.91 1258.57,1252.77 1258.39,1252.77L1238.4,1252.77C1238.23,1252.77 1238.09,1252.91 1238.09,1253.08L1238.09,1253.7C1238.09,1253.87 1238.23,1254.01 1238.4,1254.01L1258.39,1254.01C1258.57,1254.01 1258.71,1253.87 1258.71,1253.7L1258.71,1253.08Z" style="fill:white;"/>
        </g>
        <g transform="matrix(1.28553,0,0,1.28553,-93.2454,-743.717)">
            <path d="M1258.71,1253.08C1258.71,1252.91 1258.57,1252.77 1258.39,1252.77L1238.4,1252.77C1238.23,1252.77 1238.09,1252.91 1238.09,1253.08L1238.09,1253.7C1238.09,1253.87 1238.23,1254.01 1238.4,1254.01L1258.39,1254.01C1258.57,1254.01 1258.71,1253.87 1258.71,1253.7L1258.71,1253.08Z" style="fill:white;"/>
        </g>
        <g transform="matrix(1.28553,0,0,1.28553,-93.2454,-753.288)">
            <path d="M1258.71,1265.44C1258.71,1264.29 1257.77,1263.35 1256.61,1263.35L1240.19,1263.35C1239.03,1263.35 1238.09,1264.29 1238.09,1265.44L1238.09,1269.64C1238.09,1270.79 1239.03,1271.73 1240.19,1271.73L1256.61,1271.73C1257.77,1271.73 1258.71,1270.79 1258.71,1269.64L1258.71,1265.44Z" style="fill:white;"/>
        </g>
        <g transform="matrix(1.28553,0,0,1.45877,-93.2454,-959.955)">
            <path d="M1258.71,1265.44C1258.71,1264.29 1257.64,1263.35 1256.33,1263.35L1240.47,1263.35C1239.15,1263.35 1238.09,1264.29 1238.09,1265.44L1238.09,1269.64C1238.09,1270.79 1239.15,1271.73 1240.47,1271.73L1256.33,1271.73C1257.64,1271.73 1258.71,1270.79 1258.71,1269.64L1258.71,1265.44Z" style="fill:white;"/>
        </g>
        <g transform="matrix(1.28553,0,0,2.08169,-93.2454,-1732.76)">
            <path d="M1258.71,1265.44C1258.71,1264.29 1257.18,1263.35 1255.31,1263.35L1241.48,1263.35C1239.61,1263.35 1238.09,1264.29 1238.09,1265.44L1238.09,1269.64C1238.09,1270.79 1239.61,1271.73 1241.48,1271.73L1255.31,1271.73C1257.18,1271.73 1258.71,1270.79 1258.71,1269.64L1258.71,1265.44Z" style="fill:white;"/>
        </g>
        <g transform="matrix(1.28553,0,0,1.28553,-93.5491,-753.54)">
            <ellipse cx="1248.63" cy="1267.74" rx="1.765" ry="1.643"/>
        </g>
        <g transform="matrix(1.28553,0,0,1.28553,-93.5491,-740.617)">
            <ellipse cx="1248.63" cy="1267.74" rx="1.765" ry="1.643"/>
        </g>
        <g transform="matrix(1.28553,0,0,1.28553,-93.5491,-723.841)">
            <ellipse cx="1248.63" cy="1267.74" rx="1.765" ry="1.643"/>
        </g>
    </g>
    <g id="Layer6" transform="matrix(0.686353,0,0,0.686353,34.6308,463.023)">
        <g transform="matrix(4.27291,-0.458073,0.137163,1.27945,-5808.17,-48.1276)">
            <rect x="1852.01" y="1148.97" width="1.699" height="65.776"/>
        </g>
        <g transform="matrix(1.23561,-1.51965,1.05008,0.853815,-1168.01,2233.85)">
            <path d="M1764.89,1075.95L1762,1075.95C1782.72,1115 1780.68,1155.17 1762,1196.16L1764.89,1196.16C1782.74,1155.13 1786.04,1114.88 1764.89,1075.95Z"/>
        </g>
        <g transform="matrix(2.1433,-0.229771,0.127851,1.1926,-1851.33,-370.297)">
            <rect x="1852.01" y="1148.97" width="1.699" height="65.776" style="fill:rgb(105,186,201);"/>
        </g>
        <g transform="matrix(1.28553,0,0,1.28553,-121.45,-904.902)">
            <path d="M1885.55,1211.51C1874.15,1205.92 1860.78,1205.17 1844.54,1211.51L1844.54,1222.47L1885.55,1222.47L1885.55,1211.51Z"/>
        </g>
        <g transform="matrix(1.39349,0.968334,-0.733582,1.05567,471.316,-2363.09)">
            <rect x="1757.06" y="1066.02" width="6.243" height="8.583"/>
        </g>
        <g transform="matrix(1.18942,0.929859,-1.09349,1.39873,1251.89,-2662.43)">
            <path d="M1744.58,1082.21L1737.86,1082.35L1727.91,1103.24C1734.41,1104.66 1734.6,1109.51 1756.25,1102.36L1744.58,1082.21Z"/>
        </g>
        <g transform="matrix(1.87298,0,0,1.87298,-271.964,-1833.16)">
            <ellipse cx="1307.65" cy="1252.33" rx="1.017" ry="1.009"/>
        </g>
        <g transform="matrix(1.87298,0,0,1.87298,-186.313,-1772.14)">
            <rect x="1261.74" y="1202.54" width="0.321" height="17.274"/>
        </g>
    </g>
    <g id="Layer7" transform="matrix(1,0,0,1,-756.294,251.618)">
        <g transform="matrix(1.32387,0,0,1.28553,-372.994,-684.722)">
            <path d="M1613.96,914.101C1596.2,910.467 1578.34,910.105 1558.27,914.101L1551.31,947.707L1622.17,947.707L1613.96,914.101Z" style="fill:rgb(128,128,128);"/>
        </g>
        <g transform="matrix(1.2863,0,0,1.32756,-324.632,-717.976)">
            <path d="M1595.02,897.091L1623.76,911.522L1566.28,911.522L1595.02,897.091Z" style="fill:rgb(128,128,128);"/>
        </g>
        <g transform="matrix(1.28553,0,0,1.28553,-309.9,-682.961)">
            <ellipse cx="1582.63" cy="883.165" rx="1.346" ry="1.18" style="fill:rgb(128,128,128);"/>
        </g>
        <g transform="matrix(-0.970473,-0.764574,-1.14933,1.45885,4276.46,369.231)">
            <rect x="1580.6" y="885.658" width="0.54" height="27.247" style="fill:rgb(128,128,128);"/>
        </g>
        <g transform="matrix(-0.917074,0.827868,1.24448,1.37858,2072.45,-2077.11)">
            <rect x="1580.6" y="885.658" width="0.54" height="27.247" style="fill:rgb(128,128,128);"/>
        </g>
    </g>
    <g id="Layer8" transform="matrix(0.946769,0,0,0.946769,1000.37,748.154)">
        <g transform="matrix(0.549706,0.0863656,-0.129323,0.823124,317.232,-306.498)">
            <path d="M70.857,567.867C70.857,567.867 65.774,581.022 65.774,586.66C65.774,588.533 68.052,590.054 70.857,590.054C73.663,590.054 75.94,588.533 75.94,586.66C75.94,581.022 70.857,567.867 70.857,567.867Z"/>
        </g>
        <g transform="matrix(0.549706,0.0863656,-0.129323,0.823124,332.798,-315.221)">
            <path d="M70.857,567.867C70.857,567.867 65.774,581.022 65.774,586.66C65.774,588.533 68.052,590.054 70.857,590.054C73.663,590.054 75.94,588.533 75.94,586.66C75.94,581.022 70.857,567.867 70.857,567.867Z"/>
        </g>
        <g transform="matrix(0.534559,-0.154543,0.23141,0.800442,189.972,-276.121)">
            <path d="M70.857,567.867C70.857,567.867 65.774,581.022 65.774,586.66C65.774,588.533 68.052,590.054 70.857,590.054C73.663,590.054 75.94,588.533 75.94,586.66C75.94,581.022 70.857,567.867 70.857,567.867Z"/>
        </g>
        <g transform="matrix(0.534559,-0.154543,0.23141,0.800442,200.395,-293.993)">
            <path d="M70.857,567.867C70.857,567.867 65.774,581.022 65.774,586.66C65.774,588.533 68.052,590.054 70.857,590.054C73.663,590.054 75.94,588.533 75.94,586.66C75.94,581.022 70.857,567.867 70.857,567.867Z"/>
        </g>
        <g transform="matrix(1.2808,-0.11012,0.110291,1.2828,139.638,-560.841)">
            <path d="M98.392,491.239C84.972,483.403 72.803,482.419 62.423,491.239C59.515,511.961 59.778,532.101 62.423,551.803L98.392,551.803C102.721,530.834 103.958,510.422 98.392,491.239Z" style="fill:white;"/>
        </g>
        <g transform="matrix(1.19926,0,0,1.16517,207.419,-502.309)">
            <path d="M130.365,576.016C163.778,542.447 105.933,515.579 59.774,538.188C55.334,550.394 55.098,562.982 59.774,576.016C82.512,580.8 106.147,580.17 130.365,576.016Z" style="fill:white;"/>
        </g>
        <g transform="matrix(-1.41246,-0.293882,0.313238,-1.50549,1135.81,2226.41)">
            <path d="M856.13,1227.5C863.935,1229.79 869.339,1234.83 872.706,1242.21C869.845,1250.17 864.437,1255.2 856.13,1256.91C846.39,1254.99 841.213,1249.85 839.555,1242.21C842.313,1233.48 848.192,1229.07 856.13,1227.5Z" style="fill:rgb(128,128,128);"/>
        </g>
    </g>
    <g id="Layer9" transform="matrix(1,0,0,1.14117,856.171,801.772)">
        <g transform="matrix(1.28553,0,0,1.37324,151.017,-488.324)">
            <path d="M133.256,464.276L98.042,464.276C97.193,472.983 93.667,482.478 87.584,492.726C105.901,493.681 123.919,493.714 141.606,492.726C136.752,483.79 133.644,474.393 133.256,464.276Z"/>
        </g>
        <g transform="matrix(1.28553,0,0,1.28553,156.077,-438.497)">
            <rect x="108.016" y="472.39" width="5.286" height="113.793"/>
        </g>
        <g transform="matrix(0.157407,0,0,0.350166,265.542,7.93671)">
            <rect x="108.016" y="472.39" width="5.286" height="113.793"/>
        </g>
        <g transform="matrix(0.563455,0,0,0.687486,227.924,-144.835)">
            <ellipse cx="97.639" cy="520.233" rx="2.939" ry="2.068"/>
        </g>
    </g>
    <g id="Layer10" transform="matrix(1,0,0,1,35.4903,-6.25942)">
        <g transform="matrix(1.15133,0,0,1.15133,86.9723,-545.375)">
            <path d="M1296.92,1353.88C1296.92,1338.57 1284.49,1326.14 1269.18,1326.14L1213.7,1326.14C1198.4,1326.14 1185.97,1338.57 1185.97,1353.88L1185.97,1459.21C1185.97,1474.52 1198.4,1486.94 1213.7,1486.94L1269.18,1486.94C1284.49,1486.94 1296.92,1474.52 1296.92,1459.21L1296.92,1353.88Z" style="fill:white;"/>
        </g>
        <g transform="matrix(1.15133,0,0,1.15133,87.5879,-545.383)">
            <rect x="1185.97" y="1362.66" width="110.949" height="2.09"/>
        </g>
        <g transform="matrix(1.28553,0,0,1.28553,-83.4391,-726.502)">
            <ellipse cx="1282.23" cy="1408.08" rx="3.377" ry="2.696"/>
        </g>
    </g>
    <g id="Layer11" transform="matrix(0.63701,0,0,0.63701,544.971,487.924)">
        <g transform="matrix(0.321673,0,0,1.37651,1013.69,-1079.13)">
            <rect x="857.752" y="1339.64" width="228.466" height="72.298" style="fill:rgb(128,128,128);"/>
        </g>
        <g transform="matrix(0.321673,0,0,1.37651,1095.58,-1079.13)">
            <rect x="857.752" y="1339.64" width="228.466" height="72.298" style="fill:rgb(128,128,128);"/>
        </g>
        <g transform="matrix(1.4074,0,0,1.37651,-32.9393,-1079.13)">
            <rect x="939.704" y="1346.25" width="52.218" height="2.908"/>
        </g>
        <g transform="matrix(1.4074,0,0,1.37651,-32.9393,-1079.13)">
            <rect x="939.704" y="1346.25" width="52.218" height="2.908"/>
        </g>
        <g transform="matrix(1.4074,0,0,1.37651,48.9533,-1079.13)">
            <rect x="939.704" y="1346.25" width="52.218" height="2.908"/>
        </g>
        <g transform="matrix(1.4074,0,0,1.37651,-32.9393,-1000.14)">
            <rect x="939.704" y="1346.25" width="52.218" height="2.908"/>
        </g>
        <g transform="matrix(1.4074,0,0,1.37651,-32.9393,-1000.14)">
            <rect x="939.704" y="1346.25" width="52.218" height="2.908"/>
        </g>
        <g transform="matrix(1.4074,0,0,1.37651,48.9533,-1000.14)">
            <rect x="939.704" y="1346.25" width="52.218" height="2.908"/>
        </g>
        <g transform="matrix(1.4074,0,0,1.37651,-32.9393,-1079.13)">
            <ellipse cx="984.507" cy="1374.06" rx="4.224" ry="4.032"/>
        </g>
        <g transform="matrix(1.4074,0,0,1.37651,-6.43553,-1079.13)">
            <ellipse cx="984.507" cy="1374.06" rx="4.224" ry="4.032"/>
        </g>
        <g transform="matrix(0.703702,0,0,0.688257,659.861,-133.43)">
            <ellipse cx="984.507" cy="1374.06" rx="4.224" ry="4.032" style="fill:rgb(105,186,201);"/>
        </g>
        <g transform="matrix(0.703702,0,0,0.688257,686.365,-133.43)">
            <ellipse cx="984.507" cy="1374.06" rx="4.224" ry="4.032" style="fill:rgb(105,186,201);"/>
        </g>
    </g>
    <g id="Layer111" serif:id="Layer11" transform="matrix(0.63701,0,0,0.63701,434.598,487.924)">
        <g transform="matrix(0.321673,0,0,1.37651,943.1,-1079.13)">
            <rect x="857.752" y="1339.64" width="228.466" height="72.298" style="fill:rgb(128,128,128);"/>
        </g>
        <g transform="matrix(0.321673,0,0,1.37651,1024.99,-1079.13)">
            <rect x="857.752" y="1339.64" width="228.466" height="72.298" style="fill:rgb(128,128,128);"/>
        </g>
        <g transform="matrix(1.4074,0,0,1.37651,-103.529,-1079.13)">
            <rect x="939.704" y="1346.25" width="52.218" height="2.908"/>
        </g>
        <g transform="matrix(1.4074,0,0,1.37651,-103.529,-1079.13)">
            <rect x="939.704" y="1346.25" width="52.218" height="2.908"/>
        </g>
        <g transform="matrix(1.4074,0,0,1.37651,-21.6366,-1079.13)">
            <rect x="939.704" y="1346.25" width="52.218" height="2.908"/>
        </g>
        <g transform="matrix(1.4074,0,0,1.37651,-103.529,-1000.14)">
            <rect x="939.704" y="1346.25" width="52.218" height="2.908"/>
        </g>
        <g transform="matrix(1.4074,0,0,1.37651,-103.529,-1000.14)">
            <rect x="939.704" y="1346.25" width="52.218" height="2.908"/>
        </g>
        <g transform="matrix(1.4074,0,0,1.37651,-21.6366,-1000.14)">
            <rect x="939.704" y="1346.25" width="52.218" height="2.908"/>
        </g>
        <g transform="matrix(1.4074,0,0,1.37651,-103.529,-1079.13)">
            <ellipse cx="984.507" cy="1374.06" rx="4.224" ry="4.032"/>
        </g>
        <g transform="matrix(1.4074,0,0,1.37651,-77.0254,-1079.13)">
            <ellipse cx="984.507" cy="1374.06" rx="4.224" ry="4.032"/>
        </g>
        <g transform="matrix(0.703702,0,0,0.688257,589.271,-133.43)">
            <ellipse cx="984.507" cy="1374.06" rx="4.224" ry="4.032" style="fill:rgb(105,186,201);"/>
        </g>
        <g transform="matrix(0.703702,0,0,0.688257,615.775,-133.43)">
            <ellipse cx="984.507" cy="1374.06" rx="4.224" ry="4.032" style="fill:rgb(105,186,201);"/>
        </g>
    </g>
    <g id="Layer12" transform="matrix(1.36749,0,0,1.20457,252.861,815.975)">
        <g transform="matrix(1.4074,0,0,1.37651,-41.4922,-455.928)">
            <rect x="578.811" y="427.228" width="29.283" height="47.713"/>
        </g>
        <g transform="matrix(1.4074,0,0,1.37651,-90.6418,-469.088)">
            <rect x="615.147" y="445.733" width="26.456" height="1.475" style="fill:rgb(105,186,201);"/>
        </g>
        <g transform="matrix(1.4074,0,0,1.37651,-90.6418,-449.576)">
            <rect x="615.147" y="445.733" width="26.456" height="1.475" style="fill:rgb(105,186,201);"/>
        </g>
        <g transform="matrix(1.4074,0,0,1.37651,-90.6418,-430.063)">
            <rect x="615.147" y="445.733" width="26.456" height="1.475" style="fill:rgb(105,186,201);"/>
        </g>
        <g transform="matrix(1.4074,0,0,1.37651,-102.37,-468.135)">
            <path d="M643.894,438.545L628.973,438.545C629.167,441.181 631.138,443.361 633.505,445.04L639.488,445.04C642.35,443.545 643.509,441.231 643.894,438.545Z" style="fill:white;"/>
        </g>
        <g transform="matrix(1.81517,0,0,0.57583,-361.5,-72.7729)">
            <path d="M643.894,438.545L628.973,438.545C629.167,441.181 631.138,443.361 633.505,445.04L639.488,445.04C642.35,443.545 643.509,441.231 643.894,438.545Z" style="fill:white;"/>
        </g>
        <g transform="matrix(1.81517,0,0,0.57583,-361.5,-76.5133)">
            <path d="M643.894,438.545L628.973,438.545C629.167,441.181 631.138,443.361 633.505,445.04L639.488,445.04C642.35,443.545 643.509,441.231 643.894,438.545Z" style="fill:white;"/>
        </g>
        <g transform="matrix(1.81517,0,0,0.57583,-361.5,-80.2538)">
            <path d="M643.894,438.545L628.973,438.545C629.167,441.181 631.138,443.361 633.505,445.04L639.488,445.04C642.35,443.545 643.509,441.231 643.894,438.545Z" style="fill:white;"/>
        </g>
        <g transform="matrix(1.81517,0,0,0.57583,-361.5,-83.9943)">
            <path d="M643.894,438.545L628.973,438.545C629.167,441.181 631.138,443.361 633.505,445.04L639.488,445.04C642.35,443.545 643.509,441.231 643.894,438.545Z" style="fill:white;"/>
        </g>
        <g transform="matrix(0.695349,0,0,1.43591,340.307,-475.057)">
            <path d="M643.894,438.545L628.973,438.545C629.167,441.181 631.138,443.361 633.505,445.04L639.488,445.04C642.35,443.545 643.509,441.231 643.894,438.545Z" style="fill:white;"/>
        </g>
        <g transform="matrix(0.695349,0,0,1.43591,351.193,-475.057)">
            <path d="M643.894,438.545L628.973,438.545C629.167,441.181 631.138,443.361 633.505,445.04L639.488,445.04C642.35,443.545 643.509,441.231 643.894,438.545Z" style="fill:white;"/>
        </g>
        <g transform="matrix(0.695349,0,0,1.43591,362.078,-475.057)">
            <path d="M643.894,438.545L628.973,438.545C629.167,441.181 631.138,443.361 633.505,445.04L639.488,445.04C642.35,443.545 643.509,441.231 643.894,438.545Z" style="fill:white;"/>
        </g>
    </g>
    <g id="Layer13" transform="matrix(1.20838,0,0,1.05099,526.219,863.926)">
        <g transform="matrix(1.4074,0,0,1.37651,-21.9526,-522.258)">
            <path d="M567.489,513.087C567.489,511.928 566.688,510.987 565.702,510.987L420.003,510.987C419.017,510.987 418.217,511.928 418.217,513.087L418.217,517.288C418.217,518.447 419.017,519.388 420.003,519.388L565.702,519.388C566.688,519.388 567.489,518.447 567.489,517.288L567.489,513.087Z"/>
        </g>
        <g transform="matrix(1.4074,0,0,1.37651,-22.063,-521.615)">
            <rect x="425.196" y="518.921" width="134.764" height="67.607"/>
        </g>
        <g transform="matrix(1.16901,0,0,1.36249,-102.567,-511.052)">
            <rect x="583.811" y="518.16" width="36.185" height="12.075" style="fill:white;"/>
        </g>
        <g transform="matrix(1.16901,0,0,5.45787,-102.567,-2612.39)">
            <rect x="583.811" y="518.16" width="36.185" height="12.075" style="fill:white;"/>
        </g>
        <g transform="matrix(1.2253,0,0,1.36249,-90.1089,-511.052)">
            <rect x="583.811" y="518.16" width="36.185" height="12.075" style="fill:white;"/>
        </g>
        <g transform="matrix(1.2253,0,0,5.45787,-90.1089,-2612.39)">
            <rect x="583.811" y="518.16" width="36.185" height="12.075" style="fill:white;"/>
        </g>
        <g transform="matrix(1.2253,0,0,1.36249,-42.5731,-511.052)">
            <rect x="583.811" y="518.16" width="36.185" height="12.075" style="fill:white;"/>
        </g>
        <g transform="matrix(1.2253,0,0,5.45787,-42.5731,-2612.39)">
            <rect x="583.811" y="518.16" width="36.185" height="12.075" style="fill:white;"/>
        </g>
        <g transform="matrix(1.11343,0,0,1.36249,70.0329,-511.052)">
            <rect x="583.811" y="518.16" width="36.185" height="12.075" style="fill:white;"/>
        </g>
        <g transform="matrix(1.11343,0,0,5.45787,70.0329,-2612.39)">
            <rect x="583.811" y="518.16" width="36.185" height="12.075" style="fill:white;"/>
        </g>
        <g transform="matrix(1.4074,0,0,1.37651,-239.835,-518.319)">
            <path d="M595.953,520.534C595.953,520.534 594.422,524.21 594.422,525.786C594.422,526.779 595.108,527.585 595.953,527.585C596.798,527.585 597.483,526.779 597.483,525.786C597.483,524.21 595.953,520.534 595.953,520.534Z"/>
        </g>
        <g transform="matrix(1.4074,0,0,1.37651,-191.01,-518.319)">
            <path d="M595.953,520.534C595.953,520.534 594.422,524.21 594.422,525.786C594.422,526.779 595.108,527.585 595.953,527.585C596.798,527.585 597.483,526.779 597.483,525.786C597.483,524.21 595.953,520.534 595.953,520.534Z"/>
        </g>
        <g transform="matrix(1.4074,0,0,1.37651,-143.81,-518.319)">
            <path d="M595.953,520.534C595.953,520.534 594.422,524.21 594.422,525.786C594.422,526.779 595.108,527.585 595.953,527.585C596.798,527.585 597.483,526.779 597.483,525.786C597.483,524.21 595.953,520.534 595.953,520.534Z"/>
        </g>
        <g transform="matrix(1.4074,0,0,1.37651,-98.4288,-518.319)">
            <path d="M595.953,520.534C595.953,520.534 594.422,524.21 594.422,525.786C594.422,526.779 595.108,527.585 595.953,527.585C596.798,527.585 597.483,526.779 597.483,525.786C597.483,524.21 595.953,520.534 595.953,520.534Z"/>
        </g>
        <g transform="matrix(1.4074,0,0,1.37651,-240.582,-515.243)">
            <rect x="586.312" y="533.218" width="20.555" height="2.936"/>
        </g>
        <g transform="matrix(1.4074,0,0,1.37651,-191.906,-515.243)">
            <rect x="586.312" y="533.218" width="20.555" height="2.936"/>
        </g>
        <g transform="matrix(1.4074,0,0,1.37651,-144.706,-515.243)">
            <rect x="586.312" y="533.218" width="20.555" height="2.936"/>
        </g>
        <g transform="matrix(1.4074,0,0,1.37651,-99.3244,-515.243)">
            <rect x="586.312" y="533.218" width="20.555" height="2.936"/>
        </g>
        <g transform="matrix(1.4074,0,0,1.37651,-239.835,-518.319)">
            <ellipse cx="608.439" cy="555.838" rx="2.103" ry="1.864"/>
        </g>
        <g transform="matrix(1.4074,0,0,1.37651,-146.026,-518.354)">
            <ellipse cx="608.439" cy="555.838" rx="2.103" ry="1.864"/>
        </g>
        <g transform="matrix(1.4074,0,0,1.37651,-223.048,-518.319)">
            <ellipse cx="608.439" cy="555.838" rx="2.103" ry="1.864"/>
        </g>
        <g transform="matrix(1.4074,0,0,1.37651,-129.238,-518.354)">
            <ellipse cx="608.439" cy="555.838" rx="2.103" ry="1.864"/>
        </g>
    </g>
    <g id="Layer15" transform="matrix(1,0,0,1,-802.903,71.1042)">
        <g transform="matrix(1.28553,0,0,1.23791,-318.638,-651.684)">
            <path d="M1720.16,1326.33L1710.32,1325.98C1704.53,1329.56 1698.27,1337.46 1703.39,1361.63L1730.84,1361.63C1730.66,1345.6 1728.2,1330.74 1720.16,1326.33Z" style="fill:rgb(128,128,128);"/>
        </g>
        <g transform="matrix(1.72444,0,0,1.28553,-1069.75,-715.459)">
            <path d="M1716.81,1312.55L1712.16,1312.55C1713.39,1320.35 1711.62,1325.51 1707.7,1329.59L1719.86,1329.59C1715.83,1324.57 1714.91,1318.87 1716.81,1312.55Z" style="fill:rgb(128,128,128);"/>
        </g>
        <g transform="matrix(1,0,0,1,502.731,-60.4774)">
            <ellipse cx="1420.54" cy="1086.17" rx="8.789" ry="8.736" style="fill:rgb(128,128,128);"/>
        </g>
    </g>
    <g id="Layer14" transform="matrix(0.729369,0,0,0.729369,288.144,402.081)">
        <g transform="matrix(8.15128e-17,-1.3312,1.28553,7.87158e-17,-679.796,2074.11)">
            <path d="M844.38,1337.37C820.749,1337.37 824.013,1359.36 824.013,1388.08C824.013,1416.81 820.749,1440.13 844.38,1440.13C837.291,1427.99 836.575,1408.85 836.575,1388.08C836.575,1367.32 837.291,1349.52 844.38,1337.37Z"/>
        </g>
        <g transform="matrix(1.48808,0.427734,-0.404283,1.40649,403.919,-1393.61)">
            <rect x="838.738" y="1426.34" width="3.623" height="48.59"/>
        </g>
        <g transform="matrix(1.49132,-0.416277,0.393455,1.40956,-683.981,-688.571)">
            <rect x="838.738" y="1426.34" width="3.623" height="48.59"/>
        </g>
    </g>
    <g id="Layer16">
        <g transform="matrix(1.18008,0,0,0.990575,-9.73454,-315.112)">
            <path d="M872.027,1327.08C848.531,1318.23 819.808,1315.77 783.453,1327.08L783.453,1489.26L872.027,1489.26L872.027,1327.08Z" style="fill:rgb(128,128,128);"/>
        </g>
        <g transform="matrix(1.0312e-16,1.68407,-1.42829,8.74576e-17,2938.11,-397.995)">
            <path d="M830.235,1343.41C813.151,1343.41 799.28,1359.81 799.28,1380C799.28,1400.19 813.151,1416.59 830.235,1416.59L830.235,1343.41Z" style="fill:white;"/>
        </g>
        <g transform="matrix(1.28553,0,0,1.28553,-98.1289,-747.163)">
            <ellipse cx="860.177" cy="1411.81" rx="4.154" ry="4.783"/>
        </g>
    </g>
</svg>
