<?xml version="1.0" encoding="utf-8"?>
<!-- Generator: Adobe Illustrator 19.2.1, SVG Export Plug-In . SVG Version: 6.00 Build 0)  -->
<svg version="1.1" id="Layer_1" xmlns="http://www.w3.org/2000/svg" xmlns:xlink="http://www.w3.org/1999/xlink" x="0px" y="0px"
	 viewBox="0 0 1600 1600" style="enable-background:new 0 0 1600 1600;" xml:space="preserve">
<style type="text/css">
	.st0{fill:#23B3AB;}
	.st1{fill:#FDEBEF;}
	.st2{fill:#C9E9EB;}
	.st3{fill:#99D6DA;}
	.st4{fill:#0D3D3B;}
</style>
<rect x="458.4" y="32.1" class="st0" width="715.1" height="1519.6"/>
<rect x="458.4" y="388.6" class="st1" width="715.1" height="1159.5"/>
<path class="st2" d="M1172.9,1178.6c-112.6-5.4-281.9-392.9-407.6-466.1c-191.7-111.6-240.7-441.3-38.9-488.6
	c72.1-16.9,348.1,28.5,431,48.3c5.9,1.4,11.6,3,17.1,4.9"/>
<path class="st3" d="M457.1,405.6c10.5,6.5,21.7,12.1,33.5,16.6c154.4,58.7,323.8,228,423.8,145.7s197.6-173.7,101.1-357.4
	c-40.9-77.9-70.6-148.9-142.7-176.2l-412.5-2.1l0,368.4"/>
<path class="st4" d="M1131.5,396.6c40,102.2-140.5,235.4-302.8,199.3c-161.1-35.9-302.8-89.2-302.8-199.3s189.1-129.8,302.8-199.3
	C961.6,116.1,1075.1,252.5,1131.5,396.6z"/>
<g>
</g>
<path class="st0" d="M457.3,1119.3c47.4,74.2,118.9,180.9,216,201.2c63,13.2,151.5,39.6,199.4,106.8
	c59.5,83.5,164.5,120.6,226.9,123.6l-641.1,0.9L457.3,1119.3z"/>
<path class="st3" d="M457.1,405.6c10.5,6.5,21.7,12.1,33.5,16.6c154.4,58.7,323.8,228,423.8,145.7s197.6-173.7,101.1-357.4
	c-40.9-77.9-70.6-148.9-142.7-176.2l-412.5-2.1l0,368.4"/>
<path class="st4" d="M1131.5,396.6c40,102.2-140.5,235.4-302.8,199.3c-161.1-35.9-302.8-89.2-302.8-199.3s189.1-129.8,302.8-199.3
	C961.6,116.1,1075.1,252.5,1131.5,396.6z"/>
<g>
</g>
<g>
</g>
<g>
</g>
<g>
</g>
<g>
</g>
<g>
</g>
<g>
</g>
</svg>
