<?xml version="1.0" encoding="UTF-8" standalone="no"?>
<!DOCTYPE svg PUBLIC "-//W3C//DTD SVG 1.1//EN" "http://www.w3.org/Graphics/SVG/1.1/DTD/svg11.dtd">
<svg width="100%" height="100%" viewBox="0 0 1251 2161" version="1.1" xmlns="http://www.w3.org/2000/svg" xmlns:xlink="http://www.w3.org/1999/xlink" xml:space="preserve" xmlns:serif="http://www.serif.com/" style="fill-rule:evenodd;clip-rule:evenodd;stroke-linejoin:round;stroke-miterlimit:2;">
    <g id="Artboard1" transform="matrix(1.42771,0,0,1.42771,-521.945,-59.1984)">
        <rect x="365.581" y="41.464" width="875.584" height="1513.48" style="fill:none;"/>
        <clipPath id="_clip1">
            <rect x="365.581" y="41.464" width="875.584" height="1513.48"/>
        </clipPath>
        <g clip-path="url(#_clip1)">
            <g id="Layer1" transform="matrix(1.21935,0,0,0.997822,222.967,-113.416)">
                <g transform="matrix(1,0,0,1,-339.465,123.118)">
                    <path d="M457.1,405.6C467.6,412.1 478.8,417.7 490.6,422.2C645,480.9 814.4,650.2 914.4,567.9C1014.4,485.6 1112,394.2 1015.5,210.5C974.6,132.6 944.9,61.6 872.8,34.3L460.3,32.2L460.3,400.6" style="fill:rgb(153,214,218);fill-rule:nonzero;"/>
                </g>
                <g transform="matrix(1.0014,0,0,1.0014,-340.106,120.948)">
                    <rect x="458.4" y="32.1" width="715.1" height="1519.6" style="fill:rgb(34,181,171);"/>
                </g>
                <g transform="matrix(1,0,0,1,-339.465,123.118)">
                    <rect x="458.4" y="388.6" width="715.1" height="1159.5" style="fill:rgb(253,235,239);"/>
                </g>
                <g transform="matrix(1,0,0,1,-339.465,123.118)">
                    <path d="M1172.9,1178.6C1060.3,1173.2 891,785.7 765.3,712.5C573.6,600.9 524.6,271.2 726.4,223.9C798.5,207 1074.5,252.4 1157.4,272.2C1163.3,273.6 1169,275.2 1174.5,277.1" style="fill:rgb(233,118,91);fill-rule:nonzero;"/>
                </g>
                <g transform="matrix(1,0,0,1,-339.465,123.118)">
                    <path d="M1131.5,396.6C1171.5,498.8 991,632 828.7,595.9C667.6,560 525.9,506.7 525.9,396.6C525.9,286.5 715,266.8 828.7,197.3C961.6,116.1 1075.1,252.5 1131.5,396.6Z" style="fill:rgb(13,61,59);fill-rule:nonzero;"/>
                </g>
                <g transform="matrix(1.11506,0,0,0.615224,-392.08,720.214)">
                    <path d="M457.3,1119.3C465.353,1131.91 473.412,1144.52 481.864,1156.86C528.026,1224.27 587.996,1302.67 673.3,1320.5C682.442,1322.41 691.807,1323.18 701.128,1323.79C711.488,1324.46 721.888,1324.22 732.27,1324.33C786.285,1324.92 855.396,1319.74 891.164,1369.92C930.792,1425.53 974.562,1479.14 1029.64,1520.18C1049.99,1535.34 1073.5,1549.64 1099.6,1550.9L458.5,1551.8L457.3,1119.3Z" style="fill:rgb(71,139,162);fill-rule:nonzero;"/>
                </g>
                <g transform="matrix(1.00705,0,0,1,-346.905,123.118)">
                    <path d="M457.1,405.6C467.6,412.1 478.8,417.7 490.6,422.2C645,480.9 814.4,650.2 914.4,567.9C1014.4,485.6 1112,394.2 1015.5,210.5C974.6,132.6 944.9,61.6 872.8,34.3L460.3,32.2L460.3,400.6" style="fill:rgb(244,164,143);fill-rule:nonzero;"/>
                </g>
                <g transform="matrix(1.01248,0,0,1.01041,-349.896,118.326)">
                    <path d="M1131.5,396.6C1171.5,498.8 991,632 828.7,595.9C667.6,560 525.9,506.7 525.9,396.6C525.9,286.5 715,266.8 828.7,197.3C961.6,116.1 1075.1,252.5 1131.5,396.6Z" style="fill:rgb(228,236,6);fill-rule:nonzero;"/>
                </g>
            </g>
        </g>
    </g>
</svg>
