<?xml version="1.0" encoding="UTF-8" standalone="no"?><!DOCTYPE svg PUBLIC "-//W3C//DTD SVG 1.1//EN" "http://www.w3.org/Graphics/SVG/1.1/DTD/svg11.dtd"><svg width="100%" height="100%" viewBox="0 0 2731 2048" version="1.1" xmlns="http://www.w3.org/2000/svg" xmlns:xlink="http://www.w3.org/1999/xlink" xml:space="preserve" xmlns:serif="http://www.serif.com/" style="fill-rule:evenodd;clip-rule:evenodd;stroke-linecap:round;stroke-linejoin:round;"><g id="Layer-1" serif:id="Layer 1"><path d="M403.68,883.621c-47.31,155.944 10.168,294 77.925,393.235c66.509,97.408 150.269,175.288 244.109,238.146c69.054,46.256 143.904,84.678 224.611,109.104c93.864,28.411 194.261,50.662 302.496,27.96c58.123,-12.194 119.467,-37.33 172.432,-82.776c32.261,-27.672 60.725,-61.517 84.384,-98.89c24.872,-39.288 36.299,-83.635 58.685,-123.968c14.475,-26.08 29.064,-46.222 45.702,-70.808c39.08,-57.752 78.424,-115.31 117.178,-173.302c22.091,-33.056 41.704,-68.474 67.339,-98.733c9.443,-11.147 16.115,-16.933 27.949,-23.096c18.734,-9.757 37.504,-7.835 55.827,-11.197c12.339,-2.264 24.456,-6.8 36.339,-14.752c59.712,-39.958 89.408,-116.947 123.805,-179.963c16.04,-29.379 34.123,-54.947 42.821,-86.704c16.11,-58.832 -13.261,-110.669 -36.488,-148.395c-5.605,-9.106 -11.317,-18.144 -17.728,-26.432c-12.88,-16.642 -25.984,-33.082 -40.104,-48.309c-14.146,-15.253 -29.253,-29.344 -44.624,-43.043c-111.01,-98.941 -244.714,-169.258 -381.698,-224.698c-97.219,-39.35 -196.702,-72.416 -307.47,-76.288c-42.936,-1.502 -88.653,1.482 -133.824,19.882c-9.221,3.758 -18.434,8.262 -27.368,13.728c-16.352,10.011 -33.842,29.587 -52.018,29.744c-28.646,0.251 -49.166,-19.453 -72.584,-30.32c-12.006,-5.568 -37.758,-11.498 -50.838,-14.437c-30.666,-6.888 -60.6,-12.429 -94.194,-9.336c-22.464,2.067 -47.203,15.515 -68.846,27.283c-31.554,17.157 -79.453,48.685 -106.136,65.853c-47.509,30.565 -95.085,60.083 -139.93,97.896c-26.336,22.205 -48.966,51.056 -69.51,80.088c-26.981,38.128 -52.168,79.573 -67.882,123.333c-21.992,61.235 -18.376,114.563 -1.582,164.979c19.643,58.965 54.79,116.533 31.222,194.216" style="fill:#25b5ac;fill-rule:nonzero;"/><path d="M1330.67,1818.62c-57.808,13.95 -117.451,16.675 -176.44,10.278c-37.099,-4.019 -74.176,-12.374 -109.179,-24.88c-24.933,-8.904 -50.216,-20.496 -72.643,-34.254c-15.653,-9.6 -39.426,-26.949 -54.008,-40.762c-41.816,-39.635 -68.733,-94.152 -81.925,-149.038c-9.499,-39.517 -12.477,-79.549 -16.056,-119.952c-3.627,-40.944 -6.403,-81.973 -10.56,-122.869c-4.699,-46.211 -10.131,-76.267 -20.661,-121.512c-9.558,-41.061 -25.03,-82.368 -44.214,-120.051c-12.32,-24.2 -33.357,-44.261 -39.989,-71.146c-7.301,-29.592 1.155,-59.982 4.507,-89.358c2.957,-25.882 1.765,-55.17 12.25,-80.117c13.563,-32.261 47.715,-44.472 76.323,-61.576c27.155,-16.232 50.453,-35.061 81.389,-43.715c31.176,-8.72 65.499,-10.082 97.166,-15.061c46.314,-7.283 92.544,-16.451 137.144,-30.885c76.768,-24.846 150.65,-60.712 225.002,-90.758c50.432,-20.378 83.747,-31.477 136.259,-45.997c7.509,-2.072 15.219,-3.448 22.933,-4.584c12.323,-1.819 23.96,-1.995 36.288,-0.147c29.859,4.483 52.859,31.462 70.512,52.758c29.918,36.093 29.003,36.618 58.032,73.488c22.414,28.469 46.787,56.76 79.334,74.786c28.52,15.792 62.213,19.395 93.885,24.67c39.397,6.562 78.803,13.098 118.261,19.309c32.768,5.157 66.256,7.933 98.158,17.376c17.562,5.203 35.418,11.272 50.293,22.051c17.821,12.914 31.795,30.042 46.029,46.381c16.448,18.875 32.998,37.672 49.144,56.792c29.187,34.573 58.694,69.413 81.71,108.339c13.605,23.016 20.285,49.213 25.61,75.018c9.587,46.448 12.536,98.582 -8.845,142.806c-22.725,47.005 -52.483,89.048 -89.149,126.85c-24.171,24.918 -53.227,47.835 -85.435,62.155c-33.613,14.947 -59.205,23.835 -94.829,33.32c-31.499,8.387 -71.038,10.605 -94.918,36.011c-13.848,14.736 6.816,32.477 11.702,46.17c7.354,20.614 4.485,43.614 1.418,64.614c-4.821,33.082 -18.2,64.45 -35.522,93.165c-39.28,65.101 -98.008,124.549 -175.112,144.603c-25.358,6.592 -52.592,2.584 -76.307,-7.387c-19.907,-8.376 -21.968,-12.405 -42.357,-19.816c-12.131,-4.405 -24.44,-8.421 -36.966,-11.648c-62.165,-16.027 -73.248,-16.549 -136.872,-25.325c-36.738,-5.064 -74.757,-8.936 -111.362,-0.102" style="fill:#dbe139;fill-rule:nonzero;"/><path d="M1001.16,247.407c215.642,0 390.714,173.166 390.714,386.456c0,213.288 -175.072,386.454 -390.714,386.454c-215.643,-0 -390.715,-173.166 -390.715,-386.454c-0,-213.29 175.072,-386.456 390.715,-386.456" style="fill:#fff;fill-rule:nonzero;"/><ellipse cx="1001.16" cy="633.862" rx="390.715" ry="386.455" style="fill:none;stroke:#4a4a4a;stroke-width:27.82px;"/><path d="M1244.86,911.013l84.195,102.674l-46.774,38.355l-84.194,-102.675l46.773,-38.354Z" style="fill:#808080;"/><path d="M1516.44,1228.97c5.203,-4.269 5.963,-11.957 1.696,-17.165l-170.611,-208.056c-4.269,-5.206 -11.957,-5.966 -17.162,-1.696l-63.056,51.706c-5.206,4.267 -5.966,11.955 -1.699,17.16l170.613,208.062c4.267,5.202 11.958,5.962 17.16,1.696l63.059,-51.707Z" style="fill:#4a4a4a;fill-rule:nonzero;"/><path d="M1120.04,974.853l16.206,58.477c79.832,-27.272 157.178,-83.771 211.218,-161.317l-48.864,-21.694c-40.818,53.219 -97.17,96.712 -178.56,124.534" style="fill:#4a4a4a;fill-rule:nonzero;"/><path d="M1263.21,473.138c-1.517,6.059 2.579,26.32 3.76,32.04c11.088,53.741 15.56,68.24 23.944,122.531c2.693,17.448 4.045,38.192 2.437,55.837c-6.138,67.275 -50.048,128.848 -91.933,177.717c-22.845,26.659 -52.763,49.312 -85.835,60.795c-32.661,11.339 -48.197,13.589 -82.104,19.485c-16.09,2.798 -32.168,5.715 -48.346,7.926c-8.158,1.114 -8.198,-1.976 -16.246,0.962c-1.341,0.491 -4.594,4.568 -1.077,5.968c5.677,2.262 10.701,-0.754 16.229,-1c23.251,-1.04 46.552,-0.701 69.787,-2.04c133.835,-7.709 249.456,-112.733 270.432,-248.482c8.597,-55.646 5.331,-112.243 -15.68,-164.816c-5.144,-12.872 -11.528,-25.224 -18.261,-37.31c-5.195,-9.322 -11.299,-18.098 -17.459,-26.789c-1.048,-1.477 -8.051,-9.205 -9.648,-2.824" style="fill:#d8d8d8;fill-rule:nonzero;"/><ellipse cx="1001.16" cy="633.862" rx="390.715" ry="386.455" style="fill:none;stroke:#4a4a4a;stroke-width:27.82px;"/><ellipse cx="1001.16" cy="632.997" rx="369.623" ry="369.74" style="fill:none;stroke:#8f8f8f;stroke-width:16.32px;"/><path d="M1462.35,1148.21c-2.08,1.744 -5.205,-1.672 -7.586,-2.979c-5.15,-2.827 -9.966,-6.229 -14.923,-9.376c-10.104,-6.413 -17.925,-19.712 -28.784,-24.739c-25.464,-11.786 -41.725,-13.68 -60.384,-12.469c-15.419,1.003 -34.76,11.992 -45.797,23.829c-14.88,15.958 -20.243,37.539 -15.006,58.262c1.659,6.565 7.536,12.653 9.704,19.069c0.534,1.573 4.523,7.208 3.779,9.459c-7.331,22.141 -23.688,45.573 -26.336,69.485c-0.997,9.011 -0.835,18.157 -0.136,27.197c0.549,7.091 4.125,17.174 9.243,22.518c11.224,11.717 36.053,17.466 51.453,12.877c10.027,-2.989 17.296,-10.8 24.523,-17.704c8.448,-8.069 22.89,-28.291 34.672,-12.269c1.018,1.384 2.117,3.002 2.077,4.72c-0.581,22.976 -6.603,45.616 -6.979,68.597c-0.325,19.888 4.779,43.912 8.334,63.376c1.426,7.805 4.25,27.752 8.405,37.512c9.472,22.248 32.176,12.237 46.403,27.299c5.877,6.224 8.554,16.666 11.242,24.269c9.48,26.781 8.187,27.195 23.904,50.621c4.331,6.454 8.648,12.998 13.939,18.691c1.419,1.525 15.12,8.816 16.392,10.632c4.467,6.368 3.157,19.227 10.181,24.355c14,10.224 30.054,18.314 46.323,24.202c5.957,2.155 19.261,2.638 25.216,3.424c3.696,0.486 14.056,2.838 16.659,4.016c11.645,5.272 15.472,3.206 28.362,4.862c12.995,1.672 29.902,-10.347 31.523,-18.643c0.011,-0.061 -0.019,-8.301 3.939,-6.232c25.048,13.101 41.968,39.373 66.245,54.128c38.645,23.488 60.312,32.629 100.525,52.467c10.763,5.309 31.011,16.573 44.678,20.896c14.874,4.701 30.432,6.888 45.698,10.12c25.39,5.37 364.411,135.037 390.006,120.682c20.176,-11.322 98.765,-88.986 106.288,-108.581c19.653,-51.216 113.144,-227.251 101.061,-249.141c-8.883,-16.099 -451.192,-82.486 -466.917,-89.827c-22.014,-10.28 -52.206,-19.451 -69.006,-39.357c-59.402,-70.398 -109.125,-148.395 -162.978,-222.931c-19.382,-26.819 -40.792,-63.32 -71.067,-82.403c-14.776,-9.314 -26.976,-17.522 -43.344,-21.442c-17.048,-4.086 -20.259,-0.235 -40.677,-6.88c-19.323,-6.288 -37.774,-14.995 -56.656,-22.502c-37.04,-14.725 -71.144,-26.29 -110.734,-33.56c-12.544,-2.304 -32.552,-3.741 -45.509,-1.413c-19.4,3.485 -37.987,15.427 -52.435,28.341c-4.741,4.235 -12.288,9.891 -10.242,17.704c1.544,5.896 17.992,21.958 18.389,22.414c7.755,8.837 15.331,17.832 22.917,26.816c3.576,4.234 7.43,8.264 10.558,12.834c1.384,2.024 4.736,5.198 2.858,6.774" style="fill:#ffb8a4;fill-rule:nonzero;"/><path d="M1457.43,1090.7c-2.909,2.318 7.261,47.216 21.955,64.552c15.696,18.507 52.018,29.616 72.194,46.494c18.763,15.693 28.432,41.296 48.859,54.76c24.448,16.106 73.955,29.448 97.827,41.893c16.554,8.627 31.445,27.864 45.416,32.776c12.114,4.259 47.618,5.611 38.384,-3.309c-10.424,-10.078 -67.755,-37.291 -100.936,-57.131c-34.718,-20.76 -76.656,-45.867 -107.368,-67.432c-26.942,-18.915 -57.523,-43.181 -76.912,-61.947c-15.374,-14.88 -36.507,-52.968 -39.419,-50.656" style="fill:#b57462;fill-rule:nonzero;"/><path d="M1309.29,1231.3c1.416,-2.576 55.402,43.947 80.405,68.968c22.973,22.99 57.229,35.96 81.717,54.334c22.95,17.221 48.256,33.098 65.208,55.92c22.904,30.837 43.198,89.045 72.238,129.114c30.138,41.582 110.693,117.659 108.581,120.368c-2.115,2.707 -86.213,-64.317 -121.261,-104.114c-35.288,-40.064 -43.067,-106.638 -78.894,-146.662c-35.832,-40.026 -105.36,-57.637 -136.082,-93.496c-27.574,-32.184 -73.328,-81.856 -71.912,-84.432" style="fill:#b57462;fill-rule:nonzero;"/><path d="M1450.24,1416.37c-3.917,-3.498 20.227,-13.765 31.765,-13.765c11.776,-0 28.328,8.085 38.891,13.765c9.341,5.024 21.813,15.374 24.493,20.312c2,3.686 -4.434,10.643 -8.418,9.336c-6.648,-2.181 -19.275,-18.258 -31.456,-22.424c-14.459,-4.941 -51.358,-3.725 -55.275,-7.224" style="fill:#b57462;fill-rule:nonzero;"/><path d="M1472.98,1515.31c11.832,11.221 60.715,44.418 67.76,43.714c7.046,-0.704 -18.33,-36.381 -25.482,-47.941c-4.846,-7.829 -9.856,-18.184 -17.44,-21.416c-7.582,-3.232 -23.923,-2.251 -28.064,2.024c-4.139,4.275 -2.536,18.149 3.226,23.619" style="fill:#ffedd8;fill-rule:nonzero;"/><path d="M1553.08,1621.96c-7.472,-6.176 -6.181,-22.542 -1.312,-29.048c4.867,-6.502 21.03,-11.47 30.528,-9.982c9.496,1.496 21.659,9.203 26.454,18.931c4.888,9.915 12.154,37.205 2.874,40.555c-9.277,3.352 -48.57,-12.206 -58.544,-20.456" style="fill:#ffedd8;fill-rule:nonzero;"/><path d="M1599.92,1667.02c-7.134,-4.808 -14.104,-22.544 -7.768,-24.611c6.333,-2.067 35.992,12.939 45.776,12.213c7.92,-0.594 12.717,20.883 6.384,22.947c-6.336,2.067 -35.699,-4.691 -44.392,-10.549" style="fill:#ffedd8;fill-rule:nonzero;"/><path d="M1309.32,1160.04c0.789,-10.198 18.245,-21.766 28.834,-29.584c10.4,-7.683 21.888,-19.07 34.702,-17.336c13.144,1.778 37.186,16.61 44.154,28.008c6.966,11.405 5.563,29.92 -2.357,40.408c-7.92,10.482 -31.621,20.816 -45.163,22.504c-12.616,1.57 -26.045,-5.056 -36.072,-12.39c-10.029,-7.333 -24.888,-21.413 -24.098,-31.61" style="fill:#ffedd8;fill-rule:nonzero;"/><path d="M764.407,543.099l9.656,22.144c0,-0 12.475,-5.699 15.534,-3.325c3.061,2.373 5.12,13.512 2.824,17.57c-2.296,4.059 -16.598,6.776 -16.598,6.776l5.872,22.659l26.563,-6.04c0,-0 3.184,13.317 7.96,14.392c4.773,1.075 17.496,-3.875 20.693,-7.949c3.198,-4.075 -1.512,-16.496 -1.512,-16.496l24.582,-3.806l-5.483,-23.09c0,-0 -17.333,2.034 -21.755,-0.48c-4.424,-2.518 -6.92,-11.294 -4.778,-14.616c2.144,-3.323 17.637,-5.315 17.637,-5.315l-4.251,-28.664c0,-0 -20.944,6.096 -25.133,9.955c-3.237,2.981 3.413,10.426 0,13.202c-3.624,2.944 -17.035,5.659 -21.731,4.464c-4.301,-1.093 -2.029,-11.432 -6.461,-11.637c-5.013,-0.229 -23.619,10.256 -23.619,10.256" style="fill:#de4351;fill-rule:nonzero;"/><path d="M901.971,299.794l-1.738,55.291c-0,0 31.402,0.44 35.408,8.352c4.002,7.912 -2.659,32.979 -11.387,39.125c-8.731,6.144 -40.987,-2.25 -40.987,-2.25l-10.072,52.637l60.891,13.555c0,-0 -6.472,30.677 2.355,37.581c8.829,6.904 40.005,9.139 50.616,3.84c10.61,-5.296 13.045,-35.619 13.045,-35.619l54.597,16.238l11.299,-53.158c0,0 -37.864,-12.786 -44.547,-22.33c-6.682,-9.542 -3.245,-30.155 4.446,-34.926c7.693,-4.77 41.706,6.296 41.706,6.296l19.312,-63.482c0,-0 -49.32,-7.923 -61.773,-4.046c-9.621,2.998 -3.157,24.926 -12.944,27.32c-10.381,2.542 -40.795,-4.992 -49.344,-12.072c-7.827,-6.48 7.013,-25.645 -1.957,-30.413c-10.147,-5.392 -58.926,-1.939 -58.926,-1.939" style="fill:#ecaa49;fill-rule:nonzero;"/><path d="M1173.43,748.578l-11.514,-21.237c-0,-0 -11.942,6.749 -15.195,4.645c-3.251,-2.104 -6.259,-13.024 -4.317,-17.264c1.938,-4.24 15.954,-8.173 15.954,-8.173l-7.792,-22.072l-25.949,8.293c-0,0 -4.312,-12.997 -9.16,-13.656c-4.851,-0.661 -17.101,5.36 -19.939,9.693c-2.834,4.334 2.923,16.307 2.923,16.307l-24.168,5.896l7.443,22.536c-0,0 17.096,-3.512 21.717,-1.384c4.621,2.128 7.861,10.659 6.011,14.152c-1.851,3.493 -17.118,6.805 -17.118,6.805l6.694,28.195c-0,0 20.346,-7.867 24.189,-12.072c2.968,-3.248 -4.296,-10.096 -1.133,-13.155c3.357,-3.242 16.485,-7.096 21.269,-6.309c4.376,0.723 3,11.219 7.432,11.04c5.016,-0.2 22.653,-12.24 22.653,-12.24" style="fill:#ecaa49;fill-rule:nonzero;"/><path d="M1151.84,454.45l-18.538,15.488c-0,0 8.976,10.371 7.557,13.974c-1.419,3.602 -11.531,8.709 -16.069,7.648c-4.539,-1.064 -11.168,-14.024 -11.168,-14.024l-20.094,12l13.259,23.797c0,0 -11.885,6.797 -11.576,11.683c0.312,4.882 8.637,15.701 13.445,17.624c4.808,1.925 15.408,-6.086 15.408,-6.086l10.558,22.523l20.618,-11.749c0,-0 -6.824,-16.064 -5.65,-21.016c1.173,-4.952 8.893,-9.816 12.685,-8.691c3.789,1.123 10.056,15.432 10.056,15.432l26.315,-12.136c-0,0 -11.736,-18.387 -16.619,-21.323c-3.771,-2.269 -9.045,6.208 -12.669,3.71c-3.843,-2.648 -10.216,-14.755 -10.39,-19.6c-0.16,-4.435 10.4,-5.16 9.352,-9.47c-1.189,-4.877 -16.48,-19.784 -16.48,-19.784" style="fill:#dd4655;fill-rule:nonzero;"/><path d="M920.323,575.761l-9.661,-28.187c-0,-0 12.384,-0.453 13.778,-4.499c1.398,-4.045 -2.016,-16.33 -5.405,-19.773c-3.389,-3.443 -14.925,-0.88 -14.925,-0.88l-6.19,-18.235l-22.565,1.224c-0,0 5.821,16.016 4.197,19.95c-1.626,3.93 -10.216,5.944 -13.949,3.648c-3.736,-2.296 -8.459,-17.419 -8.459,-17.419l-19.074,6.672l5.698,24.389c0,0 -14.768,4.408 -16.544,8.755c-1.778,4.347 1.928,14.691 5.878,17.317c3.949,2.627 17.816,-1.557 17.816,-1.557l7.674,23.677l25.544,-3.717c0,-0 -7.229,-16.613 -5.824,-20.747c1.403,-4.13 10.84,-6.344 14.251,-4.045c3.413,2.299 6.227,17.832 6.227,17.832l21.533,-4.405Z" style="fill:#ecaa49;fill-rule:nonzero;"/><path d="M932.104,564.419l-28.424,8.939c0,-0 -0.136,-12.392 -4.144,-13.891c-4.008,-1.498 -16.378,1.6 -19.906,4.899c-3.528,3.299 -1.262,14.899 -1.262,14.899l-18.386,5.72l0.648,22.589c-0,-0 16.157,-5.411 20.048,-3.685c3.89,1.725 5.68,10.362 3.29,14.037c-2.389,3.675 -17.629,8.011 -17.629,8.011l6.184,19.24l24.525,-5.078c0,0 4.03,14.878 8.328,16.766c4.299,1.888 14.736,-1.552 17.464,-5.432c2.726,-3.883 -1.104,-17.854 -1.104,-17.854l23.87,-7.064l-3.064,-25.629c-0,-0 -16.795,6.8 -20.888,5.291c-4.096,-1.51 -6.067,-10.998 -3.68,-14.352c2.384,-3.352 17.984,-5.768 17.984,-5.768l-3.854,-21.638Z" style="fill:#aff067;fill-rule:nonzero;"/><path d="M1158.19,613.046l25.842,-14.83c0,0 2.795,12.072 7.03,12.678c4.237,0.602 15.653,-5.078 18.389,-9.059c2.739,-3.979 -1.965,-14.821 -1.965,-14.821l16.73,-9.534l-5.48,-21.922c0,-0 -14.621,8.752 -18.789,7.901c-4.171,-0.851 -7.773,-8.904 -6.229,-13.005c1.546,-4.102 15.498,-11.608 15.498,-11.608l-10.165,-17.462l-22.867,10.219c0,-0 -7.128,-13.664 -11.733,-14.584c-4.603,-0.923 -14.059,4.677 -15.888,9.053c-1.832,4.376 4.907,17.2 4.907,17.2l-21.795,12.022l8.493,24.376c0,-0 14.944,-10.248 19.267,-9.651c4.323,0.595 8.283,9.44 6.675,13.227c-1.608,3.786 -16.328,9.493 -16.328,9.493l8.408,20.307Z" style="fill:#aff067;fill-rule:nonzero;"/><path d="M1069.43,590.842l23.992,-17.666c0,-0 4.147,11.677 8.424,11.794c4.278,0.12 14.974,-6.821 17.243,-11.085c2.267,-4.267 -3.637,-14.504 -3.637,-14.504l15.538,-11.371l-7.933,-21.16c-0,0 -13.533,10.358 -17.771,9.984c-4.24,-0.37 -8.736,-7.962 -7.666,-12.213c1.069,-4.251 14.082,-13.291 14.082,-13.291l-12.085,-16.197l-21.557,12.752c-0,0 -8.635,-12.765 -13.315,-13.16c-4.677,-0.392 -13.437,6.248 -14.757,10.803c-1.323,4.554 6.829,16.528 6.829,16.528l-20.288,14.421l11.205,23.253c0,0 13.683,-11.877 18.048,-11.778c4.363,0.101 9.302,8.44 8.134,12.384c-1.171,3.946 -15.147,11.288 -15.147,11.288l10.661,19.218Z" style="fill:#ecaa49;fill-rule:nonzero;"/><path d="M814.56,841.389c-0,0 29.411,28.808 40.173,31.499c9.32,2.328 18.574,-15.499 24.395,-15.357c5.821,0.141 11.904,9.906 10.528,16.197c-1.648,7.541 -22.643,17.427 -20.413,29.048c2.256,11.757 33.949,41.491 33.949,41.491l42.048,-30.691c0,0 -27.12,-18.475 -26.744,-27.048c0.379,-8.571 17.928,-23.827 29.013,-24.381c11.083,-0.555 37.491,21.05 37.491,21.05l33.296,-35.528c-0,0 -24.499,-31.84 -35.648,-34.01c-11.149,-2.171 -23.011,21.674 -31.251,20.984c-8.237,-0.688 -18.885,-16.71 -18.181,-25.123c0.701,-8.413 24.253,-15.595 22.397,-25.36c-1.856,-9.765 -33.533,-33.229 -33.533,-33.229l-37.821,29.786c-0,0 23.2,26.699 15.456,33.494c-4.936,4.33 -15.542,17.616 -22.422,16.672c-7.896,-1.086 -28.008,-20.838 -28.008,-20.838l-34.725,31.344Z" style="fill:#aff067;fill-rule:nonzero;"/><path d="M869.685,642.115c-0,-0 6.184,21.213 10.509,25.301c3.749,3.544 12.768,-2.363 15.453,-0.765c2.688,1.597 2.966,7.765 0.667,10.346c-2.755,3.096 -15.179,2.198 -17.192,8.222c-2.037,6.093 4.968,28.341 4.968,28.341l27.747,-3.299c-0,0 -7.83,-15.778 -5.398,-19.688c2.432,-3.912 14.654,-6.432 19.987,-3.776c5.331,2.656 12.003,19.712 12.003,19.712l24.922,-7.864c0,0 -3.085,-21.341 -7.73,-25.29c-4.646,-3.947 -16.467,4.088 -20.142,1.6c-3.672,-2.491 -4.437,-12.787 -1.896,-16.539c2.542,-3.752 15.448,-0.915 17.15,-5.971c1.701,-5.058 -6.947,-24.37 -6.947,-24.37l-25.531,3.989c0,-0 3.832,18.592 -1.578,19.733c-3.451,0.728 -11.907,4.155 -14.878,1.902c-3.408,-2.584 -7.621,-17.115 -7.621,-17.115l-24.493,5.531Z" style="fill:#dd4655;fill-rule:nonzero;"/><path d="M1147.4,689.029c0,-0 -8.824,-20.256 -13.634,-23.763c-4.168,-3.04 -12.366,3.965 -15.232,2.723c-2.867,-1.246 -3.926,-7.328 -1.974,-10.182c2.339,-3.418 14.776,-4.104 16.011,-10.336c1.245,-6.301 -8.528,-27.48 -8.528,-27.48l-27.101,6.792c-0,0 9.768,14.656 7.853,18.846c-1.917,4.186 -13.72,8.24 -19.347,6.28c-5.626,-1.958 -14.408,-18.027 -14.408,-18.027l-23.722,10.963c-0,-0 5.77,20.776 10.877,24.104c5.109,3.328 15.816,-6.144 19.776,-4.142c3.957,2.003 6.027,12.12 3.981,16.163c-2.045,4.045 -15.208,2.869 -16.253,8.101c-1.045,5.235 9.984,23.288 9.984,23.288l24.819,-7.194c-0,-0 -6.163,-17.958 -0.939,-19.776c3.328,-1.16 11.28,-5.632 14.515,-3.774c3.709,2.128 9.733,16.008 9.733,16.008l23.589,-8.594Z" style="fill:#dd4655;fill-rule:nonzero;"/><path d="M815.242,767.885c0,0 0.701,-22.085 -2.147,-27.314c-2.464,-4.531 -12.869,-1.712 -14.928,-4.064c-2.058,-2.35 -0.41,-8.302 2.576,-10.043c3.579,-2.088 15.11,2.616 18.894,-2.485c3.826,-5.163 4.064,-28.486 4.064,-28.486l-27.4,-5.466c-0,-0 2.549,17.426 -0.976,20.392c-3.523,2.962 -15.926,1.57 -20.171,-2.608c-4.245,-4.179 -5.301,-22.462 -5.301,-22.462l-26.134,-0.25c0,-0 -3.682,21.245 -0.49,26.44c3.192,5.194 16.922,1.218 19.642,4.725c2.72,3.507 0.259,13.531 -3.322,16.309c-3.579,2.779 -14.971,-3.92 -18.155,0.363c-3.187,4.28 -0.952,25.32 -0.952,25.32l25.509,4.125c0,0 2.123,-18.866 7.619,-18.274c3.507,0.378 12.608,-0.256 14.733,2.805c2.44,3.515 1.942,18.637 1.942,18.637l24.997,2.336Z" style="fill:#ecaa49;fill-rule:nonzero;"/><path d="M2398.21,1486.9c-71.136,53.398 -254.493,476.611 -202.952,463.768c51.542,-12.842 133.107,-157.824 166.934,-235.12c30.832,-70.458 88.453,-268.005 36.018,-228.648" style="fill:#808080;fill-rule:nonzero;"/><path d="M2453.51,1467.21c-100.725,-20.944 -85.536,198.248 -131.858,279.05c-41.835,72.974 -172.891,151.936 -146.075,205.763c26.819,53.827 205.741,75.392 306.979,117.195c114.285,47.186 281.362,204.162 378.725,165.925c97.36,-38.237 180.667,-273.651 205.467,-395.363c22.586,-110.952 27.413,-410.709 -56.696,-334.917c-114.134,102.821 -446.374,-14.747 -556.542,-37.653" style="fill:#006c65;fill-rule:nonzero;"/></g></svg>