<?xml version="1.0" encoding="UTF-8" standalone="no"?><!DOCTYPE svg PUBLIC "-//W3C//DTD SVG 1.1//EN" "http://www.w3.org/Graphics/SVG/1.1/DTD/svg11.dtd"><svg width="100%" height="100%" viewBox="0 0 2731 2048" version="1.1" xmlns="http://www.w3.org/2000/svg" xmlns:xlink="http://www.w3.org/1999/xlink" xml:space="preserve" xmlns:serif="http://www.serif.com/" style="fill-rule:evenodd;clip-rule:evenodd;stroke-linecap:round;stroke-linejoin:round;"><g id="Layer-1" serif:id="Layer 1"><path d="M626.212,1738.11c34.973,-20.351 72.873,-42.407 120.27,-50.487c121.35,-20.694 249.006,-26.487 374.78,-33.924c182.17,-10.774 571.729,-7.735 728.833,9.753c65.761,7.319 115.084,43.114 180.51,51.389c97.052,12.271 202.805,-8.368 297.509,9.072c68.935,12.693 220.946,46.434 171.7,77.319c-223.888,140.435 -470.943,-5.284 -700.644,16.477c-96.272,9.12 -155.29,77.514 -251.322,87.462c-461.331,47.784 -453.724,-28.191 -917.397,-67.946c-214.779,-18.415 -266.28,65.445 -398.091,-35.084c-27.58,-21.039 -0.291,-65.336 41.48,-75.688c81.243,-20.127 176.651,-3.096 264.766,-0.182c29.928,0.988 59.076,6.474 87.606,11.839" style="fill:#c1b5d9;fill-rule:nonzero;"/><path d="M619.345,717.533c-4.322,0.521 -12.543,1.516 -11.813,6.887c1.09,8.013 19.781,6.89 23.623,11.64c1.929,2.38 3.538,7.895 1.43,10.022c-8.317,8.391 -12.137,-5.198 -18.902,-4.926c-3.065,0.122 -7.677,1.471 -8.186,5.265c-0.496,3.676 3.586,6.702 6.443,7.725c5.761,2.06 12.376,-1.73 17.955,1.011c2.639,1.299 5.377,6.775 3.678,9.622c-3.234,5.419 -24.001,-1.314 -21.179,15.892c1.001,6.1 8.787,5.809 13.288,8.435c10.354,6.043 10.521,4.687 20.619,11.103c1.904,1.213 6.763,2.201 5.422,4.287c-4.766,7.421 -26.006,18.895 -18.684,16.365c11.052,-3.816 21.384,-11.353 30.309,-20.38c9.043,-9.148 0.585,-19.439 12.219,-21.934c6.005,-1.286 28.275,10.268 32.085,10.898c5.041,0.835 10.431,-4.03 15.194,-1.791c4.744,2.226 6.804,9.424 10.444,13.838c10.697,12.962 24.129,22.315 33.933,36.342c9.127,13.054 2.323,17.744 12.108,30.242c3.758,4.804 12.584,3.547 13.959,10.054c3.33,15.744 -3.205,32.679 -1.516,48.83c2.249,21.505 16.036,29.112 25.536,44.371c9.207,14.788 12.956,34.153 22.155,48.948c3.762,6.055 8.765,18.368 14.139,14.695c4.997,-3.416 -6.049,-12.098 -8.947,-18.243c-2.85,-6.049 -5.643,-12.142 -8.288,-18.338c-2.21,-5.186 -8,-10.326 -6.273,-15.793c1.286,-4.075 7.127,2.14 9.616,5.214c4.305,5.323 6.337,12.943 9.974,18.998c6.452,10.748 16.365,17.971 22.078,29.355c6.993,13.928 -1.574,21.173 13.115,30.898c19.91,13.176 22.971,-1.344 43.395,11.157c3.129,1.913 2.956,8.528 5.934,10.787c10.751,8.157 12.21,4.184 22.338,14.03c14.772,14.359 14.644,16.323 32.951,15.527c3.147,-0.138 12.405,-2.127 9.26,-2.354c-8.736,-0.621 -18.143,5.335 -26.23,1.142c-4.344,-2.252 -3.205,-37.225 -3.596,-37.596c-6.116,-5.755 -15.757,2.556 -22.925,-0.771c-2.847,-1.321 -3.362,-7.37 -2.457,-11.007c1.663,-6.654 7.891,-10.518 9.494,-17.191c0.704,-2.927 -0.979,-8.106 -3.413,-8.106c-12.325,0 -19.683,37.024 -35.079,14.206c-6.803,-10.085 -11.423,-39.089 -4.852,-52.096c2.789,-5.521 8.56,-8.253 13.672,-9.503c3.969,-0.97 7.821,3.637 11.854,3.263c11.958,-1.11 11.503,-4.053 23.457,-3.708c2.867,0.083 6.257,-2.796 8.586,-0.697c5.691,5.137 5.937,25.603 14.078,28.229c3.013,0.976 4.287,-6.868 3.768,-10.719c-1.481,-11.01 -14.957,-14.446 -5.87,-28.741c4.223,-6.638 12.562,-7.329 17.233,-13.477c9.078,-11.944 -0.762,-17.274 7.533,-30.178c3.912,-6.087 10.118,-9.164 15.45,-13.214c2.425,-1.843 6.116,-1.491 7.744,-4.402c5.218,-9.34 3.004,-11.842 11.068,-16.745c2.345,-1.424 4.127,-7.678 6.276,-5.838c2.649,2.264 -1.122,8.928 0.938,12.005c5.105,7.619 23.457,-11.218 25.411,-14.273c0.947,-1.481 -1.286,-4.946 -2.76,-4.523c-4.872,1.391 -6.836,16.112 -14.581,5.137c-1.676,-2.377 1.846,-6.878 0.432,-9.51c-1.721,-3.205 -8.47,-1.261 -8.288,-5.118c0.192,-4.149 8.522,-1.651 8.797,-5.793c0.253,-3.775 -6.647,-1.82 -8.068,-5.163c-0.898,-2.118 1.577,-5.144 3.42,-5.774c14.34,-4.907 14.75,-0.246 28.965,-5.889c2.108,-0.838 5.374,-5.461 6.225,-2.898c5.333,16.055 -4.875,35.731 14.446,26.969c2.479,-1.126 2.546,-7.037 1.132,-9.83c-3.013,-5.937 -15.757,-6.372 -15.578,-17.139c0.048,-3.062 5.381,-2.284 6.008,-5.243c3.365,-15.866 -16.903,-18.96 -21.567,-25.805c-6.842,-10.044 0.49,-31.4 -15.597,-35.2c-5.992,-1.417 -8.896,12.715 -14.98,13.16c-18.25,1.331 -4.38,-14.363 -8.413,-20.354c-2.019,-2.997 -6.308,-1.308 -9.011,-3.282c-8.417,-6.145 -6.644,-26.928 -25.604,-9.996c-22.42,20.021 1.737,28.194 4.13,41.088c2.377,12.799 -7.824,6.763 -11.177,19.097c-1.618,5.95 3.413,12.725 1.881,18.714c-1.004,3.928 -5.355,8.285 -8.355,6.589c-11.842,-6.689 3.918,-17.696 -6.225,-27.404c-5.205,-4.984 -12.949,-3.052 -19.036,-6.081c-9.363,-4.664 -19.612,-8.365 -27.062,-16.874c-15.105,-17.258 -5.733,-28.709 5.895,-39.803c5.246,-5.003 15.191,-3.736 17.536,-11.468c1.574,-5.179 -8.381,-4.165 -11.666,-7.866c-1.993,-2.245 -5.272,-6.711 -3.41,-9.126c4.187,-5.431 14.263,11.858 14.842,11.983c2.751,0.585 4.412,-4.347 6.878,-5.985c5.48,-3.643 11.333,-6.337 16.883,-9.808c1.449,-0.908 4.587,-1.378 4.079,-3.307c-0.963,-3.669 -5.892,-3.996 -6.954,-7.623c-0.723,-2.466 7.984,-31.118 -11.443,-12.901c-5.853,5.489 0.432,19.686 -8.115,23.633c-3.771,1.74 -2.601,-24.234 -7.604,-23.067c-0.105,0.026 -3.634,13.567 -7.683,7.073c-1.462,-2.342 -0.739,-5.972 -1.795,-8.637c-3.618,-9.133 -19.01,-17.408 -12.296,-30.338c3.01,-5.799 10.646,-5.054 14.497,-10.005c0.931,-1.194 2.905,-4.021 1.644,-4.562c-6.292,-2.697 -13.723,-6.638 -19.788,-3.215c-11.26,6.35 -1.321,17.36 -2.223,24.842c-0.435,3.605 -3.24,6.292 -3.723,9.885c-0.464,3.442 -0.8,7.725 0.991,10.389c2.793,4.162 14.401,-2.101 9.507,11.932c-1.474,4.232 -5.527,6.123 -8.502,8.851c-1.203,1.104 -3.429,4.331 -3.964,2.585c-3.138,-10.208 5.429,-25.22 -10.572,-19.161c-5.124,1.938 8.068,17.184 0.167,18.975c-14.782,3.349 -13.33,-9.366 -28.556,-8.259c-23.147,1.683 -22.373,13.432 -44.729,6.781c-2.348,-0.697 5.178,-4.996 3.953,-7.606c-1.356,-2.892 -5.335,-0.544 -7.987,-0.986c-5.633,-0.937 -4.024,-4.974 -9.373,-6.257c-3.374,-0.812 -6.928,3.075 -10.207,1.792c-6.609,-2.591 -6.564,-0.915 -13.467,-1.667c-2.15,-0.233 -1.43,-7.168 -3.57,-6.781c-2.492,0.451 -1.376,7.866 -3.883,8.131c-7.46,0.79 -0.89,-12.363 -8.26,-11.682c-13.339,1.232 -11.922,8.202 -25.446,8.733c-2.668,0.105 -5.611,-3.756 -7.857,-1.948c-3.291,2.648 -1.794,12.734 -5.7,12.856c-8.704,0.269 -15.889,-9.245 -24.327,-11.922c-9.472,-3.004 -19.375,-3.177 -29.036,-5.003c-10.294,-1.948 -20.411,-6.247 -30.817,-6.321c-6.868,-0.048 -13.742,2.553 -20.047,5.963c-5.435,2.939 -10.067,7.923 -14.558,12.76" style="fill:#7967b6;fill-rule:nonzero;"/><path d="M792.875,659.321c1.033,1.596 2.389,3.698 1.935,5.672c-1.542,6.698 -12.287,13.476 -5.601,23.341c9.308,13.736 16.867,4.037 23.825,-3.435c2.696,-2.895 4.926,-12.968 7.325,-9.689c3.068,4.197 -4.779,12.344 -2.051,16.896c2.428,4.056 4.124,3.567 3.049,8.496c-0.685,3.125 4.536,3.963 7.114,3.829c4.063,-0.211 7.521,-4.939 11.586,-4.798c2.371,0.08 7.825,4.177 5.662,5.396c-5.978,3.372 -13.419,-0.406 -19.567,2.444c-1.625,0.755 -1.318,5.566 0.24,6.516c3.752,2.294 8.56,-0.553 12.475,1.254c9.194,4.242 8.624,10.345 17.651,5.975c1.929,-0.934 1.206,-6.263 3.257,-6.631c7.443,-1.334 15.441,5.262 22.504,2.019c3.31,-1.52 2.047,-8.714 1.647,-13.106c-1.094,-12.043 -2.079,-24.519 -6.075,-35.555c-2.664,-7.364 -13.547,1.584 -14.423,3.826c-1.158,2.965 0.857,6.542 0.876,9.84c0.016,3.048 1.638,9.462 -0.774,9.094c-2.722,-0.413 -1.574,-6.651 -2.911,-9.654c-1.033,-2.316 -2.325,-4.639 -4.101,-6.084c-5.15,-4.184 -3.15,12.312 -7.642,6.967c-1.209,-1.44 0.73,-5.352 -0.796,-6.2c-3.068,-1.698 -6.826,1.328 -10.054,0.189c-6.247,-2.207 -8.522,-12.853 -14.283,-16.602c-2.38,-1.551 -5.438,0.768 -8.051,0c-8.244,-2.425 -12.556,-10.62 -22.251,-6.762c-1.721,0.684 -0.985,4.558 -0.566,6.762" style="fill:#7967b6;fill-rule:nonzero;"/><path d="M889.945,675.874l-1.068,5.099l15.169,12.68l8.39,-3.122l0.941,-14.263l-4.386,-3.241l2.869,-4.644l-1.052,-9.063l-6.126,1.334l-2.927,6.504c-0.662,-1.027 -1.327,-2.054 -2.063,-2.998c-0.825,-1.052 -1.487,-2.556 -2.613,-2.981c-0.535,-0.202 -0.781,1.008 -1.098,1.58c-0.617,1.113 -1.158,2.291 -1.705,3.461c-0.774,1.661 -1.513,3.346 -2.252,5.029l-2.079,4.625Z" style="fill:#7967b6;fill-rule:nonzero;"/><path d="M931.764,584.647c-5.556,3.496 -14.055,8.845 -13.166,16.564c1.072,9.34 9.939,15.786 17.174,18.351c4.53,1.606 8.42,-5.291 12.693,-7.766c4.399,-2.55 15.524,-1.888 13.324,-7.307c-3.66,-9.001 -14.581,-8.611 -21.708,-13.323c-2.891,-1.909 -5.61,-4.219 -8.317,-6.519" style="fill:#7967b6;fill-rule:nonzero;"/><path d="M1019.02,619.803c3.401,3.627 6.804,7.258 10.371,10.626c4.318,4.079 7.939,10.537 13.266,11.708c17.097,3.752 29.873,-14.686 42.851,9.405c5.531,10.271 2.597,25.734 8.586,35.593c3.589,5.911 13.966,0.131 16.992,6.519c10.006,21.144 -14.129,19.075 -9.542,43.127c3.007,15.783 11.071,29.989 20.027,41.696c4.885,6.392 13.154,13.758 19.58,10.102c22.319,-12.706 6.235,-34.474 24.551,-47.25c3.692,-2.575 8.829,4.44 12.569,1.974c6.685,-4.408 8.716,-16.775 15.635,-20.575c12.159,-6.682 28.016,-0.323 39.09,-9.5c5.093,-4.22 -13.835,-2.268 -16.874,-8.912c-1.925,-4.213 4.053,-10.585 7.924,-10.662c4.555,-0.089 6.586,8.573 10.93,10.294c1.977,0.784 6.663,-1.74 5.419,-3.819c-3.736,-6.229 -11.442,-7.089 -15.495,-12.994c-1.852,-2.7 -3.445,-9.606 -0.733,-10.649c13.323,-5.102 21.317,5.032 23.684,-17.165c0.851,-7.981 -7.881,-14.161 -7.571,-22.203c0.15,-3.931 9.417,-0.956 8.611,-4.76c-1.004,-4.721 -8.464,-1.657 -10.806,-5.556c-1.295,-2.163 2.572,-4.44 3.27,-6.999c1.557,-5.707 0.972,-12.402 3.442,-17.578c3.314,-6.941 7.648,-13.771 13.339,-17.577c6.068,-4.06 17.107,2.78 20.261,-4.891c2.479,-6.03 -9.254,-8.013 -14.625,-8.816c-19.925,-2.981 -17.782,9.289 -37.522,13.707c-2.086,0.467 0.681,-5.48 1.989,-7.572c2.569,-4.11 9.143,-5.255 9.29,-10.476c0.109,-3.903 -5.809,-4.091 -8.893,-3.56c-4.267,0.732 -7.316,7.002 -11.621,7.085c-1.859,0.039 2.719,-5.95 1.011,-6.877c-5.426,-2.943 -23.473,-0.854 -17.651,-2.147c12.062,-2.677 24.806,1.558 36.706,-2.082c2.297,-0.704 0.202,-7.236 -1.913,-8.57c-8.755,-5.518 -18.483,-8.819 -28.198,-10.409c-12.19,-1.996 -24.586,-0.323 -36.879,-0.249c-5.23,0.032 -10.703,-1.437 -15.684,0.563c-4.283,1.724 -6.535,8.429 -10.834,10.095c-4.827,1.878 -10.268,-1.599 -15.159,0c-1.814,0.595 -1.238,5.246 -3.03,5.953c-4.104,1.625 -8.883,-1.545 -12.91,0.355c-2.412,1.139 -1.993,7.236 -4.517,7.873c-11.605,2.917 -11.931,-5.039 -23.178,-0.148c-15.502,6.747 -17.354,8.778 -30.428,20.166c-3.563,3.106 -10.073,4.257 -10.489,9.679c-0.355,4.623 10.438,3.548 9.143,7.898c-1.712,5.758 -9.056,4.68 -13.582,7.022c-6.801,3.515 -13.602,7.037 -20.403,10.556" style="fill:#7967b6;fill-rule:nonzero;"/><path d="M962.074,664.308c-8.564,5.032 -19.337,11.359 -21.772,22.827c-1.542,7.274 8.317,11.567 13.883,14.376c7.517,3.79 15.911,4.504 24.007,4.731c20.284,0.563 24.878,-9.766 40.833,16.487c10.269,16.893 -24.807,32.666 -24.947,33.811c-0.909,7.396 12.197,-0.454 17.817,2.047c16.637,7.402 13.746,19.062 31.416,16.727c4.174,-0.55 10.7,-3.253 10.607,-8.522c-0.109,-6.279 -8.31,-7.546 -10.981,-12.862c-1.923,-3.823 -5,-10.489 -2.169,-13.288c8.877,-8.774 6.234,14.276 17.014,10.607c3.132,-1.065 6.44,-6.768 5.048,-10.454c-3.048,-8.083 -9.654,-13.556 -15.812,-18.066c-2.549,-1.869 -7.012,2.894 -8.851,-0c-2.719,-4.287 1.273,-12.102 -1.507,-16.327c-4.673,-7.098 -26.022,-17.77 -33.741,-19.267c-5.767,-1.119 -12.133,2.857 -17.507,0c-2.716,-1.446 -0.185,-8.371 -2.511,-10.649c-6.043,-5.905 -13.573,-9.1 -20.827,-12.178" style="fill:#7967b6;fill-rule:nonzero;"/><path d="M998.479,1122.05c-5.614,14.84 -11.449,30.261 -12.767,46.604c-1.273,15.793 2.259,31.732 5.211,47.163c2.393,12.514 3.717,26.787 10.726,36.173c6.743,9.027 24.922,2.568 27.196,14.609c4.802,25.398 -6.596,51.546 -9.82,77.331c-3.848,30.827 -9.44,61.402 -11.394,92.501c-1.613,25.616 1.401,53.762 22.545,67.053c4.549,2.86 14.388,0.055 14.411,-6.333c0.028,-8.883 -15.15,-10.844 -14.325,-19.67c1.209,-12.885 16.74,-18.073 19.052,-30.721c4.603,-25.204 -9.986,-30.312 4.946,-47.612c7.623,-8.835 20.252,-8.32 28.063,-16.886c31.201,-34.234 16.807,-47.212 44.55,-86.384c19.91,-28.112 25.245,-21.868 40.849,-54.275c5.707,-11.855 22.587,-21.23 18.774,-34.224c-5.131,-17.491 -24.637,-20.914 -37.612,-29.992c-11.628,-8.135 -25.482,-11.414 -36.057,-21.56c-5.473,-5.25 -4.277,-17.927 -10.038,-22.667c-10.156,-8.359 -23.402,-8.394 -34.662,-14.11c-9.002,-4.575 -16.34,-14.782 -25.936,-16.669c-13.384,-2.627 -27.789,-2.127 -40.542,3.608c-4.136,1.865 -3.545,10.566 -3.17,16.061" style="fill:#7967b6;fill-rule:nonzero;"/><path d="M1308.63,967.089c-8.585,7.927 -22.734,27.133 -29.893,44.259c-8.24,19.714 -19.541,53.481 -19.541,74.024c-0,18.336 8.809,40.139 19.541,49.243c10.732,9.1 32.107,5.678 44.854,5.371c10.713,-0.256 22.43,-8.138 31.627,-7.191c8.538,0.883 19.673,5.988 23.556,12.888c3.884,6.903 -2.172,19.321 -0.259,28.52c2.23,10.742 12.108,22.795 13.649,35.917c1.629,13.892 -5.396,31.655 -3.873,47.432c1.884,19.542 11.992,54.374 15.178,69.798c1.552,7.518 2.041,15.374 3.938,22.766c8.851,34.538 49.834,4.475 61.715,-0.438c7.93,-3.288 5.463,-21.243 9.558,-29.068c3.787,-7.232 12.651,-9.743 15.006,-17.878c2.443,-8.445 -3.407,-24.567 -0.346,-32.791c3.061,-8.227 16.733,-7.312 18.716,-16.563c2.502,-11.673 -7.875,-37.366 -3.71,-53.459c4.165,-16.094 20.296,-27.632 28.696,-43.101c8.963,-16.512 27.513,-46.633 25.086,-55.96c-2.425,-9.325 -28.614,9.135 -39.643,-0c-11.11,-9.197 -20.073,-39.272 -27.008,-55.19c-5.646,-12.949 -14.766,-34.867 -14.616,-40.305c0.154,-5.438 12.428,1.881 15.528,7.681c4.98,9.311 8.556,33.562 14.353,48.199c5.578,14.082 10.169,37.001 20.421,39.615c10.249,2.616 28.684,-14.52 41.089,-23.931c12.043,-9.136 30.414,-23.953 33.332,-32.525c2.859,-8.407 -9.965,-16.781 -15.831,-18.912c-5.87,-2.127 -12.936,8.259 -19.379,6.139c-6.66,-2.195 -17.29,-13.013 -20.581,-19.302c-2.694,-5.141 -2.194,-17.517 0.822,-18.422c3.016,-0.902 11.01,9.974 17.274,13c7.818,3.775 19.928,5.662 29.621,9.651c10.236,4.213 22.014,9.801 31.802,15.623c9.338,5.553 21.829,8.013 26.919,19.302c6.704,14.868 7.904,59.011 13.313,69.919c3.426,6.913 15.703,1.408 19.135,-4.487c3.433,-5.893 -3.125,-22.322 1.462,-30.876c4.795,-8.943 19.302,-15.248 27.305,-22.785c7.294,-6.864 14.194,-24.122 20.71,-22.424c6.519,1.702 13.63,20.726 18.396,32.632c5.144,12.84 8.237,39.854 12.463,44.422c4.222,4.564 7.069,-17.184 12.878,-17.024c5.806,0.163 15.211,17.99 21.963,17.99c6.753,-0 18.595,-8.183 18.55,-17.99c-0.045,-10.672 -22.398,-35.917 -18.825,-46.041c3.564,-10.121 28.348,-7.111 40.232,-14.692c11.765,-7.505 27.471,-20.178 31.067,-30.795c3.592,-10.614 -8.887,-23.934 -9.504,-32.891c-0.505,-7.328 7.92,-15.965 5.796,-20.834c-2.124,-4.868 -18.524,-4.5 -18.534,-8.371c-0.012,-3.87 12.796,-13.352 18.464,-14.855c5.294,-1.405 12.523,2.313 15.553,5.841c3.026,3.531 1.913,10.182 2.613,15.332c0.781,5.767 -0.873,16.742 2.079,19.27c2.953,2.527 13.864,1.09 15.63,-4.108c1.769,-5.198 -5.333,-20.184 -5.019,-27.081c0.252,-5.563 3.17,-11.276 6.903,-14.296c4.465,-3.611 14.647,-1.737 19.897,-7.386c7.248,-7.802 17.529,-28.597 23.594,-39.419c4.603,-8.214 15.047,-18.447 12.789,-25.501c-2.258,-7.056 -25.712,-8.31 -26.342,-16.826c-0.627,-8.512 12.357,-28.735 22.571,-34.265c10.21,-5.531 27.596,4.44 38.699,1.084c10.578,-3.199 20.709,-18.646 27.919,-21.224c5.131,-1.836 10.352,7.114 15.335,5.751c4.984,-1.362 18.003,-19.26 14.571,-13.934c-3.432,5.326 -29.298,32.315 -35.158,45.891c-4.498,10.421 -3.8,32.816 -0,35.558c3.8,2.741 18.313,-12.792 22.798,-19.107c3.439,-4.843 2.943,-12.459 4.101,-18.774c1.158,-6.311 -1.98,-16.794 2.843,-19.103c10.304,-4.939 48.997,-6.452 58.974,-10.531c3.531,-1.442 -1.756,-10.681 0.902,-13.934c4.501,-5.499 16.723,-16.675 26.099,-19.058c9.373,-2.387 31.969,10.85 30.146,4.753c-1.823,-6.1 -26.598,-34.458 -41.089,-41.348c-14.296,-6.801 -31.045,2.847 -45.862,0c-14.816,-2.85 -28.363,-12.898 -43.033,-17.094c-18.272,-5.23 -45.369,-13.954 -66.587,-14.283c-20.501,-0.317 -49.115,13.963 -60.73,12.309c-6.573,-0.934 -3.16,-18.224 -8.953,-22.226c-6.737,-4.647 -21.109,-5.319 -31.454,-5.661c-10.246,-0.339 -21.925,2.619 -30.616,3.611c-7.178,0.816 -16.311,3.023 -21.541,2.326c-3.685,-0.493 -10.447,-3.193 -9.833,-6.513c0.617,-3.324 8.95,-9.453 13.531,-13.416c4.453,-3.851 16.093,-7.719 13.959,-10.364c-2.133,-2.646 -19.071,-2.239 -26.758,-5.509c-7.066,-3.003 -13.985,-14.116 -19.356,-14.1c-5.367,0.013 -7.626,11.321 -12.859,14.18c-12.706,6.945 -48.069,22.05 -63.385,27.491c-9.241,3.282 -26.31,0.275 -28.52,5.157c-2.214,4.881 16.758,21.432 15.252,24.131c-1.507,2.7 -17.891,-7.648 -24.295,-7.926c-4.991,-0.221 -11.654,1.599 -14.133,6.247c-2.479,4.648 0.371,14.558 -0.748,21.64c-1.146,7.229 -2.169,19.209 -6.123,21.749c-3.951,2.537 -17.155,-2.901 -17.587,-6.526c-0.429,-3.624 12.648,-7.715 15.009,-15.223c2.773,-8.841 4.968,-33.101 1.644,-37.81c-3.324,-4.705 -18.3,3.272 -21.589,9.571c-3.288,6.302 6.746,25.075 1.862,28.239c-4.885,3.164 -20.591,-11.109 -31.163,-9.257c-13.496,2.364 -33.175,15.898 -49.803,23.441c-16.573,7.517 -39.307,16.966 -49.936,21.806c-4.696,2.14 -9.661,9.622 -13.839,7.236c-4.177,-2.387 -14.148,-18.499 -11.231,-21.551c2.921,-3.055 22.411,4.898 28.748,3.231c4.581,-1.206 12.668,-9.196 9.27,-13.237c-5.262,-6.25 -27.634,-19.912 -40.829,-24.272c-12.37,-4.092 -26.096,-6.535 -38.341,-1.904c-13.704,5.183 -33.073,21.308 -43.885,33c-9.165,9.913 -15.239,28.645 -20.988,37.16c-3.771,5.582 -13.607,6.619 -13.515,13.934c0.096,7.604 9.315,31.685 14.094,31.685c4.776,-0 10.835,-33.361 14.571,-31.685c3.733,1.676 3.551,38.546 7.837,41.739c4.287,3.192 14.855,-15.627 17.882,-22.584c2.44,-5.604 0.339,-13.64 0.284,-19.155c-0.045,-4.651 -2.511,-9.942 -0.611,-13.934c3.078,-6.455 13.614,-20.584 19.072,-24.794c3.883,-2.997 13.799,-4.59 13.675,-0.457c-0.122,4.129 -11.513,18.719 -14.417,25.251c-1.869,4.203 -3.941,10.345 -3.017,13.934c0.928,3.593 5.07,7.61 8.57,7.61c4.302,0 16.749,-9.772 17.232,-7.61c0.483,2.166 -9.718,13.557 -14.328,20.601c-5.191,7.93 -10.834,22.657 -16.826,26.985c-5.524,3.992 -12.763,-1.823 -19.109,-1.02c-6.843,0.863 -16.826,8.691 -21.96,6.212c-5.138,-2.483 -5.045,-22.299 -8.855,-21.093c-3.813,1.206 -7.942,20.235 -14.014,28.325c-6.724,8.963 -19.986,20.802 -26.329,25.45c-3.42,2.508 -11.609,-2.527 -11.727,2.444c-0.128,5.345 14.107,22.526 10.956,29.627c-3.148,7.105 -24.545,5.231 -29.852,12.988c-5.31,7.757 -4.593,26.508 -2.002,33.552c2.594,7.047 12.018,10.95 17.558,8.727c5.538,-2.224 10.214,-15.326 15.678,-22.066c5.351,-6.602 10.882,-13.889 17.107,-18.368c6.177,-4.443 13.176,-9.519 20.249,-8.515c7.104,1.011 16.493,8.503 22.379,14.574c5.585,5.761 12.936,21.854 12.936,21.854c-0,0 -10.454,-13.643 -12.936,-21.854c-2.483,-8.211 -4.69,-26.074 -1.961,-27.408c2.728,-1.337 12.411,12.658 18.329,19.398c6.158,7.015 13.969,15.537 18.62,22.68c3.922,6.014 5.813,24.081 9.303,20.172c3.489,-3.906 6.432,-33.156 11.637,-43.626c4.385,-8.819 12.424,-15.796 19.596,-19.19c7.172,-3.394 15.908,-3.826 23.434,-1.174c7.793,2.745 20.85,11.529 23.313,17.651c2.464,6.123 -2.811,17.77 -8.528,19.085c-6.02,1.385 -19.141,-11.513 -27.599,-10.771c-8.458,0.745 -20.632,9.059 -23.15,15.233c-2.517,6.177 2.214,18.544 8.042,21.819c6.573,3.695 27.129,-4.018 31.396,0.352c4.264,4.373 0.253,21.115 -5.799,25.872c-6.171,4.85 -21.413,4.043 -31.233,3.228c-9.453,-0.784 -20.972,-8.883 -27.68,-8.113c-5.361,0.615 -7.197,13.202 -12.568,12.729c-7.085,-0.624 -23.531,-10.224 -29.935,-16.474c-4.942,-4.827 -2.949,-17.37 -8.489,-21.036c-5.713,-3.778 -17.485,-2.54 -25.802,-1.644c-8.211,0.889 -16.468,5.313 -24.084,7.034c-7.14,1.616 -15.761,-2.098 -21.602,3.298" style="fill:#7967b6;fill-rule:nonzero;"/><path d="M1960.73,902.407c-1.737,1.356 -7.495,13.038 -6.833,16.304c0.659,3.266 7.694,3.925 10.797,3.298c3.112,-0.63 7.917,-5.16 7.849,-7.066c-0.057,-1.907 -6.253,-2.284 -8.221,-4.373c-1.893,-2.009 -1.855,-9.52 -3.592,-8.163" style="fill:#7967b6;fill-rule:nonzero;"/><path d="M1953.9,931.365c-2.959,3.442 -4.085,19.641 -8.429,25.213c-4.344,5.569 -12.43,5.752 -17.625,8.212c-4.527,2.143 -10.499,3.944 -13.547,6.544c-2.38,2.032 -6.184,8.356 -4.741,9.059c1.436,0.701 8.861,-3.496 13.378,-4.846c5.501,-1.644 14.474,-2.239 19.634,-5.025c4.491,-2.428 8.397,-6.785 11.33,-11.698c3.442,-5.765 9.321,-18.323 9.321,-22.897c0,-4.188 -6.874,-7.409 -9.321,-4.562" style="fill:#7967b6;fill-rule:nonzero;"/><path d="M1753.06,1139.79c1.205,4.287 16.467,21.196 24.314,32.241c6.621,9.322 9.548,25.156 19.062,28.831c5.21,2.009 6.679,-13.144 4.875,-19.596c-1.194,-4.267 -27.334,-32.343 -31.183,-34.957c-5.226,-3.557 -18.278,-10.805 -17.068,-6.519" style="fill:#7967b6;fill-rule:nonzero;"/><path d="M1817,1158.17c-2.601,4.613 -1.069,16.644 3.601,20.415c7.121,5.742 17.78,7.799 25.281,2.892c4.708,-3.081 8.15,-16.733 9.804,-30.002c1.443,-11.564 1.526,-22.833 -0.096,-26.534c-1.993,-4.555 -8.147,3.499 -10.981,7.29c-3.887,5.208 -3.823,14.372 -8.378,18.649c-5.361,5.035 -16.628,2.671 -19.231,7.29" style="fill:#7967b6;fill-rule:nonzero;"/><path d="M1909.56,1181.48c2.37,1.315 9.728,-1.846 14.238,0c5.288,2.163 14.577,8.183 17.469,12.975c2.53,4.19 -3.004,13.163 -0.106,15.776c2.895,2.623 12.265,0.179 17.498,-0.07c4.641,-0.224 10.402,-1.83 13.889,-1.433c2.546,0.284 4.754,2.396 7.05,3.81c2.294,1.413 6.267,7.83 6.708,4.673c0.941,-6.705 -0.563,-15.05 -4.612,-19.57c-6.341,-7.063 -25.847,-19.836 -33.399,-22.814c-3.989,-1.574 -8.404,3.835 -11.9,4.948c-2.972,0.941 -6.775,3.919 -9.097,1.705c-2.323,-2.213 -1.875,-13.684 -4.837,-15.002c-2.956,-1.318 -10.751,4.6 -12.901,7.098c-1.539,1.791 -1.922,6.839 0,7.904" style="fill:#7967b6;fill-rule:nonzero;"/><path d="M1836.3,1295.89c-1.929,10.723 6.829,47.586 7.731,50.561c0.902,2.975 -0.227,16.87 4.77,18.428c5.745,1.792 20.6,-3.685 29.691,-7.683c8.835,-3.881 16.852,-14.721 24.887,-16.302c7.888,-1.548 18.377,3.401 23.332,6.827c3.701,2.559 3.769,12.609 6.392,13.732c2.626,1.123 6.113,-9.056 9.35,-7.002c3.467,2.201 9.539,15.134 11.448,20.201c1.158,3.08 -2.383,8.585 0,10.22c3.106,2.137 12.421,3.387 18.646,2.594c6.34,-0.806 14.475,-1.618 19.388,-7.44c5.909,-6.993 13.771,-21.947 16.049,-34.522c2.274,-12.575 1.212,-30.773 -2.396,-40.929c-3.397,-9.552 -14.679,-13.086 -19.273,-19.996c-4.059,-6.106 -5.998,-14.183 -8.291,-21.467c-2.275,-7.217 -3.01,-16.269 -5.477,-22.242c-2.191,-5.303 -6.215,-16.851 -9.324,-13.582c-3.106,3.269 -3.903,29.381 -9.322,33.194c-5.422,3.817 -20.28,-6.231 -23.197,-10.306c-2.815,-3.928 8.659,-10.969 5.687,-14.145c-2.972,-3.174 -17.965,-6.83 -23.521,-4.904c-5.256,1.82 -5.956,14.11 -9.795,16.448c-3.838,2.339 -9.238,-4.907 -13.23,-2.418c-4.542,2.831 -8.749,13.707 -14.027,19.401c-5.707,6.164 -13.636,12.35 -20.223,17.574c-6.254,4.958 -17.667,4.702 -19.295,13.758" style="fill:#7967b6;fill-rule:nonzero;"/><path d="M946.114,566.104c-0.589,6.25 -1.433,15.239 2.834,18.543c7.242,5.605 11.135,0.349 12.84,10.595c1.212,7.281 12.654,8.237 12.654,15.674c0,6.027 -8.672,5.275 -12.654,8.647c-5.099,4.318 -8.685,11.803 -14.494,14.34c-5.643,2.463 -15.226,-6.871 -17.92,-0.179c-2.68,6.663 5.058,15.952 10.819,17.817c14.26,4.623 34.553,13.982 44.188,0c8.538,-12.392 -26.425,-2.255 -38.635,-8.061c-2.428,-1.155 -1.024,-9.132 1.548,-9.577c12.885,-2.22 26.205,5.745 38.968,2.601c17.28,-4.258 4.702,-19.254 17.776,-34.397c5.454,-6.318 14.849,-2.582 21.739,-6.046c9.357,-4.712 18.057,-11.375 26.525,-18.246c5.69,-4.616 14.663,-7.69 15.783,-16.077c0.748,-5.611 -8.461,-4.348 -12.933,-5.272c-7.169,-1.484 -14.58,-0.355 -21.736,-1.91c-14.977,-3.253 -14.718,2.14 -29.788,2.591c-5.454,0.167 -10.018,-6.66 -15.472,-6.698c-3.621,-0.023 -8.599,2.143 -9.533,6.532c-0.854,4.03 7.985,6.609 6.024,9.983c-8.74,15.044 -17.261,-8 -22.859,-7.69c-2.604,0.144 2.463,8.743 -0,9.814c-4.993,2.176 -10.742,-0.601 -15.674,-2.984" style="fill:#7967b6;fill-rule:nonzero;"/><g><clipPath id="_clip1"><rect x="353.788" y="127.549" width="1874.59" height="1617.2" clip-rule="nonzero"/></clipPath><g clip-path="url(#_clip1)"><path d="M1180.68,1564.24c-29.842,-93.982 -48.903,-237.583 52.547,-264.582c19.689,-5.239 40.507,-8.784 62.074,-7.533c77.555,4.485 147.216,78.64 225.082,76.148c85.846,-2.748 105.631,-79.881 157.094,-129.527" style="fill:none;fill-rule:nonzero;stroke:#3f327a;stroke-width:5.33px;stroke-dasharray:8.22,15.13;"/><path d="M730.568,1014.71c22.824,-110.072 74.264,-245.628 208.007,-389.962c36.063,-38.921 131.724,-122.774 180.253,-144.93c26.291,-12.002 46.031,-9.113 59.911,-3.665c37.756,14.807 112.026,144.468 258.2,40.001c61.545,-43.987 109.111,-107.951 171.162,-150.178c80.985,-55.123 163.198,-94.283 244.56,-147.15c130.218,-84.605 244.969,-223.185 357.702,-319.258" style="fill:none;fill-rule:nonzero;stroke:#3f327a;stroke-width:5.33px;stroke-dasharray:8.22,15.13;"/><path d="M1693.96,970.963c-144.83,20.613 -384.194,1.596 -500.683,-201.945c-22.609,-39.502 -43.002,-80.498 -55.49,-121.075c-44.905,-145.921 37.97,-249.995 -19.404,-399.188c-63.26,-164.493 -212.267,-231.867 -334.53,-348.96" style="fill:none;fill-rule:nonzero;stroke:#3f327a;stroke-width:5.33px;stroke-dasharray:8.22,15.13;"/><path d="M603.229,1744.75c-8.336,-95.613 -30.904,-196.529 -1.814,-291.122c48.949,-159.173 215.818,-244.262 362.353,-305.558c248.613,-103.997 347.009,-140.239 598.609,-237.263c94.871,-36.585 189.597,-73.515 284.67,-109.614c44.716,-16.982 97.324,-29.947 137.475,-57.54c127.576,-87.667 166.087,-244.31 158.153,-387.925c-5.226,-94.602 -67.367,-345.578 -149.967,-291.912c-153.738,99.884 -272.815,-11.787 -275.514,-158.879" style="fill:none;fill-rule:nonzero;stroke:#3f327a;stroke-width:5.33px;stroke-dasharray:19.59,15.45;"/><path d="M1419.55,1640.37c-5.47,-79.283 -4.389,-163.809 -28.386,-239.979c-40.386,-128.177 -132.022,-188.142 -211.142,-229.74c-134.232,-70.569 -186.866,-94.455 -321.885,-159.106c-50.912,-24.378 -101.79,-49.044 -152.753,-73.007c-23.969,-11.279 -234.999,-241.169 -275.953,-447.438c-48.053,-242.017 -39.378,-514.56 -5.326,-591.3" style="fill:none;fill-rule:nonzero;stroke:#3f327a;stroke-width:5.33px;stroke-dasharray:19.59,15.45;"/></g></g><path d="M1083.95,837.723c3.772,-6.408 16.759,-3.493 22.939,1.017c9.011,6.577 20.562,26.029 31.121,38.434c10.445,12.264 21.167,24.301 32.251,35.99c13.553,14.295 44.4,34.739 49.073,49.78c4.51,14.516 -8.077,40.267 -21.039,40.465c-12.958,0.198 -41.306,-22.209 -56.721,-39.272c-19.004,-21.039 -47.707,-65.896 -57.313,-86.963c-5.454,-11.967 -4.082,-33.047 -0.311,-39.451" style="fill:#364751;fill-rule:nonzero;"/><path d="M1305.89,913.909c-1.078,-7.693 9.229,-18.17 13.746,-23.675c3.547,-4.325 13.377,-8.333 17.475,-5.825c3.72,2.275 -3.442,6.299 -2.956,10.268c0.659,5.368 10.722,-2.594 15.086,-9.407c2.517,-3.935 12.309,-3.196 17.318,-0.439c5.009,2.758 11.042,11.574 12.731,16.983c1.693,5.412 0.512,11.765 -2.584,15.489c-4.661,5.604 -16.941,14.973 -25.373,18.153c-6.942,2.617 -17.655,4.52 -25.229,0.928c-7.575,-3.589 -19.136,-14.785 -20.214,-22.475" style="fill:#efa59b;fill-rule:nonzero;"/><path d="M1206.72,954.752c13.055,-6.468 35.235,-21.349 51.946,-30.076c15.738,-8.217 37.906,-22.75 48.312,-22.27c9.385,0.435 8.291,18.313 14.126,25.162c5.716,6.708 26.515,9.241 20.888,15.927c-5.63,6.686 -36.278,16.535 -54.661,24.186c-23.988,9.987 -71.436,36.425 -89.267,35.728c-14.174,-0.553 -19.164,-31.8 -17.721,-39.912c1.443,-8.109 18.054,-4.619 26.377,-8.745" style="fill:#364751;fill-rule:nonzero;"/><path d="M934.541,1246.68c-16.387,38.053 -5.255,147.725 -8.726,219.407c-3.308,68.276 -18.457,175.446 -12.104,210.688c4.599,25.507 49.504,31.182 58.784,8.045c13.24,-33.012 24.052,-131.549 33.386,-199.728c10.032,-73.295 36.576,-201.36 26.81,-240.034c-9.769,-38.68 -81.874,-36.175 -98.15,1.622" style="fill:#4f4e4a;fill-rule:nonzero;"/><path d="M1027.92,1273.47c-11.96,39.359 6.292,136.872 9.446,206.142c3.03,66.456 9.418,203.743 9.485,209.504c0.067,5.767 48.702,21.432 54.396,-2.981c8.544,-36.649 14.657,-134.629 14.59,-206.523c-0.064,-71.484 -3.286,-192.198 -14.99,-224.819c-11.193,-31.208 -63.158,-13.474 -72.927,18.677" style="fill:#4f4e4a;fill-rule:nonzero;"/><path d="M941.006,869.97c9.021,-35.004 7.207,-89.064 12.728,-122.415c4.373,-26.413 10.243,-60.023 20.402,-77.687c8.218,-14.289 24.666,-23.908 40.552,-28.297c16.752,-4.629 44.511,-4.187 59.955,0.528c13.678,4.178 25.991,17.293 32.708,27.769c6.459,10.073 10.345,34.138 7.597,35.085c-2.747,0.95 -11.79,-26.33 -24.08,-29.394c-6.187,-1.545 -16.068,-1.462 -26.221,-0.208c-12.411,1.535 -25.229,4.82 -32.212,9.03c-11.743,7.082 -14.366,23.825 -17.747,37.116c-3.954,15.54 -2.991,39.857 -5.976,56.13c-2.597,14.161 -9.618,27.302 -11.934,41.511c-5.368,32.903 -4.06,132.828 -20.255,155.901c-15.108,21.522 -71.001,0.048 -76.923,-17.462c-5.917,-17.514 33.342,-56.332 41.406,-87.607" style="fill:#9b4b7e;fill-rule:nonzero;"/><path d="M1016.05,751.459c1.551,0.813 8.013,-25.914 12.98,-34.678c3.989,-7.035 9.619,-13.743 16.83,-17.911c8.137,-4.705 21.361,-10.581 32.004,-10.322c10.639,0.259 26.115,6.561 31.834,11.883c5.077,4.728 0.567,22.111 2.47,20.057c3.467,-3.746 5.547,-24.551 -5.115,-36.233c-7.226,-7.92 -23.994,-16.877 -39.717,-14.516c-13.147,1.973 -30.296,6.074 -40.148,14.516c-9.852,8.439 -17.107,24.925 -18.963,36.128c-1.743,10.52 5.601,29.912 7.825,31.076" style="fill:#fbf7f3;fill-rule:nonzero;"/><path d="M964.366,837.723c2.806,-3.797 11.427,-5.982 14.673,-7.178c1.504,-0.557 3.743,-1.2 4.808,-0c6.913,7.769 22.869,35.759 36.672,46.629c13.032,10.258 34.592,20.149 46.159,18.575c11.567,-1.573 16.771,-18.348 23.245,-28.021c6.273,-9.366 10.109,-39.848 15.608,-30.005c6.141,10.991 18.092,68.336 21.233,95.952c2.633,23.108 -2.005,52.739 -2.373,69.734c-0.231,10.742 -0.355,21.499 0.169,32.231c2.163,44.208 23.256,188.651 12.799,233.022c-6.305,26.771 -48.043,32.222 -75.531,33.207c-39.627,1.423 -137.143,1.986 -162.228,-24.67c-25.085,-26.655 4.309,-91.953 11.72,-135.268c7.249,-42.337 24.967,-98.063 32.759,-124.626c3.516,-11.983 14.107,-22.267 13.995,-34.756c-0.163,-18.422 -15.667,-54.239 -14.977,-75.776c0.605,-18.912 15.566,-41.937 19.113,-53.446c1.545,-5.019 -0.646,-11.807 2.156,-15.604" style="fill:#fcdcdf;fill-rule:nonzero;"/><path d="M1007.27,740.274c9.056,3.631 27.405,33.415 39.365,40.165c9.837,5.553 26.199,-2.591 32.385,0.329c4.536,2.14 2.14,12.191 4.738,17.188c2.6,4.996 7.568,8.125 10.856,12.788c6.267,8.887 20.233,25.028 26.746,40.533c6.592,15.69 9.315,35.484 12.801,53.618c4.351,22.626 19.612,65.685 13.307,82.133c-6.308,16.452 -43.068,29.087 -51.146,16.564c-8.077,-12.523 8.429,-76.765 2.678,-91.704c-5.374,-13.966 -25.84,8.368 -37.177,2.076c-16.416,-9.11 -46.613,-38.354 -61.321,-56.747c-11.935,-14.923 -25.556,-37.18 -26.925,-53.606c-1.369,-16.429 13.099,-34.403 18.713,-44.959c3.874,-7.281 8.314,-21.052 14.98,-18.378" style="fill:#9b4b7e;fill-rule:nonzero;"/><path d="M973.582,830.544c-13.135,-0.563 -28.128,-1.206 -38.943,6.273c-13.54,9.366 -19.807,26.365 -28.489,40.356c-13.252,21.362 -13.128,58.469 -37.24,65.586c-21.471,6.34 -97.635,-12.498 -119.899,-10.175c-18.303,1.909 -6.512,7.469 2.521,23.501c18.569,32.948 94.618,31.656 132.419,32.843c17.04,0.534 82.312,-71.075 89.631,-88.873c6.125,-14.9 5.457,-31.912 5.457,-48.021c-0,-7.393 -2.79,-14.599 -5.457,-21.49" style="fill:#364751;fill-rule:nonzero;"/><path d="M1016.92,729.067c3.496,-10.236 12.817,-22.222 23.009,-29.247c10.802,-7.446 29.509,-15.44 41.808,-15.44c11.826,-0 29.765,3.742 31.989,15.44c2.818,14.811 -4.943,56.808 -15.086,73.423c-9.2,15.063 -35.062,35.881 -45.782,26.256c-14.596,-13.106 -27.903,-26.531 -33.894,-38.268c-4.875,-9.554 -5.512,-22.004 -2.044,-32.164" style="fill:#efa59b;fill-rule:nonzero;"/><path d="M912.065,1642.35c5.435,-1.673 17.54,13.039 23.777,13.765c5.528,0.636 8.26,-8.058 13.65,-9.43c5.793,-1.475 15.613,-3.737 21.121,0.563c6.136,4.795 7.777,20.814 15.684,28.204c11.5,10.735 40.84,26.339 53.318,36.23c8.282,6.56 22.629,15.04 21.564,23.098c-1.066,8.052 -15.323,24.231 -27.949,25.229c-16.147,1.286 -47.409,-10.101 -68.934,-17.532c-20.825,-7.191 -50.036,-14.35 -60.212,-27.062c-10.175,-12.719 -2.175,-37.056 -0.844,-49.233c0.918,-8.404 3.394,-22.152 8.825,-23.832" style="fill:#9d6161;fill-rule:nonzero;"/><path d="M1044.38,1624.2c5.166,-2.374 19.088,10.639 25.367,10.543c5.563,-0.083 7.14,-9.065 12.302,-11.129c5.554,-2.22 14.993,-5.741 21.017,-2.194c6.704,3.954 10.422,19.625 19.228,25.914c12.802,9.145 43.923,20.792 57.588,28.968c9.066,5.425 24.395,11.964 24.388,20.089c-0.003,8.125 -12.031,26.019 -24.417,28.661c-15.843,3.378 -48.324,-3.832 -70.633,-8.397c-21.585,-4.414 -51.478,-7.699 -63.228,-18.978c-11.746,-11.279 -6.986,-36.454 -7.255,-48.699c-0.185,-8.451 0.474,-22.405 5.643,-24.778" style="fill:#9d6161;fill-rule:nonzero;"/><path d="M637.741,837.082c3.135,-11.224 8.16,-34.4 17.542,-43.344c8.944,-8.525 25.828,-13.048 38.754,-10.306c13.998,2.965 38.002,14.605 45.231,28.105c7.227,13.499 2.473,39.16 -1.864,52.892c-3.602,11.404 -23.099,17.811 -24.158,29.5c-1.142,12.577 13.301,33.421 17.318,45.948c20.726,64.574 -36.818,83.799 -65.867,22.666c-3.419,-7.197 -43.059,-10.306 -24.893,-28.667c5.742,-5.8 25.677,-31.09 24.212,-35.472c-1.794,-5.358 -2.786,-15.694 -6.126,-23.048c-1.74,-3.829 -4.696,-10.572 -8.63,-12.37c-5.061,-2.312 -11.519,0.938 -12.786,-1.897c-3.317,-7.427 -0.924,-16.157 1.267,-24.007" style="fill:#9c7862;fill-rule:nonzero;"/><path d="M804.962,1034.18c6.078,11.685 1.721,52.783 8.679,77.945c9.599,34.701 48.02,107.298 48.913,130.272c0.563,14.497 -35.891,19.843 -43.555,7.572c-15.179,-24.298 -40.545,-118.715 -47.516,-153.377c-3.589,-17.859 0.122,-44.179 5.701,-54.582c4.517,-8.419 23.425,-16.202 27.778,-7.83" style="fill:#9c7862;fill-rule:nonzero;"/><path d="M706.702,800.833c2.024,18.557 -24.171,2.642 -22.191,6.539c1.593,3.134 -19.033,12.306 -17.452,18.62c1.151,4.609 -2.294,19.564 -1.494,25.021c2.715,18.547 -15.249,25.821 -21.445,3.842c-2.508,-8.893 -15.777,-11.615 -19.452,-16.89c-3.689,-5.294 3.042,-17.142 8.15,-21.877c7.428,-6.88 1.769,-14.314 2.441,-17.788c1.302,-6.753 7.153,-1.68 10.435,-5.896c2.738,-3.522 0.838,-11.154 5.207,-14.637c4.002,-3.193 13.439,-1.418 19.1,-2.835c4.754,-1.19 8.986,-6.695 14.379,-9.471c5.739,-2.959 12.632,-3.164 17.453,-3.218c5.915,-0.068 15.063,10.015 22.891,10.681c5.019,0.428 8.429,-7.655 12.782,-6.74c3.369,0.707 6.289,7.261 5.16,13.825c-1.276,7.44 -5.361,10.514 0.691,11.298c8.518,1.101 12.443,4.296 10.63,18.336c-0.451,3.496 -4.562,5.838 -5.666,11.448c-0.825,4.181 0.567,12.626 -1.944,19.622c-0.89,2.476 -4.754,0.422 -4.872,3.688c-0.103,2.77 -0.762,-35.782 -1.005,-32.458c-0.659,8.966 -28.431,-0.922 -33.798,-11.11" style="fill-rule:nonzero;stroke:#000;stroke-width:2.67px;"/><path d="M1120.09,1578.99c-2.758,-14.798 58.231,-41.898 72.61,-25.021c29.528,34.662 115.749,22.721 127.079,25.578c19.072,4.811 5.502,53.145 -11.291,57.994c-27.805,8.033 -128.232,24.263 -156.013,10.355c-21.119,-10.575 -30.012,-56.187 -32.385,-68.906" style="fill:#42352d;fill-rule:nonzero;"/><path d="M648.91,927.53c14.062,7.86 46.537,49.457 57.499,56.936c3.868,2.642 7.054,-7.146 8.279,-12.05c2.687,-10.729 0.521,-46.434 7.827,-52.32c7.306,-5.889 24.881,10.547 36.013,16.996c25.741,14.913 51.254,84.292 46.251,108.827c-1.254,6.151 -9.753,8.438 -10.501,14.695c-2.153,18.045 -5.08,67.39 -2.438,93.559c2.23,22.085 10.47,43.041 18.294,63.465c8.931,23.31 57.128,62.028 35.293,76.414c-28.982,19.084 -168.665,44.294 -209.174,38.107c-24.583,-3.752 -26.186,-48.472 -33.889,-75.214c-11.659,-40.497 -36.083,-167.759 -36.083,-167.759c0,0 -5.172,-81.522 -0.953,-104.573c2.694,-14.708 16.816,-25.859 26.266,-33.741c8.768,-7.316 20.875,-9.667 30.427,-13.556c8.858,-3.609 18.412,-14.52 26.889,-9.786" style="fill:#ff9a66;fill-rule:nonzero;"/><path d="M808.314,1294.49c10.608,-14.987 31.723,-36.588 55.222,-42.464c31.287,-7.828 98.642,-2.531 132.501,-4.498c23.627,-1.366 53.462,-7.194 73.855,-1.283c20.392,5.912 39.179,17.69 48.497,36.742c12.879,26.339 29.986,77.539 39.007,115.865c9.823,41.757 11.768,107.982 19.947,134.667c2.812,9.171 14.331,21.23 4.997,26.726c-11.183,6.586 -61.603,34.79 -72.089,12.776c-23.713,-49.796 -36.706,-231.339 -95.99,-210.099c-62.134,22.261 -177.723,-1.573 -214.376,-21.013c-15.479,-8.208 -1.343,-33.619 8.429,-47.419" style="fill:#74849b;fill-rule:nonzero;"/><path d="M631.023,1068.88c-15.364,-13.365 -58.132,-18.953 -66.078,0.761c-7.943,19.714 5.678,92.382 18.419,117.522c10.015,19.768 36.751,26.342 58.03,33.322c31.217,10.242 100.404,20.162 129.277,28.13c15.517,4.277 28.623,20.479 43.952,19.663c15.329,-0.812 62.169,-13.911 48.024,-24.547c-26.253,-19.74 -166.928,-64.764 -205.534,-93.908c-22.718,-17.149 -10.729,-67.579 -26.09,-80.943" style="fill:#9c7862;fill-rule:nonzero;"/><path d="M738.877,1313.58c98.754,-28.585 200.458,-58.017 302.331,-56.754c107.944,1.334 133.918,199.111 144.164,227.43c11.394,31.496 14.753,66.053 11.158,84.101c-3.599,18.054 -63.001,49.565 -76.532,32.608c-24.836,-31.121 -58.743,-98.37 -98.086,-171.162c-43.59,-80.652 -86.099,-39.112 -153.227,-37.73c-32.135,0.659 -66.039,-5.518 -93.057,-21.852c-19.333,-11.691 -28.597,-35.599 -36.751,-56.641" style="fill:#34445d;fill-rule:nonzero;"/><path d="M463.76,1069.73c-0.173,3.88 2.837,7.139 6.717,7.277l101.358,3.57c3.884,0.137 7.172,-2.902 7.348,-6.782l0.525,-11.787c0.172,-3.881 -2.841,-7.143 -6.721,-7.281l-101.358,-3.57c-3.88,-0.134 -7.172,2.905 -7.345,6.785l-0.524,11.788Z" style="fill:#cac9c7;fill-rule:nonzero;"/><path d="M931.057,1311.57c-0.211,-19.369 -16.106,-34.918 -35.472,-34.707l-283.592,3.112c-19.365,0.208 -34.915,16.103 -34.704,35.472l0.771,70.176c0.211,19.369 16.106,34.918 35.472,34.707l283.592,-3.112c19.365,-0.208 34.915,-16.106 34.704,-35.472l-0.771,-70.176Z" style="fill:#808080;fill-rule:nonzero;"/><path d="M526.933,1055.54c0,-5.703 -4.628,-10.332 -10.332,-10.332l-105.699,0c-5.703,0 -10.332,4.629 -10.332,10.332l0,20.665c0,5.7 4.629,10.329 10.332,10.329l105.699,-0c5.704,-0 10.332,-4.629 10.332,-10.329l0,-20.665Z" style="fill:#0c141f;fill-rule:nonzero;"/><path d="M597.25,1363.37c3.346,-0.253 5.857,-3.174 5.604,-6.52l-22.034,-291.307c-0.252,-3.346 -3.173,-5.857 -6.519,-5.604l-12.126,0.918c-3.346,0.253 -5.858,3.176 -5.605,6.522l22.034,291.304c0.252,3.346 3.176,5.857 6.522,5.605l12.124,-0.918Z" style="fill:#cac9c7;fill-rule:nonzero;"/><path d="M930.619,1243.44c-0.038,-3.355 -2.789,-6.048 -6.145,-6.013l-341.612,3.746c-3.355,0.041 -6.049,2.792 -6.01,6.151l0.131,12.159c0.038,3.352 2.792,6.045 6.148,6.013l341.609,-3.745c3.355,-0.039 6.049,-2.793 6.014,-6.149l-0.135,-12.162Z" style="fill:#cac9c7;fill-rule:nonzero;"/><path d="M986.883,1386.59c-0.099,-8.918 -7.421,-16.08 -16.34,-15.981l-377.573,4.139c-8.918,0.096 -16.08,7.415 -15.984,16.337l0.355,32.327c0.099,8.918 7.418,16.077 16.339,15.984l377.574,-4.139c8.918,-0.099 16.08,-7.421 15.984,-16.343l-0.355,-32.324Z" style="fill:#cac9c7;fill-rule:nonzero;"/><path d="M911.345,1237.35c-3.57,-0.032 -6.468,2.838 -6.468,6.408l-0.057,352.593c-0,3.573 2.898,6.497 6.468,6.532l12.936,0.122c3.57,0.035 6.468,-2.838 6.468,-6.408l0.057,-352.593c0.004,-3.57 -2.895,-6.497 -6.464,-6.529l-12.94,-0.125Z" style="fill:#cac9c7;fill-rule:nonzero;"/><path d="M963.573,1398.02c-2.997,1.942 -3.829,5.937 -1.859,8.915l162.641,245.708c1.971,2.975 6.001,3.813 8.999,1.875l10.853,-7.044c2.994,-1.942 3.826,-5.937 1.855,-8.915l-162.64,-245.705c-1.971,-2.978 -6.001,-3.816 -8.996,-1.874l-10.853,7.04Z" style="fill:#cac9c7;fill-rule:nonzero;"/><path d="M1124.05,1647.94c-0.038,4.2 3.34,7.61 7.54,7.61l152.008,0c4.2,0 7.642,-3.41 7.68,-7.61l0.141,-15.22c0.039,-4.197 -3.339,-7.61 -7.539,-7.61l-152.008,0c-4.201,0 -7.639,3.413 -7.681,7.61l-0.141,15.22Z" style="fill:#cac9c7;fill-rule:nonzero;"/><path d="M960.646,1640.87c35.82,0 64.901,28.272 64.901,63.094c-0,34.816 -29.081,63.087 -64.901,63.087c-35.821,0 -64.901,-28.271 -64.901,-63.087c-0,-34.822 29.08,-63.094 64.901,-63.094" style="fill:#808080;fill-rule:nonzero;"/><path d="M960.646,1656.8c25.488,0 46.184,21.126 46.184,47.154c0,26.026 -20.696,47.151 -46.184,47.151c-25.488,0 -46.185,-21.125 -46.185,-47.151c0,-26.028 20.697,-47.154 46.185,-47.154" style="fill:#69bac9;fill-rule:nonzero;"/><path d="M911.464,1585.08c-3.57,-0.039 -6.471,2.837 -6.471,6.407l-0.01,64.005c0,3.57 2.898,6.497 6.468,6.529l12.936,0.125c3.57,0.032 6.468,-2.838 6.468,-6.407l0.013,-64.009c0,-3.57 -2.898,-6.493 -6.468,-6.529l-12.936,-0.121Z" style="fill:#0c141f;fill-rule:nonzero;"/><path d="M907.443,1650.84c-2.811,2.201 -3.282,6.254 -1.055,9.043l39.94,50.017c2.227,2.789 6.318,3.266 9.13,1.065l10.182,-7.981c2.811,-2.201 3.285,-6.254 1.055,-9.043l-39.94,-50.014c-2.227,-2.789 -6.318,-3.269 -9.127,-1.065l-10.185,7.978Z" style="fill:#0c141f;fill-rule:nonzero;"/><path d="M625,1569.19c1.856,-0 3.359,-1.507 3.359,-3.362l0,-191.76c0,-1.855 -1.503,-3.362 -3.359,-3.362l-6.717,0c-1.855,0 -3.362,1.507 -3.362,3.362l-0,191.76c-0,1.855 1.507,3.362 3.362,3.362l6.717,-0Z" style="fill-rule:nonzero;"/><path d="M621.909,1568.6c1.526,1.053 3.621,0.666 4.674,-0.86l108.753,-157.945c1.05,-1.526 0.666,-3.618 -0.863,-4.668l-5.534,-3.812c-1.526,-1.053 -3.621,-0.666 -4.674,0.86l-108.75,157.942c-1.053,1.529 -0.665,3.621 0.86,4.673l5.534,3.81Z" style="fill-rule:nonzero;"/><path d="M619.699,1566.36c0.662,1.731 2.607,2.601 4.338,1.939l179.147,-68.407c1.73,-0.662 2.6,-2.607 1.938,-4.341l-2.396,-6.276c-0.662,-1.734 -2.603,-2.601 -4.337,-1.942l-179.147,68.417c-1.731,0.662 -2.601,2.601 -1.939,4.334l2.396,6.276Z" style="fill-rule:nonzero;"/><path d="M619.153,1563.26c-0.439,1.801 0.668,3.621 2.469,4.059l186.348,45.251c1.804,0.438 3.621,-0.672 4.059,-2.473l1.586,-6.529c0.436,-1.801 -0.671,-3.621 -2.472,-4.056l-186.348,-45.251c-1.804,-0.441 -3.621,0.669 -4.059,2.47l-1.583,6.529Z" style="fill-rule:nonzero;"/><path d="M620.455,1560.4c-1.382,1.238 -1.5,3.365 -0.262,4.744l127.818,142.955c1.235,1.379 3.362,1.501 4.744,0.266l5.01,-4.482c1.382,-1.231 1.5,-3.358 0.265,-4.744l-127.822,-142.949c-1.234,-1.381 -3.362,-1.5 -4.743,-0.265l-5.01,4.475Z" style="fill-rule:nonzero;"/><path d="M623.154,1558.78c-1.839,0.233 -3.141,1.919 -2.907,3.758l24.205,190.231c0.234,1.84 1.916,3.142 3.756,2.908l6.666,-0.851c1.839,-0.23 3.141,-1.916 2.908,-3.755l-24.206,-190.228c-0.233,-1.842 -1.916,-3.144 -3.755,-2.911l-6.667,0.848Z" style="fill-rule:nonzero;"/><path d="M626.295,1558.98c-1.647,-0.851 -3.675,-0.205 -4.526,1.442l-87.949,170.408c-0.85,1.648 -0.201,3.676 1.446,4.526l5.969,3.081c1.651,0.851 3.679,0.205 4.527,-1.443l87.948,-170.407c0.851,-1.648 0.205,-3.676 -1.446,-4.527l-5.969,-3.08Z" style="fill-rule:nonzero;"/><path d="M628.771,1560.92c-0.877,-1.635 -2.914,-2.249 -4.549,-1.376l-169.077,90.476c-1.635,0.876 -2.252,2.917 -1.379,4.549l3.17,5.924c0.877,1.638 2.915,2.252 4.549,1.379l169.077,-90.479c1.635,-0.877 2.252,-2.914 1.379,-4.546l-3.17,-5.927Z" style="fill-rule:nonzero;"/><path d="M629.705,1563.93c0.208,-1.843 -1.123,-3.509 -2.965,-3.714l-190.567,-21.368c-1.843,-0.208 -3.509,1.12 -3.714,2.965l-0.748,6.676c-0.208,1.843 1.119,3.506 2.962,3.714l190.57,21.368c1.842,0.205 3.505,-1.123 3.713,-2.965l0.749,-6.676Z" style="fill-rule:nonzero;"/><path d="M628.771,1566.93c1.215,-1.401 1.065,-3.528 -0.333,-4.737l-144.843,-125.682c-1.401,-1.209 -3.525,-1.062 -4.74,0.339l-4.402,5.077c-1.215,1.398 -1.065,3.522 0.336,4.737l144.84,125.676c1.401,1.215 3.525,1.062 4.74,-0.333l4.402,-5.077Z" style="fill-rule:nonzero;"/><ellipse cx="624.537" cy="1559.22" rx="217.277" ry="216.45" style="fill:none;stroke:#808080;stroke-width:27.11px;"/><ellipse cx="624.538" cy="1559.22" rx="184.996" ry="184.292" style="fill:none;stroke:#cac9c7;stroke-width:30.97px;"/><path d="M2088.37,671.155c-0.128,22.439 3.762,73.515 9.706,92.673c3.4,10.962 21.806,12.901 25.948,22.27c4.149,9.369 -7.574,24.749 -1.062,33.946c8.346,11.781 42.877,44.505 51.137,36.751c8.256,-7.754 -5.934,-58.935 -1.593,-83.278c4.024,-22.552 28.092,-39.87 27.638,-62.783c-0.464,-23.329 -13.541,-63.609 -30.424,-77.201c-16.887,-13.588 -57.333,-10.61 -70.886,-4.341c-12.946,5.985 -10.384,27.536 -10.464,41.963" style="fill:#ffd7c1;fill-rule:nonzero;"/><path d="M2072.68,662.166c-6.542,6.695 -5.477,24.621 -1.462,28.04c4.017,3.417 17.696,-7.52 25.546,-7.526c7.603,-0.007 13.988,6.688 21.553,7.485c9.686,1.017 27.261,-4.418 36.556,-1.382c8.692,2.84 11.66,14.596 19.203,19.599c7.549,5 25.082,4.984 26.07,10.409c0.982,5.425 -16.314,14.392 -20.152,22.149c-3.637,7.335 -6.257,21.704 -2.898,24.391c3.355,2.684 16.909,-2.902 23.05,-8.279c7.578,-6.634 19.651,-18.934 22.421,-31.527c3.074,-13.966 8.953,-40.526 -3.989,-52.263c-16.423,-14.89 -70.256,-35.235 -94.567,-37.084c-19.126,-1.455 -42.535,16.983 -51.331,25.988" style="fill:#903e30;fill-rule:nonzero;"/><path d="M2039.43,645.512c32.862,12.146 145.54,66.049 179.259,66.043c23.329,-0.003 24.285,-47.707 23.06,-66.081c-1.19,-17.834 -14.404,-36.224 -30.421,-44.157c-19.384,-9.599 -65,-19.493 -85.898,-13.451c-20.325,5.876 -24.439,43.699 -39.486,49.703c-15.047,6.008 -40.059,-13.847 -50.797,-13.662c-6.699,0.112 -14.337,11.167 -13.624,14.769c0.713,3.599 11.916,4.619 17.907,6.836" style="fill:#1e2343;fill-rule:nonzero;"/><path d="M2316.29,1221.61c-5.186,10.262 -5.224,38.853 -3.122,50.717c1.5,8.487 8.157,19.059 15.732,20.505c7.578,1.439 24.765,-3.797 29.713,-11.849c4.952,-8.054 2.39,-24.771 0,-36.476c-2.389,-11.701 -7.274,-29.934 -14.327,-33.754c-7.054,-3.813 -23.483,1.926 -27.996,10.857" style="fill:#ffd7c1;fill-rule:nonzero;"/><path d="M2048.35,1200.63c-8.864,51.159 -31.23,157.2 -30.056,236.553c1.254,85.003 21.681,228.444 37.589,273.464c5.86,16.577 52.438,13.352 57.873,-3.339c14.798,-45.449 23.966,-211.98 30.914,-269.357c3.029,-25.028 10.696,-79.021 10.748,-74.904c0.825,65.832 2.21,54.979 9.241,89.427c10.147,49.706 22.046,216.778 36.892,259.565c5.192,14.97 47.966,12.376 52.173,-2.837c13.758,-49.761 28.514,-209.069 30.382,-295.735c1.613,-74.958 -15.987,-177.822 -19.186,-224.263c-1.248,-18.102 19.09,-48.59 -0,-54.409c-32.244,-9.826 -157.37,-15.527 -193.465,-4.555c-25.76,7.831 -18.918,46.217 -23.105,70.39" style="fill:#b2cdde;fill-rule:nonzero;"/><path d="M2266.94,1013.61c-7.686,3.972 15.409,234.185 9.328,239.131c-11.883,9.66 -22.251,40.308 -34.186,30.705c-21.493,-17.302 -60.95,-136.071 -94.781,-134.513c-33.834,1.561 -88.745,146.144 -108.216,143.87c-19.474,-2.271 -7.3,-105.92 -8.621,-157.507c-1.298,-50.66 15.422,-152.011 1.6,-162.788c-13.826,-10.774 -57.966,104.313 -84.548,98.13c-26.583,-6.186 -69.261,-96.009 -75.845,-124.476c-4.42,-19.122 2.767,-51.485 15.441,-44.259c12.677,7.227 45.718,61.648 58.065,69.018c12.348,7.37 21.647,-24.148 30.296,-41.066c12.29,-24.049 28.694,-61.952 45.999,-84.619c15.054,-19.714 48.159,-28.639 64.469,-37.17c10.7,-5.598 23.889,-16.858 33.409,-14.021c9.516,2.838 13.659,31.064 23.694,31.051c10.038,-0.012 20.613,-32.749 36.527,-31.124c20.194,2.063 73.8,34.342 98.837,53.82c66.878,52.023 62.428,255.733 70.291,316.616c4.088,31.63 16.337,65.183 5.637,75.106c-10.829,10.044 -32.117,14.068 -42.74,1.26c-12.495,-15.063 -36.214,-243.386 -44.656,-227.164" style="fill:#1e2343;fill-rule:nonzero;"/><path d="M2077.3,1710.06c7.008,0.383 12.862,9.35 18.828,8.943c5.972,-0.406 14.513,-17.503 17.002,-11.365c3.557,8.765 23.581,52.877 4.321,63.951c-20.747,11.928 -106.78,13.39 -128.8,7.61c-14.354,-3.762 -12.191,-31.726 -3.311,-42.257c8.883,-10.53 41.287,-16.435 56.613,-20.917c11.435,-3.346 26.316,-6.458 35.347,-5.965" style="fill:#20234e;fill-rule:nonzero;"/><path d="M2077.3,1710.06c7.008,0.383 12.862,9.35 18.828,8.943c5.972,-0.406 14.513,-17.503 17.002,-11.365c3.557,8.765 23.581,52.877 4.321,63.951c-20.747,11.928 -106.78,13.39 -128.8,7.61c-14.354,-3.762 -12.191,-31.726 -3.311,-42.257c8.883,-10.53 41.287,-16.435 56.613,-20.917c11.435,-3.346 26.316,-6.458 35.347,-5.965Z" style="fill:none;fill-rule:nonzero;stroke:#20234e;stroke-width:2.67px;"/><path d="M2217.14,1711.53c7.006,0.384 12.859,9.344 18.832,8.944c5.969,-0.407 14.513,-17.504 16.998,-11.366c3.557,8.765 23.582,52.877 4.322,63.951c-20.748,11.932 -106.783,13.384 -128.801,7.61c-14.35,-3.765 -12.191,-31.729 -3.311,-42.256c8.883,-10.531 41.288,-16.436 56.613,-20.921c11.436,-3.342 26.32,-6.455 35.347,-5.962" style="fill:#20234e;fill-rule:nonzero;"/><path d="M2217.14,1711.53c7.006,0.384 12.859,9.344 18.832,8.944c5.969,-0.407 14.513,-17.504 16.998,-11.366c3.557,8.765 23.582,52.877 4.322,63.951c-20.748,11.932 -106.783,13.384 -128.801,7.61c-14.35,-3.765 -12.191,-31.729 -3.311,-42.256c8.883,-10.531 41.288,-16.436 56.613,-20.921c11.436,-3.342 26.32,-6.455 35.347,-5.962Z" style="fill:none;fill-rule:nonzero;stroke:#20234e;stroke-width:2.67px;"/><path d="M1767.49,862.629c-4.647,14.299 -8.486,51.629 -5.965,63.699c1.433,6.855 13.988,11.48 21.093,8.726c9.887,-3.835 32.772,-16.915 38.238,-31.739c3.961,-10.732 -2.101,-46.712 -5.71,-62.773c-1.705,-7.582 -18.105,-3.535 -25.731,-0c-7.943,3.681 -18.844,12.606 -21.925,22.087" style="fill:#ffc4b9;fill-rule:nonzero;"/><path d="M1755.81,759.828c-12.354,6.225 -18.675,34.515 -20.454,48.667c-1.554,12.351 4.418,27.209 9.773,36.23c4.702,7.923 14.622,13.694 22.353,17.904c7.239,3.944 16.039,9.871 24.026,7.36c9.315,-2.923 25.645,-13.547 31.87,-24.915c6.398,-11.686 8.836,-32.859 6.52,-45.181c-2.112,-11.221 -9.6,-22.897 -20.422,-28.751c-12.347,-6.676 -41.313,-17.539 -53.666,-11.314" style="fill:#ffc4b9;fill-rule:nonzero;"/><path d="M1794.36,801.858c7.939,-2.972 23.178,-8.365 27.449,-8.89c4.27,-0.524 5.079,2.054 1.273,4.063c-3.804,2.005 -15.889,5.886 -24.103,7.981" style="fill-rule:nonzero;"/><path d="M1749.21,792.143c-6.775,9.321 -14.11,29.08 -25.047,19.196c-13.828,-12.495 -6.935,-39.007 -1.132,-52.79c5.051,-11.983 25.533,-30.616 38.491,-35.885c13.061,-5.31 38.021,-4.51 52.17,-1.51c12.734,2.703 25.37,11.51 32.727,19.529c7.162,7.809 16.384,25.018 18.409,34.983c2.188,10.767 0.762,25.648 -1.113,31.55c-3.723,11.746 -42.564,22.321 -42.864,7.693c-0.179,-8.97 -2.978,-20.63 -9.354,-25.559c-6.375,-4.932 -15.971,-7.338 -25.699,-6.903c-5.473,0.246 -15.949,-9.363 -22.769,-8.509c-6.116,0.765 -10.16,13.17 -13.819,18.205" style="fill:#52240d;fill-rule:nonzero;"/><path d="M1681.7,1248.07c0.687,-1.814 -0.256,-3.756 -2.108,-4.328l-6.715,-2.07c-1.855,-0.573 -3.918,0.441 -4.606,2.255l-197.534,520.983c-0.688,1.82 0.256,3.755 2.108,4.325l6.715,2.072c1.855,0.57 3.918,-0.438 4.606,-2.258l197.534,-520.979Z" style="fill:#5b5b5b;fill-rule:nonzero;"/><clipPath id="_clip2"><path d="M1469.49,1768.21l13.761,4.239l22.606,-59.61l-13.768,-4.248l-22.599,59.619Z" clip-rule="nonzero"/></clipPath><g clip-path="url(#_clip2)"><path d="M1681.7,1248.07c0.687,-1.814 -0.256,-3.756 -2.108,-4.328l-6.715,-2.07c-1.855,-0.573 -3.918,0.441 -4.606,2.255l-197.534,520.983c-0.688,1.82 0.256,3.755 2.108,4.325l6.715,2.072c1.855,0.57 3.918,-0.438 4.606,-2.258l197.534,-520.979Z" style="fill-rule:nonzero;"/></g><path d="M1685.26,1071.14c-10.265,22.113 -13.281,104.173 -20.155,139.389c-4.757,24.413 -19.536,55.435 -21.061,71.887c-0.886,9.603 6.954,24.241 11.934,26.832c4.978,2.591 15.364,-5.141 17.952,-11.299c4.878,-11.621 4.239,-39.719 11.33,-58.433c8.794,-23.22 34.525,-53.928 41.428,-80.875c6.724,-26.244 6.903,-66.222 0,-80.806c-5.508,-11.637 -36.015,-18.367 -41.428,-6.695" style="fill:#ffc4b9;fill-rule:nonzero;"/><path d="M1703.38,1611.12c-2.226,13.365 1.382,41.818 -9.462,58.209c-10.847,16.391 -51.994,30.082 -55.605,40.136c-3.615,10.053 20.725,21.073 33.933,20.187c15.281,-1.026 45.443,-18.812 57.768,-26.339c7.277,-4.446 14.516,-10.914 16.182,-18.822c2.06,-9.823 -4.34,-26.771 -3.797,-40.122c0.589,-14.354 13.151,-36.787 7.297,-45.99c-5.857,-9.206 -34.695,-11.365 -42.416,-9.241c-7.719,2.12 -2.678,14.641 -3.9,21.982" style="fill:#ebd0b3;fill-rule:nonzero;"/><path d="M1844.62,1597.24c0.073,9.398 9.164,37.292 8.125,53.222c-0.963,14.74 -8.141,30.078 -14.37,42.365c-5.773,11.391 -24.79,25.053 -22.996,31.342c1.791,6.289 23.771,11.538 33.754,6.398c10.23,-5.265 19.753,-27.081 27.628,-37.996c6.59,-9.132 17.472,-16.762 19.625,-27.481c2.246,-11.173 -3.551,-26.445 -6.161,-39.547c-2.68,-13.397 -3.567,-35.6 -9.891,-40.843c-6.321,-5.249 -22.088,7.284 -28.044,9.376c-2.62,0.918 -7.693,0.63 -7.67,3.164" style="fill:#ebd0b3;fill-rule:nonzero;"/><path d="M1719.03,1145.03c-19.113,21.583 -28.053,94.164 -33.664,131.833c-4.638,31.122 -0,62.803 -0,94.202l-0,125.868c-0,41.93 -6.887,102.73 -0,125.79c3.778,12.661 28.626,11.5 41.322,12.578c11.775,1.004 28.044,2.639 34.832,-6.097c8.282,-10.655 10.614,-38.859 14.843,-57.838c4.142,-18.566 7.981,-37.228 10.553,-56.027c7.056,-51.546 29.589,-191.91 31.78,-253.241c1.379,-38.629 -2.034,-95.22 -18.646,-114.733c-16.451,-19.327 -64.155,-21.374 -81.02,-2.335" style="fill:#212121;fill-rule:nonzero;"/><path d="M1766.69,1146.4c-20.428,32.157 -0.112,124.587 2.149,178.427c2.029,48.296 4.354,102.634 11.43,144.625c6.158,36.556 22.104,81.515 31.016,107.336c5.687,16.468 5.556,39.544 22.459,47.615c16.918,8.074 64.949,20.923 79.055,0.844c14.932,-21.249 10.483,-85.466 10.553,-128.378c0.077,-48.312 -10.114,-112.666 -10.082,-161.48c0.028,-43.904 13.918,-97.474 10.268,-131.385c-2.77,-25.786 -6.014,-62.499 -32.158,-72.102c-26.138,-9.599 -104.266,-17.654 -124.69,14.498" style="fill:#0c2543;fill-rule:nonzero;"/><path d="M1851.8,1650.17c-8.499,16.353 -25.69,35.664 -48.66,34.276c-15.316,-0.925 -35.28,9.209 -40.712,18.572c-5.438,9.363 -1.167,31.192 8.1,37.605c9.27,6.411 31.937,3.187 47.509,0.874c18.364,-2.732 46.008,-12.604 62.655,-17.251c12.434,-3.471 33.498,-1.974 37.228,-10.633c3.726,-8.663 -11.516,-30.322 -14.855,-41.332c-2.46,-8.093 3.211,-21.074 -5.195,-24.698c-8.541,-3.686 -38.815,-11.363 -46.07,2.587" style="fill:#7a8895;fill-rule:nonzero;"/><path d="M1698.94,1650.41c-11.129,14.916 -31.358,31.524 -53.897,26.931c-15.028,-3.065 -36.492,4.113 -43.424,12.577c-6.935,8.461 -6.308,30.572 1.823,38.194c8.129,7.623 31.128,7.633 46.946,7.537c18.649,-0.103 47.685,-5.944 64.952,-8.183c12.901,-1.676 33.534,2.764 38.658,-5.246c5.128,-8.01 -6.404,-31.502 -7.898,-42.819c-1.1,-8.317 6.667,-20.313 -1.068,-25.066c-7.86,-4.834 -36.598,-16.653 -46.092,-3.925" style="fill:#7a8895;fill-rule:nonzero;"/><path d="M1884.9,1147.34c-9.222,12.107 -6.929,50.161 -16.094,70.326c-8.643,19.02 -34.713,35.436 -38.907,50.698c-3.803,13.819 4.558,34.068 13.73,40.881c9.167,6.813 31.943,7.853 41.271,0c9.327,-7.856 12.437,-33.162 14.689,-47.122c1.954,-12.098 -3.685,-24.647 -1.165,-36.658c4.085,-19.52 27.942,-67.412 25.687,-80.435c-2.022,-11.672 -31.8,-7.427 -39.211,2.31" style="fill:#ffc4b9;fill-rule:nonzero;"/><path d="M1761.52,874.983c-11.036,3.953 -46.604,31.153 -58.724,53.826c-12.655,23.672 -13.784,65.49 -17.2,88.198c-2.393,15.902 -6.692,34.643 -3.292,48.05c3.196,12.603 17.063,19.397 23.691,32.378c7.411,14.526 -5.585,48.968 3.669,61.552c9.254,12.584 35.836,12.731 51.856,13.953c14.906,1.136 32.877,-5.812 44.275,-6.634c8.032,-0.576 16.042,1.676 24.106,1.708c18.653,0.08 69.408,-1.564 87.817,-1.232c7.633,0.138 20.751,9.904 22.623,3.228c3.4,-12.139 -0.106,-50.781 -2.227,-76.078c-2.68,-31.927 -6.298,-83.009 -13.851,-115.477c-6.394,-27.488 -13.252,-61.261 -31.467,-79.337c-18.214,-18.077 -61.986,-31.182 -77.83,-29.129c-15.844,2.057 -11.839,33.722 -17.232,41.46c-2.854,4.095 -10.336,6.02 -15.121,4.962c-4.785,-1.059 -11.02,-6.257 -13.592,-11.311c-3.515,-6.904 3.1,-33.911 -7.501,-30.117" style="fill:#ffdf00;fill-rule:nonzero;"/><path d="M1736.37,801.694c3.09,-3.212 12.36,-3.477 16.439,-2.332c4.072,1.142 7.204,5.761 8.013,9.19c0.806,3.432 -0.221,8.781 -3.161,11.397c-2.939,2.617 -10.569,4.53 -14.474,4.309c-3.625,-0.204 -7.981,-2.466 -8.938,-5.627c-1.135,-3.761 -0.972,-13.726 2.121,-16.937" style="fill-rule:nonzero;"/><path d="M1774.81,797.951c3.093,-3.211 12.36,-3.473 16.438,-2.328c4.072,1.142 7.204,5.761 8.013,9.19c0.807,3.432 -0.22,8.777 -3.16,11.397c-2.94,2.617 -10.569,4.53 -14.471,4.309c-3.625,-0.205 -7.982,-2.466 -8.938,-5.63c-1.139,-3.758 -0.976,-13.726 2.118,-16.938" style="fill-rule:nonzero;"/><path d="M1759.29,806.653c3.739,-0.909 10.876,-2.358 12.747,-1.817c1.868,0.544 1.868,3.228 -0,4.222c-1.871,0.998 -7.479,1.763 -11.215,1.763" style="fill-rule:nonzero;"/></g></svg>