<?xml version="1.0" encoding="UTF-8" standalone="no"?><!DOCTYPE svg PUBLIC "-//W3C//DTD SVG 1.1//EN" "http://www.w3.org/Graphics/SVG/1.1/DTD/svg11.dtd"><svg width="100%" height="100%" viewBox="0 0 2731 2048" version="1.1" xmlns="http://www.w3.org/2000/svg" xmlns:xlink="http://www.w3.org/1999/xlink" xml:space="preserve" xmlns:serif="http://www.serif.com/" style="fill-rule:evenodd;clip-rule:evenodd;stroke-linecap:round;stroke-linejoin:round;"><g id="Layer-1" serif:id="Layer 1"><path d="M1289.37,1873.56c-53.274,-22.11 -151.906,-62.862 -200.258,-113.046c-48.352,-50.181 -83.984,-124.301 -89.851,-188.037c-5.869,-63.744 25.352,-133.536 54.64,-194.405c29.285,-60.87 87.808,-111.083 121.083,-170.803c37.024,-66.448 85.773,-156.525 101.058,-227.893c14.11,-65.888 2.872,-139.008 -9.349,-200.334c-11.491,-57.648 -57.925,-109.464 -63.992,-167.624c-6.2,-59.442 3.989,-128.24 26.789,-189.032c25.675,-68.472 72.99,-165.44 127.267,-221.778c49.859,-51.755 179.429,-163.07 198.397,-116.259c18.968,46.816 -90.277,301.885 -84.589,397.139c3.933,65.906 77.187,117.09 118.701,174.357c43.16,59.541 122.118,113.064 140.27,182.877c19.274,74.126 -8.366,196.12 -24.627,261.899c-20.451,82.715 -72.915,143.883 -98.435,215.709c-25.037,70.464 -54.858,142.075 -54.685,215.259c0.2,85.645 79.747,238.365 55.909,298.629c-21.296,53.84 -145.877,55.728 -198.936,62.952c-40.056,5.454 -83.408,-4.677 -119.392,-19.61" style="fill:#f7c9c9;fill-rule:nonzero;"/><path d="M1189.52,815.355c-28.33,88.211 -74.221,176.086 -150.112,245.003c-59.586,54.112 -111.045,81.299 -163.237,140.955c-29.272,33.458 -51.819,70.413 -77.235,105.85c-16.386,22.848 -39.773,54.47 -45.52,81.176c-14.994,69.667 16.272,160.19 43.168,223.072c27.219,63.635 59.35,111.611 121.731,157.683c66.469,49.093 119.109,64.917 205.821,80.595c53.11,9.602 72.608,-33.278 68.291,-67.344c-4.291,-33.862 -8.293,-67.894 -17.205,-101.166c-19.619,-73.229 -62.475,-143.157 -65.395,-219.256c-2.76,-71.834 30.099,-146.861 69.827,-209.354c29.248,-46.006 87.888,-84.23 99.045,-137.987c5.091,-24.515 6.923,-49.491 7.048,-74.344c0.381,-76.376 -5.731,-161.603 -32.592,-235.539c-7.48,-20.589 -23.621,-38.49 -36.717,-57.178c-7.11,-10.144 -14.275,-20.459 -23.822,-29.214c-2.629,-2.413 -18.224,-3.648 -17.069,4.11c5.843,39.221 26.469,54.034 13.973,92.938" style="fill:#f7c9c9;fill-rule:nonzero;"/><path d="M1612.72,711.302c4.765,78.099 74.306,251.685 30.162,372.851c-57.477,157.76 -186.058,337.589 -141.789,509.61c7.101,27.598 19.848,54.102 32.384,80.395c24.875,52.173 97.088,161.968 188.019,124.213c16.584,-6.885 33.552,-14.266 46.544,-25.098c12.978,-10.819 22.48,-24.451 29.613,-38.395c34.203,-66.861 3.469,-143.499 12.011,-212.963c8.413,-68.426 15.432,-136.282 39.237,-203.826c18.016,-51.115 88.792,-70.571 110.347,-119.979c36.117,-82.792 19.92,-174.307 5.458,-258.437c-13.832,-80.472 -59.506,-160.659 -137.184,-213.63c-40.429,-27.573 -86.84,-49.109 -126.498,-77.41c-21.211,-15.136 -37.84,-49.648 -48.598,-69.592c-5.77,-10.696 -9.992,-21.976 -16.773,-32.275c-2.216,-3.365 -8.717,-11.877 -9.867,-8.179c-7.781,25.059 -9.541,51.168 -11.493,76.963c-2.411,31.859 -3.517,63.869 -1.573,95.752" style="fill:#f7c9c9;fill-rule:nonzero;"/><path d="M1346.25,1141.14c-22.589,-9.376 -64.405,-26.653 -84.907,-47.93c-20.501,-21.275 -35.608,-52.699 -38.096,-79.726c-2.488,-27.024 10.75,-56.618 23.168,-82.421c12.416,-25.811 37.23,-47.099 51.336,-72.421c15.699,-28.171 36.368,-66.363 42.848,-96.622c5.982,-27.936 1.219,-58.936 -3.965,-84.938c-4.872,-24.44 -24.557,-46.411 -27.131,-71.07c-2.629,-25.205 1.691,-54.37 11.358,-80.149c10.888,-29.027 30.946,-70.141 53.96,-94.027c21.138,-21.944 76.074,-69.141 84.117,-49.29c8.04,19.848 -38.275,127.992 -35.864,168.376c1.667,27.944 32.725,49.648 50.325,73.928c18.302,25.24 51.779,47.938 59.47,77.536c8.176,31.426 -3.544,83.149 -10.44,111.04c-8.672,35.072 -30.912,61.002 -41.734,91.458c-10.613,29.872 -23.261,60.238 -23.184,91.262c0.086,36.317 33.808,101.064 23.702,126.616c-9.027,22.829 -61.848,23.629 -84.342,26.69c-16.984,2.312 -35.365,-1.981 -50.621,-8.312" style="fill:#f7c9c9;fill-rule:nonzero;"/><path d="M1303.91,692.478c-12.013,37.4 -31.469,74.658 -63.645,103.877c-25.264,22.944 -47.083,34.469 -69.211,59.763c-12.411,14.184 -21.971,29.853 -32.747,44.877c-6.946,9.688 -16.861,23.096 -19.298,34.419c-6.358,29.538 6.898,67.917 18.304,94.578c11.538,26.979 25.16,47.32 51.61,66.856c28.182,20.814 50.499,27.523 87.264,34.174c22.518,4.066 30.787,-14.11 28.955,-28.555c-1.819,-14.357 -3.517,-28.787 -7.296,-42.893c-8.317,-31.048 -26.488,-60.696 -27.725,-92.963c-1.171,-30.456 12.762,-62.267 29.605,-88.763c12.4,-19.504 37.264,-35.712 41.995,-58.504c2.157,-10.392 2.933,-20.984 2.986,-31.52c0.163,-32.381 -2.429,-68.517 -13.818,-99.864c-3.171,-8.73 -10.014,-16.32 -15.568,-24.242c-3.014,-4.302 -6.051,-8.675 -10.099,-12.387c-1.115,-1.024 -7.725,-1.547 -7.237,1.741c2.477,16.63 11.224,22.912 5.925,39.406" style="fill:#f7c9c9;fill-rule:nonzero;"/><path d="M1483.35,648.361c2.018,33.114 31.501,106.712 12.786,158.082c-24.37,66.888 -78.885,143.134 -60.117,216.067c3.013,11.701 8.413,22.939 13.728,34.085c10.547,22.123 41.168,68.672 79.72,52.667c7.032,-2.92 14.227,-6.051 19.731,-10.643c5.506,-4.586 9.536,-10.368 12.557,-16.28c14.504,-28.346 1.469,-60.84 5.093,-90.29c3.566,-29.014 6.544,-57.784 16.638,-86.422c7.637,-21.672 37.645,-29.92 46.784,-50.866c15.312,-35.104 8.445,-73.904 2.314,-109.574c-5.864,-34.12 -25.229,-68.117 -58.165,-90.576c-17.139,-11.69 -36.816,-20.821 -53.632,-32.821c-8.992,-6.416 -16.045,-21.051 -20.605,-29.507c-2.446,-4.533 -4.235,-9.317 -7.11,-13.682c-0.941,-1.427 -3.696,-5.035 -4.186,-3.467c-3.296,10.624 -4.043,21.693 -4.87,32.629c-1.026,13.51 -1.496,27.08 -0.666,40.598" style="fill:#f7c9c9;fill-rule:nonzero;"/><path d="M1084.63,1149.71c-4.6,-12.528 -7.512,-18.872 -4.965,-31.542c7.685,-38.21 62.445,-61.477 94.653,-72.84c16.488,-5.818 33.08,-11.568 50.128,-15.45c25.635,-5.835 51.568,-10.595 77.683,-13.64c26.613,-3.107 53.448,-4.774 80.243,-4.787c26.784,-0.011 53.632,1.419 80.208,4.712c26.125,3.237 51.984,8.659 77.57,14.845c24.459,5.915 48.654,13.072 72.392,21.419c11.995,4.219 23.659,9.608 34.542,16.179c10.725,6.477 20.65,14.32 29.922,22.746c4.544,4.134 8.278,9.232 11.203,14.635c6.741,12.451 15.149,32.459 6.469,46.776c-11.368,18.728 -40.029,20.893 -39.68,46.837c0.08,6.102 1.552,12.374 4.403,17.771c28.133,53.299 78.752,89.587 107.339,142.632c15.992,29.677 12.186,70.952 7.034,101.939c-13.069,78.578 -51.645,145.549 -102.57,205.608c-45.672,53.869 -121.712,68.968 -188.374,75.864c-85.322,8.829 -171.448,6.802 -255.84,-9.163c-28.221,-5.341 -62.386,-12.776 -85.944,-31.405c-38.794,-30.686 -66.754,-74.147 -94.133,-114.315c-42.928,-62.984 -63.427,-152.048 -31.021,-224.232c21.48,-47.843 59.664,-85.456 89.914,-127.416c6.782,-9.403 18.23,-28.888 12.2,-42.04c-9.21,-20.099 -18.421,-29.285 -33.376,-45.133" style="fill:#565656;fill-rule:nonzero;"/><path d="M1127.75,1112.67c-4.349,-11.768 9.776,-24.501 17.984,-28.901c37.861,-20.283 56.043,-24.923 98.096,-32.349c31.515,-5.563 69.901,-8.88 101.888,-9.051c74.203,-0.397 148.832,-0.651 221.384,17.131c26.125,6.4 65.923,15.448 78.608,44.584c4.603,10.568 0.232,22.16 -7.493,29.57c-26.286,25.222 -65.451,30.086 -99.411,34.467c-33.195,4.277 -66.333,6.915 -99.445,8.077c-70.848,2.499 -141.574,-1.714 -212.459,-10.864c-34.989,-4.509 -85.101,-14.613 -99.152,-52.664" style="fill:#363636;fill-rule:nonzero;"/><path d="M1129.03,1115.37c-4.755,-11.557 4.544,-22.907 20.755,-25.395c52.658,-8.082 54.168,8.574 106.536,-0.453c71.658,-12.352 72.458,-6.152 145.661,0.92c31.067,3.003 62.339,-6.875 93.693,-6.117c30.912,0.744 60.704,8.613 91.502,10.586c16.685,1.07 39.864,-10.557 50.232,-1.509c13.474,11.763 15.17,34.515 -0.51,44.907c-88.592,58.72 -324.2,33.018 -400.781,29.941c-32.269,-1.299 -66.584,-12.496 -86.781,-26.691c-12.043,-8.458 -17.064,-18.306 -20.307,-26.189" style="fill:#f2a490;fill-rule:nonzero;"/><path d="M1145.39,1118.61c-4.456,-8.896 4.256,-17.635 19.442,-19.55c49.334,-6.221 50.744,6.603 99.806,-0.346c67.128,-9.512 67.88,-4.736 136.458,0.709c29.102,2.309 58.4,-5.296 87.771,-4.712c28.957,0.573 56.869,6.629 85.72,8.149c15.632,0.824 37.347,-8.128 47.059,-1.162c12.624,9.056 14.213,26.57 -0.478,34.573c-82.992,45.203 -303.714,25.419 -375.458,23.048c-30.23,-0.997 -62.376,-9.619 -81.296,-20.544c-11.283,-6.515 -15.987,-14.096 -19.024,-20.165" style="fill:#f39148;fill-rule:nonzero;"/><path d="M1190.48,1122.42c-3.8,-5.779 3.629,-11.456 16.576,-12.699c42.059,-4.037 43.261,4.288 85.088,-0.226c57.232,-6.176 57.872,-3.075 116.336,0.461c24.813,1.504 49.789,-3.437 74.829,-3.061c24.686,0.373 48.483,4.309 73.08,5.293c13.328,0.536 31.84,-5.275 40.12,-0.755c10.763,5.883 12.118,17.262 -0.41,22.456c-70.752,29.363 -258.928,16.51 -320.091,14.971c-25.773,-0.651 -53.179,-6.251 -69.309,-13.344c-9.619,-4.232 -13.63,-9.152 -16.219,-13.096" style="fill:#f29148;fill-rule:nonzero;"/><path d="M1252.66,1126.28c-2.792,-2.616 2.667,-5.186 12.187,-5.749c30.923,-1.829 31.808,1.941 62.56,-0.104c42.08,-2.795 42.552,-1.392 85.536,0.211c18.243,0.677 36.605,-1.558 55.019,-1.387c18.149,0.168 35.648,1.949 53.73,2.397c9.8,0.24 23.411,-2.392 29.499,-0.341c7.915,2.661 8.909,7.811 -0.299,10.165c-52.024,13.294 -190.378,7.478 -235.346,6.779c-18.952,-0.293 -39.102,-2.829 -50.96,-6.043c-7.072,-1.914 -10.022,-4.144 -11.926,-5.928" style="fill:#f29148;fill-rule:nonzero;"/><path d="M1333.09,1151.12c-15.616,-7.637 -44.525,-21.723 -58.698,-39.067c-14.171,-17.341 -24.616,-42.96 -26.336,-64.989c-1.72,-22.029 7.432,-46.149 16.016,-67.184c8.584,-21.037 25.736,-38.389 35.49,-59.032c10.854,-22.963 25.142,-54.096 29.622,-78.763c4.136,-22.77 0.842,-48.037 -2.742,-69.234c-3.368,-19.923 -16.976,-37.83 -18.754,-57.931c-1.819,-20.541 1.168,-44.317 7.85,-65.331c7.526,-23.664 21.395,-57.176 37.304,-76.645c14.614,-17.885 52.592,-56.357 58.15,-40.176c5.56,16.179 -26.459,104.328 -24.792,137.248c1.154,22.779 22.624,40.467 34.789,60.261c12.656,20.574 35.797,39.072 41.115,63.2c5.653,25.619 -2.451,67.779 -7.219,90.515c-5.989,28.584 -21.368,49.728 -28.848,74.549c-7.339,24.352 -16.08,49.102 -16.029,74.395c0.058,29.597 23.373,82.379 16.386,103.208c-6.24,18.603 -42.757,19.256 -58.309,21.752c-11.741,1.885 -24.448,-1.613 -34.995,-6.776" style="fill:#f39148;fill-rule:nonzero;"/><path d="M1303.82,785.401c-8.306,30.485 -21.757,60.856 -44,84.672c-17.466,18.701 -32.549,28.099 -47.848,48.715c-8.578,11.562 -15.189,24.336 -22.637,36.581c-4.803,7.899 -11.659,18.827 -13.344,28.056c-4.395,24.077 4.771,55.36 12.653,77.093c7.979,21.992 17.398,38.574 35.68,54.496c19.486,16.968 34.915,22.435 60.331,27.854c15.565,3.32 21.283,-11.499 20.016,-23.275c-1.259,-11.701 -2.432,-23.464 -5.043,-34.963c-5.752,-25.306 -18.312,-49.474 -19.168,-75.773c-0.81,-24.827 8.822,-50.757 20.467,-72.355c8.573,-15.898 25.76,-29.109 29.032,-47.688c1.491,-8.472 2.027,-17.104 2.064,-25.693c0.112,-26.397 -1.677,-55.851 -9.552,-81.405c-2.192,-7.115 -6.925,-13.302 -10.763,-19.76c-2.082,-3.507 -4.184,-7.07 -6.981,-10.096c-0.771,-0.835 -5.341,-1.262 -5.003,1.421c1.712,13.555 7.758,18.675 4.096,32.12" style="fill:#f39148;fill-rule:nonzero;"/><path d="M1427.86,749.439c1.397,26.992 21.781,86.984 8.843,128.858c-16.848,54.523 -54.536,116.672 -41.56,176.123c2.08,9.539 5.816,18.699 9.49,27.784c7.294,18.029 28.459,55.976 55.112,42.931c4.859,-2.382 9.835,-4.931 13.643,-8.675c3.803,-3.739 147.507,7.187 149.595,2.368c10.029,-23.107 -105.846,-70.131 -126.827,-96.744c-13.208,-16.752 -6.045,-39.595 0.933,-62.939c5.28,-17.664 26.027,-24.389 32.342,-41.464c10.589,-28.613 5.84,-60.24 1.602,-89.317c-4.056,-27.811 -17.442,-55.523 -40.21,-73.832c-11.851,-9.528 -25.454,-16.971 -37.08,-26.752c-6.216,-5.229 -11.091,-17.157 -14.243,-24.051c-1.691,-3.696 -2.928,-7.594 -4.917,-11.154c-0.651,-1.163 -2.555,-4.104 -2.891,-2.827c-2.283,8.661 -2.795,17.685 -3.371,26.597c-0.706,11.014 -1.029,22.075 -0.461,33.094" style="fill:#f39148;fill-rule:nonzero;"/><path d="M1152.34,771.436c-13.568,-30.163 -5.214,-63.365 18.642,-74.093c23.854,-10.731 54.238,5.048 67.803,35.213l-86.445,38.88Z" style="fill:#ef8064;fill-rule:nonzero;"/><path d="M1103.17,662.129c13.565,30.162 43.949,45.941 67.805,35.213c23.853,-10.731 32.208,-43.931 18.64,-74.096l-86.445,38.883Z" style="fill:#ef8064;fill-rule:nonzero;"/><path d="M1123.07,674.073c9.995,18.149 30.104,27.893 43.848,25.093c16.291,-3.317 19.573,-28.885 10.32,-49.458l-54.168,24.365Z" style="fill:#f7efb0;fill-rule:nonzero;"/><path d="M1159.88,747.151c-9.051,-19.888 -4.933,-40.941 8.683,-48.72c13.408,-7.664 32.957,5.256 42.21,25.829l-50.893,22.891Z" style="fill:#f7efb0;fill-rule:nonzero;"/><path d="M1148,758.212c2.552,1.827 11.701,-1.576 13.026,-5.763c1.571,-4.957 -4.482,-15.765 -3.602,-23.981c0.944,-8.803 9.757,-26.168 8.581,-27.824c-1.173,-1.653 -12.133,10.92 -15.627,17.901c-3.496,6.979 -4.261,16.344 -4.658,22.955c-0.342,5.704 -0.272,14.888 2.28,16.712" style="fill:#fdc50d;fill-rule:nonzero;"/><path d="M1110.62,670.18c0.216,2.856 6.062,9.218 10.131,12.85c4.56,4.07 11.44,8.635 17.224,11.563c5.493,2.784 13.061,5.125 17.472,6.016c2.947,0.597 10.341,-1 9.643,-2c-0.699,-1 -9.646,-1.789 -13.84,-3.997c-4.366,-2.296 -9.024,-5.142 -12.998,-8.443c-4.538,-3.773 -11.829,-9.853 -14.018,-13.688c-4.424,-7.744 -14.102,-8.723 -13.614,-2.301" style="fill:#fdc50d;fill-rule:nonzero;"/><path d="M1192.71,617.014c-0.501,-1.117 -1.816,-1.616 -2.933,-1.112l-92.8,41.739c-1.117,0.501 -1.616,1.816 -1.115,2.933l1.822,4.046c0.501,1.114 1.816,1.613 2.933,1.112l92.8,-41.739c1.117,-0.501 1.616,-1.816 1.112,-2.933l-1.819,-4.046Z" style="fill:#fdc50d;fill-rule:nonzero;"/><path d="M1243.07,728.193c-0.501,-1.118 -1.816,-1.616 -2.931,-1.112l-92.802,41.738c-1.118,0.502 -1.616,1.816 -1.112,2.934l1.818,4.045c0.502,1.117 1.816,1.616 2.934,1.112l92.8,-41.739c1.117,-0.501 1.616,-1.816 1.114,-2.933l-1.821,-4.045Z" style="fill:#fdc50d;fill-rule:nonzero;"/><path d="M1258.38,995.833c4.598,2.912 9.296,5.888 13.03,9.877c3.64,3.888 8.338,20.424 18.272,17.531c7.701,-2.245 14.706,-8.155 18.773,-15.139c10.181,-17.485 -5.392,-15.104 -12.445,-18.978c-3.603,-1.982 -7.128,-4.488 -9.598,-7.808c-2.898,-3.894 -2.117,-10.491 -6.082,-13.251c-10.08,-7.013 -19.822,13.165 -21.094,16.216c-1.48,3.547 -1.157,7.696 -0.856,11.552" style="fill:#00837c;fill-rule:nonzero;"/><path d="M1199.48,910.081c-15.928,8.722 -19.525,26.413 -9.317,41.245c3.485,5.064 11.517,9.131 14.749,14.467c5.488,9.061 5.246,19.629 11.795,28.629c5.68,7.8 15.8,18.96 26.235,12.301c21.064,-13.44 46.584,-37.533 41.898,-66.221c-1.557,-9.544 -4.466,-23.875 -15.349,-27.651c-10.373,-3.597 -20.403,4.664 -30.736,4.374c-12.973,-0.363 -26.981,-11.923 -39.275,-7.144" style="fill:#25b5ac;fill-rule:nonzero;"/><path d="M1190.16,951.327c10.978,-1.454 19.29,-12.515 30.856,-11.24c2.906,0.32 5.669,1.61 8.317,2.888c2.547,1.229 4.952,2.8 7.163,4.578c3.813,3.07 2.296,9.355 3.208,13.283c1.757,7.581 4.042,14.861 11.354,18.445c8.536,4.182 13.016,-14.36 14.832,-17.621c2.483,-4.448 10.067,-12.856 11.315,-19.445c1.512,-8 -3.531,-21.307 -9.672,-26.934c-3.688,-3.376 -6.285,-2.245 -10.624,-1.392c-5.563,1.094 -14.539,4 -20.432,2.776c-4.645,-0.965 -8.808,-3.61 -13.213,-5.408c-4.886,-1.992 -16.07,-4.506 -20.427,-3.133c-2.515,0.795 -7.024,2.549 -8.837,4.349c-11.374,11.275 -15.339,25.166 -3.84,38.854" style="fill:#007c75;fill-rule:nonzero;"/><path d="M1192.82,943.526c1.914,-2.277 4.381,-4.067 7.445,-4.291c4.549,-0.33 10.395,3.574 10.52,8.387c0.045,1.661 -0.645,3.533 -1.552,4.875c-0.688,1.021 -1.568,1.909 -2.459,2.762c-3.869,3.704 -8.717,0.451 -11.597,-2.616c-1.821,-1.938 -2.869,-4.061 -3.035,-6.725c-0.045,-0.736 0.179,-1.797 0.678,-2.392" style="fill:#ffd59a;fill-rule:nonzero;"/><path d="M1231.54,937.113c3.949,-0.437 8.435,1.328 9.928,5.363c1.755,4.746 -0.272,11.832 -5.792,12.757c-1.163,0.195 -2.341,0.277 -3.509,0.283c-4.846,0.018 -5.598,-6.064 -5.542,-10.088c0.035,-2.544 1.11,-5.158 2.8,-7.048c0.515,-0.576 1.36,-1.182 2.115,-1.267" style="fill:#ffd59a;fill-rule:nonzero;"/><path d="M1213.14,970.198c0.461,-1.582 1.6,-4.464 4.155,-5.67c3.856,-1.824 10.477,-0.365 11.029,4.603c0.091,0.824 0.099,1.672 -0.051,2.491c-0.181,0.994 -0.517,1.965 -0.936,2.888c-1.832,4.05 -6.221,3.357 -9.485,1.805c-1.133,-0.539 -2.469,-1.293 -3.331,-2.307c-0.762,-0.896 -1.738,-2.589 -1.381,-3.81" style="fill:#ffd59a;fill-rule:nonzero;"/><path d="M1231.98,986.574c1.768,-1.128 5.293,-2.952 8.859,-2.037c5.389,1.381 10.864,8.109 7.328,13.28c-0.587,0.856 -1.28,1.669 -2.102,2.325c-1.005,0.797 -2.144,1.451 -3.322,1.989c-5.184,2.371 -9.038,-1.829 -11.051,-5.938c-0.699,-1.427 -1.424,-3.222 -1.459,-4.883c-0.029,-1.467 0.382,-3.864 1.747,-4.736" style="fill:#ffd59a;fill-rule:nonzero;"/><path d="M1265.56,972.996c1.123,0.053 3.134,0.365 3.691,2.04c0.845,2.528 -1.147,7.712 -4.952,9.04c-0.632,0.218 -1.269,0.381 -1.864,0.421c-0.72,0.048 -1.405,-0.021 -2.04,-0.163c-2.789,-0.613 -1.675,-4 -0.067,-6.709c0.558,-0.941 1.307,-2.072 2.184,-2.901c0.776,-0.731 2.179,-1.768 3.048,-1.728" style="fill:#ffd59a;fill-rule:nonzero;"/><path d="M1267.06,959.713c-4.774,-2.88 -8.6,-8.266 -11.184,-14.448c-0.918,-2.197 -2.2,-5.586 -1.723,-8.176c1.272,-6.858 6.941,-11.792 11.056,-14.8c2.059,-1.509 4.795,-3.05 7.352,-1.698c1.179,0.624 2.333,1.405 3.424,2.322c1.083,0.918 2.131,1.958 3.069,3.155c6.166,7.875 1.95,19.813 -1.325,26.811c-2.088,4.458 -6.224,9.517 -10.669,6.834" style="fill:#ffd99e;fill-rule:nonzero;"/><path d="M1214.44,989.635c0.155,-0.613 0.547,-1.666 1.467,-1.618c1.386,0.072 3.8,2.29 4.037,4.693c0.04,0.397 0.048,0.787 -0,1.125c-0.059,0.414 -0.173,0.779 -0.32,1.104c-0.635,1.422 -2.235,0.075 -3.429,-1.4c-0.416,-0.512 -0.907,-1.17 -1.227,-1.837c-0.283,-0.587 -0.651,-1.589 -0.528,-2.067" style="fill:#ffd59a;fill-rule:nonzero;"/><path d="M1733.16,843.487c5.59,-5.083 6,-13.75 0.918,-19.339l-101.059,-111.117c-5.083,-5.59 -13.749,-6 -19.339,-0.918l-163.221,148.446c-5.589,5.082 -6,13.749 -0.917,19.338l101.058,111.118c5.083,5.589 13.75,6 19.339,0.917l163.221,-148.445Z" style="fill:#de5b6d;fill-rule:nonzero;"/><path d="M1683.38,861.222c16.872,-15.341 18.112,-41.493 2.768,-58.365l-37.858,-41.627c-15.342,-16.869 -41.494,-18.109 -58.366,-2.765l-58.685,53.371c-16.869,15.344 -18.109,41.496 -2.768,58.365l37.859,41.627c15.344,16.872 41.496,18.112 58.365,2.768l58.685,-53.374Z" style="fill:#fff;fill-rule:nonzero;"/><path d="M1659.52,716.27l72.409,82.84l-22.455,19.628l-72.409,-82.841l22.455,-19.627Z" style="fill:#337494;stroke:#337494;stroke-width:2.67px;"/><path d="M1213.34,439.952l65.394,127.993l-17.566,8.975l-65.394,-127.994l17.566,-8.974Z" style="fill:#dbe139;"/><path d="M1269.76,550.382l8.972,17.563l-17.566,8.974l-8.973,-17.563l17.567,-8.974Z" style="fill:#969f00;"/><path d="M1272.83,556.401l5.898,11.544l-17.566,8.974l-5.898,-11.545l17.566,-8.973Z" style="fill:#dbe139;"/><path d="M1213.34,439.951l21.18,41.458l-17.566,8.974l-21.18,-41.457l17.566,-8.975Z" style="fill:#969f00;"/><path d="M1208.4,442.47l13.392,26.214l-9.442,4.824l-13.392,-26.214l9.442,-4.824Z" style="fill:#dbe139;"/><path d="M1191.7,809.467l111.448,90.766l-12.455,15.294l-111.449,-90.766l12.456,-15.294Z" style="fill:#00baff;"/><path d="M1287.85,887.777l15.293,12.456l-12.456,15.293l-15.293,-12.456l12.456,-15.293Z" style="fill:#05877f;"/><path d="M1293.09,892.045l10.051,8.188l-12.458,15.294l-10.051,-8.187l12.458,-15.295Z" style="fill:#25b5ac;"/><path d="M1191.69,809.467l36.099,29.4l-12.456,15.294l-36.099,-29.401l12.456,-15.293Z" style="fill:#00877f;"/><path d="M1188.2,813.76l22.824,18.588l-6.695,8.221l-22.825,-18.587l6.696,-8.222Z" style="fill:#25b5ac;"/><path d="M1353.71,490.312l71.734,0l-17.934,36.976l-35.866,0l-17.934,-36.976Z" style="fill:#1d2b34;fill-rule:nonzero;"/><path d="M1444.39,467.487c-0,-5.787 -4.699,-10.486 -10.485,-10.486l-88.723,0c-5.787,0 -10.485,4.699 -10.485,10.486l-0,20.97c-0,5.787 4.698,10.486 10.485,10.486l88.723,-0c5.786,-0 10.485,-4.699 10.485,-10.486l-0,-20.97Z" style="fill:#1d2b34;fill-rule:nonzero;"/><rect x="1341.03" y="417.028" width="98.029" height="46.008" style="fill:#ecea0d;"/><path d="M1388.86,224.884c60.954,0 110.44,49.048 110.44,109.461c-0,60.414 -49.486,109.462 -110.44,109.462c-60.952,-0 -110.438,-49.048 -110.438,-109.462c0,-60.413 49.486,-109.461 110.438,-109.461" style="fill:#ecea0d;fill-rule:nonzero;"/><path d="M1393.09,498.942c-9.976,-31.034 -36.712,-106.472 -52.059,-135.552c-2.144,-4.061 -10.787,-2.413 -12.352,0.912c-2.339,4.968 1.52,13.126 6.021,15.542c19.155,10.269 47.902,-7.531 47.902,-28.16c-0,-2.96 -7.515,-27.95 -16.547,-17.392c-13.029,15.229 7.051,34.133 22.803,35.994c11.533,1.363 23.898,-7.074 30.578,-15.354c1.72,-2.131 3.382,-8.51 1.886,-11.134c-1.6,-2.818 -10.152,-10.512 -14.35,-5.304c-12.853,15.958 1.022,47.638 23.462,44.688c5.938,-0.781 23.618,-7.861 21.544,-16.4c-1.536,-6.317 -13.059,-5.92 -16.651,-3.141c-4.683,3.627 -8.901,8.44 -10.824,13.976c-12.541,36.069 -23.043,105.387 -31.413,121.325Z" style="fill:none;fill-rule:nonzero;stroke:#000;stroke-width:2.67px;"/><path d="M1405.53,949.897c-4.853,-1.771 -6.202,-2.443 -11.429,-2.509c-11.592,-0.144 -19.989,14.578 -22.616,20.746c-2.307,5.416 5.456,12.438 6.848,16.275c0.789,2.168 2.272,4.579 1.509,6.755c-0.872,2.488 -5.762,5.405 -6.741,8.16c-0.936,2.645 0.059,5.69 0.883,8.376c0.797,2.6 2.354,4.928 3.885,7.176c8.259,12.114 25.408,3.922 33.944,-3.206l5.923,-15.904l7.242,-11.845l21.091,-13.88l26.299,-11.885l25.962,-10.923c14.851,-5.592 28.736,-13.469 44.878,-14.488c8.221,-0.52 14.976,4.997 21.586,8.843c3.584,2.085 6.44,4.229 10.88,3.789c3.008,-0.296 8.392,-3.224 10.779,-4.989c1.456,-1.075 3.005,-2.16 3.992,-3.678c5.344,-8.514 8.379,-19.141 5.824,-29.125c-1.765,-6.907 -9.011,-12.611 -16.317,-10.536c-3.174,0.901 -6.187,2.352 -9.091,3.909c-8.923,-4.261 -10.837,-6.176 -17.568,-14.016c-2.608,-2.816 -7.296,-7.661 -11.005,-9.154c-9.198,-3.694 -20.499,1.616 -23.787,10.893c-1.757,4.963 -0.12,12.099 -5.029,15.816c-9.992,7.573 -15.646,9.867 -26.827,15.373l-36.525,16.563l-22.315,7.381l-22.275,6.083Z" style="fill:#ede7db;fill-rule:nonzero;"/><path d="M1396.13,948.841c2.346,0.04 4.093,1.669 6.117,2.565c2.331,1.038 2.389,0.787 5.133,0.48c0.934,-0.104 3.96,-1.064 5.03,0.12c2.381,2.624 -4.408,5.059 -5.214,5.366c-5.085,1.949 -11.149,4.576 -16.826,4.504c-1.611,-0.019 -3.696,-0.899 -4.846,-1.99c-1.122,-1.061 -2.154,-3.2 -0.637,-4.501c2.683,-2.301 3.045,-1.613 6,-3.493c1.605,-1.024 3.085,-3.088 5.243,-3.051" style="fill:#d3c5ac;fill-rule:nonzero;"/><path d="M1384.42,997.752c1.226,-3.53 8.837,-7.186 13.17,-10.882c3.043,-2.595 4.936,-5.448 8.6,-6.819c1.443,-0.541 2.982,-0.787 4.456,-1.221c1.48,-0.432 5.152,-2.387 6.846,-0.734c2.144,2.091 2.056,5.936 1.594,8.379c-0.805,4.299 0.216,3.856 -1.042,8.077c-1.96,6.576 -2.126,10.979 -6,16.571c-1.72,2.477 -9.654,7.989 -13.699,7.88c-3.44,-0.093 -2.691,-5.32 -4.032,-7.064c-1.144,-1.491 -2.757,-2.555 -4.077,-3.888c-3.552,-3.589 -7.04,-6.768 -5.816,-10.299" style="fill:#d3c5ac;fill-rule:nonzero;"/><path d="M1580.87,905.159c0,-0 -4.763,4.394 -5.171,7.365c-0.504,3.651 0.046,8.405 2.15,14.533c0.773,2.251 2.2,5.062 4.464,6.251c1.949,1.027 3.509,1.309 5.65,1.696c0,0 3.688,-0.533 4.491,-1.973c1.165,-2.104 3.021,-6.784 4.037,-10.211c1.432,-4.811 0.72,-11.752 -1.194,-17.469c-0.656,-1.384 -3.704,-4.595 -5.83,-4.704c-2.65,-0.136 -6.722,3.218 -8.597,4.512" style="fill:#d3c5ac;fill-rule:nonzero;"/><path d="M1551.1,887.46c-1.859,-0.286 -4.797,0.229 -6.376,1.773c-3.131,3.064 1.328,6.549 -1.472,9.624c-2.264,2.483 -5.517,3.845 -8.395,5.579c-3.514,2.117 -7.464,3.544 -10.778,5.968c-2.928,2.141 -10.8,5.562 -7.798,7.602c3.406,2.315 7.318,-3.8 11.134,-5.333c12.032,-4.824 25.885,-5.165 36.981,-12.328c0.803,-0.517 0.451,-2.04 -0.024,-2.869c-1.845,-3.198 -5.637,-4.632 -8.477,-6.526c-1.646,-1.096 -2.934,-3.202 -4.795,-3.49" style="fill:#d3c5ac;fill-rule:nonzero;"/><path d="M1120.43,1757.4c-25.402,12.826 -94.768,50.842 -115.858,68.562c-9.534,8.008 -20.782,30.608 -10.691,37.75c14.731,10.426 67.088,37.04 99.08,24.81c36.531,-13.968 109.44,-85.362 120.112,-108.616c9.411,-20.501 -40.64,-27.152 -56.08,-30.904c-12.157,-2.952 -25.251,2.686 -36.563,8.398" style="fill:#796155;fill-rule:nonzero;"/><path d="M1120.43,1757.4c-25.402,12.826 -94.768,50.842 -115.858,68.562c-9.534,8.008 -20.782,30.608 -10.691,37.75c14.731,10.426 67.088,37.04 99.08,24.81c36.531,-13.968 109.44,-85.362 120.112,-108.616c9.411,-20.501 -40.64,-27.152 -56.08,-30.904c-12.157,-2.952 -25.251,2.686 -36.563,8.398Z" style="fill:none;fill-rule:nonzero;stroke:#796155;stroke-width:2.67px;"/><path d="M1130.82,1899.92c-5.832,-16.683 11.029,-50.283 25.365,-69.76c17.117,-23.256 51.443,-54.558 77.336,-69.758c23.637,-13.88 62.149,-33.082 78.013,-21.453c15.864,11.627 25.072,61.397 17.174,91.211c-8.678,32.77 -46.328,88.728 -69.251,105.41c-19.019,13.846 -64.445,-5.992 -68.288,-5.306c-3.845,0.685 -54.52,-13.659 -60.349,-30.344" style="fill:#796155;fill-rule:nonzero;"/><path d="M1130.82,1899.92c-5.832,-16.683 11.029,-50.283 25.365,-69.76c17.117,-23.256 51.443,-54.558 77.336,-69.758c23.637,-13.88 62.149,-33.082 78.013,-21.453c15.864,11.627 25.072,61.397 17.174,91.211c-8.678,32.77 -46.328,88.728 -69.251,105.41c-19.019,13.846 -64.445,-5.992 -68.288,-5.306c-3.845,0.685 -54.52,-13.659 -60.349,-30.344Z" style="fill:none;fill-rule:nonzero;stroke:#796155;stroke-width:2.67px;"/><path d="M1315.58,1760.4c-4.843,34.856 -7.856,165.555 13.133,198.734c20.992,33.178 83.779,4.264 112.808,0.338c21.541,-2.914 58.659,-0.266 61.36,-23.904c3.576,-31.216 -15.744,-132.482 -39.931,-163.413c-23.25,-29.736 -80.621,-20.211 -105.184,-22.171c-14.376,-1.144 -40.016,-5.224 -42.186,10.416" style="fill:#796155;fill-rule:nonzero;"/><path d="M1315.58,1760.4c-4.843,34.856 -7.856,165.555 13.133,198.734c20.992,33.178 83.779,4.264 112.808,0.338c21.541,-2.914 58.659,-0.266 61.36,-23.904c3.576,-31.216 -15.744,-132.482 -39.931,-163.413c-23.25,-29.736 -80.621,-20.211 -105.184,-22.171c-14.376,-1.144 -40.016,-5.224 -42.186,10.416Z" style="fill:none;fill-rule:nonzero;stroke:#796155;stroke-width:2.67px;"/><path d="M1443.86,1793.19c0,0 146.704,59.478 193.259,61.539c32.314,1.432 67.261,-16.451 86.061,-49.176c0,-0 2.136,-37.403 -10.091,-45.152c-14.61,-9.261 -77.57,-10.416 -77.57,-10.416c-17.568,-8.563 -35.04,-17.432 -53.048,-24.811c-17.955,-7.36 -35.998,-14.901 -54.731,-19.354c-5.904,-1.406 -12.416,8.528 -15.421,11.765c-34.742,37.379 -34.71,36.648 -68.459,75.605Z" style="fill:#796155;fill-rule:nonzero;stroke:#796155;stroke-width:2.67px;"/><path d="M1484.19,1899.92c19.032,19.952 78.571,17.45 94.286,-0c15.714,-17.451 17.042,-75.694 -0,-104.699c-17.04,-29.008 -83.208,-66.837 -102.24,-69.344c-16.854,-2.216 -12.808,35.717 -11.958,54.32c1.326,29.003 0.878,99.768 19.912,119.723" style="fill:#796155;fill-rule:nonzero;"/><path d="M1484.19,1899.92c19.032,19.952 78.571,17.45 94.286,-0c15.714,-17.451 17.042,-75.694 -0,-104.699c-17.04,-29.008 -83.208,-66.837 -102.24,-69.344c-16.854,-2.216 -12.808,35.717 -11.958,54.32c1.326,29.003 0.878,99.768 19.912,119.723Z" style="fill:none;fill-rule:nonzero;stroke:#796155;stroke-width:2.67px;"/><path d="M1521.38,1794.87c31.106,40.355 72.405,99.168 111.533,105.051c39.131,5.882 124.168,-37.387 123.245,-69.763c-0.922,-32.376 -92.904,-112.872 -128.778,-124.499c-31.915,-10.341 -68.811,39.872 -86.478,54.742c-9.781,8.232 -19.522,34.469 -19.522,34.469Z" style="fill:#796155;fill-rule:nonzero;stroke:#796155;stroke-width:2.67px;"/><path d="M1583.59,1763.22c35.618,10.334 213.213,-21.365 256.325,-32.293c9.883,-2.507 5.256,-22.624 2.357,-33.288c-3.749,-13.805 -7.808,-47.275 -24.861,-49.541c-36.011,-4.787 -152.245,1.64 -191.216,20.829c-29.168,14.357 -73.512,85.331 -42.605,94.293" style="fill:#796155;fill-rule:nonzero;"/><path d="M1583.59,1763.22c35.618,10.334 213.213,-21.365 256.325,-32.293c9.883,-2.507 5.256,-22.624 2.357,-33.288c-3.749,-13.805 -7.808,-47.275 -24.861,-49.541c-36.011,-4.787 -152.245,1.64 -191.216,20.829c-29.168,14.357 -73.512,85.331 -42.605,94.293Z" style="fill:none;fill-rule:nonzero;stroke:#796155;stroke-width:2.67px;"/><path d="M972.231,1780.19c26.931,12.896 159.08,48.549 192.04,32.704c32.96,-15.848 24.803,-109.904 5.726,-127.779c-19.08,-17.869 -92.31,12.139 -120.192,20.539c-17.491,5.269 -34.184,17.442 -47.112,29.864c-12.752,12.25 -45.992,37.234 -30.462,44.672" style="fill:#796155;fill-rule:nonzero;"/><path d="M972.231,1780.19c26.931,12.896 159.08,48.549 192.04,32.704c32.96,-15.848 24.803,-109.904 5.726,-127.779c-19.08,-17.869 -92.31,12.139 -120.192,20.539c-17.491,5.269 -34.184,17.442 -47.112,29.864c-12.752,12.25 -45.992,37.234 -30.462,44.672Z" style="fill:none;fill-rule:nonzero;stroke:#796155;stroke-width:2.67px;"/><path d="M1152.71,1735.32c-19.334,10.048 -72.411,40.264 -89.152,55.184c-7.568,6.747 -17.779,26.947 -11.296,34.349c9.464,10.811 44.122,39.504 68.082,30.507c27.363,-10.277 86.224,-71.309 96.094,-92.163c8.698,-18.384 -26.267,-28.317 -36.888,-32.962c-8.363,-3.656 -18.232,0.613 -26.84,5.085" style="fill:#654f43;fill-rule:nonzero;"/><path d="M1163.93,1856.5c-5.221,-13.715 22.72,-57.334 22.72,-57.334l69.267,-57.336l69.875,-17.632l15.381,74.968c0,0 -41.493,72.926 -62.027,86.638c-17.034,11.378 -57.72,-4.928 -61.162,-4.363c-3.446,0.56 -48.832,-11.227 -54.054,-24.941" style="fill:#654f43;fill-rule:nonzero;"/><path d="M1329.41,1741.83c-3.816,28.651 -6.192,136.067 10.352,163.339c16.541,27.269 66.026,3.504 88.906,0.277c16.974,-2.392 46.23,-0.218 48.358,-19.642c2.816,-25.659 -12.411,-108.891 -31.472,-134.312c-18.32,-24.44 -63.539,-16.611 -82.896,-18.222c-11.331,-0.941 -31.536,-4.293 -33.248,8.56" style="fill:#654f43;fill-rule:nonzero;"/><path d="M1444.31,1768.77c0,0 131.397,48.885 173.093,50.584c28.95,1.171 60.248,-13.525 77.088,-40.419c0,0 1.912,-30.744 -9.037,-37.112c-13.088,-7.613 -69.48,-8.56 -69.48,-8.56c-15.733,-7.04 -31.384,-14.328 -47.512,-20.394c-16.085,-6.046 -32.24,-12.248 -49.021,-15.91c-5.291,-1.149 -11.12,7.011 -13.816,9.672c-31.118,30.726 -31.086,30.12 -61.315,62.139" style="fill:#654f43;fill-rule:nonzero;"/><path d="M1480.43,1856.5c17.05,16.4 70.378,14.344 84.45,-0c14.075,-14.342 15.264,-62.208 0,-86.054c-15.264,-23.837 -74.525,-54.93 -91.576,-56.992c-15.093,-1.818 -11.469,29.355 -10.706,44.646c1.189,23.84 0.784,82 17.832,98.4" style="fill:#654f43;fill-rule:nonzero;"/><path d="M1513.74,1770.16c27.858,33.168 64.848,81.504 99.896,86.339c35.048,4.832 111.213,-30.726 110.386,-57.334c-0.826,-26.613 -83.21,-92.77 -115.341,-102.325c-28.587,-8.504 -61.632,32.768 -77.453,44.989c-8.766,6.766 -17.488,28.331 -17.488,28.331" style="fill:#654f43;fill-rule:nonzero;"/><path d="M1564.88,1750.74c31.907,8.493 190.968,-17.56 229.587,-26.544c8.845,-2.059 4.701,-18.592 2.109,-27.357c-3.362,-11.347 -6.992,-38.856 -22.269,-40.72c-32.256,-3.934 -136.363,1.349 -171.264,17.12c-26.125,11.802 -65.845,70.133 -38.163,77.501" style="fill:#654f43;fill-rule:nonzero;"/><path d="M1021.88,1758.09c24.12,10.602 142.483,39.904 172.003,26.88c29.522,-13.024 22.216,-90.331 5.128,-105.022c-17.088,-14.688 -82.678,9.979 -107.654,16.883c-15.661,4.331 -30.616,14.333 -42.194,24.544c-11.422,10.069 -41.195,30.603 -27.283,36.715" style="fill:#654f43;fill-rule:nonzero;"/><path d="M1433,672.897c2.766,-1.099 5.678,-2.648 7.304,-5.141c1.568,-2.4 -3.688,-7.011 -1.245,-8.51c24.331,-14.928 48.44,-25.074 77.037,-28.44c22.23,-2.618 36.952,4.79 58.603,6.987c28.837,2.925 58.707,-6.859 80.256,-26.237c9.477,-8.523 20.069,-22.115 24.115,-34.44c24.282,-73.923 -51.595,-132.75 -120.619,-114.27c-23.216,6.219 -46.781,27.928 -54.427,50.814c-7.634,22.85 -7.624,48.149 -20.632,69.125c-5.973,7.323 -53.112,34 -63.01,41.92c-6.779,2.496 -6.63,-4.781 -13.262,-2.131c-7.57,3.024 3.654,19.579 4.902,21.408c6.698,9.846 12.941,20.126 20.978,28.915" style="fill:#69bac9;fill-rule:nonzero;"/><path d="M1639.65,599.401c-14.445,-14.883 -37.043,-16.821 -57.491,-10.715c-0.213,0.064 -30.696,14.894 -30.925,14.931c-11.909,1.917 -24.16,-0.195 -36.173,0.856c-26.203,2.293 -43.323,17.029 -64.56,31.525c-23.995,16.376 -59.518,26.342 -62.507,56.2c-0.973,9.755 11.429,11.272 10.299,36.118c-1.904,41.917 -5.587,41.394 -0.128,41.73c0.328,0.022 29.525,-51.4 19.33,-65.232c-9.616,-13.048 7.104,-34.306 16.56,-51.824c8.678,-16.08 42.987,-25.168 57.04,-29.717c39.059,-12.651 76.39,4.243 113.568,-1.195c2.899,-0.424 40.48,-9.941 34.987,-22.677" style="fill:#347a90;fill-rule:nonzero;"/><path d="M1499.83,560.03c0.67,4.037 5.984,1.434 7.635,0.362c13.317,-8.645 12.387,-9.41 23.781,-20.536c17.592,-17.176 41.102,-39.568 68.342,-35.784c16.605,2.304 38.421,10.651 48.978,19.915c9.635,8.453 12.526,26.347 14.368,35.664c1.219,6.168 -0.789,16.608 5.323,18.101c0.933,0.227 1.885,-0.965 2.189,-1.877c2.467,-7.4 5.934,-20.112 5.048,-28.957c-4.808,-47.987 -50.456,-84.71 -97.944,-80.248c-42.141,3.96 -61.802,36.554 -74.869,72.808c-1.848,5.133 -3.768,15.008 -2.851,20.552" style="fill:#69bac9;fill-rule:nonzero;"/><path d="M1433.49,657.558c-3.163,-1.509 -9.293,-12.464 -10.984,-17.978c-1.392,-4.528 15.429,0.184 20.035,-0.931c3.189,-0.773 29.616,-10.288 42.821,-12.045c7.464,-0.992 7.469,3.546 5.557,5.221c-2.205,1.931 -13.45,4.219 -18.792,6.363c-7.554,3.034 -16.4,6.376 -23.253,10.768c-1.827,1.17 -6.133,4.693 -9.509,7.898c-1.739,1.648 -2.531,4.142 -3.816,4.63c-1.152,0.44 -1.318,-3.571 -2.059,-3.926" style="fill:#69bac9;fill-rule:nonzero;"/><path d="M1433.44,671.785c1.264,-0.595 2.507,-1.24 3.688,-1.984c0.576,-0.365 1.107,-0.813 1.56,-1.323c2.291,-2.581 0.571,-4.466 -0.885,-7.013c-0.933,-1.632 -1.795,-3.304 -2.784,-4.899c-2.203,-3.549 -2.2,-3.49 -4.333,-7.085c-0.488,-0.816 -0.918,-1.715 -1.635,-2.339c-0.528,-0.458 -1.971,-0.168 -2.155,0.603c-0.272,1.117 0.731,2.72 1.248,3.544c1.712,2.755 3.846,5.027 4.499,8.323c0.563,2.84 -0.421,6.122 -0.763,8.773c-0.064,0.528 -0.282,1.109 -0.061,1.592c0.339,0.736 1.003,1.288 1.621,1.808" style="fill:#f27070;fill-rule:nonzero;"/><path d="M1401.38,793.737c-6.53,8.155 -13.261,16.557 -13.261,25.099c0,6.288 10.008,24.306 13.261,18.146c7.462,-14.122 0,-28.832 0,-43.245" style="fill:#045b71;fill-rule:nonzero;"/><path d="M1393.42,856.166c-2.68,2.435 -5.44,4.944 -5.483,7.542c-0.032,1.912 3.92,7.456 5.267,5.605c3.083,-4.243 0.144,-8.765 0.216,-13.147" style="fill:#045b71;fill-rule:nonzero;"/><path d="M1376.24,741.265c-2.68,2.438 -5.442,4.947 -5.485,7.542c-0.032,1.912 3.92,7.456 5.267,5.605c3.085,-4.243 0.144,-8.763 0.218,-13.147" style="fill:#045b71;fill-rule:nonzero;"/><path d="M1413.64,777.108c-3.019,2.002 -6.125,4.066 -6.56,6.624c-0.32,1.885 2.747,7.962 4.357,6.336c3.694,-3.728 1.47,-8.64 2.203,-12.96" style="fill:#045b71;fill-rule:nonzero;"/><path d="M1271.98,1800.46c-11.101,9.91 -59.253,-2.64 -73.251,-19.416c-7.184,-8.613 -2.37,-11.44 -12.84,-21.384c-18.928,-17.976 -34.618,-10.042 -37.072,-43.173c-1.389,-18.752 17.267,-40.8 23.291,-53.776c7.24,-15.6 14.987,-31.229 19.064,-47.955c2.587,-10.61 -5.696,-22.453 -2,-32.722c2.579,-7.168 10.549,-3.334 13.875,-0.251c18.688,17.328 13.152,56.789 12.682,79.011c-0.17,8.114 -1.149,22.026 3.779,29.56c12.824,19.6 30.683,16.896 45.832,31.226c22.368,21.16 17.744,68.966 6.64,78.88" style="fill:#58c4c4;fill-rule:nonzero;"/><path d="M1518.88,1754.26c19.165,-2.222 59.256,-3.126 73.253,-22.982c7.181,-10.189 2.368,-13.536 12.837,-25.304c18.934,-21.277 34.622,-11.89 37.078,-51.101c1.386,-22.195 -17.267,-48.285 -23.296,-63.648c-7.24,-18.459 -14.987,-36.957 -19.062,-56.749c-2.589,-12.56 5.694,-26.574 2,-38.734c-2.581,-8.48 -10.546,-3.941 -13.872,-0.293c-18.688,20.512 -13.157,67.208 -12.685,93.509c0.171,9.603 1.147,26.07 -3.779,34.987c-12.826,23.197 -30.682,19.995 -45.832,36.957c-22.368,25.046 -23.285,64.582 -6.642,93.358" style="fill:#58c4c4;fill-rule:nonzero;"/><path d="M1195.85,1772.23c-7.421,2.869 -14.805,6.197 -22.717,7.539c-7.571,1.285 -15.504,1.432 -23.083,0.224c-13.712,-2.182 -22.978,-24.304 -32.674,-30.102c-9.963,-5.952 -24.883,-0.397 -33.856,-8.418c-7.832,-7 -3.574,-21.158 -7.995,-29.246c-11.901,-21.781 -17.608,-17.848 -31.635,-38.781c-19.933,-29.741 -4.205,-60.76 13.784,-86.965c16.992,-24.752 42.787,-53.419 43.52,-85.27c0.248,-10.77 -2.997,-21.357 -4.362,-32.048c-0.475,-3.709 -2.723,-14.594 -1.15,-11.152c7.84,17.158 18.019,51.723 17.587,70.656c-0.76,33.214 -18.189,66.55 -6.507,99.747c1.819,5.171 10.147,8.979 14.496,11.333c17.939,9.723 18.627,8.424 33.187,22.446c31.336,30.184 39.027,69.794 41.405,110.037" style="fill:#58c4c4;fill-rule:nonzero;"/><path d="M1604.41,1766.47c6.832,2.749 13.629,5.963 20.883,7.181c6.946,1.168 14.202,1.192 21.117,-0.133c12.512,-2.4 20.677,-24.661 29.464,-30.608c9.032,-6.107 22.755,-0.787 30.851,-8.947c7.066,-7.12 2.97,-21.208 6.901,-29.365c10.581,-21.963 15.856,-18.12 28.395,-39.272c17.81,-30.048 2.994,-60.816 -13.83,-86.739c-15.888,-24.488 -39.882,-52.744 -41,-84.581c-0.378,-10.763 2.443,-21.397 3.542,-32.115c0.381,-3.712 2.288,-14.629 0.896,-11.165c-6.931,17.275 -15.758,52 -15.096,70.92c1.16,33.2 17.568,66.259 7.349,99.637c-1.592,5.195 -9.157,9.131 -13.101,11.558c-16.272,9.997 -16.92,8.706 -30.04,22.96c-28.24,30.666 -34.718,70.392 -36.331,110.669" style="fill:#58c4c4;fill-rule:nonzero;"/><path d="M1627.73,1719.87c9.075,-25.824 19.333,-45.965 35.731,-68.021c12.192,-16.397 25.765,-30.251 25.192,-52.253c-0.136,-5.254 -0.179,-10.675 -1.83,-15.662c-2.949,-8.898 -13.192,-14.293 -15.565,-23.362c-2.096,-8.011 -0.805,-16.544 -1.229,-24.819c-0.184,-3.592 -2.246,-13.067 -4.078,-9.979c-9.44,15.931 -0.552,32.072 -6.786,48.43c-10.872,28.533 -36.091,45.285 -35.216,78.168c0.648,24.24 19.189,45.36 3.781,67.498" style="fill:#58c4c4;fill-rule:nonzero;"/><path d="M1228.62,1607.41c-0.083,1.464 -1.331,-2.613 -1.909,-3.965c-2.003,-4.662 -3.294,-9.662 -5.832,-14.056c-3.392,-5.867 -7.771,-11.118 -11.854,-16.531c-10.21,-13.549 -22.224,-27.752 -16.066,-46.08c2.029,-6.037 9.072,-9.699 10.706,-15.853c1.44,-5.432 0.555,-11.224 0.846,-16.838c0.133,-2.616 -1.406,-7.621 1.226,-7.768c3.176,-0.17 4.171,5.07 4.894,8.15c1.992,8.461 -1.883,17.338 1.349,25.706c2.141,5.547 4.968,10.838 8.069,15.91c4.507,7.37 10.95,11.642 13.603,20.205c6.48,20.901 -3.893,31.043 -5.032,51.12" style="fill:#58c4c4;fill-rule:nonzero;"/><path d="M1443.73,1786.42c0.184,2.155 1.646,-3.92 2.352,-5.933c2.443,-6.96 3.912,-14.387 7.088,-20.982c4.243,-8.802 9.838,-16.744 15.024,-24.912c12.982,-20.442 28.342,-41.933 19.15,-68.637c-3.027,-8.797 -12.648,-13.853 -15.152,-22.84c-2.208,-7.936 -1.32,-16.509 -1.995,-24.76c-0.317,-3.853 1.488,-11.301 -2.043,-11.387c-4.264,-0.101 -5.325,7.664 -6.138,12.238c-2.23,12.554 3.416,25.448 -0.486,37.93c-2.581,8.267 -6.096,16.19 -9.989,23.814c-5.651,11.074 -14.067,17.669 -17.181,30.41c-7.603,31.094 6.81,45.542 9.37,75.059" style="fill:#58c4c4;fill-rule:nonzero;"/><path d="M1555.21,1790.21c11.102,9.912 59.256,-2.637 73.254,-19.413c7.181,-8.613 2.368,-11.44 12.837,-21.384c18.933,-17.979 34.621,-10.043 37.077,-43.171c1.387,-18.754 -17.272,-40.802 -23.296,-53.778c-7.24,-15.598 -14.986,-31.232 -19.061,-47.955c-2.589,-10.611 5.693,-22.451 2,-32.725c-2.581,-7.166 -10.547,-3.328 -13.875,-0.248c-18.688,17.33 -13.154,56.786 -12.682,79.008c0.17,8.114 1.146,22.029 -3.779,29.56c-12.827,19.602 -30.685,16.896 -45.832,31.226c-22.368,21.163 -17.744,68.968 -6.643,78.88" style="fill:#58c4c4;fill-rule:nonzero;"/><path d="M1352.17,1791.01c-6.491,-3.146 -10.094,-12.186 -14.75,-18.754c-4.149,-5.854 -8.501,-14.742 -10.314,-22.355c-7,-29.413 16.821,-58.808 18.616,-87.043c0.797,-12.514 -8.307,-23.392 -10.523,-35.056c-1.291,-6.776 6.301,-10.81 10,-6.792c7.571,8.214 11.549,21.358 15.808,31.99c10.029,25.045 16.661,50.032 24.096,76.277c1.936,6.824 3.797,13.773 6.624,20.072c5.181,11.544 21.755,7.043 19.92,25.037c-0.256,2.52 -0.755,5.115 -1.816,7.267c-2.136,4.328 -4.28,9.043 -7.621,11.867c-2.6,2.205 -6.062,2.229 -9.182,2.354c-3.402,0.136 -6.749,-1.17 -10.138,-1.578c-10.232,-1.219 -23.142,0.389 -30.72,-3.286" style="fill:#58c4c4;fill-rule:nonzero;"/><path d="M1398.37,1768.61c-3.581,-5.434 -6.986,-10.909 -9.986,-16.416c-2.672,-4.906 -4.816,-11.429 -4.774,-16.106c0.163,-18.062 30.566,-21.427 39.078,-34.707c3.773,-5.885 -2.558,-15.667 -1.944,-22.565c0.354,-4.006 8.768,-2.408 11.437,1.365c5.464,7.72 6.227,16.195 7.861,23.547c3.854,17.314 4.384,32.984 5.406,49.666c0.266,4.339 0.429,8.704 1.701,13.206c2.323,8.245 19.661,13.888 13.557,22.021c-0.853,1.141 -1.962,2.203 -3.52,2.776c-3.13,1.149 -6.362,2.485 -10.317,2.309c-3.077,-0.136 -6.477,-1.77 -9.571,-3.194c-3.37,-1.552 -6.341,-3.803 -9.57,-5.624c-9.747,-5.48 -19.662,-10.715 -29.358,-16.278" style="fill:#58c4c4;fill-rule:nonzero;"/><path d="M1261.38,1789.13c-9.211,-15.128 -19.528,-48.368 -25.779,-83.421c-2.402,-13.488 9.744,-26.742 9.627,-40.038c-0.168,-18.968 -5.619,-37.634 -5.853,-56.602c-0.211,-17.19 12.336,-36.022 22.57,-47.59c8.272,-9.354 23.883,-10.714 30.872,-21.074c4.083,-6.051 3.984,-14.078 5.838,-21.15c0.858,-3.277 3.506,-11.397 5.384,-8.589c10.573,15.819 3.117,37.552 6.504,54.629c6.714,33.854 14.661,31.139 20.682,65.491c2.648,15.107 -6.954,29.715 -8.114,44.4c-2.995,37.968 53.154,61.731 29.549,99.456c-3.541,5.661 -7.779,11.179 -13.203,15.035c-5.498,3.912 -12.037,6.725 -18.701,7.653c-9.872,1.381 -20.011,0.501 -29.883,-0.867c-10.032,-1.384 -24.194,1.368 -29.493,-7.333" style="fill:#58c4c4;fill-rule:nonzero;"/><path d="M1138.34,1770.05c-12.982,-25.13 -19.102,-36.952 -27.504,-64.541c-3.232,-10.613 3.578,-22.517 1.944,-33.211c-2.334,-15.256 -8.27,-29.728 -10.651,-44.976c-2.155,-13.816 4.28,-30.253 9.971,-40.608c4.6,-8.37 15.189,-11.053 18.789,-20.104c2.101,-5.288 1.096,-11.738 1.547,-17.624c0.205,-2.722 1.08,-9.528 2.701,-7.458c9.128,11.658 6.536,29.914 10.864,43.317c8.584,26.573 13.736,23.581 21.901,50.624c3.59,11.896 -1.314,24.629 -0.394,36.571c2.378,30.869 43.813,44.29 31.976,77.066c-1.779,4.918 -4.048,9.79 -7.331,13.446c-3.328,3.709 -7.501,6.637 -11.981,8.066c-6.632,2.112 -13.715,2.435 -20.672,2.339c-7.067,-0.096 -14.128,-1.653 -21.16,-2.907" style="fill:#58c4c4;fill-rule:nonzero;"/><path d="M1540.89,1784.61c9.211,-15.125 19.528,-48.365 25.779,-83.424c2.402,-13.482 -9.742,-26.738 -9.624,-40.032c0.162,-18.97 5.613,-37.637 5.85,-56.605c0.211,-17.187 -12.333,-36.021 -22.57,-47.589c-8.27,-9.352 -23.88,-10.712 -30.87,-21.075c-4.082,-6.051 -3.984,-14.075 -5.842,-21.152c-0.859,-3.272 -3.507,-11.395 -5.379,-8.584c-10.576,15.816 -3.117,37.552 -6.507,54.627c-6.712,33.853 -14.661,31.141 -20.682,65.493c-2.651,15.107 6.954,29.712 8.114,44.397c2.998,37.966 -53.154,61.731 -29.549,99.456c3.544,5.662 7.779,11.179 13.205,15.038c5.496,3.909 12.035,6.722 18.699,7.653c9.872,1.379 20.008,0.499 29.88,-0.867c10.032,-1.389 24.197,1.366 29.496,-7.336" style="fill:#58c4c4;fill-rule:nonzero;"/><path d="M1259.31,1814.55c-11.688,8.178 -62.384,-2.176 -77.12,-16.024c-7.562,-7.107 -2.498,-9.44 -13.52,-17.646c-19.928,-14.834 -36.445,-8.288 -39.029,-35.629c-1.464,-15.48 18.179,-33.672 24.52,-44.384c7.624,-12.872 15.779,-25.776 20.072,-39.576c2.723,-8.76 -5.997,-18.531 -2.104,-27.008c2.712,-5.912 11.104,-2.749 14.605,-0.205c19.675,14.304 13.848,46.866 13.352,65.205c-0.181,6.699 -1.21,18.181 3.979,24.4c13.501,16.173 32.304,13.941 48.251,25.768c23.552,17.467 18.682,56.923 6.994,65.099" style="fill:#478ba2;fill-rule:nonzero;"/><path d="M1519.26,1776.42c20.171,-1.832 62.384,-2.579 77.12,-18.965c7.563,-8.411 2.493,-11.171 13.517,-20.88c19.931,-17.563 36.448,-9.816 39.032,-42.176c1.462,-18.315 -18.178,-39.851 -24.522,-52.528c-7.622,-15.232 -15.779,-30.504 -20.07,-46.838c-2.725,-10.368 5.995,-21.93 2.102,-31.965c-2.712,-7 -11.102,-3.256 -14.603,-0.243c-19.677,16.928 -13.851,55.467 -13.355,77.174c0.179,7.928 1.211,21.514 -3.978,28.872c-13.504,19.149 -32.304,16.504 -48.251,30.501c-23.552,20.672 -24.517,53.301 -6.992,77.048" style="fill:#478ba2;fill-rule:nonzero;"/><path d="M1179.16,1791.26c-7.816,2.368 -15.589,5.115 -23.917,6.221c-7.974,1.056 -16.326,1.179 -24.304,0.182c-14.438,-1.798 -24.192,-20.056 -34.4,-24.84c-10.488,-4.912 -26.198,-0.328 -35.646,-6.952c-8.242,-5.776 -3.762,-17.456 -8.416,-24.134c-12.53,-17.976 -18.538,-14.73 -33.306,-32.005c-20.984,-24.547 -4.427,-50.147 14.514,-71.773c17.888,-20.43 45.046,-44.088 45.816,-70.371c0.262,-8.888 -3.154,-17.627 -4.592,-26.451c-0.498,-3.061 -2.866,-12.045 -1.21,-9.205c8.253,14.16 18.97,42.691 18.514,58.315c-0.797,27.408 -19.146,54.922 -6.848,82.317c1.915,4.269 10.683,7.413 15.262,9.357c18.885,8.022 19.61,6.95 34.941,18.523c32.989,24.912 41.085,57.605 43.592,90.816" style="fill:#478ba2;fill-rule:nonzero;"/><path d="M1609.3,1786.5c7.189,2.274 14.346,4.925 21.986,5.93c7.31,0.963 14.955,0.982 22.232,-0.112c13.174,-1.981 21.768,-20.354 31.022,-25.261c9.504,-5.043 23.954,-0.648 32.48,-7.387c7.437,-5.874 3.128,-17.498 7.264,-24.232c11.141,-18.125 16.693,-14.954 29.893,-32.408c18.755,-24.802 3.155,-50.194 -14.56,-71.589c-16.725,-20.211 -41.987,-43.528 -43.163,-69.803c-0.4,-8.882 2.571,-17.661 3.728,-26.504c0.4,-3.066 2.406,-12.074 0.944,-9.218c-7.298,14.261 -16.592,42.917 -15.893,58.533c1.221,27.4 18.493,54.685 7.733,82.227c-1.674,4.29 -9.64,7.541 -13.792,9.541c-17.13,8.251 -17.81,7.189 -31.624,18.949c-29.733,25.307 -36.549,58.096 -38.25,91.334" style="fill:#478ba2;fill-rule:nonzero;"/><path d="M1633.86,1748.04c9.554,-21.312 20.354,-37.941 37.618,-56.139c12.835,-13.53 27.12,-24.965 26.52,-43.125c-0.141,-4.339 -0.186,-8.811 -1.925,-12.925c-3.107,-7.344 -13.888,-11.795 -16.387,-19.283c-2.208,-6.608 -0.85,-13.653 -1.296,-20.48c-0.192,-2.968 -2.362,-10.787 -4.29,-8.237c-9.939,13.146 -0.582,26.469 -7.144,39.97c-11.448,23.55 -38,37.374 -37.078,64.51c0.686,20.008 20.203,37.434 3.982,55.709" style="fill:#478ba2;fill-rule:nonzero;"/><path d="M1213.66,1655.23c-0.088,1.206 -1.4,-2.162 -2.011,-3.277c-2.107,-3.845 -3.464,-7.973 -6.139,-11.597c-3.57,-4.846 -8.181,-9.176 -12.477,-13.643c-10.752,-11.184 -23.4,-22.904 -16.917,-38.029c2.136,-4.984 9.552,-8.006 11.272,-13.083c1.517,-4.488 0.584,-9.269 0.89,-13.896c0.142,-2.165 -1.48,-6.296 1.291,-6.416c3.344,-0.139 4.389,4.187 5.155,6.731c2.093,6.978 -1.984,14.306 1.418,21.216c2.254,4.576 5.23,8.938 8.496,13.128c4.742,6.08 11.528,9.605 14.323,16.674c6.821,17.248 -4.101,25.619 -5.301,42.192" style="fill:#478ba2;fill-rule:nonzero;"/><path d="M1440.14,1802.96c0.192,1.776 1.731,-3.234 2.477,-4.896c2.571,-5.744 4.12,-11.874 7.464,-17.314c4.462,-7.267 10.35,-13.819 15.814,-20.563c13.669,-16.869 29.84,-34.605 20.165,-56.645c-3.192,-7.259 -13.32,-11.432 -15.957,-18.851c-2.323,-6.549 -1.387,-13.624 -2.099,-20.435c-0.331,-3.178 1.568,-9.325 -2.149,-9.394c-4.491,-0.086 -5.606,6.325 -6.462,10.098c-2.349,10.363 3.592,21.003 -0.514,31.302c-2.718,6.824 -6.416,13.365 -10.515,19.656c-5.952,9.138 -14.808,14.581 -18.088,25.098c-8.005,25.664 7.171,37.582 9.864,61.944" style="fill:#478ba2;fill-rule:nonzero;"/><path d="M1557.5,1806.1c11.688,8.179 62.384,-2.176 77.12,-16.024c7.563,-7.107 2.499,-9.44 13.52,-17.648c19.928,-14.835 36.446,-8.288 39.03,-35.627c1.464,-15.48 -18.176,-33.677 -24.52,-44.386c-7.624,-12.872 -15.779,-25.774 -20.072,-39.574c-2.723,-8.76 5.997,-18.53 2.104,-27.01c-2.712,-5.91 -11.104,-2.75 -14.606,-0.203c-19.674,14.304 -13.848,46.864 -13.352,65.205c0.182,6.696 1.211,18.176 -3.978,24.395c-13.502,16.176 -32.304,13.944 -48.254,25.771c-23.549,17.469 -18.68,56.922 -6.992,65.101" style="fill:#478ba2;fill-rule:nonzero;"/><path d="M1343.75,1806.75c-6.835,-2.594 -10.627,-10.056 -15.528,-15.477c-4.371,-4.829 -8.95,-12.165 -10.859,-18.451c-7.373,-24.274 17.707,-48.533 19.597,-71.834c0.838,-10.328 -8.744,-19.304 -11.08,-28.936c-1.354,-5.587 6.635,-8.915 10.528,-5.606c7.971,6.782 12.163,17.63 16.646,26.406c10.557,20.666 17.538,41.288 25.368,62.952c2.037,5.632 3.997,11.362 6.973,16.562c5.456,9.528 22.907,5.814 20.973,20.664c-0.272,2.08 -0.794,4.222 -1.912,5.998c-2.248,3.573 -4.506,7.461 -8.024,9.794c-2.738,1.819 -6.381,1.84 -9.666,1.944c-3.582,0.112 -7.107,-0.968 -10.675,-1.301c-10.771,-1.008 -24.363,0.317 -32.341,-2.715" style="fill:#478ba2;fill-rule:nonzero;"/><path d="M1392.38,1788.27c-3.77,-4.488 -7.357,-9.006 -10.514,-13.55c-2.814,-4.05 -5.07,-9.432 -5.027,-13.29c0.173,-14.907 32.181,-17.686 41.141,-28.646c3.974,-4.856 -2.69,-12.93 -2.045,-18.621c0.376,-3.307 9.229,-1.989 12.04,1.125c5.755,6.371 6.557,13.366 8.277,19.435c4.056,14.291 4.616,27.221 5.694,40.989c0.274,3.582 0.453,7.179 1.786,10.896c2.446,6.808 20.702,11.464 14.278,18.174c-0.904,0.944 -2.07,1.821 -3.707,2.293c-3.296,0.949 -6.699,2.048 -10.864,1.907c-3.237,-0.112 -6.819,-1.462 -10.075,-2.64c-3.549,-1.28 -6.674,-3.136 -10.077,-4.635c-10.261,-4.528 -20.699,-8.848 -30.907,-13.437" style="fill:#478ba2;fill-rule:nonzero;"/><path d="M1248.16,1805.19c-9.699,-12.482 -20.56,-39.914 -27.142,-68.845c-2.53,-11.131 10.259,-22.069 10.136,-33.043c-0.178,-15.656 -5.914,-31.058 -6.162,-46.717c-0.224,-14.184 12.986,-29.728 23.76,-39.275c8.709,-7.717 25.146,-8.84 32.504,-17.392c4.296,-4.994 4.194,-11.616 6.146,-17.453c0.904,-2.704 3.691,-9.405 5.667,-7.088c11.133,13.051 3.283,30.992 6.848,45.085c7.069,27.936 15.435,25.699 21.776,54.048c2.789,12.47 -7.323,24.523 -8.541,36.643c-3.158,31.333 55.96,50.947 31.109,82.085c-3.731,4.672 -8.189,9.224 -13.901,12.406c-5.79,3.226 -12.675,5.549 -19.691,6.317c-10.392,1.139 -21.064,0.411 -31.459,-0.715c-10.562,-1.144 -25.472,1.126 -31.05,-6.056" style="fill:#478ba2;fill-rule:nonzero;"/><path d="M1118.62,1789.46c-13.664,-20.738 -20.109,-30.498 -28.957,-53.266c-3.403,-8.76 3.77,-18.582 2.048,-27.408c-2.459,-12.592 -8.707,-24.534 -11.214,-37.12c-2.269,-11.4 4.507,-24.966 10.499,-33.512c4.843,-6.907 15.992,-9.123 19.781,-16.595c2.214,-4.363 1.155,-9.688 1.627,-14.541c0.219,-2.251 1.139,-7.864 2.843,-6.16c9.613,9.624 6.885,24.69 11.442,35.754c9.035,21.928 14.459,19.459 23.054,41.782c3.781,9.813 -1.382,20.322 -0.414,30.181c2.504,25.475 46.128,36.552 33.664,63.603c-1.869,4.058 -4.261,8.077 -7.717,11.096c-3.504,3.058 -7.899,5.474 -12.613,6.656c-6.984,1.741 -14.44,2.01 -21.763,1.928c-7.443,-0.078 -14.877,-1.363 -22.28,-2.398" style="fill:#478ba2;fill-rule:nonzero;"/><path d="M1542.43,1801.47c9.701,-12.486 20.563,-39.918 27.144,-68.848c2.528,-11.128 -10.261,-22.07 -10.139,-33.04c0.176,-15.656 5.918,-31.062 6.163,-46.72c0.224,-14.184 -12.987,-29.726 -23.76,-39.272c-8.707,-7.72 -25.144,-8.843 -32.501,-17.395c-4.299,-4.995 -4.195,-11.613 -6.15,-17.453c-0.904,-2.702 -3.693,-9.406 -5.669,-7.088c-11.131,13.053 -3.277,30.992 -6.843,45.085c-7.072,27.939 -15.437,25.699 -21.776,54.048c-2.792,12.472 7.323,24.523 8.542,36.643c3.154,31.333 -55.963,50.949 -31.11,82.085c3.728,4.672 8.187,9.224 13.902,12.408c5.789,3.227 12.674,5.549 19.69,6.317c10.39,1.139 21.062,0.408 31.456,-0.714c10.563,-1.144 25.472,1.122 31.051,-6.056" style="fill:#478ba2;fill-rule:nonzero;"/></g></svg>