<?xml version="1.0" encoding="UTF-8" standalone="no"?><!DOCTYPE svg PUBLIC "-//W3C//DTD SVG 1.1//EN" "http://www.w3.org/Graphics/SVG/1.1/DTD/svg11.dtd"><svg width="100%" height="100%" viewBox="0 0 2731 2048" version="1.1" xmlns="http://www.w3.org/2000/svg" xmlns:xlink="http://www.w3.org/1999/xlink" xml:space="preserve" xmlns:serif="http://www.serif.com/" style="fill-rule:evenodd;clip-rule:evenodd;stroke-linecap:round;stroke-linejoin:round;"><g id="Layer-1" serif:id="Layer 1"><path d="M1061,1575.43c-60.445,46.169 -131.121,100.138 -204.759,90.583c-106.574,-13.823 -216.894,-68.64 -292.575,-155.083c-184.253,-210.468 -74.774,-388.295 43.723,-567.632c21.538,-32.602 97.889,-54.763 108.544,-93.68c19.149,-69.925 -54.112,-123.905 -30.335,-191.929c105.005,-300.418 327.129,-94.748 480.51,-314.825c121.7,-174.627 365.921,-136.581 405.105,-3.357c69.765,237.193 311.024,-170.497 500.374,117.354c200.629,304.989 9.121,199.839 35.337,573.806c5.998,85.666 126.428,277.52 150.835,359.445c20.73,69.594 -1.153,175.841 -56.881,212.309c-112.189,73.435 -266.773,-4.539 -391.457,38.277c-286.285,98.305 -273.344,257.243 -557.885,141.234c-82.78,-33.752 -139.971,-125.438 -190.536,-206.502" style="fill:#cdf5ff;fill-rule:nonzero;"/><path d="M1059.2,917.439c69.778,23.51 107.361,99.099 83.911,168.703c-23.453,69.608 -99.116,107.045 -168.895,83.535c-69.711,-23.485 -107.361,-99.099 -83.908,-168.707c23.449,-69.604 99.177,-107.016 168.892,-83.531m124.064,-201.223c-31.868,-16.18 -65.905,-27.65 -101.003,-34.03l-38.501,82.695c-30.765,-3.008 -61.79,-0.926 -91.879,6.169l-49.419,-76.806c-33.962,11.022 -66.073,26.935 -95.425,47.209l31.402,85.713c-23.873,19.583 -44.296,42.986 -60.501,69.241l-89.352,-19.508c-16.101,31.786 -27.54,65.734 -33.955,100.786l82.937,38.536c-2.983,30.712 -0.887,61.694 6.269,91.733l-76.87,49.242c11.103,33.901 27.038,66.001 47.408,95.325l85.82,-31.242c19.661,23.851 43.097,44.296 69.412,60.512l-19.388,89.134c31.801,16.159 65.838,27.625 101.003,34.03l38.434,-82.716c30.769,3.008 61.858,0.94 91.882,-6.173l49.484,76.824c33.894,-11.032 66.069,-26.927 95.357,-47.219l-31.399,-85.721c23.873,-19.583 44.357,-42.961 60.566,-69.216l89.284,19.484c16.169,-31.762 27.607,-65.71 33.955,-100.783l-82.873,-38.515c2.987,-30.712 0.823,-61.723 -6.329,-91.762l76.866,-49.234c-11.036,-33.88 -27.038,-66.002 -47.34,-95.307l-85.884,31.221c-19.598,-23.834 -43.101,-44.29 -69.416,-60.509l19.455,-89.113Z" style="fill:#fdc50d;fill-rule:nonzero;"/><path d="M1059.2,917.439c69.778,23.51 107.361,99.099 83.911,168.703c-23.453,69.608 -99.116,107.045 -168.895,83.535c-69.711,-23.485 -107.361,-99.099 -83.908,-168.707c23.449,-69.604 99.177,-107.016 168.892,-83.531Zm124.064,-201.223c-31.868,-16.18 -65.905,-27.65 -101.003,-34.03l-38.501,82.695c-30.765,-3.008 -61.79,-0.926 -91.879,6.169l-49.419,-76.806c-33.962,11.022 -66.073,26.935 -95.425,47.209l31.402,85.713c-23.873,19.583 -44.296,42.986 -60.501,69.241l-89.352,-19.508c-16.101,31.786 -27.54,65.734 -33.955,100.786l82.937,38.536c-2.983,30.712 -0.887,61.694 6.269,91.733l-76.87,49.242c11.103,33.901 27.038,66.001 47.408,95.325l85.82,-31.242c19.661,23.851 43.097,44.296 69.412,60.512l-19.388,89.134c31.801,16.159 65.838,27.625 101.003,34.03l38.434,-82.716c30.769,3.008 61.858,0.94 91.882,-6.173l49.484,76.824c33.894,-11.032 66.069,-26.927 95.357,-47.219l-31.399,-85.721c23.873,-19.583 44.357,-42.961 60.566,-69.216l89.284,19.484c16.169,-31.762 27.607,-65.71 33.955,-100.783l-82.873,-38.515c2.987,-30.712 0.823,-61.723 -6.329,-91.762l76.866,-49.234c-11.036,-33.88 -27.038,-66.002 -47.34,-95.307l-85.884,31.221c-19.598,-23.834 -43.101,-44.29 -69.416,-60.509l19.455,-89.113Z" style="fill:none;fill-rule:nonzero;stroke:#fdc50d;stroke-width:3.26px;"/><ellipse cx="1014.37" cy="1044.94" rx="212.108" ry="209.922" style="fill:none;stroke:#fff;stroke-width:3.28px;"/><ellipse cx="1016.68" cy="1044.94" rx="200.732" ry="198.664" style="fill:none;stroke:#fff;stroke-width:3.28px;"/><path d="M1103.9,816.881c-72.719,-25.329 -169.511,-16.572 -231.672,30.437c-40.395,30.573 -69.722,76.308 -91.825,121.239" style="fill:none;fill-rule:nonzero;stroke:#fff;stroke-width:3.27px;"/><path d="M775.331,1052.63c6.322,65.022 43.235,140.18 94.709,177.346c33.467,24.144 73.563,35.361 110.8,41.011" style="fill:none;fill-rule:nonzero;stroke:#fff;stroke-width:3.27px;"/><path d="M841.299,1044.09c-1.844,52.74 25.209,113.007 71.328,142.028c29.989,18.853 68.113,27.038 104.111,30.758" style="fill:none;fill-rule:nonzero;stroke:#fff;stroke-width:3.27px;"/><path d="M993.627,870.263c-25.846,0.502 -58.316,9.177 -77.287,22.552c-12.325,8.697 -20.206,19.452 -25.667,29.53" style="fill:none;fill-rule:nonzero;stroke:#fff;stroke-width:3.29px;"/><path d="M1179.58,1027.41c-0.626,-30.658 -9.964,-68.469 -24.247,-89.821c-9.287,-13.874 -20.743,-22.286 -31.473,-27.882" style="fill:none;fill-rule:nonzero;stroke:#fff;stroke-width:3.29px;"/><path d="M1258.34,1070.87c0.552,2.424 5.294,-28.946 2.083,-53.236c-2.546,-19.28 -12.222,-55.101 -21.848,-71.209" style="fill:none;fill-rule:nonzero;stroke:#fff;stroke-width:3.27px;"/><path d="M1770.09,1207.71c69.779,23.51 107.362,99.102 83.909,168.703c-23.453,69.608 -99.113,107.041 -168.888,83.534c-69.715,-23.485 -107.365,-99.095 -83.912,-168.706c23.449,-69.605 99.177,-107.02 168.891,-83.531m124.065,-201.224c-31.869,-16.18 -65.906,-27.65 -101.003,-34.029l-38.501,82.694c-30.765,-3.008 -61.79,-0.922 -91.879,6.169l-49.416,-76.802c-33.962,11.014 -66.077,26.931 -95.428,47.201l31.398,85.717c-23.873,19.583 -44.293,42.987 -60.498,69.241l-89.351,-19.508c-16.102,31.783 -27.54,65.731 -33.958,100.786l82.94,38.533c-2.987,30.712 -0.89,61.698 6.269,91.736l-76.871,49.242c11.1,33.898 27.038,66.002 47.408,95.318l85.82,-31.235c19.662,23.851 43.097,44.289 69.412,60.512l-19.387,89.134c31.798,16.159 65.841,27.629 101.003,34.026l38.437,-82.712c30.762,3.008 61.858,0.94 91.876,-6.173l49.487,76.824c33.89,-11.039 66.065,-26.931 95.357,-47.226l-31.399,-85.713c23.873,-19.584 44.357,-42.962 60.562,-69.217l89.284,19.484c16.169,-31.766 27.607,-65.713 33.955,-100.783l-82.869,-38.518c2.987,-30.712 0.826,-61.723 -6.33,-91.755l76.867,-49.238c-11.036,-33.883 -27.034,-66.001 -47.34,-95.307l-85.884,31.221c-19.598,-23.83 -43.104,-44.293 -69.413,-60.509l19.452,-89.113Z" style="fill:#f37f5a;fill-rule:nonzero;"/><ellipse cx="1725.27" cy="1335.21" rx="212.108" ry="209.924" style="fill:none;stroke:#fff;stroke-width:3.28px;"/><ellipse cx="1727.58" cy="1335.21" rx="200.73" ry="198.664" style="fill:none;stroke:#fff;stroke-width:3.28px;"/><path d="M1814.79,1107.15c-72.72,-25.329 -169.511,-16.572 -231.672,30.438c-40.395,30.573 -69.722,76.304 -91.825,121.234" style="fill:none;fill-rule:nonzero;stroke:#fff;stroke-width:3.27px;"/><path d="M1486.22,1342.89c6.322,65.023 43.239,140.181 94.709,177.343c33.47,24.147 73.563,35.365 110.8,41.015" style="fill:none;fill-rule:nonzero;stroke:#fff;stroke-width:3.27px;"/><path d="M1552.19,1334.35c-1.847,52.741 25.208,113.007 71.328,142.028c29.989,18.854 68.112,27.038 104.107,30.758" style="fill:none;fill-rule:nonzero;stroke:#fff;stroke-width:3.27px;"/><path d="M1704.52,1160.53c-25.852,0.502 -58.323,9.174 -77.29,22.549c-12.325,8.701 -20.207,19.459 -25.668,29.537" style="fill:none;fill-rule:nonzero;stroke:#fff;stroke-width:3.29px;"/><path d="M1890.47,1317.67c-0.626,-30.659 -9.964,-68.465 -24.247,-89.822c-9.288,-13.873 -20.743,-22.281 -31.47,-27.881" style="fill:none;fill-rule:nonzero;stroke:#fff;stroke-width:3.29px;"/><path d="M1969.23,1361.14c0.549,2.424 5.291,-28.947 2.08,-53.236c-2.546,-19.281 -12.222,-55.101 -21.848,-71.21" style="fill:none;fill-rule:nonzero;stroke:#fff;stroke-width:3.27px;"/><path d="M1332.66,171.161c0,-1.11 -1.794,-2.011 -3.99,-2.011l-8.039,0c-2.2,0 -3.991,0.901 -3.991,2.011l0,360.881c0,1.111 1.791,2.015 3.991,2.015l8.039,-0c2.196,-0 3.99,-0.904 3.99,-2.015l0,-360.881Z" style="fill:#69bac9;fill-rule:nonzero;stroke:#69bac9;stroke-width:2.67px;"/><path d="M1461.18,178.37c0,-0 99.22,-37.18 112.068,-27.159c12.851,10.025 -39.374,59.978 -34.973,87.297c4.4,27.32 63.011,60.37 61.366,76.618c-1.652,16.251 -46.952,16.184 -71.252,20.883c-25.543,4.937 -82.011,8.75 -82.011,8.75l-0.801,-153.662l15.603,-12.727Z" style="fill:#69bac9;fill-rule:nonzero;"/><path d="M1446.58,294.802c0,0 -2.958,48.829 1.317,49.932c4.269,1.101 20.118,-32.352 22.969,-40.498c1.285,-3.67 -3.289,-7.721 -5.87,-8.387c-4.272,-1.1 -18.416,-1.047 -18.416,-1.047" style="fill:#005664;fill-rule:nonzero;"/><path d="M1331.62,179.41c0,-0 32.642,-16.359 47.497,-23.468c13.784,-6.596 27.515,-16.803 41.641,-19.184c14.119,-2.378 34.197,0.897 43.086,4.902c6.6,2.972 9.78,11.911 10.26,19.131c1.762,26.603 5.03,116.816 0.324,140.497c-1.858,9.356 -19.163,0.022 -28.572,1.595c-11.744,1.962 -28.576,4.824 -41.919,10.185c-19.042,7.644 -72.317,35.689 -72.317,35.689l0,-169.347Z" style="fill:#69bac9;fill-rule:nonzero;"/><rect x="716.958" y="1113.96" width="56.048" height="360.674" style="fill:#69bac9;"/><rect x="779.923" y="1209" width="56.048" height="265.627" style="fill:#69bac9;"/><rect x="843.596" y="1172.49" width="56.048" height="302.145" style="fill:#69bac9;"/><rect x="907.273" y="1272.35" width="56.048" height="202.284" style="fill:#69bac9;"/><rect x="970.95" y="1113.96" width="56.048" height="360.674" style="fill:#69bac9;"/><rect x="1034.63" y="948.148" width="56.048" height="526.476" style="fill:#69bac9;"/><rect x="716.958" y="1294.29" width="56.048" height="180.337" style="fill:#f77e00;"/><rect x="779.923" y="1244.14" width="56.048" height="230.486" style="fill:#f77e00;"/><rect x="843.596" y="1373.49" width="56.048" height="101.142" style="fill:#f77e00;"/><rect x="907.273" y="1321.38" width="56.048" height="153.253" style="fill:#f77e00;"/><rect x="970.95" y="1273.57" width="56.048" height="201.067" style="fill:#f77e00;"/><rect x="1034.63" y="1092.49" width="56.048" height="382.162" style="fill:#f77e00;"/><path d="M1102.25,601.105c-19,-49.483 -2.652,-101.854 36.465,-116.873c39.149,-15.031 86.343,12.944 105.342,62.427l-141.807,54.446Z" style="fill:#ef8064;fill-rule:nonzero;"/><path d="M1033.4,421.796c19,49.484 66.198,77.454 105.315,62.435c39.148,-15.03 55.496,-67.401 36.496,-116.884l-141.811,54.449Z" style="fill:#ef8064;fill-rule:nonzero;"/><path d="M1064.16,442.694c14.361,29.939 45.663,47.333 67.899,44.09c26.372,-3.845 33.919,-44.46 20.961,-78.209l-88.86,34.119Z" style="fill:#f7efb0;fill-rule:nonzero;"/><path d="M1116.49,562.928c-12.688,-32.638 -4.219,-65.952 18.255,-77.173c22.157,-11.064 52.275,11.367 65.233,45.115l-83.488,32.058Z" style="fill:#f7efb0;fill-rule:nonzero;"/><path d="M1096.49,579.572c3.92,3.143 18.868,-1.474 21.367,-8.053c2.958,-7.796 -5.764,-25.632 -3.613,-38.693c2.299,-14.009 17.963,-40.993 16.226,-43.763c-1.734,-2.752 -20.395,16.39 -26.611,27.252c-6.219,10.843 -8.291,25.756 -9.516,36.301c-1.061,9.095 -1.765,23.809 2.147,26.956" style="fill:#fdc50d;fill-rule:nonzero;"/><path d="M1044.58,435.357c0.089,4.588 8.872,15.293 15.052,21.455c6.931,6.932 17.533,14.856 26.522,20.057c8.544,4.956 20.445,9.384 27.418,11.193c4.664,1.231 16.64,-0.666 15.607,-2.332c-1.028,-1.663 -15.268,-3.727 -21.783,-7.633c-6.782,-4.079 -13.973,-9.031 -20.036,-14.67c-6.927,-6.451 -18.041,-16.832 -21.206,-23.172c-6.383,-12.791 -21.78,-15.233 -21.574,-4.898" style="fill:#fdc50d;fill-rule:nonzero;"/><path d="M1180.71,357.649c-0.705,-1.833 -2.759,-2.741 -4.592,-2.036l-152.238,58.455c-1.83,0.701 -2.749,2.748 -2.047,4.585l2.552,6.643c0.705,1.833 2.759,2.737 4.589,2.036l152.238,-58.455c1.83,-0.701 2.752,-2.748 2.047,-4.585l-2.549,-6.643Z" style="fill:#fdc50d;fill-rule:nonzero;"/><path d="M1251.31,540.07c-0.701,-1.834 -2.759,-2.738 -4.589,-2.037l-152.238,58.455c-1.83,0.701 -2.752,2.748 -2.047,4.585l2.553,6.643c0.704,1.833 2.755,2.741 4.588,2.036l152.239,-58.454c1.829,-0.702 2.751,-2.749 2.047,-4.586l-2.553,-6.642Z" style="fill:#fdc50d;fill-rule:nonzero;"/><path d="M873.97,613.355c7.526,1.189 17.284,11.943 22.68,16.055c1.197,0.911 6.604,3.738 8.22,1.018c9.733,-16.39 -0.761,-39.508 2.158,-56.372c2.709,-15.649 10.366,-30.071 14.101,-45.507c9.864,-40.808 -34.461,-87.667 -73.549,-91.231c-38.999,-3.556 -80.331,4.642 -111.299,30.067c-35.852,29.434 -54.054,77.444 -15.71,114.079c35.237,33.671 79.501,46.12 127.646,40.139c5.515,-0.683 19.712,-9.181 25.753,-8.248" style="fill:#fdc50d;fill-rule:nonzero;"/><path d="M1582.13,598.242c-1.527,-5.664 2.446,-11.616 5.133,-16.828c14.215,-27.536 32.036,-53.164 45.411,-81.117c13.144,-27.458 -16.105,-55.525 1.446,-82.203c12.516,-19.039 26.354,-37.497 42.662,-53.41c104.948,-102.413 277.624,-3.905 316.701,115.51c5.743,17.554 9.345,35.859 11.435,54.207c10.616,93.214 -104.043,131.94 -177.845,130.405c-27.565,-0.569 -55.133,-4.133 -82.16,-9.576c-41.769,-8.405 -55.287,-54.478 -90.349,-73.164c-22.271,-11.869 -44.513,11.794 -62.861,18.237c-3.08,1.079 -8.729,1.093 -9.573,-2.061" style="fill:#69bac9;fill-rule:nonzero;"/><path d="M1582.13,598.242c-1.527,-5.664 2.446,-11.616 5.133,-16.828c14.215,-27.536 32.036,-53.164 45.411,-81.117c13.144,-27.458 -16.105,-55.525 1.446,-82.203c12.516,-19.039 26.354,-37.497 42.662,-53.41c104.948,-102.413 277.624,-3.905 316.701,115.51c5.743,17.554 9.345,35.859 11.435,54.207c10.616,93.214 -104.043,131.94 -177.845,130.405c-27.565,-0.569 -55.133,-4.133 -82.16,-9.576c-41.769,-8.405 -55.287,-54.478 -90.349,-73.164c-22.271,-11.869 -44.513,11.794 -62.861,18.237c-3.08,1.079 -8.729,1.093 -9.573,-2.061Z" style="fill:none;fill-rule:nonzero;stroke:#69bac9;stroke-width:5.99px;"/><path d="M1978.1,967.51l-30.975,-89.996l51.705,-17.793l-20.73,107.789Z" style="fill:#ffe0ad;fill-rule:nonzero;"/><path d="M1971.86,949.404l-30.975,-89.996l51.704,-17.796l-20.729,107.792Z" style="fill:#ffae7d;fill-rule:nonzero;"/><path d="M2029.81,949.721l-30.975,-89.992l-51.705,17.792l82.68,72.2Z" style="fill:#ffe0ad;fill-rule:nonzero;"/><path d="M2023.57,931.601l-30.976,-89.992l-51.705,17.796l82.681,72.196Z" style="fill:#ffae7d;fill-rule:nonzero;"/><path d="M1938.27,748.755c4.044,-4.657 21.691,-6.305 26.475,-2.456c4.778,3.826 2.229,25.5 2.229,25.5c-0,-0 4.243,-21.403 9.989,-23.692c5.746,-2.286 22.086,4.386 24.514,10.014c2.417,5.611 -10,23.67 -10,23.67c-0,0 13.78,-17.063 19.925,-16.45c6.141,0.633 17.422,14.087 16.928,20.203c-0.506,6.091 -19.929,16.425 -19.929,16.425c-0,0 20.167,-8.811 25.293,-5.436c5.12,3.379 8.769,20.548 5.465,25.735c-3.311,5.187 -25.294,5.436 -25.294,5.436c0,0 21.93,1.453 24.867,6.814c2.933,5.361 -1.898,22.3 -7.248,25.397c-5.347,3.097 -24.863,-6.814 -24.863,-6.814c-0,-0 18.665,11.385 18.74,17.494c0.067,6.112 -12.129,18.931 -18.302,19.23c-6.173,0.278 -18.733,-17.497 -18.733,-17.497c0,0 11.125,18.697 8.32,24.183c-2.809,5.468 -19.58,11.239 -25.158,8.661c-5.582,-2.602 -8.324,-24.182 -8.324,-24.182c0,-0 1.036,21.74 -4.001,25.318c-5.044,3.564 -22.549,0.965 -26.255,-3.891c-3.709,-4.859 3.998,-25.322 3.998,-25.322c0,0 -9.277,19.818 -15.4,20.673c-6.127,0.851 -20.356,-9.527 -21.339,-15.557c-0.986,-6.034 15.397,-20.673 15.397,-20.673c0,0 -17.476,13.336 -23.275,11.278c-5.799,-2.051 -13.488,-17.832 -11.531,-23.645c1.962,-5.814 23.283,-11.282 23.283,-11.282c-0,0 -21.67,3.813 -25.821,-0.68c-4.154,-4.514 -3.542,-22.064 0.915,-26.343c4.457,-4.258 25.821,0.704 25.821,0.704c-0,0 -20.901,-6.593 -22.446,-12.502c-1.556,-5.931 7.216,-21.242 13.154,-22.976c5.935,-1.737 22.456,12.52 22.456,12.52c0,0 -15.354,-15.511 -13.937,-21.466c1.403,-5.981 16.326,-15.543 22.382,-14.361c6.048,1.185 13.93,21.47 13.93,21.47c-0,-0 -6.269,-20.84 -2.225,-25.5" style="fill:#f88c5e;fill-rule:nonzero;"/><path d="M1947.85,795.632c17.725,-6.098 36.917,2.92 42.841,20.132c5.923,17.209 -3.653,36.13 -21.374,42.232c-17.722,6.098 -36.917,-2.923 -42.841,-20.132c-5.924,-17.209 3.656,-36.133 21.374,-42.232" style="fill:#ffe0ad;fill-rule:nonzero;"/><path d="M1372.75,526.787l-171.974,1012.55l-12.421,-2.109l171.974,-1012.55l12.421,2.109Z" style="fill:#5c9bad;stroke:#5c9bad;stroke-width:3.16px;"/><path d="M1243.56,525.946l-171.971,1012.54l-12.42,-2.109l171.97,-1012.54l12.421,2.109Z" style="fill:#5c9bad;stroke:#5c9bad;stroke-width:3.16px;"/><path d="M1339.23,634.348l-121.448,-15.781l1.623,-12.496l121.449,15.782l-1.624,12.495Z" style="fill:#5c9bad;stroke:#5c9bad;stroke-width:3.2px;"/><path d="M1323.74,726.947l-121.448,-15.785l1.624,-12.492l121.448,15.785l-1.624,12.492Z" style="fill:#5c9bad;stroke:#5c9bad;stroke-width:3.2px;"/><path d="M1308.25,819.544l-121.448,-15.785l1.624,-12.491l121.448,15.784l-1.624,12.492Z" style="fill:#5c9bad;stroke:#5c9bad;stroke-width:3.2px;"/><path d="M1292.75,912.138l-121.445,-15.785l1.623,-12.492l121.445,15.785l-1.623,12.492Z" style="fill:#5c9bad;stroke:#5c9bad;stroke-width:3.2px;"/><path d="M1277.26,1004.74l-121.445,-15.785l1.623,-12.492l121.445,15.785l-1.623,12.492Z" style="fill:#5c9bad;stroke:#5c9bad;stroke-width:3.2px;"/><path d="M1261.76,1097.33l-121.448,-15.784l1.624,-12.489l121.448,15.785l-1.624,12.488Z" style="fill:#5c9bad;stroke:#5c9bad;stroke-width:3.2px;"/><path d="M1246.27,1189.93l-121.448,-15.784l1.624,-12.492l121.448,15.785l-1.624,12.491Z" style="fill:#5c9bad;stroke:#5c9bad;stroke-width:3.2px;"/><path d="M1230.73,1282.53l-121.445,-15.788l1.624,-12.489l121.444,15.789l-1.623,12.488Z" style="fill:#5c9bad;stroke:#5c9bad;stroke-width:3.2px;"/><path d="M1215.24,1375.12l-121.444,-15.784l1.623,-12.489l121.444,15.785l-1.623,12.488Z" style="fill:#5c9bad;stroke:#5c9bad;stroke-width:3.2px;"/><path d="M1199.75,1467.72l-121.448,-15.782l1.623,-12.488l121.447,15.781l-1.622,12.489Z" style="fill:#5c9bad;stroke:#5c9bad;stroke-width:3.2px;"/><path d="M1296.3,524.261l158.764,1014.7l-12.446,1.947l-158.763,-1014.7l12.445,-1.947Z" style="fill:#2b4e41;stroke:#2b4e41;stroke-width:3.16px;"/><path d="M1310.85,657.858l126.209,-14.73l1.461,12.513l-126.209,14.731l-1.461,-12.514Z" style="fill:#2b4e41;stroke:#2b4e41;stroke-width:3.2px;"/><path d="M1351.94,927.49l130.576,-14.113l1.357,12.551l-130.576,14.113l-1.357,-12.551Z" style="fill:#2b4e41;stroke:#2b4e41;stroke-width:3.2px;"/><path d="M1524.66,1184.29l-135.557,13.517l1.695,12.538l135.56,-13.517l-1.698,-12.538Z" style="fill:#2b4e41;fill-rule:nonzero;stroke:#2b4e41;stroke-width:3.19px;"/><path d="M1425.48,525.106l158.763,1014.7l-12.443,1.947l-158.763,-1014.7l12.443,-1.947Z" style="fill:#2b4e41;stroke:#2b4e41;stroke-width:3.16px;"/><path d="M1495.77,538.297l-319.312,-2.079l0.165,-25.475l319.313,2.079l-0.166,25.475Z" style="fill:#5c9bad;stroke:#5c9bad;stroke-width:3.2px;"/><path d="M1495.77,538.297l-211.98,-1.382l0.166,-25.475l211.98,1.382l-0.166,25.475Z" style="fill:#2b4e41;stroke:#2b4e41;stroke-width:3.2px;"/><path d="M1399.42,1052.34l334.494,127.545l-179.604,471.021l-334.494,-127.545l179.604,-471.021Z" style="fill:#69bac9;"/><path d="M1374.68,1117.21l334.252,128.197l-334.252,-128.197Z" style="fill:none;fill-rule:nonzero;stroke:#000;stroke-width:2.67px;"/><path d="M1368.11,1134.44l333.914,129.074l-333.914,-129.074Z" style="fill:none;fill-rule:nonzero;stroke:#000;stroke-width:2.67px;"/><path d="M1361.99,1150.49l333.917,129.074l-333.917,-129.074Z" style="fill:none;fill-rule:nonzero;stroke:#000;stroke-width:2.67px;"/><path d="M1355.88,1166.53l333.914,129.074l-333.914,-129.074Z" style="fill:none;fill-rule:nonzero;stroke:#000;stroke-width:2.67px;"/><path d="M1349.76,1182.58l333.913,129.074l-333.913,-129.074Z" style="fill:none;fill-rule:nonzero;stroke:#000;stroke-width:2.67px;"/><path d="M1343.64,1198.63l333.917,129.073l-333.917,-129.073Z" style="fill:none;fill-rule:nonzero;stroke:#000;stroke-width:2.67px;"/><path d="M1337.52,1214.67l333.914,129.077l-333.914,-129.077Z" style="fill:none;fill-rule:nonzero;stroke:#000;stroke-width:2.67px;"/><path d="M1331.4,1230.72l333.914,129.074l-333.914,-129.074Z" style="fill:none;fill-rule:nonzero;stroke:#000;stroke-width:2.67px;"/><path d="M1325.28,1246.77l333.917,129.074l-333.917,-129.074Z" style="fill:none;fill-rule:nonzero;stroke:#000;stroke-width:2.67px;"/><path d="M1319.17,1262.81l333.914,129.074l-333.914,-129.074Z" style="fill:none;fill-rule:nonzero;stroke:#000;stroke-width:2.67px;"/><path d="M1313.05,1278.86l333.914,129.074l-333.914,-129.074Z" style="fill:none;fill-rule:nonzero;stroke:#000;stroke-width:2.67px;"/><path d="M1269.23,1392.38l333.913,129.077l-333.913,-129.077Z" style="fill:none;fill-rule:nonzero;stroke:#000;stroke-width:2.67px;"/><path d="M1306.93,1294.9l333.913,129.074l-333.913,-129.074Z" style="fill:none;fill-rule:nonzero;stroke:#000;stroke-width:2.67px;"/><path d="M1263.11,1408.43l333.913,129.07l-333.913,-129.07Z" style="fill:none;fill-rule:nonzero;stroke:#000;stroke-width:2.67px;"/><path d="M1300.81,1310.95l333.913,129.073l-333.913,-129.073Z" style="fill:none;fill-rule:nonzero;stroke:#000;stroke-width:2.67px;"/><path d="M1256.99,1424.47l333.914,129.073l-333.914,-129.073Z" style="fill:none;fill-rule:nonzero;stroke:#000;stroke-width:2.67px;"/><path d="M1294.69,1327l333.913,129.073l-333.913,-129.073Z" style="fill:none;fill-rule:nonzero;stroke:#000;stroke-width:2.67px;"/><path d="M1250.87,1440.52l333.91,129.073l-333.91,-129.073Z" style="fill:none;fill-rule:nonzero;stroke:#000;stroke-width:2.67px;"/><path d="M1288.57,1343.04l333.914,129.073l-333.914,-129.073Z" style="fill:none;fill-rule:nonzero;stroke:#000;stroke-width:2.67px;"/><path d="M1244.75,1456.56l333.913,129.074l-333.913,-129.074Z" style="fill:none;fill-rule:nonzero;stroke:#000;stroke-width:2.67px;"/><path d="M1282.46,1359.09l333.91,129.073l-333.91,-129.073Z" style="fill:none;fill-rule:nonzero;stroke:#000;stroke-width:2.67px;"/><path d="M1238.63,1472.61l333.914,129.074l-333.914,-129.074Z" style="fill:none;fill-rule:nonzero;stroke:#000;stroke-width:2.67px;"/><path d="M1276.34,1375.13l333.914,129.073l-333.914,-129.073Z" style="fill:none;fill-rule:nonzero;stroke:#000;stroke-width:2.67px;"/><g><g><g transform="matrix(0.93438,0.356277,-0.356277,0.93438,12.0412,-12.3804)"><text x="1818.92px" y="540.369px" style="font-family:'ArialMT', 'Arial', sans-serif;font-size:16.389px;">todolist</text></g></g></g><path d="M1315.56,1121.88l-332.799,130.056l160.807,398.011l332.799,-130.056l-160.807,-398.011Z" style="fill:#fef7fa;fill-rule:nonzero;stroke:#facee1;stroke-width:2.67px;"/><path d="M1315.56,1121.88l-332.799,130.056l16.408,40.605l332.799,-130.053l-16.408,-40.608Z" style="fill:#fef7fa;fill-rule:nonzero;stroke:#facee1;stroke-width:2.67px;"/><path d="M1381.19,1284.31l-332.799,130.056l16.408,40.609l332.799,-130.057l-16.408,-40.608Z" style="fill:#fef7fa;fill-rule:nonzero;stroke:#facee1;stroke-width:2.67px;"/><path d="M1348.37,1203.09l-332.799,130.053l16.404,40.608l332.799,-130.052l-16.404,-40.609Z" style="fill:#fef7fa;fill-rule:nonzero;stroke:#facee1;stroke-width:2.67px;"/><path d="M1414,1365.53l-332.803,130.056l16.408,40.608l332.8,-130.056l-16.405,-40.608Z" style="fill:#fef7fa;fill-rule:nonzero;stroke:#facee1;stroke-width:2.67px;"/><path d="M1331.97,1162.48l-332.8,130.053l16.408,40.608l332.8,-130.052l-16.408,-40.609Z" style="fill:#fef7fa;fill-rule:nonzero;stroke:#facee1;stroke-width:2.67px;"/><path d="M1397.6,1324.92l-332.799,130.056l16.404,40.605l332.8,-130.056l-16.405,-40.605Z" style="fill:#fef7fa;fill-rule:nonzero;stroke:#facee1;stroke-width:2.67px;"/><path d="M1364.78,1243.7l-332.8,130.053l16.408,40.612l332.8,-130.056l-16.408,-40.609Z" style="fill:#fef7fa;fill-rule:nonzero;stroke:#facee1;stroke-width:2.67px;"/><path d="M1430.41,1406.14l-332.8,130.056l16.408,40.609l332.796,-130.056l-16.404,-40.609Z" style="fill:#fef7fa;fill-rule:nonzero;stroke:#facee1;stroke-width:2.67px;"/><path d="M1446.81,1446.75l-332.8,130.056l16.408,40.608l332.8,-130.056l-16.408,-40.608Z" style="fill:#fef7fa;fill-rule:nonzero;stroke:#facee1;stroke-width:2.67px;"/><g><clipPath id="_clip1"><path d="M1034.47,1231.72l160.804,398.015l5.183,-2.026l-160.803,-398.011l-5.184,2.022Z" clip-rule="nonzero"/></clipPath><g clip-path="url(#_clip1)"><path d="M1039.65,1229.7l-56.895,22.232l160.807,398.011l56.892,-22.232l-160.804,-398.011Z" style="fill:#facee1;fill-rule:nonzero;stroke:#facee1;stroke-width:2.67px;"/></g></g><path d="M1922.01,470.615c4.276,-5.35 3.404,-13.171 -1.95,-17.447l-106.408,-85.019c-5.354,-4.275 -13.172,-3.403 -17.447,1.951l-124.883,156.304c-4.28,5.354 -3.404,13.171 1.947,17.447l106.407,85.019c5.351,4.275 13.172,3.403 17.447,-1.951l124.887,-156.304Z" style="fill:#f7d365;fill-rule:nonzero;"/><path d="M1879.97,493.63c12.912,-16.155 10.274,-39.75 -5.881,-52.659l-39.864,-31.847c-16.155,-12.909 -39.751,-10.274 -52.659,5.881l-44.902,56.201c-12.908,16.155 -10.27,39.751 5.885,52.655l39.864,31.851c16.155,12.909 39.751,10.271 52.659,-5.884l44.898,-56.198Z" style="fill:#fff;fill-rule:nonzero;"/><path d="M1837.84,367.254l76.703,63.802l-17.293,20.791l-76.704,-63.802l17.294,-20.791Z" style="fill:#337494;stroke:#337494;stroke-width:2.67px;"/><path d="M1675.75,719.451l13.145,3.023l-2.995,13.027l-13.146,-3.023l2.996,-13.027Z" style="fill:#1d303a;"/><path d="M1699.06,708.224c0.665,-2.898 -1.147,-5.792 -4.045,-6.461l-16.041,-3.685c-2.894,-0.666 -5.792,1.146 -6.454,4.044l-2.417,10.502c-0.666,2.898 1.146,5.792 4.044,6.458l16.041,3.688c2.898,0.666 5.792,-1.146 6.458,-4.044l2.414,-10.502Z" style="fill:#2f535c;fill-rule:nonzero;"/><path d="M1750.87,763.213l10.002,13.869l-13.42,9.677l-10.001,-13.868l13.419,-9.678Z" style="fill:#1d303a;"/><path d="M1782.07,772.282c2.991,-2.153 3.664,-6.326 1.517,-9.313l-12.385,-17.173c-2.15,-2.987 -6.323,-3.667 -9.313,-1.513l-10.822,7.8c-2.987,2.154 -3.66,6.326 -1.51,9.313l12.382,17.177c2.15,2.987 6.322,3.663 9.313,1.509l10.818,-7.8Z" style="fill:#05487d;fill-rule:nonzero;"/><path d="M1757.5,864.596l1.285,-13.424l13.311,1.274l-1.285,13.424l-13.311,-1.274Z" style="fill:#1d303a;"/><path d="M1788.83,847.309c2.962,0.285 5.134,2.919 4.849,5.878l-1.573,16.383c-0.282,2.962 -2.916,5.133 -5.878,4.848l-10.726,-1.028c-2.962,-0.285 -5.134,-2.92 -4.849,-5.882l1.574,-16.379c0.281,-2.962 2.915,-5.133 5.877,-4.849l10.726,1.029Z" style="fill:#2f535c;fill-rule:nonzero;"/><path d="M1743.64,774.472c37.384,51.869 26.554,123.663 -24.165,160.224c-50.729,36.56 -122.263,24.136 -159.65,-27.732c-37.386,-51.866 -26.557,-123.659 24.169,-160.224c50.726,-36.561 122.26,-24.136 159.646,27.732" style="fill:#034a84;fill-rule:nonzero;"/><path d="M1731.38,783.311c32.791,45.493 23.727,108.149 -20.235,139.836c-43.955,31.683 -106.265,20.473 -139.056,-25.02c-32.791,-45.492 -23.723,-108.151 20.228,-139.835c43.962,-31.687 106.272,-20.477 139.063,25.019" style="fill:#fafafa;fill-rule:nonzero;"/><path d="M1690.11,790.425l-34.593,51.356l-8.177,-6.579l42.77,-44.777Z" style="fill:#044c85;fill-rule:nonzero;"/><path d="M1658.22,836.518c3.884,5.39 2.659,12.919 -2.731,16.803c-5.382,3.887 -12.915,2.663 -16.799,-2.723c-3.884,-5.39 -2.663,-12.92 2.723,-16.803c5.393,-3.888 12.919,-2.663 16.807,2.723" style="fill:#69bac9;fill-rule:nonzero;"/><path d="M1654.96,838.865c2.588,3.595 1.776,8.615 -1.823,11.203c-3.592,2.591 -8.612,1.776 -11.196,-1.816c-2.595,-3.595 -1.777,-8.615 1.815,-11.203c3.589,-2.592 8.608,-1.776 11.204,1.816" style="fill:#33515c;fill-rule:nonzero;"/><path d="M1591.05,875.471l-9.363,6.208" style="fill:none;fill-rule:nonzero;stroke:#000;stroke-width:2.67px;"/><path d="M1698.23,913.662l-6.137,-9.765" style="fill:none;fill-rule:nonzero;stroke:#000;stroke-width:2.67px;"/><path d="M1611.7,778.843l-6.144,-9.765" style="fill:none;fill-rule:nonzero;stroke:#000;stroke-width:2.67px;"/><path d="M67.289,1867.59c0,-0 90.758,-162.367 116.116,-200.266c8.358,-12.495 38.408,-22.203 36.026,-27.123c-2.381,-4.917 -61.683,9.989 -50.327,-2.385c12.414,-13.525 122.153,-64.931 124.798,-78.747c2.649,-13.816 -110.273,9.566 -108.917,-4.147c1.36,-13.717 109.903,-63.681 117.073,-78.145c7.17,-14.464 -94.428,5.586 -74.054,-8.647c32.499,-22.698 185.431,-108.162 269.033,-127.557c75.617,-17.54 155.325,3.88 232.601,11.192c86.094,8.149 202.897,20.21 283.975,37.683c69.519,14.984 149.255,36.61 202.501,67.158c47.657,27.348 92.014,91.331 116.97,116.155c10.954,10.893 20.192,41.744 32.766,32.769c19.505,-13.916 51.968,-87.187 84.264,-116.3c30.726,-27.7 70.718,-44.012 109.511,-58.376c48.231,-17.864 119.035,-36.28 179.892,-48.807c62.456,-12.859 129.569,-21.609 194.858,-28.348c66.696,-6.882 158.689,-10.531 205.328,-12.952c24.806,-1.285 51.314,-10.473 74.503,-1.562c58.02,22.292 241.611,113.139 273.622,135.321c22.35,15.486 -89.383,-15.262 -81.541,-2.211c7.847,13.051 127.038,66.454 128.611,80.512c1.57,14.059 -120.202,-10.003 -119.177,3.845c1.026,13.848 101.662,60.615 125.329,79.252c9.583,7.551 10.53,22.043 16.66,32.591c11.67,20.071 39.623,65.208 53.343,87.835c9.679,15.974 22.025,30.619 28.971,47.956c7.422,18.544 37.312,63.304 15.582,63.304c-195.684,-0 -1189.68,-63.304 -1189.68,-63.304l-153.303,-27.401l-77.597,51.41l-1120.62,76.831l-47.12,-37.536Z" style="fill:#fff;fill-rule:nonzero;"/><path d="M1233.78,1815.45c-0.342,-6.493 -5.892,-11.495 -12.389,-11.157l-1160.16,60.644c-6.496,0.346 -11.495,5.896 -11.156,12.393l1.231,23.538c0.338,6.493 5.888,11.495 12.385,11.157l1160.17,-60.647c6.497,-0.339 11.495,-5.889 11.153,-12.389l-1.228,-23.539Z" style="fill:#ca5142;fill-rule:nonzero;"/><path d="M1496.89,1815.45c0.341,-6.493 5.891,-11.495 12.385,-11.157l1160.17,60.644c6.497,0.346 11.495,5.896 11.157,12.393l-1.232,23.538c-0.341,6.493 -5.888,11.495 -12.385,11.157l-1160.17,-60.647c-6.497,-0.339 -11.495,-5.889 -11.154,-12.389l1.229,-23.539Z" style="fill:#ca5142;fill-rule:nonzero;"/><path d="M1365.3,1686.17c34.931,55.788 100.352,82.73 157.215,118.109c-92.477,85.863 -217.093,83.363 -306.395,-1.332c58.063,-25.001 113.997,-53.705 149.18,-116.777" style="fill:#a12b23;fill-rule:nonzero;"/><path d="M1192.56,1817.36c2.239,-6.525 25.767,-18.383 36.414,-13.079c18.356,9.153 41.816,36.248 60.473,44.759c26.398,12.047 97.444,10.958 129.038,4.112c31.994,-6.935 43.3,-16.283 59.117,-28.953c6.906,-5.539 10.367,-15.82 24.009,-19.918c18.098,-5.429 49.216,28.651 34.25,42.36c-13.229,12.111 -48.33,33.873 -65.34,39.565c-59.212,19.794 -132.551,26.212 -193.152,8.751c-30.876,-8.897 -56.914,-27.69 -75.981,-53.396c-5.115,-6.899 -11.619,-16.08 -8.828,-24.201" style="fill:#ca5142;fill-rule:nonzero;"/><path d="M302.059,1476.77c58.739,-0.259 289.784,6.302 391.382,12.738c73.097,4.635 157.165,17.013 218.201,25.895c49.651,7.223 101.306,9.05 148.009,27.39c66.564,26.141 335.444,136.949 251.379,129.455c-84.065,-7.483 -594.111,-144.193 -755.779,-174.385c-70.239,-13.122 -172.046,-3.271 -214.246,-6.785c-13.781,-1.15 -52.777,-14.244 -38.946,-14.308" style="fill:#cdcdcd;fill-rule:nonzero;"/><path d="M226.346,1639.1c47.009,-0.595 201.949,2.481 273.013,1.751c51.167,-0.523 103.453,-6.49 153.385,-6.127c48.817,0.364 98.215,6.44 146.214,8.327c47.238,1.862 94.589,0.381 141.787,3.008c87.382,4.867 408.665,22.649 382.517,26.191c-26.151,3.542 -414.283,-7.269 -539.409,-4.948c-70.718,1.31 -144.036,18.568 -211.347,18.871c-64.429,0.288 -132.523,-14.418 -192.53,-17.063c-55.788,-2.456 -134.342,1.018 -167.521,1.196c-10.52,0.057 -32.367,4.176 -31.563,-0.131c0.808,-4.312 28.829,-20.563 36.404,-25.743c2.891,-1.979 5.55,-5.286 9.05,-5.332" style="fill:#cdcdcd;fill-rule:nonzero;"/><path d="M366.326,1572.42c14.162,-1.95 183.025,0 250.372,0c51.235,0 102.666,-4.489 153.705,0c54.517,4.796 117.977,20.915 173.395,28.758c52.859,7.483 106.286,10.573 159.109,18.298c52.887,7.729 122.05,19.291 158.216,28.084c20.644,5.024 76.322,24.625 58.764,24.685c-17.558,0.064 -125.019,-18.07 -164.104,-24.325c-23.581,-3.777 -53.203,-11.011 -70.416,-13.211c-10.858,-1.392 -21.997,1.495 -32.844,0c-35.393,-4.888 -129.106,-21.089 -179.511,-29.306c-40.972,-6.685 -83.367,-16.66 -122.922,-20.024c-37.999,-3.24 -78.016,0.021 -114.41,-0.185c-34.646,-0.196 -69.33,0.576 -103.94,-1.065c-44.891,-2.129 -179.572,-9.758 -165.414,-11.709" style="fill:#cdcdcd;fill-rule:nonzero;"/><path d="M2414.26,1556.96c-43.806,-0.701 -159.583,11.481 -239.518,14.315c-87.152,3.082 -203.224,-0.154 -283.37,4.197c-66.14,3.592 -145.182,12.57 -197.485,21.908c-39.811,7.105 -115.261,30.377 -116.325,34.115c-1.065,3.738 73.513,-6.12 109.942,-11.687c37.18,-5.686 74.795,-19.335 113.143,-22.428c46.318,-3.738 116.471,1.801 164.787,-0c41.837,-1.559 83.296,-8.854 125.111,-10.798c43.232,-2.011 89.53,0.531 134.236,-1.271c45.934,-1.851 105.88,-8.198 141.344,-9.839c23.792,-1.1 63.435,3.086 71.459,-0c8.025,-3.087 -13.328,-18.352 -23.324,-18.512" style="fill:#cdcdcd;fill-rule:nonzero;"/><path d="M1379.71,1686.18c-5.575,1.755 11.84,1.389 17.515,0c22.72,-5.543 97.838,-24.944 118.799,-33.253c29.085,-11.531 80.01,-8.042 117.255,-6.789c35.699,1.199 70.569,12.004 106.218,14.311c36.871,2.385 76.718,-1.702 115.023,-0c45.727,2.025 106.115,10.235 159.351,12.168c55.823,2.029 124,0.06 175.577,-0c44.628,-0.054 89.259,-0.314 133.883,-0.363c58.914,-0.061 184.217,6.262 219.568,-0c12.453,-2.204 5.172,-36.821 -7.451,-37.537c-110.277,-6.258 -521.485,-1.815 -654.207,0c-47.504,0.652 -104.492,10.894 -142.117,10.894c-28.106,-0 -55.571,-9.181 -83.624,-10.894c-29.747,-1.815 -63.752,-5.802 -94.837,0c-45.967,8.576 -153.712,42.884 -180.953,51.463" style="fill:#cdcdcd;fill-rule:nonzero;"/><path d="M1465.34,1596.76c0.074,-2.467 103.929,-39.94 158.048,-54.208c56.923,-15.002 121.597,-27.476 183.505,-35.834c62.598,-8.448 128.023,-10.395 192.103,-14.853c76.777,-5.34 203.369,-14.318 268.538,-17.184c40.783,-1.79 98.821,-1.395 122.491,0c7.209,0.424 26.739,7.804 19.545,8.381c-33.382,2.666 -146.657,3.385 -219.842,7.611c-89.323,5.165 -244.256,17.088 -316.118,23.375c-38.54,3.364 -77.037,7.75 -115.058,14.321c-41.776,7.22 -90.636,18.509 -135.609,29.003c-48.872,11.396 -157.678,41.855 -157.603,39.388" style="fill:#cdcdcd;fill-rule:nonzero;"/></g></svg>