<?xml version="1.0" encoding="utf-8"?>
<!-- Generator: Adobe Illustrator 23.0.1, SVG Export Plug-In . SVG Version: 6.00 Build 0)  -->
<svg version="1.1" xmlns="http://www.w3.org/2000/svg" xmlns:xlink="http://www.w3.org/1999/xlink" x="0px" y="0px"
	 viewBox="0 0 1600 1600" style="enable-background:new 0 0 1600 1600;" xml:space="preserve">
<style type="text/css">
	.st0{display:none;}
	.st1{display:inline;fill:none;stroke:#23B3AB;stroke-miterlimit:10;}
	.st2{display:inline;fill:#0D3D3B;}
	.st3{display:inline;fill:none;}
	.st4{font-family:'MyriadPro-Bold';}
	.st5{font-size:52.402px;}
	.st6{display:inline;}
	.st7{fill:#C9E9EB;}
	.st8{display:inline;fill:#C9E9EB;}
	.st9{display:inline;fill:#F3B9A9;}
	.st10{display:inline;fill:none;stroke:#F3B9A9;stroke-linecap:round;stroke-linejoin:round;}
	.st11{display:inline;fill:#A9A9AA;}
	.st12{display:inline;fill:#13363D;}
	.st13{display:inline;fill:#9D786F;}
	.st14{display:inline;fill:#D64178;}
	.st15{clip-path:url(#SVGID_2_);fill:#FEEFD8;}
	.st16{fill:#F3CDC3;}
	.st17{fill:#F3B9A9;}
	.st18{fill:#D98E85;}
	.st19{fill:#13363D;}
	.st20{fill:#23205B;}
	.st21{clip-path:url(#SVGID_4_);fill:#C9E9EB;}
	.st22{clip-path:url(#SVGID_4_);fill:#EFB94D;}
	.st23{display:inline;fill:#F3CDC3;}
	.st24{display:inline;fill:#D98E85;}
	.st25{display:inline;fill:#582517;}
	.st26{clip-path:url(#SVGID_6_);fill:#C9E9EB;}
	.st27{clip-path:url(#SVGID_6_);fill:#763862;}
	.st28{fill:#8F3B26;}
	.st29{display:inline;fill:#3C1811;}
	.st30{display:inline;fill:#7F81BE;}
	.st31{clip-path:url(#SVGID_8_);fill:#C9E9EB;}
	.st32{clip-path:url(#SVGID_8_);fill:#FCEDDB;}
	.st33{display:inline;fill:#B6B7DC;}
	.st34{display:inline;fill:#23205B;}
	.st35{display:inline;fill:#12122B;}
	.st36{display:inline;fill:#E9A7CB;}
	.st37{display:inline;fill:#AA809B;}
	.st38{display:inline;fill:#C191AE;}
	.st39{clip-path:url(#SVGID_10_);fill:#C9E9EB;}
	.st40{clip-path:url(#SVGID_10_);fill:#A8C0E3;}
	.st41{display:inline;fill:#F9F8F7;}
	.st42{display:inline;fill:#E96C43;}
	.st43{display:inline;fill:#E44C25;}
	.st44{display:inline;fill:#FFD150;}
	.st45{display:inline;fill:#FFC534;}
	.st46{clip-path:url(#SVGID_12_);fill:#C9E9EB;}
	.st47{clip-path:url(#SVGID_12_);fill:#EFB94D;}
	.st48{fill:#9D786F;}
	.st49{clip-path:url(#SVGID_14_);fill:#C9E9EB;}
	.st50{clip-path:url(#SVGID_14_);fill:#8AAFDB;}
	.st51{clip-path:url(#SVGID_16_);fill:#C9E9EB;}
	.st52{clip-path:url(#SVGID_16_);fill:#EFB94D;}
	.st53{fill:#A179AA;}
	.st54{fill:#3E2544;}
	.st55{display:inline;fill:#231528;}
	.st56{display:inline;fill:#A179AA;}
	.st57{clip-path:url(#SVGID_18_);fill:#C9E9EB;}
	.st58{clip-path:url(#SVGID_18_);fill:#5E313C;}
	.st59{display:inline;fill:#3B221C;}
	.st60{display:inline;fill:#010101;}
	.st61{display:inline;fill:#8A3F30;}
	.st62{clip-path:url(#SVGID_20_);fill:#C9E9EB;}
	.st63{clip-path:url(#SVGID_20_);fill:#4C534C;}
	.st64{clip-path:url(#SVGID_22_);fill:#C9E9EB;}
	.st65{clip-path:url(#SVGID_22_);fill:#4C534C;}
	.st66{clip-path:url(#SVGID_22_);fill:#F37728;}
	.st67{display:inline;fill:#AA7A54;}
	.st68{display:inline;fill:#BE8862;}
</style>
<g id="Layer_1" class="st0">
</g>
<g id="Ref">
</g>
<g id="Layer_3" class="st0">
	<rect x="64.08" y="40.69" class="st1" width="701.94" height="1491.63"/>
	<circle class="st2" cx="647.6" cy="1268.66" r="66.02"/>
	<circle class="st2" cx="163.43" cy="1268.66" r="66.02"/>
	<rect x="121.81" y="585.67" class="st3" width="577.83" height="159.31"/>
	<text transform="matrix(1 0 0 1 200.1499 622.8745)" class="st2 st4 st5">Choose your avatar</text>
	<g class="st6">
		<circle class="st7" cx="189.63" cy="753.99" r="71.23"/>
		<circle class="st7" cx="420.19" cy="753.99" r="71.23"/>
		<circle class="st7" cx="650.76" cy="753.99" r="71.23"/>
	</g>
	<g class="st6">
		<circle class="st7" cx="189.63" cy="923.77" r="71.23"/>
		<circle class="st7" cx="420.19" cy="923.77" r="71.23"/>
		<circle class="st7" cx="650.76" cy="923.77" r="71.23"/>
	</g>
	<circle class="st8" cx="189.63" cy="1095.65" r="71.23"/>
	<circle class="st8" cx="420.19" cy="1095.65" r="71.23"/>
	<circle class="st8" cx="420.19" cy="1265.43" r="71.23"/>
	<circle class="st8" cx="650.76" cy="1095.65" r="71.23"/>
</g>
<g id="Blue_Bg">
</g>
<g id="Blue_Bg_copy_5">
	<circle class="st7" cx="800" cy="800" r="486.38"/>
</g>
<g id="Blue_Bg_copy_11">
</g>
<g id="Blue_Bg_copy_10">
</g>
<g id="Blue_Bg_copy_9">
</g>
<g id="Blue_Bg_copy_8">
</g>
<g id="Blue_Bg_copy_4">
</g>
<g id="Blue_Bg_copy_6">
</g>
<g id="Blue_Bg_copy_7">
</g>
<g id="Blue_Bg_copy_3">
</g>
<g id="Blue_Bg_copy_2">
</g>
<g id="Blue_Bg_copy">
</g>
<g id="Layer_6">
</g>
<g id="Example" class="st0">
	<path class="st9" d="M736.75,502.52c-18.09,19.23-36.47,38.78-49.15,60.91c-11.22,19.59-18.82,41.06-21.67,62.71
		c-3.62,27.5,5.12,108.93,24.79,134.51c15.38,20,39.65,34.84,64.17,46.56c18.01,8.6,53.25,10.63,73.58,7.52
		c90.09-13.77,115.07-108.48,118-168.34c1.66-33.91-8.88-78.44-26.45-108.93c-15.09-26.18-47.99-47.1-81.5-53.49
		C804.66,477.52,768.58,490.8,736.75,502.52z"/>
	<path class="st10" d="M736.75,502.52c-18.09,19.23-36.47,38.78-49.15,60.91c-11.22,19.59-18.82,41.06-21.67,62.71
		c-3.62,27.5,5.12,108.93,24.79,134.51c15.38,20,39.65,34.84,64.17,46.56c18.01,8.6,53.25,10.63,73.58,7.52
		c90.09-13.77,115.07-108.48,118-168.34c1.66-33.91-8.88-78.44-26.45-108.93c-15.09-26.18-47.99-47.1-81.5-53.49
		C804.66,477.52,768.58,490.8,736.75,502.52z"/>
	<path class="st9" d="M735.14,769.29c-7.3,31.25-24.82,80.72-51.67,85.35c-247.1,42.73-243.75,127.28,128.09,389.87
		c37.25,26.31,247.66-185.94,269.53-230.59c61.34-125.23-173.05-154.98-174.87-170.06c-3.19-26.41,5.12-100.56-16.57-106.82
		C831.64,720.31,791.87,747.15,735.14,769.29z"/>
	<path class="st10" d="M735.14,769.29c-7.3,31.25-24.82,80.72-51.67,85.35c-247.1,42.73-243.75,127.28,128.09,389.87
		c37.25,26.31,247.66-185.94,269.53-230.59c61.34-125.23-173.05-154.98-174.87-170.06c-3.19-26.41,5.12-100.56-16.57-106.82
		C831.64,720.31,791.87,747.15,735.14,769.29z"/>
	<path class="st11" d="M733.87,412.54c-9.51-12.09-34.13,0.21-48.87,6.82c-31.12,13.97-62.34,51.18-67.01,82.1
		c-1.57,10.36,6.87,21.3,3.22,31.22c-4.42,12.01-19.96,18.55-25.78,30.06c-10.06,19.92,3.22,52.91-18.04,69.38
		c-13.1,10.15-18.56-5.15-31.03,4.79c-7.14,5.69-18.25,17.48-11.5,23.54c6.35,5.7,34.5-26.07,41.24-12.14
		c4.51,9.33-6.75,7.16-7.09,17.34c-0.33,9.75,0.25,20.19,5.15,28.91c5.59,9.92,18.04-4.93,23.84,0.58
		c17.33,16.45,7.53,42.35,42.33,47.62c7.68,1.16,10.61-8.67,14.38-10.62c2.94-1.52,26.52,1.99,26.42,1.16
		c-4.52-37.23-24.65-79.05-10.91-116.06c5.68-15.29,11.51-31.17,17.35-46.4c3.52-9.18,12.16-18.11,22.05-22.62
		c21.82-9.94,52.47-55.53,59.28-56.57c27.73-4.21,42.16-3.81,66.24,2.87c14.92,4.14,32-1.14,46.69,3.64
		c33.01,10.75,21.91,33.31,20.97,54.75c-0.58,13.31,9.62,10.71,8.37,24.86c-1.75,20.02-9.36,21.31-3.81,42.09
		c5.48,20.51,20.41,14.13,24.27,34.31c5.92,30.94-10.11,42.78,1.45,72.19c1.59,4.03,9.59,13.62,11.3,11.99
		c14.31-13.69,13.33-12.2,33.81-15.46c7.92-1.26,17.17,0.57,23.84-3.47c11.4-6.9,3.27-25.25,10.31-35.84
		c3.72-5.59,17.27-2.27,21.91-3.47c14.81-3.82,38.21-19.59,30.93-38.15c-2.48-6.31-12.35-7.9-16.76-13.3
		c-4.6-5.64-4.95-13.52-9.67-19.08c-9.17-10.81-16.91-3.55-21.91-17.34c-4.99-13.79,5.59-12.82,3.23-27.18
		c-3.97-24.12-10.33-48.8-23.84-69.96c-8.39-13.14-38.53-24.15-48.97-34.69c-6.84-6.89-8.15-17.26-14.82-24.28
		c-21.23-22.37-62.05-51.77-97.3-49.14c-18.03,1.34-34.91,8.51-52.2,13.3c-14.09,3.9-27.59,9.47-41.89,12.71
		c-5.41,1.23-12.8-2.96-16.75,0.58"/>
	<path class="st11" d="M736.47,408.64c1.25,0.16,2.46,0.21,3.58-0.05c14.22-3.23,27.67-8.79,41.68-12.67
		c17.57-4.86,34.75-12.08,53.07-13.45c36.51-2.72,78.93,27.38,100.92,50.54c3.68,3.87,5.94,8.62,8.17,13.4
		c1.8,3.86,3.54,7.74,6.59,10.82c6.08,6.14,19.11,12.34,30.26,19.16c8.33,5.09,15.66,10.56,19.31,16.28
		c13.85,21.68,20.43,46.94,24.49,71.66c1.17,7.08-0.27,11.13-1.96,14.54c-1.58,3.19-3.78,5.45-1.47,11.83
		c0.89,2.44,1.82,4.04,2.92,5.1c1.73,1.64,3.77,1.97,5.94,2.69c3.74,1.25,7.86,2.99,12.25,8.16c2.7,3.19,4.23,7,5.66,10.87
		c1.08,2.9,2.07,5.85,4.05,8.28c2.35,2.88,6.55,4.38,9.92,6.45c3.42,2.11,6.2,4.64,7.53,8.06c3.53,9,1.28,17.48-4.05,24.69
		c-7.2,9.74-20.25,16.99-29.96,19.49c-2.55,0.66-7.55,0.21-12.42,0.23c-1.81,0.01-3.6,0.1-5.13,0.5c-0.7,0.19-1.38,0.33-1.73,0.86
		c-1.7,2.56-2.18,5.7-2.44,8.96c-0.32,4.09-0.21,8.36-0.62,12.29c-0.68,6.67-2.82,12.41-8.68,15.96c-3.97,2.4-8.66,3.18-13.57,3.42
		c-3.97,0.2-8.1,0.04-11.91,0.64c-9.67,1.54-14.28,1.86-18.15,3.51c-3.75,1.59-6.7,4.49-13.24,10.75c-1.07,1.02-2.43,1.57-4.13,1.42
		c-1.17-0.11-2.93-0.78-4.77-2.31c-3.54-2.92-8.44-9.42-9.73-12.71c-6.18-15.72-5.04-26.73-3.09-37.95
		c1.74-10.04,4.23-20.26,1.4-35.05c-1.61-8.44-5.61-11.28-9.71-14.2c-5.6-3.99-11.36-8.08-14.49-19.79
		c-3.66-13.73-2.08-19.74,0.16-27.1c1.29-4.22,2.86-8.96,3.52-16.55c0.59-6.68-2.27-8.53-4.39-11.28c-2.31-2.99-4.29-6.54-4-13.39
		c0.29-6.52,1.49-13.14,2.14-19.51c0.66-6.43,0.84-12.58-1.85-17.93c-2.66-5.28-8.14-9.55-18.14-12.81
		c-6.86-2.23-14.29-2.03-21.74-1.84c-8.42,0.22-16.87,0.44-24.76-1.74c-23.27-6.45-37.27-6.85-63.95-2.82
		c-0.64,0.57-5.38,4.86-9.38,9.38c-13.08,14.79-33.4,39.74-49.11,46.89c-8.82,4.02-16.56,11.95-19.7,20.12
		c-5.84,15.23-11.65,31.09-17.33,46.36c-6.59,17.72-4.92,36.6-1.2,55.5c3.9,19.85,10.08,39.73,12.36,58.44
		c0.11,0.93-0.38,5.13-5.07,5.2c-2.68,0.03-13.1-1.28-20.03-1.61c-1.5-0.07-3.35-0.01-4.02,0.02c-0.34,0.3-0.63,0.76-0.99,1.22
		c-0.96,1.22-1.95,2.64-3.07,3.96c-3.15,3.73-7.18,6.54-12.79,5.69c-19.63-2.97-26.59-11.89-31.17-22.26
		c-3.84-8.68-5.41-18.78-13.59-26.55c-0.19-0.18-0.44-0.02-0.7,0.01c-0.48,0.07-0.98,0.19-1.5,0.35c-2.58,0.8-5.41,2.21-8.09,3.01
		c-3.23,0.97-6.35,1.12-9.04-0.03c-1.99-0.83-3.84-2.35-5.33-4.99c-5.31-9.43-6.09-20.72-5.74-31.28c0.2-5.77,2.8-8.77,5.52-11.1
		c1-0.85,2.13-1.4,2.66-2.35c0.05-0.1-0.06-0.21-0.1-0.37c-0.11-0.42-0.29-0.87-0.54-1.4c-0.62-1.28-1.85-1.11-3.21-0.76
		c-3.31,0.83-7.17,3.14-11.06,5.6c-6.46,4.09-12.95,8.61-17.38,9.98c-3.68,1.13-6.57,0.48-8.53-1.28
		c-4.25-3.82-4.56-9.01-2.01-14.52c2.69-5.83,8.96-12.12,13.71-15.91c6.51-5.19,11.57-5.05,16.38-3.93
		c4.38,1.01,8.47,3.92,14.69-0.9c9.51-7.37,10.94-18.58,11.47-30.04c0.63-13.46,0.01-27.34,5.31-37.81
		c3.16-6.24,8.85-11.22,14.45-16.19c4.58-4.06,9.16-8.06,11.12-13.39c1.5-4.08,0.26-8.35-0.94-12.68
		c-1.63-5.89-3.39-11.87-2.5-17.66c4.87-32.19,37.24-71.02,69.63-85.55c9.18-4.11,22.06-10.28,33-11.9
		C724.42,402.11,731.67,403.48,736.47,408.64z M943.65,732.8c12.9-12.25,13.08-11.07,33.82-14.37c4.12-0.66,8.58-0.53,12.88-0.74
		c3.36-0.17,6.63-0.49,9.33-2.13c4.35-2.63,4.41-7.67,4.61-12.85c0.3-7.61,0.32-15.68,4.27-21.63c2.17-3.27,6.41-4.94,11.42-5.3
		c4.86-0.34,10.49,0.64,13.12-0.05c8.06-2.08,18.96-8.02,24.94-16.11c3.47-4.68,5.2-10.16,2.9-16.01c-0.87-2.23-3.29-3.37-5.65-4.7
		c-3.84-2.14-7.86-4.28-10.4-7.39c-2.62-3.21-4.1-7.02-5.53-10.85c-1.07-2.88-2.07-5.78-4.08-8.16c-3.83-4.52-7.43-5.14-10.53-6.19
		c-4.78-1.63-8.97-3.65-12.19-12.54c-2.57-7.12-1.74-11.19-0.25-14.7c1.47-3.45,4.45-6,3.26-13.28
		c-3.87-23.53-10.01-47.62-23.19-68.25c-3.9-6.11-12.99-11.53-22.17-16.84c-10.28-5.94-20.78-11.62-26.21-17.1
		c-3.79-3.82-6.12-8.57-8.36-13.37c-1.81-3.89-3.53-7.83-6.53-10.98c-20.49-21.58-59.67-50.28-93.69-47.75
		c-17.73,1.33-34.32,8.45-51.33,13.15c-14.15,3.91-27.73,9.51-42.09,12.77c-3.21,0.73-7.02,0.02-10.59-0.52
		c-0.95-0.14-1.88-0.27-2.75-0.25c-0.52,0.01-1.02-0.03-1.38,0.3c-1.86,1.66-4.72,1.51-6.39-0.34c-1.17-1.3-1.44-3.08-0.87-4.61
		c-0.85,0.07-1.72,0.17-2.6,0.3c-10.17,1.5-22.09,7.37-30.62,11.2c-29.85,13.39-59.9,48.99-64.4,78.65
		c-0.69,4.57,0.99,9.24,2.29,13.89c1.72,6.21,2.86,12.37,0.71,18.21c-2.45,6.68-7.86,11.95-13.6,17.04
		c-4.73,4.19-9.71,8.24-12.38,13.5c-4.78,9.44-3.78,22.02-4.35,34.15c-0.66,14.14-3.22,27.66-14.97,36.76
		c-3.78,2.93-7.08,4.19-10.09,4.53c4.37-0.17,7.9,1.55,10.1,6.12c1.42,2.92,1.67,5.17,1.44,6.95c-0.28,2.17-1.26,3.87-2.72,5.37
		c-0.8,0.81-1.76,1.57-2.76,2.4c-1.2,1-2.52,2.2-2.61,4.74c-0.3,8.94,0.08,18.54,4.58,26.53c0.28,0.5,0.55,0.89,0.91,1.07
		c0.65,0.33,1.4,0.12,2.18-0.07c1.91-0.44,3.9-1.36,5.85-2.14c2.2-0.87,4.36-1.58,6.31-1.79c2.96-0.31,5.59,0.38,7.76,2.44
		c7.48,7.11,10.41,15.77,13.48,24.06c2.26,6.12,4.55,12.02,10.14,16.3c3.72,2.86,8.87,4.94,16.27,6.06
		c1.28,0.19,2.24-0.37,3.07-1.09c0.96-0.83,1.78-1.88,2.55-2.89c2.07-2.71,4.05-5.17,6-6.19c0.86-0.45,2.78-0.89,5.41-0.89
		c4.23-0.01,12.62,0.72,17.84,1.23c-2.66-16.91-8.01-34.67-11.49-52.4c-4.04-20.57-5.57-41.11,1.6-60.4
		c5.68-15.3,11.52-31.19,17.37-46.44c3.9-10.18,13.44-20.12,24.4-25.12c14.84-6.76,33.72-30.67,46.08-44.65
		c4.06-4.59,7.49-8.19,9.9-10.07c1.79-1.38,3.37-2.03,4.49-2.2c28.52-4.33,43.37-3.88,68.13,2.98c7.04,1.95,14.59,1.61,22.11,1.42
		c8.49-0.22,16.95-0.27,24.77,2.29c11.16,3.63,17.74,8.62,21.6,14.26c3.97,5.8,5.16,12.39,5.03,19.44
		c-0.16,8.14-2.16,16.94-2.54,25.55c-0.28,6.41,2.84,8.09,4.94,10.96c2.23,3.06,4.06,6.84,3.43,14.09
		c-0.74,8.43-2.45,13.71-3.88,18.4c-1.83,6.02-3.07,10.92-0.07,22.13c2.35,8.8,6.8,11.77,11,14.76c5.7,4.06,11.1,8.12,13.34,19.86
		c3.09,16.16,0.53,27.33-1.37,38.29c-1.7,9.79-2.79,19.4,2.6,33.09C938.02,726.57,941.65,730.64,943.65,732.8z M568.9,640.33
		c-1.92,0.08-3.73-0.19-5.49-0.58c-1.72-0.38-3.38-0.94-5.07-1.37c-2.7-0.68-5.49-0.84-9.16,2.08c-3.81,3.04-8.98,7.96-11.14,12.64
		c-0.57,1.23-1.09,2.42-0.63,3.38c0.72-0.23,2.07-0.7,3.1-1.25c5.13-2.68,11.74-7.63,17.82-10.98
		C562.12,642.16,565.78,640.7,568.9,640.33z"/>
	<path class="st12" d="M810.92,605.03c0,0-15.99,36.74-15.99,52.48c0,8.82,7.16,15.99,15.99,15.99c8.82,0,15.99-7.16,15.99-15.99
		C826.91,641.76,810.92,605.03,810.92,605.03z"/>
	<path class="st12" d="M761.98,708.39c-3.63,10.8,5.13,23.51,19.56,28.35c14.43,4.84,29.08,0.01,32.72-10.79
		c-7.19,1.19-17.68,0.6-28.11-2.91C775.72,719.54,766.99,713.67,761.98,708.39z"/>
	<path class="st12" d="M756.32,571.5c5.51,0,9.97,4.35,9.97,9.71c0,5.36-4.47,9.71-9.97,9.71s-9.98-4.35-9.98-9.71
		C746.34,575.86,750.81,571.5,756.32,571.5z"/>
	<path class="st12" d="M869.18,567.25c5.51,0,9.97,4.35,9.97,9.71c0,5.36-4.47,9.71-9.97,9.71c-5.51,0-9.98-4.35-9.98-9.71
		C859.2,571.6,863.67,567.25,869.18,567.25z"/>
	<path class="st13" d="M731.76,800.35c0.14,19.35,37.49,34.79,83.37,34.45c45.87-0.34,82.99-16.32,82.86-35.66
		c-19.35,5.94-49.88,10.88-83.03,11.12C781.8,810.51,751.2,806.02,731.76,800.35z"/>
	<path class="st14" d="M1054.04,918.77c2.9-31.46-54.57,11.37-61.03,25.37c-16.77,36.33,45.02,80.34,78.59,69.15
		c9.12-3.04,39.7-44.97,33.01-55.01c-5.74-8.6-20.94-8.46-28.3-17.29c-11.91-14.3-2.97-29.87-28.29-29.87"/>
	<path class="st14" d="M1055.89,907.21c4.53,0.78,7.67,2.27,10,4.14c3.61,2.91,5.42,6.88,6.92,11.57c1.46,4.58,2.66,9.99,6.98,15.18
		c3.96,4.76,10.59,6.37,16.26,8.76c5.08,2.14,9.55,4.77,12.32,8.92c1.29,1.93,1.91,4.56,1.64,7.76c-0.28,3.41-1.62,7.7-3.74,12.36
		c-5.28,11.6-15.46,25.86-23.36,34.12c-3.95,4.13-7.56,6.8-9.88,7.57c-8.84,2.94-19.46,2.52-30.24-0.56
		c-15.52-4.43-31.4-14.33-42.39-26.61c-12.89-14.41-18.94-32.03-11.49-48.18c1.97-4.27,8.16-11.12,16.18-17.84
		c11.69-9.81,27.18-19.43,37.54-21.13c5.12-0.84,9.27,0.13,12.06,2.66C1055.11,906.3,1055.51,906.73,1055.89,907.21z
		 M1043.64,912.27c-1.9,0.36-4,1.05-6.23,1.98c-9.52,3.96-20.99,12.06-29.46,19.62c-5.29,4.72-9.44,9.14-10.83,12.16
		c-5.97,12.92-0.3,26.82,10.01,38.35c9.89,11.06,24.18,19.97,38.14,23.95c8.88,2.53,17.62,3.1,24.9,0.68
		c1.51-0.51,3.62-2.55,6.2-5.25c7.33-7.66,16.78-20.86,21.66-31.62c1.38-3.02,2.39-5.82,2.81-8.21c0.23-1.31,0.48-2.41,0-3.15
		c-2.39-3.58-6.91-5.07-11.44-6.86c-6.14-2.42-12.41-5.05-16.57-10.04c-5.21-6.25-6.88-12.68-8.65-18.21
		c-0.93-2.88-1.76-5.49-3.98-7.28c-0.46-0.37-0.98-0.71-1.56-1c-0.02,0.58-0.05,1.17-0.11,1.78c-0.23,2.48-2.43,4.31-4.92,4.09
		c-2.48-0.23-4.32-2.44-4.09-4.92c0.09-1.01,0.15-1.89,0.13-2.67c-0.53-0.02-1.07-0.03-1.64-0.03
		C1045.92,915.65,1044.15,914.21,1043.64,912.27z"/>
</g>
<g id="F_x5F_Blue_hair_short" class="st0">
	<path class="st13" d="M1393.76,994.35"/>
	<g class="st6">
		<g>
			<defs>
				<ellipse id="SVGID_1_" cx="808.01" cy="1188.42" rx="325.48" ry="259.68"/>
			</defs>
			<clipPath id="SVGID_2_">
				<use xlink:href="#SVGID_1_"  style="overflow:visible;"/>
			</clipPath>
			<circle class="st15" cx="800.3" cy="799.96" r="486.38"/>
		</g>
		<path class="st16" d="M866.94,1030.48c-11.11,9.96-43.77,23.03-74,20.9c-30.58-2.15-60.34-20.9-60.34-20.9
			c-24.98-19.99-23.84-43.92-23.84-50.89l7.97-141.82c0-6.97,7.14-12.68,15.87-12.68h134.33c8.73,0,15.87,5.71,15.87,12.68
			l7.96,145.46C890.77,990.19,886.22,1013.21,866.94,1030.48z"/>
		<path class="st17" d="M827.51,907.77c-11.27,8.67-32.76,26.7-45.5,34.13c-22.05,12.86-48.22,24.24-48.22,24.24l-23.32,9.1
			l0.57-17.06l5.69-121.14c0,0,6.7-2.06,12.96-2.06h142.18c6.26,0,11.38,5.12,11.38,11.38S842.3,896.4,827.51,907.77z"/>
		<ellipse class="st16" cx="806.59" cy="669.24" rx="159.25" ry="205.89"/>
		<path class="st18" d="M811.05,672.66c0,0-12.88,29.6-12.88,42.28c0,7.11,5.77,12.88,12.88,12.88c7.11,0,12.88-5.77,12.88-12.88
			C823.93,702.25,811.05,672.66,811.05,672.66z"/>
		<path class="st18" d="M760.91,760.64c-4.13,12.28,5.84,26.74,22.25,32.25c16.41,5.51,40.76-10.17,44.89-22.45
			c-8.18,1.36-27.79,10.85-39.65,6.87C776.53,773.33,766.6,766.66,760.91,760.64z"/>
		<path class="st19" d="M748.94,654.46c6.26,0,11.34,4.95,11.34,11.04c0,6.1-5.08,11.05-11.34,11.05c-6.26,0-11.35-4.95-11.35-11.05
			C737.59,659.41,742.68,654.46,748.94,654.46z"/>
		<path class="st19" d="M868.02,655.12c6.26,0,11.34,4.95,11.34,11.04c0,6.1-5.08,11.04-11.34,11.04c-6.26,0-11.35-4.94-11.35-11.04
			C856.67,660.08,861.75,655.12,868.02,655.12z"/>
		<ellipse class="st17" cx="670.09" cy="736.36" rx="54.86" ry="54.6"/>
		<ellipse class="st17" cx="956.74" cy="736.36" rx="54.86" ry="54.6"/>
		<path class="st20" d="M719.74,451.18c-10.81-13.75-38.82,0.23-55.6,7.75c-35.4,15.89-70.91,58.22-76.23,93.39
			c-1.79,11.78,7.82,24.23,3.66,35.52c-5.03,13.66-22.7,21.1-29.32,34.19c-11.45,22.65,3.66,60.18-20.52,78.92
			c-14.9,11.55-21.11-5.86-35.29,5.45c-8.12,6.47-20.76,19.89-13.08,26.78c7.23,6.49,39.25-29.66,46.91-13.81
			c5.13,10.61-7.68,8.15-8.06,19.73c-0.38,11.09,0.28,22.97,5.86,32.88c6.35,11.29-34.06,18.97-19.52,71.02
			c19.71,18.71,44.59,32.68,84.18,38.68c8.73,1.32,84.68,46.05,83.29,20.75c28.69,18.48,23.08-34.52,9.1-50.05
			c-20.48-22.75,13.65-13.65-6.83-63.7c-29.58-43.23-36.4-40.95-34.13-93.28c13.65-43.23,27.62-57.77,20.48-68.25
			c4-10.44,6.27-16.51,17.52-21.64c24.82-11.3,59.68-63.17,67.43-64.34c31.54-4.79,47.96-4.33,75.35,3.26
			c16.97,4.71,36.4-1.3,53.11,4.14c37.55,12.22,24.92,37.89,23.85,62.28c-0.66,15.14,10.94,12.18,9.53,28.28
			c-1.99,22.77-10.65,24.24-4.33,47.88c6.23,23.33,23.21,16.07,27.61,39.03c3.03,15.85-15.58,38.14-17.52,48.99
			c-2.38,13.24-25.43,15.74-18.2,34.13c0.89,2.26,15.29,15.75,15.93,34.13c0.65,18.88,12.66,55.54,13.65,54.6
			c27.3,25.03,73.69-16.2,98.71-57.15c9.01-1.43,33.36-29.53,40.95-34.13c12.97-7.85,12.46-49.37,20.48-61.43
			c4.24-6.36-42.54,11.73-37.26,10.36c16.85-4.34,43.47-22.28,35.19-43.4c-2.82-7.18-14.05-8.99-19.06-15.13
			c-5.23-6.41-5.63-15.38-11-21.7c-10.43-12.29-19.24-4.04-24.92-19.73c-5.67-15.69,6.35-14.58,3.67-30.91
			c-4.51-27.44-11.75-55.5-27.12-79.58c-9.55-14.94-43.82-27.47-55.71-39.46c-7.78-7.84-9.27-19.63-16.86-27.62
			c-24.15-25.44-70.58-58.89-110.68-55.9c-20.51,1.52-39.72,9.68-59.38,15.13c-16.02,4.43-31.39,10.78-47.64,14.46
			c-6.16,1.4-14.56-3.37-19.05,0.66"/>
	</g>
</g>
<g id="F_x5F_Black_hair_long" class="st0">
	<path class="st6" d="M573,1019.88C573,856.43,602,736,625,608c20.15-112.16,119.89-177,185-177c63.43,0,158.32,50.93,181,158
		c25,118,56,263.27,56,430.88c0,0-20.29,24.19-42.72,11.19c-4.53-2.62-14.49,1.41-15.75,1.46c-20.49,0.67-40.83-3.98-50.65-21.8
		c-18.17-32.96-18.6-25.28-34.92,12.2c-32.18,73.9-180.7-6.1-180.7-6.1s-11.35-46.79-36.66-6.1c-8.08,12.99-39.28,0-39.28,0
		s-4.72-44.27-26.19-12.2C609.63,1014.22,573,1019.88,573,1019.88z"/>
	<path class="st13" d="M1393.76,994.35"/>
	<g class="st6">
		<defs>
			<ellipse id="SVGID_3_" cx="808.01" cy="1188.42" rx="325.48" ry="259.68"/>
		</defs>
		<clipPath id="SVGID_4_">
			<use xlink:href="#SVGID_3_"  style="overflow:visible;"/>
		</clipPath>
		<circle class="st21" cx="800" cy="800" r="486.38"/>
		<circle class="st22" cx="800.3" cy="799.96" r="486.38"/>
	</g>
	<path class="st23" d="M866.94,1030.48c-11.11,9.96-43.77,23.03-74,20.9c-30.58-2.15-60.34-20.9-60.34-20.9
		c-24.98-19.99-23.84-43.92-23.84-50.89l7.97-141.82c0-6.97,7.14-12.68,15.87-12.68h134.33c8.73,0,15.87,5.71,15.87,12.68
		l7.96,145.46C890.77,990.19,886.22,1013.21,866.94,1030.48z"/>
	<path class="st9" d="M827.51,907.77c-11.27,8.67-32.76,26.7-45.5,34.13c-22.05,12.86-48.22,24.24-48.22,24.24l-23.32,9.1
		l0.57-17.06l5.69-121.14c0,0,6.7-2.06,12.96-2.06h142.18c6.26,0,11.38,5.12,11.38,11.38S842.3,896.4,827.51,907.77z"/>
	<ellipse class="st23" cx="806.59" cy="669.24" rx="159.25" ry="205.89"/>
	<path class="st24" d="M811.05,672.66c0,0-12.88,29.6-12.88,42.28c0,7.11,5.77,12.88,12.88,12.88c7.11,0,12.88-5.77,12.88-12.88
		C823.93,702.25,811.05,672.66,811.05,672.66z"/>
	<path class="st24" d="M760.91,760.64c-4.13,12.28,5.84,26.74,22.25,32.25c16.41,5.51,40.76-10.17,44.89-22.45
		c-8.18,1.36-27.79,10.85-39.65,6.87C776.53,773.33,766.6,766.66,760.91,760.64z"/>
	<path class="st12" d="M748.94,654.46c6.26,0,11.34,4.95,11.34,11.04c0,6.1-5.08,11.05-11.34,11.05c-6.26,0-11.35-4.95-11.35-11.05
		C737.59,659.41,742.68,654.46,748.94,654.46z"/>
	<path class="st12" d="M868.02,655.12c6.26,0,11.34,4.95,11.34,11.04c0,6.1-5.08,11.04-11.34,11.04c-6.26,0-11.35-4.94-11.35-11.04
		C856.67,660.08,861.75,655.12,868.02,655.12z"/>
	<ellipse class="st9" cx="711.26" cy="711.15" rx="24.26" ry="24.15"/>
	<ellipse class="st9" cx="897.26" cy="711.15" rx="24.26" ry="24.15"/>
	<path class="st6" d="M621,650c0-106.59,90.55-219,189.97-219S991,517.41,991,624c0,0-15.41,7.93-32.45,3.67
		c-3.44-0.86-12.94-11.46-19.27-24.67c-8.4-17.53-13.56-38.71-14.59-38.67c-1.25,0.05,1.25,20.19,7.96,38
		c5.06,13.43,14.89,25.8,13.94,25.81c-15.56,0.22-31.01-1.3-38.47-7.14c-13.8-10.8-26.52-66-26.52-66s12.4,57.72,0,70
		c-24.44,24.22-137.26-2-137.26-2l-1.99-68c0,0-6.63,52.67-25.86,66c-6.14,4.26-37.8,7-37.8,7s20.09-31.88,23.21-40.33
		c6.63-18,4.64-34.67,4.64-34.67s-37.23,80.49-53.54,91C645.02,649.14,621,650,621,650z"/>
</g>
<g id="F_x5F_Brown_hair_Med" class="st0">
	<path class="st25" d="M552.65,1034.15c-104.3-26-166-76.28-116.65-187.15c26.35-59.21,100.1-103.91,155.6-225.4
		c48.18-105.49,132.94-176.33,198.05-176.33c63.43,0,140.99,56.13,181,158C1035.58,768.59,1145.67,877,1045,967
		c-2.2,1.96-106.32,90.21-126.35,78.6c-4.53-2.62-5.41-8.71-6.67-8.67c-20.49,0.67,15.37,5.88,5.55-11.94
		c-18.17-32.96-18.6-25.28-34.92,12.2c-32.18,73.9-180.7-6.1-180.7-6.1s-11.35-46.79-36.66-6.1c-8.08,12.99-39.28,0-39.28,0
		s-4.72-44.27-26.19-12.2C589.28,1028.48,552.65,1034.15,552.65,1034.15z"/>
	<path class="st13" d="M1393.76,994.35"/>
	<g class="st6">
		<defs>
			<ellipse id="SVGID_5_" cx="808.01" cy="1188.42" rx="325.48" ry="259.68"/>
		</defs>
		<clipPath id="SVGID_6_">
			<use xlink:href="#SVGID_5_"  style="overflow:visible;"/>
		</clipPath>
		<circle class="st26" cx="800" cy="800" r="486.38"/>
		<circle class="st27" cx="800" cy="800" r="486.38"/>
		<circle class="st27" cx="800.3" cy="799.96" r="486.38"/>
	</g>
	<path class="st23" d="M866.94,1030.48c-11.11,9.96-43.77,23.03-74,20.9c-30.58-2.15-60.34-20.9-60.34-20.9
		c-24.98-19.99-23.84-43.92-23.84-50.89l7.97-141.82c0-6.97,7.14-12.68,15.87-12.68h134.33c8.73,0,15.87,5.71,15.87,12.68
		l7.96,145.46C890.77,990.19,886.22,1013.21,866.94,1030.48z"/>
	<path class="st9" d="M827.51,907.77c-11.27,8.67-32.76,26.7-45.5,34.13c-22.05,12.86-48.22,24.24-48.22,24.24l-23.32,9.1
		l0.57-17.06l5.69-121.14c0,0,6.7-2.06,12.96-2.06h142.18c6.26,0,11.38,5.12,11.38,11.38S842.3,896.4,827.51,907.77z"/>
	<ellipse class="st23" cx="806.59" cy="669.24" rx="159.25" ry="205.89"/>
	<path class="st24" d="M811.05,672.66c0,0-12.88,29.6-12.88,42.28c0,7.11,5.77,12.88,12.88,12.88c7.11,0,12.88-5.77,12.88-12.88
		C823.93,702.25,811.05,672.66,811.05,672.66z"/>
	<path class="st24" d="M760.91,760.64c-4.13,12.28,5.84,26.74,22.25,32.25c16.41,5.51,40.76-10.17,44.89-22.45
		c-8.18,1.36-27.79,10.85-39.65,6.87C776.53,773.33,766.6,766.66,760.91,760.64z"/>
	<path class="st12" d="M748.94,654.46c6.26,0,11.34,4.95,11.34,11.04c0,6.1-5.08,11.05-11.34,11.05c-6.26,0-11.35-4.95-11.35-11.05
		C737.59,659.41,742.68,654.46,748.94,654.46z"/>
	<path class="st12" d="M868.02,655.12c6.26,0,11.34,4.95,11.34,11.04c0,6.1-5.08,11.04-11.34,11.04c-6.26,0-11.35-4.94-11.35-11.04
		C856.67,660.08,861.75,655.12,868.02,655.12z"/>
	<ellipse class="st9" cx="714.26" cy="721.2" rx="24.26" ry="14.1"/>
	<ellipse class="st9" cx="907.75" cy="721.2" rx="24.26" ry="14.1"/>
	<path class="st25" d="M599,669c27-106,90.55-219,189.97-219s183.36,100.41,183.36,207c0,0,5.67,26-47.74-9.86
		c-35.95-24.14-70.92-97.48-70.92-97.48S846,562,779.67,619c-18.52,15.92-68.67,36-112,51.33c-21.69,7.68-20.33,24.58-26.67,28.67
		C633.02,704.14,599,669,599,669z"/>
	<g class="st6">
		<circle class="st28" cx="720.67" cy="690.75" r="1.58"/>
		<circle class="st28" cx="715.42" cy="694.25" r="1.58"/>
		<circle class="st28" cx="722.08" cy="696.5" r="1.58"/>
	</g>
	<g class="st6">
		<circle class="st28" cx="903.66" cy="690.75" r="1.58"/>
		<circle class="st28" cx="898.41" cy="694.25" r="1.58"/>
		<circle class="st28" cx="905.08" cy="696.5" r="1.58"/>
	</g>
	<path class="st29" d="M844.98,545.52c0,0-57.16,57.16-79.5,72c-10.34,6.87-33.8,15.64-45,21c-21.48,10.29-70.36,23.61-85.5,42
		c-6.42,7.8-9.43,28.96-10.5,39c-2.4,22.4,11.18,68.48,4.5,90c-7.7,24.78-62.72,47.99-67.5,73.5c-4.5,24,46.5,56,9.4,113.91
		c-7.26,11.34-38,19-38,19S485,978,497,925c5.1-22.54,42.08-37.74,58.5-54c15.84-15.69,52.87-44.87,60-66
		c6.85-20.33-10.63-64.27-7.5-85.5c2.36-15.98,12.36-48.79,24-60c8.03-7.73,31.57-11.05,42-15c17-6.43,51.19-18.98,67.5-27
		c8.6-4.23,25.02-14.19,33-19.5C792.78,585.85,844.98,545.52,844.98,545.52z"/>
	<path class="st29" d="M866.09,536.1c0,0,30.64,47.85,42,63c7.34,9.8,21.42,30.55,31.5,37.5c6.25,4.31,28.5,10.5,28.5,10.5
		s-31.14-22.86-40.5-33c-8.64-9.36-22.9-35.6-31.5-45C888.56,560.87,866.09,536.1,866.09,536.1z"/>
	<path class="st29" d="M986.08,695.1c0,0,30.53,55.64,39,75c7.99,18.26,22.79,55.52,27,75c3.97,18.39,11.96,57.16,6,75
		c-4.12,12.35-24.18,31.07-34.5,39c-5.32,4.09-24,12-24,12s28.87-39.89,33-55.5c4.89-18.49,0.66-57.49-1.5-76.5
		c-1.86-16.37-8.76-48.72-13.5-64.5C1011.43,754.12,986.08,695.1,986.08,695.1z"/>
	<path class="st29" d="M538.04,744.02c0,0-37.06,42.3-48.32,57.48c-10.62,14.32-31.15,43.86-39.2,60.06
		c-7.6,15.3-23.32,47.63-23.23,64.59c0.06,11.73,10.65,32.5,16.52,41.69c3.03,4.74,15.26,15.71,15.26,15.71
		s-12.02-41.26-11.27-55.86c0.89-17.3,13.81-50.64,20.18-66.88c5.49-13.98,18.79-40.91,26.32-53.75
		C504.08,790.4,538.04,744.02,538.04,744.02z"/>
	<path class="st29" d="M585,673c0,0-33,85-41,109c-4.1,12.31-37.73,73.95-46.05,84.6c-7.85,10.05-24.26,31.33-28.45,43.12
		c-2.9,8.16-2.49,23.39-1.67,30.22C468.25,943.47,484,1001,484,1001s-8.5-38.72-8-53c0.68-19.52,1.64-29.83,3.98-35.65
		c4.79-11.95,19.98-34.15,27.41-44.94c6.4-9.3,25.68-40.54,30.61-50.41C560,773,585,673,585,673z"/>
	<path class="st29" d="M1010.01,807.37c0,0,5.16,32.87,6.1,44.11c0.89,10.6,2.09,32.09,1.32,43c-0.73,10.29-2.43,31.97-7.05,41.05
		c-3.2,6.28-13.54,14.53-18.65,17.85c-2.63,1.71-11.07,4.25-11.07,4.25s16.52-18.86,20.13-26.9c4.27-9.53,7.5-30.98,9.03-41.44
		c1.32-9.01,2.64-27.12,2.74-36.07C1012.68,841.59,1010.01,807.37,1010.01,807.37z"/>
	<path class="st29" d="M797.29,550.7c0,0-32.08,21.63-43.47,28.31c-10.74,6.3-32.83,18.56-44.76,23.57
		c-11.26,4.73-35.03,14.56-47.01,15.28c-8.29,0.5-22.33-4.2-28.47-6.91c-3.17-1.4-10.19-7.41-10.19-7.41s28.43,4.53,38.79,3.47
		c12.27-1.25,36.6-9.64,48.44-13.77c10.2-3.55,30.02-11.85,39.53-16.44C762.51,570.87,797.29,550.7,797.29,550.7z"/>
	<path class="st29" d="M720.79,614.19c0,0-22.97,9.13-31.01,11.79c-7.58,2.51-23.07,7.28-31.23,8.93
		c-7.71,1.56-23.96,4.74-31.62,3.91c-5.3-0.58-13.6-4.75-17.14-6.96c-1.83-1.14-5.52-5.34-5.52-5.34s17.42,5.58,24.1,6.06
		c7.92,0.56,24.34-1.74,32.34-2.88c6.89-0.98,20.45-3.7,27.04-5.35C696.29,622.19,720.79,614.19,720.79,614.19z"/>
</g>
<g id="F_x5F_Tudong" class="st0">
	<path class="st30" d="M995,709c0,149.03-85.41,196-192,196s-182-58.97-182-208s89.41-242,196-242S995,559.97,995,709z"/>
	<path class="st13" d="M1393.76,994.35"/>
	<g class="st6">
		<defs>
			<ellipse id="SVGID_7_" cx="808.01" cy="1188.42" rx="325.48" ry="259.68"/>
		</defs>
		<clipPath id="SVGID_8_">
			<use xlink:href="#SVGID_7_"  style="overflow:visible;"/>
		</clipPath>
		<circle class="st31" cx="800" cy="800" r="486.38"/>
		<circle class="st32" cx="800" cy="800" r="486.38"/>
		<circle class="st32" cx="800.3" cy="799.96" r="486.38"/>
	</g>
	<path class="st23" d="M866.94,1030.48c-11.11,9.96-43.77,23.03-74,20.9c-30.58-2.15-60.34-20.9-60.34-20.9
		c-24.98-19.99-23.84-43.92-23.84-50.89l7.97-141.82c0-6.97,7.14-12.68,15.87-12.68h134.33c8.73,0,15.87,5.71,15.87,12.68
		l7.96,145.46C890.77,990.19,886.22,1013.21,866.94,1030.48z"/>
	<path class="st9" d="M827.51,907.77c-11.27,8.67-32.76,26.7-45.5,34.13c-22.05,12.86-48.22,24.24-48.22,24.24l-23.32,9.1
		l0.57-17.06l5.69-121.14c0,0,6.7-2.06,12.96-2.06h142.18c6.26,0,11.38,5.12,11.38,11.38S842.3,896.4,827.51,907.77z"/>
	<ellipse class="st23" cx="806.59" cy="669.24" rx="159.25" ry="205.89"/>
	<path class="st24" d="M811.05,672.66c0,0-12.88,29.6-12.88,42.28c0,7.11,5.77,12.88,12.88,12.88c7.11,0,12.88-5.77,12.88-12.88
		C823.93,702.25,811.05,672.66,811.05,672.66z"/>
	<path class="st24" d="M760.91,760.64c-4.13,12.28,5.84,26.74,22.25,32.25c16.41,5.51,40.76-10.17,44.89-22.45
		c-8.18,1.36-27.79,10.85-39.65,6.87C776.53,773.33,766.6,766.66,760.91,760.64z"/>
	<path class="st12" d="M748.94,654.46c6.26,0,11.34,4.95,11.34,11.04c0,6.1-5.08,11.05-11.34,11.05c-6.26,0-11.35-4.95-11.35-11.05
		C737.59,659.41,742.68,654.46,748.94,654.46z"/>
	<path class="st12" d="M868.02,655.12c6.26,0,11.34,4.95,11.34,11.04c0,6.1-5.08,11.04-11.34,11.04c-6.26,0-11.35-4.94-11.35-11.04
		C856.67,660.08,861.75,655.12,868.02,655.12z"/>
	<ellipse class="st9" cx="711.26" cy="711.15" rx="24.26" ry="24.15"/>
	<ellipse class="st9" cx="897.26" cy="711.15" rx="24.26" ry="24.15"/>
	<path class="st33" d="M619.5,715c-7-150,83.91-270,190.5-270s187,110.47,187,259.5c0,0-24-29.5-54-63.5
		c-57.23-64.87-11-76.92-126-78c-117.04-1.1-114,44-144,88C657.3,674.03,619.5,715,619.5,715z"/>
	<path class="st34" d="M806.01,803.92"/>
	<path class="st35" d="M815,515c-15.67,0.84-46.25,15.64-58,24c-14.25,10.14-46,50-46,50s78.74-27.19,106-26c24.8,1.09,94,32,94,32
		s-22.87-49.06-36-60C864.13,525.94,830.79,514.15,815,515z"/>
	<path class="st33" d="M687,865c-40.2,7.79-118.72,45.8-144,78c-29.31,37.33-63.02,130.63-66,178c-0.73,11.57,6,46,6,46
		s61.15-136.06,104-154c40.35-16.89,128.47,36.24,172,32c46.69-4.54,254-66,254-66l-116-90C897,889,738.88,854.95,687,865z"/>
	<path class="st30" d="M927,947c13.73,0.91,39.34,12.62,52,18c12.15,5.16,36.9,14.86,48,22c24.68,15.87,67.07,58.03,84,82
		c7.98,11.29,19.61,42.46,12,54c-20.57,31.19-111.8,21.05-144,40c-33.93,19.97-84.23,85.54-120,102c-19.61,9.03-64.53,10.3-86,8
		c-24.69-2.65-73.66-23.3-90-42c-12.29-14.07-16.71-53.61-20-72c-3.65-20.39-5.21-62.43-12-82c-6.24-17.99-38-66-38-66
		S847.06,941.71,927,947z"/>
	<path class="st33" d="M997,701.5C997,850.53,917.59,907,811,907c-105.6,0-189.89-56.05-191.5-202c0,0,20.69,59.73,63.5,104
		c39.44,40.77,94,56.22,120,56c24.23-0.2,78.66-6.79,116-46C965.54,770.14,990.59,698.06,997,701.5z"/>
	<path class="st33" d="M737,1201c10.94,8.31,26.9,13.61,36,16c34.62,9.07,40.78,4.12,60,2c19.66-2.17,76-22,76-22
		s-38.87,30.13-54,36c-18.39,7.14-58.63,15.75-78,12c-19.76-3.82-61.67-18.73-72-36c-13.11-21.93-23.1-68.62-26-94
		c-3.29-28.75-16-118-16-118S687,1163,737,1201z"/>
	<path class="st33" d="M829.11,1181.27c7.2,1.54,16.81,0.95,22.2,0.34c20.52-2.31,23.31-5.46,33.76-9.73
		c10.69-4.36,39.53-22.56,39.53-22.56s-17.74,19.42-25.41,24.53c-9.33,6.22-30.66,16.89-41.97,18.74
		c-11.53,1.88-36.9,3.04-44.93-2.35c-10.2-6.84-21.92-24.57-26.88-34.65c-5.62-11.42-24.46-46.42-24.46-46.42
		S796.2,1174.22,829.11,1181.27z"/>
	<path class="st33" d="M1076,1128c5.01-0.84,22.25-10.84,24-14c6.61-11.89,1.39-23.45,1-26c-1.16-7.55-8.89-30.31-8.89-30.31
		s12.18,15.76,14.89,21.31c14.52,29.74,3.45,34.23,0,41c-3.52,6.91-27.85,12.14-34.62,14.21c-8.59,2.62-24.82,1.59-33.34,0.09
		c-9.66-1.69-39.93-6.03-39.93-6.03S1052,1132,1076,1128z"/>
	<path class="st30" d="M891,897c6.73,17.03-60,42-60,42s-80.79,20.43-108,26c-35.27,7.22-110.32,6.89-142,24
		c-19,10.26-46.58,45.68-58,64c-5.09,8.16-18,34-18,34s12.15-39.55,18-52c6.97-14.82,21.02-46.01,34-56c12.53-9.64,44.4-17.4,60-20
		c34.26-5.71,104.51-6.78,138-16c17.04-4.69,64-30,64-30s-48.81-2.6-64-8c-8.89-3.16-32-20-32-20s59.47,18.16,80,20
		c14.97,1.34,45.46-0.19,60-4C869.84,899.21,888.4,890.42,891,897z"/>
	<path class="st30" d="M762,518c0,0-28.76,23.04-36.5,32.5c-7.7,9.41-17.82,31.85-24.5,42c-5.55,8.44-16.81,25.41-24,32.5
		c-4.27,4.22-19.5,14-19.5,14s21.83-25.14,28.5-34c4.71-6.26,13.65-19.18,17.5-26c3.93-6.96,8.84-22.5,13.5-29
		c4.63-6.47,16.41-17.54,23-22C745,524.61,762,518,762,518z"/>
	<path class="st30" d="M937,610.33c0,0-15.77-38.41-22.3-48.73c-6.5-10.27-24.61-26.94-32.14-36.48
		c-6.26-7.93-29.09-11.06-33.55-20.12c-2.65-5.38-29.33-9.33-29.33-9.33s30,0.67,48,12c6.63,4.17,21.65,18.27,26.91,24.08
		c5.37,5.93,18.57,15.48,23.27,21.95c4.68,6.44,11.48,21.1,13.63,28.76C933.12,588.27,937,610.33,937,610.33z"/>
</g>
<g id="F_x5F_Artsy" class="st0">
	<path class="st36" d="M1041.37,646.68c93.43,60.7-10.16,138.43,59.97,176.73c29.41,16.07-152.6,59.05-115.09-88.78
		c14.07-55.46-60.61-91.96-37.81-133.82c39.21-71.97,2.73-75.01,20.61-72.44C1004.72,533.5,936.56,578.59,1041.37,646.68z"/>
	<path class="st37" d="M1034.24,650.62c98.51,52.04-36.16,186.97,26.84,186.97c27.23,0-161.1,179.7-208.49,130.49
		c-10.94-11.36,29.99-133.75,34.5-161.99c9.02-56.5,31.53-149.06,50.47-192.79c32.58-75.21-4.03-74.96,14.01-74.01
		C987.55,541.19,923.73,592.24,1034.24,650.62z"/>
	<path class="st38" d="M612.22,917.69c15.51-7.66,89.94,6.82,105.37-6.6c90.15-78.39,110.56-265.67,64.5-337.48
		c-26.18-40.82-228.32-16.02-221.06,150.81c2.72,62.58-87.9,65.48-72.43,118.27c26.61,90.78-14.27,77.21,6.01,82.77
		C535.07,936.53,537.09,954.79,612.22,917.69z"/>
	<path class="st37" d="M606.57,758.35c-93.43,60.7,10.16,138.43-59.97,176.73c-29.41,16.07,227.99,119.33,190.49-28.5
		c-14.07-55.46-14.79-152.25-37.59-194.1c-39.21-71.97-2.73-75.01-20.61-72.44C643.22,645.17,711.38,690.26,606.57,758.35z"/>
	<path class="st13" d="M1393.76,994.35"/>
	<g class="st6">
		<defs>
			<ellipse id="SVGID_9_" cx="808.01" cy="1188.42" rx="325.48" ry="259.68"/>
		</defs>
		<clipPath id="SVGID_10_">
			<use xlink:href="#SVGID_9_"  style="overflow:visible;"/>
		</clipPath>
		<circle class="st39" cx="800" cy="800" r="486.38"/>
		<circle class="st40" cx="800" cy="800" r="486.38"/>
		<circle class="st40" cx="800.3" cy="799.96" r="486.38"/>
	</g>
	<path class="st23" d="M866.94,1030.48c-11.11,9.96-43.77,23.03-74,20.9c-30.58-2.15-60.34-20.9-60.34-20.9
		c-24.98-19.99-23.84-43.92-23.84-50.89l7.97-141.82c0-6.97,7.14-12.68,15.87-12.68h134.33c8.73,0,15.87,5.71,15.87,12.68
		l7.96,145.46C890.77,990.19,886.22,1013.21,866.94,1030.48z"/>
	<path class="st9" d="M827.51,907.77c-11.27,8.67-32.76,26.7-45.5,34.13c-22.05,12.86-48.22,24.24-48.22,24.24l-23.32,9.1
		l0.57-17.06l5.69-121.14c0,0,6.7-2.06,12.96-2.06h142.18c6.26,0,11.38,5.12,11.38,11.38S842.3,896.4,827.51,907.77z"/>
	<ellipse class="st23" cx="806.59" cy="669.24" rx="159.25" ry="205.89"/>
	<path class="st24" d="M811.05,672.66c0,0-12.88,29.6-12.88,42.28c0,7.11,5.77,12.88,12.88,12.88c7.11,0,12.88-5.77,12.88-12.88
		C823.93,702.25,811.05,672.66,811.05,672.66z"/>
	<path class="st24" d="M760.91,760.64c-4.13,12.28,5.84,26.74,22.25,32.25c16.41,5.51,40.76-10.17,44.89-22.45
		c-8.18,1.36-27.79,10.85-39.65,6.87C776.53,773.33,766.6,766.66,760.91,760.64z"/>
	<path class="st12" d="M748.94,654.46c6.26,0,11.34,4.95,11.34,11.04c0,6.1-5.08,11.05-11.34,11.05c-6.26,0-11.35-4.95-11.35-11.05
		C737.59,659.41,742.68,654.46,748.94,654.46z"/>
	<path class="st12" d="M868.02,655.12c6.26,0,11.34,4.95,11.34,11.04c0,6.1-5.08,11.04-11.34,11.04c-6.26,0-11.35-4.94-11.35-11.04
		C856.67,660.08,861.75,655.12,868.02,655.12z"/>
	<ellipse class="st9" cx="711.26" cy="711.15" rx="24.26" ry="24.15"/>
	<ellipse class="st9" cx="897.26" cy="711.15" rx="24.26" ry="24.15"/>
	<path class="st36" d="M620.3,619.68c-93.43,60.7,10.16,138.43-59.97,176.73c-29.41,16.07,152.6,59.05,115.09-88.78
		c-14.07-55.46,60.61-91.96,37.81-133.82c-39.21-71.97-2.73-75.01-20.61-72.44C656.95,506.49,725.11,551.59,620.3,619.68z"/>
	<path class="st41" d="M621.87,702.81c-53.12,53.66-13.54,101.82-52.51,137.07c-16.34,14.79,68.24,14.5,68.4-83.1
		c0.06-36.61,41.02-71.19,35.13-97.31c-10.13-44.9,8.03-51.56-1.01-47.55C653.86,619.93,681.46,642.62,621.87,702.81z"/>
	<path class="st41" d="M947.74,716.83c-22.39,99.54,47.79,103.68,9.48,182.87c-13.23,27.34,98.63-83.35,29.82-123.89
		c-43.05-25.36,2.99-117.53-14.43-147.22c-29.96-51.05-17.01-71.23-23.13-60.3C937.28,590.1,973.62,601.79,947.74,716.83z"/>
	<path class="st42" d="M812.09,609.6c151.49-25.5,169.49-51,169.49-51c52.5-46.5-70.66-183.94-172.49-157.49
		c-115.49,30-274.26,195.67-182.99,229.49C669.98,646.86,766.4,617.29,812.09,609.6z"/>
	<path class="st43" d="M977.2,562.45c0,0-29.98,12.3-40.39,15.11c-34.11,9.22-103.65,21.81-138.56,27.31
		C766.4,609.89,702.13,618.22,670,621c-14.99,1.3-48.27,1.01-59.5-9c-5.7-5.08-8.04-21.86-8-29.5c0.01-2.39,1-9.5,1-9.5
		s-4.19,12.24-4.5,16.5c-0.24,3.32-0.21,9.29,0.92,14.33c1.09,4.88,3.23,8.85,5,11.54c1.57,2.39,4.21,5.63,7.67,8.21
		c4.46,3.33,10.01,5.83,13.52,7.02c3.07,1.04,7.25,2.46,11.9,3.23c8.9,1.47,19.31,1.85,25.5,1.67c9.14-0.26,24.83-1.59,37.75-3.5
		c5.76-0.85,12.4-1.7,16.42-2.42c44.69-8,132.3-25.54,176.33-36.58c13.39-3.36,40.22-10.28,53-15.5c3.04-1.24,8.76-3.31,14-6.06
		c2.59-1.36,5.45-2.59,7.84-3.92c1.68-0.93,3.25-1.8,4.52-2.57C975.74,563.5,977.2,562.45,977.2,562.45z"/>
	<path class="st43" d="M741.51,442.47c0.11,2.48,8.27,0.44,15.05,1.06c6.69,0.6,12.07-2.54,11.96-5.02
		c-0.11-2.48-5.64-4.26-12.35-3.97S741.4,439.99,741.51,442.47z"/>
	<path class="st44" d="M726.67,407.02c0.74-0.96,7.75-4.78,18.5,1.74c6.39,3.87,10.88,10.22,9.7,8.54
		c-12.07-17.23,2.25,2.69,3.69,7.02c0.72,2.16,3.21,10.05,2.42,12.9c-0.62,2.26-8.24,2.65-9.69,1.17c-4.7-4.8-6.62-13.6-12.45-15.4
		C727.88,419.61,717.61,418.82,726.67,407.02z"/>
	<path class="st45" d="M732.75,419.31c-11.27-5.57-5.28-13.26-6.02-12.3c-9.06,11.81,1.21,12.6,12.18,15.97
		c5.83,1.79,7.75,10.59,12.45,15.4c1.45,1.48,9.06,1.09,9.69-1.17c0.79-2.85-1.7-10.74-2.42-12.9c0,0,1.51,4.96-0.19,5.81
		c-1.19,0.6-2.38,3.31-7-2C749.42,425.81,732.75,419.31,732.75,419.31z"/>
</g>
<g id="Template" class="st0">
	<path class="st13" d="M1393.76,994.35"/>
	<g class="st6">
		<defs>
			<ellipse id="SVGID_11_" cx="808.01" cy="1188.42" rx="325.48" ry="259.68"/>
		</defs>
		<clipPath id="SVGID_12_">
			<use xlink:href="#SVGID_11_"  style="overflow:visible;"/>
		</clipPath>
		<circle class="st46" cx="800" cy="800" r="486.38"/>
		<circle class="st47" cx="800.3" cy="799.96" r="486.38"/>
	</g>
	<path class="st23" d="M866.94,1030.48c-11.11,9.96-43.77,23.03-74,20.9c-30.58-2.15-60.34-20.9-60.34-20.9
		c-24.98-19.99-23.84-43.92-23.84-50.89l7.97-141.82c0-6.97,7.14-12.68,15.87-12.68h134.33c8.73,0,15.87,5.71,15.87,12.68
		l7.96,145.46C890.77,990.19,886.22,1013.21,866.94,1030.48z"/>
	<path class="st9" d="M827.51,907.77c-11.27,8.67-32.76,26.7-45.5,34.13c-22.05,12.86-48.22,24.24-48.22,24.24l-23.32,9.1
		l0.57-17.06l5.69-121.14c0,0,6.7-2.06,12.96-2.06h142.18c6.26,0,11.38,5.12,11.38,11.38S842.3,896.4,827.51,907.77z"/>
	<ellipse class="st23" cx="806.59" cy="669.24" rx="159.25" ry="205.89"/>
	<path class="st24" d="M811.05,672.66c0,0-12.88,29.6-12.88,42.28c0,7.11,5.77,12.88,12.88,12.88c7.11,0,12.88-5.77,12.88-12.88
		C823.93,702.25,811.05,672.66,811.05,672.66z"/>
	<path class="st24" d="M760.91,760.64c-4.13,12.28,5.84,26.74,22.25,32.25c16.41,5.51,40.76-10.17,44.89-22.45
		c-8.18,1.36-27.79,10.85-39.65,6.87C776.53,773.33,766.6,766.66,760.91,760.64z"/>
	<path class="st12" d="M748.94,654.46c6.26,0,11.34,4.95,11.34,11.04c0,6.1-5.08,11.05-11.34,11.05c-6.26,0-11.35-4.95-11.35-11.05
		C737.59,659.41,742.68,654.46,748.94,654.46z"/>
	<path class="st12" d="M868.02,655.12c6.26,0,11.34,4.95,11.34,11.04c0,6.1-5.08,11.04-11.34,11.04c-6.26,0-11.35-4.94-11.35-11.04
		C856.67,660.08,861.75,655.12,868.02,655.12z"/>
	<ellipse class="st9" cx="711.26" cy="711.15" rx="24.26" ry="24.15"/>
	<ellipse class="st9" cx="897.26" cy="711.15" rx="24.26" ry="24.15"/>
</g>
<g id="M_x5F_man_bun">
	<path class="st48" d="M1393.76,994.35"/>
	<g>
		<defs>
			<ellipse id="SVGID_13_" cx="808.01" cy="1188.42" rx="325.48" ry="259.68"/>
		</defs>
		<clipPath id="SVGID_14_">
			<use xlink:href="#SVGID_13_"  style="overflow:visible;"/>
		</clipPath>
		<circle class="st49" cx="800" cy="800" r="486.38"/>
		<circle class="st50" cx="800" cy="800" r="486.38"/>
		<circle class="st50" cx="800.3" cy="799.96" r="486.38"/>
	</g>
	<path class="st16" d="M866.94,1030.48c-11.11,9.96-43.77,23.03-74,20.9c-30.58-2.15-60.34-20.9-60.34-20.9
		c-24.98-19.99-23.84-43.92-23.84-50.89l7.97-141.82c0-6.97,7.14-12.68,15.87-12.68h134.33c8.73,0,15.87,5.71,15.87,12.68
		l7.96,145.46C890.77,990.19,886.22,1013.21,866.94,1030.48z"/>
	<path class="st17" d="M827.51,907.77c-11.27,8.67-32.76,26.7-45.5,34.13c-22.05,12.86-48.22,24.24-48.22,24.24l-23.32,9.1
		l0.57-17.06l5.69-121.14c0,0,6.7-2.06,12.96-2.06h142.18c6.26,0,11.38,5.12,11.38,11.38S842.3,896.4,827.51,907.77z"/>
	<ellipse class="st16" cx="806.59" cy="669.24" rx="159.25" ry="205.89"/>
	<path d="M646.34,696.24c0,50.62,6.23,128.9,29.66,164.76c29.21,44.69,80.79,41.13,129.59,41.13c49.28,0,94.2,6.32,123.41-39.13
		c22.92-35.67,35.84-116.76,35.84-166.76c0,0-15.6,38.12-59.84,56.76c-26.97,11.36-84.05-7-102-7c-18.59,0-82.33,12.92-110,1
		C650.12,728.53,646.34,696.24,646.34,696.24z"/>
	<path class="st18" d="M811.05,672.66c0,0-12.88,29.6-12.88,42.28c0,7.11,5.77,12.88,12.88,12.88c7.11,0,12.88-5.77,12.88-12.88
		C823.93,702.25,811.05,672.66,811.05,672.66z"/>
	<path class="st18" d="M760.91,760.64c-4.13,12.28,5.84,26.74,22.25,32.25c16.41,5.51,40.76-10.17,44.89-22.45
		c-8.18,1.36-27.79,10.85-39.65,6.87C776.53,773.33,766.6,766.66,760.91,760.64z"/>
	<path class="st19" d="M748.94,654.46c6.26,0,11.34,4.95,11.34,11.04c0,6.1-5.08,11.05-11.34,11.05c-6.26,0-11.35-4.95-11.35-11.05
		C737.59,659.41,742.68,654.46,748.94,654.46z"/>
	<path class="st19" d="M868.02,655.12c6.26,0,11.34,4.95,11.34,11.04c0,6.1-5.08,11.04-11.34,11.04c-6.26,0-11.35-4.94-11.35-11.04
		C856.67,660.08,861.75,655.12,868.02,655.12z"/>
	<ellipse class="st17" cx="711.26" cy="711.15" rx="24.26" ry="24.15"/>
	<ellipse class="st17" cx="897.26" cy="711.15" rx="24.26" ry="24.15"/>
	<path d="M927,492c9.29,36.69-58.63,73.21-121,89c-33.86,8.57-85-25-122.37,5.41C666.84,600.08,646,671,644,657
		c-1.47-10.29-0.37-25.77,0-45c0.22-11.28-0.93-38.9,5-57c7.72-23.54,7.53-36.81,14-48c22.38-38.73,73.45-47.98,106.45-56.33
		C831.82,434.88,917.71,455.31,927,492z"/>
	<path d="M931.68,497l-41.86,34L888,548c0,0,20.77,26.79,29.12,34c6.17,5.32,21.58,11.1,27.3,17c4.55,4.7,11.17,16.7,13.65,23
		c3.75,9.5,8.96,40.24,8.96,40.24S979.8,620.05,979,604c-0.52-10.59-2.2-41.51-3.64-52c-1.51-11.01-13.46-30.16-18.2-40
		c-2.48-5.16-10.45-14.1-15.47-16C939.32,495.1,931.68,497,931.68,497z"/>
	<path d="M954.35,442.07c-7.04,14.99-18.96,14.02-33.6,18.47c-12.71,3.86-27.69,14.62-40.62,8.54c-12.34-5.8-15.78-24.9-21.07-36.41
		c-6.65-14.47-12.87-22.37-5.54-37.96c13.15-27.99,46.38-40.09,74.23-27.01C955.59,380.78,967.5,414.08,954.35,442.07z"/>
</g>
<g id="M_x5F_kpop" class="st0">
	<path class="st13" d="M1393.76,994.35"/>
	<g class="st6">
		<defs>
			<ellipse id="SVGID_15_" cx="808.01" cy="1188.42" rx="325.48" ry="259.68"/>
		</defs>
		<clipPath id="SVGID_16_">
			<use xlink:href="#SVGID_15_"  style="overflow:visible;"/>
		</clipPath>
		<circle class="st51" cx="800" cy="800" r="486.38"/>
		<circle class="st52" cx="800.3" cy="799.96" r="486.38"/>
	</g>
	<path class="st23" d="M866.94,1030.48c-11.11,9.96-43.77,23.03-74,20.9c-30.58-2.15-60.34-20.9-60.34-20.9
		c-24.98-19.99-23.84-43.92-23.84-50.89l7.97-141.82c0-6.97,7.14-12.68,15.87-12.68h134.33c8.73,0,15.87,5.71,15.87,12.68
		l7.96,145.46C890.77,990.19,886.22,1013.21,866.94,1030.48z"/>
	<path class="st9" d="M827.51,907.77c-11.27,8.67-32.76,26.7-45.5,34.13c-22.05,12.86-48.22,24.24-48.22,24.24l-23.32,9.1
		l0.57-17.06l5.69-121.14c0,0,6.7-2.06,12.96-2.06h142.18c6.26,0,11.38,5.12,11.38,11.38S842.3,896.4,827.51,907.77z"/>
	<ellipse class="st23" cx="806.59" cy="669.24" rx="159.25" ry="205.89"/>
	<path class="st24" d="M811.05,672.66c0,0-12.88,29.6-12.88,42.28c0,7.11,5.77,12.88,12.88,12.88c7.11,0,12.88-5.77,12.88-12.88
		C823.93,702.25,811.05,672.66,811.05,672.66z"/>
	<path class="st24" d="M760.91,760.64c-4.13,12.28,5.84,26.74,22.25,32.25c16.41,5.51,40.76-10.17,44.89-22.45
		c-8.18,1.36-27.79,10.85-39.65,6.87C776.53,773.33,766.6,766.66,760.91,760.64z"/>
	<path class="st12" d="M748.94,654.46c6.26,0,11.34,4.95,11.34,11.04c0,6.1-5.08,11.05-11.34,11.05c-6.26,0-11.35-4.95-11.35-11.05
		C737.59,659.41,742.68,654.46,748.94,654.46z"/>
	<path class="st12" d="M868.02,655.12c6.26,0,11.34,4.95,11.34,11.04c0,6.1-5.08,11.04-11.34,11.04c-6.26,0-11.35-4.94-11.35-11.04
		C856.67,660.08,861.75,655.12,868.02,655.12z"/>
	<ellipse class="st9" cx="711.26" cy="711.15" rx="24.26" ry="24.15"/>
	<ellipse class="st9" cx="897.26" cy="711.15" rx="24.26" ry="24.15"/>
	<g class="st6">
		<path class="st53" d="M640.82,509.36c10.33,24.2,20.86,47.74,31.33,71.68c3.3,0.57,6.53,1.12,9.85,1.8
			c-3.48,18.83-5.93,40.28-12.16,57.94c-4.6,13.04-14,19.94-17.46,33.34c-2.76,10.67-1.58,28.16-0.28,38.07
			c1.97,14.96,4.15,24.69,6.61,38.58c-16.89-16.35-29.01-32.45-38.41-54.95c-6.2-14.85-15.07-36.08-20.27-51.39
			c-5.47-16.07-0.99-29.36-2.12-46.12c-0.59-8.78,9.14-50.64,10.07-52.66C614.8,530.78,627.19,509.37,640.82,509.36z"/>
	</g>
	<g class="st6">
		<path class="st54" d="M658.37,571.17c-17.25-47.71-46.8-50.16,37.04-119.76c48.9-40.6,201.87-16.14,257.89,31.74
			c25.18,21.52,45.1-72.73,52.22-42.26c5.24,22.4,16.43,18.43,20.53,45.09c2.41,15.63-7,47.87-19.72,55.37
			c-16.54,9.74-44.05,29.04-49.6,36.76c-19.2,26.74-106.15-15.5-128.81-14.83C785.07,564.55,675.63,618.88,658.37,571.17z"/>
	</g>
	<path class="st55" d="M682,583c0,0-21.19-28.03-21.22-39.16c-0.03-10.9,16.26-30.4,26.22-34.84c25.91-11.53,88.18-3.72,113,10
		c8.51,4.7,20.27,21.11,28,27c6.4,4.88,21.55,10.94,29,14c13.82,5.67,55.13,23,55.13,23s-63-7.77-84.13-8
		c-19.84-0.21-59.38,4.37-79.06,6.86c-13.39,1.7-53.24,8.89-53.24,8.89L682,583z"/>
	<path class="st55" d="M675,591l-9.2-26l-22.01-25.64l-4.16-24.38c0,0-4.28,9.01-6.13,11.52c-4.9,6.67-12.59,21.46-16,29
		c-2.74,6.05-8.4,18.38-9,25c-0.68,7.57,4.37,22.42,5,30c0.19,2.24-2.5,6.5-2.5,6.5s8.86-26.38,12.5-35.5c2.12-5.3,6.89-16.04,11-20
		c1.61-1.55,5.5-6.5,5.5-6.5s-6.66,37.71-9.5,49.5c-1.32,5.48-4.38,16.39-5,22c-0.85,7.7-0.71,23.28,0,31
		c0.69,7.47,3.8,22.19,5.5,29.5c1.89,8.09,9,32,9,32s-5.09-39.7-6-53c-0.7-10.23-1.33-30.75-1-41c0.27-8.53,0.6-25.81,3-34
		c1.67-5.69,7.84-15.99,11-21c1.33-2.11,6-8,6-8s-11.36,34.16-13,46c-1.24,8.91,0,27,0,36c0,2.5,0,10,0,10s5.24-24,7-32
		c0.89-4.03,2.67-12.1,4-16c2.02-5.94,10-23,10-23l-0.22-6.74L675,591z"/>
	<path class="st56" d="M662.82,551.75c0,0-1.7-10.22-0.96-13.52c1.47-6.51,8.31-18.62,13.14-23.23c4.06-3.88,13.54-10.66,19-12
		c8.79-2.16,27.22-0.43,36.22,0.57c9.25,1.03,27.86,2.49,36.94,4.53c8.44,1.9,25.3,6.67,32.85,10.9c6.54,3.66,17.31,14.6,24,18
		c11.42,5.81,36.35,12.95,49,15c12.13,1.97,36.91,6.24,49,4c6.82-1.26,18.96-8.6,25-12c5.98-3.37,18.22-10.08,23-15
		c3.67-3.78,11-18,11-18s-15.3,14.09-21,18c-6.09,4.18-19.12,11.33-26,14c-6.73,2.61-20.81,6.44-28,7c-8.26,0.64-25.01-0.81-33-3
		c-5.61-1.54-15.8-7.4-21-10c-5.3-2.65-16.02-7.78-21-11c-5.25-3.4-14.76-11.6-20-15c-4.32-2.8-13.33-7.84-18-10
		c-5.82-2.69-17.74-7.62-24-9c-6.61-1.45-20.25-1.47-27-2c-6-0.47-18.03-1.2-24-2c-4.73-0.64-14.27-2.67-19-2
		c-3.77,0.53-10.59,4.3-14,6c-3.61,1.8-14,8-14,8s1.97-12.41,4-16c2.09-3.69,8.3-9.93,12-12c4.71-2.63,15.64-4.37,21-5
		c4.97-0.58,15.03-0.53,20,0c4.29,0.46,12.76,2.17,17,3c7.03,1.37,21.07,4.2,28,6c3.29,0.86,9.79,2.87,13,4
		c7.62,2.69,22.43,9.19,30,12c7.93,2.95,23.9,8.56,32,11c5.69,1.72,17.1,5.25,23,6c4.46,0.57,13.5-0.04,18,0
		c2.94,0.03,8.83,0.17,11.78,0.24c4.03,0.09,8-0.94,11.49-2.94c1.43-0.82,4.53-2.16,5.73-3.29c2.63-2.46,8-12,8-12s-11.5,9.18-16,11
		c-4.23,1.71-13.44,3.01-18,3c-8.88-0.02-26.47-3.54-35-6c-4.42-1.27-12.8-5.13-17-7c-5.82-2.59-17.13-8.52-23-11
		c-4.66-1.97-14.16-5.51-19-7c-2.96-0.91-9.04-2.11-12-3c-7.87-2.37-23.14-8.58-31-11c-4.69-1.45-14.12-4.4-19-5
		c-4.47-0.55-13.5,0-18,0c-3.5,0-14,0-14,0s10.04-8.32,14-10c5.15-2.18,16.48-3.1,22-4c5.72-0.93,21-3,23-3s17.23-1.73,23-2
		c6.24-0.3,18.76-0.43,25,0c9.06,0.63,27.12,3.06,36,5c2.55,0.56,10,3,10,3s-9.92-5.14-13.46-6.25c-8.91-2.77-27.64-4.72-36.95-5.39
		c-12.31-0.89-37.1-1.3-49.37,0c-6.67,0.71-19.64,4.34-26.22,5.64c-6.78,1.33-20.74,3.71-26.64,7.31
		c-4.54,2.77-10.05,12.58-14.36,15.69c-2.66,1.91-9.24,3.51-11.97,5.32c-3.94,2.61-10.44,9.58-13.78,12.92
		c-2.58,2.58-8.14,7.5-9.99,10.64c-1.35,2.29-2.46,7.59-3.26,10.13c-1.02,3.24-3.49,9.64-4,13c-0.63,4.2-1.04,12.88,0,17
		c0.9,3.58,4.79,10.04,7,13C655.86,545.49,662.82,551.75,662.82,551.75z"/>
</g>
<g id="M_x5F__brown" class="st0">
	<path class="st13" d="M1393.76,994.35"/>
	<g class="st6">
		<defs>
			<ellipse id="SVGID_17_" cx="808.01" cy="1188.42" rx="325.48" ry="259.68"/>
		</defs>
		<clipPath id="SVGID_18_">
			<use xlink:href="#SVGID_17_"  style="overflow:visible;"/>
		</clipPath>
		<circle class="st57" cx="800" cy="800" r="486.38"/>
		<circle class="st58" cx="800" cy="800" r="486.38"/>
		<circle class="st58" cx="800" cy="800" r="486.38"/>
		<circle class="st58" cx="800.3" cy="799.96" r="486.38"/>
	</g>
	<path class="st23" d="M866.94,1030.48c-11.11,9.96-43.77,23.03-74,20.9c-30.58-2.15-60.34-20.9-60.34-20.9
		c-24.98-19.99-23.84-43.92-23.84-50.89l7.97-141.82c0-6.97,7.14-12.68,15.87-12.68h134.33c8.73,0,15.87,5.71,15.87,12.68
		l7.96,145.46C890.77,990.19,886.22,1013.21,866.94,1030.48z"/>
	<path class="st9" d="M827.51,907.77c-11.27,8.67-32.76,26.7-45.5,34.13c-22.05,12.86-48.22,24.24-48.22,24.24l-23.32,9.1
		l0.57-17.06l5.69-121.14c0,0,6.7-2.06,12.96-2.06h142.18c6.26,0,11.38,5.12,11.38,11.38S842.3,896.4,827.51,907.77z"/>
	<ellipse class="st23" cx="806.59" cy="669.24" rx="159.25" ry="205.89"/>
	<path class="st24" d="M811.05,672.66c0,0-12.88,29.6-12.88,42.28c0,7.11,5.77,12.88,12.88,12.88c7.11,0,12.88-5.77,12.88-12.88
		C823.93,702.25,811.05,672.66,811.05,672.66z"/>
	<path class="st24" d="M760.91,760.64c-4.13,12.28,5.84,26.74,22.25,32.25c16.41,5.51,40.76-10.17,44.89-22.45
		c-8.18,1.36-27.79,10.85-39.65,6.87C776.53,773.33,766.6,766.66,760.91,760.64z"/>
	<path class="st12" d="M748.94,654.46c6.26,0,11.34,4.95,11.34,11.04c0,6.1-5.08,11.05-11.34,11.05c-6.26,0-11.35-4.95-11.35-11.05
		C737.59,659.41,742.68,654.46,748.94,654.46z"/>
	<path class="st12" d="M868.02,655.12c6.26,0,11.34,4.95,11.34,11.04c0,6.1-5.08,11.04-11.34,11.04c-6.26,0-11.35-4.94-11.35-11.04
		C856.67,660.08,861.75,655.12,868.02,655.12z"/>
	<ellipse class="st9" cx="711.26" cy="711.15" rx="24.26" ry="24.15"/>
	<ellipse class="st9" cx="897.26" cy="711.15" rx="24.26" ry="24.15"/>
	<path class="st59" d="M616.45,657.2L641,715c0,0,18.62-23.59,25.87-30.47c4.78-4.54,17.87-10.18,20.98-16
		c3.62-6.79-0.58-23.2,0.8-30.77c1.95-10.71,11.68-31.68,20.04-38.66c2.67-2.23,12.86-5.37,12.86-5.37l-8.7,23.7L703.68,632
		l26.79-11.95c0,0,13.04-7,17.52-9.05c5.13-2.35,20.93-8.42,20.93-8.42s16.23,5.15,21.69,6.69c4.15,1.17,16.72,4.25,16.72,4.25
		l21.03-7.23l19.27,5.1l17.21-5.53l17.56-9.28l15.13,13.46l27.26,5.22l19.05,4.37l3.82,15.35c0,0-1.48,15.89-1.97,21.19
		c-0.12,1.33-0.54,2.7-0.22,3.99c2.03,8.17,12.38,22.5,13.52,30.83c0.79,5.72-3.23,22.85-3.23,22.85s11.84-6.83,14.47-10.44
		c3.57-4.91,5.21-17.47,7.45-23.11c1.65-4.16,9.31-15.3,9.31-15.3c17.87-39.28,20.85-61.08,22-87.12c0,0-11.14-40.32-18.49-51.99
		c-10.4-16.52-39.03-44.21-55.04-55.38c-13.35-9.31-43.55-22.58-59.18-27.13c-14.67-4.28-45.28-7.95-60.56-8.38
		c-15.25-0.43-46.03,1.25-60.83,4.95c-19.96,5-57.26,24.84-72.93,38.18c-11.59,9.86-36.49,48.73-36.49,48.73l-8.04,27.31
		L614.5,584.3C610.48,617.5,608.5,627.81,616.45,657.2z"/>
	<path class="st60" d="M911.14,641.18h-80.88c-1.61,0-3.12,0.37-4.49,1c-5.26,1.18-14.45,3.03-20.24,3.03h-1.77
		c-4.81,0-11.99-1.29-17.29-2.4c-1.65-1.02-3.58-1.64-5.66-1.64h-80.88c-0.05,0-0.09,0.01-0.14,0.02l-27.22-0.02v8.93l0.38,0.5
		c3.21,4.2,11.14,13.96,15.45,13.96c0.42,0,1.34-0.11,2.11-0.83c5.33,22.62,25.63,39.52,49.85,39.52c24.21,0,44.5-16.89,49.85-39.48
		c2.32-0.8,6.51-1.76,13.55-1.76h1.77c9.98,0,14.31,1.92,15.53,2.6c5.64,22.18,25.72,38.65,49.63,38.65
		c23.94,0,44.05-16.52,49.66-38.75c0.22,0.04,0.41,0.06,0.54,0.06c4.31,0,12.24-9.76,15.45-13.96l0.38-0.5v-8.93H911.14z
		 M740.37,699.55c-25.07,0-45.62-19.52-47.37-44.15c2.22-3.83,6.69-5.42,7.76-5.75h78.08c3.77,0,5.64,9.35,5.97,13.88l0.27,3.39
		l0.55-0.41C779.48,685.65,761.52,699.55,740.37,699.55z M870.7,699.55c-22.38,0-41.15-15.56-46.17-36.42
		c0.4-4.66,2.27-13.48,5.93-13.48h78.08c1.41,0.44,8.8,3.1,8.99,10.25C913.75,682.36,894.22,699.55,870.7,699.55z"/>
	<path class="st61" d="M716,553c0,0-32.78,34.78-43,47c-7.67,9.17-24.77,26.83-29,38c-4.89,12.89-4,55-4,55s15.69-32.7,22-43
		c4.68-7.63,15.42-22,21-29c6.62-8.31,19.59-25.5,28-32c6.19-4.78,21.65-9.42,28-14c7.74-5.58,27-27,27-27l-66,77
		c0,0,8.06-6.29,11-8c6.09-3.55,22-10,25-13s21.28-18.45,28-25c3.42-3.33,10.21-10.13,13-14c5.17-7.17,17-31,17-31
		s-22.24,57.23-35.24,72.67C754.24,612.03,736,623,736,623s9.85-1.05,13-2c6.85-2.06,20.33-7.63,26-12c5.91-4.55,14.2-17.29,19-23
		c2.99-3.56,12-14,11-15s7.5-21.15,12-27c3.46-4.49,17-15,17-15s-10.61,26.21-14,35c-3.36,8.71-8.81,26.66-13,35
		c-2.68,5.33-8.39,16.22-13,20c-3.12,2.56-15,6-15,6s19-2,21-3s15.26-5.44,20-8c3.78-2.05,11.08-6.84,14-10c1.37-1.48,3-5,4-7
		s6.11-16.46,8-22c1.02-2.99,2.63-9.15,4-12c1.89-3.94,9-14,7-16s-1.75-13.85,0-18c1.25-2.95,8-10,8-10s0,18,0,24
		c0,8,1.51,24.14,0,32c-1.02,5.29-5.22,15.39-8,20c-2.61,4.33-9.91,11.48-13.1,15.41C840.59,614.48,831,627,831,627s11.53-3.1,15-5
		c6.21-3.4,17.2-12.62,22.01-17.81C870.35,601.67,873,597,876,593s9-18,10-21s4-18,4-19s2.61-16.46,3-22c0.11-1.5,0-6,0-6
		s2.45,18.12,4,24c1.33,5.08,4,11,0,21s-7.89,18.18-11,24c-2.17,4.05-8,14-9,16s-9,12-9,12s8.33,0.67,11,0
		c3.58-0.9,10.56-10.23,13-13c3.2-3.62,5.17-7.53,7-12c1.23-3.01,3-7,5-12s5-8,6-13s5-13,5-15s4-10,3-15s-2.53-23-2.53-23
		S927,534,928,537s4,36,4,38s-2,27-2,27s-19,23-20,23s-16,7-16,7s14.34-0.05,19-1c4.06-0.82,11-4,15-7s7-3,18-13s31-36,31-36
		s-6,27-8,31s-22.4,24.69-22.4,24.69L940,644c0,0,9.03-2.93,11-1c7.88,7.71-4.16,33.04-3,44c0.76,7.24,8,28,8,28l-2-31
		c0,0,7-18,8-21s3.84-15.31,3.84-15.31L979,632l12-20l-15,48c0,0,11.93-9.89,15-14c3.99-5.35,11.89-23.92,11.89-23.92
		s11.68-35,11.11-47.08c-0.54-11.46-11.03-32.66-16-43c-2.53-5.25-8.63-15.24-12-20c-4.62-6.54-19-23-20-25s-16.87-14.04-23-18
		c-5.08-3.28-15.69-9.11-21-12c-8.16-4.43-24.23-13.96-33-17c-9.13-3.17-36-7-38-7s-48.89-5.24-65-3
		c-13.18,1.83-38.04,12.15-50.47,16.91c-8.32,3.18-25.34,8.58-33.53,12.09c-5.65,2.42-17.01,7.4-22,11c-4.59,3.31-12.12,11.88-16,16
		c-2.07,2.19-6,6.75-8,9c-6.24,7.01-19.99,20.07-25,28c-2.75,4.36-5.95,14.27-8,19c-1.96,4.52-5.29,13.89-8,18
		c-4.13,6.26-15.63,16.88-18,24c-3.24,9.72-3.12,31.24,0,41c2.18,6.82,13,23,14,25s11,31,11,31s6-29,6-37s-4.95-40.65-2-47
		c3.58-7.72,26-22,26-22s-3.01,20.43-5,27c-1.1,3.64-6,14-6,14s14.78-20.89,19.35-28.09c2.31-3.64,5.58-11.89,8.65-14.91
		c3.67-3.61,13.57-7.38,18-10c4.06-2.4,11.47-8.7,16-10C706.12,552.1,716,553,716,553z"/>
</g>
<g id="M_x5F_black_curly" class="st0">
	<path class="st13" d="M1393.76,994.35"/>
	<g class="st6">
		<defs>
			<ellipse id="SVGID_19_" cx="808.01" cy="1188.42" rx="325.48" ry="259.68"/>
		</defs>
		<clipPath id="SVGID_20_">
			<use xlink:href="#SVGID_19_"  style="overflow:visible;"/>
		</clipPath>
		<circle class="st62" cx="800" cy="800" r="486.38"/>
		<circle class="st63" cx="800" cy="800" r="486.38"/>
		<circle class="st63" cx="800.3" cy="799.96" r="486.38"/>
	</g>
	<path class="st23" d="M866.94,1030.48c-11.11,9.96-43.77,23.03-74,20.9c-30.58-2.15-60.34-20.9-60.34-20.9
		c-24.98-19.99-23.84-43.92-23.84-50.89l7.97-141.82c0-6.97,7.14-12.68,15.87-12.68h134.33c8.73,0,15.87,5.71,15.87,12.68
		l7.96,145.46C890.77,990.19,886.22,1013.21,866.94,1030.48z"/>
	<path class="st9" d="M827.51,907.77c-11.27,8.67-32.76,26.7-45.5,34.13c-22.05,12.86-48.22,24.24-48.22,24.24l-23.32,9.1
		l0.57-17.06l5.69-121.14c0,0,6.7-2.06,12.96-2.06h142.18c6.26,0,11.38,5.12,11.38,11.38S842.3,896.4,827.51,907.77z"/>
	<ellipse class="st23" cx="806.59" cy="669.24" rx="159.25" ry="205.89"/>
	<path class="st24" d="M811.05,672.66c0,0-12.88,29.6-12.88,42.28c0,7.11,5.77,12.88,12.88,12.88c7.11,0,12.88-5.77,12.88-12.88
		C823.93,702.25,811.05,672.66,811.05,672.66z"/>
	<path class="st24" d="M760.91,760.64c-4.13,12.28,5.84,26.74,22.25,32.25c16.41,5.51,40.76-10.17,44.89-22.45
		c-8.18,1.36-27.79,10.85-39.65,6.87C776.53,773.33,766.6,766.66,760.91,760.64z"/>
	<path class="st12" d="M748.94,654.46c6.26,0,11.34,4.95,11.34,11.04c0,6.1-5.08,11.05-11.34,11.05c-6.26,0-11.35-4.95-11.35-11.05
		C737.59,659.41,742.68,654.46,748.94,654.46z"/>
	<path class="st12" d="M868.02,655.12c6.26,0,11.34,4.95,11.34,11.04c0,6.1-5.08,11.04-11.34,11.04c-6.26,0-11.35-4.94-11.35-11.04
		C856.67,660.08,861.75,655.12,868.02,655.12z"/>
	<ellipse class="st9" cx="711.26" cy="711.15" rx="24.26" ry="24.15"/>
	<ellipse class="st9" cx="897.26" cy="711.15" rx="24.26" ry="24.15"/>
	<path class="st6" d="M657.42,517.23c-1.48-0.58-1.49,2.67-2.63,3.71c-1.96,1.8-4.45,3.2-6.57,4.75
		c-12.89,9.42-21.69,26.14-26.29,40.17c-5.59,17.05-11.05,42.14-5.53,59.78c2.59,8.3,7.09,17.53,7.95,26.26
		c0.66,6.66-2.89,15.96,0,22.14c1.44,3.06,4.64,6.24,6.92,8.85c8.13,9.29,15.53,22.57,17.64,34.17c0.78,4.26,2.35,8.44,3.11,12.66
		c0.37,2,1.04,6.01,1.04,6.01s-0.55-3.36-0.69-5.06c-0.33-4-0.4-8.02-0.69-12.02c-0.8-11.03,0.76-21.8,3.11-32.58
		c4.48-20.45,6.41-41.23,8.31-62c1.4-15.41,1.48-31.44,11.76-44.6c2.58-3.3,6.84-5.6,10.38-7.91c4.03-2.63,7.72-5.19,12.46-6.64
		c19.95-6.08,38.69,9.26,58.81,6.96c6.64-0.76,11.39-4.96,17.29-7.27c12.42-4.87,23.6-12.05,35.98-17.08
		c12.24-4.98,28.11-4.36,41.16-3.16c14.35,1.31,23.52,11.22,35.64,16.77c7.87,3.6,14.72,9.16,22.83,12.33
		c7.4,2.9,17.05,5.95,21.45,12.66c10.1,15.39,1.53,32.43,4.5,48.71c1.43,7.82,3.77,15.29,5.19,23.09c0.57,3.13,3.29,5.89,3.8,9.18
		c1.21,7.69,3.64,15.05,4.84,22.77c1.2,7.68,0.04,15.63,2.08,23.1c1.36,4.99-0.69,11.34-0.69,16.45c0,0.97-0.35,7.91-0.35,7.91
		c1.41-1.28,2.79-6.37,3.46-8.22c3.3-9.05,5.7-18.65,10.38-27.21c10.96-20.04,24.19-40.61,26.98-63.58
		c3.08-25.37-2.75-51.17-7.26-75.92c-3.09-16.97,5.69-36.67-4.5-52.19c-4.91-7.49-14.63-8.41-21.79-12.34
		c-17.11-9.38-38.03-13.59-54.66-23.73c-5.53-3.37-7.57-8.81-11.76-13.29c-5.19-5.53-12.01-9.64-19.38-12.34
		c-8.36-3.05-17.77-1.3-25.94-3.79c-5.06-1.54-7.22-5.52-11.77-7.59c-5.24-2.4-13.57-2.49-19.37-1.9
		c-10.15,1.03-19.36,5.5-29.4,6.64c-9.73,1.11-19.97-0.18-29.75,0.63c-17.21,1.43-36.27,8.88-50.86,17.08
		c-14.75,8.3-31.51,24.21-38.4,38.91c-2.41,5.14-3.96,12.54-7.26,17.08c-0.06,0.07-5.54,8.52-5.54,6.33"/>
</g>
<g id="M_x5F_Light_brown" class="st0">
	<path class="st13" d="M1393.76,994.35"/>
	<g class="st6">
		<defs>
			<ellipse id="SVGID_21_" cx="808.01" cy="1188.42" rx="325.48" ry="259.68"/>
		</defs>
		<clipPath id="SVGID_22_">
			<use xlink:href="#SVGID_21_"  style="overflow:visible;"/>
		</clipPath>
		<circle class="st64" cx="800" cy="800" r="486.38"/>
		<circle class="st65" cx="800" cy="800" r="486.38"/>
		<circle class="st66" cx="800.3" cy="799.96" r="486.38"/>
	</g>
	<path class="st23" d="M866.94,1030.48c-11.11,9.96-43.77,23.03-74,20.9c-30.58-2.15-60.34-20.9-60.34-20.9
		c-24.98-19.99-23.84-43.92-23.84-50.89l7.97-141.82c0-6.97,7.14-12.68,15.87-12.68h134.33c8.73,0,15.87,5.71,15.87,12.68
		l7.96,145.46C890.77,990.19,886.22,1013.21,866.94,1030.48z"/>
	<path class="st9" d="M827.51,907.77c-11.27,8.67-32.76,26.7-45.5,34.13c-22.05,12.86-48.22,24.24-48.22,24.24l-23.32,9.1
		l0.57-17.06l5.69-121.14c0,0,6.7-2.06,12.96-2.06h142.18c6.26,0,11.38,5.12,11.38,11.38S842.3,896.4,827.51,907.77z"/>
	<ellipse class="st23" cx="806.59" cy="669.24" rx="159.25" ry="205.89"/>
	<path class="st24" d="M811.05,672.66c0,0-12.88,29.6-12.88,42.28c0,7.11,5.77,12.88,12.88,12.88c7.11,0,12.88-5.77,12.88-12.88
		C823.93,702.25,811.05,672.66,811.05,672.66z"/>
	<path class="st24" d="M760.91,760.64c-4.13,12.28,5.84,26.74,22.25,32.25c16.41,5.51,40.76-10.17,44.89-22.45
		c-8.18,1.36-27.79,10.85-39.65,6.87C776.53,773.33,766.6,766.66,760.91,760.64z"/>
	<path class="st12" d="M748.94,654.46c6.26,0,11.34,4.95,11.34,11.04c0,6.1-5.08,11.05-11.34,11.05c-6.26,0-11.35-4.95-11.35-11.05
		C737.59,659.41,742.68,654.46,748.94,654.46z"/>
	<path class="st12" d="M868.02,655.12c6.26,0,11.34,4.95,11.34,11.04c0,6.1-5.08,11.04-11.34,11.04c-6.26,0-11.35-4.94-11.35-11.04
		C856.67,660.08,861.75,655.12,868.02,655.12z"/>
	<ellipse class="st9" cx="711.26" cy="711.15" rx="24.26" ry="24.15"/>
	<ellipse class="st9" cx="897.26" cy="711.15" rx="24.26" ry="24.15"/>
	<path class="st67" d="M650,629c3.62-14.64,72-5,81-34c3.9-8.93,35.86-73.3,84-72c42.24,1.14,52.5-18.75,86.18,5.4
		c12.14,8.71,24.51,17.1,27.68,29.85c12.19,39.97,33.96,77.17,36.18,85.43C967,651,970.25,629.38,969,600c-0.39-9.1-7.2-23.76-9-36
		c-1.29-14.36-16.41-29.33-24.8-42.09c-18.37-27.92-38.32-41.45-74.2-52.91c-37.14-11.86-61.67-18.98-102-10
		c-39.46,8.79-88.77,52.42-103,83c-5.56,11.94-16.98,43.27-17,56C638.96,618.37,646.99,624.12,650,629z"/>
	<path class="st68" d="M868,498c0,0-33.18-1.98-44,0c-11.83,2.16-34.42,11.29-45,17c-6.53,3.52-25,16-25,16s-29.2,16.23-38,23
		c-7.99,6.15-29,28-29,28s-18.56,20.79-27,24c-3.04,1.15-13,0-13,0s11.27-10.35,14.65-14.16c5.82-6.56,15.92-20.95,21.35-27.84
		c5.15-6.54,15.68-19.44,20.93-25.91c0.05-0.06,0.1-0.11,0.15-0.17c0,0,15.51-15.51,20.67-20.67c0.16-0.16,0.35-0.3,0.56-0.4
		c0,0,17.74-8.94,23.69-11.84c11.07-5.39,40-19,45-20s17.83-5.6,24-6c9.81-0.64,29.93,1.2,39,5c4.48,1.87,16,11,16,11l10.25-0.34
		c0,0,15.15-2.47,19.75-0.66c4.6,1.82,11.31,9.84,14,14c4.31,6.67,10.75,21.29,15,28c4.94,7.79,17.39,22.15,20,31
		c1.51,5.12,0,21.35,0,21.35s-9.67-24.5-13.69-32.29c-3.05-5.92-10.48-17.01-13.96-22.69C921.12,528.11,912,512,912,512
		s-6.6-7.02-9.47-8.31C895.74,500.64,873,500,873,500L868,498z"/>
</g>
</svg>
