<?xml version="1.0" standalone="no"?>
<!DOCTYPE svg PUBLIC "-//W3C//DTD SVG 20010904//EN"
 "http://www.w3.org/TR/2001/REC-SVG-20010904/DTD/svg10.dtd">
<svg version="1.0" xmlns="http://www.w3.org/2000/svg"
 width="322.000000pt" height="322.000000pt" viewBox="0 0 322.000000 322.000000"
 preserveAspectRatio="xMidYMid meet">
<metadata>
Created by potrace 1.16, written by Peter Selinger 2001-2019
</metadata>
<g transform="translate(0.000000,322.000000) scale(0.100000,-0.100000)"
fill="#000000" stroke="none">
<path d="M1560 3207 c-3 -3 -55 -11 -115 -17 -558 -60 -1043 -404 -1285 -912
-122 -257 -177 -550 -151 -811 22 -228 64 -382 156 -574 191 -401 539 -704
960 -836 172 -55 218 -59 525 -55 263 4 279 5 375 32 189 52 378 143 548 266
88 64 272 251 339 345 175 248 261 480 302 818 l6 47 -1050 0 c-578 0 -1050
-3 -1050 -6 0 -3 68 -77 150 -164 83 -87 150 -166 150 -174 0 -18 -54 -82 -81
-97 -12 -6 -25 -6 -36 0 -19 10 -462 482 -476 506 -4 8 -4 21 0 29 7 12 267
294 424 459 l56 59 31 -16 c32 -17 82 -74 82 -95 0 -6 -46 -61 -102 -122 -57
-61 -125 -135 -152 -165 l-48 -54 1051 0 1051 0 -6 48 c-50 425 -198 740 -478
1017 -258 255 -587 412 -956 455 -151 18 -215 23 -220 17z"/>
</g>
</svg>
