<?xml version="1.0" standalone="no"?>
<!DOCTYPE svg PUBLIC "-//W3C//DTD SVG 20010904//EN"
 "http://www.w3.org/TR/2001/REC-SVG-20010904/DTD/svg10.dtd">
<svg version="1.0" xmlns="http://www.w3.org/2000/svg"
 width="323.000000pt" height="323.000000pt" viewBox="0 0 323.000000 323.000000"
 preserveAspectRatio="xMidYMid meet">
<metadata>
Created by potrace 1.16, written by Peter Selinger 2001-2019
</metadata>
<g transform="translate(0.000000,323.000000) scale(0.100000,-0.100000)"
fill="#000000" stroke="none">
<path d="M1560 3227 c-3 -3 -52 -11 -110 -17 -334 -37 -622 -157 -870 -365
-335 -281 -522 -642 -574 -1107 l-6 -48 1051 0 1051 0 -71 78 c-39 42 -107
115 -151 162 -46 50 -79 94 -80 106 0 21 79 104 100 104 15 0 51 -36 281 -284
163 -175 204 -224 204 -246 0 -22 -38 -69 -190 -231 -265 -284 -280 -299 -293
-299 -21 0 -102 81 -102 101 0 11 67 91 151 182 l152 162 -1048 3 c-577 1
-1049 1 -1051 0 -5 -6 17 -175 32 -253 86 -428 380 -833 770 -1059 158 -92
337 -157 529 -193 130 -25 417 -24 550 1 577 107 1049 508 1238 1053 143 409
119 841 -68 1228 -245 508 -708 835 -1280 905 -139 17 -210 23 -215 17z"/>
</g>
</svg>
