<?xml version="1.0" encoding="UTF-8" standalone="no"?><!DOCTYPE svg PUBLIC "-//W3C//DTD SVG 1.1//EN" "http://www.w3.org/Graphics/SVG/1.1/DTD/svg11.dtd"><svg width="100%" height="100%" viewBox="0 0 2048 1536" version="1.1" xmlns="http://www.w3.org/2000/svg" xmlns:xlink="http://www.w3.org/1999/xlink" xml:space="preserve" xmlns:serif="http://www.serif.com/" style="fill-rule:evenodd;clip-rule:evenodd;stroke-linecap:round;stroke-linejoin:round;"><g id="Layer-1" serif:id="Layer 1"><path d="M1040.48,742.265c6,-17.959 -0.521,-37.263 -4.28,-48.181c-7.29,-21.149 -19.77,-42.372 -32.16,-58.849c-26.977,-35.881 -63.474,-73.687 -116.285,-77.339c-34.668,-2.393 -72.916,2.844 -113.193,14.974c-14.04,4.225 -28.293,9.15 -42.683,15.273c-44.402,18.888 -104.207,54.07 -122.861,108.462c-23.032,67.163 -4.151,124.595 18.341,164.514c19.43,34.461 46.588,59.706 81.42,77.361c12.751,6.471 29.66,10.943 47.717,8.285c32.313,-4.753 72.215,-27.251 105.897,-48.162c45.453,-28.222 92.572,-63.082 134.205,-102.538c12.07,-11.443 37.91,-35.953 43.881,-53.8" style="fill:#99d6d9;fill-rule:nonzero;"/><path d="M1035.43,715.257c7.09,-19.156 1.19,-39.145 -2.229,-50.447c-6.611,-21.894 -18.631,-43.624 -30.781,-60.369c-26.441,-36.466 -62.719,-74.513 -117.578,-75.904c-36.013,-0.909 -76.111,6.369 -118.642,20.987c-14.826,5.092 -29.907,10.93 -45.183,18.032c-47.145,21.914 -111.092,61.667 -133.052,119.707c-27.112,71.666 -10.098,131.161 11.487,172.079c18.648,35.323 45.776,60.602 81.254,77.544c12.986,6.21 30.399,10.128 49.336,6.498c33.891,-6.495 76.513,-31.993 112.578,-55.535c48.672,-31.774 99.386,-70.601 144.595,-114.005c13.115,-12.589 41.175,-39.55 48.215,-58.587" style="fill:#f58f8d;fill-rule:nonzero;"/><path d="M1097.9,568.331c10.149,-0.679 19.21,-8.597 24.33,-13.116c9.899,-8.752 19.109,-20.401 25.869,-30.939c14.721,-22.944 29.08,-51.595 23.45,-81.67c-3.71,-19.742 -11.87,-39.767 -23.879,-59.38c-4.19,-6.836 -8.77,-13.636 -13.991,-20.243c-16.099,-20.392 -42.83,-45.684 -73.639,-43.894c-38.04,2.213 -65.064,25.479 -82.516,46.841c-15.064,18.448 -24.258,39.124 -28.43,62.36c-1.53,8.508 -1.435,18.874 2.513,28.286c7.065,16.844 24.394,33.937 40.015,47.937c21.088,18.893 45.838,37.229 72.188,51.499c7.64,4.138 24.01,12.99 34.09,12.319" style="fill:#ffd14e;fill-rule:nonzero;"/><path d="M155.671,1303.91c32.476,14.3 95.87,28.02 145.23,33.9c148.645,17.709 192.361,-21.22 355.123,-21.27c94.493,-0.021 188.199,19.49 282.673,21.399c78.963,1.591 157.763,-7.819 236.683,-10.899c229.05,-8.93 228.99,-5.901 457.63,-23.13c68.64,-5.16 137.5,-9.05 205.64,-18.76c39.11,-5.57 81.72,-10.16 105.88,-41.44c15.281,-19.79 -22.71,-28.59 -46.86,-34.99c-77.85,-20.65 -159.35,-26.71 -239.85,-29.121c-119.74,-3.589 -239.45,14.031 -359.21,11.161c-233.29,-5.6 -465.863,-29.33 -699.101,-36.571c-141.072,-4.379 -284.968,-25.709 -423.415,1.731c-38.871,7.719 -53.286,60.19 -70.042,96.12c-5.766,12.36 27.725,42.24 49.619,51.87" style="fill:#052c27;fill-rule:nonzero;"/><path d="M1623.6,916.615c-0.529,-4.75 -1.149,-10.16 -4.569,-13.664c-9.111,-9.339 -26.731,-3.387 -33.841,3.878c-3.819,3.906 -0.94,10.907 -3.42,15.694c-2.34,4.504 -8.09,6.785 -10.55,11.232c-5.97,10.822 1.96,11.391 0.8,23.511c-1.159,12.153 -12.72,12.272 -3.97,24.438c1.811,2.502 6.78,0.572 9.16,2.586c3.12,2.636 2.59,8.306 6.161,10.366c11.419,6.594 10.569,-4.438 22.969,-5.726c4.54,-0.47 8.49,4.511 13.031,4.088c11.219,-1.038 4.089,-7.28 8.809,-15.141c2.25,-3.753 8.92,-3.822 10.981,-7.675c6.2,-11.621 -7.061,-9.609 -8.54,-22.388c-1.371,-11.802 11.83,-11.381 4.95,-21.393c-2.87,-4.197 -7.551,-7.081 -11.971,-9.806" style="fill:#d9e495;fill-rule:nonzero;"/><path d="M1608.6,917.249c-3.77,17.614 -7.55,35.282 -9.52,53.165c-1.709,15.535 -0.98,31.236 -1.48,46.846c-0.35,11.051 -1.779,-22.413 1.051,-33.119c1.119,-4.235 6.01,-6.86 10.05,-8.926c5.54,-2.834 11.849,-4.147 17.989,-5.427c-6.14,1.28 -12.449,2.593 -17.989,5.427c-4.04,2.066 -5.5,8.4 -10.05,8.926c-2.711,0.313 1.3,-5.393 0.25,-7.795c-1.321,-3.011 -4.5,-4.926 -6.861,-7.302c-2.179,-2.205 -4.46,-4.321 -6.75,-6.433c2.29,2.112 4.571,4.228 6.75,6.433c2.361,2.376 3.5,6.65 6.861,7.302c2.029,0.397 -0.09,-3.972 0.179,-5.932c1.71,-12.278 5.46,-16.624 0.151,-28.15c-1.441,-3.129 -4.101,-5.65 -6.651,-8.058c2.55,2.408 5.21,4.929 6.651,8.058c1.76,3.822 -1.261,14.022 2.699,12.248c4.7,-2.105 0.76,-10.011 2.62,-14.63c1.191,-2.963 3.84,-5.229 6.231,-7.433c2.189,-2.013 4.809,-3.571 7.389,-5.107c-2.58,1.536 -5.2,3.094 -7.389,5.107c-2.391,2.204 -5.781,10.581 -6.231,7.433c-1.099,-7.589 1.561,-15.358 4.05,-22.633Z" style="fill:none;fill-rule:nonzero;stroke:#000;stroke-width:0.8px;"/><path d="M1625.75,995.976c3.77,-2.242 7.79,-4.631 12.26,-5.196c3.94,-0.499 7.96,3.333 11.72,2.158c12.3,-3.845 1.04,-9.102 4.57,-20.518c1.34,-4.311 9.85,-4.004 11.78,-8.119c5.85,-12.399 -8.1,-9.267 -11.82,-22.377c-1.13,-3.992 6.99,-6.844 6.29,-10.913c-0.68,-4.005 -6.76,-5.379 -9.62,-8.505c-8.54,-9.343 -8.11,-10.234 -20.89,-13.75c-2.97,-0.816 -6.229,-2.661 -9.13,-1.673c-4.54,1.551 -6.95,6.225 -11.06,8.567c-3.08,1.754 -8.35,0.709 -10.18,3.551c-2.95,4.559 0.56,11.132 -2.28,15.743c-2.1,3.386 -9.41,2.318 -11.079,5.894c-2.401,5.136 1.419,11.249 0.489,16.769c-0.76,4.47 -5.81,8.09 -5.48,12.606c1.06,14.212 8.1,9.659 21.05,16.318c2.9,1.491 2.79,5.819 5.51,7.563c3.32,2.135 7.57,2.993 11.61,3.419c2.15,0.227 4.31,-0.698 6.26,-1.537" style="fill:#a5b41a;fill-rule:nonzero;"/><path d="M1666.31,1012.27c-3.2,-2.63 -6.601,-5.43 -10.521,-6.31c-3.44,-0.769 -7.229,3.081 -10.479,1.6c-10.631,-4.86 -0.36,-9.808 -2.791,-22.242c-0.92,-4.696 -8.449,-4.884 -9.909,-9.406c-4.421,-13.63 7.72,-9.428 11.8,-23.236c1.24,-4.203 -5.76,-7.75 -4.891,-12.063c0.851,-4.245 6.301,-5.347 9.011,-8.52c8.12,-9.481 7.79,-10.461 19.3,-13.447c2.669,-0.693 5.66,-2.47 8.16,-1.235c3.92,1.936 5.769,7.086 9.25,9.841c2.609,2.066 7.33,1.266 8.779,4.421c2.33,5.06 -1.17,11.882 1.061,16.99c1.639,3.752 8.169,3.054 9.429,6.983c1.801,5.644 -1.939,11.955 -1.449,17.92c0.39,4.83 4.629,9.013 4.06,13.827c-1.79,15.147 -7.741,9.848 -19.581,16.187c-2.65,1.419 -2.82,6.059 -5.33,7.759c-3.059,2.08 -6.87,2.741 -10.46,2.96c-1.919,0.111 -3.769,-1.009 -5.439,-2.03" style="fill:#307302;fill-rule:nonzero;"/><path d="M1623.95,929.709c-0.46,7.878 -0.91,15.758 -1.4,23.634c-0.96,15.296 -2.51,30.56 -3.161,45.872c-0.269,6.585 -0.2,13.175 -0.129,19.765c-0.02,-6.59 -0.03,-13.18 0.129,-19.765c0.071,-2.695 1.691,-5.584 0.581,-8.068c-0.84,-1.885 -3.831,-1.899 -5.57,-3.112c-2.61,-1.832 -5.02,-3.915 -7.43,-5.991c2.41,2.076 4.82,4.159 7.43,5.991c1.739,1.213 4.61,4.939 5.57,3.112c2.48,-4.733 -0.46,-10.781 1.129,-15.856c0.92,-2.957 3.84,-4.983 6.071,-7.22c2.32,-2.326 4.92,-4.379 7.519,-6.422c-2.599,2.043 -5.199,4.096 -7.519,6.422c-2.231,2.237 -5.14,10.182 -6.071,7.22c-3.639,-11.568 6.311,-24.666 2.29,-36.12c-0.909,-2.58 -4.559,-3.541 -7.309,-4.264c2.43,1.421 4.87,2.843 7.309,4.264" style="fill:none;fill-rule:nonzero;stroke:#000;stroke-width:0.8px;"/><path d="M1667.91,937.694c-0.09,9.424 -0.17,18.851 -0.221,28.274c-0.079,18.306 0.421,36.612 0.021,54.912c-0.17,7.87 -0.691,15.719 -1.21,23.57c0.47,-7.851 0.93,-15.7 1.21,-23.57c0.12,-3.22 -1.3,-6.77 -0.021,-9.661c0.971,-2.189 3.95,-2 5.761,-3.33c2.739,-2 5.29,-4.319 7.83,-6.639c-2.54,2.32 -5.091,4.639 -7.83,6.639c-1.811,1.33 -4.931,5.58 -5.761,3.33c-2.159,-5.809 1.191,-12.82 -0.039,-18.98c-0.73,-3.589 -3.5,-6.204 -5.57,-9.024c-2.16,-2.93 -4.62,-5.556 -7.07,-8.169c2.45,2.613 4.91,5.239 7.07,8.169c2.07,2.82 4.43,12.493 5.57,9.024c4.41,-13.546 -4.62,-29.843 0.17,-43.226c1.08,-3.013 4.79,-3.91 7.59,-4.587c-2.53,1.529 -5.061,3.059 -7.59,4.587" style="fill:none;fill-rule:nonzero;stroke:#000;stroke-width:0.8px;"/><path d="M1645.5,1205.22l-935.307,-34.96c4.072,-39.93 8.162,-79.859 13.305,-119.649c4.286,-33.051 9.487,-65.989 15.039,-98.829c5.903,-35.036 13.286,-72.185 29.825,-103.745c28.909,-55.195 78.507,-94.599 109.033,-149.124c19.033,-33.938 24.838,-80.13 34.247,-116.527c8.474,-32.822 15.604,-72.245 39.37,-98.298c14.611,-16.03 35.494,-26.971 55.418,-33.614c14.07,-4.687 29.24,-7.534 43.99,-7.983c7.29,-0.221 14.61,0.069 21.82,1.051c56.69,7.712 80.18,58.241 105.88,105.829c19.59,36.287 36.52,77.439 61.87,110.361c37.48,48.672 96.78,70.233 137.96,114.495c31.75,34.141 45.08,81.594 73.6,118.193c21.62,27.76 53.57,51.253 81,71.312c0.5,0.364 32.47,20.586 38.72,25.787c39.16,32.491 67.43,70.621 72.55,122.441c1.38,14.021 1.75,28.17 1.991,42.271c0.309,16.989 0,34 -0.311,50.989" style="fill:#0c3d3a;fill-rule:nonzero;"/><clipPath id="_clip1"><rect x="710.193" y="442.42" width="935.747" height="69.904" clip-rule="nonzero"/></clipPath><g clip-path="url(#_clip1)"><path d="M1645.5,1205.22l-935.307,-34.96c4.072,-39.93 8.162,-79.859 13.305,-119.649c4.286,-33.051 9.487,-65.989 15.039,-98.829c5.903,-35.036 13.286,-72.185 29.825,-103.745c28.909,-55.195 78.507,-94.599 109.033,-149.124c19.033,-33.938 24.838,-80.13 34.247,-116.527c8.474,-32.822 15.604,-72.245 39.37,-98.298c14.611,-16.03 35.494,-26.971 55.418,-33.614c14.07,-4.687 29.24,-7.534 43.99,-7.983c7.29,-0.221 14.61,0.069 21.82,1.051c56.69,7.712 80.18,58.241 105.88,105.829c19.59,36.287 36.52,77.439 61.87,110.361c37.48,48.672 96.78,70.233 137.96,114.495c31.75,34.141 45.08,81.594 73.6,118.193c21.62,27.76 53.57,51.253 81,71.312c0.5,0.364 32.47,20.586 38.72,25.787c39.16,32.491 67.43,70.621 72.55,122.441c1.38,14.021 1.75,28.17 1.991,42.271c0.309,16.989 0,34 -0.311,50.989" style="fill:#457470;fill-rule:nonzero;"/></g><path d="M932.879,510.583c-0.13,32.931 49.759,59.865 111.341,60.108c61.58,0.242 111.68,-26.298 111.81,-59.229l-223.151,-0.879Z" style="fill:#457470;fill-rule:nonzero;"/><path d="M1046.09,443.118c-6.5,3.336 -15.17,7.782 -23.1,12.578c-5.5,3.324 -10.65,6.819 -14.52,10.229c-2.52,2.223 -5.19,5.616 -7.68,9.366c-3.522,5.293 -6.698,11.297 -8.621,15.574c-2.22,4.94 -4.462,9.886 -6.49,14.915c-1.364,3.38 -2.632,6.797 -3.734,10.273c-3.337,10.516 -4.624,21.304 -4.932,32.184c-0.456,16.099 1.243,32.401 1.491,48.299c0.211,13.532 0.468,27.071 0.477,40.605c0.006,9.012 -0.098,18.021 -0.4,27.026c-0.034,0.983 0.739,1.81 1.724,1.843c0.983,0.032 1.809,-0.739 1.842,-1.724c0.303,-9.045 0.409,-18.095 0.402,-27.147c-0.008,-13.553 -0.265,-27.109 -0.477,-40.658c-0.248,-15.847 -1.947,-32.096 -1.493,-48.143c0.299,-10.549 1.531,-21.01 4.766,-31.206c1.075,-3.389 2.313,-6.721 3.643,-10.018c2.011,-4.985 4.233,-9.888 6.435,-14.785c1.861,-4.137 4.937,-9.944 8.337,-15.062c2.3,-3.463 4.75,-6.614 7.08,-8.667c3.72,-3.286 8.69,-6.646 13.99,-9.85c7.86,-4.75 16.45,-9.153 22.89,-12.457c0.88,-0.45 1.22,-1.526 0.78,-2.402c-0.45,-0.876 -1.53,-1.223 -2.41,-0.773" style="fill:#002523;fill-rule:nonzero;"/><path d="M1022.61,446.413c-8.21,6.271 -16.66,12.719 -24.481,19.874c-5.211,4.769 -10.143,9.85 -14.549,15.398c-2.817,3.547 -5.454,8.066 -7.799,12.905c-3.369,6.957 -6.142,14.577 -8.012,20.853c-5.544,18.61 -9.273,37.078 -12.113,55.647c-4.236,27.711 -6.487,55.646 -9.85,84.61c-0.113,0.978 0.588,1.864 1.566,1.978c0.979,0.114 1.865,-0.589 1.978,-1.567c3.359,-28.919 5.604,-56.813 9.834,-84.481c2.815,-18.41 6.509,-36.719 12.005,-55.167c1.821,-6.117 4.521,-13.54 7.804,-20.317c2.223,-4.587 4.711,-8.879 7.381,-12.243c4.288,-5.399 9.092,-10.343 14.166,-14.984c7.74,-7.082 16.1,-13.462 24.24,-19.671c0.781,-0.597 0.93,-1.718 0.33,-2.501c-0.6,-0.782 -1.72,-0.933 -2.5,-0.334" style="fill:#002523;fill-rule:nonzero;"/><path d="M1029.21,451.963l-12.35,-0.342c-0.98,-0.027 -1.8,0.749 -1.83,1.734c-0.03,0.984 0.75,1.805 1.74,1.833l12.34,0.341c0.98,0.028 1.8,-0.749 1.829,-1.734c0.031,-0.984 -0.75,-1.805 -1.729,-1.832" style="fill:#002523;fill-rule:nonzero;"/><path d="M1013.93,461.791l-7.4,-0.846c-0.98,-0.112 -1.86,0.591 -1.97,1.569c-0.12,0.979 0.59,1.864 1.57,1.976l7.39,0.847c0.98,0.112 1.87,-0.592 1.98,-1.571c0.11,-0.978 -0.59,-1.863 -1.57,-1.975" style="fill:#002523;fill-rule:nonzero;"/><path d="M1002.52,474.628l-8.37,-3.556c-0.906,-0.385 -1.955,0.038 -2.34,0.946c-0.385,0.905 0.038,1.952 0.944,2.337l8.366,3.556c0.91,0.385 1.96,-0.038 2.34,-0.942c0.39,-0.909 -0.04,-1.956 -0.94,-2.341" style="fill:#002523;fill-rule:nonzero;"/><path d="M995.783,486.386l-10.136,-4.142c-0.911,-0.376 -1.954,0.063 -2.327,0.976c-0.372,0.912 0.065,1.951 0.977,2.327l10.136,4.142c0.912,0.371 1.954,-0.068 2.326,-0.976c0.373,-0.912 -0.065,-1.956 -0.976,-2.327" style="fill:#002523;fill-rule:nonzero;"/><path d="M989.51,499.547l-12.162,-2.727c-0.96,-0.215 -1.915,0.388 -2.131,1.352c-0.216,0.96 0.389,1.914 1.351,2.13l12.161,2.727c0.961,0.215 1.916,-0.389 2.132,-1.349c0.214,-0.961 -0.39,-1.918 -1.351,-2.133" style="fill:#002523;fill-rule:nonzero;"/><path d="M983.423,511.213l-10.579,-1.558c-0.974,-0.144 -1.881,0.531 -2.026,1.503c-0.143,0.975 0.532,1.882 1.505,2.026l10.58,1.559c0.974,0.143 1.882,-0.531 2.025,-1.504c0.143,-0.975 -0.53,-1.882 -1.505,-2.026" style="fill:#002523;fill-rule:nonzero;"/><path d="M979.708,526.565l-10.895,-1.302c-0.976,-0.117 -1.865,0.582 -1.982,1.559c-0.117,0.978 0.582,1.866 1.559,1.983l10.894,1.303c0.978,0.115 1.866,-0.583 1.984,-1.56c0.115,-0.979 -0.583,-1.866 -1.56,-1.983" style="fill:#002523;fill-rule:nonzero;"/><path d="M978.275,544.124l-14.748,-1.568c-0.978,-0.104 -1.858,0.606 -1.962,1.584c-0.104,0.98 0.606,1.86 1.586,1.964l14.747,1.568c0.978,0.104 1.858,-0.608 1.962,-1.586c0.105,-0.979 -0.606,-1.859 -1.585,-1.962" style="fill:#002523;fill-rule:nonzero;"/><path d="M978.599,568.844l-19.337,-1.161c-0.983,-0.059 -1.828,0.69 -1.888,1.673c-0.058,0.984 0.692,1.829 1.675,1.888l19.335,1.162c0.983,0.059 1.829,-0.692 1.888,-1.674c0.06,-0.984 -0.69,-1.83 -1.673,-1.888" style="fill:#002523;fill-rule:nonzero;"/><path d="M979.679,594.986l-24.679,-1.201c-0.984,-0.047 -1.82,0.712 -1.868,1.695c-0.048,0.984 0.71,1.822 1.695,1.87l24.679,1.201c0.983,0.048 1.82,-0.712 1.868,-1.695c0.048,-0.984 -0.712,-1.822 -1.695,-1.87" style="fill:#002523;fill-rule:nonzero;"/><path d="M980.108,619.421l-26.65,-1.17c-0.984,-0.043 -1.817,0.72 -1.862,1.703c-0.043,0.985 0.722,1.819 1.705,1.862l26.65,1.169c0.985,0.043 1.817,-0.721 1.862,-1.705c0.043,-0.983 -0.722,-1.816 -1.705,-1.859" style="fill:#002523;fill-rule:nonzero;"/><path d="M980.272,643.876l-29.149,-1.17c-0.985,-0.04 -1.814,0.727 -1.854,1.712c-0.039,0.983 0.727,1.813 1.711,1.853l29.15,1.169c0.984,0.04 1.814,-0.728 1.853,-1.711c0.04,-0.984 -0.726,-1.816 -1.711,-1.853" style="fill:#002523;fill-rule:nonzero;"/><path d="M1036.56,442.779c-6.631,3.346 -15.471,7.804 -23.57,12.612c-5.62,3.337 -10.881,6.847 -14.829,10.271c-2.569,2.227 -5.291,5.624 -7.834,9.38c-3.598,5.317 -6.846,11.35 -8.811,15.647c-2.267,4.957 -4.555,9.92 -6.625,14.964c-1.394,3.394 -2.689,6.826 -3.815,10.316c-3.407,10.553 -4.722,21.378 -5.037,32.296c-0.466,16.16 1.269,32.524 1.522,48.482c0.217,13.581 0.479,27.168 0.488,40.751c0.006,9.043 -0.1,18.084 -0.409,27.121c-0.034,0.984 0.737,1.81 1.722,1.844c0.984,0.034 1.81,-0.739 1.844,-1.722c0.31,-9.079 0.417,-18.161 0.412,-27.246c-0.01,-13.601 -0.273,-27.206 -0.49,-40.804c-0.252,-15.906 -1.987,-32.216 -1.524,-48.324c0.307,-10.581 1.565,-21.075 4.867,-31.302c1.098,-3.403 2.361,-6.748 3.719,-10.057c2.054,-5.001 4.323,-9.921 6.57,-14.834c1.901,-4.156 5.041,-9.991 8.522,-15.132c2.347,-3.47 4.842,-6.626 7.216,-8.684c3.811,-3.304 8.891,-6.679 14.311,-9.9c8.029,-4.764 16.789,-9.179 23.359,-12.493c0.88,-0.443 1.231,-1.517 0.79,-2.396c-0.439,-0.88 -1.52,-1.234 -2.399,-0.79" style="fill-rule:nonzero;"/><path d="M1012.44,445.891c-8.3,6.298 -16.834,12.775 -24.734,19.959c-5.268,4.793 -10.255,9.899 -14.708,15.475c-2.846,3.562 -5.508,8.099 -7.877,12.958c-3.407,6.991 -6.209,14.649 -8.1,20.957c-5.601,18.694 -9.369,37.247 -12.239,55.901c-4.282,27.842 -6.556,55.91 -9.954,85.011c-0.115,0.977 0.587,1.865 1.564,1.979c0.978,0.115 1.865,-0.586 1.979,-1.565c3.394,-29.057 5.662,-57.083 9.938,-84.884c2.845,-18.492 6.578,-36.886 12.131,-55.418c1.841,-6.146 4.57,-13.607 7.889,-20.417c2.245,-4.608 4.758,-8.918 7.457,-12.296c4.336,-5.427 9.192,-10.396 14.322,-15.061c7.819,-7.114 16.272,-13.521 24.482,-19.758c0.79,-0.595 0.94,-1.716 0.35,-2.499c-0.6,-0.785 -1.72,-0.939 -2.5,-0.342" style="fill-rule:nonzero;"/><path d="M526.647,1064.89c18.896,-33.55 37.812,-67.075 57.331,-100.271c15.409,-26.163 30.858,-52.343 47.435,-77.786c13.851,-21.293 24.001,-48.897 46.773,-60.195c22.832,-11.338 57.234,6.644 76.092,-14.26c8.104,-9 16.383,-24.72 21.175,-35.22c17.903,-39.118 24.215,-58.949 42.526,-97.793c6.604,-13.988 15.741,-32.143 30.409,-39.623c21.975,-11.202 62.183,0.896 81.04,4.323c23.98,4.365 32.727,5.513 53.981,17.611c49.931,28.422 80.652,81.585 112.771,126.975c7.58,16.246 15.18,32.532 24,48.136c12.72,22.52 30.08,51.585 53.42,66.176c46.77,29.26 110.14,13.617 160.99,31.85c37.92,13.617 75.93,48.332 104.16,74.378c28.439,26.22 24.64,29.359 51.04,57.84c19.61,21.149 41.649,40.03 60.82,61.599c9.35,10.521 15.52,15.21 16.71,28.3c0.39,4.33 -0.08,8.69 -0.62,12.99c-0.69,5.231 -1.87,10.37 -3.04,15.491c-311.44,-5.121 -642.258,-12.621 -992.812,-22.951c-11.883,-0.33 -17.357,-13.96 -20.824,-22.809c-10.539,-26.92 -16.228,-46.79 -23.377,-74.761" style="fill:#76a9aa;fill-rule:nonzero;"/><clipPath id="_clip2"><rect x="526.647" y="635.085" width="1040.82" height="88.997" clip-rule="nonzero"/></clipPath><g clip-path="url(#_clip2)"><path d="M526.647,1064.89c18.896,-33.55 37.812,-67.075 57.331,-100.271c15.409,-26.163 30.858,-52.343 47.435,-77.786c13.851,-21.293 24.001,-48.897 46.773,-60.195c22.832,-11.338 57.234,6.644 76.092,-14.26c8.104,-9 16.383,-24.72 21.175,-35.22c17.903,-39.118 24.215,-58.949 42.526,-97.793c6.604,-13.988 15.741,-32.143 30.409,-39.623c21.975,-11.202 62.183,0.896 81.04,4.323c23.98,4.365 32.727,5.513 53.981,17.611c49.931,28.422 80.652,81.585 112.771,126.975c7.58,16.246 15.18,32.532 24,48.136c12.72,22.52 30.08,51.585 53.42,66.176c46.77,29.26 110.14,13.617 160.99,31.85c37.92,13.617 75.93,48.332 104.16,74.378c28.439,26.22 24.64,29.359 51.04,57.84c19.61,21.149 41.649,40.03 60.82,61.599c9.35,10.521 15.52,15.21 16.71,28.3c0.39,4.33 -0.08,8.69 -0.62,12.99c-0.69,5.231 -1.87,10.37 -3.04,15.491c-311.44,-5.121 -642.258,-12.621 -992.812,-22.951c-11.883,-0.33 -17.357,-13.96 -20.824,-22.809c-10.539,-26.92 -16.228,-46.79 -23.377,-74.761" style="fill:#95c9ca;fill-rule:nonzero;"/></g><path d="M798.459,723.864c0.072,32.828 56.591,59.357 126.136,59.205c69.545,-0.152 125.945,-26.929 125.875,-59.757l-252.011,0.552Z" style="fill:#95c9ca;fill-rule:nonzero;"/><path d="M739.948,843.932c3.646,-4.521 6.682,-9.547 9.346,-14.847c4.012,-7.966 7.179,-16.538 10.278,-24.917c0.343,-0.923 1.37,-1.396 2.293,-1.054c0.923,0.341 1.395,1.369 1.054,2.292c-3.145,8.504 -6.367,17.198 -10.438,25.292c-2.798,5.558 -5.999,10.831 -9.841,15.584l-0.022,0.027c-3.967,4.89 -8.757,8.974 -13.951,12.456c-5.17,3.456 -10.741,6.324 -16.286,8.811c-3.09,1.379 -6.357,2.199 -9.702,2.663c-3.013,0.41 -6.09,0.547 -9.152,0.574l-0.918,-0c-1.529,-0 -3.052,-0.015 -4.559,-0.041l0.049,-3.566l1.75,0.029c0.877,0.012 1.758,0.012 2.642,0.012l0.883,-0c2.95,-0.012 5.913,-0.15 8.814,-0.545c2.219,-0.315 4.401,-0.78 6.509,-1.503c0.751,-0.259 1.494,-0.561 2.225,-0.888c4.288,-1.912 8.351,-4.344 12.268,-7.062c5.829,-4.043 11.333,-8.713 16.758,-13.317" style="fill:#588b8c;fill-rule:nonzero;"/><path d="M779.395,769.542c-0.129,7.337 -0.291,12.89 -1.01,18.314c-0.723,5.439 -2.014,10.746 -4.399,17.623c-1.936,5.579 -3.064,8.553 -4.476,11.34c-1.442,2.848 -3.177,5.502 -6.331,10.517c-3.576,5.69 -6.075,10.849 -9.811,16.595c-2.03,3.117 -4.432,6.417 -7.59,10.08c-2.403,2.782 -5.207,5.047 -8.174,7.088c-4.649,3.216 -9.692,5.9 -14.315,9.116c-2.359,1.635 -4.443,2.81 -6.408,3.774c-5.331,2.629 -9.817,3.803 -16.314,8.081c-0.82,0.545 -1.048,1.65 -0.506,2.475c0.542,0.825 1.65,1.048 2.472,0.503c6.337,-4.18 10.725,-5.285 15.924,-7.857c2.107,-1.035 4.34,-2.293 6.869,-4.054c5.413,-3.761 11.397,-6.809 16.662,-10.794c2.336,-1.775 4.534,-3.732 6.492,-5.997c3.278,-3.803 5.771,-7.228 7.879,-10.472c3.747,-5.76 6.254,-10.933 9.84,-16.637c3.24,-5.152 5.012,-7.881 6.494,-10.804c1.467,-2.899 2.651,-5.985 4.664,-11.787c2.48,-7.146 3.813,-12.666 4.564,-18.321c0.737,-5.544 0.909,-11.221 1.042,-18.72c0.017,-0.984 -0.769,-1.798 -1.752,-1.815c-0.985,-0.018 -1.799,0.768 -1.816,1.752" style="fill:#588b8c;fill-rule:nonzero;"/><path d="M758.826,816.014l21.298,-21.218c0.697,-0.695 0.698,-1.826 0.003,-2.524c-0.695,-0.695 -1.824,-0.699 -2.522,-0.003l-21.297,21.217c-0.698,0.696 -0.699,1.825 -0.004,2.523c0.695,0.698 1.825,0.7 2.522,0.005" style="fill:#588b8c;fill-rule:nonzero;"/><path d="M755.908,823.896l15.65,-6.507c0.909,-0.378 1.342,-1.423 0.963,-2.332c-0.377,-0.908 -1.423,-1.341 -2.332,-0.963l-15.65,6.506c-0.909,0.378 -1.34,1.424 -0.963,2.332c0.378,0.91 1.423,1.342 2.332,0.964" style="fill:#588b8c;fill-rule:nonzero;"/><path d="M751.313,831.46l9.962,-0.229c0.984,-0.023 1.764,-0.841 1.742,-1.825c-0.023,-0.985 -0.839,-1.766 -1.824,-1.743l-9.961,0.229c-0.985,0.023 -1.765,0.841 -1.743,1.825c0.023,0.985 0.841,1.765 1.824,1.743" style="fill:#588b8c;fill-rule:nonzero;"/><path d="M747.322,838.454l8.72,3.813c0.903,0.391 1.955,-0.011 2.349,-0.919c0.395,-0.907 -0.017,-1.952 -0.92,-2.354l-8.72,-3.813c-0.902,-0.39 -1.956,0.023 -2.35,0.93c-0.394,0.896 0.019,1.953 0.921,2.343" style="fill:#588b8c;fill-rule:nonzero;"/><path d="M740.294,847.7l7.567,5.732c0.784,0.593 1.904,0.437 2.499,-0.352c0.594,-0.779 0.439,-1.901 -0.346,-2.493l-7.566,-5.734c-0.786,-0.591 -1.905,-0.435 -2.5,0.354c-0.594,0.779 -0.439,1.901 0.346,2.493" style="fill:#588b8c;fill-rule:nonzero;"/><path d="M729.092,855.932l6.991,7.498c0.671,0.725 1.802,0.766 2.521,0.097c0.722,-0.669 0.761,-1.804 0.091,-2.528l-6.991,-7.499c-0.671,-0.723 -1.801,-0.764 -2.522,-0.094c-0.72,0.669 -0.76,1.802 -0.09,2.526" style="fill:#588b8c;fill-rule:nonzero;"/><path d="M718.985,865.369l-0.004,0l0.004,0Zm-1.492,-0.08c-0.336,-0.172 -0.62,-0.458 -0.792,-0.825c-0.413,-0.895 -0.023,-1.95 0.871,-2.374c0.389,-0.172 0.887,-0.264 1.479,-0.034c0.26,0.103 0.756,0.424 1.27,1.055c1.349,1.662 4.199,6.524 4.199,6.524c0.495,0.849 0.208,1.949 -0.642,2.442c-0.851,0.493 -1.945,0.207 -2.44,-0.643c-0,0 -2.633,-4.528 -3.887,-6.076l-0.058,-0.069Z" style="fill:#588b8c;fill-rule:nonzero;"/><path d="M705.352,869.663l6.653,8.919c0.589,0.792 1.708,0.956 2.498,0.369c0.788,-0.587 0.952,-1.707 0.363,-2.5l-6.653,-8.918c-0.588,-0.793 -1.708,-0.957 -2.496,-0.369c-0.79,0.587 -0.954,1.707 -0.365,2.499" style="fill:#588b8c;fill-rule:nonzero;"/><path d="M735.731,843.581c3.11,-3.593 5.703,-7.582 7.981,-11.779c3.485,-6.419 6.231,-13.331 8.92,-20.085c0.363,-0.915 1.402,-1.362 2.317,-0.999c0.914,0.365 1.361,1.403 0.998,2.319c-2.741,6.883 -5.547,13.924 -9.099,20.468c-2.423,4.472 -5.192,8.702 -8.511,12.514l-0.023,0.023c-2.792,3.197 -6.051,5.977 -9.586,8.405c-5.052,3.472 -10.67,6.252 -16.273,8.604l-0.036,0.021l-0.363,0.154c-2.694,1.121 -5.543,1.78 -8.459,2.154c-2.606,0.329 -5.268,0.439 -7.916,0.461l-0.793,0c-1.323,0 -2.64,-0.022 -3.943,-0.033l0.046,-3.57l1.508,0.021c0.756,0.01 1.517,0.01 2.279,0.01l0.763,0c2.542,-0.01 5.099,-0.108 7.601,-0.427c2.6,-0.341 5.141,-0.912 7.543,-1.912c3.677,-1.538 7.164,-3.472 10.525,-5.625c5.052,-3.253 9.821,-7.022 14.521,-10.724" style="fill-rule:nonzero;"/><path d="M769.704,786.13c-0.111,5.741 -0.403,9.988 -1.184,14.14c-0.78,4.148 -2.051,8.199 -4.096,13.56c-1.246,3.262 -2.188,5.321 -3.165,7.021c-1.666,2.896 -3.425,4.777 -6.824,9.658c-3.463,4.975 -5.943,10.676 -9.17,15.797c-1.325,2.109 -2.781,4.109 -4.506,5.9c-2.097,2.175 -4.532,3.945 -7.102,5.56c-4,2.506 -8.324,4.614 -12.301,7.131c-2.041,1.285 -3.841,2.219 -5.539,2.977c-4.606,2.055 -8.489,2.978 -14.105,6.34c-0.845,0.505 -1.119,1.604 -0.613,2.45c0.507,0.846 1.603,1.121 2.447,0.615c5.462,-3.274 9.247,-4.153 13.727,-6.153c1.836,-0.824 3.783,-1.813 5.989,-3.208c4.662,-2.945 9.794,-5.35 14.335,-8.471c2.059,-1.418 3.998,-2.966 5.732,-4.769c1.894,-1.967 3.499,-4.164 4.954,-6.472c3.198,-5.076 5.647,-10.734 9.08,-15.657c3.489,-5.009 5.281,-6.947 6.989,-9.919c1.049,-1.824 2.069,-4.028 3.405,-7.528c2.138,-5.601 3.454,-9.838 4.27,-14.173c0.813,-4.323 1.128,-8.748 1.245,-14.729c0.02,-0.985 -0.765,-1.799 -1.749,-1.819c-0.985,-0.019 -1.799,0.766 -1.819,1.749" style="fill-rule:nonzero;"/><path d="M752.314,821.703l18.43,-17.069c0.722,-0.668 0.765,-1.798 0.097,-2.52c-0.669,-0.723 -1.8,-0.766 -2.522,-0.098l-18.429,17.07c-0.723,0.669 -0.767,1.799 -0.097,2.521c0.669,0.723 1.799,0.766 2.521,0.096" style="fill-rule:nonzero;"/><path d="M808.808,1092.7c63.041,-36.9 72.62,-42.511 137.57,-75.12c35.736,-17.943 72.282,-38.124 112.052,-42.409c56.18,-6.039 112.4,5.435 168.589,-0.234c50.121,-5.046 79,-70.578 131.491,-65.358c36.28,3.603 67.74,25.345 101.12,38.962c44.61,18.214 90.139,33.623 134.73,51.899c35.329,14.47 64.15,30.68 96,52.829c33.67,23.391 64.42,53.611 101.909,69.991c34.071,14.89 71.841,13.35 105.681,29.07c21.35,9.91 33.6,33.43 44.54,54.309c3.82,7.3 11.38,23.101 3.31,31.29c-1.89,1.92 -4.55,3.17 -7.13,3.351c-48.53,3.39 -97.16,4.67 -145.731,7.319c-72.759,3.951 -72.569,3.681 -145.099,13.561c-100.83,13.729 -197.73,24.9 -300.01,25.93c-118.98,1.21 -236.72,-12.55 -355.289,-19.87c-24.195,-1.5 -48.443,-1.97 -72.602,-4.15c-48.302,-4.35 -96.586,-9.08 -144.693,-15.45c-17.267,-2.3 -20.325,-25.09 -17.108,-40.05c1.679,-7.85 3.623,-15.7 6.486,-23.131c6.522,-16.979 13.838,-33.619 21.632,-49.959c6.964,-14.61 14.846,-28.66 22.552,-42.78" style="fill:#0e726a;fill-rule:nonzero;"/><path d="M750.948,1103.67c63.041,-36.9 72.62,-42.51 137.57,-75.12c35.736,-17.94 72.284,-38.124 112.052,-42.409c56.18,-6.039 112.399,5.435 168.59,-0.234c50.12,-5.045 79,-70.578 131.49,-65.357c36.279,3.603 67.739,25.344 101.119,38.961c44.611,18.214 90.141,33.623 134.731,51.899c35.33,14.47 64.15,30.68 96,52.83c33.67,23.39 64.42,53.61 101.91,69.991c34.07,14.889 71.84,13.349 105.68,29.069c21.349,9.91 33.599,33.431 44.54,54.31c3.82,7.3 11.38,23.1 3.309,31.29c-1.889,1.92 -4.55,3.17 -7.129,3.35c-48.53,3.39 -97.16,4.67 -145.73,7.32c-72.76,3.96 -72.57,3.68 -145.1,13.56c-100.83,13.73 -197.73,24.9 -300.011,25.931c-118.979,1.209 -236.719,-12.551 -355.288,-19.871c-24.195,-1.5 -48.443,-1.97 -72.602,-4.15c-48.302,-4.35 -96.586,-9.08 -144.694,-15.45c-17.266,-2.3 -20.324,-25.09 -17.107,-40.05c1.679,-7.85 3.623,-15.7 6.486,-23.13c6.522,-16.98 13.838,-33.62 21.632,-49.96c6.964,-14.61 14.846,-28.66 22.552,-42.78" style="fill:#0d6159;fill-rule:nonzero;"/><path d="M125.487,1194.47c29.307,-47.56 62.696,-105.81 115.421,-133.84c41.661,-22.17 92.16,-31.61 123.332,-69.327c10.545,-12.728 19.019,-26.959 27.021,-41.269c28.52,-50.918 45.276,-117.336 85.902,-161.35c25.097,-27.188 78.039,-39.493 114.027,-31.967c14.41,3.018 28.706,7.209 42.118,13.144c62.238,27.536 57.058,103.218 97.603,148.87c45.935,51.719 111.321,87.359 168.815,125.929c18.611,12.48 37.509,24.581 55.729,37.571c22.195,15.809 75.145,60.139 110.375,76.819c18.34,8.691 103.34,35.181 106.01,36.15c24.57,9.02 108.521,44.43 131.26,57.4c8.461,4.82 15.051,12.25 21.69,19.2c3.571,3.74 9.34,9.521 6.571,13.82c-0.581,0.941 -1.941,1.371 -3.091,1.451c-69.07,4.559 -194.34,11.33 -263.72,11.899c-43.74,0.37 -87.575,0.23 -131.276,-2.27c-14.559,-0.83 -141.06,-15.9 -183.787,-15.43c-35.481,0.381 -74.214,6.841 -109.434,9.86c-72.094,6.181 -152.624,5.53 -221.691,4.931c-55.733,-0.481 -111.456,-2.761 -167.15,-4.41c-24.428,-0.721 -81.77,0.58 -111.878,-9.461c-27.194,-9.07 -48.193,-21.11 -35.408,-49.86c5.892,-13.23 13.459,-25.759 21.561,-37.86" style="fill:#5c7e87;fill-rule:nonzero;"/><clipPath id="_clip3"><path d="M113.069,863.319l1231.8,41.61l4.2,-124.1l-1231.81,-41.61l-4.193,124.1Z" clip-rule="nonzero"/></clipPath><g clip-path="url(#_clip3)"><path d="M125.487,1194.47c29.307,-47.56 62.696,-105.81 115.421,-133.84c41.661,-22.17 92.16,-31.61 123.332,-69.327c10.545,-12.728 19.019,-26.959 27.021,-41.269c28.52,-50.918 45.276,-117.336 85.902,-161.35c25.097,-27.188 78.039,-39.493 114.027,-31.967c14.41,3.018 28.706,7.209 42.118,13.144c62.238,27.536 57.058,103.218 97.603,148.87c45.935,51.719 111.321,87.359 168.815,125.929c18.611,12.48 37.509,24.581 55.729,37.571c22.195,15.809 75.145,60.139 110.375,76.819c18.34,8.691 103.34,35.181 106.01,36.15c24.57,9.02 108.521,44.43 131.26,57.4c8.461,4.82 15.051,12.25 21.69,19.2c3.571,3.74 9.34,9.521 6.571,13.82c-0.581,0.941 -1.941,1.371 -3.091,1.451c-69.07,4.559 -194.34,11.33 -263.72,11.899c-43.74,0.37 -87.575,0.23 -131.276,-2.27c-14.559,-0.83 -141.06,-15.9 -183.787,-15.43c-35.481,0.381 -74.214,6.841 -109.434,9.86c-72.094,6.181 -152.624,5.53 -221.691,4.931c-55.733,-0.481 -111.456,-2.761 -167.15,-4.41c-24.428,-0.721 -81.77,0.58 -111.878,-9.461c-27.194,-9.07 -48.193,-21.11 -35.408,-49.86c5.892,-13.23 13.459,-25.759 21.561,-37.86" style="fill:#799ca6;fill-rule:nonzero;"/></g><path d="M426.566,873.888c-0.99,39.689 59.365,73.438 134.698,75.317c75.332,1.879 137.296,-28.818 138.286,-68.506l-272.984,-6.811Z" style="fill:#799ca6;fill-rule:nonzero;"/><path d="M855.908,968.849c0.795,-4.497 1.701,-9.617 5.792,-12.845c10.908,-8.601 31.112,-2.426 39.095,4.684c4.291,3.823 0.695,10.389 3.403,15.01c2.545,4.347 9.136,6.684 11.822,10.98c6.534,10.456 -2.679,10.765 -1.773,22.313c0.907,11.58 14.312,12.029 3.72,23.33c-2.178,2.319 -7.874,0.34 -10.708,2.189c-3.71,2.41 -3.305,7.811 -7.514,9.66c-13.479,5.93 -12.095,-4.53 -26.433,-6.12c-5.246,-0.58 -9.999,4.04 -15.254,3.5c-12.962,-1.319 -4.475,-7.03 -9.664,-14.639c-2.478,-3.63 -10.207,-3.891 -12.453,-7.621c-6.769,-11.219 8.528,-8.92 10.708,-21.01c2.012,-11.17 -13.304,-11.16 -4.974,-20.47c3.489,-3.899 9.013,-6.503 14.233,-8.961" style="fill:#7b8c00;fill-rule:nonzero;"/><path d="M873.283,969.894c3.735,16.844 7.48,33.735 9.115,50.785c1.421,14.811 0.02,29.701 0.028,44.551c0.008,10.5 2.871,-21.25 -0.019,-31.5c-1.143,-4.051 -6.726,-6.69 -11.332,-8.771c-6.322,-2.86 -13.586,-4.29 -20.668,-5.69c7.082,1.4 14.346,2.83 20.668,5.69c4.606,2.081 6.071,8.14 11.332,8.771c3.13,0.38 -1.31,-5.16 -0.005,-7.41c1.636,-2.821 5.394,-4.551 8.207,-6.731c2.611,-2.03 5.335,-3.979 8.057,-5.92c-2.722,1.941 -5.446,3.89 -8.057,5.92c-2.813,2.18 -4.293,6.21 -8.207,6.731c-2.377,0.32 0.242,-3.771 -0.004,-5.641c-1.535,-11.71 -5.728,-15.949 0.84,-26.746c1.782,-2.93 4.968,-5.246 8.007,-7.459c-3.039,2.213 -6.225,4.529 -8.007,7.459c-2.179,3.579 0.959,13.357 -3.566,11.557c-5.371,-2.141 -0.526,-9.534 -2.508,-13.977c-1.273,-2.849 -4.268,-5.08 -6.965,-7.245c-2.465,-1.977 -5.446,-3.534 -8.383,-5.069c2.937,1.535 5.918,3.092 8.383,5.069c2.697,2.165 6.325,10.223 6.965,7.245c1.54,-7.177 -1.26,-14.635 -3.881,-21.619Z" style="fill:none;fill-rule:nonzero;stroke:#000;stroke-width:0.81px;"/><path d="M828.027,1018.39c-5.997,-0.87 -12.451,-1.8 -17.381,-5.319c-5.502,-3.931 -10.379,-9.571 -12.463,-15.997c-2.547,-7.866 -2.572,-19.978 6.612,-23.017c2.623,-0.867 4.108,1.597 4.745,-1.093c2.824,-11.931 -7.198,-8.97 -4.187,-20.975c1.797,-7.162 7.382,-1.757 11.06,-8.16c4.471,-7.782 -0.625,-11.901 7.925,-14.549c9.307,-2.886 15.551,2.189 21.112,8.328c1.588,1.755 1.509,4.969 3.567,6.138c10.243,5.824 14.224,3.401 15.473,15.176c1.406,13.271 -7.733,10.635 -9.668,23.812c-1.735,11.818 8.297,15.053 5.179,23.486c-3.758,10.17 -15.367,10.79 -24.274,12.38c-2.66,0.48 -4.998,-0.22 -7.7,-0.21" style="fill:#f4ff9a;fill-rule:nonzero;"/><path d="M830.271,961.684c1.178,7.567 2.359,15.143 3.104,22.765c0.171,1.749 1.262,30.492 1.281,32.221c0.083,7.191 -0.035,14.37 -0.152,21.55c-0.612,-7.149 -1.241,-14.5 0.152,-21.55c0.694,-3.509 9.623,-12 12.283,-14.03c2.059,-1.569 4.383,-2.773 6.685,-3.964c-2.302,1.191 -4.626,2.395 -6.685,3.964c-2.404,1.83 -4.635,3.92 -6.626,6.19c-2.123,2.43 -3.016,9.69 -5.657,7.84c-3.307,-2.309 0.966,-8.309 -0.438,-12.099c-0.887,-2.391 -3.724,-3.521 -5.87,-4.889c-3.682,-2.354 -7.615,-4.299 -11.534,-6.234c3.919,1.935 7.852,3.88 11.534,6.234c2.146,1.368 3.351,4.519 5.87,4.889c1.332,0.199 -0.092,-2.691 -0.147,-4.04c-0.124,-3.02 0.755,-6.265 -0.392,-9.063c-1.691,-4.124 -4.774,-7.582 -7.782,-10.87c-2.013,-2.198 -4.596,-3.823 -7.119,-5.41c2.523,1.587 5.106,3.212 7.119,5.41c3.008,3.288 3.82,8.83 7.782,10.87c2.081,1.072 -0.079,-4.688 -0.304,-7.019c-0.835,-8.598 -3.005,-10.086 1.157,-18.108c0.675,-1.301 2.112,-2.085 3.397,-2.787c-1.285,0.702 -2.722,1.486 -3.397,2.787c-1.361,2.623 -0.471,10.694 -2.466,8.513c-2.99,-3.269 -2.325,-8.772 -1.795,-13.17Z" style="fill:none;fill-rule:nonzero;stroke:#000;stroke-width:0.8px;"/><path d="M286.372,1220.16c15.351,-30.01 30.935,-60.49 51.896,-86.33c52.306,-64.45 74.728,-34.52 128.962,-97.53c22.948,-26.64 64.15,-161.205 82.734,-179.685c22.637,-22.507 57.663,-37.137 88.091,-31.178c107.241,21.011 52.131,93.881 140.125,162.848c105.662,82.825 110.708,74.305 215.689,158.295c30.931,24.75 72.641,28.3 108.601,43.45c34.87,14.7 70.46,27.96 103.89,46.1c9.02,4.889 36.1,55.09 26.05,56.13c-192.92,19.9 -390.918,-8.34 -584.497,1.48c-86.923,4.41 -173.962,9.77 -260.924,7.31c-37.909,-1.07 -82.227,6.5 -112.519,-17.861c-16.033,-12.889 1.636,-44.609 11.902,-63.029" style="fill:#cfe739;fill-rule:nonzero;"/><path d="M769.413,785.319l-16.581,25.757c-0.533,0.829 -0.294,1.932 0.535,2.466c0.827,0.534 1.933,0.294 2.465,-0.535l16.582,-25.756c0.533,-0.828 0.293,-1.934 -0.534,-2.467c-0.829,-0.533 -1.933,-0.293 -2.467,0.535" style="fill-rule:nonzero;"/><path d="M749.722,828.09l13.544,-5.232c0.918,-0.356 1.375,-1.39 1.021,-2.308c-0.355,-0.919 -1.388,-1.376 -2.308,-1.021l-13.544,5.233c-0.918,0.355 -1.375,1.39 -1.02,2.307c0.355,0.919 1.389,1.376 2.307,1.021" style="fill-rule:nonzero;"/><path d="M745.698,834.18l8.62,-0.184c0.984,-0.022 1.767,-0.837 1.746,-1.822c-0.022,-0.984 -0.838,-1.766 -1.822,-1.746l-8.62,0.186c-0.985,0.02 -1.767,0.837 -1.746,1.82c0.021,0.985 0.838,1.767 1.822,1.746" style="fill-rule:nonzero;"/><path d="M742.185,839.8l7.546,3.067c0.913,0.371 1.954,-0.074 2.325,-0.988c0.37,-0.906 -0.069,-1.95 -0.981,-2.319l-7.547,-3.067c-0.912,-0.37 -1.954,0.064 -2.324,0.979c-0.371,0.914 0.068,1.958 0.981,2.328" style="fill-rule:nonzero;"/><path d="M736.062,847.214l6.548,4.604c0.805,0.567 1.919,0.375 2.486,-0.427c0.566,-0.81 0.373,-1.922 -0.432,-2.49l-6.548,-4.603c-0.805,-0.567 -1.919,-0.376 -2.486,0.426c-0.567,0.81 -0.373,1.921 0.432,2.49" style="fill-rule:nonzero;"/><path d="M726.334,853.795l6.048,6.043c0.698,0.692 1.829,0.692 2.524,-0c0.696,-0.703 0.694,-1.835 -0.002,-2.527l-6.05,-6.032c-0.696,-0.704 -1.827,-0.704 -2.523,-0c-0.696,0.692 -0.695,1.825 0.003,2.516" style="fill-rule:nonzero;"/><path d="M717.758,861.446l-0.026,0.01l0.023,-0.01l0.003,0Zm-0.091,0.027l-0.022,0.01l0.017,0l0.005,-0.01Zm-0.099,0.029l-0.007,0.008l0.007,-0.008Zm-1.247,-0.149c-0.354,-0.183 -0.649,-0.479 -0.819,-0.875c-0.389,-0.904 0.029,-1.957 0.934,-2.344c0.36,-0.156 0.814,-0.23 1.355,-0.045c0.247,0.083 0.722,0.36 1.215,0.921c1.176,1.338 3.677,5.305 3.677,5.305c0.524,0.829 0.272,1.937 -0.562,2.453c-0.834,0.526 -1.937,0.277 -2.46,-0.562c-0,0 -2.265,-3.625 -3.336,-4.843l-0.004,-0.01Z" style="fill-rule:nonzero;"/><path d="M705.766,864.83l5.758,7.175c0.616,0.769 1.739,0.889 2.508,0.275c0.768,-0.615 0.891,-1.736 0.276,-2.505l-5.759,-7.186c-0.615,-0.758 -1.739,-0.89 -2.507,-0.275c-0.769,0.616 -0.892,1.746 -0.276,2.516" style="fill-rule:nonzero;"/><path d="M1018.23,452.416l-12.34,-0.342c-0.99,-0.027 -1.81,0.75 -1.83,1.734c-0.03,0.985 0.75,1.805 1.73,1.833l12.34,0.342c0.99,0.027 1.81,-0.75 1.84,-1.734c0.02,-0.985 -0.75,-1.805 -1.74,-1.833" style="fill-rule:nonzero;"/><path d="M1002.95,462.246l-7.399,-0.846c-0.978,-0.112 -1.863,0.591 -1.975,1.569c-0.112,0.979 0.592,1.864 1.57,1.975l7.394,0.847c0.98,0.112 1.87,-0.591 1.98,-1.57c0.11,-0.979 -0.59,-1.864 -1.57,-1.975" style="fill-rule:nonzero;"/><path d="M991.538,475.076l-8.367,-3.556c-0.906,-0.385 -1.955,0.038 -2.34,0.947c-0.385,0.905 0.038,1.951 0.944,2.337l8.368,3.555c0.906,0.386 1.955,-0.037 2.339,-0.942c0.385,-0.909 -0.038,-1.956 -0.944,-2.341" style="fill-rule:nonzero;"/><path d="M984.803,486.837l-10.136,-4.143c-0.911,-0.375 -1.954,0.064 -2.326,0.976c-0.373,0.913 0.066,1.952 0.976,2.327l10.136,4.143c0.913,0.371 1.954,-0.068 2.326,-0.976c0.373,-0.912 -0.065,-1.957 -0.976,-2.327" style="fill-rule:nonzero;"/><path d="M978.535,499.997l-12.162,-2.727c-0.96,-0.215 -1.915,0.389 -2.131,1.352c-0.215,0.961 0.389,1.915 1.351,2.13l12.161,2.727c0.962,0.215 1.916,-0.389 2.132,-1.349c0.215,-0.96 -0.39,-1.918 -1.351,-2.133" style="fill-rule:nonzero;"/><path d="M972.437,511.662l-10.579,-1.558c-0.974,-0.144 -1.881,0.531 -2.026,1.503c-0.143,0.975 0.532,1.882 1.505,2.026l10.58,1.558c0.974,0.144 1.882,-0.53 2.025,-1.503c0.143,-0.975 -0.53,-1.882 -1.505,-2.026" style="fill-rule:nonzero;"/><path d="M968.734,527.016l-10.895,-1.302c-0.976,-0.117 -1.865,0.582 -1.982,1.559c-0.118,0.978 0.581,1.866 1.559,1.983l10.893,1.303c0.978,0.115 1.867,-0.583 1.984,-1.56c0.116,-0.979 -0.583,-1.866 -1.559,-1.983" style="fill-rule:nonzero;"/><path d="M967.3,544.574l-14.747,-1.568c-0.978,-0.104 -1.858,0.606 -1.962,1.585c-0.105,0.98 0.606,1.859 1.585,1.963l14.748,1.568c0.978,0.104 1.858,-0.607 1.962,-1.586c0.104,-0.978 -0.606,-1.858 -1.586,-1.962" style="fill-rule:nonzero;"/><path d="M967.625,569.295l-19.337,-1.161c-0.983,-0.06 -1.829,0.69 -1.888,1.673c-0.058,0.983 0.692,1.829 1.675,1.888l19.335,1.161c0.983,0.059 1.829,-0.692 1.888,-1.674c0.06,-0.983 -0.691,-1.83 -1.673,-1.887" style="fill-rule:nonzero;"/><path d="M968.705,595.437l-24.679,-1.201c-0.984,-0.048 -1.82,0.711 -1.868,1.695c-0.048,0.983 0.71,1.822 1.695,1.869l24.679,1.201c0.983,0.048 1.82,-0.711 1.868,-1.695c0.048,-0.983 -0.712,-1.822 -1.695,-1.869" style="fill-rule:nonzero;"/><path d="M969.133,619.87l-26.65,-1.169c-0.985,-0.043 -1.817,0.72 -1.862,1.703c-0.043,0.985 0.722,1.819 1.705,1.861l26.65,1.17c0.984,0.043 1.817,-0.721 1.862,-1.705c0.042,-0.983 -0.722,-1.817 -1.705,-1.86" style="fill-rule:nonzero;"/><path d="M969.296,644.325l-29.149,-1.169c-0.985,-0.04 -1.814,0.726 -1.854,1.711c-0.04,0.984 0.726,1.814 1.711,1.853l29.149,1.17c0.985,0.04 1.814,-0.728 1.854,-1.711c0.04,-0.984 -0.727,-1.816 -1.711,-1.854" style="fill-rule:nonzero;"/><path d="M691.054,848.207c2.813,22.752 20.134,87.821 27.84,109.404c6.126,17.169 31.067,54.389 41.654,69.209c25.557,35.78 54.543,30.75 75.655,70.84c10.882,20.651 27.509,50.98 36.766,72.41c8.521,19.73 30.41,39.51 39.525,58.97c7.547,16.11 38.389,52.09 44.276,68.89" style="fill:none;fill-rule:nonzero;stroke:#000;stroke-width:2.86px;"/><path d="M684.411,847.004c1.367,11.4 6.253,33.409 11.739,55.262c5.48,21.832 11.557,43.521 15.296,54.327c2.482,7.171 8.109,17.822 14.598,28.892c9.113,15.535 19.92,31.935 25.942,40.625c10.32,14.9 21.198,22.83 31.885,29.82c7.96,5.18 15.811,9.83 23.208,16.57c6.425,5.86 12.504,13.32 18.019,24.12c6.253,12.23 14.466,27.89 21.981,43.04c5.125,10.35 9.925,20.47 13.552,29.13c1.765,4.22 4.108,8.43 6.797,12.65c9.883,15.5 24.54,30.97 31.484,46.27c5.613,12.36 24.479,36.39 35.583,54.521c3.302,5.399 5.909,10.25 7.211,14.08c0.317,0.939 1.331,1.429 2.264,1.109c0.931,-0.32 1.431,-1.33 1.115,-2.26c-1.367,-4.02 -4.08,-9.13 -7.546,-14.79c-11.03,-18.01 -29.802,-41.87 -35.377,-54.139c-7.006,-15.431 -21.753,-31.061 -31.726,-46.701c-2.574,-4.049 -4.823,-8.09 -6.514,-12.12c-3.653,-8.72 -8.485,-18.91 -13.646,-29.32c-7.522,-15.19 -15.742,-30.84 -22,-43.09c-5.75,-11.26 -12.095,-19.03 -18.794,-25.13c-7.544,-6.87 -15.541,-11.63 -23.661,-16.94c-10.351,-6.75 -20.906,-14.42 -30.901,-28.85c-5.989,-8.639 -16.735,-24.947 -25.797,-40.401c-6.35,-10.828 -11.877,-21.237 -14.304,-28.243c-3.72,-10.751 -9.758,-32.318 -15.208,-54.039c-5.442,-21.678 -10.3,-43.51 -11.657,-54.823c-0.117,-0.968 -1.006,-1.674 -1.984,-1.552c-0.978,0.109 -1.676,1.002 -1.559,1.982" style="fill:#a8c207;fill-rule:nonzero;"/><path d="M677.309,838.711c3.537,28.715 7.081,57.485 12.877,85.825c5.566,27.217 8.745,55.756 21.163,80.594c14.678,29.36 40.082,52.01 58.655,79.06c17.923,26.11 36.312,52.13 50.753,80.32c1.372,2.68 33.298,95.95 36.291,105.49c2.491,7.95 4.453,16.04 6.413,24.14" style="fill:none;fill-rule:nonzero;stroke:#000;stroke-width:2.85px;"/><path d="M670.765,837.58c3.401,28.801 6.809,57.658 12.382,86.084c5.353,27.299 8.41,55.923 20.35,80.836c14.115,29.45 38.544,52.17 56.403,79.3c17.235,26.18 34.917,52.29 48.804,80.56c1.319,2.68 32.018,96.24 34.896,105.8c2.396,7.98 3.997,13.75 5.882,21.859" style="fill:none;fill-rule:nonzero;stroke:#a8c207;stroke-width:2.85px;"/><path d="M678.221,846.075c4.369,2.362 8.736,4.724 13.105,7.087c-4.369,-2.363 -8.736,-4.725 -13.105,-7.087Z" style="fill:none;fill-rule:nonzero;stroke:#000;stroke-width:2.86px;"/><path d="M679.301,855.92c4.504,1.197 9.009,2.396 13.513,3.593c-4.504,-1.197 -9.009,-2.396 -13.513,-3.593Z" style="fill:none;fill-rule:nonzero;stroke:#000;stroke-width:2.86px;"/><path d="M680.694,864.314c4.406,0.308 8.811,0.626 13.216,0.944c-4.405,-0.317 -8.81,-0.635 -13.216,-0.943Z" style="fill:none;fill-rule:nonzero;stroke:#000;stroke-width:2.86px;"/><path d="M694.87,870.214c-4.525,0.363 -9.05,0.727 -13.576,1.088c4.526,-0.361 9.051,-0.725 13.576,-1.088Z" style="fill:none;fill-rule:nonzero;stroke:#000;stroke-width:2.86px;"/><path d="M696.33,875.917c-4.639,0.956 -9.278,1.912 -13.917,2.879c4.639,-0.967 9.278,-1.923 13.917,-2.879Z" style="fill:none;fill-rule:nonzero;stroke:#000;stroke-width:2.86px;"/><path d="M698.126,882.652c-4.75,1.429 -9.5,2.856 -14.25,4.285c4.75,-1.429 9.5,-2.856 14.25,-4.285Z" style="fill:none;fill-rule:nonzero;stroke:#000;stroke-width:2.86px;"/><path d="M700.063,890.893c-5.024,1.308 -10.05,2.615 -15.076,3.934c5.026,-1.319 10.052,-2.626 15.076,-3.934Z" style="fill:none;fill-rule:nonzero;stroke:#000;stroke-width:2.86px;"/><path d="M702.609,901.232c-5.243,1.812 -10.486,3.626 -15.73,5.438c5.244,-1.812 10.487,-3.626 15.73,-5.438Z" style="fill:none;fill-rule:nonzero;stroke:#000;stroke-width:2.86px;"/><path d="M704.767,910.341c-5.381,2.175 -10.76,4.34 -16.14,6.516c5.38,-2.176 10.759,-4.341 16.14,-6.516Z" style="fill:none;fill-rule:nonzero;stroke:#000;stroke-width:2.86px;"/><path d="M708.135,921.856c-5.626,2.417 -11.251,4.845 -16.876,7.262c5.625,-2.417 11.25,-4.845 16.876,-7.262Z" style="fill:none;fill-rule:nonzero;stroke:#000;stroke-width:2.86px;"/><path d="M711.976,935.579c-6.087,1.835 -12.175,3.659 -18.263,5.494c6.088,-1.835 12.176,-3.659 18.263,-5.494Z" style="fill:none;fill-rule:nonzero;stroke:#000;stroke-width:2.86px;"/><path d="M719.923,960.081c-7.059,1.56 -14.12,3.132 -21.179,4.692c7.059,-1.56 14.12,-3.132 21.179,-4.692Z" style="fill:none;fill-rule:nonzero;stroke:#000;stroke-width:2.86px;"/><path d="M724.361,969.827c-7.869,2.154 -15.739,4.307 -23.608,6.472c7.869,-2.165 15.739,-4.318 23.608,-6.472Z" style="fill:none;fill-rule:nonzero;stroke:#000;stroke-width:2.86px;"/><path d="M704.132,987.847c8.768,-2.57 17.536,-5.132 26.304,-7.703c-8.768,2.571 -17.536,5.133 -26.304,7.703Z" style="fill:none;fill-rule:nonzero;stroke:#000;stroke-width:2.86px;"/><path d="M709.445,1001.76c9.461,-3.058 18.921,-6.101 28.381,-9.145c-9.46,3.044 -18.92,6.087 -28.381,9.145Z" style="fill:none;fill-rule:nonzero;stroke:#000;stroke-width:2.86px;"/><path d="M720.547,1019.75c8.963,-4.03 17.925,-8.07 26.887,-12.1c-8.962,4.03 -17.924,8.07 -26.887,12.1Z" style="fill:none;fill-rule:nonzero;stroke:#000;stroke-width:2.86px;"/><path d="M731.416,1034.6c8.354,-4.539 16.706,-9.08 25.06,-13.619c-8.354,4.539 -16.706,9.08 -25.06,13.619Z" style="fill:none;fill-rule:nonzero;stroke:#000;stroke-width:2.86px;"/><path d="M746.344,1052.67l24.839,-13.67l-24.839,13.67Z" style="fill:none;fill-rule:nonzero;stroke:#000;stroke-width:2.86px;"/><path d="M764.361,1075.29l27.807,-20l-27.807,20Z" style="fill:none;fill-rule:nonzero;stroke:#000;stroke-width:2.86px;"/><path d="M780.056,1098.11l34.267,-28.351l-34.267,28.351Z" style="fill:none;fill-rule:nonzero;stroke:#000;stroke-width:2.86px;"/><path d="M798.659,1125.4c12.833,-8.62 25.665,-17.24 38.496,-25.87c-12.831,8.63 -25.663,17.25 -38.496,25.87Z" style="fill:none;fill-rule:nonzero;stroke:#000;stroke-width:2.86px;"/><path d="M812.166,1147.88c12.823,-7.649 25.644,-15.28 38.467,-22.93c-12.823,7.65 -25.644,15.281 -38.467,22.93Z" style="fill:none;fill-rule:nonzero;stroke:#000;stroke-width:2.86px;"/><path d="M824.7,1175.91c13.869,-6.57 27.739,-13.13 41.608,-19.7c-13.869,6.57 -27.739,13.13 -41.608,19.7Z" style="fill:none;fill-rule:nonzero;stroke:#000;stroke-width:2.86px;"/><path d="M839.703,1218.02c16.828,-6.97 33.656,-13.949 50.483,-20.93c-16.827,6.981 -33.655,13.96 -50.483,20.93Z" style="fill:none;fill-rule:nonzero;stroke:#000;stroke-width:2.86px;"/><path d="M852.063,1251.23c20.895,-5.971 41.79,-11.931 62.686,-17.9c-20.896,5.969 -41.791,11.929 -62.686,17.9Z" style="fill:none;fill-rule:nonzero;stroke:#000;stroke-width:2.86px;"/><path d="M859.56,1278.18c26.149,-3.68 52.298,-7.359 78.447,-11.04c-26.149,3.681 -52.298,7.36 -78.447,11.04Z" style="fill:none;fill-rule:nonzero;stroke:#000;stroke-width:2.86px;"/><path d="M714.815,944.841c-6.285,2.901 -12.569,5.802 -18.853,8.714c6.284,-2.912 12.568,-5.813 18.853,-8.714Z" style="fill:none;fill-rule:nonzero;stroke:#000;stroke-width:2.86px;"/><path d="M491.26,1167.95c0.869,-6.3 1.858,-13.47 6.329,-17.99c11.92,-12.05 34,-3.4 42.723,6.559c4.689,5.361 0.761,14.561 3.719,21.031c2.782,6.089 9.984,9.36 12.919,15.379c7.14,14.651 -2.928,15.081 -1.938,31.26c0.992,16.221 15.641,16.861 4.066,32.691c-2.38,3.259 -8.605,0.48 -11.702,3.059c-4.053,3.381 -3.612,10.95 -8.211,13.541c-14.73,8.31 -13.217,-6.341 -28.886,-8.56c-5.733,-0.821 -10.927,5.65 -16.67,4.9c-14.164,-1.85 -4.889,-9.86 -10.56,-20.52c-2.708,-5.09 -11.155,-5.46 -13.609,-10.67c-7.397,-15.72 9.319,-12.5 11.702,-29.441c2.199,-15.649 -14.539,-15.639 -5.436,-28.679c3.813,-5.46 9.85,-9.11 15.554,-12.56" style="fill:#d9e495;fill-rule:nonzero;"/><path d="M1192.86,851.354c0.87,-6.302 1.859,-13.476 6.329,-17.998c11.921,-12.053 34,-3.4 42.721,6.562c4.689,5.357 0.76,14.555 3.72,21.029c2.78,6.091 9.99,9.365 12.919,15.385c7.14,14.651 -2.929,15.082 -1.939,31.259c0.989,16.221 15.64,16.86 4.069,32.69c-2.38,3.255 -8.609,0.48 -11.699,3.061c-4.06,3.38 -3.62,10.949 -8.211,13.541c-14.729,8.3 -13.22,-6.342 -28.889,-8.571c-5.73,-0.813 -10.93,5.653 -16.67,4.903c-14.161,-1.846 -4.89,-9.859 -10.56,-20.517c-2.711,-5.088 -11.15,-5.454 -13.61,-10.669c-7.401,-15.725 9.32,-12.497 11.7,-29.444c2.199,-15.649 -14.54,-15.635 -5.43,-28.677c3.81,-5.463 9.85,-9.111 15.55,-12.554" style="fill:#d9e495;fill-rule:nonzero;"/><path d="M717.693,1196.31c0.795,-4.5 1.701,-9.621 5.792,-12.851c10.908,-8.599 31.112,-2.42 39.095,4.691c4.291,3.819 0.695,10.389 3.403,15.01c2.546,4.339 9.136,6.679 11.823,10.979c6.533,10.45 -2.68,10.761 -1.774,22.311c0.907,11.58 14.313,12.03 3.72,23.33c-2.178,2.319 -7.874,0.34 -10.708,2.189c-3.71,2.41 -3.305,7.811 -7.514,9.66c-13.479,5.92 -12.095,-4.53 -26.433,-6.12c-5.246,-0.581 -9.999,4.04 -15.254,3.5c-12.962,-1.321 -4.474,-7.041 -9.664,-14.639c-2.478,-3.63 -10.207,-3.902 -12.453,-7.621c-6.769,-11.219 8.528,-8.919 10.708,-21.009c2.013,-11.17 -13.304,-11.16 -4.973,-20.471c3.488,-3.899 9.013,-6.5 14.232,-8.959" style="fill:#7b8c00;fill-rule:nonzero;"/><path d="M222.927,1198.2c0.795,-4.5 1.701,-9.62 5.792,-12.851c10.908,-8.599 31.112,-2.429 39.095,4.681c4.291,3.83 0.695,10.39 3.403,15.01c2.545,4.349 9.136,6.69 11.822,10.99c6.534,10.45 -2.679,10.76 -1.773,22.31c0.907,11.57 14.312,12.03 3.72,23.33c-2.178,2.32 -7.874,0.34 -10.708,2.179c-3.71,2.42 -3.305,7.821 -7.514,9.67c-13.479,5.92 -12.095,-4.529 -26.433,-6.119c-5.246,-0.58 -9.999,4.029 -15.254,3.5c-12.962,-1.32 -4.475,-7.04 -9.664,-14.64c-2.478,-3.64 -10.207,-3.9 -12.453,-7.621c-6.769,-11.219 8.528,-8.919 10.708,-21.009c2.012,-11.17 -13.304,-11.16 -4.974,-20.47c3.489,-3.9 9.013,-6.51 14.233,-8.96" style="fill:#7b8c00;fill-rule:nonzero;"/><path d="M406.915,1200.55c-0.795,-4.489 -1.701,-9.61 -5.792,-12.84c-10.908,-8.599 -31.112,-2.43 -39.095,4.68c-4.291,3.82 -0.695,10.39 -3.403,15.011c-2.545,4.349 -9.136,6.689 -11.822,10.979c-6.534,10.46 2.679,10.771 1.773,22.31c-0.907,11.58 -14.312,12.041 -3.72,23.33c2.178,2.33 7.874,0.35 10.708,2.19c3.71,2.41 3.305,7.81 7.514,9.66c13.479,5.93 12.095,-4.52 26.433,-6.11c5.246,-0.58 9.999,4.03 15.254,3.5c12.962,-1.32 4.475,-7.04 9.664,-14.649c2.478,-3.63 10.207,-3.891 12.453,-7.611c6.769,-11.22 -8.528,-8.92 -10.708,-21.019c-2.012,-11.17 13.304,-11.16 4.974,-20.471c-3.489,-3.899 -9.013,-6.5 -14.233,-8.96" style="fill:#7b8c00;fill-rule:nonzero;"/><path d="M510.248,1169.42c4.081,23.6 8.174,47.27 9.96,71.15c1.553,20.75 0.021,41.61 0.031,62.42c0.008,14.71 3.137,-29.77 -0.021,-44.13c-1.249,-5.68 -7.35,-9.379 -12.384,-12.299c-6.908,-4 -14.846,-6.011 -22.586,-7.971c7.74,1.96 15.678,3.971 22.586,7.971c5.034,2.92 6.635,11.409 12.384,12.299c3.421,0.53 -1.432,-7.23 -0.006,-10.39c1.788,-3.95 5.895,-6.37 8.969,-9.43c2.854,-2.85 5.83,-5.57 8.805,-8.28c-2.975,2.71 -5.951,5.43 -8.805,8.28c-3.074,3.06 -4.691,8.7 -8.969,9.43c-2.597,0.45 0.265,-5.28 -0.004,-7.9c-1.677,-16.41 -6.259,-22.35 0.918,-37.47c1.948,-4.11 5.429,-7.35 8.75,-10.45c-3.321,3.1 -6.802,6.34 -8.75,10.45c-2.381,5.01 1.048,18.711 -3.897,16.19c-5.869,-3 -0.574,-13.36 -2.74,-19.58c-1.391,-3.99 -4.664,-7.12 -7.612,-10.149c-2.694,-2.771 -5.951,-4.951 -9.161,-7.101c3.21,2.15 6.467,4.33 9.161,7.101c2.948,3.029 6.912,14.319 7.612,10.149c1.683,-10.06 -1.378,-20.51 -4.241,-30.29Z" style="fill:none;fill-rule:nonzero;stroke:#000;stroke-width:0.8px;"/><path d="M1211.85,852.818c4.08,23.598 8.17,47.269 9.961,71.15c1.55,20.746 0.019,41.611 0.029,62.415c0.01,14.706 3.141,-29.761 -0.019,-44.127c-1.25,-5.682 -7.351,-9.379 -12.391,-12.295c-6.899,-4.002 -14.84,-6.01 -22.58,-7.968c7.74,1.958 15.681,3.966 22.58,7.968c5.04,2.916 6.641,11.408 12.391,12.295c3.42,0.529 -1.431,-7.23 -0.01,-10.384c1.789,-3.953 5.899,-6.37 8.97,-9.435c2.859,-2.845 5.83,-5.565 8.809,-8.283c-2.979,2.718 -5.95,5.438 -8.809,8.283c-3.071,3.065 -4.691,8.705 -8.97,9.435c-2.591,0.444 0.269,-5.283 -0,-7.904c-1.681,-16.411 -6.261,-22.35 0.92,-37.47c1.939,-4.106 5.43,-7.35 8.75,-10.451c-3.32,3.101 -6.811,6.345 -8.75,10.451c-2.381,5.013 1.039,18.715 -3.901,16.189c-5.87,-2.995 -0.57,-13.355 -2.74,-19.579c-1.389,-3.994 -4.66,-7.118 -7.609,-10.151c-2.7,-2.77 -5.95,-4.952 -9.16,-7.104c3.21,2.152 6.46,4.334 9.16,7.104c2.949,3.033 6.909,14.322 7.609,10.151c1.68,-10.057 -1.38,-20.505 -4.24,-30.29Z" style="fill:none;fill-rule:nonzero;stroke:#000;stroke-width:0.8px;"/><path d="M735.069,1197.35c3.734,16.851 7.479,33.74 9.114,50.79c1.421,14.811 0.02,29.7 0.029,44.55c0.007,10.5 2.87,-21.25 -0.02,-31.5c-1.143,-4.06 -6.726,-6.69 -11.332,-8.779c-6.321,-2.85 -13.586,-4.29 -20.668,-5.68c7.082,1.39 14.347,2.83 20.668,5.68c4.606,2.089 6.072,8.15 11.332,8.779c3.13,0.381 -1.31,-5.159 -0.005,-7.409c1.636,-2.821 5.394,-4.55 8.207,-6.741c2.612,-2.03 5.335,-3.969 8.058,-5.91c-2.723,1.941 -5.446,3.88 -8.058,5.91c-2.813,2.191 -4.293,6.22 -8.207,6.741c-2.377,0.319 0.242,-3.771 -0.004,-5.641c-1.535,-11.72 -5.727,-15.96 0.84,-26.75c1.782,-2.93 4.968,-5.239 8.007,-7.46c-3.039,2.221 -6.225,4.53 -8.007,7.46c-2.179,3.58 0.959,13.36 -3.566,11.561c-5.371,-2.14 -0.525,-9.531 -2.508,-13.981c-1.272,-2.849 -4.267,-5.08 -6.964,-7.239c-2.466,-1.981 -5.446,-3.541 -8.384,-5.07c2.938,1.529 5.918,3.089 8.384,5.07c2.697,2.159 6.324,10.22 6.964,7.239c1.541,-7.17 -1.26,-14.63 -3.88,-21.62Z" style="fill:none;fill-rule:nonzero;stroke:#000;stroke-width:0.81px;"/><path d="M240.302,1199.24c3.735,16.85 7.48,33.74 9.115,50.79c1.421,14.8 0.02,29.689 0.028,44.54c0.008,10.5 2.871,-21.24 -0.019,-31.49c-1.143,-4.061 -6.726,-6.7 -11.332,-8.78c-6.322,-2.85 -13.586,-4.29 -20.668,-5.68c7.082,1.39 14.346,2.83 20.668,5.68c4.606,2.08 6.071,8.139 11.332,8.78c3.13,0.38 -1.31,-5.16 -0.005,-7.41c1.636,-2.821 5.394,-4.55 8.207,-6.741c2.611,-2.029 5.335,-3.969 8.057,-5.91c-2.722,1.941 -5.446,3.881 -8.057,5.91c-2.813,2.191 -4.293,6.221 -8.207,6.741c-2.377,0.31 0.242,-3.77 -0.004,-5.64c-1.535,-11.72 -5.728,-15.96 0.84,-26.75c1.782,-2.931 4.968,-5.25 8.007,-7.46c-3.039,2.21 -6.225,4.529 -8.007,7.46c-2.179,3.58 0.959,13.359 -3.566,11.56c-5.371,-2.14 -0.526,-9.54 -2.508,-13.98c-1.273,-2.85 -4.268,-5.08 -6.965,-7.24c-2.465,-1.981 -5.446,-3.54 -8.383,-5.07c2.937,1.53 5.918,3.089 8.383,5.07c2.697,2.16 6.325,10.22 6.965,7.24c1.54,-7.181 -1.26,-14.63 -3.881,-21.62Z" style="fill:none;fill-rule:nonzero;stroke:#000;stroke-width:0.81px;"/><path d="M389.54,1201.6c-3.735,16.84 -7.48,33.74 -9.115,50.78c-1.421,14.81 -0.02,29.7 -0.028,44.55c-0.008,10.5 -2.87,-21.24 0.019,-31.49c1.143,-4.06 6.726,-6.699 11.332,-8.779c6.322,-2.861 13.586,-4.29 20.668,-5.691c-7.082,1.401 -14.346,2.83 -20.668,5.691c-4.606,2.08 -6.071,8.139 -11.332,8.779c-3.13,0.371 1.31,-5.17 0.006,-7.42c-1.637,-2.819 -5.395,-4.539 -8.208,-6.73c-2.611,-2.03 -5.335,-3.969 -8.057,-5.91c2.722,1.941 5.446,3.88 8.057,5.91c2.813,2.191 4.293,6.21 8.208,6.73c2.376,0.32 -0.243,-3.77 0.003,-5.64c1.535,-11.71 5.728,-15.95 -0.84,-26.74c-1.782,-2.93 -4.968,-5.25 -8.007,-7.46c3.039,2.21 6.225,4.53 8.007,7.46c2.179,3.58 -0.959,13.36 3.566,11.55c5.371,-2.14 0.526,-9.529 2.508,-13.97c1.273,-2.849 4.268,-5.08 6.965,-7.25c2.465,-1.97 5.446,-3.53 8.383,-5.069c-2.937,1.539 -5.918,3.099 -8.383,5.069c-2.697,2.17 -6.325,10.231 -6.965,7.25c-1.54,-7.18 1.26,-14.64 3.881,-21.62Z" style="fill:none;fill-rule:nonzero;stroke:#000;stroke-width:0.81px;"/><path d="M306.69,1266.63c-12.56,-2.83 -27.222,-6.13 -34.785,-15.69c-11.717,-14.82 -19.501,-33.8 -18.788,-52.05c0.989,-25.28 35.073,-51.46 60.149,-55.25c32.854,-4.96 56.117,21.31 63.764,46.93c3.887,13.02 -0.296,27.39 -4.767,40.25c-2.357,6.79 -22.679,33.85 -34.636,36.76c-9.97,2.42 -20.776,0.68 -30.937,-0.95" style="fill:#758e0d;fill-rule:nonzero;"/><path d="M314.958,1176.66c-0.015,17.4 -0.029,34.79 0.273,52.189c0.238,13.661 0.645,27.331 1.344,40.981c0.462,9.01 1.297,18 2.135,26.98c-0.762,-8.99 -1.521,-17.98 -2.135,-26.98c-0.191,-2.8 -1.625,-5.95 -0.277,-8.42c2.262,-4.13 6.596,-6.74 10.226,-9.74c2.226,-1.85 4.761,-3.29 7.27,-4.72c-2.509,1.43 -5.044,2.87 -7.27,4.72c-3.63,3 -7.448,13.55 -10.226,9.74c-4.891,-6.69 1.169,-16.811 -0.814,-24.86c-1.576,-6.39 -5.675,-11.97 -9.573,-17.281c-2.819,-3.839 -6.629,-6.88 -10.352,-9.849c3.723,2.969 7.533,6.01 10.352,9.849c3.898,5.311 4.98,12.561 9.573,17.281c1.79,1.839 -0.222,-5.14 -0.253,-7.701c-0.09,-7.099 -1.533,-14.339 -0.111,-21.299c0.984,-4.81 4.27,-8.89 7.106,-12.911c1.183,-1.669 3.02,-2.799 4.761,-3.879c-1.741,1.08 -3.578,2.21 -4.761,3.879c-2.836,4.021 -5.267,17.471 -7.106,12.911c-3.859,-9.54 -1.921,-20.74 -0.162,-30.89Z" style="fill:none;fill-rule:nonzero;stroke:#000;stroke-width:0.8px;"/><path d="M222.573,1260.98c-10.866,-1.571 -22.56,-3.25 -31.492,-9.631c-9.968,-7.119 -18.807,-17.34 -22.582,-28.989c-4.615,-14.25 -4.66,-36.2 11.981,-41.71c4.753,-1.57 7.443,2.899 8.596,-1.981c5.118,-21.609 -13.042,-16.25 -7.585,-38c3.255,-12.98 13.375,-3.189 20.039,-14.79c8.1,-14.099 -1.132,-21.559 14.359,-26.36c16.863,-5.229 28.177,3.971 38.253,15.091c2.877,3.18 2.735,9 6.463,11.12c18.559,10.56 25.773,6.17 28.035,27.5c2.548,24.05 -14.011,19.27 -17.517,43.14c-3.144,21.42 15.033,27.28 9.384,42.569c-6.809,18.41 -27.844,19.541 -43.982,22.431c-4.819,0.86 -9.056,-0.411 -13.952,-0.39" style="fill:#f4ff9a;fill-rule:nonzero;"/><path d="M226.639,1158.24c2.135,13.71 4.274,27.43 5.624,41.24c0.31,3.17 2.287,55.25 2.322,58.39c0.15,13.01 -0.064,26.03 -0.277,39.05c-1.108,-12.97 -2.248,-26.281 0.277,-39.05c1.256,-6.36 17.435,-21.75 22.255,-25.431c3.73,-2.849 7.942,-5.019 12.113,-7.179c-4.171,2.16 -8.383,4.33 -12.113,7.179c-4.356,3.321 -8.398,7.101 -12.006,11.231c-3.846,4.39 -5.465,17.54 -10.249,14.2c-5.992,-4.191 1.749,-15.07 -0.795,-21.931c-1.607,-4.319 -6.746,-6.369 -10.634,-8.859c-6.672,-4.26 -13.798,-7.78 -20.899,-11.29c7.101,3.51 14.227,7.03 20.899,11.29c3.888,2.49 6.07,8.18 10.634,8.859c2.414,0.361 -0.165,-4.869 -0.265,-7.309c-0.226,-5.48 1.368,-11.361 -0.711,-16.43c-3.064,-7.47 -8.649,-13.74 -14.1,-19.69c-3.647,-3.991 -8.328,-6.93 -12.898,-9.81c4.57,2.88 9.251,5.819 12.898,9.81c5.451,5.95 6.922,16 14.1,19.69c3.772,1.939 -0.142,-8.49 -0.551,-12.72c-1.512,-15.57 -5.445,-18.27 2.096,-32.81c1.223,-2.35 3.828,-3.77 6.156,-5.05c-2.328,1.28 -4.933,2.7 -6.156,5.05c-2.464,4.759 -0.853,19.38 -4.467,15.429c-5.417,-5.92 -4.214,-15.889 -3.253,-23.859Z" style="fill:none;fill-rule:nonzero;stroke:#000;stroke-width:0.8px;"/><path d="M1191.09,1295.26c-6.57,-10.71 -13.1,-21.42 -19.84,-32.05c-6.689,-10.559 -14.599,-20.639 -20.389,-31.54c-6.63,-12.41 -6.511,-21.97 -5.13,-35.139c0.689,-6.581 7.339,-12.861 16.239,-11.871c4.091,0.46 8.21,1.121 11.95,2.47c3.691,1.32 7.09,3.24 10.061,5.431c23.289,17.139 24.529,39.84 27.149,63.199c1.181,10.86 2.97,21.68 4.44,32.521c0.17,1.299 1.291,5.62 -1.36,6.519c-3.54,1.21 -7.57,1.22 -11.43,1.3c-3.919,0.07 -7.799,-0.449 -11.69,-0.84" style="fill:#f5b957;fill-rule:nonzero;"/><path d="M1914.57,1239.94c4.67,-7.301 9.319,-14.601 14.109,-21.851c4.76,-7.209 10.391,-14.08 14.51,-21.509c4.711,-8.469 4.631,-14.991 3.651,-23.969c-0.491,-4.481 -5.23,-8.772 -11.56,-8.091c-2.91,0.31 -5.841,0.76 -8.5,1.68c-2.62,0.899 -5.04,2.21 -7.15,3.7c-16.581,11.689 -17.46,27.17 -19.32,43.109c-0.841,7.401 -2.11,14.781 -3.16,22.17c-0.12,0.891 -0.92,3.84 0.96,4.45c2.52,0.831 5.39,0.84 8.14,0.89c2.78,0.051 5.549,-0.309 8.32,-0.58" style="fill:#f5b957;fill-rule:nonzero;"/><path d="M1155.39,1000.43c-2.13,-4.287 -4.25,-8.579 -6.45,-12.839c-2.17,-4.232 -4.739,-8.271 -6.619,-12.638c-2.151,-4.974 -2.12,-8.808 -1.67,-14.083c0.229,-2.635 2.389,-5.155 5.279,-4.756c1.33,0.181 2.67,0.445 3.891,0.986c1.189,0.53 2.299,1.302 3.259,2.179c7.571,6.868 7.981,15.964 8.831,25.325c0.379,4.353 0.959,8.687 1.439,13.031c0.061,0.523 0.42,2.254 -0.439,2.615c-1.151,0.481 -2.46,0.491 -3.721,0.52c-1.27,0.03 -2.529,-0.18 -3.8,-0.34" style="fill:#f5b957;fill-rule:nonzero;"/><path d="M1199.48,1270.5c-6.641,-13.92 -13.021,-27.91 -18.36,-42.13c-4.541,-12.059 -8.151,-24.34 -11.301,-36.65c-4.04,-15.8 1.24,-53.6 34.66,-39.45c10.09,4.26 19.319,19.69 22.68,25.36c9.84,16.54 0.83,32.32 -3.8,49.27c-4.441,16.289 -5.21,32.67 -23.88,43.6" style="fill:#307302;fill-rule:nonzero;"/><path d="M1908.59,1223.06c4.721,-9.49 9.26,-19.041 13.061,-28.73c3.229,-8.231 5.799,-16.6 8.039,-25c2.871,-10.781 -0.879,-36.561 -24.66,-26.911c-7.18,2.911 -13.74,13.43 -16.14,17.3c-7,11.28 -0.59,22.04 2.7,33.611c3.16,11.099 3.71,22.28 17,29.73" style="fill:#307302;fill-rule:nonzero;"/><path d="M1217.56,995.375c1.229,-6.149 2.569,-12.261 4.31,-18.177c1.469,-5.021 3.299,-9.871 5.299,-14.617c2.561,-6.09 13.641,-16.834 21.231,-3.752c2.3,3.947 1.55,11.245 1.269,13.92c-0.82,7.81 -7.7,10.552 -13.429,14.793c-5.491,4.073 -9.79,9.117 -18.68,7.833" style="fill:#307302;fill-rule:nonzero;"/><path d="M1148.8,987.233c1.47,-3.758 2.931,-7.519 4.7,-11.22c0.64,-1.318 8.061,-14.922 9.84,-16.692c2.061,-2.033 8.16,-5.974 13.19,-4.143c2.47,0.896 4.48,2.552 5.25,4.316c0.65,1.469 -0.76,3.02 -1.37,4.495c-1.74,4.14 -5.27,8.54 -8.98,11.89c-3.05,2.763 -7.369,4.884 -10.35,7.679c-1.9,1.779 -2.14,4.188 -4.17,5.904c-1.22,1.024 -3.31,2.471 -5.14,1.968c-2.18,-0.6 -2.619,-2.673 -2.97,-4.197" style="fill:#fd9512;fill-rule:nonzero;"/><path d="M1195.96,1280.19c4.351,-12.92 8.67,-25.86 13.92,-38.591c1.88,-4.529 23.88,-51.319 29.16,-57.41c6.08,-6.989 24.17,-20.539 39.07,-14.239c7.31,3.07 13.27,8.769 15.55,14.841c1.92,5.049 -2.25,10.389 -4.07,15.46c-5.151,14.24 -15.609,29.37 -26.6,40.889c-9.04,9.511 -21.82,16.8 -30.64,26.41c-5.65,6.12 -6.36,14.4 -12.38,20.311c-3.61,3.519 -9.781,8.5 -15.21,6.76c-6.449,-2.06 -7.779,-9.191 -8.8,-14.431" style="fill:#fd9512;fill-rule:nonzero;"/><path d="M1911.09,1229.67c-3.1,-8.82 -6.17,-17.64 -9.9,-26.32c-1.34,-3.09 -17,-35 -20.75,-39.15c-4.329,-4.77 -17.19,-14.01 -27.8,-9.719c-5.2,2.099 -9.44,5.979 -11.06,10.119c-1.36,3.45 1.6,7.09 2.901,10.55c3.659,9.71 11.099,20.03 18.92,27.89c6.429,6.48 15.519,11.45 21.799,18.01c4.02,4.17 4.531,9.82 8.81,13.85c2.57,2.4 6.96,5.79 10.82,4.61c4.59,-1.41 5.54,-6.27 6.26,-9.84" style="fill:#f5b957;fill-rule:nonzero;"/><path d="M479.498,1273.66c-4.151,-2.93 -8.57,-6.03 -13.57,-6.91c-4.401,-0.77 -9.047,3.82 -13.222,2.22c-13.656,-5.23 -0.843,-11.3 -4.412,-25.56c-1.346,-5.391 -10.899,-5.33 -12.931,-10.5c-6.129,-15.57 9.417,-11.16 14.041,-27.23c1.409,-4.9 -7.601,-8.741 -6.676,-13.75c0.91,-4.93 7.773,-6.39 11.089,-10.15c9.909,-11.23 9.458,-12.35 23.916,-16.21c3.36,-0.9 7.081,-3.051 10.294,-1.721c5.041,2.09 7.587,7.971 12.111,11.021c3.389,2.29 9.337,1.2 11.298,4.79c3.145,5.76 -1.022,13.75 2.009,19.57c2.228,4.27 10.469,3.23 12.218,7.72c2.513,6.45 -1.987,13.86 -1.13,20.73c0.696,5.56 6.232,10.23 5.7,15.81c-1.677,17.54 -9.424,11.64 -24.179,19.38c-3.302,1.729 -3.329,7.09 -6.44,9.14c-3.805,2.52 -8.601,3.42 -13.144,3.79c-2.423,0.19 -4.81,-1.031 -6.972,-2.14" style="fill:#a5b41a;fill-rule:nonzero;"/><path d="M1181.1,957.053c-4.149,-2.92 -8.569,-6.028 -13.569,-6.901c-4.401,-0.77 -9.05,3.817 -13.22,2.218c-13.66,-5.229 -0.851,-11.3 -4.41,-25.562c-1.351,-5.387 -10.901,-5.332 -12.941,-10.498c-6.12,-15.569 9.42,-11.156 14.05,-27.234c1.401,-4.896 -7.599,-8.737 -6.68,-13.746c0.911,-4.928 7.77,-6.395 11.09,-10.153c9.91,-11.232 9.46,-12.351 23.92,-16.21c3.361,-0.895 7.08,-3.053 10.29,-1.718c5.04,2.094 7.59,7.969 12.111,11.025c3.389,2.289 9.339,1.197 11.299,4.785c3.14,5.756 -1.02,13.754 2.01,19.567c2.231,4.273 10.47,3.232 12.22,7.72c2.511,6.448 -1.989,13.864 -1.13,20.729c0.69,5.56 6.231,10.233 5.7,15.81c-1.679,17.545 -9.429,11.641 -24.179,19.38c-3.311,1.734 -3.331,7.096 -6.441,9.148c-3.809,2.513 -8.609,3.411 -13.149,3.784c-2.42,0.196 -4.811,-1.032 -6.971,-2.144" style="fill:#a5b41a;fill-rule:nonzero;"/><path d="M1182.32,867.82c0.26,10.504 0.529,21.01 0.84,31.512c0.609,20.398 1.97,40.777 2.189,61.182c0.09,8.771 -0.259,17.542 -0.609,26.307c0.279,-8.767 0.559,-17.534 0.609,-26.307c0.021,-3.59 -1.91,-7.502 -0.41,-10.76c1.141,-2.474 4.931,-2.37 7.171,-3.913c3.39,-2.33 6.529,-5.002 9.659,-7.666c-3.13,2.664 -6.269,5.336 -9.659,7.666c-2.24,1.543 -6.03,6.382 -7.171,3.913c-2.97,-6.405 1,-14.33 -0.809,-21.151c-1.05,-3.973 -4.67,-6.791 -7.411,-9.86c-2.839,-3.192 -6.059,-6.032 -9.269,-8.859c3.21,2.827 6.43,5.667 9.269,8.859c2.741,3.069 6.121,13.765 7.411,9.86c5.059,-15.245 -7.02,-33.09 -1.48,-48.168c1.25,-3.395 5.92,-4.522 9.43,-5.373c-3.141,1.791 -6.281,3.584 -9.43,5.373" style="fill:none;fill-rule:nonzero;stroke:#000;stroke-width:0.8px;"/><path d="M669.684,1266c-4.151,-2.92 -8.57,-6.03 -13.57,-6.9c-4.401,-0.77 -9.047,3.81 -13.222,2.22c-13.656,-5.23 -0.843,-11.31 -4.412,-25.57c-1.346,-5.38 -10.899,-5.33 -12.931,-10.5c-6.129,-15.561 9.417,-11.15 14.041,-27.23c1.409,-4.89 -7.601,-8.74 -6.676,-13.74c0.91,-4.93 7.773,-6.4 11.089,-10.16c9.909,-11.23 9.458,-12.35 23.916,-16.21c3.36,-0.89 7.081,-3.05 10.294,-1.721c5.041,2.101 7.587,7.971 12.111,11.031c3.389,2.29 9.337,1.2 11.298,4.78c3.145,5.76 -1.022,13.76 2.009,19.57c2.228,4.27 10.469,3.23 12.218,7.72c2.513,6.45 -1.987,13.87 -1.13,20.73c0.696,5.56 6.232,10.23 5.7,15.81c-1.677,17.54 -9.424,11.64 -24.179,19.38c-3.302,1.729 -3.329,7.09 -6.44,9.15c-3.805,2.51 -8.601,3.41 -13.144,3.78c-2.423,0.2 -4.81,-1.03 -6.972,-2.14" style="fill:#307302;fill-rule:nonzero;"/><path d="M174.917,1267.89c-4.151,-2.92 -8.57,-6.029 -13.57,-6.899c-4.401,-0.771 -9.047,3.809 -13.222,2.21c-13.656,-5.22 -0.843,-11.3 -4.412,-25.561c-1.346,-5.38 -10.899,-5.329 -12.931,-10.5c-6.129,-15.569 9.417,-11.149 14.041,-27.229c1.409,-4.901 -7.601,-8.741 -6.676,-13.75c0.91,-4.92 7.773,-6.391 11.089,-10.151c9.91,-11.229 9.458,-12.349 23.916,-16.21c3.36,-0.899 7.081,-3.05 10.294,-1.72c5.041,2.1 7.587,7.97 12.111,11.031c3.389,2.29 9.337,1.189 11.298,4.779c3.145,5.761 -1.022,13.761 2.009,19.57c2.228,4.271 10.469,3.23 12.218,7.72c2.513,6.45 -1.987,13.86 -1.13,20.731c0.696,5.559 6.232,10.229 5.7,15.809c-1.677,17.54 -9.424,11.641 -24.179,19.38c-3.302,1.73 -3.329,7.09 -6.44,9.15c-3.805,2.51 -8.601,3.411 -13.144,3.781c-2.423,0.2 -4.81,-1.031 -6.972,-2.141" style="fill:#307302;fill-rule:nonzero;"/><path d="M454.931,1270.24c4.151,-2.92 8.569,-6.03 13.57,-6.9c4.401,-0.77 9.047,3.82 13.222,2.22c13.656,-5.23 0.843,-11.3 4.412,-25.56c1.346,-5.39 10.899,-5.33 12.931,-10.5c6.129,-15.571 -9.417,-11.16 -14.041,-27.231c-1.409,-4.899 7.601,-8.739 6.676,-13.75c-0.91,-4.929 -7.773,-6.389 -11.089,-10.149c-9.91,-11.231 -9.458,-12.351 -23.916,-16.21c-3.361,-0.9 -7.081,-3.05 -10.294,-1.721c-5.041,2.091 -7.587,7.971 -12.111,11.021c-3.389,2.29 -9.337,1.2 -11.298,4.79c-3.145,5.75 1.022,13.75 -2.009,19.57c-2.228,4.27 -10.469,3.23 -12.218,7.72c-2.513,6.44 1.987,13.86 1.13,20.729c-0.696,5.561 -6.232,10.231 -5.7,15.811c1.677,17.54 9.424,11.639 24.179,19.38c3.302,1.729 3.329,7.09 6.44,9.139c3.805,2.521 8.601,3.411 13.144,3.79c2.423,0.191 4.81,-1.029 6.972,-2.149" style="fill:#307302;fill-rule:nonzero;"/><path d="M1156.53,953.642c4.149,-2.92 8.569,-6.028 13.569,-6.901c4.401,-0.77 9.051,3.817 13.221,2.218c13.66,-5.228 0.85,-11.3 4.42,-25.562c1.34,-5.387 10.89,-5.331 12.93,-10.497c6.12,-15.57 -9.42,-11.157 -14.05,-27.235c-1.401,-4.896 7.61,-8.737 6.68,-13.746c-0.911,-4.928 -7.77,-6.394 -11.09,-10.153c-9.91,-11.232 -9.46,-12.351 -23.91,-16.21c-3.361,-0.895 -7.09,-3.053 -10.3,-1.718c-5.04,2.094 -7.59,7.969 -12.111,11.025c-3.389,2.289 -9.339,1.197 -11.299,4.786c-3.14,5.755 1.03,13.754 -2.01,19.566c-2.22,4.273 -10.46,3.232 -12.21,7.72c-2.521,6.448 1.979,13.864 1.13,20.729c-0.7,5.56 -6.241,10.233 -5.7,15.81c1.669,17.545 9.419,11.641 24.18,19.38c3.3,1.734 3.32,7.096 6.44,9.148c3.799,2.513 8.599,3.411 13.14,3.784c2.42,0.197 4.81,-1.032 6.97,-2.144" style="fill:#307302;fill-rule:nonzero;"/><path d="M480.714,1184.42c0.264,10.51 0.531,21.01 0.845,31.51c0.612,20.4 1.973,40.78 2.188,61.19c0.091,8.77 -0.257,17.54 -0.606,26.3c0.28,-8.76 0.559,-17.53 0.606,-26.3c0.017,-3.59 -1.913,-7.51 -0.411,-10.76c1.139,-2.48 4.928,-2.37 7.172,-3.92c3.386,-2.33 6.526,-5 9.657,-7.66c-3.131,2.66 -6.271,5.33 -9.657,7.66c-2.244,1.55 -6.029,6.39 -7.172,3.92c-2.963,-6.41 1.003,-14.33 -0.805,-21.15c-1.054,-3.979 -4.675,-6.8 -7.412,-9.87c-2.842,-3.19 -6.065,-6.029 -9.269,-8.85c3.204,2.821 6.427,5.66 9.269,8.85c2.737,3.07 6.117,13.77 7.412,9.87c5.059,-15.25 -7.023,-33.09 -1.478,-48.17c1.246,-3.4 5.912,-4.53 9.428,-5.37c-3.142,1.79 -6.286,3.58 -9.428,5.37" style="fill:none;fill-rule:nonzero;stroke:#000;stroke-width:0.8px;"/><path d="M670.9,1176.77c0.264,10.5 0.531,21.011 0.845,31.511c0.612,20.399 1.973,40.769 2.188,61.179c0.091,8.771 -0.257,17.54 -0.606,26.31c0.28,-8.77 0.559,-17.539 0.606,-26.31c0.017,-3.59 -1.913,-7.5 -0.411,-10.759c1.139,-2.481 4.928,-2.37 7.172,-3.91c3.386,-2.331 6.526,-5.01 9.657,-7.67c-3.131,2.66 -6.271,5.339 -9.657,7.67c-2.244,1.54 -6.029,6.379 -7.172,3.91c-2.963,-6.401 1.003,-14.331 -0.805,-21.151c-1.054,-3.979 -4.675,-6.79 -7.412,-9.86c-2.842,-3.19 -6.065,-6.029 -9.269,-8.86c3.204,2.831 6.427,5.669 9.269,8.86c2.737,3.07 6.117,13.761 7.412,9.86c5.059,-15.25 -7.023,-33.09 -1.478,-48.17c1.246,-3.389 5.912,-4.519 9.428,-5.37c-3.142,1.79 -6.286,3.58 -9.428,5.37" style="fill:none;fill-rule:nonzero;stroke:#000;stroke-width:0.8px;"/><path d="M176.133,1178.65c0.264,10.51 0.531,21.01 0.845,31.52c0.612,20.39 1.973,40.769 2.188,61.179c0.091,8.771 -0.257,17.54 -0.606,26.311c0.28,-8.771 0.559,-17.54 0.606,-26.311c0.017,-3.59 -1.913,-7.5 -0.411,-10.76c1.139,-2.479 4.928,-2.37 7.172,-3.91c3.386,-2.33 6.526,-5.009 9.657,-7.67c-3.131,2.661 -6.271,5.34 -9.657,7.67c-2.244,1.54 -6.029,6.381 -7.172,3.91c-2.963,-6.41 1.003,-14.33 -0.805,-21.15c-1.054,-3.979 -4.675,-6.789 -7.412,-9.859c-2.842,-3.191 -6.065,-6.031 -9.269,-8.861c3.204,2.83 6.427,5.67 9.269,8.861c2.737,3.07 6.117,13.759 7.412,9.859c5.059,-15.25 -7.023,-33.09 -1.478,-48.17c1.246,-3.399 5.912,-4.519 9.428,-5.369c-3.142,1.789 -6.286,3.58 -9.428,5.369" style="fill:none;fill-rule:nonzero;stroke:#000;stroke-width:0.8px;"/><path d="M453.715,1181.01c-0.265,10.51 -0.531,21.01 -0.845,31.51c-0.612,20.4 -1.973,40.78 -2.188,61.19c-0.091,8.771 0.257,17.54 0.606,26.3c-0.28,-8.76 -0.559,-17.529 -0.606,-26.3c-0.017,-3.59 1.913,-7.51 0.411,-10.77c-1.139,-2.47 -4.928,-2.36 -7.172,-3.909c-3.386,-2.331 -6.526,-5 -9.657,-7.661c3.131,2.661 6.271,5.33 9.657,7.661c2.244,1.549 6.029,6.379 7.172,3.909c2.963,-6.4 -1.003,-14.329 0.805,-21.15c1.054,-3.969 4.675,-6.79 7.412,-9.86c2.842,-3.19 6.065,-6.029 9.269,-8.85c-3.204,2.821 -6.427,5.66 -9.269,8.85c-2.737,3.07 -6.117,13.77 -7.412,9.86c-5.059,-15.24 7.023,-33.09 1.478,-48.16c-1.246,-3.399 -5.912,-4.53 -9.428,-5.38c3.142,1.79 6.286,3.59 9.428,5.38" style="fill:none;fill-rule:nonzero;stroke:#000;stroke-width:0.8px;"/><path d="M1155.32,864.409c-0.271,10.504 -0.54,21.01 -0.851,31.512c-0.609,20.398 -1.969,40.777 -2.189,61.182c-0.091,8.771 0.26,17.543 0.609,26.307c-0.279,-8.767 -0.559,-17.534 -0.609,-26.307c-0.021,-3.59 1.92,-7.502 0.409,-10.76c-1.14,-2.474 -4.93,-2.37 -7.17,-3.913c-3.389,-2.33 -6.529,-5.002 -9.659,-7.666c3.13,2.664 6.27,5.336 9.659,7.666c2.24,1.543 6.03,6.382 7.17,3.913c2.971,-6.404 -1,-14.33 0.811,-21.15c1.049,-3.974 4.67,-6.791 7.41,-9.861c2.84,-3.192 6.059,-6.032 9.269,-8.859c-3.21,2.827 -6.429,5.667 -9.269,8.859c-2.74,3.07 -6.12,13.765 -7.41,9.861c-5.061,-15.246 7.019,-33.09 1.48,-48.168c-1.25,-3.396 -5.92,-4.523 -9.431,-5.373c3.14,1.79 6.281,3.583 9.431,5.373" style="fill:none;fill-rule:nonzero;stroke:#000;stroke-width:0.8px;"/><path d="M364.163,1159.32c-8.47,5.979 -17.655,12.47 -22.205,21.779c-11.356,23.261 -8.607,56.851 0.319,79.95c2.61,6.75 7.105,16.151 14.346,16.321c7.104,0.17 11.879,-9.03 14.479,-15.651c12.375,-31.45 8.928,-44.58 1.532,-74.7c-2.303,-9.38 -5.391,-18.55 -8.471,-27.699" style="fill:#cada6f;fill-rule:nonzero;"/><path d="M617.565,747.283c-6.956,3.536 -14.5,7.369 -18.237,12.878c-9.327,13.751 -7.069,33.617 0.262,47.276c2.144,3.994 5.835,9.551 11.782,9.652c5.835,0.098 9.757,-5.342 11.893,-9.252c10.162,-18.602 7.332,-26.366 1.257,-44.178c-1.891,-5.544 -4.427,-10.966 -6.957,-16.376" style="fill:#cada6f;fill-rule:nonzero;"/><path d="M581.142,745.459c6.957,3.536 14.501,7.369 18.238,12.878c9.327,13.751 7.069,33.617 -0.262,47.276c-2.144,3.995 -5.835,9.551 -11.782,9.652c-5.835,0.098 -9.757,-5.342 -11.893,-9.253c-10.163,-18.602 -7.332,-26.365 -1.257,-44.178c1.891,-5.543 4.427,-10.965 6.956,-16.375" style="fill:#758e0d;fill-rule:nonzero;"/><path d="M649.465,763.347c-8.41,2.894 -17.53,6.032 -22.048,10.541c-11.274,11.254 -8.545,27.515 0.317,38.695c2.592,3.27 7.054,7.817 14.243,7.9c7.054,0.079 11.795,-4.372 14.377,-7.573c12.286,-15.227 8.864,-21.58 1.52,-36.16c-2.286,-4.537 -5.352,-8.975 -8.409,-13.403" style="fill:#76a9aa;fill-rule:nonzero;"/><path d="M358.084,1220.59c-0.285,9.05 -0.567,18.11 -0.717,27.16c-0.172,10.481 -0.404,20.96 -0.248,31.44c0.119,8.06 0.594,16.121 1.072,24.171c-0.448,-8.05 -0.896,-16.111 -1.072,-24.171c-0.384,-17.579 0.244,-17.789 -6.124,-34.289c-1.841,-4.761 -3.641,-9.54 -5.443,-14.331c1.802,4.791 3.602,9.57 5.443,14.331c2.063,5.349 1.038,13.669 6.268,16.009c4.004,1.78 0.028,-8.77 0.104,-13.16c0.08,-4.63 -1.543,-9.67 0.366,-13.889c2.225,-4.921 6.892,-8.451 11.201,-11.701c-2.295,4.89 -5.859,12.47 -11.201,11.701c-4.377,-0.641 -1.2,-9.13 0.351,-13.271Z" style="fill:none;fill-rule:nonzero;stroke:#000;stroke-width:0.8px;"/><path d="M611.791,794.282c-0.147,4.78 -0.294,9.56 -0.372,14.343c-0.089,5.532 -0.209,11.068 -0.128,16.599c0.062,4.259 0.308,8.513 0.556,12.764c-0.232,-4.252 -0.465,-8.505 -0.556,-12.764c-0.199,-9.282 0.126,-9.393 -3.179,-18.103c-0.956,-2.518 -1.89,-5.043 -2.826,-7.568c0.936,2.525 1.87,5.05 2.826,7.568c1.071,2.822 0.539,7.215 3.254,8.45c2.078,0.943 0.014,-4.631 0.053,-6.946c0.042,-2.447 -0.801,-5.11 0.19,-7.339c1.155,-2.596 3.578,-4.457 5.815,-6.174c-1.191,2.58 -3.042,6.584 -5.815,6.174c-2.272,-0.335 -0.622,-4.817 0.182,-7.004Z" style="fill:none;fill-rule:nonzero;stroke:#000;stroke-width:0.8px;"/><path d="M586.84,773.994c0.169,5.353 0.337,10.706 0.426,16.062c0.102,6.195 0.239,12.394 0.147,18.588c-0.071,4.769 -0.353,9.532 -0.636,14.293c0.266,-4.762 0.532,-9.524 0.636,-14.293c0.228,-10.394 -0.145,-10.519 3.636,-20.273c1.093,-2.818 2.162,-5.648 3.231,-8.473c-1.069,2.825 -2.138,5.655 -3.231,8.473c-1.225,3.16 -0.617,8.08 -3.722,9.463c-2.377,1.056 -0.016,-5.186 -0.061,-7.778c-0.048,-2.741 0.916,-5.721 -0.218,-8.219c-1.32,-2.907 -4.092,-4.991 -6.65,-6.914c1.363,2.889 3.479,7.373 6.65,6.914c2.599,-0.375 0.713,-5.394 -0.208,-7.843Z" style="fill:none;fill-rule:nonzero;stroke:#000;stroke-width:0.8px;"/><path d="M642.195,792.116c-0.282,4.381 -0.563,8.763 -0.712,13.146c-0.17,5.071 -0.4,10.145 -0.245,15.214c0.118,3.904 0.59,7.803 1.063,11.7c-0.444,-3.898 -0.889,-7.796 -1.063,-11.7c-0.381,-8.507 0.241,-8.609 -6.081,-16.592c-1.828,-2.307 -3.615,-4.622 -5.405,-6.936c1.79,2.314 3.577,4.629 5.405,6.936c2.048,2.586 1.031,6.613 6.224,7.744c3.974,0.866 0.027,-4.244 0.102,-6.366c0.08,-2.244 -1.532,-4.682 0.364,-6.726c2.209,-2.38 6.843,-4.086 11.121,-5.659c-2.278,2.364 -5.818,6.034 -11.121,5.659c-4.346,-0.308 -1.192,-4.416 0.348,-6.42Z" style="fill:none;fill-rule:nonzero;stroke:#000;stroke-width:0.8px;"/><path d="M223.216,1300.96c-4.519,-1.76 -11.315,-5.67 -16.561,-10.271c-1.767,-1.549 -3.057,-3.349 -1.626,-5.159c1.951,-2.45 5.777,-4.35 6.113,-7.14c0.531,-4.5 -6.937,-10.18 1.171,-13.69c1.213,-0.52 3.024,-0.261 4.097,0.2c4.725,2.02 4.27,3.331 4.519,6.411c0.011,0.139 -0.162,3.289 2.309,2.759c4.119,-0.89 2.937,-3.54 3.859,-5.5c0.249,-0.55 1.604,-3.28 3.262,-1.55c2.959,3.09 -0.434,6.88 -1.333,10.01c-0.412,1.409 -2.049,5.08 2.644,5.07c1.756,-0.01 3.48,-0.539 4.097,-1.56c0.738,-1.19 1.052,-2.46 1.388,-3.72c0.791,-3 0.618,-11.131 9.982,-8.94c2.732,0.64 3.599,2.65 2.981,4.19c-1.572,3.92 -8.649,8.3 -6.612,12.46c1.16,2.36 5.734,0.39 7.804,-0.07c0.672,-0.14 2.255,-0.399 2.818,0.16c4.563,4.569 -1.528,7.87 -7.218,10.72c-3.122,1.56 -6.33,3.07 -9.593,4.53c-1.116,0.49 -2.146,1.23 -3.544,1.33c-3.49,0.27 -7.63,0.89 -10.557,-0.24" style="fill:#55998a;fill-rule:nonzero;"/><path d="M569.689,847.78c-7.142,-3.578 -11.315,-5.667 -16.561,-10.264c-1.767,-1.548 -3.057,-3.352 -1.626,-5.158c1.951,-2.454 5.777,-4.356 6.113,-7.146c0.531,-4.494 -6.937,-10.175 1.171,-13.689c1.213,-0.523 3.024,-0.262 4.097,0.197c4.725,2.026 4.27,3.337 4.519,6.411c0.011,0.143 -0.162,3.296 2.309,2.762c4.119,-0.889 2.937,-3.54 3.859,-5.502c0.249,-0.544 1.604,-3.281 3.262,-1.551c2.959,3.094 -0.434,6.88 -1.333,10.013c-0.412,1.412 -2.049,5.079 2.644,5.068c1.756,-0.004 3.48,-0.54 4.098,-1.552c0.737,-1.197 1.051,-2.47 1.387,-3.726c0.791,-2.995 0.618,-11.131 9.982,-8.94c2.732,0.639 3.599,2.654 2.981,4.188c-1.572,3.921 -8.649,8.301 -6.612,12.458c1.16,2.361 5.734,0.395 7.804,-0.062c0.672,-0.148 2.255,-0.403 2.818,0.161c4.563,4.566 -1.528,7.864 -7.218,10.713c-3.122,1.562 -6.33,3.07 -9.592,4.528c-1.117,0.498 -2.147,1.23 -3.545,1.338c-3.49,0.27 -7.067,0.008 -10.557,-0.247" style="fill:#55998a;fill-rule:nonzero;"/><path d="M581.432,847.215c-7.142,-3.578 -11.315,-5.667 -16.561,-10.263c-1.767,-1.548 -3.057,-3.353 -1.626,-5.159c1.951,-2.454 5.777,-4.355 6.113,-7.146c0.531,-4.493 -6.937,-10.175 1.171,-13.689c1.213,-0.523 3.024,-0.261 4.097,0.198c4.725,2.025 4.27,3.337 4.519,6.411c0.011,0.142 -0.162,3.296 2.309,2.762c4.119,-0.889 2.937,-3.541 3.859,-5.502c0.249,-0.544 1.604,-3.282 3.262,-1.551c2.959,3.094 -0.434,6.88 -1.333,10.013c-0.412,1.412 -2.049,5.079 2.644,5.068c1.756,-0.005 3.48,-0.54 4.097,-1.553c0.738,-1.196 1.052,-2.47 1.388,-3.725c0.791,-2.996 0.618,-11.131 9.982,-8.941c2.732,0.639 3.599,2.654 2.981,4.189c-1.572,3.921 -8.649,8.3 -6.612,12.458c1.16,2.36 5.734,0.394 7.804,-0.063c0.672,-0.147 2.255,-0.403 2.818,0.161c4.563,4.567 -1.528,7.865 -7.218,10.713c-3.122,1.563 -6.33,3.07 -9.593,4.528c-1.116,0.499 -2.146,1.23 -3.544,1.338c-3.49,0.271 -7.067,0.008 -10.557,-0.247" style="fill:#60a595;fill-rule:nonzero;"/><path d="M1191.17,1297.31c16.79,-8.78 20.36,-12.621 32.71,-23.9c4.16,-3.8 -8.5,-9.75 -11.86,-14.191c-4.6,-6.019 -13.61,-10.689 -14.4,-17.53c-1.25,-11.029 16.33,-24.98 -2.75,-33.6c-2.86,-1.29 -7.12,-0.639 -9.65,0.481c-11.13,4.969 -10.05,8.189 -10.64,15.74c-0.03,0.35 0.38,8.09 -5.44,6.779c-9.69,-2.189 -6.909,-8.7 -9.079,-13.509c-0.591,-1.331 -3.781,-8.05 -7.681,-3.811c-6.97,7.601 1.02,16.891 3.14,24.58c0.97,3.471 4.82,12.471 -6.23,12.44c-4.13,-0.009 -8.19,-1.32 -9.65,-3.809c-1.73,-2.941 -2.47,-6.062 -3.26,-9.141c-1.87,-7.359 -1.46,-27.32 -23.51,-21.95c-6.43,1.57 -8.47,6.521 -7.01,10.28c3.701,9.63 20.36,20.38 15.56,30.58c-2.73,5.8 -13.5,0.97 -18.37,-0.15c-1.58,-0.359 -5.31,-0.989 -6.64,0.391c-10.74,11.21 3.6,19.309 17,26.299c7.35,3.831 14.901,7.531 22.58,11.111c2.63,1.229 5.06,3.019 8.35,3.289c8.221,0.66 38.58,0.25 46.83,-0.379" style="fill:#55998a;fill-rule:nonzero;"/><path d="M1166.07,1002.02c6.08,-1.859 11.71,-5.106 15.02,-11.013c0.7,-1.276 2.78,-4.1 1.39,-6.214c-0.52,-0.779 -5.08,-0.506 -4.971,-1.404c0.21,-1.56 1.141,-4.975 -0.919,-6.457c-3.25,-2.335 -7.19,2.613 -7.56,-0.542c-0.57,-5.082 7.5,-11.508 -1.261,-15.482c-1.309,-0.591 -3.269,-0.294 -4.429,0.224c-5.11,2.29 -4.61,3.775 -4.88,7.249c-0.021,0.162 0.17,3.73 -2.5,3.125c-4.451,-1.006 -3.17,-4.005 -4.17,-6.221c-0.271,-0.617 -1.73,-3.713 -3.521,-1.755c-3.199,3.499 0.461,7.781 1.441,11.324c0.44,1.598 2.21,5.744 -2.861,5.731c-1.899,-0.004 -3.759,-0.611 -4.429,-1.755c-0.8,-1.355 -1.14,-2.793 -1.5,-4.212c-0.85,-3.389 -0.67,-12.59 -10.79,-10.114c-2.951,0.723 -3.88,3.002 -3.22,4.739c1.7,4.434 9.349,9.387 7.15,14.09c-1.261,2.668 -6.2,0.445 -8.44,-0.072c-0.72,-0.166 -2.431,-0.456 -3.04,0.182c-4.93,5.165 1.65,8.894 7.8,12.115c3.37,1.769 6.839,3.474 10.37,5.121c1.2,0.562 19.23,3.211 25.32,1.341" style="fill:#55998a;fill-rule:nonzero;"/><path d="M314.232,1306.29c-3.431,-1.74 -2.104,-7.16 -2.829,-10.8c-0.36,-1.801 -0.484,-3.64 -0.404,-5.471c0.081,-1.789 0.316,-3.599 0.88,-5.319c1.407,-4.3 11.661,-9.13 14.079,-10.34c3.313,-1.65 15.025,-8.62 18.55,-2.421c2.155,3.801 1.598,9.611 0.806,13.631c-0.776,3.92 -2.279,11.63 -5.181,15.449c-1.393,1.841 -5.966,4.201 -8.121,4.911c-7.996,2.64 -14.343,2.1 -17.78,0.36" style="fill:#f5b957;fill-rule:nonzero;"/><path d="M212.445,1284.76c1.459,3.561 -3.084,6.79 -4.916,10.021c-0.902,1.599 -2.014,3.08 -3.268,4.409c-1.232,1.3 -2.593,2.52 -4.141,3.44c-3.875,2.34 -14.796,-0.7 -17.417,-1.37c-3.586,-0.91 -17.007,-3.29 -15.62,-10.29c0.855,-4.29 5.075,-8.319 8.296,-10.84c3.153,-2.46 9.329,-7.319 14.023,-8.309c2.257,-0.481 7.258,0.719 9.355,1.589c7.778,3.23 12.225,7.79 13.688,11.35" style="fill:#cfe739;fill-rule:nonzero;"/><path d="M456.943,1296.85c0.495,3.811 -4.725,5.771 -7.325,8.42c-1.282,1.31 -2.736,2.45 -4.289,3.42c-1.526,0.94 -3.154,1.77 -4.888,2.27c-4.346,1.26 -14.118,-4.49 -16.48,-5.809c-3.231,-1.801 -15.591,-7.551 -12.452,-13.961c1.927,-3.92 7.041,-6.73 10.802,-8.34c3.679,-1.569 10.895,-4.67 15.687,-4.43c2.305,0.111 6.829,2.561 8.632,3.941c6.687,5.12 9.813,10.67 10.313,14.489" style="fill:#7b8c00;fill-rule:nonzero;"/><path d="M485.93,1307.95c-1.592,3.56 -7.474,2.689 -11.306,3.72c-1.89,0.5 -3.85,0.78 -5.805,0.849c-1.919,0.071 -3.87,-0.009 -5.744,-0.429c-4.7,-1.05 -10.657,-10.87 -12.135,-13.18c-2.021,-3.16 -10.372,-14.26 -4.022,-18.29c3.893,-2.47 10.139,-2.39 14.483,-1.941c4.249,0.451 12.596,1.311 16.901,3.881c2.072,1.24 4.942,5.6 5.87,7.69c3.439,7.75 3.349,14.13 1.758,17.7" style="fill:#307302;fill-rule:nonzero;"/><path d="M599.246,840.296c-0.788,-2.332 -1.488,-4.69 -2.001,-7.079c-0.254,-1.178 -0.342,-2.388 -0.285,-3.585c0.057,-1.175 0.223,-2.362 0.622,-3.485c0.995,-2.821 8.247,-5.991 9.958,-6.783c2.343,-1.083 10.626,-5.655 13.12,-1.587c1.524,2.495 1.13,6.304 0.57,8.934c-0.549,2.573 -1.612,7.628 -3.665,10.134c-0.985,1.206 -4.219,2.751 -5.743,3.22c-5.656,1.73 -7.734,2.516 -12.576,0.231" style="fill:#f5b957;fill-rule:nonzero;"/><path d="M647.097,836.509c0.501,-1.374 0.946,-2.765 1.273,-4.173c0.161,-0.694 0.217,-1.408 0.181,-2.113c-0.036,-0.693 -0.142,-1.393 -0.396,-2.056c-0.633,-1.662 -5.246,-3.531 -6.335,-3.998c-1.49,-0.639 -6.76,-3.333 -8.346,-0.934c-0.97,1.469 -0.719,3.715 -0.363,5.266c0.35,1.517 1.026,4.497 2.332,5.974c0.626,0.711 2.684,1.622 3.654,1.898c3.597,1.02 4.92,1.485 8,0.136" style="fill:#f4ff9a;fill-rule:nonzero;"/><path d="M958.689,1010.03c-1.927,-2.38 -3.845,-4.771 -5.822,-7.15c-1.961,-2.35 -4.285,-4.602 -5.983,-7.034c-1.944,-2.769 -1.91,-4.903 -1.505,-7.841c0.203,-1.468 2.155,-2.871 4.766,-2.649c1.2,0.102 2.409,0.249 3.507,0.55c1.082,0.295 2.079,0.725 2.95,1.213c6.836,3.825 7.2,8.89 7.969,14.1c0.346,2.42 0.87,4.84 1.301,7.261c0.051,0.289 0.38,1.25 -0.397,1.449c-1.04,0.271 -2.223,0.281 -3.355,0.29c-1.149,0.021 -2.29,-0.099 -3.431,-0.189" style="fill:#f5b957;fill-rule:nonzero;"/><path d="M961.155,1004.51c-1.947,-3.109 -3.821,-6.228 -5.388,-9.399c-1.331,-2.693 -2.391,-5.432 -3.314,-8.18c-1.187,-3.525 0.362,-11.961 10.169,-8.803c2.961,0.951 5.669,4.394 6.656,5.66c2.889,3.689 0.245,7.21 -1.114,10.994c-1.304,3.634 -1.53,7.289 -7.009,9.728" style="fill:#307302;fill-rule:nonzero;"/><path d="M960.123,1006.67c1.277,-2.88 2.544,-5.77 4.084,-8.607c0.552,-1.013 7.009,-11.453 8.557,-12.812c1.784,-1.56 7.091,-4.584 11.465,-3.178c2.146,0.686 3.894,1.957 4.564,3.311c0.561,1.128 -0.661,2.319 -1.196,3.45c-1.512,3.177 -4.582,6.553 -7.805,9.125c-2.654,2.121 -6.403,3.751 -8.993,5.891c-1.657,1.37 -1.865,3.22 -3.631,4.53c-1.059,0.79 -2.871,1.9 -4.464,1.51c-1.893,-0.46 -2.282,-2.05 -2.581,-3.22" style="fill:#fd9512;fill-rule:nonzero;"/><path d="M310.641,1301.89c-3.634,0.641 -12.465,-1.21 -16.663,-4.13c-7.317,-5.09 -8.015,-23.14 -1.528,-27.64c4.569,-3.169 22.745,12.5 22.815,12.63c1.96,3.451 1.409,7.481 0.523,11.151c-0.697,2.88 -1.514,7.34 -5.147,7.989" style="fill:#fd9512;fill-rule:nonzero;"/><path d="M608.446,842.59c-0.697,2.883 -17.612,6.774 -21.81,3.859c-7.317,-5.086 -8.015,-23.142 -1.528,-27.642c4.569,-3.172 22.745,12.506 22.815,12.631c1.96,3.453 1.409,7.486 0.523,11.152" style="fill:#fd9512;fill-rule:nonzero;"/><path d="M248.694,1298.79c-5.167,-4.19 -9.617,-15.37 -11.668,-23.81c-0.677,-2.791 1.413,-6.07 3.987,-7.82c5.202,-3.54 2.646,-4.81 5.21,-10.07c1.663,-3.401 11.913,-9.87 16.188,-3.43c1.848,2.779 -3.01,8.92 0.58,9.64c4.319,0.87 6.205,-5.76 10.175,-7.48c1.569,-0.68 4.383,-0.54 5.171,0.82c1.16,2.01 -0.034,4.57 -0.822,6.72c-0.333,0.9 -3.377,1.6 -2.369,1.951c2.411,0.849 5.497,-1.131 7.786,-0.061c7.158,3.34 -5.132,10.41 -5.056,10.769c1.211,5.681 8.831,3.741 5.916,8.881c-2.368,4.17 -6.355,7.5 -9.932,10.96c-1.704,1.65 -3.318,4 -5.84,4.3c-6.407,0.74 -14.593,2.48 -19.326,-1.37" style="fill:#307302;fill-rule:nonzero;"/><path d="M645.966,838.139c-3.106,-2.232 -5.782,-8.176 -7.015,-12.67c-0.407,-1.483 0.849,-3.224 2.397,-4.156c3.128,-1.885 1.591,-2.563 3.133,-5.357c1,-1.812 7.163,-5.251 9.734,-1.827c1.111,1.481 -1.81,4.744 0.348,5.128c2.597,0.462 3.731,-3.061 6.119,-3.977c0.943,-0.363 2.635,-0.29 3.109,0.436c0.697,1.069 -0.021,2.433 -0.495,3.571c-0.2,0.481 -2.03,0.855 -1.424,1.042c1.45,0.449 3.305,-0.603 4.682,-0.036c4.304,1.778 -3.086,5.542 -3.041,5.735c0.728,3.02 5.31,1.985 3.558,4.719c-1.424,2.223 -3.822,3.995 -5.972,5.835c-1.025,0.877 -1.996,2.126 -3.512,2.283c-3.852,0.396 -8.775,1.32 -11.621,-0.726" style="fill:#307302;fill-rule:nonzero;"/><path d="M1202.54,1304.11c-30.69,-6.761 -39.351,-25.091 -31.11,-44.13c1.94,-4.471 5.94,-16.051 13.009,-17.07c10.661,-1.55 29.611,2.24 25.991,-9.901c-4.51,-15.129 15.19,-0.879 21.97,-12.41c4.39,-7.479 16.25,-32.819 27.55,-18.689c4.88,6.109 -0.92,21.04 8.569,22.62c11.411,1.909 16.401,-12.63 26.891,-16.41c4.151,-1.5 11.58,-1.2 13.67,1.8c3.06,4.41 -0.1,10.03 -2.18,14.74c-0.881,1.979 -0.41,5.22 2.26,5.99c6.37,1.85 9.47,1.109 15.52,3.46c18.92,7.329 -6.56,16.029 -2.67,23.64c1.929,3.78 30.4,24.259 10.35,38.469c-6.421,4.55 -16.31,4.981 -24.22,5.611c-4.451,0.359 -19.76,3.269 -26.329,3.599c-29.271,1.451 -69.401,0.861 -79.271,-1.319" style="fill:#7b8c00;fill-rule:nonzero;"/><path d="M1896.97,1246.13c19.71,-4.149 25.28,-15.41 19.98,-27.11c-1.24,-2.74 -3.81,-9.85 -8.35,-10.48c-6.85,-0.95 -19.029,1.38 -16.699,-6.08c2.899,-9.29 -9.761,-0.54 -14.111,-7.62c-2.82,-4.59 -10.44,-20.15 -17.7,-11.48c-3.14,3.75 0.59,12.92 -5.5,13.9c-7.34,1.17 -10.54,-7.76 -17.279,-10.09c-2.66,-0.91 -7.441,-0.73 -8.78,1.11c-1.97,2.71 0.059,6.16 1.399,9.05c0.561,1.22 0.26,3.21 -1.449,3.69c-4.091,1.131 -6.08,0.68 -9.971,2.12c-12.149,4.5 4.21,9.85 1.721,14.52c-1.25,2.321 -19.541,14.89 -6.651,23.62c4.12,2.8 10.47,3.06 15.56,3.451c2.851,0.219 12.69,2.009 16.91,2.209c18.8,0.89 44.58,0.53 50.92,-0.81" style="fill:#fd9512;fill-rule:nonzero;"/><path d="M1856.54,1247.26c-2.42,4.57 -11.34,3.38 -17.16,4.65c-2.87,0.63 -5.84,0.97 -8.81,1.04c-2.91,0.06 -5.87,-0.07 -8.72,-0.629c-7.12,-1.401 -16.14,-14.121 -18.38,-17.121c-3.06,-4.1 -15.701,-18.49 -6.06,-23.6c5.91,-3.13 15.39,-2.96 21.98,-2.319c6.45,0.629 19.11,1.83 25.64,5.2c3.14,1.619 7.48,7.269 8.89,9.969c5.2,10.02 5.05,18.23 2.62,22.81" style="fill:#7b8c00;fill-rule:nonzero;"/><path d="M1202.97,1004.12c-13.989,-2.78 -17.939,-10.329 -14.18,-18.168c0.88,-1.841 2.71,-6.606 5.93,-7.028c4.86,-0.636 13.5,0.925 11.851,-4.075c-2.061,-6.231 6.929,-0.364 10.019,-5.111c2,-3.077 7.41,-13.512 12.561,-7.694c2.229,2.514 -0.42,8.662 3.91,9.314c5.199,0.784 7.479,-5.202 12.26,-6.759c1.889,-0.615 5.279,-0.492 6.229,0.744c1.4,1.815 -0.04,4.13 -0.989,6.066c-0.401,0.816 -0.191,2.151 1.029,2.47c2.901,0.761 4.32,0.456 7.08,1.422c8.62,3.018 -2.99,6.603 -1.22,9.735c0.88,1.557 13.861,9.987 4.72,15.834c-2.929,1.88 -7.439,2.06 -11.05,2.32c-2.03,0.14 -9,1.34 -12,1.48c-13.35,0.59 -31.65,0.349 -36.15,-0.55" style="fill:#7b8c00;fill-rule:nonzero;"/><path d="M1946.76,1224.97c-2.64,-2.59 -10.89,-1.56 -16.439,-2.09c-2.741,-0.26 -5.551,-0.349 -8.331,-0.28c-2.73,0.07 -5.49,0.261 -8.11,0.69c-6.55,1.09 -13.97,8.89 -15.819,10.72c-2.53,2.521 -13.211,11.43 -3.771,14.07c5.781,1.62 14.64,1.17 20.75,0.55c5.991,-0.61 17.741,-1.79 23.58,-4.01c2.81,-1.059 6.42,-4.54 7.52,-6.18c4.06,-6.07 3.25,-10.879 0.62,-13.47" style="fill:#cfe739;fill-rule:nonzero;"/><path d="M315.178,574.786c16.199,-6.203 23.405,-26.185 38.733,-34.325c30.256,-16.068 73.202,-13.971 104.062,-0.65c28.698,12.388 27.537,14.316 56.187,27.128c15.3,6.842 20.952,10.126 35.923,11.91c11.526,1.372 29.545,-1.626 38.081,8.824c2.531,3.098 4.868,6.449 6.409,10.124c1.653,3.946 2.688,8.194 3.048,12.446c0.349,4.13 -0.231,8.311 -0.944,12.395c-1.634,9.366 -12.298,16.838 -20.469,20.197c-33.112,13.609 -70.891,12.997 -105.951,10.228c-16.667,-1.316 -33.738,-3.64 -50.524,-3.053c-26.608,0.932 -79.791,5.663 -106.217,8.651c-23.928,2.705 -48.978,12.958 -73.281,9.053c-17.362,-2.789 -33.197,-14.322 -41.799,-29.326c-8.119,-14.161 -7.409,-29.812 6.822,-39.525c6.626,-4.522 14.915,-7.361 22.254,-9.999c28.994,-10.424 66.599,-6.01 87.666,-14.078" style="fill:#fce2e5;fill-rule:nonzero;"/><path d="M1646.67,751.177c-10.66,-3.348 -15.4,-14.132 -25.49,-18.525c-19.91,-8.672 -48.17,-7.54 -68.48,-0.351c-18.889,6.686 -18.12,7.726 -36.98,14.64c-10.07,3.693 -13.79,5.465 -23.64,6.428c-7.58,0.741 -19.44,-0.878 -25.06,4.762c-1.67,1.672 -3.2,3.48 -4.22,5.464c-1.09,2.129 -1.77,4.422 -2,6.718c-0.23,2.227 0.15,4.484 0.62,6.688c1.07,5.055 8.09,9.087 13.47,10.901c21.79,7.343 46.65,7.013 69.72,5.519c10.97,-0.711 22.21,-1.965 33.25,-1.647c17.52,0.503 52.51,3.055 69.91,4.669c15.74,1.46 32.23,6.992 48.22,4.885c11.43,-1.505 21.85,-7.73 27.51,-15.827c5.34,-7.641 4.88,-16.089 -4.49,-21.331c-4.36,-2.44 -9.82,-3.972 -14.65,-5.396c-19.08,-5.626 -43.82,-3.243 -57.69,-7.597" style="fill:#fce2e5;fill-rule:nonzero;"/><path d="M1381.93,229.579c-16.189,-6.204 -23.399,-26.186 -38.729,-34.326c-30.25,-16.068 -73.201,-13.971 -104.061,-0.65c-28.7,12.388 -27.54,14.316 -56.189,27.128c-15.3,6.842 -20.951,10.126 -35.92,11.91c-11.531,1.372 -29.55,-1.626 -38.08,8.824c-2.531,3.098 -4.871,6.449 -6.411,10.124c-1.65,3.946 -2.69,8.194 -3.049,12.446c-0.351,4.13 0.229,8.311 0.949,12.395c1.631,9.366 12.291,16.838 20.461,20.197c33.119,13.609 70.899,12.997 105.96,10.228c16.659,-1.316 33.729,-3.64 50.519,-3.053c26.611,0.932 79.79,5.663 106.22,8.651c23.92,2.705 48.971,12.958 73.28,9.053c17.361,-2.789 33.191,-14.322 41.8,-29.326c8.12,-14.161 7.41,-29.812 -6.83,-39.525c-6.619,-4.522 -14.91,-7.361 -22.25,-9.999c-28.989,-10.424 -66.6,-6.01 -87.67,-14.077" style="fill:#fce2e5;fill-rule:nonzero;"/><path d="M1283.76,663.903c9.82,-3.931 14.19,-16.593 23.48,-21.751c18.331,-10.182 44.36,-8.854 63.06,-0.412c17.39,7.85 16.681,9.072 34.05,17.19c9.27,4.336 12.69,6.417 21.761,7.547c6.989,0.87 17.909,-1.03 23.079,5.592c1.541,1.963 2.95,4.087 3.89,6.415c1,2.501 1.62,5.193 1.84,7.887c0.21,2.617 -0.139,5.267 -0.57,7.855c-0.989,5.935 -7.449,10.67 -12.4,12.798c-20.07,8.624 -42.96,8.236 -64.21,6.481c-10.1,-0.834 -20.44,-2.306 -30.62,-1.934c-16.12,0.59 -48.35,3.588 -64.36,5.482c-14.5,1.714 -29.68,8.211 -44.41,5.737c-10.52,-1.768 -20.119,-9.076 -25.33,-18.584c-4.92,-8.973 -4.489,-18.891 4.131,-25.046c4.019,-2.866 9.039,-4.665 13.489,-6.336c17.57,-6.606 40.36,-3.809 53.12,-8.921" style="fill:#f7a6a2;fill-rule:nonzero;"/><path d="M219.032,640.607c9.816,-3.931 14.183,-16.593 23.472,-21.751c18.334,-10.182 44.36,-8.854 63.061,-0.412c17.391,7.85 16.687,9.072 34.048,17.19c9.272,4.336 12.697,6.417 21.77,7.547c6.984,0.87 17.903,-1.03 23.077,5.592c1.533,1.963 2.95,4.087 3.883,6.415c1.002,2.501 1.629,5.193 1.847,7.887c0.212,2.617 -0.14,5.267 -0.572,7.855c-0.99,5.935 -7.452,10.67 -12.404,12.798c-20.065,8.624 -42.959,8.236 -64.206,6.481c-10.099,-0.834 -20.444,-2.306 -30.616,-1.934c-16.125,0.59 -48.353,3.588 -64.367,5.482c-14.501,1.714 -29.681,8.211 -44.408,5.737c-10.521,-1.768 -20.117,-9.076 -25.33,-18.584c-4.92,-8.973 -4.49,-18.891 4.134,-25.046c4.015,-2.866 9.039,-4.665 13.486,-6.336c17.57,-6.606 40.358,-3.809 53.125,-8.921" style="fill:#f7a6a2;fill-rule:nonzero;"/><path d="M1048.89,363.842l2.96,85.311c0.03,0.984 0.86,1.755 1.84,1.721c0.99,-0.034 1.761,-0.861 1.721,-1.845l-2.96,-85.311c-0.031,-0.984 -0.861,-1.755 -1.84,-1.721c-0.991,0.034 -1.761,0.861 -1.721,1.845" style="fill-rule:nonzero;"/><path d="M1051.46,365.021l56.81,32.273l-56.01,-2.497l-0.8,-29.776Z" style="fill:#de5b6d;fill-rule:nonzero;"/></g></svg>