<?xml version="1.0" encoding="UTF-8" standalone="no"?><!DOCTYPE svg PUBLIC "-//W3C//DTD SVG 1.1//EN" "http://www.w3.org/Graphics/SVG/1.1/DTD/svg11.dtd"><svg width="100%" height="100%" viewBox="0 0 2048 1536" version="1.1" xmlns="http://www.w3.org/2000/svg" xmlns:xlink="http://www.w3.org/1999/xlink" xml:space="preserve" xmlns:serif="http://www.serif.com/" style="fill-rule:evenodd;clip-rule:evenodd;stroke-linecap:round;stroke-linejoin:round;"><g id="Layer-1" serif:id="Layer 1"><path d="M904.478,469.968c54.959,-93.907 -127.936,-174.148 -190.434,-147.227c-11.125,4.743 -22.814,9.062 -32.885,16.41c-73.115,53.459 11.103,154.599 -2.844,220.755c-11.154,52.997 -96.528,98.008 -128.125,128.45c-24.184,23.284 -59.188,65.697 -31.013,96.946c11.495,12.958 25.534,23.827 41.054,31.449c29.928,14.771 52.199,7.483 84.788,4.644c25.555,-2.296 53.927,-2.116 79.232,-11.494c96.127,-35.513 136.761,-157.926 159.601,-246.831c7.854,-30.786 4.228,-65.081 20.626,-93.102" style="fill:#58c4c4;fill-rule:nonzero;"/><path d="M904.478,469.968c54.959,-93.907 -127.936,-174.148 -190.434,-147.227c-11.125,4.743 -22.814,9.062 -32.885,16.41c-73.115,53.459 11.103,154.599 -2.844,220.755c-11.154,52.997 -96.528,98.008 -128.125,128.45c-24.184,23.284 -59.188,65.697 -31.013,96.946c11.495,12.958 25.534,23.827 41.054,31.449c29.928,14.771 52.199,7.483 84.788,4.644c25.555,-2.296 53.927,-2.116 79.232,-11.494c96.127,-35.513 136.761,-157.926 159.601,-246.831c7.854,-30.786 4.228,-65.081 20.626,-93.102Z" style="fill:none;fill-rule:nonzero;stroke:#58c4c4;stroke-width:3.76px;"/><path d="M949.361,1295c-8.986,16.64 -38.496,38.189 -54.679,46.78c-77.78,41.24 -152.228,49.86 -234.64,22.659c-24.575,-8.169 -47.266,-28.139 -75.134,-28.979c-62.716,-1.89 -130.38,63.96 -192.162,28.09c-56.594,-32.96 -50.503,-130.19 -30.001,-182.55c14.168,-35.78 26.961,-72.64 48.394,-104.88c21.946,-33.1 76.263,-43.96 88.757,-84.828c18.55,-60.054 13.688,-129.678 51.747,-180.872c10.099,-13.488 57.648,-71.528 86.248,-42.346c15.785,15.897 23.511,37.829 35.747,56.485c29.183,45.172 62.637,87.861 88.019,135.22c43.581,81.341 76.409,168.032 118.775,250.001c21.392,41.781 46.295,49.34 65.624,92.52" style="fill:#e9765b;fill-rule:nonzero;stroke:#e9765b;stroke-width:3.63px;"/><path d="M934.509,885.986c-9.503,-13.14 32.032,-13.7 35.837,-13.959c63.534,-3.947 124.664,-12.977 187.534,-22.749c144.95,-22.446 343.04,27.048 387.58,185.882c11.06,39.46 22.851,83.82 0.82,122.83c-33.379,59.62 -109.959,97.67 -163.4,135.309c-38.89,27.291 -81.64,43.121 -123.479,64.451c-22.92,11.63 -47.281,16.969 -71.851,23.86c-258.879,72.579 -240.036,-337.421 -286.997,-504.913" style="fill:#f27070;fill-rule:nonzero;stroke:#f27070;stroke-width:3.73px;"/><path d="M965.732,1032.01c2.637,4.311 -7.332,8.36 -12.221,10.521c-11.115,5.269 -22.779,9.729 -34.768,11.5c-26.918,4.03 -54.499,8.849 -81.049,5.879c-55.124,-6.179 -102.843,-31.179 -136.313,-77.449c-30.349,-42.367 -35.647,-98.242 -36.016,-150.878c-1.08,-110.664 17.265,-252.945 123.953,-312.041c50.894,-28.127 119.263,-6.673 167.273,1.208c84.419,13.919 188.239,20.258 264.279,66.164c42.56,25.704 86.5,59.251 81.99,118.818c-2.15,26.116 -5.69,52.645 -14.08,77.796c-8.78,26.038 -21.63,51.007 -36.86,73.801c-38.48,56.927 -63.65,74.827 -124.76,96.583c-47.81,17.018 -133.519,14.934 -161.428,78.098" style="fill:#dbe139;fill-rule:nonzero;"/><path d="M1107.69,732.435c-17.53,-55.071 -161.913,-165.208 -190.457,-171.723c-75.272,-17.598 -66.474,-169.119 -47.052,-244.388c26.003,-100.69 60.315,-108.184 147.279,-147.937c68.729,-31.28 142.299,-82.115 222.5,-80.158c180.679,3.91 221.669,243.409 239.04,379.612c6.12,47.903 10.331,96.128 12.15,144.353c2.09,56.372 5.439,128.387 -53.471,159.993c-106.449,57.025 -291.729,80.485 -329.99,-39.752" style="fill:#f2a490;fill-rule:nonzero;"/><path d="M535.245,1367.68c0,-85.31 174.907,-154.47 390.667,-154.47c215.758,-0 390.668,69.16 390.668,154.47c0,85.32 -174.91,154.48 -390.668,154.48c-215.76,-0 -390.667,-69.16 -390.667,-154.48" style="fill:#8199bb;fill-rule:nonzero;"/><path d="M559.616,1346.8c0,-84.09 164.215,-152.26 366.785,-152.26c202.569,-0 366.788,68.17 366.788,152.26c0,84.101 -164.219,152.271 -366.788,152.271c-202.57,-0 -366.785,-68.17 -366.785,-152.271" style="fill:#5c7595;fill-rule:nonzero;"/><g><clipPath id="_clip1"><path d="M572.017,1367.33c-0,65.015 34.99,124.223 92.35,168.67l519.511,0c57.361,-44.447 92.353,-103.655 92.353,-168.67c-0,-137.981 -157.651,-249.84 -352.109,-249.84c-194.463,0 -352.105,111.859 -352.105,249.84Z" clip-rule="nonzero"/></clipPath><g clip-path="url(#_clip1)"><path d="M1438.91,1025.04c0,258.45 -235.57,467.96 -526.162,467.96c-290.593,0 -526.164,-209.51 -526.164,-467.96c0,-258.446 235.571,-467.96 526.164,-467.96c290.592,0 526.162,209.514 526.162,467.96" style="fill:#5c7595;fill-rule:nonzero;"/><path d="M1438.91,1025.04c0,258.45 -235.57,467.96 -526.162,467.96c-290.593,0 -526.164,-209.51 -526.164,-467.96c0,-258.446 235.571,-467.96 526.164,-467.96c290.592,0 526.162,209.514 526.162,467.96" style="fill:#5c7595;fill-rule:nonzero;"/><path d="M1439.23,1025.01c-0,258.44 -235.57,467.96 -526.161,467.96c-290.591,-0 -526.163,-209.52 -526.163,-467.96c-0,-258.453 235.572,-467.966 526.163,-467.966c290.591,-0 526.161,209.513 526.161,467.966" style="fill:#5c7595;fill-rule:nonzero;"/></g></g><path d="M821.375,1203.79c0,-35.72 45.562,-64.67 101.766,-64.67c56.203,0 101.769,28.95 101.769,64.67c0,35.71 -45.566,64.66 -101.769,64.66c-56.204,-0 -101.766,-28.95 -101.766,-64.66" style="fill:#8199bb;fill-rule:nonzero;"/><path d="M980.682,1239.62c-9.519,8.53 -37.485,19.72 -63.381,17.899c-26.19,-1.839 -51.678,-17.899 -51.678,-17.899c-21.393,-17.13 -20.419,-37.62 -20.419,-43.59l6.826,-121.47c0,-5.98 6.117,-10.86 13.593,-10.86l115.059,0c7.476,0 13.594,4.88 13.594,10.86l6.814,124.58c0,5.97 -3.897,25.69 -20.408,40.48" style="fill:#f5cec3;fill-rule:nonzero;"/><path d="M947.262,1146c-9.653,7.42 -28.061,22.86 -38.971,29.23c-18.89,11.01 -41.298,20.76 -41.298,20.76l-19.977,7.79l0.487,-14.61l4.871,-103.76c0,0 5.743,-1.77 11.104,-1.77l121.777,0c5.361,0 9.747,4.39 9.747,9.75c0,5.36 -35.074,42.87 -47.74,52.61" style="fill:#f4b9a9;fill-rule:nonzero;"/><clipPath id="_clip2"><path d="M709.099,1160.72l410.761,0l0,-404.722l-410.761,0l-0,404.722Z" clip-rule="nonzero"/></clipPath><g clip-path="url(#_clip2)"><path d="M1119.86,908.16c0,139.49 -91.95,252.56 -205.378,252.56c-113.43,0 -205.383,-113.07 -205.383,-252.56c0,-139.484 91.953,-252.559 205.383,-252.559c113.428,0 205.378,113.075 205.378,252.559" style="fill:#f5cec3;fill-rule:nonzero;"/></g><path d="M742.475,779.947c0,-54.952 76.294,-99.499 170.407,-99.499c94.118,0 170.408,44.547 170.408,99.499c0,54.952 -76.29,99.499 -170.408,99.499c-94.113,0 -170.407,-44.547 -170.407,-99.499" style="fill:#d98e85;fill-rule:nonzero;"/><path d="M752.446,779.947c-0,-49.298 71.407,-89.263 159.492,-89.263c88.082,0 159.492,39.965 159.492,89.263c-0,49.299 -71.41,89.263 -159.492,89.263c-88.085,0 -159.492,-39.964 -159.492,-89.263" style="fill:#478ba2;fill-rule:nonzero;"/><path d="M924.972,922.62c0,0 -16.281,37.414 -16.281,53.445c0,8.988 7.293,16.282 16.281,16.282c8.988,0 16.281,-7.294 16.281,-16.282c0,-16.031 -16.281,-53.445 -16.281,-53.445" style="fill:#d98e85;fill-rule:nonzero;"/><path d="M861.576,1033.84c-5.22,15.53 7.384,33.8 28.122,40.771c20.75,6.959 51.521,-12.861 56.742,-28.391c-10.337,1.72 -35.126,13.72 -50.12,8.681c-14.996,-5.031 -27.542,-13.461 -34.744,-21.061" style="fill:#d98e85;fill-rule:nonzero;"/><path d="M846.452,899.608c7.917,0 14.337,6.259 14.337,13.957c0,7.706 -6.42,13.966 -14.337,13.966c-7.917,0 -14.347,-6.26 -14.347,-13.966c0,-7.698 6.43,-13.957 14.347,-13.957" style="fill:#11363d;fill-rule:nonzero;"/><path d="M996.972,900.453c7.918,0 14.338,6.259 14.338,13.957c0,7.707 -6.42,13.956 -14.338,13.956c-7.917,0 -14.347,-6.249 -14.347,-13.956c0,-7.698 6.43,-13.957 14.347,-13.957" style="fill:#11363d;fill-rule:nonzero;"/><path d="M829.495,971.274c0,16.858 -13.733,30.525 -30.673,30.525c-16.94,0 -30.673,-13.667 -30.673,-30.525c0,-16.859 13.733,-30.527 30.673,-30.527c16.94,0 30.673,13.668 30.673,30.527" style="fill:#f4b9a9;fill-rule:nonzero;"/><path d="M1064.63,971.274c-0,16.858 -13.74,30.525 -30.68,30.525c-16.94,0 -30.67,-13.667 -30.67,-30.525c-0,-16.859 13.73,-30.527 30.67,-30.527c16.94,0 30.68,13.668 30.68,30.527" style="fill:#f4b9a9;fill-rule:nonzero;"/><path d="M957.336,673.353c0.945,-6.993 1.893,-14.004 3.514,-20.49c2.634,-10.545 4.238,-16.768 19.185,-10.871c2.832,1.12 -4.033,1.791 -5.271,3.615c-2.703,3.985 -4.413,8.974 -6.43,13.637c-2.119,4.896 -3.107,6.149 -6.176,10.086c-0.841,1.078 -3.019,4.881 -4.822,4.023" style="fill:#7bbfd7;fill-rule:nonzero;"/><path d="M744.669,739.636c9.403,18.572 14.263,-6.626 24.924,-14.888c8.464,-6.558 22.615,-6.179 31.455,-3.413c56.097,17.59 110.431,53.69 167.673,30.517c16.572,-6.713 14.245,-17.784 30.648,-23.453c6.811,-2.355 13.851,-1.517 20.781,-1.217c6.98,0.303 13.94,1.31 20.87,3.011c4.97,1.224 9.81,3.889 14.73,5.738c1.82,0.684 7.09,1.228 5.53,-0.708c-19.33,-24.149 -34.45,-32.781 -57.37,-24.522c-6.868,2.477 -13.606,6.211 -20.287,10.147c-4.842,2.856 -13.87,15.184 -14.902,5.648c-0.844,-7.71 14.226,-15.947 11.618,-20.013c-5.087,-7.861 -10.773,15.383 -16.648,11.909c-5.461,-3.232 8.146,-28.343 -3.04,-27.357c-7.395,0.65 -9.065,16.145 -13.044,26.317c-4.786,12.195 -7.657,-11.234 -13.457,-7.381c-4.035,2.687 -12.705,21.205 -18.336,18.323c-20.964,-10.696 -20.757,-28.134 -35.64,-51.458c-0.47,-0.743 -14.827,-29.794 -20.532,-15.332c-5.668,14.375 8.314,35.291 12.18,44.206c1.839,4.222 6.381,13.289 3.641,14.939c-2.965,1.788 -7.77,-9.815 -9.403,-11.194c-5.367,-4.568 -10.848,-10.201 -16.722,-10.673c-1.858,-0.149 -4.148,6.347 -2.947,9.088c3.754,8.663 18.055,6.489 15.371,16.524c-1.708,6.326 -5.705,3.124 -7.939,1.693c-14.883,-9.572 -14.47,-10.667 -29.803,-15.278c-24.53,-7.374 -59.926,-5.684 -79.351,28.827" style="fill:#cbe7ee;fill-rule:nonzero;"/><clipPath id="_clip3"><path d="M862.71,648.083l11.682,132.079l89.908,-8.276l-11.682,-132.079l-89.908,8.276Z" clip-rule="nonzero"/></clipPath><g clip-path="url(#_clip3)"><path d="M896.732,824.509c2.629,0.117 5.357,0.226 7.874,-0.552c3.075,-0.959 6.197,-2.339 8.548,-4.568c4.15,-3.945 4.544,-11.342 3.386,-16.41c-2.247,-9.825 -6.9,-6.623 -11.57,-15.781c-1.954,-3.83 -1.994,-8.426 -2.418,-12.728c-0.483,-4.886 -1.678,-10.037 -0.297,-14.749c2.437,-8.317 11.971,-13.075 14.655,-21.314c3.587,-11.01 -1.291,-12.042 3.647,-22.63c5.173,-11.084 7.937,-9.139 12.922,-20.105c2.237,-4.921 3.57,-10.218 5.322,-15.338c0.949,-2.775 0.748,-6.278 2.784,-8.349c1.481,-1.53 2.828,-0.447 4.878,-0.909c1.131,-0.262 0.176,-10.423 -0.104,-18.144c-0.121,-3.295 6.292,-6.832 6.443,-7.378c2.11,-7.711 -13.782,-4.739 -14.88,-3.244c-0.474,0.647 -1.901,23.561 -3.116,25.886c-4.423,8.457 -9.858,16.345 -15.236,24.214c-2.547,3.727 -7.653,5.922 -10.796,9.748c-1.074,1.306 -24.461,36.921 -25.834,40.324c-2.816,7.001 -3.179,14.767 -4.817,22.148c-1.194,5.357 -4.302,10.602 -3.68,16.065c0.959,8.42 9.833,14.488 10.84,22.89c0.383,3.213 -1.929,6.359 -1.528,9.556c0.3,2.388 8.345,20.275 8.95,21.887c0.514,1.361 4.204,17.293 8.652,18.794c2.191,0.748 5.558,-0.684 6.305,-2.922c2.03,-6.024 -5.74,-7.723 -7.285,-11.447c-1.962,-4.72 -2.811,-9.875 -3.645,-14.944" style="fill:#043c5b;fill-rule:nonzero;"/></g><path d="M918.245,723.508c2.771,-2.785 6.439,-3.41 9.023,-6.379c4.732,-5.438 6.021,-16.955 12.913,-18.797c5.836,-1.572 13.598,-5.19 19.151,-7.828c1.65,-0.785 3.325,3.474 6.119,1.018c2.159,-1.91 7.827,-7.908 9.023,-10.548c3.927,-8.684 3.839,-1.23 9.737,-5.668c1.388,-1.048 -4.74,-6.405 -6.386,-6.93c-1.611,-0.527 -3.33,0.867 -4.732,1.83c-3.13,2.142 -7.719,7.538 -10.355,10.397c-1.304,1.414 -2.111,3.673 -3.937,4.215c-2.899,0.856 -10.083,1.273 -13.04,1.89c-8.667,1.804 -13.65,4.893 -19.713,11.373c-5.159,5.52 -11.571,10.753 -13.804,18.045c-0.937,3.047 3.328,5.716 6.001,7.382" style="fill:#043c5b;fill-rule:nonzero;"/><path d="M908.601,469.851c-8.965,9.474 -17.986,19.007 -25.555,29.629c-5.855,8.218 -10.388,17.359 -14.493,26.577c-0.581,1.303 -0.494,3.571 0.783,4.206c2.003,0.997 5.095,1.079 6.691,-0.488c2.791,-2.74 2.918,-7.27 4.738,-10.731c2.609,-4.962 5,-10.132 8.526,-14.491c8.1,-10.014 19.92,-17.167 26.183,-28.423c1.508,-2.711 -4.019,-5.064 -6.873,-6.279" style="fill:#0f506c;fill-rule:nonzero;"/><path d="M905.82,480.315c0.621,-2.624 1.362,-6.084 3.401,-8.145c1.835,-1.853 3.912,-3.95 6.469,-4.885c1.909,-0.697 3.707,-0.695 5.705,-0.366c7.077,1.164 11.84,7.701 11.553,14.729c-0.244,6.009 -3.283,12.349 -10.219,11.84c-1.094,-0.079 -2.183,-0.305 -3.23,-0.631c-2.511,-0.783 -4.635,-1.9 -6.644,-3.6c-2.766,-2.34 -5.208,-6.122 -7.035,-8.942" style="fill:#f5cec3;fill-rule:nonzero;"/><path d="M922.275,489.064c-0.628,-1.735 0.468,-3.722 2.447,-4.438c1.979,-0.716 4.093,0.109 4.721,1.844c0.628,1.735 -0.468,3.723 -2.447,4.439c-1.979,0.716 -4.093,-0.11 -4.721,-1.845" style="fill:#006bb1;fill-rule:nonzero;"/><path d="M925.8,484.699l-2.476,3.876l-4.351,-2.78l2.477,-3.876l4.35,2.78Z" style="fill:#006bb1;"/><path d="M907.488,484.925c-3.151,-4.965 -6.832,-10.766 -6.003,-16.588c1.349,-9.489 17.508,-13.591 24.207,-9.971c4.817,2.603 7.024,6.921 8.887,12.068c0.766,2.118 -1.778,6.653 -2.602,7.67c-5.495,6.799 -15.904,5.172 -24.489,6.821" style="fill:#0f506c;fill-rule:nonzero;"/><path d="M907.862,485.279c0.316,-3.273 6.173,-12.017 11.949,-14.303c3.036,-1.203 6.776,3.516 7.086,6.767c0.246,2.606 -4.46,2.968 -5.958,5.115c-1.588,2.275 -0.295,7.248 -3.023,7.753c-3.729,0.69 -10.368,-2.06 -10.054,-5.332" style="fill:#bcd6dc;fill-rule:nonzero;"/><path d="M928.296,464.67c9.729,2.127 21.992,7.604 27.769,15.717c6.765,9.497 4.087,22.966 6.539,34.364c0.48,2.23 0.076,5.763 2.244,6.463c2.679,0.865 7.616,-0.415 7.801,-3.222c0.883,-13.371 2.094,-28.497 -4.948,-39.899c-6.323,-10.236 -8.323,-31.431 -19.936,-34.573c-3.534,-0.956 -17.946,17.821 -19.469,21.15" style="fill:#0f506c;fill-rule:nonzero;"/><path d="M930.454,471.524c8.882,-5.763 19.86,-9.263 27.575,-16.513c9.432,-8.868 19.908,-21.602 22.933,-34.189c2.084,-8.678 -3.434,-19.593 -12.271,-20.84c-9.627,-1.357 -15.918,11.378 -22.579,18.459c-11.387,12.108 -26.591,22.88 -31.294,38.821c-1.996,6.767 9.144,11.502 15.636,14.262" style="fill:#0f506c;fill-rule:nonzero;"/><path d="M969.171,428.66c24.274,-1.685 50.639,-3.517 71.039,-16.78c15.76,-10.243 19.34,-32.233 29.08,-48.307c4.271,-7.033 5.86,-16.81 12.93,-21.008c17.511,-10.4 40.77,-9.088 57.43,-20.785c4.39,-3.078 -6.35,-8.876 -7.86,-14.014c-2.05,-6.952 4.25,-23.92 -2.62,-21.587c-38.97,13.236 -30.33,20.131 -51.88,49.738c-7.49,10.295 -21.04,19.143 -28.35,29.566c-4.92,7.01 -4.6,18.263 -11.87,22.777c-11.33,7.023 -27.55,1.964 -39.008,8.78c-12.27,7.302 -20.836,19.833 -28.891,31.62" style="fill:#043c5b;fill-rule:nonzero;"/><path d="M962.459,410.918c3.786,-6.831 7.816,-14.098 14.137,-18.683c8.175,-5.931 18.848,-7.333 27.904,-11.814c3.88,-1.925 9.65,-3.131 10.75,-7.324c2.34,-8.97 -0.79,-28.187 1.01,-37.281c3.71,-18.673 10.51,-28.587 15.929,-46.831c1.781,-5.981 -7.459,-4.12 -4.579,-9.66c6.25,-12.044 17.99,-29.43 24.01,-41.592c1.75,-3.523 -2.17,-15.829 1.61,-16.918c4.34,-1.254 10.09,15.026 14.56,15.731c4.399,0.695 13.61,-12.077 12.41,-7.777c-9.32,33.267 -28.92,27.636 -39.44,60.679c-5.55,17.425 -2.71,34.043 -4.81,52.207c-1.97,17.048 -0.11,37.514 -12.79,51.64c-4.05,4.503 -37.983,40.013 -53.989,35.365c-6.073,-1.763 -6.46,-11.423 -6.712,-17.742" style="fill:#0f506c;fill-rule:nonzero;"/><path d="M910.651,445.748c-1.95,6.982 13.519,15.646 18.895,10.78c22.825,-20.657 66.765,-40.565 40.089,-66.114c-11.171,-10.698 -17.781,3.241 -24.891,11.701c-11.874,14.13 -31.56,34.563 -34.093,43.633" style="fill:#f5dc42;fill-rule:nonzero;"/><path d="M919.684,431.35l16.906,19.27l4.303,-3.334l-17.028,-21.137c-1.707,1.485 -2.965,3.763 -4.181,5.201" style="fill:#675c58;fill-rule:nonzero;"/><path d="M868.129,527.059c-2.253,2.382 -5.555,5.128 -5.146,8.381c0.412,3.306 0.853,5.049 3.005,6.513c1.565,1.065 4.336,-0.161 5.142,-0.686c3.291,-2.149 1.742,-6.106 2.128,-6.885c3.193,-6.441 3.353,-0.531 4.217,0.306c0.758,0.734 1.413,0.716 1.494,-0.334c0.049,-0.635 -0.085,-1.707 -0.262,-2.91c-0.167,-1.147 0.043,-2.353 -0.504,-3.239c-0.615,-0.999 -1.306,-1.488 -1.996,-2.183c-1.926,-1.94 -3.1,-1.959 -3.727,-1.952c-2.419,0.03 -3.152,0.889 -4.351,2.989" style="fill:#0f506c;fill-rule:nonzero;"/><path d="M962.564,515.568c-1.458,3.429 -3.877,9.111 -3.526,12.819c0.239,2.506 3.346,5.255 5.597,6.379c2.34,1.17 3.228,-0.289 3.918,-1.389c1.361,-2.17 -0.499,-6.191 -0.271,-7.155c0.585,-2.454 3.332,-4.274 3.447,-6.795c0.093,-2.069 -0.079,-5.456 -2.114,-5.842c-2.889,-0.546 -4.865,0.017 -7.051,1.983" style="fill:#0f506c;fill-rule:nonzero;"/><path d="M913.375,453.661c0,-1.192 1.054,-2.158 2.354,-2.158c1.3,0 2.354,0.966 2.354,2.158c0,1.191 -1.054,2.157 -2.354,2.157c-1.3,0 -2.354,-0.966 -2.354,-2.157" style="fill:#675c58;fill-rule:nonzero;"/><path d="M928.449,487.794c1.767,-0.629 7.531,0.019 10.178,-1.848c2.422,-1.708 3.243,-4.849 3.965,-7.488c1.064,-3.894 2.06,-9.444 -0.879,-12.933c-5.025,-5.963 -14.341,-7.953 -21.629,-9.283c-1.769,-0.322 -2.616,-0.628 -3.929,-1.745c-0.782,-0.666 -0.417,-1.727 0.56,-2.037c1.067,-0.339 1.986,1.065 3.057,1.393c5.836,1.789 6.045,0.974 11.603,3.491c3.406,1.542 8.874,4.251 11.956,6.896c1.022,0.877 1.995,3.149 2.033,4.442c0.179,6.08 -0.604,15.722 -6.285,19.679c-2.313,1.61 -8.965,3.419 -11.057,1.361c-0.421,-0.413 -0.13,-1.729 0.427,-1.928" style="fill:#675c58;fill-rule:nonzero;"/><path d="M749.411,766.968c9.402,18.571 14.263,-6.626 24.924,-14.889c8.464,-6.557 22.615,-6.178 31.455,-3.412c56.097,17.59 110.431,53.69 167.673,30.517c16.572,-6.713 14.245,-17.784 30.647,-23.454c6.81,-2.354 13.85,-1.516 20.78,-1.217c6.98,0.304 13.94,1.311 20.87,3.012c4.97,1.224 9.81,3.889 14.73,5.738c1.82,0.682 7.09,1.228 5.54,-0.708c-19.33,-24.151 -34.46,-32.781 -57.38,-24.523c-6.87,2.478 -13.604,6.212 -20.285,10.147c-4.842,2.857 -13.87,15.185 -14.902,5.648c-0.844,-7.709 14.226,-15.946 11.618,-20.012c-5.087,-7.861 -10.773,15.383 -16.648,11.909c-5.461,-3.232 8.146,-28.343 -3.04,-27.357c-7.395,0.65 -9.065,16.145 -13.044,26.317c-4.786,12.194 -7.657,-11.234 -13.457,-7.381c-4.035,2.687 -12.705,21.204 -18.336,18.322c-20.964,-10.695 -20.757,-28.133 -35.64,-51.457c-0.47,-0.744 -14.827,-29.795 -20.533,-15.332c-5.668,14.375 8.315,35.29 12.181,44.206c1.839,4.221 6.381,13.289 3.641,14.939c-2.966,1.787 -7.77,-9.815 -9.403,-11.194c-5.367,-4.568 -10.848,-10.202 -16.722,-10.675c-1.858,-0.148 -4.148,6.349 -2.947,9.089c3.754,8.663 18.055,6.489 15.371,16.524c-1.708,6.327 -5.705,3.124 -7.939,1.694c-14.883,-9.573 -14.47,-10.667 -29.803,-15.278c-24.53,-7.374 -59.927,-5.684 -79.351,28.827" style="fill:#7bbfd7;fill-rule:nonzero;"/><path d="M739.711,775.578c9.402,18.571 14.263,-6.626 24.924,-14.889c8.464,-6.557 22.615,-6.178 31.455,-3.412c56.097,17.589 110.431,53.689 167.673,30.517c16.572,-6.713 14.245,-17.784 30.648,-23.454c6.809,-2.354 13.849,-1.516 20.779,-1.217c6.98,0.304 13.94,1.311 20.871,3.012c4.969,1.224 9.809,3.889 14.729,5.738c1.82,0.682 7.09,1.227 5.54,-0.708c-19.33,-24.151 -34.46,-32.781 -57.377,-24.523c-6.869,2.478 -13.607,6.211 -20.288,10.147c-4.842,2.857 -13.87,15.185 -14.902,5.648c-0.844,-7.709 14.226,-15.946 11.618,-20.012c-5.087,-7.861 -10.773,15.383 -16.648,11.909c-5.461,-3.232 8.146,-28.343 -3.04,-27.357c-7.395,0.65 -9.065,16.145 -13.044,26.317c-4.786,12.194 -7.657,-11.234 -13.457,-7.381c-4.035,2.687 -12.705,21.204 -18.336,18.322c-20.964,-10.695 -20.757,-28.133 -35.64,-51.457c-0.47,-0.744 -14.827,-29.795 -20.533,-15.332c-5.667,14.375 8.315,35.29 12.181,44.206c1.839,4.221 6.381,13.289 3.641,14.939c-2.965,1.787 -7.77,-9.815 -9.403,-11.194c-5.367,-4.568 -10.848,-10.202 -16.722,-10.675c-1.858,-0.148 -4.148,6.349 -2.947,9.089c3.754,8.663 18.055,6.489 15.371,16.524c-1.708,6.327 -5.705,3.124 -7.939,1.694c-14.883,-9.573 -14.47,-10.667 -29.803,-15.278c-24.53,-7.374 -59.926,-5.684 -79.351,28.827" style="fill:#cbe7ee;fill-rule:nonzero;"/><path d="M739.711,775.578c9.402,18.571 14.263,-6.626 24.924,-14.889c8.464,-6.557 22.615,-6.178 31.455,-3.412c56.097,17.589 110.431,53.689 167.673,30.517c16.572,-6.713 14.245,-17.784 30.648,-23.454c6.809,-2.354 13.849,-1.516 20.779,-1.217c6.98,0.304 13.94,1.311 20.871,3.012c4.969,1.224 9.809,3.889 14.729,5.738c1.82,0.682 7.09,1.227 5.54,-0.708c-19.33,-24.151 -34.46,-32.781 -57.377,-24.523c-6.869,2.478 -13.607,6.211 -20.288,10.147c-4.842,2.857 -13.87,15.185 -14.902,5.648c-0.844,-7.709 14.226,-15.946 11.618,-20.012c-5.087,-7.861 -10.773,15.383 -16.648,11.909c-5.461,-3.232 8.146,-28.343 -3.04,-27.357c-7.395,0.65 -9.065,16.145 -13.044,26.317c-4.786,12.194 -7.657,-11.234 -13.457,-7.381c-4.035,2.687 -12.705,21.204 -18.336,18.322c-20.964,-10.695 -20.757,-28.133 -35.64,-51.457c-0.47,-0.744 -14.827,-29.795 -20.533,-15.332c-5.667,14.375 8.315,35.29 12.181,44.206c1.839,4.221 6.381,13.289 3.641,14.939c-2.965,1.787 -7.77,-9.815 -9.403,-11.194c-5.367,-4.568 -10.848,-10.202 -16.722,-10.675c-1.858,-0.148 -4.148,6.349 -2.947,9.089c3.754,8.663 18.055,6.489 15.371,16.524c-1.708,6.327 -5.705,3.124 -7.939,1.694c-14.883,-9.573 -14.47,-10.667 -29.803,-15.278c-24.53,-7.374 -59.926,-5.684 -79.351,28.827" style="fill:#9de2fa;fill-rule:nonzero;"/><path d="M745.161,778.878c9.402,18.571 14.263,-6.626 24.924,-14.889c8.464,-6.557 22.615,-6.178 31.455,-3.412c56.097,17.589 110.431,53.689 167.673,30.517c16.572,-6.713 14.245,-17.785 30.648,-23.454c6.809,-2.354 13.849,-1.517 20.779,-1.217c6.98,0.303 13.94,1.311 20.87,3.012c4.97,1.224 9.81,3.889 14.73,5.738c1.82,0.683 7.09,1.228 5.54,-0.708c-19.33,-24.151 -34.46,-32.781 -57.38,-24.523c-6.866,2.478 -13.604,6.211 -20.285,10.147c-4.842,2.857 -13.87,15.185 -14.902,5.648c-0.844,-7.71 14.226,-15.946 11.618,-20.012c-5.087,-7.862 -10.773,15.383 -16.648,11.909c-5.461,-3.232 8.146,-28.343 -3.04,-27.357c-7.395,0.65 -9.065,16.145 -13.044,26.317c-4.786,12.194 -7.657,-11.234 -13.457,-7.381c-4.035,2.686 -12.705,21.204 -18.336,18.322c-20.964,-10.695 -20.757,-28.133 -35.64,-51.457c-0.47,-0.744 -14.827,-29.795 -20.533,-15.333c-5.668,14.376 8.315,35.291 12.181,44.207c1.839,4.221 6.381,13.289 3.641,14.939c-2.966,1.787 -7.77,-9.815 -9.403,-11.194c-5.367,-4.568 -10.848,-10.202 -16.722,-10.675c-1.858,-0.148 -4.148,6.349 -2.947,9.089c3.754,8.663 18.055,6.489 15.371,16.524c-1.708,6.327 -5.705,3.124 -7.939,1.694c-14.883,-9.573 -14.47,-10.667 -29.803,-15.278c-24.53,-7.374 -59.927,-5.684 -79.351,28.827" style="fill:#cbe7ee;fill-rule:nonzero;"/><path d="M793.104,727.416c-14.494,-8.541 -29.522,-17.406 -43.109,-18.005c-4.432,-0.203 -9.55,8.418 -6.318,15.813c3.498,7.988 10.303,4.291 15.008,4.048c6.544,-0.337 11.774,-5.412 18.314,-5.763c5.069,-0.274 10.652,1.838 16.105,3.907" style="fill:#7bbfd7;fill-rule:nonzero;"/><path d="M1053.23,790.16c10.14,-1.001 20.649,-2.045 27.439,0.992c2.22,0.986 1.54,6.877 -2.73,10.047c-4.61,3.422 -6.55,-0.244 -8.739,-1.537c-3.04,-1.798 -3.71,-5.814 -6.75,-7.619c-2.351,-1.401 -5.822,-1.647 -9.22,-1.883" style="fill:#9de2fa;fill-rule:nonzero;"/><path d="M828.229,696.446c-1.612,-18.824 -3.278,-38.346 -10.209,-52.684c-2.256,-4.679 -11.34,-6.126 -14.997,0.524c-3.948,7.192 2.449,12.586 5.179,17.349c3.796,6.626 10.347,9.774 14.151,16.389c2.95,5.126 4.433,11.852 5.876,18.422" style="fill:#7bbfd7;fill-rule:nonzero;"/><path d="M796.687,672.13c-7.443,-11.577 -15.159,-23.588 -23.824,-29.467c-2.824,-1.922 -8.102,1.806 -7.692,8.075c0.448,6.775 5.697,7.034 8.8,8.767c4.315,2.412 8.858,1.11 13.174,3.511c3.346,1.858 6.482,5.527 9.542,9.114" style="fill:#9de2fa;fill-rule:nonzero;"/><path d="M1005.12,726.75c8.17,-17.036 16.63,-34.707 28.19,-45.665c3.76,-3.579 12.77,-1.719 13.84,5.795c1.15,8.123 -6.75,10.906 -10.98,14.396c-5.901,4.854 -13.14,5.481 -19.04,10.322c-4.57,3.752 -8.34,9.517 -12.01,15.152" style="fill:#7bbfd7;fill-rule:nonzero;"/><path d="M1023.38,726.824c14.76,-11.801 30.05,-24.044 45.22,-28.899c4.95,-1.589 12.25,3.997 9.95,11.23c-2.489,7.816 -10.81,6.897 -16.14,8.2c-7.42,1.814 -14.21,-0.765 -21.63,1.036c-5.75,1.394 -11.64,4.952 -17.4,8.433" style="fill:#9de2fa;fill-rule:nonzero;"/><path d="M836.931,738.401c-15.457,-14.123 -30.957,-28.282 -47.103,-40.076c-26.242,-19.181 -41.85,-30.412 -66.995,9.082c-4.757,7.49 13.154,-3.026 19.591,-1.079c14.058,4.257 27.599,12.519 41.269,19.506c14.359,7.334 19.117,8.432 33.971,11.939c4.068,0.96 16.512,5.723 19.267,0.628" style="fill:#cbe7ee;fill-rule:nonzero;"/><path d="M776.392,784.321c-15.67,6.119 -31.926,12.458 -40.793,22.771c-2.897,3.36 0.72,12.71 8.531,14.738c8.443,2.185 9.74,-5.449 12.456,-9.299c3.778,-5.355 3.019,-12.603 6.783,-17.961c2.917,-4.155 8.027,-7.24 13.023,-10.249" style="fill:#cbe7ee;fill-rule:nonzero;"/><path d="M899.259,699.933c2.238,-11.931 4.564,-24.305 2.58,-32.692c-0.643,-2.738 -6.266,-2.556 -9.791,2.178c-3.806,5.118 -0.609,7.809 0.326,10.543c1.3,3.803 4.988,5.027 6.295,8.822c1.015,2.941 0.802,7.092 0.59,11.149" style="fill:#cbe7ee;fill-rule:nonzero;"/><path d="M979.513,698.997c4.86,-11.043 9.896,-22.497 16.937,-29.444c2.294,-2.269 7.91,-0.818 8.67,4.169c0.81,5.39 -4.05,7.031 -6.641,9.23c-3.601,3.058 -8.09,3.292 -11.694,6.341c-2.793,2.363 -5.06,6.075 -7.272,9.704" style="fill:#cbe7ee;fill-rule:nonzero;"/><path d="M835.053,792.049c17.432,8.266 34.314,15.018 53.204,19.312c6.367,1.447 12.774,2.751 19.224,3.774c6.07,0.963 24.451,1.942 18.309,2.178c-9.438,0.364 -18.868,-0.978 -28.277,-1.795c-8.716,-0.756 -24.229,-2.361 -33.013,-5.885c-6.538,-2.623 -23.302,-10.695 -30.571,-15.522c-2.515,-1.669 -1.135,-3.132 1.124,-2.062" style="fill:#7bbfd7;fill-rule:nonzero;"/><path d="M805.833,767.063c1.59,10.388 3.833,19.47 8.176,27.085c1.463,2.567 3.021,5.031 4.753,7.286c1.63,2.121 7.654,7.033 5.325,5.831c-3.58,-1.845 -6.199,-5.02 -9.105,-7.781c-2.692,-2.556 -7.339,-7.309 -8.5,-12.044c-0.864,-3.523 -2.323,-13.611 -2.21,-19.02c0.039,-1.872 1.355,-2.703 1.561,-1.357" style="fill:#7bbfd7;fill-rule:nonzero;"/><path d="M793.58,784.018c4.021,8.9 8.308,16.489 14.128,22.3c1.962,1.958 3.983,3.803 6.11,5.423c2.001,1.522 8.668,4.545 6.263,3.999c-3.695,-0.839 -6.852,-3.08 -10.165,-4.886c-3.07,-1.673 -8.452,-4.863 -10.679,-8.821c-1.658,-2.947 -5.486,-11.609 -6.73,-16.454c-0.43,-1.677 0.552,-2.714 1.073,-1.561" style="fill:#7bbfd7;fill-rule:nonzero;"/><path d="M817.965,789.943c22.652,20.254 35.202,24.973 49.692,27.447c6.454,1.103 13.205,6.956 19.563,8.739c5.982,1.676 24.274,3.797 18.111,3.95c-9.47,0.235 -18.778,-2.135 -28.113,-3.702c-8.647,-1.452 -25.913,-3.417 -34.378,-9.101c-6.302,-4.23 -20.438,-18.149 -27.271,-25.772c-2.364,-2.637 0.299,-3.437 2.396,-1.561" style="fill:#7bbfd7;fill-rule:nonzero;"/><path d="M905.403,848.882c31.411,0.868 44.693,-3.71 58.145,-11.308c5.99,-3.383 15.236,-3.268 21.58,-6.06c5.969,-2.627 22.312,-12.999 17.352,-8.831c-7.613,6.407 -16.749,10.681 -25.398,15.597c-8.011,4.554 -23.416,14.373 -33.96,15.515c-7.848,0.852 -28.261,-0.684 -38.694,-2.124c-3.61,-0.497 -1.933,-2.87 0.975,-2.789" style="fill:#7bbfd7;fill-rule:nonzero;"/><path d="M776.297,772.697c7.562,24.619 14.446,32.34 23.627,38.55c4.09,2.764 6.42,9.935 10.159,13.295c3.52,3.16 15.526,10.085 11.122,8.541c-6.769,-2.372 -12.344,-7.073 -18.27,-11.047c-5.489,-3.683 -16.837,-10.187 -20.445,-17.671c-2.685,-5.57 -6.874,-22.099 -8.528,-30.902c-0.573,-3.045 1.634,-3.046 2.335,-0.766" style="fill:#7bbfd7;fill-rule:nonzero;"/><path d="M978.559,799.494c-10.324,6.824 -20.332,12.384 -31.557,15.872c-3.783,1.176 -7.591,2.232 -11.428,3.052c-3.61,0.772 -14.558,1.487 -10.896,1.72c5.629,0.359 11.239,-0.711 16.84,-1.341c5.189,-0.583 14.423,-1.838 19.63,-4.74c3.876,-2.161 13.804,-8.827 18.097,-12.829c1.486,-1.385 0.652,-2.618 -0.686,-1.734" style="fill:#7bbfd7;fill-rule:nonzero;"/><path d="M983.39,770.251c1.916,7.282 3.034,13.586 2.359,18.684c-0.227,1.719 -0.546,3.357 -1.038,4.833c-0.463,1.388 -3.008,4.433 -1.825,3.754c1.818,-1.045 2.629,-3.11 3.745,-4.858c1.035,-1.618 2.723,-4.654 2.135,-7.94c-0.437,-2.446 -2.354,-9.525 -3.969,-13.389c-0.558,-1.337 -1.656,-2.028 -1.407,-1.084" style="fill:#7bbfd7;fill-rule:nonzero;"/><path d="M930.631,836.148c-12.754,1.753 -24.68,2.492 -36.91,0.819c-4.123,-0.563 -8.219,-1.247 -12.244,-2.158c-3.788,-0.856 -14.597,-4.936 -11.178,-3.141c5.255,2.758 11.087,4.208 16.728,6.054c5.225,1.71 14.613,4.558 20.822,4.164c4.621,-0.292 16.93,-2.074 22.72,-3.863c2.003,-0.619 1.715,-2.104 0.062,-1.875" style="fill:#7bbfd7;fill-rule:nonzero;"/><path d="M979.726,810.779c-6.155,6.117 -12.134,11.09 -18.869,14.171c-2.27,1.039 -4.556,1.969 -6.862,2.683c-2.17,0.673 -8.767,1.238 -6.555,1.478c3.4,0.37 6.773,-0.559 10.146,-1.087c3.124,-0.49 8.681,-1.559 11.792,-4.154c2.315,-1.933 8.233,-7.91 10.781,-11.512c0.882,-1.246 0.365,-2.372 -0.433,-1.579" style="fill:#7bbfd7;fill-rule:nonzero;"/><path d="M1000.42,785.436c-1.091,8.576 -2.75,16.015 -6.17,22.076c-1.153,2.043 -2.386,3.994 -3.766,5.757c-1.299,1.659 -6.161,5.342 -4.266,4.501c2.912,-1.289 5.004,-3.76 7.341,-5.863c2.166,-1.949 5.896,-5.596 6.751,-9.473c0.64,-2.886 1.63,-11.22 1.43,-15.753c-0.08,-1.567 -1.18,-2.355 -1.32,-1.245" style="fill:#7bbfd7;fill-rule:nonzero;"/><path d="M1009.75,777.623c2.55,7.719 4.17,14.388 3.78,19.744c-0.13,1.806 -0.37,3.524 -0.8,5.067c-0.41,1.453 -2.95,4.6 -1.72,3.912c1.89,-1.057 2.63,-3.214 3.72,-5.028c1.01,-1.681 2.63,-4.84 1.78,-8.317c-0.64,-2.587 -3.18,-10.092 -5.17,-14.202c-0.69,-1.422 -1.93,-2.177 -1.59,-1.176" style="fill:#7bbfd7;fill-rule:nonzero;"/><path d="M943.396,821.109c-12.169,2.394 -23.559,3.739 -35.276,2.71c-3.949,-0.347 -7.875,-0.814 -11.737,-1.51c-3.633,-0.654 -14.026,-4.142 -10.731,-2.54c5.063,2.466 10.659,3.603 16.079,5.143c5.02,1.426 14.036,3.765 19.966,3.056c4.414,-0.526 16.157,-2.926 21.666,-4.998c1.907,-0.716 1.61,-2.173 0.033,-1.861" style="fill:#7bbfd7;fill-rule:nonzero;"/><path d="M1022.64,806.679c-3.03,5.097 -6.14,9.813 -10.07,14.523c-1.33,1.588 -2.69,3.16 -4.09,4.69c-1.32,1.441 -5.59,5.468 -4.09,4.221c2.32,-1.917 4.39,-4.128 6.53,-6.245c1.99,-1.96 5.48,-5.493 7.1,-7.949c1.2,-1.829 4.1,-6.752 5.18,-9.117c0.37,-0.817 -0.16,-0.784 -0.56,-0.123" style="fill:#7bbfd7;fill-rule:nonzero;"/><path d="M889.443,843.821c-13.052,-0.291 -25.082,-1.439 -36.953,-4.982c-4.002,-1.195 -7.954,-2.501 -11.792,-4.018c-3.611,-1.428 -13.604,-7.089 -10.539,-4.808c4.708,3.508 10.244,5.831 15.512,8.512c4.881,2.482 13.693,6.722 19.958,7.312c4.663,0.439 17.277,0.632 23.392,-0.202c2.116,-0.289 2.114,-1.776 0.422,-1.814" style="fill:#7bbfd7;fill-rule:nonzero;"/><path d="M982.236,800.885c-20.243,6.332 -39.725,11.219 -61.209,13.439c-7.241,0.749 -14.513,1.351 -21.806,1.668c-6.863,0.299 -27.459,-0.724 -20.632,0.179c10.491,1.387 21.139,1.076 31.712,1.286c9.793,0.195 27.25,0.283 37.388,-2.271c7.547,-1.9 27.027,-8.113 35.601,-12.127c2.967,-1.389 1.569,-2.994 -1.054,-2.174" style="fill:#9de2fa;fill-rule:nonzero;"/><path d="M1017.25,779.192c-2.78,10.166 -6.16,18.962 -11.75,26.068c-1.88,2.397 -3.85,4.68 -6.005,6.735c-2.023,1.934 -9.218,6.168 -6.504,5.225c4.172,-1.447 7.399,-4.322 10.909,-6.755c3.25,-2.252 8.89,-6.477 10.65,-11.063c1.3,-3.413 3.91,-13.294 4.31,-18.691c0.13,-1.868 -1.25,-2.837 -1.61,-1.519" style="fill:#9de2fa;fill-rule:nonzero;"/><path d="M1029.27,797.398c-5.35,8.421 -10.87,15.509 -17.919,20.657c-2.381,1.738 -4.81,3.354 -7.341,4.735c-2.38,1.298 -10.108,3.582 -7.372,3.299c4.202,-0.433 7.943,-2.321 11.813,-3.757c3.58,-1.331 9.9,-3.922 12.759,-7.62c2.141,-2.751 7.25,-10.957 9.101,-15.645c0.649,-1.622 -0.351,-2.762 -1.042,-1.669" style="fill:#9de2fa;fill-rule:nonzero;"/><path d="M1001.5,800.645c-27.229,17.698 -41.683,21.03 -58.083,21.921c-7.305,0.394 -15.402,5.486 -22.666,6.57c-6.835,1.019 -27.441,1.142 -20.582,1.962c10.539,1.264 21.15,-0.083 31.713,-0.63c9.784,-0.504 29.231,-0.585 39.224,-5.322c7.438,-3.524 24.553,-15.842 32.914,-22.687c2.89,-2.367 0,-3.453 -2.52,-1.814" style="fill:#9de2fa;fill-rule:nonzero;"/><path d="M898.265,849.806c-35.116,-2.55 -49.484,-8.549 -63.75,-17.571c-6.353,-4.021 -16.676,-4.909 -23.48,-8.377c-6.403,-3.264 -23.626,-15.364 -18.501,-10.676c7.874,7.205 17.649,12.451 26.818,18.284c8.492,5.403 24.721,16.85 36.37,19.132c8.67,1.7 31.585,2.389 43.361,2.09c4.074,-0.103 2.434,-2.646 -0.818,-2.882" style="fill:#9de2fa;fill-rule:nonzero;"/><path d="M1049.64,788.008c-10.819,23.683 -19.25,30.618 -30.09,35.801c-4.83,2.308 -8.119,9.192 -12.619,12.129c-4.23,2.763 -18.29,8.351 -13.229,7.293c7.778,-1.627 14.448,-5.698 21.448,-9.011c6.48,-3.067 19.761,-8.309 24.511,-15.366c3.54,-5.252 9.809,-21.246 12.509,-29.828c0.941,-2.97 -1.53,-3.21 -2.53,-1.018" style="fill:#9de2fa;fill-rule:nonzero;"/><path d="M821.466,792.702c10.852,7.913 21.475,14.534 33.655,19.226c4.106,1.582 8.25,3.045 12.45,4.279c3.951,1.161 16.092,3.061 11.985,2.896c-6.312,-0.255 -12.465,-1.929 -18.652,-3.166c-5.73,-1.143 -15.906,-3.395 -21.433,-6.849c-4.113,-2.572 -14.539,-10.286 -18.939,-14.735c-1.523,-1.541 -0.473,-2.677 0.934,-1.651" style="fill:#9de2fa;fill-rule:nonzero;"/><path d="M818.914,763.071c-2.844,7.041 -4.702,13.192 -4.444,18.34c0.087,1.736 0.283,3.402 0.689,4.923c0.382,1.432 2.925,4.739 1.672,3.934c-1.927,-1.237 -2.63,-3.38 -3.706,-5.24c-0.997,-1.724 -2.586,-4.929 -1.611,-8.136c0.725,-2.387 3.549,-9.224 5.724,-12.894c0.753,-1.27 2.044,-1.839 1.676,-0.927" style="fill:#9de2fa;fill-rule:nonzero;"/><path d="M871.364,834.391c14.055,3.131 27.283,5.162 41.086,4.826c4.652,-0.113 9.287,-0.347 13.864,-0.816c4.308,-0.443 16.759,-3.327 12.771,-1.913c-6.127,2.174 -12.772,2.983 -19.243,4.209c-5.993,1.134 -16.739,2.947 -23.625,1.882c-5.126,-0.793 -18.682,-3.905 -24.965,-6.315c-2.174,-0.834 -1.709,-2.278 0.112,-1.873" style="fill:#9de2fa;fill-rule:nonzero;"/><path d="M819.069,803.807c6.272,6.758 12.458,12.356 19.67,16.154c2.431,1.282 4.891,2.455 7.393,3.417c2.355,0.907 9.658,2.185 7.168,2.183c-3.827,-0.002 -7.499,-1.292 -11.21,-2.185c-3.437,-0.827 -9.531,-2.494 -12.748,-5.416c-2.396,-2.174 -8.416,-8.766 -10.909,-12.628c-0.862,-1.336 -0.176,-2.401 0.636,-1.525" style="fill:#9de2fa;fill-rule:nonzero;"/><path d="M798.446,776.335c0.387,8.654 1.516,16.237 4.742,22.642c1.088,2.159 2.273,4.235 3.642,6.139c1.288,1.793 6.353,5.986 4.321,4.944c-3.122,-1.601 -5.215,-4.287 -7.618,-6.634c-2.227,-2.175 -6.033,-6.209 -6.614,-10.162c-0.432,-2.942 -0.73,-11.344 -0.06,-15.833c0.231,-1.553 1.537,-2.218 1.587,-1.096" style="fill:#9de2fa;fill-rule:nonzero;"/><path d="M788.804,767.545c-3.593,7.406 -6.051,13.866 -6.136,19.24c-0.028,1.811 0.067,3.547 0.4,5.13c0.314,1.49 2.845,4.9 1.539,4.08c-2.008,-1.257 -2.621,-3.484 -3.659,-5.408c-0.962,-1.783 -2.463,-5.103 -1.175,-8.471c0.958,-2.506 4.517,-9.7 7.143,-13.573c0.909,-1.341 2.354,-1.958 1.888,-0.998" style="fill:#9de2fa;fill-rule:nonzero;"/><path d="M858.586,818.035c13.339,3.705 25.912,6.283 39.08,6.531c4.438,0.084 8.862,0.046 13.236,-0.227c4.116,-0.257 16.045,-2.599 12.215,-1.363c-5.886,1.904 -12.238,2.428 -18.432,3.372c-5.736,0.875 -16.019,2.223 -22.564,0.873c-4.872,-1.004 -17.736,-4.669 -23.679,-7.33c-2.057,-0.919 -1.585,-2.336 0.144,-1.856" style="fill:#9de2fa;fill-rule:nonzero;"/><path d="M771.601,795.063c2.89,5.401 5.903,10.435 9.833,15.551c1.325,1.723 2.683,3.433 4.101,5.11c1.334,1.578 5.706,6.05 4.149,4.645c-2.393,-2.159 -4.492,-4.585 -6.676,-6.924c-2.023,-2.166 -5.579,-6.063 -7.145,-8.684c-1.165,-1.95 -3.923,-7.165 -4.892,-9.636c-0.335,-0.856 0.256,-0.761 0.63,-0.063" style="fill:#9de2fa;fill-rule:nonzero;"/><path d="M916.556,846.503c14.585,1.128 28.113,1.293 41.697,-0.944c4.578,-0.753 9.112,-1.624 13.54,-2.717c4.166,-1.027 15.86,-5.577 12.221,-3.639c-5.592,2.978 -11.991,4.69 -18.127,6.785c-5.683,1.94 -15.923,5.202 -22.967,5.109c-5.243,-0.069 -19.33,-1.247 -26.069,-2.741c-2.332,-0.518 -2.185,-1.999 -0.295,-1.853" style="fill:#9de2fa;fill-rule:nonzero;"/><path d="M847.49,781.165c17.29,8.265 34.034,15.017 52.77,19.311c6.315,1.448 12.669,2.752 19.067,3.775c6.021,0.963 24.252,1.942 18.161,2.178c-9.361,0.364 -18.715,-0.978 -28.047,-1.795c-8.645,-0.756 -24.031,-2.361 -32.744,-5.885c-6.485,-2.623 -23.113,-10.696 -30.322,-15.523c-2.495,-1.669 -1.126,-3.132 1.115,-2.061" style="fill:#cbe7ee;fill-rule:nonzero;"/><path d="M818.508,756.179c1.576,10.388 3.801,19.47 8.108,27.084c1.452,2.568 2.998,5.032 4.716,7.287c1.616,2.121 7.591,7.033 5.281,5.831c-3.551,-1.845 -6.149,-5.02 -9.031,-7.782c-2.67,-2.555 -7.279,-7.308 -8.43,-12.044c-0.858,-3.522 -2.305,-13.61 -2.192,-19.019c0.038,-1.872 1.343,-2.703 1.548,-1.357" style="fill:#cbe7ee;fill-rule:nonzero;"/><path d="M806.355,773.134c3.988,8.9 8.24,16.489 14.013,22.299c1.945,1.958 3.95,3.804 6.059,5.424c1.985,1.522 8.597,4.545 6.213,3.999c-3.665,-0.84 -6.796,-3.08 -10.083,-4.887c-3.045,-1.672 -8.383,-4.862 -10.592,-8.82c-1.644,-2.947 -5.441,-11.609 -6.675,-16.454c-0.427,-1.678 0.548,-2.714 1.065,-1.561" style="fill:#cbe7ee;fill-rule:nonzero;"/><path d="M830.541,779.059c22.468,20.254 34.915,24.974 49.287,27.448c6.401,1.103 13.097,6.956 19.403,8.739c5.934,1.676 24.077,3.797 17.964,3.95c-9.393,0.234 -18.625,-2.136 -27.884,-3.702c-8.576,-1.452 -25.702,-3.417 -34.098,-9.102c-6.25,-4.229 -20.271,-18.148 -27.048,-25.771c-2.345,-2.637 0.296,-3.438 2.376,-1.562" style="fill:#cbe7ee;fill-rule:nonzero;"/><path d="M917.267,837.998c31.155,0.868 44.328,-3.71 57.67,-11.308c5.942,-3.384 15.113,-3.268 21.405,-6.06c5.918,-2.627 22.128,-12.999 17.218,-8.831c-7.56,6.407 -16.62,10.681 -25.198,15.597c-7.946,4.554 -23.226,14.373 -33.684,15.515c-7.784,0.851 -28.03,-0.685 -38.379,-2.124c-3.58,-0.497 -1.917,-2.87 0.968,-2.789" style="fill:#cbe7ee;fill-rule:nonzero;"/><path d="M789.212,761.813c7.5,24.619 14.329,32.34 23.435,38.55c4.056,2.765 6.367,9.936 10.076,13.295c3.491,3.16 15.399,10.085 11.031,8.541c-6.713,-2.372 -12.243,-7.072 -18.121,-11.047c-5.444,-3.682 -16.7,-10.186 -20.278,-17.671c-2.664,-5.57 -6.819,-22.098 -8.459,-30.902c-0.568,-3.045 1.621,-3.046 2.316,-0.766" style="fill:#cbe7ee;fill-rule:nonzero;"/><path d="M989.826,788.61c-10.239,6.823 -20.166,12.384 -31.299,15.872c-3.753,1.176 -7.53,2.232 -11.335,3.052c-3.581,0.771 -14.44,1.487 -10.807,1.72c5.582,0.359 11.147,-0.711 16.703,-1.341c5.146,-0.583 14.304,-1.838 19.469,-4.74c3.845,-2.161 13.692,-8.828 17.95,-12.83c1.474,-1.384 0.646,-2.618 -0.681,-1.733" style="fill:#cbe7ee;fill-rule:nonzero;"/><path d="M994.618,759.367c1.901,7.282 3.01,13.586 2.34,18.684c-0.225,1.718 -0.541,3.357 -1.029,4.833c-0.459,1.387 -2.984,4.433 -1.81,3.753c1.803,-1.044 2.607,-3.109 3.714,-4.857c1.026,-1.618 2.697,-4.654 2.118,-7.94c-0.434,-2.447 -2.336,-9.525 -3.937,-13.389c-0.554,-1.337 -1.643,-2.028 -1.396,-1.084" style="fill:#cbe7ee;fill-rule:nonzero;"/><path d="M942.289,825.264c-12.651,1.753 -24.479,2.493 -36.61,0.82c-4.088,-0.564 -8.151,-1.247 -12.144,-2.158c-3.757,-0.856 -14.478,-4.936 -11.086,-3.141c5.211,2.758 10.996,4.208 16.591,6.054c5.182,1.71 14.494,4.558 20.652,4.164c4.584,-0.292 16.793,-2.075 22.535,-3.864c1.987,-0.619 1.702,-2.103 0.062,-1.875" style="fill:#cbe7ee;fill-rule:nonzero;"/><path d="M990.984,799.895c-6.105,6.116 -12.035,11.091 -18.715,14.172c-2.251,1.038 -4.519,1.968 -6.806,2.683c-2.152,0.673 -8.696,1.237 -6.502,1.476c3.372,0.37 6.718,-0.558 10.063,-1.087c3.099,-0.489 8.611,-1.558 11.696,-4.153c2.297,-1.933 8.167,-7.909 10.694,-11.513c0.874,-1.245 0.362,-2.371 -0.43,-1.578" style="fill:#cbe7ee;fill-rule:nonzero;"/><path d="M1011.51,774.552c-1.08,8.576 -2.729,16.015 -6.12,22.076c-1.14,2.044 -2.37,3.994 -3.74,5.757c-1.28,1.659 -6.106,5.341 -4.227,4.501c2.887,-1.29 4.967,-3.76 7.277,-5.864c2.15,-1.948 5.85,-5.595 6.7,-9.472c0.64,-2.886 1.62,-11.22 1.41,-15.753c-0.07,-1.568 -1.16,-2.355 -1.3,-1.245" style="fill:#cbe7ee;fill-rule:nonzero;"/><path d="M1020.76,766.739c2.53,7.719 4.141,14.387 3.75,19.744c-0.13,1.806 -0.359,3.524 -0.79,5.067c-0.4,1.453 -2.93,4.6 -1.7,3.912c1.87,-1.057 2.6,-3.214 3.68,-5.029c1,-1.68 2.611,-4.84 1.76,-8.316c-0.62,-2.587 -3.139,-10.092 -5.12,-14.202c-0.69,-1.422 -1.91,-2.177 -1.58,-1.176" style="fill:#cbe7ee;fill-rule:nonzero;"/><path d="M954.95,810.225c-12.069,2.395 -23.367,3.74 -34.989,2.71c-3.917,-0.346 -7.811,-0.813 -11.641,-1.509c-3.604,-0.654 -13.912,-4.142 -10.644,-2.54c5.022,2.465 10.573,3.603 15.948,5.143c4.979,1.426 13.922,3.765 19.804,3.056c4.378,-0.527 16.025,-2.926 21.49,-4.998c1.89,-0.716 1.597,-2.173 0.032,-1.862" style="fill:#cbe7ee;fill-rule:nonzero;"/><path d="M1033.55,795.795c-3.01,5.096 -6.09,9.813 -9.99,14.523c-1.32,1.588 -2.66,3.159 -4.06,4.69c-1.31,1.441 -5.54,5.467 -4.05,4.221c2.29,-1.918 4.35,-4.129 6.48,-6.245c1.96,-1.96 5.431,-5.493 7.04,-7.949c1.19,-1.829 4.07,-6.752 5.13,-9.117c0.37,-0.818 -0.16,-0.784 -0.55,-0.123" style="fill:#cbe7ee;fill-rule:nonzero;"/><path d="M901.437,832.938c-12.946,-0.291 -24.878,-1.439 -36.653,-4.982c-3.969,-1.195 -7.888,-2.501 -11.695,-4.018c-3.582,-1.428 -13.494,-7.09 -10.454,-4.808c4.67,3.507 10.161,5.831 15.386,8.511c4.841,2.483 13.582,6.723 19.796,7.313c4.625,0.438 17.135,0.632 23.201,-0.202c2.099,-0.289 2.097,-1.777 0.419,-1.814" style="fill:#cbe7ee;fill-rule:nonzero;"/><path d="M1001.47,795.585c11.26,-0.095 22.55,-0.188 33.46,0.853c17.74,1.687 28.24,2.76 28.69,26.699c0.08,4.536 -5.27,-5.722 -8.839,-7.199c-7.781,-3.226 -16.47,-4.728 -24.851,-6.766c-8.8,-2.143 -11.34,-3.367 -19.28,-7.158c-2.17,-1.038 -9.35,-3.509 -9.18,-6.429" style="fill:#cbe7ee;fill-rule:nonzero;"/><path d="M1208.94,204.942c0.681,-0 1.23,0.549 1.23,1.228l-0,47.871c-0,0.676 -0.549,1.228 -1.23,1.228l-2.449,-0c-0.68,-0 -1.231,-0.552 -1.231,-1.228l-0,-47.871c-0,-0.679 0.551,-1.228 1.231,-1.228l2.449,-0Z" style="fill:#478ba2;fill-rule:nonzero;"/><rect x="1184.82" y="252.413" width="22.33" height="18.41" style="fill:#478ba2;"/><rect x="1162.2" y="252.344" width="42.8" height="5.276" style="fill:#cbe7ee;"/><path d="M1217.54,193.933c0,-0.678 0.54,-1.228 1.22,-1.228l196.67,0c0.68,0 1.23,0.55 1.23,1.228l-0,2.455c-0,0.678 -0.55,1.228 -1.23,1.228l-196.67,0c-0.68,0 -1.22,-0.55 -1.22,-1.228l0,-2.455Z" style="fill:#478ba2;fill-rule:nonzero;"/><path d="M1241.14,193.933c-0,-0.678 0.54,-1.228 1.23,-1.228l196.661,0c0.679,0 1.229,0.55 1.229,1.228l-0,2.455c-0,0.678 -0.55,1.228 -1.229,1.228l-196.661,0c-0.69,0 -1.23,-0.55 -1.23,-1.228l-0,-2.455Z" style="fill:#cbe7ee;fill-rule:nonzero;"/><path d="M1207.51,221.935c-0,-0.678 0.551,-1.228 1.24,-1.228l233.76,0c0.69,0 1.24,0.55 1.24,1.228l-0,2.455c-0,0.678 -0.55,1.228 -1.24,1.228l-233.76,0c-0.689,0 -1.24,-0.55 -1.24,-1.228l-0,-2.455Z" style="fill:#478ba2;fill-rule:nonzero;"/><path d="M1214.31,223.847c-0,-0.678 0.55,-1.228 1.239,-1.228l227.481,0c0.678,0 1.239,0.55 1.239,1.228l-0,2.455c-0,0.678 -0.561,1.228 -1.239,1.228l-227.481,0c-0.689,0 -1.239,-0.55 -1.239,-1.228l-0,-2.455Z" style="fill:#cbe7ee;fill-rule:nonzero;"/><path d="M1232.54,204.942c0.68,-0 1.229,0.549 1.229,1.228l0,47.871c0,0.676 -0.549,1.228 -1.229,1.228l-2.45,-0c-0.68,-0 -1.23,-0.552 -1.23,-1.228l0,-47.871c0,-0.679 0.55,-1.228 1.23,-1.228l2.45,-0Z" style="fill:#cbe7ee;fill-rule:nonzero;"/><path d="M1234.59,197.364c-4.35,4.046 -6.67,8.626 -5.18,10.229c1.491,1.603 6.22,-0.378 10.58,-4.425c4.35,-4.046 6.68,-8.626 5.19,-10.229c-1.49,-1.603 -6.23,0.378 -10.59,4.425" style="fill:#cbe7ee;fill-rule:nonzero;"/><path d="M1210.29,197.236c-4.12,3.827 -6.25,8.228 -4.76,9.831c1.489,1.603 6.04,-0.2 10.15,-4.026c4.12,-3.826 6.25,-8.228 4.759,-9.831c-1.489,-1.603 -6.029,0.2 -10.149,4.026" style="fill:#478ba2;fill-rule:nonzero;"/><path d="M1281.36,266.009c14.47,-16.606 61.359,2.102 106.319,39.691c38.92,32.545 55.04,68.229 53.901,99.861c-14.361,-21.261 -40.29,-50.97 -72.25,-78.804c-31.95,-27.835 -64.941,-49.447 -87.97,-60.748" style="fill:#cbe7ee;fill-rule:nonzero;"/><clipPath id="_clip4"><path d="M1318.96,278.723l120.76,114.515l64.74,-68.276l-120.751,-114.514l-64.749,68.275Z" clip-rule="nonzero"/></clipPath><g clip-path="url(#_clip4)"><path d="M1443.54,267.188l-114.11,0.499l112.91,140.962l1.2,-141.461Z" style="fill:#cbe7ee;fill-rule:nonzero;"/></g><clipPath id="_clip5"><path d="M1289.05,272.704l152.53,132.857l10.481,-12.035l-152.531,-132.857l-10.48,12.035Z" clip-rule="nonzero"/></clipPath><g clip-path="url(#_clip5)"><path d="M1281.36,266.009c14.47,-16.606 61.359,2.102 106.319,39.691c38.92,32.545 55.04,68.229 53.901,99.861c-14.361,-21.261 -40.29,-50.97 -72.25,-78.804c-31.95,-27.835 -64.941,-49.447 -87.97,-60.748" style="fill:#478ba2;fill-rule:nonzero;"/></g><rect x="1206.85" y="252.402" width="237.271" height="18.704" style="fill:#cbe7ee;"/><path d="M1443.82,1.239c0,-1.083 -0.881,-1.961 -1.96,-1.961l-3.921,-0c-1.079,-0 -1.959,0.878 -1.959,1.961l0,405.987c0,1.083 0.88,1.961 1.959,1.961l3.921,-0c1.079,-0 1.96,-0.878 1.96,-1.961l0,-405.987Z" style="fill:#478ba2;fill-rule:nonzero;"/></g></svg>