<?xml version="1.0" encoding="UTF-8" standalone="no"?><!DOCTYPE svg PUBLIC "-//W3C//DTD SVG 1.1//EN" "http://www.w3.org/Graphics/SVG/1.1/DTD/svg11.dtd"><svg width="100%" height="100%" viewBox="0 0 1024 768" version="1.1" xmlns="http://www.w3.org/2000/svg" xmlns:xlink="http://www.w3.org/1999/xlink" xml:space="preserve" xmlns:serif="http://www.serif.com/" style="fill-rule:evenodd;clip-rule:evenodd;stroke-linecap:round;stroke-linejoin:round;"><g id="Layer-1" serif:id="Layer 1"><path d="M335.516,600.709c23.627,-23.274 47.458,-46.749 67.067,-74.314c21.558,-30.306 53.643,-58.267 55.787,-98.388c3.428,-64.16 -34.712,-204.387 -122.441,-207.377c-85.422,-2.911 -64.559,71.889 -122.417,101.084c-28.891,14.578 -69.496,-1.684 -95.606,17.911c-24.079,18.071 -44.605,51.524 -42.082,85.422c8.895,119.48 88.967,161.133 177.997,182.544c27.418,6.593 55.369,-0.346 81.695,-6.882Z" style="fill:#99d6d9;fill-rule:nonzero;stroke:#99d6d9;stroke-width:2.98px;"/><path d="M601.385,433.813c-40.899,-12.048 -83.06,-24.464 -117.834,-49.652c-32.341,-23.426 -65.335,-52.806 -79.025,-92.937c-34.948,-102.444 2.133,-177.404 104.99,-197.348c18.281,-3.544 195.395,10.006 205.279,75.394c6.227,41.19 -28.343,81.179 -45.262,120.642c-20.925,48.813 -44.552,96.388 -68.148,143.901" style="fill:#dbe477;fill-rule:nonzero;"/><path d="M459.962,432.574c17.652,30.749 35.362,61.6 55.901,90.54c30.305,42.703 81.105,151.648 162.136,109.142c35.454,-18.598 51.263,-61.61 79.91,-89.493c41.616,-40.504 97.938,-67.143 130.545,-115.342c16.484,-24.365 30.494,-69.06 7.764,-89.105c-33.965,-29.953 -88.792,-10.782 -132.437,-20.843c-51.082,-11.775 -99.232,-47.027 -151.131,-44.525c-37.709,1.818 -70.945,29.513 -96.735,56.475c-26.938,28.162 -41.794,66.558 -55.953,103.151" style="fill:#f27070;fill-rule:nonzero;"/><path d="M547.782,94.861c0,-2.379 -1.932,-4.31 -4.311,-4.31l-62.943,-0c-2.379,-0 -4.31,1.931 -4.31,4.31l0,92.88c0,2.379 1.931,4.31 4.31,4.31l62.943,-0c2.379,-0 4.311,-1.931 4.311,-4.31l0,-92.88Z" style="fill:#0c3d3a;fill-rule:nonzero;"/><path d="M545.394,96.253c-0,-1.351 -1.097,-2.448 -2.447,-2.448l-61.892,-0c-1.351,-0 -2.449,1.097 -2.449,2.448l-0,90.096c-0,1.351 1.098,2.448 2.449,2.448l61.892,-0c1.35,-0 2.447,-1.097 2.447,-2.448l-0,-90.096Z" style="fill:#fce1e4;fill-rule:nonzero;stroke:#0c3d3a;stroke-width:1px;"/><path d="M495.856,165.872c0.132,0.083 -0.178,-2.609 -0.175,-2.692c0.065,-1.782 0.485,-4.249 1.173,-5.891c2.285,-5.451 6.88,-8.466 10.147,-13.113c0.947,-1.347 1.945,-3.439 2.068,-5.161c0.055,-0.769 -0.134,-1.548 -0.364,-2.279c-0.097,-0.31 -0.89,-0.585 -0.89,-0.258" style="fill:none;fill-rule:nonzero;stroke:#000;stroke-width:1px;"/><path d="M504.378,134.857c-0,-0.004 -0,-0.009 -0.001,-0.013" style="fill:none;fill-rule:nonzero;stroke:#000;stroke-width:1px;"/><path d="M510.382,133.39c-0.043,-0.019 -0.018,-0.031 -0.018,-0.094" style="fill:none;fill-rule:nonzero;stroke:#000;stroke-width:1px;"/><path d="M511.277,146.17c0.014,0.094 0.017,0.074 0.017,0.155" style="fill:none;fill-rule:nonzero;stroke:#000;stroke-width:1px;"/><path d="M508.012,136.94c-0.186,-0.405 -0.623,-0.552 -1.023,-0.561c-0.659,-0.015 -1.558,0.305 -1.843,1.002c-0.113,0.275 -0.034,0.544 0.194,0.71c0.333,0.242 0.938,0.301 1.303,0.107c0.248,-0.133 0.53,-0.351 0.728,-0.559c0.355,-0.375 0.42,-0.92 0.768,-1.29" style="fill:none;fill-rule:nonzero;stroke:#000;stroke-width:1px;"/><path d="M508.452,136.209c-0.18,0.064 -0.256,-0.413 -0.273,-0.462c-0.184,-0.558 -0.503,-1.222 -0.364,-1.849c0.036,-0.162 0.212,-0.544 0.445,-0.473c0.096,0.029 0.183,0.086 0.267,0.142c0.882,0.587 0.278,1.831 0.029,2.592c-0.092,0.281 -0.215,0.613 -0.215,0.921" style="fill:none;fill-rule:nonzero;stroke:#000;stroke-width:1px;"/><path d="M504.609,146.415c-0.617,-1.015 -1.157,-1.884 -1.121,-3.143c0.015,-0.532 0.313,-1.209 0.636,-1.602c0.236,-0.287 0.481,0.141 0.532,0.327c0.086,0.312 0.011,0.95 0.005,1.189c-0.032,1.16 -0.081,2.321 -0.081,3.483" style="fill:none;fill-rule:nonzero;stroke:#000;stroke-width:1px;"/><path d="M502.524,149.776c-0.044,-0.35 0.417,-0.782 0.6,-0.958c0.473,-0.454 0.868,-0.787 1.457,-1.058c0.738,-0.34 1.56,-0.482 2.252,-0.918c0.413,-0.26 0.591,-0.854 1.023,-1.076c0.108,-0.056 0.012,0.258 -0.015,0.382c-0.028,0.124 -0.085,0.239 -0.147,0.349c-0.49,0.868 -1.027,1.879 -1.748,2.589c-0.88,0.867 -2.057,1.457 -3.227,1.71c-0.717,0.156 -2.508,-0.007 -2.508,1.29" style="fill:none;fill-rule:nonzero;stroke:#000;stroke-width:1px;"/><path d="M496.29,158.417c0.437,-1.582 0.054,-3.266 -0.567,-4.716c-0.15,-0.351 -0.589,-0.955 -0.891,-1.185c-0.627,-0.477 -0.717,-0.239 -1.416,-0.602c-0.23,-0.119 -0.416,-0.319 -0.629,-0.47c-0.191,-0.135 -0.368,-0.474 -0.584,-0.39c-0.178,0.07 -0.002,0.406 0.04,0.602c0.134,0.624 0.273,1.251 0.486,1.849c0.271,0.763 0.882,1.74 1.415,2.322c0.533,0.582 1.274,0.733 1.626,1.515c0.252,0.562 0.316,1.41 0.316,1.968" style="fill:none;fill-rule:nonzero;stroke:#000;stroke-width:1px;"/><path d="M495.985,163.372c-0.094,-0.288 0.017,-0.859 0.06,-1.138c0.26,-1.656 1.033,-3.228 2.722,-3.581c0.71,-0.149 1.002,-0.027 1.773,-0.027c0.349,0 0.701,0.007 1.047,-0.047c0.223,-0.034 0.487,-0.385 0.647,-0.215c0.143,0.152 -0.331,0.249 -0.486,0.387c-0.277,0.249 -0.561,0.492 -0.808,0.774c-0.671,0.766 -1.3,1.573 -1.942,2.365c-0.953,1.177 -1.695,2.107 -3.276,2.107" style="fill:none;fill-rule:nonzero;stroke:#000;stroke-width:1px;"/><path d="M493.851,145.616c0.019,0.038 0.016,0.015 -0.03,0.064" style="fill:none;fill-rule:nonzero;stroke:#000;stroke-width:1px;"/><path d="M497.287,148.15c0.069,-0.082 0.111,-0.105 0.215,-0.105" style="fill:none;fill-rule:nonzero;stroke:#000;stroke-width:1px;"/><path d="M491.086,149.428c0.038,-0.012 0.016,-0.008 0.065,-0.008" style="fill:none;fill-rule:nonzero;stroke:#000;stroke-width:1px;"/><path d="M499.72,165.238c-0.031,-0.073 -0.024,-0.112 -0.075,-0.166" style="fill:none;fill-rule:nonzero;stroke:#000;stroke-width:1px;"/><path d="M505.428,163.788c-0.129,0.099 -0.095,0.123 -0.201,0.123" style="fill:none;fill-rule:nonzero;stroke:#000;stroke-width:1px;"/><path d="M502.664,154.046c0.005,0.006 0.01,0.012 0.015,0.018" style="fill:none;fill-rule:nonzero;stroke:#000;stroke-width:1px;"/><path d="M525.279,172.694c-0.082,0.054 0.072,-1.627 0.069,-1.678c-0.064,-1.109 -0.361,-2.639 -0.812,-3.652c-1.5,-3.362 -4.404,-5.174 -6.504,-8.022c-0.609,-0.825 -1.261,-2.114 -1.361,-3.184c-0.045,-0.478 0.062,-0.966 0.195,-1.425c0.056,-0.194 0.546,-0.376 0.55,-0.173" style="fill:none;fill-rule:nonzero;stroke:#000;stroke-width:1px;"/><path d="M519.534,153.502l0,-0.008" style="fill:none;fill-rule:nonzero;stroke:#000;stroke-width:1px;"/><path d="M515.774,152.674c0.026,-0.013 0.011,-0.02 0.01,-0.059" style="fill:none;fill-rule:nonzero;stroke:#000;stroke-width:1px;"/><path d="M515.398,160.644c-0.009,0.059 -0.011,0.046 -0.01,0.097" style="fill:none;fill-rule:nonzero;stroke:#000;stroke-width:1px;"/><path d="M517.3,154.851c0.111,-0.255 0.381,-0.353 0.629,-0.364c0.41,-0.019 0.975,0.168 1.162,0.598c0.074,0.17 0.029,0.338 -0.11,0.444c-0.204,0.156 -0.579,0.202 -0.81,0.086c-0.157,-0.079 -0.336,-0.212 -0.461,-0.338c-0.226,-0.228 -0.275,-0.567 -0.497,-0.793" style="fill:none;fill-rule:nonzero;stroke:#000;stroke-width:1px;"/><path d="M517.016,154.402c0.113,0.037 0.154,-0.261 0.163,-0.292c0.108,-0.35 0.296,-0.768 0.201,-1.156c-0.024,-0.101 -0.139,-0.336 -0.284,-0.289c-0.059,0.02 -0.112,0.057 -0.164,0.093c-0.541,0.378 -0.146,1.144 0.02,1.614c0.06,0.174 0.141,0.379 0.145,0.57" style="fill:none;fill-rule:nonzero;stroke:#000;stroke-width:1px;"/><path d="M519.553,160.703c0.37,-0.641 0.694,-1.19 0.654,-1.974c-0.016,-0.331 -0.212,-0.748 -0.419,-0.988c-0.151,-0.175 -0.297,0.095 -0.326,0.211c-0.05,0.196 0.006,0.592 0.013,0.74c0.037,0.723 0.084,1.445 0.1,2.168" style="fill:none;fill-rule:nonzero;stroke:#000;stroke-width:1px;"/><path d="M520.899,162.766c0.021,-0.218 -0.271,-0.481 -0.388,-0.588c-0.3,-0.276 -0.551,-0.478 -0.923,-0.638c-0.463,-0.201 -0.977,-0.278 -1.414,-0.54c-0.26,-0.156 -0.38,-0.524 -0.653,-0.656c-0.067,-0.033 -0.004,0.161 0.016,0.238c0.018,0.077 0.055,0.148 0.095,0.215c0.318,0.534 0.666,1.156 1.125,1.588c0.561,0.527 1.302,0.878 2.035,1.019c0.449,0.087 1.561,-0.04 1.58,0.768" style="fill:none;fill-rule:nonzero;stroke:#000;stroke-width:1px;"/><path d="M524.903,168.059c-0.294,-0.979 -0.08,-2.033 0.286,-2.945c0.089,-0.221 0.354,-0.603 0.537,-0.75c0.385,-0.306 0.445,-0.159 0.873,-0.395c0.143,-0.078 0.256,-0.205 0.387,-0.302c0.117,-0.087 0.222,-0.3 0.357,-0.251c0.112,0.041 0.007,0.253 -0.016,0.376c-0.074,0.39 -0.153,0.782 -0.277,1.158c-0.158,0.478 -0.524,1.095 -0.848,1.466c-0.323,0.369 -0.783,0.474 -0.99,0.966c-0.15,0.353 -0.177,0.882 -0.169,1.23" style="fill:none;fill-rule:nonzero;stroke:#000;stroke-width:1px;"/><path d="M525.163,171.139c0.054,-0.18 -0.023,-0.534 -0.054,-0.707c-0.185,-1.028 -0.688,-1.995 -1.745,-2.192c-0.444,-0.082 -0.624,-0.002 -1.104,0.009c-0.218,0.005 -0.437,0.014 -0.653,-0.015c-0.14,-0.018 -0.309,-0.232 -0.406,-0.124c-0.087,0.096 0.21,0.15 0.308,0.234c0.175,0.151 0.357,0.298 0.514,0.47c0.429,0.468 0.832,0.961 1.243,1.445c0.61,0.72 1.085,1.289 2.07,1.266" style="fill:none;fill-rule:nonzero;stroke:#000;stroke-width:1px;"/><path d="M526.241,160.053c-0.013,0.024 -0.01,0.01 0.019,0.039" style="fill:none;fill-rule:nonzero;stroke:#000;stroke-width:1px;"/><path d="M524.137,161.679c-0.044,-0.05 -0.069,-0.064 -0.135,-0.062" style="fill:none;fill-rule:nonzero;stroke:#000;stroke-width:1px;"/><path d="M528.017,162.388c-0.023,-0.007 -0.011,-0.005 -0.041,-0.004" style="fill:none;fill-rule:nonzero;stroke:#000;stroke-width:1px;"/><path d="M522.863,172.354c0.019,-0.046 0.014,-0.07 0.045,-0.104" style="fill:none;fill-rule:nonzero;stroke:#000;stroke-width:1px;"/><path d="M519.289,171.532c0.082,0.06 0.06,0.075 0.127,0.074" style="fill:none;fill-rule:nonzero;stroke:#000;stroke-width:1px;"/><path d="M520.872,165.427c-0.003,0.004 -0.006,0.008 -0.009,0.011" style="fill:none;fill-rule:nonzero;stroke:#000;stroke-width:1px;"/><path d="M502.051,109.906c-0.19,0.1 3.212,1.592 3.308,1.653c2.066,1.307 4.697,3.508 6.167,5.457c4.879,6.47 5.277,13.994 8.524,21.073c0.941,2.051 2.73,4.679 4.685,6.013c0.872,0.596 1.926,0.91 2.95,1.143c0.434,0.099 1.307,-0.65 0.921,-0.876" style="fill:none;fill-rule:nonzero;stroke:#000;stroke-width:1px;"/><path d="M532.898,141.417c0.005,0.003 0.011,0.006 0.016,0.009" style="fill:none;fill-rule:nonzero;stroke:#000;stroke-width:1px;"/><path d="M530.489,149.541c0.053,-0.037 0.05,0 0.125,0.044" style="fill:none;fill-rule:nonzero;stroke:#000;stroke-width:1px;"/><path d="M514.736,141.776c-0.122,-0.048 -0.101,-0.031 -0.195,-0.087" style="fill:none;fill-rule:nonzero;stroke:#000;stroke-width:1px;"/><path d="M527.921,144.283c0.609,0.059 1.085,-0.357 1.372,-0.823c0.473,-0.771 0.715,-2.058 0.086,-2.876c-0.249,-0.323 -0.621,-0.416 -0.975,-0.26c-0.517,0.227 -1.004,0.902 -1.026,1.468c-0.015,0.386 0.049,0.872 0.159,1.249c0.198,0.679 0.799,1.133 0.997,1.801" style="fill:none;fill-rule:nonzero;stroke:#000;stroke-width:1px;"/><path d="M528.484,145.309c0.047,-0.257 0.666,-0.018 0.734,-0.004c0.789,0.168 1.795,0.248 2.442,0.846c0.167,0.154 0.498,0.626 0.253,0.854c-0.101,0.093 -0.229,0.156 -0.354,0.217c-1.304,0.64 -2.358,-0.935 -3.088,-1.755c-0.269,-0.304 -0.578,-0.678 -0.942,-0.891" style="fill:none;fill-rule:nonzero;stroke:#000;stroke-width:1px;"/><path d="M519.05,133.709c1.628,-0.03 3.031,-0.068 4.497,0.843c0.62,0.385 1.214,1.206 1.457,1.86c0.177,0.477 -0.498,0.472 -0.754,0.404c-0.429,-0.113 -1.133,-0.643 -1.411,-0.815c-1.352,-0.84 -2.694,-1.699 -4.069,-2.501" style="fill:none;fill-rule:nonzero;stroke:#000;stroke-width:1px;"/><path d="M516.509,128.919c0.444,0.19 0.64,1.035 0.72,1.372c0.212,0.874 0.332,1.572 0.247,2.457c-0.107,1.108 -0.506,2.18 -0.468,3.3c0.023,0.669 0.605,1.29 0.569,1.956c-0.008,0.166 -0.314,-0.164 -0.442,-0.282c-0.128,-0.118 -0.225,-0.266 -0.312,-0.415c-0.691,-1.18 -1.517,-2.514 -1.86,-3.858c-0.419,-1.641 -0.305,-3.442 0.203,-5.003c0.311,-0.957 1.74,-2.965 0.204,-3.861" style="fill:none;fill-rule:nonzero;stroke:#000;stroke-width:1px;"/><path d="M510.579,115.569c1.573,1.609 3.832,2.319 5.978,2.585c0.519,0.065 1.537,-0.038 2.018,-0.237c0.998,-0.414 0.778,-0.685 1.691,-1.261c0.301,-0.19 0.665,-0.272 0.991,-0.421c0.293,-0.133 0.816,-0.109 0.865,-0.422c0.041,-0.259 -0.48,-0.283 -0.741,-0.368c-0.831,-0.273 -1.669,-0.541 -2.525,-0.702c-1.09,-0.205 -2.671,-0.156 -3.727,0.073c-1.057,0.229 -1.748,1.003 -2.916,0.879c-0.84,-0.089 -1.888,-0.599 -2.55,-0.985" style="fill:none;fill-rule:nonzero;stroke:#000;stroke-width:1px;"/><path d="M504.923,111.786c0.405,0.087 1.005,0.613 1.305,0.857c1.782,1.451 3.11,3.452 2.362,5.697c-0.314,0.943 -0.661,1.205 -1.193,2.117c-0.241,0.414 -0.492,0.827 -0.667,1.273c-0.113,0.289 0.119,0.843 -0.192,0.915c-0.279,0.064 -0.066,-0.564 -0.123,-0.842c-0.103,-0.5 -0.195,-1.005 -0.358,-1.493c-0.444,-1.323 -0.965,-2.624 -1.461,-3.932c-0.735,-1.942 -1.324,-3.463 -0.233,-5.336" style="fill:none;fill-rule:nonzero;stroke:#000;stroke-width:1px;"/><path d="M527.426,121.52c-0.06,-0.003 -0.029,0.008 -0.055,-0.08" style="fill:none;fill-rule:nonzero;stroke:#000;stroke-width:1px;"/><path d="M522.051,123.84c0.05,0.138 0.049,0.204 -0.022,0.326" style="fill:none;fill-rule:nonzero;stroke:#000;stroke-width:1px;"/><path d="M524.819,115.612c-0.012,0.054 -0.001,0.025 -0.035,0.083" style="fill:none;fill-rule:nonzero;stroke:#000;stroke-width:1px;"/><path d="M500.133,114.921c0.108,0.013 0.15,0.048 0.248,0.026" style="fill:none;fill-rule:nonzero;stroke:#000;stroke-width:1px;"/><path d="M497.908,122.683c-0.028,-0.222 -0.08,-0.198 -0.006,-0.324" style="fill:none;fill-rule:nonzero;stroke:#000;stroke-width:1px;"/><path d="M511.356,126.136c-0.011,0.002 -0.022,0.003 -0.033,0.005" style="fill:none;fill-rule:nonzero;stroke:#000;stroke-width:1px;"/><path d="M509.314,105.701c-9.85,-3.317 -23.3,5.74 -23.574,12.457c-0.18,4.402 9.645,8.016 13.64,14.647c3.672,6.095 1.394,15.301 4.345,17.712c6.163,5.035 13.074,0.348 16.581,-7.094c1.238,-2.629 4.203,-10.723 3.114,-17.166c-1.67,-9.882 -8.763,-18.757 -14.106,-20.556Z" style="fill:none;fill-rule:nonzero;stroke:#000;stroke-width:1px;"/><path d="M532.494,144.461c14.057,-16.165 -9.592,-25.044 -21.2,-14.715c-3.322,2.955 -6.887,9.12 -10.383,16.187c-3.212,6.495 -13.218,8.139 -13.502,12.273c-0.594,8.632 8.287,13.798 17.473,14.207c3.244,0.144 13.17,0.262 17.91,-4.249c5.756,-5.477 3.121,-16.134 9.702,-23.703Z" style="fill:none;fill-rule:nonzero;stroke:#000;stroke-width:1px;"/><rect x="607.406" y="295.083" width="218.545" height="4.629" style="fill:#c39f64;"/><rect x="638.326" y="298.821" width="15.907" height="4.938" style="fill:#987f57;"/><rect x="786.303" y="298.822" width="15.907" height="4.708" style="fill:#987f57;"/><path d="M783.793,279.892l-22.842,0l-0.216,15.116l22.841,0l0.217,-15.116Z" style="fill:#f2a490;fill-rule:nonzero;"/><rect x="758.051" y="273.836" width="28.643" height="6.177" style="fill:#f2a490;"/><path d="M772.372,269.531c7.904,0 14.321,1.929 14.321,4.305c0,2.376 -6.417,4.305 -14.321,4.305c-7.904,0 -14.321,-1.929 -14.321,-4.305c0,-2.376 6.417,-4.305 14.321,-4.305" style="fill:#f27070;fill-rule:nonzero;"/><path d="M772.155,292.25c6.303,0 11.421,1.236 11.421,2.758c0,1.523 -5.118,2.758 -11.421,2.758c-6.304,0 -11.42,-1.235 -11.42,-2.758c0,-1.522 5.116,-2.758 11.42,-2.758" style="fill:#f2a490;fill-rule:nonzero;"/><path d="M770.985,251.999c5.656,0 10.25,4.522 10.25,10.092c0,5.569 -4.594,10.091 -10.25,10.091c-5.657,0 -10.25,-4.522 -10.25,-10.091c0,-5.57 4.593,-10.092 10.25,-10.092" style="fill:#0e726a;fill-rule:nonzero;"/><path d="M757.447,235.472c2.548,-1.399 6.795,1.869 9.478,7.292c2.683,5.424 2.792,10.962 0.244,12.361c-2.548,1.399 -6.795,-1.868 -9.478,-7.292c-2.683,-5.423 -2.793,-10.962 -0.244,-12.361" style="fill:#0e726a;fill-rule:nonzero;"/><path d="M755.088,239.7c1.635,0 2.963,1.255 2.963,2.8c-0,1.544 -1.328,2.799 -2.963,2.799c-1.635,0 -2.963,-1.255 -2.963,-2.799c-0,-1.545 1.328,-2.8 2.963,-2.8" style="fill:#25b5ac;fill-rule:nonzero;"/><path d="M778.09,249.464c3.156,-2.242 6.797,-2.378 8.126,-0.303c1.328,2.075 -0.156,5.58 -3.312,7.822c-3.156,2.242 -6.795,2.378 -8.125,0.303c-1.328,-2.075 0.155,-5.58 3.311,-7.822" style="fill:#0e726a;fill-rule:nonzero;"/><path d="M778.923,242.532c1.687,0.317 2.668,2.855 2.192,5.663c-0.476,2.808 -2.231,4.83 -3.917,4.513c-1.685,-0.317 -2.667,-2.854 -2.192,-5.662c0.477,-2.808 2.231,-4.831 3.917,-4.514" style="fill:#25b5ac;fill-rule:nonzero;"/><path d="M841.499,584.227c-223.951,0.824 -444.035,-0.229 -657.204,-4.642c-61.481,44.331 -112.573,86.156 -147.984,124.198c298.027,19.589 609.319,18.354 920.314,5.287c-28.41,-44.445 -68.851,-86.711 -115.126,-124.843" style="fill:#478ba2;fill-rule:nonzero;"/><path d="M112.971,708.352c0,-0 130.764,-126.55 131.191,-127.617" style="fill:none;fill-rule:nonzero;stroke:#69bac9;stroke-width:1px;"/><path d="M254.36,713.211c-0,-0 76.92,-129.605 76.995,-130.605" style="fill:none;fill-rule:nonzero;stroke:#69bac9;stroke-width:1px;"/><path d="M429.038,716.292c0,0 16.527,-130.136 16.195,-131.025" style="fill:none;fill-rule:nonzero;stroke:#69bac9;stroke-width:1px;"/><path d="M598.64,716.292c-0,0 -25.431,-130.274 -26.045,-131.025" style="fill:none;fill-rule:nonzero;stroke:#69bac9;stroke-width:1px;"/><path d="M742.29,714.688c0,-0 -58.276,-128.693 -59.116,-129.421" style="fill:none;fill-rule:nonzero;stroke:#69bac9;stroke-width:1px;"/><path d="M891.45,710.715c0,-0 -109.912,-124.81 -111.097,-125.448" style="fill:none;fill-rule:nonzero;stroke:#69bac9;stroke-width:1px;"/><path d="M317.53,372.027c-0,-0.842 -0.683,-1.526 -1.526,-1.526l-123.394,-0c-0.842,-0 -1.526,0.684 -1.526,1.526l-0,175.942c-0,0.844 0.684,1.526 1.526,1.526l123.394,-0c0.843,-0 1.526,-0.682 1.526,-1.526l-0,-175.942Z" style="fill:#987f57;fill-rule:nonzero;stroke:#c39f64;stroke-width:1px;"/><path d="M565.409,367.961c0,-0.933 -0.758,-1.691 -1.692,-1.691l-379.4,-0c-0.933,-0 -1.691,0.758 -1.691,1.691l0,3.384c0,0.933 0.758,1.691 1.691,1.691l379.4,-0c0.934,-0 1.692,-0.758 1.692,-1.691l0,-3.384Z" style="fill:#c39f64;fill-rule:nonzero;stroke:#c39f64;stroke-width:1px;"/><path d="M191.741,593.115c0.934,0 1.692,-0.758 1.692,-1.691l0,-216.696c0,-0.934 -0.758,-1.692 -1.692,-1.692l-3.383,0c-0.934,0 -1.692,0.758 -1.692,1.692l0,216.696c0,0.933 0.758,1.691 1.692,1.691l3.383,0Z" style="fill:#c39f64;fill-rule:nonzero;stroke:#c39f64;stroke-width:1px;"/><path d="M320.153,593.115c0.933,0 1.691,-0.758 1.691,-1.691l-0,-216.696c-0,-0.934 -0.758,-1.692 -1.691,-1.692l-3.383,0c-0.934,0 -1.692,0.758 -1.692,1.692l-0,216.696c-0,0.933 0.758,1.691 1.692,1.691l3.383,0Z" style="fill:#c39f64;fill-rule:nonzero;stroke:#c39f64;stroke-width:1px;"/><path d="M190.049,431.602c-0,0.935 0.758,1.692 1.692,1.692l125.029,0c0.933,0 1.691,-0.757 1.691,-1.692l-0,-3.383c-0,-0.932 -0.758,-1.69 -1.691,-1.69l-125.029,0c-0.934,0 -1.692,0.758 -1.692,1.69l-0,3.383Z" style="fill:#c39f64;fill-rule:nonzero;stroke:#c39f64;stroke-width:1px;"/><path d="M190.049,488.15c-0,0.934 0.758,1.691 1.692,1.691l125.029,0c0.933,0 1.691,-0.757 1.691,-1.691l-0,-3.384c-0,-0.933 -0.758,-1.69 -1.691,-1.69l-125.029,0c-0.934,0 -1.692,0.757 -1.692,1.69l-0,3.384Z" style="fill:#c39f64;fill-rule:nonzero;stroke:#c39f64;stroke-width:1px;"/><path d="M190.049,549.842c-0,0.935 0.758,1.692 1.692,1.692l125.029,-0c0.933,-0 1.691,-0.757 1.691,-1.692l-0,-3.383c-0,-0.933 -0.758,-1.692 -1.691,-1.692l-125.029,-0c-0.934,-0 -1.692,0.759 -1.692,1.692l-0,3.383Z" style="fill:#c39f64;fill-rule:nonzero;stroke:#c39f64;stroke-width:1px;"/><path d="M565.409,375.692c0,-1.466 -1.191,-2.656 -2.656,-2.656l-241.636,-0c-1.466,-0 -2.656,1.19 -2.656,2.656l0,214.767c0,1.466 1.19,2.656 2.656,2.656l241.636,-0c1.465,-0 2.656,-1.19 2.656,-2.656l0,-214.767Z" style="fill:#c39f64;fill-rule:nonzero;stroke:#c39f64;stroke-width:1px;"/><path d="M435.358,386.127c-0,-0.718 -0.583,-1.301 -1.301,-1.301l-105.166,0c-0.717,0 -1.3,0.583 -1.3,1.301l-0,201.063c-0,0.718 0.583,1.3 1.3,1.3l105.166,0c0.718,0 1.301,-0.582 1.301,-1.3l-0,-201.063Z" style="fill:#987f57;fill-rule:nonzero;stroke:#c39f64;stroke-width:1px;"/><path d="M556.279,386.127c0,-0.718 -0.583,-1.301 -1.301,-1.301l-105.165,0c-0.718,0 -1.301,0.583 -1.301,1.301l0,201.063c0,0.718 0.583,1.3 1.301,1.3l105.165,0c0.718,0 1.301,-0.582 1.301,-1.3l0,-201.063Z" style="fill:#987f57;fill-rule:nonzero;stroke:#c39f64;stroke-width:1px;"/><path d="M428.268,393.551c0,-0.624 -0.506,-1.13 -1.129,-1.13l-91.329,-0c-0.624,-0 -1.13,0.506 -1.13,1.13l0,186.215c0,0.623 0.506,1.129 1.13,1.129l91.329,-0c0.623,-0 1.129,-0.506 1.129,-1.129l0,-186.215Z" style="fill:#c39f64;fill-rule:nonzero;stroke:#c39f64;stroke-width:1px;"/><path d="M549.19,393.551c-0,-0.624 -0.507,-1.13 -1.13,-1.13l-91.328,-0c-0.625,-0 -1.13,0.506 -1.13,1.13l0,186.215c0,0.623 0.505,1.129 1.13,1.129l91.327,-0c0.624,-0 1.13,-0.506 1.13,-1.129l0,-186.215Z" style="fill:#c39f64;fill-rule:nonzero;stroke:#c39f64;stroke-width:1px;"/><path d="M419.183,402.106c0,-0.914 -0.742,-1.657 -1.657,-1.657l-72.104,0c-0.914,0 -1.656,0.743 -1.656,1.657l0,3.313c0,0.915 0.742,1.657 1.656,1.657l72.104,0c0.915,0 1.657,-0.742 1.657,-1.657l0,-3.313Z" style="fill:#987f57;fill-rule:nonzero;stroke:#c39f64;stroke-width:1px;"/><path d="M540.104,402.106c-0,-0.914 -0.741,-1.657 -1.656,-1.657l-72.105,0c-0.913,0 -1.657,0.743 -1.657,1.657l0,3.313c0,0.915 0.743,1.657 1.657,1.657l72.105,0c0.914,0 1.655,-0.742 1.655,-1.657l0,-3.313Z" style="fill:#987f57;fill-rule:nonzero;stroke:#c39f64;stroke-width:1px;"/><rect x="181.967" y="138.403" width="260.498" height="4.822" style="fill:#c39f64;"/><rect x="181.967" y="236.35" width="260.498" height="4.822" style="fill:#c39f64;"/><path d="M258.187,153.921l-39.878,-0.47l6.035,13.523l28.141,0.205l5.702,-13.258Z" style="fill:#58c4c4;fill-rule:nonzero;"/><path d="M251.006,162.023l-25.437,-0c-9.253,31.163 -16.342,61.526 -0,74.289l25.437,-0c13.738,-19.926 6.421,-47.266 -0,-74.289" style="fill:#58c4c4;fill-rule:nonzero;"/><path d="M224.183,172.813c-3.524,-1.379 -11.618,0.781 -13.872,6.544c-2.253,5.762 4.473,13.256 7.998,14.634c-0.105,-2.85 -6.156,-8.942 -4.527,-13.107c1.629,-4.165 8.391,-6.048 10.401,-8.071" style="fill:#58c4c4;fill-rule:nonzero;"/><path d="M251.025,172.813c3.524,-1.379 11.618,0.781 13.872,6.544c2.253,5.762 -4.473,13.256 -7.998,14.634c0.105,-2.85 6.156,-8.942 4.527,-13.107c-1.629,-4.165 -8.391,-6.048 -10.401,-8.071" style="fill:#58c4c4;fill-rule:nonzero;"/><path d="M373.263,106.659l-53.319,0c-0.048,12.211 1.867,23.711 14.364,31.744l22.653,0c13.667,-6.164 14.672,-19.122 16.302,-31.744" style="fill:#58c4c4;fill-rule:nonzero;"/><path d="M345.106,124.336l-38.906,-0c-0.035,5.411 1.363,10.507 10.482,14.067l16.529,-0c9.973,-2.732 10.706,-8.474 11.895,-14.067" style="fill:#f7a6a2;fill-rule:nonzero;"/><path d="M382.621,112.548l-28.811,-0c-0.026,9.946 1.009,19.313 7.762,25.855l12.24,-0c7.385,-5.021 7.928,-15.574 8.809,-25.855" style="fill:#fce2e5;fill-rule:nonzero;"/><path d="M258.034,391.158l-40.12,0c-0.036,13.575 1.405,26.359 10.809,35.289l17.045,0c10.284,-6.852 11.04,-21.257 12.266,-35.289" style="fill:#fff;fill-rule:nonzero;"/><path d="M262.566,400.476l-49.184,-0c-0.044,9.99 1.723,19.4 13.251,25.972l20.896,-0c12.607,-5.043 13.534,-15.645 15.037,-25.972" style="fill:#f2a490;fill-rule:nonzero;"/><path d="M268.122,407.334l-60.295,0c-0.054,7.352 2.112,14.277 16.244,19.113l25.616,0c15.456,-3.711 16.592,-11.513 18.435,-19.113" style="fill:#de5b6d;fill-rule:nonzero;"/><path d="M274.932,412.38l-73.915,-0c-0.066,5.412 2.589,10.508 19.914,14.067l31.402,-0c18.947,-2.731 20.34,-8.473 22.599,-14.067" style="fill:#b9d4db;fill-rule:nonzero;"/><path d="M301.485,394.757l-16.971,-0c-0.015,5.404 3.536,10.323 7.514,13.878l1.944,0.035c4.35,-2.727 6.995,-8.327 7.513,-13.913" style="fill:#fff;fill-rule:nonzero;"/><rect x="292.514" y="401.714" width="0.972" height="21.742" style="fill:#fff;"/><path d="M298.16,426.447c0,-2.341 -2.312,-4.242 -5.16,-4.242c-2.848,0 -5.161,1.901 -5.161,4.242l10.321,0Z" style="fill:#fff;fill-rule:nonzero;"/><path d="M312.116,167.179l-37.143,0l8.037,9.768l29.106,-0.479l0,-9.289Z" style="fill:#478ba2;fill-rule:nonzero;"/><path d="M312.116,170.855l-29.106,0.256l-5.406,65.322l38.187,0.206l-3.675,-65.784Z" style="fill:#478ba2;fill-rule:nonzero;"/><path d="M312.116,203.747c2.4,0 10.374,-7.688 10.374,-13.813c0,-6.124 -9.827,-11.358 -12.226,-11.358c0.412,1.483 4.915,1.521 7.744,3.958c2.111,1.817 2.8,5.925 2.8,7.816c0,2.075 -0.592,6.353 -2.527,8.695c-2.193,2.655 -5.782,3.327 -6.165,4.702" style="fill:#478ba2;fill-rule:nonzero;"/><path d="M257.66,60.738l-23.89,-0c-9.876,15.382 -6.923,48.153 -6.231,77.859l36.82,-0c0.441,-29.237 4.229,-62.586 -6.699,-77.859" style="fill:#e9765b;fill-rule:nonzero;"/><path d="M259.392,55.312l-27.975,-0l2.353,5.426l23.89,-0l1.732,-5.426Z" style="fill:#e9765b;fill-rule:nonzero;stroke:#e9765b;stroke-width:1px;"/><path d="M291.191,75.709l-16.309,-0c-6.743,12.424 -4.727,38.894 -4.254,62.888l25.136,-0c0.301,-23.615 2.888,-50.552 -4.573,-62.888" style="fill:#b9d4db;fill-rule:nonzero;"/><path d="M292.373,71.326l-19.098,0l1.607,4.383l16.309,0l1.182,-4.383Z" style="fill:#b9d4db;fill-rule:nonzero;stroke:#b9d4db;stroke-width:1px;"/><path d="M217.351,67.463l-12.243,-0c-5.061,14.054 -3.548,43.994 -3.193,71.134l18.869,-0c0.226,-26.712 2.167,-57.18 -3.433,-71.134" style="fill:#99d6d9;fill-rule:nonzero;"/><path d="M218.238,62.506l-14.336,-0l1.206,4.957l12.243,-0l0.887,-4.957Z" style="fill:#99d6d9;fill-rule:nonzero;stroke:#99d6d9;stroke-width:1px;"/><path d="M874.662,325.135c-18.413,-0.52 -95.149,1.058 -95.18,-0.02c-23.629,24.232 -29.314,65.458 -44.024,118.761c-4.71,17.069 -18.654,35.375 -23.593,54.759l146.969,-0c2.439,-49.039 28.189,-112.331 31.475,-158.206c0.593,-8.259 -8.401,-15.089 -15.647,-15.294" style="fill:#74cccd;fill-rule:nonzero;"/><path d="M760.072,617.26c0,-0 3.829,0.607 3.762,-0.398l-1.386,-121.417c-0.067,-1.007 -4.941,-2.292 -6.613,-2.516l-6.061,-0.808c-1.674,-0.222 -4.628,0.776 -4.56,1.783c0,-0 13.186,123.133 14.858,123.356" style="fill:#c39f64;fill-rule:nonzero;"/><path d="M598.27,652.504c-0,-0 3.787,1.206 4.236,-0.492l61.359,-204.563c0.447,-1.698 -4.109,-4.095 -5.784,-4.549l-6.077,-1.65c-1.674,-0.455 -5.358,1.086 -5.806,2.784c0,-0 -49.606,208.015 -47.928,208.47" style="fill:#c39f64;fill-rule:nonzero;"/><path d="M868.027,325.115l-88.545,0c-23.629,24.232 -29.314,65.457 -44.024,118.761c-4.71,17.068 -18.655,35.375 -23.593,54.759l119.624,0c2.438,-49.04 14.565,-109.429 32.558,-155.618c2.236,-5.74 11.394,-14.442 3.98,-17.902" style="fill:#99d6d9;fill-rule:nonzero;"/><path d="M859.933,498.635l-142.997,-13.005c-54.224,1.221 -95.671,9.408 -117.75,28.155l-0.916,35.722l113.596,18.025l136.126,-14.607l11.941,-54.29Z" style="fill:#99d6d9;fill-rule:nonzero;"/><path d="M855.248,519.934c0,-0 -143.11,4.093 -143.383,11.125c-0.273,7.033 0,36.474 0,36.474l134.379,-16.652l9.004,-30.947Z" style="fill:#74cccd;fill-rule:nonzero;"/><path d="M744.062,470.843c0.384,-1.356 -0.405,-2.776 -1.76,-3.168l-105.288,-30.461c-1.354,-0.392 -2.765,0.392 -3.146,1.748l-1.387,4.917c-0.384,1.358 0.405,2.777 1.76,3.168l105.288,30.461c1.353,0.393 2.764,-0.392 3.146,-1.748l1.387,-4.917Z" style="fill:#c39f64;fill-rule:nonzero;"/><path d="M717.871,672.992c0,0 3.787,1.205 4.236,-0.493l61.358,-204.564c0.449,-1.696 -4.107,-4.094 -5.784,-4.549l-6.075,-1.648c-1.677,-0.455 -5.358,1.086 -5.807,2.783c0,0 -49.605,208.016 -47.928,208.471" style="fill:#c39f64;fill-rule:nonzero;"/><path d="M600.662,646.637c2.344,-0 4.247,1.848 4.247,4.123c0,2.275 -1.903,4.122 -4.247,4.122c-2.344,-0 -4.247,-1.847 -4.247,-4.122c0,-2.275 1.903,-4.123 4.247,-4.123" style="fill:#c39f64;fill-rule:nonzero;"/><path d="M720.399,667.567c2.344,0 4.245,1.847 4.245,4.123c0,2.274 -1.901,4.122 -4.245,4.122c-2.345,0 -4.247,-1.848 -4.247,-4.122c0,-2.276 1.902,-4.123 4.247,-4.123" style="fill:#c39f64;fill-rule:nonzero;"/><path d="M762.077,611.548c2.343,-0 4.246,1.847 4.246,4.123c0,2.275 -1.903,4.122 -4.246,4.122c-2.344,-0 -4.247,-1.847 -4.247,-4.122c0,-2.276 1.903,-4.123 4.247,-4.123" style="fill:#c39f64;fill-rule:nonzero;"/><path d="M855.261,635.527c2.345,0 4.247,1.847 4.247,4.122c-0,2.274 -1.902,4.122 -4.247,4.122c-2.344,0 -4.246,-1.848 -4.246,-4.122c-0,-2.275 1.902,-4.122 4.246,-4.122" style="fill:#c39f64;fill-rule:nonzero;"/><path d="M853.185,641.35c-0,-0 3.962,-0.255 3.84,-1.549l-7.841,-157.955c-0.121,-1.294 -5.189,-1.638 -6.918,-1.471l-6.261,0.604c-1.727,0.168 -4.706,2.276 -4.585,3.57c-0,-0 20.038,156.968 21.765,156.801" style="fill:#c39f64;fill-rule:nonzero;"/><path d="M856.893,485.318c0.384,-1.357 -0.405,-2.777 -1.76,-3.168l-105.289,-30.461c-1.353,-0.392 -2.764,0.391 -3.146,1.748l-1.388,4.916c-0.383,1.358 0.406,2.777 1.761,3.169l105.289,30.461c1.353,0.392 2.763,-0.393 3.146,-1.748l1.387,-4.917Z" style="fill:#c39f64;fill-rule:nonzero;"/><path d="M852.186,480.036c0.236,-0.837 -0.25,-1.713 -1.087,-1.955l-98.287,-28.435c-0.833,-0.242 -1.703,0.241 -1.939,1.078l-0.857,3.034c-0.236,0.837 0.25,1.712 1.085,1.954l98.287,28.435c0.835,0.242 1.705,-0.241 1.943,-1.078l0.854,-3.033Z" style="fill:#74cccd;fill-rule:nonzero;"/><path d="M740.581,464.727c0.236,-0.837 -0.25,-1.713 -1.086,-1.954l-98.287,-28.436c-0.835,-0.242 -1.705,0.243 -1.941,1.079l-0.856,3.034c-0.236,0.837 0.251,1.713 1.086,1.954l98.287,28.435c0.836,0.242 1.706,-0.242 1.942,-1.079l0.855,-3.033Z" style="fill:#74cccd;fill-rule:nonzero;"/><path d="M733.669,258.479c-0,-4.824 -3.916,-8.74 -8.74,-8.74l-17.481,0c-4.824,0 -8.741,3.916 -8.741,8.74l-0,28.206c-0,4.824 3.917,8.74 8.741,8.74l17.481,0c4.824,0 8.74,-3.916 8.74,-8.74l-0,-28.206Z" style="fill:#e9765b;fill-rule:nonzero;"/><path d="M730.495,260.817c0,-3.948 -3.206,-7.153 -7.154,-7.153l-14.306,-0c-3.948,-0 -7.153,3.205 -7.153,7.153l0,23.53c0,3.947 3.205,7.153 7.153,7.153l14.306,-0c3.948,-0 7.154,-3.206 7.154,-7.153l0,-23.53Z" style="fill:#f2a490;fill-rule:nonzero;"/><path d="M728.44,280.405c0.753,0.623 0.671,3.976 -1.46,6.554c-2.132,2.577 -5.51,3.408 -6.263,2.785c-0.754,-0.623 1.737,-1.913 3.868,-4.491c2.13,-2.577 3.1,-5.471 3.855,-4.848" style="fill:#fff;fill-rule:nonzero;"/><path d="M705.52,260.576c-0.32,-0.294 0.032,-1.687 1.342,-2.663c1.308,-0.977 3.082,-1.169 3.4,-0.875c0.321,0.294 -1.049,0.718 -2.356,1.695c-1.311,0.976 -2.067,2.137 -2.386,1.843" style="fill:#fff;fill-rule:nonzero;"/><path d="M705.565,261.821c0.385,-0 0.697,0.278 0.697,0.619c0,0.341 -0.312,0.619 -0.697,0.619c-0.386,-0 -0.697,-0.278 -0.697,-0.619c0,-0.341 0.311,-0.619 0.697,-0.619" style="fill:#fff;fill-rule:nonzero;"/><path d="M713.223,256.295c0.651,-0 1.18,0.422 1.18,0.941c-0,0.519 -0.529,0.94 -1.18,0.94c-0.649,-0 -1.178,-0.421 -1.178,-0.94c-0,-0.519 0.529,-0.941 1.178,-0.941" style="fill:#fff;fill-rule:nonzero;"/><path d="M408.127,276.361c0,-12.001 -9.744,-21.745 -21.745,-21.745l-43.49,-0c-12.002,-0 -21.745,9.744 -21.745,21.745l0,67.852c0,12.001 9.743,21.745 21.745,21.745l43.49,-0c12.001,-0 21.745,-9.744 21.745,-21.745l0,-67.852Z" style="fill:#0c3d3a;fill-rule:nonzero;"/><path d="M400.228,281.979c-0,-9.822 -7.974,-17.796 -17.796,-17.796l-35.591,0c-9.822,0 -17.796,7.974 -17.796,17.796l-0,56.616c-0,9.821 7.974,17.795 17.796,17.795l35.591,0c9.822,0 17.796,-7.974 17.796,-17.795l-0,-56.616Z" style="fill:#99d6d9;fill-rule:nonzero;"/><path d="M395.254,339.871c0.924,0.764 0.663,5.072 -2.154,8.48c-2.817,3.407 -7.131,4.632 -8.056,3.867c-0.924,-0.764 2.288,-2.537 5.105,-5.945c2.817,-3.407 4.18,-7.167 5.105,-6.402" style="fill:#fff;fill-rule:nonzero;"/><path d="M335.052,280.052c-0.803,-0.891 0.084,-5.115 3.369,-8.074c3.285,-2.96 7.731,-3.542 8.534,-2.65c0.803,0.891 -2.633,2.176 -5.918,5.135c-3.285,2.96 -5.182,6.48 -5.985,5.589" style="fill:#fff;fill-rule:nonzero;"/><path d="M335.167,283.827c0.966,0 1.751,0.84 1.751,1.875c0,1.035 -0.785,1.875 -1.751,1.875c-0.967,0 -1.752,-0.84 -1.752,-1.875c0,-1.035 0.785,-1.875 1.752,-1.875" style="fill:#fff;fill-rule:nonzero;"/><path d="M354.385,267.075c1.632,0 2.958,1.278 2.958,2.851c-0,1.573 -1.326,2.851 -2.958,2.851c-1.632,0 -2.958,-1.278 -2.958,-2.851c-0,-1.573 1.326,-2.851 2.958,-2.851" style="fill:#fff;fill-rule:nonzero;"/><path d="M355.854,230.752c4.415,0.512 8.495,-3.335 9.104,-8.586c0.61,-5.251 -2.48,-9.93 -6.895,-10.442l-2.209,19.028Z" style="fill:#f2a490;fill-rule:nonzero;"/><path d="M356.498,228.674c3.044,0.353 5.896,-2.646 6.366,-6.693c0.469,-4.048 -1.62,-7.62 -4.663,-7.974l-1.703,14.667Z" style="fill:#f2a490;fill-rule:nonzero;"/><path d="M359.446,206.634l-25.849,-0.256c0.017,10.867 1.314,21.003 4.479,30.069l17.843,-0c2.628,-9.662 3.524,-19.653 3.527,-29.813" style="fill:#f2a490;fill-rule:nonzero;"/><path d="M390.617,230.752c4.415,0.512 8.495,-3.335 9.105,-8.586c0.609,-5.251 -2.481,-9.93 -6.896,-10.442l-2.209,19.028Z" style="fill:#b1bc3a;fill-rule:nonzero;"/><path d="M392.018,228.386c2.756,0.32 5.36,-2.576 5.812,-6.464c0.451,-3.887 -1.421,-7.303 -4.177,-7.623l-1.635,14.087Z" style="fill:#b1bc3a;fill-rule:nonzero;"/><path d="M394.209,206.634l-25.849,-0.256c0.017,10.867 1.314,21.003 4.479,30.069l17.843,-0c2.629,-9.662 3.524,-19.653 3.527,-29.813" style="fill:#b1bc3a;fill-rule:nonzero;"/><path d="M419.006,232.586c2.993,0.347 5.759,-2.261 6.172,-5.821c0.413,-3.56 -1.681,-6.732 -4.675,-7.08l-1.497,12.901Z" style="fill:#f2a490;fill-rule:nonzero;"/><path d="M419.512,230.591c1.665,0.193 3.233,-1.524 3.501,-3.831c0.268,-2.307 -0.866,-4.338 -2.53,-4.531l-0.971,8.362Z" style="fill:#dbe477;fill-rule:nonzero;"/><path d="M421.441,216.234l-17.525,-0.173c0.011,7.368 0.891,14.239 3.037,20.386l12.097,-0c1.782,-6.551 2.389,-13.324 2.391,-20.213" style="fill:#f2a490;fill-rule:nonzero;"/><path d="M539.258,360.763c4.203,0.488 8.086,-3.174 8.666,-8.172c0.58,-4.998 -2.361,-9.452 -6.562,-9.94l-2.104,18.112Z" style="fill:#99d6d9;fill-rule:nonzero;"/><path d="M539.969,357.962c2.337,0.271 4.54,-2.139 4.916,-5.378c0.376,-3.24 -1.216,-6.09 -3.553,-6.361l-1.363,11.739Z" style="fill:#f27070;fill-rule:nonzero;"/><path d="M542.677,337.806l-24.604,-0.244c0.016,10.345 1.25,19.992 4.263,28.622l16.985,0c2.502,-9.197 3.353,-18.707 3.356,-28.378" style="fill:#99d6d9;fill-rule:nonzero;"/><rect x="523.229" y="348.868" width="6.25" height="5.769" style="fill:#478ba2;"/><path d="M526.353,345.688l3.125,3.18l-6.25,0l3.125,-3.18Z" style="fill:#478ba2;fill-rule:nonzero;"/><path d="M526.353,345.688l0,-7.553" style="fill:none;fill-rule:nonzero;stroke:#000;stroke-width:1px;"/><path d="M213.62,442.026c0,-0.605 -0.491,-1.097 -1.095,-1.097l-2.192,0c-0.605,0 -1.096,0.492 -1.096,1.097l0,39.631c0,0.604 0.491,1.096 1.096,1.096l2.192,0c0.604,0 1.095,-0.492 1.095,-1.096l0,-39.631Z" style="fill:#58c4c4;fill-rule:nonzero;"/><path d="M220.043,442.536c-0,-0.887 -0.719,-1.606 -1.606,-1.606l-3.211,0c-0.886,0 -1.606,0.719 -1.606,1.606l-0,38.611c-0,0.886 0.72,1.606 1.606,1.606l3.211,0c0.887,0 1.606,-0.72 1.606,-1.606l-0,-38.611Z" style="fill:#dbe139;fill-rule:nonzero;"/><path d="M209.237,448.082c-0,-1.09 -0.885,-1.975 -1.975,-1.975l-3.951,0c-1.09,0 -1.975,0.885 -1.975,1.975l-0,32.695c-0,1.09 0.885,1.976 1.975,1.976l3.951,0c1.09,0 1.975,-0.886 1.975,-1.976l-0,-32.695Z" style="fill:#fff;fill-rule:nonzero;"/><path d="M227.945,446.635c-0,-1.09 -0.885,-1.976 -1.975,-1.976l-3.951,-0c-1.091,-0 -1.976,0.886 -1.976,1.976l-0,34.143c-0,1.089 0.885,1.975 1.976,1.975l3.951,-0c1.09,-0 1.975,-0.886 1.975,-1.975l-0,-34.143Z" style="fill:#0f504c;fill-rule:nonzero;"/><path d="M243.14,446.029c-0.101,-0.618 -0.686,-1.039 -1.305,-0.938l-2.242,0.366c-0.619,0.1 -1.039,0.685 -0.938,1.303l5.77,35.355c0.101,0.619 0.686,1.039 1.304,0.937l2.243,-0.365c0.619,-0.101 1.039,-0.685 0.938,-1.304l-5.77,-35.354Z" style="fill:#feffff;fill-rule:nonzero;"/><path d="M248.282,446.029c-0.101,-0.618 -0.685,-1.039 -1.304,-0.938l-2.242,0.366c-0.619,0.1 -1.04,0.685 -0.939,1.303l5.771,35.355c0.101,0.619 0.685,1.039 1.304,0.937l2.242,-0.365c0.619,-0.101 1.039,-0.685 0.938,-1.304l-5.77,-35.354Z" style="fill:#e9765b;fill-rule:nonzero;"/><path d="M238.764,445.86c0,-1.493 -1.212,-2.705 -2.705,-2.705l-5.409,0c-1.493,0 -2.705,1.212 -2.705,2.705l0,34.188c0,1.493 1.212,2.705 2.705,2.705l5.409,0c1.493,0 2.705,-1.212 2.705,-2.705l0,-34.188Z" style="fill:#de5b6d;fill-rule:nonzero;"/><path d="M307.395,482.753c1.34,-0 2.428,-1.088 2.428,-2.428l0,-4.857c0,-1.34 -1.088,-2.428 -2.428,-2.428l-46.997,-0c-1.34,-0 -2.428,1.088 -2.428,2.428l0,4.857c0,1.34 1.088,2.428 2.428,2.428l46.997,-0Z" style="fill:#f27070;fill-rule:nonzero;"/><path d="M262.206,464.072c-1.238,0 -2.242,1.005 -2.242,2.242l0,4.484c0,1.238 1.004,2.242 2.242,2.242l39.376,0c1.238,0 2.243,-1.004 2.243,-2.242l0,-4.484c0,-1.237 -1.005,-2.242 -2.243,-2.242l-39.376,0Z" style="fill:#58c4c4;fill-rule:nonzero;"/><path d="M302.398,464.072c0.787,0 1.427,-0.64 1.427,-1.428l-0,-2.853c-0,-0.787 -0.64,-1.427 -1.427,-1.427l-38.524,0c-0.788,0 -1.427,0.64 -1.427,1.427l-0,2.853c-0,0.788 0.639,1.428 1.427,1.428l38.524,0Z" style="fill:#0e726a;fill-rule:nonzero;"/><path d="M297.921,458.364c0.788,0 1.427,-0.64 1.427,-1.427l-0,-2.853c-0,-0.788 -0.639,-1.427 -1.427,-1.427l-38.524,0c-0.787,0 -1.427,0.639 -1.427,1.427l-0,2.853c-0,0.787 0.64,1.427 1.427,1.427l38.524,0Z" style="fill:#0c3d3a;fill-rule:nonzero;"/><path d="M201.336,442.735c-0,-0.996 -0.809,-1.806 -1.805,-1.806l-3.609,0c-0.996,0 -1.805,0.81 -1.805,1.806l-0,38.213c-0,0.996 0.809,1.805 1.805,1.805l3.609,0c0.996,0 1.805,-0.809 1.805,-1.805l-0,-38.213Z" style="fill:#99d6d9;fill-rule:nonzero;"/><path d="M493.212,365.958c0.873,-0 1.582,-0.709 1.582,-1.582l-0,-3.163c-0,-0.873 -0.709,-1.581 -1.582,-1.581l-62.997,-0c-0.873,-0 -1.582,0.708 -1.582,1.581l-0,3.163c-0,0.873 0.709,1.582 1.582,1.582l62.997,-0Z" style="fill:#b9d4db;fill-rule:nonzero;"/><path d="M435.974,350.663c-1.238,0 -2.242,1.005 -2.242,2.242l0,4.485c0,1.237 1.004,2.242 2.242,2.242l51.48,0c1.237,0 2.242,-1.005 2.242,-2.242l0,-4.485c0,-1.237 -1.005,-2.242 -2.242,-2.242l-51.48,0Z" style="fill:#478ba2;fill-rule:nonzero;"/><path d="M478.916,350.663c1.255,0 2.273,-1.018 2.273,-2.273l-0,-4.547c-0,-1.255 -1.018,-2.274 -2.273,-2.274l-49.895,0c-1.255,0 -2.274,1.019 -2.274,2.274l-0,4.547c-0,1.255 1.019,2.273 2.274,2.273l49.895,0Z" style="fill:#e9765b;fill-rule:nonzero;"/><path d="M488.642,341.569c0.581,-0 1.054,-0.472 1.054,-1.054l0,-2.108c0,-0.582 -0.473,-1.054 -1.054,-1.054l-50.688,-0c-0.582,-0 -1.054,0.472 -1.054,1.054l0,2.108c0,0.582 0.472,1.054 1.054,1.054l50.688,-0Z" style="fill:#f2a490;fill-rule:nonzero;"/><path d="M268.847,512.446c0,-1.647 -1.336,-2.983 -2.983,-2.983l-52.08,0c-1.646,0 -2.983,1.336 -2.983,2.983l0,29.034c0,1.646 1.337,2.983 2.983,2.983l52.08,0c1.647,0 2.983,-1.337 2.983,-2.983l0,-29.034Z" style="fill:#f27070;fill-rule:nonzero;"/><path d="M212.175,515.362c-4.539,0 -8.224,2.599 -8.224,5.801c-0,3.201 3.685,5.8 8.224,5.8l-0,-11.601Z" style="fill:#f27070;fill-rule:nonzero;"/><path d="M267.465,526.963c4.539,-0 8.224,-2.599 8.224,-5.8c-0,-3.202 -3.685,-5.801 -8.224,-5.801l-0,11.601Z" style="fill:#f27070;fill-rule:nonzero;"/><path d="M210.303,517.647c-2.783,-0 -5.042,1.574 -5.042,3.516c0,1.941 2.259,3.514 5.042,3.514l0,-7.03Z" style="fill:#987f57;fill-rule:nonzero;"/><path d="M269.346,524.678c2.782,-0 5.042,-1.574 5.042,-3.515c0,-1.941 -2.26,-3.516 -5.042,-3.516l0,7.031Z" style="fill:#987f57;fill-rule:nonzero;"/><rect x="237.437" y="504.205" width="4.825" height="2.624" style="fill:#f27070;"/><path d="M239.876,502.657c1.345,0 2.438,0.455 2.438,1.015c0,0.561 -1.093,1.015 -2.438,1.015c-1.346,0 -2.439,-0.454 -2.439,-1.015c0,-0.56 1.093,-1.015 2.439,-1.015" style="fill:#f27070;fill-rule:nonzero;"/><path d="M274.388,509.136c0,-1.272 -1.034,-2.307 -2.308,-2.307l-64.512,-0c-1.273,-0 -2.307,1.035 -2.307,2.307l0,0.653c0,1.274 1.034,2.308 2.307,2.308l64.512,-0c1.274,-0 2.308,-1.034 2.308,-2.308l0,-0.653Z" style="fill:#f27070;fill-rule:nonzero;"/><path d="M272.353,542.584c5.533,5.604 18.654,2.426 29.502,-7.289c10.848,-9.715 15.448,-22.408 10.486,-28.523l-39.988,35.812Z" style="fill:#58c4c4;fill-rule:nonzero;"/><path d="M272.373,542.607c3.802,3.67 12.473,-4.461 23.321,-14.176c10.848,-9.715 19.898,-17.455 16.668,-21.637l-39.989,35.813Z" style="fill:#0e726a;fill-rule:nonzero;"/><path d="M305.367,533.586c0.629,0.602 0.501,1.758 -0.286,2.584c-0.788,0.825 -1.938,1.008 -2.567,0.407c-0.63,-0.6 -0.502,-1.758 0.286,-2.583c0.787,-0.826 1.937,-1.008 2.567,-0.408" style="fill:#58c4c4;fill-rule:nonzero;"/><path d="M226.874,333.038c0,0 -0.036,-39.645 7.361,-46.629" style="fill:none;fill-rule:nonzero;stroke:#0c3d3a;stroke-width:1px;"/><path d="M226.874,333.038c0,0 0.036,-39.645 -7.361,-46.629" style="fill:none;fill-rule:nonzero;stroke:#0c3d3a;stroke-width:1px;"/><path d="M226.874,327.094c0,-0 -0.036,-39.646 7.361,-46.63" style="fill:none;fill-rule:nonzero;stroke:#0c3d3a;stroke-width:1px;"/><path d="M226.874,327.094c-0,-0 0.036,-39.646 -7.361,-46.63" style="fill:none;fill-rule:nonzero;stroke:#0c3d3a;stroke-width:1px;"/><path d="M226.874,340.004c0,-0 -0.036,-39.646 7.361,-46.63" style="fill:none;fill-rule:nonzero;stroke:#0c3d3a;stroke-width:1px;"/><path d="M226.874,340.004c-0,-0 0.036,-39.646 -7.361,-46.63" style="fill:none;fill-rule:nonzero;stroke:#0c3d3a;stroke-width:1px;"/><path d="M232.998,314.952l-11.619,0l0,9.666c-11.639,13.145 -17.382,25.886 -4.822,41.196l24.062,0.029c7.293,-13.972 6.81,-27.726 -7.621,-41.09l0,-9.801Z" style="fill:#f7a6a2;fill-rule:nonzero;"/><path d="M218.918,277.647c1.185,0 2.147,0.968 2.147,2.159c0,1.192 -0.962,2.16 -2.147,2.16c-1.185,0 -2.148,-0.968 -2.148,-2.16c0,-1.191 0.963,-2.159 2.148,-2.159" style="fill:#478ba2;fill-rule:nonzero;"/><path d="M229.42,290.921c0.626,-0 1.135,0.549 1.135,1.227c-0,0.677 -0.509,1.226 -1.135,1.226c-0.627,-0 -1.136,-0.549 -1.136,-1.226c-0,-0.678 0.509,-1.227 1.136,-1.227" style="fill:#de5b6d;fill-rule:nonzero;"/><path d="M218.889,292.148c0.718,-0 1.301,0.573 1.301,1.28c0,0.707 -0.583,1.28 -1.301,1.28c-0.718,-0 -1.301,-0.573 -1.301,-1.28c0,-0.707 0.583,-1.28 1.301,-1.28" style="fill:#e9765b;fill-rule:nonzero;"/><path d="M230.682,305.154c0.696,-0 1.262,0.634 1.262,1.414c0,0.781 -0.566,1.415 -1.262,1.415c-0.697,-0 -1.262,-0.634 -1.262,-1.415c0,-0.78 0.565,-1.414 1.262,-1.414" style="fill:#de5b6d;fill-rule:nonzero;"/><path d="M235.258,278.965c0.564,-0 1.022,0.451 1.022,1.006c-0,0.555 -0.458,1.006 -1.022,1.006c-0.564,-0 -1.023,-0.451 -1.023,-1.006c-0,-0.555 0.459,-1.006 1.023,-1.006" style="fill:#f2a490;fill-rule:nonzero;"/><path d="M225.034,311.763c1.015,0 1.84,0.832 1.84,1.857c0,1.025 -0.825,1.857 -1.84,1.857c-1.016,0 -1.841,-0.832 -1.841,-1.857c0,-1.025 0.825,-1.857 1.841,-1.857" style="fill:#478ba2;fill-rule:nonzero;"/><path d="M287.909,314.776l-19.196,-0l-7.996,51.154l36.362,-0l-9.17,-51.154Z" style="fill:#41bfb4;fill-rule:nonzero;"/><path d="M270.867,294.445l1.291,0.109l-0.646,10.138l1.923,-9.922l1.263,0.324l-1.922,9.921l3.158,-9.494l1.209,0.532l-3.158,9.494l4.327,-8.864l1.128,0.728l-4.327,8.864l5.404,-8.045l1.024,0.909l-5.403,8.046l6.365,-7.056l0.898,1.072l-6.365,7.055l7.191,-5.915l0.753,1.21l-7.191,5.915l7.863,-4.648l0.592,1.323l-7.863,4.648l8.368,-3.282l0.418,1.408l-8.368,3.283l8.694,-1.847l0.235,1.463l-8.694,1.847l8.835,-0.371l0.048,1.487l-8.836,0.371l8.789,1.112l-0.142,1.479l-8.789,-1.112l8.555,2.571l-0.328,1.439l-8.554,-2.571l8.137,3.976l-0.506,1.369l-8.137,-3.975l7.547,5.295l-0.674,1.27l-7.547,-5.295l6.796,6.502l-0.828,1.144l-6.796,-6.502l5.9,7.57l-0.964,0.993l-5.9,-7.57l4.878,8.477l-1.079,0.821l-4.879,-8.477l3.753,9.204l-1.172,0.631l-3.752,-9.204l2.547,9.734l-1.24,0.429l-2.547,-9.734l1.288,10.057l-1.281,0.216l-1.287,-10.056l0,10.165l-1.295,-0l0,-10.165l-1.287,10.056l-1.28,-0.216l1.287,-10.057l-2.547,9.734l-1.24,-0.429l2.548,-9.734l-3.753,9.204l-1.172,-0.631l3.753,-9.204l-4.879,8.477l-1.079,-0.821l4.878,-8.477l-5.9,7.57l-0.964,-0.993l5.9,-7.57l-6.796,6.502l-0.828,-1.144l6.796,-6.502l-7.547,5.295l-0.674,-1.27l7.547,-5.295l-8.137,3.975l-0.506,-1.369l8.137,-3.976l-8.554,2.571l-0.327,-1.439l8.554,-2.571l-8.789,1.112l-0.141,-1.479l8.788,-1.112l-8.836,-0.371l0.048,-1.487l8.835,0.371l-8.694,-1.847l0.235,-1.463l8.695,1.847l-8.369,-3.283l0.418,-1.408l8.368,3.282l-7.863,-4.648l0.592,-1.323l7.863,4.648l-7.191,-5.915l0.753,-1.21l7.191,5.915l-6.365,-7.055l0.898,-1.072l6.366,7.056l-5.404,-8.046l1.024,-0.909l5.404,8.045l-4.327,-8.864l1.128,-0.728l4.328,8.864l-3.159,-9.494l1.209,-0.532l3.158,9.494l-1.922,-9.921l1.263,-0.324l1.923,9.922l-0.646,-10.138l1.291,-0.109l0.646,10.138l0.645,-10.138Z" style="fill:#dbe139;fill-rule:nonzero;"/><path d="M291.97,283.259l1.291,0.108l-0.645,10.138l1.922,-9.922l1.264,0.324l-1.923,9.922l3.159,-9.495l1.208,0.532l-3.158,9.494l4.327,-8.864l1.129,0.728l-4.327,8.864l5.403,-8.045l1.025,0.909l-5.404,8.046l6.365,-7.055l0.898,1.071l-6.365,7.055l7.191,-5.915l0.753,1.211l-7.191,5.914l7.864,-4.648l0.591,1.324l-7.863,4.648l8.368,-3.283l0.418,1.409l-8.368,3.282l8.695,-1.847l0.235,1.464l-8.695,1.846l8.836,-0.371l0.047,1.487l-8.836,0.371l8.789,1.112l-0.142,1.479l-8.788,-1.112l8.554,2.571l-0.327,1.44l-8.555,-2.571l8.138,3.975l-0.506,1.37l-8.138,-3.976l7.547,5.295l-0.674,1.271l-7.547,-5.296l6.796,6.502l-0.828,1.144l-6.796,-6.502l5.9,7.571l-0.964,0.992l-5.9,-7.57l4.879,8.477l-1.08,0.821l-4.878,-8.477l3.753,9.204l-1.172,0.631l-3.753,-9.204l2.547,9.734l-1.239,0.429l-2.547,-9.734l1.287,10.057l-1.281,0.216l-1.287,-10.056l0,10.165l-1.294,-0l0,-10.165l-1.288,10.056l-1.28,-0.216l1.287,-10.057l-2.547,9.734l-1.239,-0.429l2.547,-9.734l-3.753,9.204l-1.172,-0.631l3.753,-9.204l-4.878,8.477l-1.08,-0.821l4.879,-8.477l-5.901,7.57l-0.963,-0.992l5.9,-7.571l-6.796,6.502l-0.828,-1.144l6.796,-6.502l-7.547,5.296l-0.675,-1.271l7.548,-5.295l-8.138,3.976l-0.506,-1.37l8.137,-3.975l-8.554,2.571l-0.327,-1.44l8.554,-2.571l-8.789,1.112l-0.141,-1.479l8.789,-1.112l-8.836,-0.371l0.047,-1.487l8.836,0.371l-8.695,-1.846l0.235,-1.464l8.695,1.847l-8.368,-3.282l0.418,-1.409l8.368,3.283l-7.863,-4.648l0.591,-1.324l7.864,4.648l-7.191,-5.914l0.753,-1.211l7.191,5.915l-6.365,-7.055l0.898,-1.071l6.365,7.055l-5.404,-8.046l1.025,-0.909l5.403,8.045l-4.327,-8.864l1.129,-0.728l4.327,8.864l-3.159,-9.494l1.209,-0.532l3.159,9.495l-1.923,-9.922l1.264,-0.324l1.922,9.922l-0.645,-10.138l1.291,-0.108l0.645,10.138l0.645,-10.138Z" style="fill:#478ba2;fill-rule:nonzero;"/><path d="M274.129,275.76l0.999,0.084l-0.5,7.838l1.488,-7.671l0.977,0.25l-1.487,7.671l2.444,-7.34l0.935,0.411l-2.444,7.34l3.348,-6.853l0.873,0.563l-3.348,6.853l4.181,-6.22l0.793,0.703l-4.181,6.22l4.925,-5.455l0.695,0.828l-4.925,5.455l5.563,-4.573l0.583,0.936l-5.563,4.572l6.083,-3.593l0.458,1.023l-6.084,3.593l6.475,-2.537l0.323,1.089l-6.474,2.537l6.727,-1.427l0.181,1.131l-6.726,1.427l6.836,-0.287l0.036,1.15l-6.836,0.287l6.8,0.859l-0.11,1.144l-6.799,-0.86l6.618,1.988l-0.253,1.113l-6.619,-1.988l6.296,3.074l-0.391,1.058l-6.296,-3.073l5.839,4.094l-0.522,0.982l-5.839,-4.094l5.258,5.027l-0.64,0.884l-5.258,-5.027l4.564,5.853l-0.745,0.768l-4.565,-5.853l3.774,6.554l-0.835,0.634l-3.774,-6.554l2.903,7.116l-0.906,0.488l-2.904,-7.115l1.971,7.525l-0.959,0.331l-1.971,-7.525l0.996,7.775l-0.991,0.167l-0.996,-7.774l-0,7.858l-1.001,-0l-0,-7.858l-0.996,7.774l-0.991,-0.167l0.996,-7.775l-1.97,7.525l-0.959,-0.331l1.971,-7.525l-2.904,7.115l-0.907,-0.488l2.904,-7.116l-3.775,6.554l-0.835,-0.634l3.775,-6.554l-4.565,5.853l-0.746,-0.768l4.565,-5.853l-5.258,5.027l-0.641,-0.884l5.258,-5.027l-5.839,4.094l-0.521,-0.982l5.839,-4.094l-6.296,3.073l-0.392,-1.058l6.296,-3.074l-6.618,1.988l-0.253,-1.113l6.618,-1.988l-6.8,0.86l-0.109,-1.144l6.799,-0.859l-6.836,-0.287l0.037,-1.15l6.836,0.287l-6.727,-1.427l0.182,-1.131l6.727,1.427l-6.474,-2.537l0.323,-1.089l6.474,2.537l-6.084,-3.593l0.458,-1.023l6.084,3.593l-5.563,-4.572l0.582,-0.936l5.564,4.573l-4.925,-5.455l0.695,-0.828l4.925,5.455l-4.181,-6.22l0.792,-0.703l4.181,6.22l-3.348,-6.853l0.874,-0.563l3.347,6.853l-2.443,-7.34l0.935,-0.411l2.444,7.34l-1.488,-7.671l0.978,-0.25l1.487,7.671l-0.499,-7.838l0.998,-0.084l0.5,7.838l0.499,-7.838Z" style="fill:#0c3d3a;fill-rule:nonzero;"/><path d="M184.02,450.518l-151.647,-0c-1.122,8.679 3.687,22.187 12.205,23.611c23.537,3.937 105.777,3.937 129.017,-0c8.256,-1.397 9.597,-15.224 10.425,-23.611" style="fill:#b95d47;fill-rule:nonzero;"/><path d="M108.116,439.709c41.893,0 75.904,5.397 75.904,12.045c0,6.648 -34.011,12.046 -75.904,12.046c-41.893,0 -75.905,-5.398 -75.905,-12.046c0,-6.648 34.012,-12.045 75.905,-12.045" style="fill:#e9765b;fill-rule:nonzero;"/><ellipse cx="108.225" cy="609.941" rx="61.695" ry="14.349" style="fill:none;stroke:#8d4431;stroke-width:4.1px;"/><path d="M184.02,698.397c-47.883,29.314 -98.633,27.936 -151.863,-0l37.966,-227.082l75.931,0l37.966,227.082Z" style="fill:none;fill-rule:nonzero;stroke:#ba5d46;stroke-width:4.1px;"/><path d="M169.92,649.625c-38.906,23.019 -80.14,21.936 -123.39,0l30.848,-178.31l61.695,-0l30.847,178.31Z" style="fill:none;fill-rule:nonzero;stroke:#ba5d46;stroke-width:4.1px;"/><path d="M682.697,213.841c0,-1.562 -1.269,-2.83 -2.83,-2.83l-56.967,-0c-1.561,-0 -2.829,1.268 -2.829,2.83l0,68.954c0,1.562 1.268,2.83 2.829,2.83l56.967,-0c1.561,-0 2.83,-1.268 2.83,-2.83l0,-68.954Z" style="fill:#fff;fill-rule:nonzero;"/><path d="M677.381,229.95c-0,-7.174 -5.825,-12.998 -12.999,-12.998l-25.997,0c-7.174,0 -12.998,5.824 -12.998,12.998l-0,36.736c-0,7.174 5.824,12.998 12.998,12.998l25.997,0c7.174,0 12.999,-5.824 12.999,-12.998l-0,-36.736Z" style="fill:#b9d4db;fill-rule:nonzero;"/><path d="M639.666,268.549c0.103,0.064 -0.139,-2.012 -0.137,-2.075c0.051,-1.375 0.379,-3.277 0.917,-4.544c1.784,-4.204 5.372,-6.529 7.924,-10.113c0.74,-1.039 1.519,-2.653 1.615,-3.981c0.043,-0.592 -0.105,-1.194 -0.284,-1.757c-0.076,-0.239 -0.695,-0.451 -0.695,-0.199" style="fill:none;fill-rule:nonzero;stroke:#0c3d3a;stroke-width:1px;"/><path d="M646.322,244.63c-0.001,-0.004 -0.001,-0.007 -0.001,-0.011" style="fill:none;fill-rule:nonzero;stroke:#0c3d3a;stroke-width:1px;"/><path d="M651.011,243.498c-0.034,-0.015 -0.015,-0.024 -0.015,-0.072" style="fill:none;fill-rule:nonzero;stroke:#0c3d3a;stroke-width:1px;"/><path d="M651.709,253.354c0.012,0.073 0.014,0.058 0.014,0.12" style="fill:none;fill-rule:nonzero;stroke:#0c3d3a;stroke-width:1px;"/><path d="M649.16,246.236c-0.146,-0.312 -0.487,-0.426 -0.799,-0.433c-0.515,-0.011 -1.218,0.236 -1.44,0.773c-0.088,0.213 -0.028,0.42 0.152,0.548c0.26,0.186 0.732,0.232 1.017,0.082c0.194,-0.102 0.415,-0.271 0.569,-0.431c0.276,-0.289 0.328,-0.709 0.6,-0.995" style="fill:none;fill-rule:nonzero;stroke:#0c3d3a;stroke-width:1px;"/><path d="M649.503,245.672c-0.14,0.05 -0.2,-0.318 -0.213,-0.356c-0.143,-0.431 -0.393,-0.942 -0.284,-1.426c0.028,-0.125 0.165,-0.419 0.348,-0.365c0.074,0.023 0.142,0.067 0.209,0.11c0.688,0.453 0.216,1.412 0.021,1.999c-0.072,0.217 -0.167,0.472 -0.167,0.71" style="fill:none;fill-rule:nonzero;stroke:#0c3d3a;stroke-width:1px;"/><path d="M646.502,253.544c-0.482,-0.783 -0.904,-1.454 -0.876,-2.425c0.012,-0.41 0.245,-0.931 0.498,-1.235c0.183,-0.221 0.375,0.109 0.415,0.252c0.067,0.241 0.008,0.733 0.003,0.917c-0.025,0.895 -0.063,1.791 -0.063,2.686" style="fill:none;fill-rule:nonzero;stroke:#0c3d3a;stroke-width:1px;"/><path d="M644.873,256.136c-0.034,-0.27 0.326,-0.604 0.469,-0.739c0.37,-0.35 0.677,-0.607 1.138,-0.816c0.576,-0.262 1.219,-0.372 1.759,-0.708c0.322,-0.2 0.461,-0.659 0.799,-0.83c0.084,-0.043 0.009,0.199 -0.012,0.294c-0.021,0.096 -0.067,0.185 -0.115,0.27c-0.382,0.67 -0.802,1.449 -1.365,1.997c-0.687,0.668 -1.606,1.123 -2.52,1.319c-0.56,0.12 -1.959,-0.006 -1.959,0.995" style="fill:none;fill-rule:nonzero;stroke:#0c3d3a;stroke-width:1px;"/><path d="M640.005,262.8c0.341,-1.22 0.042,-2.519 -0.442,-3.637c-0.118,-0.271 -0.461,-0.736 -0.697,-0.914c-0.49,-0.368 -0.56,-0.184 -1.105,-0.464c-0.18,-0.092 -0.325,-0.246 -0.492,-0.363c-0.149,-0.104 -0.287,-0.365 -0.456,-0.3c-0.139,0.053 -0,0.313 0.031,0.464c0.105,0.481 0.213,0.964 0.379,1.426c0.212,0.588 0.69,1.342 1.106,1.791c0.416,0.449 0.995,0.565 1.269,1.168c0.197,0.433 0.247,1.087 0.247,1.518" style="fill:none;fill-rule:nonzero;stroke:#0c3d3a;stroke-width:1px;"/><path d="M639.767,266.621c-0.073,-0.222 0.014,-0.662 0.048,-0.877c0.201,-1.277 0.806,-2.489 2.126,-2.762c0.554,-0.115 0.781,-0.02 1.384,-0.02c0.272,0 0.547,0.004 0.816,-0.037c0.176,-0.026 0.381,-0.297 0.506,-0.166c0.112,0.118 -0.258,0.192 -0.379,0.299c-0.217,0.192 -0.439,0.379 -0.632,0.597c-0.523,0.59 -1.014,1.212 -1.515,1.824c-0.746,0.907 -1.325,1.625 -2.56,1.625" style="fill:none;fill-rule:nonzero;stroke:#0c3d3a;stroke-width:1px;"/><path d="M638.1,252.927c0.016,0.03 0.013,0.012 -0.023,0.049" style="fill:none;fill-rule:nonzero;stroke:#0c3d3a;stroke-width:1px;"/><path d="M640.784,254.882c0.054,-0.064 0.086,-0.082 0.167,-0.082" style="fill:none;fill-rule:nonzero;stroke:#0c3d3a;stroke-width:1px;"/><path d="M635.94,255.868c0.029,-0.01 0.013,-0.006 0.052,-0.006" style="fill:none;fill-rule:nonzero;stroke:#0c3d3a;stroke-width:1px;"/><path d="M642.684,268.061c-0.024,-0.057 -0.019,-0.087 -0.059,-0.128" style="fill:none;fill-rule:nonzero;stroke:#0c3d3a;stroke-width:1px;"/><path d="M647.142,266.943c-0.101,0.076 -0.073,0.094 -0.157,0.094" style="fill:none;fill-rule:nonzero;stroke:#0c3d3a;stroke-width:1px;"/><path d="M644.983,259.429c0.004,0.005 0.007,0.009 0.011,0.014" style="fill:none;fill-rule:nonzero;stroke:#0c3d3a;stroke-width:1px;"/><path d="M662.645,273.811c-0.063,0.042 0.058,-1.255 0.056,-1.294c-0.052,-0.855 -0.284,-2.035 -0.635,-2.816c-1.173,-2.594 -3.441,-3.991 -5.081,-6.187c-0.476,-0.637 -0.985,-1.631 -1.063,-2.456c-0.036,-0.369 0.048,-0.745 0.152,-1.099c0.044,-0.15 0.426,-0.29 0.429,-0.133" style="fill:none;fill-rule:nonzero;stroke:#0c3d3a;stroke-width:1px;"/><path d="M658.158,259.01l0,-0.007" style="fill:none;fill-rule:nonzero;stroke:#0c3d3a;stroke-width:1px;"/><path d="M655.222,258.371c0.021,-0.01 0.01,-0.016 0.009,-0.046" style="fill:none;fill-rule:nonzero;stroke:#0c3d3a;stroke-width:1px;"/><path d="M654.928,264.518c-0.006,0.045 -0.008,0.035 -0.007,0.074" style="fill:none;fill-rule:nonzero;stroke:#0c3d3a;stroke-width:1px;"/><path d="M656.414,260.05c0.086,-0.197 0.297,-0.272 0.491,-0.281c0.32,-0.014 0.761,0.13 0.907,0.461c0.058,0.131 0.023,0.261 -0.086,0.343c-0.159,0.12 -0.453,0.155 -0.632,0.066c-0.123,-0.061 -0.262,-0.163 -0.361,-0.261c-0.176,-0.176 -0.215,-0.437 -0.388,-0.611" style="fill:none;fill-rule:nonzero;stroke:#0c3d3a;stroke-width:1px;"/><path d="M656.192,259.703c0.088,0.029 0.12,-0.201 0.127,-0.225c0.084,-0.27 0.231,-0.592 0.156,-0.891c-0.019,-0.078 -0.108,-0.259 -0.221,-0.223c-0.046,0.015 -0.088,0.044 -0.128,0.072c-0.422,0.291 -0.116,0.882 0.014,1.244c0.049,0.135 0.112,0.292 0.114,0.44" style="fill:none;fill-rule:nonzero;stroke:#0c3d3a;stroke-width:1px;"/><path d="M658.173,264.563c0.289,-0.494 0.542,-0.918 0.511,-1.522c-0.013,-0.255 -0.166,-0.577 -0.326,-0.762c-0.119,-0.135 -0.233,0.073 -0.256,0.162c-0.039,0.151 0.006,0.457 0.011,0.572c0.028,0.557 0.065,1.114 0.078,1.671" style="fill:none;fill-rule:nonzero;stroke:#0c3d3a;stroke-width:1px;"/><path d="M659.225,266.154c0.018,-0.168 -0.212,-0.371 -0.303,-0.453c-0.234,-0.213 -0.43,-0.369 -0.719,-0.493c-0.364,-0.155 -0.765,-0.214 -1.106,-0.416c-0.204,-0.12 -0.297,-0.404 -0.51,-0.506c-0.052,-0.025 -0.003,0.124 0.012,0.184c0.015,0.059 0.044,0.114 0.075,0.166c0.248,0.412 0.521,0.891 0.878,1.224c0.439,0.407 1.018,0.677 1.589,0.786c0.351,0.067 1.22,-0.031 1.234,0.593" style="fill:none;fill-rule:nonzero;stroke:#0c3d3a;stroke-width:1px;"/><path d="M662.351,270.236c-0.229,-0.755 -0.062,-1.568 0.225,-2.271c0.068,-0.17 0.275,-0.465 0.42,-0.579c0.299,-0.236 0.346,-0.122 0.681,-0.304c0.111,-0.06 0.199,-0.158 0.302,-0.233c0.092,-0.067 0.174,-0.231 0.279,-0.193c0.087,0.031 0.005,0.195 -0.012,0.289c-0.058,0.301 -0.12,0.604 -0.216,0.893c-0.123,0.37 -0.41,0.845 -0.663,1.131c-0.252,0.285 -0.612,0.366 -0.774,0.745c-0.117,0.273 -0.138,0.68 -0.132,0.949" style="fill:none;fill-rule:nonzero;stroke:#0c3d3a;stroke-width:1px;"/><path d="M662.555,272.612c0.042,-0.139 -0.018,-0.412 -0.042,-0.546c-0.145,-0.792 -0.538,-1.538 -1.363,-1.69c-0.347,-0.063 -0.488,-0.002 -0.863,0.007c-0.17,0.004 -0.34,0.011 -0.509,-0.011c-0.11,-0.015 -0.242,-0.18 -0.318,-0.097c-0.068,0.075 0.164,0.116 0.241,0.181c0.137,0.116 0.278,0.23 0.403,0.363c0.334,0.36 0.648,0.741 0.97,1.114c0.476,0.555 0.846,0.994 1.616,0.977" style="fill:none;fill-rule:nonzero;stroke:#0c3d3a;stroke-width:1px;"/><path d="M663.396,264.062c-0.01,0.018 -0.008,0.007 0.016,0.03" style="fill:none;fill-rule:nonzero;stroke:#0c3d3a;stroke-width:1px;"/><path d="M661.753,265.316c-0.034,-0.038 -0.055,-0.049 -0.104,-0.048" style="fill:none;fill-rule:nonzero;stroke:#0c3d3a;stroke-width:1px;"/><path d="M664.783,265.863c-0.019,-0.006 -0.008,-0.004 -0.032,-0.004" style="fill:none;fill-rule:nonzero;stroke:#0c3d3a;stroke-width:1px;"/><path d="M660.759,273.549c0.015,-0.035 0.01,-0.054 0.034,-0.08" style="fill:none;fill-rule:nonzero;stroke:#0c3d3a;stroke-width:1px;"/><path d="M657.967,272.915c0.064,0.046 0.047,0.058 0.1,0.057" style="fill:none;fill-rule:nonzero;stroke:#0c3d3a;stroke-width:1px;"/><path d="M659.204,268.206c-0.003,0.003 -0.005,0.006 -0.008,0.009" style="fill:none;fill-rule:nonzero;stroke:#0c3d3a;stroke-width:1px;"/><path d="M644.504,225.387c-0.147,0.077 2.509,1.227 2.584,1.274c1.613,1.009 3.668,2.706 4.816,4.209c3.81,4.99 4.121,10.793 6.657,16.252c0.735,1.583 2.132,3.609 3.659,4.638c0.681,0.459 1.504,0.702 2.305,0.881c0.338,0.077 1.02,-0.501 0.718,-0.675" style="fill:none;fill-rule:nonzero;stroke:#0c3d3a;stroke-width:1px;"/><path d="M668.596,249.689c0.004,0.003 0.008,0.005 0.013,0.007" style="fill:none;fill-rule:nonzero;stroke:#0c3d3a;stroke-width:1px;"/><path d="M666.714,255.955c0.042,-0.029 0.04,0 0.099,0.033" style="fill:none;fill-rule:nonzero;stroke:#0c3d3a;stroke-width:1px;"/><path d="M654.411,249.966c-0.095,-0.037 -0.078,-0.024 -0.152,-0.067" style="fill:none;fill-rule:nonzero;stroke:#0c3d3a;stroke-width:1px;"/><path d="M664.709,251.899c0.475,0.046 0.847,-0.275 1.071,-0.635c0.369,-0.594 0.558,-1.586 0.067,-2.217c-0.194,-0.25 -0.484,-0.321 -0.761,-0.201c-0.404,0.175 -0.785,0.696 -0.802,1.133c-0.011,0.297 0.039,0.671 0.125,0.962c0.154,0.524 0.624,0.874 0.779,1.389" style="fill:none;fill-rule:nonzero;stroke:#0c3d3a;stroke-width:1px;"/><path d="M665.148,252.69c0.036,-0.198 0.52,-0.013 0.573,-0.002c0.616,0.129 1.403,0.191 1.907,0.652c0.13,0.119 0.389,0.483 0.199,0.658c-0.079,0.072 -0.179,0.121 -0.277,0.168c-1.018,0.493 -1.842,-0.721 -2.412,-1.354c-0.211,-0.234 -0.451,-0.522 -0.736,-0.686" style="fill:none;fill-rule:nonzero;stroke:#0c3d3a;stroke-width:1px;"/><path d="M657.78,243.744c1.271,-0.023 2.366,-0.052 3.513,0.651c0.483,0.297 0.948,0.93 1.136,1.434c0.14,0.368 -0.388,0.364 -0.587,0.312c-0.335,-0.088 -0.886,-0.496 -1.103,-0.629c-1.057,-0.648 -2.104,-1.311 -3.179,-1.929" style="fill:none;fill-rule:nonzero;stroke:#0c3d3a;stroke-width:1px;"/><path d="M655.796,240.05c0.347,0.147 0.499,0.798 0.562,1.058c0.166,0.674 0.26,1.213 0.193,1.895c-0.084,0.855 -0.395,1.682 -0.365,2.545c0.018,0.516 0.471,0.995 0.444,1.508c-0.007,0.129 -0.246,-0.126 -0.346,-0.217c-0.1,-0.091 -0.175,-0.205 -0.243,-0.32c-0.54,-0.91 -1.184,-1.939 -1.453,-2.975c-0.327,-1.266 -0.238,-2.655 0.159,-3.859c0.243,-0.738 1.36,-2.287 0.159,-2.978" style="fill:none;fill-rule:nonzero;stroke:#0c3d3a;stroke-width:1px;"/><path d="M651.165,229.754c1.228,1.241 2.992,1.788 4.669,1.994c0.404,0.05 1.2,-0.03 1.576,-0.183c0.779,-0.319 0.608,-0.528 1.32,-0.973c0.235,-0.146 0.519,-0.21 0.774,-0.324c0.229,-0.103 0.637,-0.084 0.676,-0.326c0.031,-0.199 -0.375,-0.218 -0.579,-0.284c-0.649,-0.21 -1.304,-0.417 -1.972,-0.541c-0.852,-0.158 -2.085,-0.12 -2.911,0.056c-0.826,0.177 -1.365,0.774 -2.278,0.678c-0.655,-0.069 -1.474,-0.462 -1.991,-0.759" style="fill:none;fill-rule:nonzero;stroke:#0c3d3a;stroke-width:1px;"/><path d="M646.747,226.836c0.315,0.068 0.785,0.473 1.019,0.661c1.392,1.12 2.429,2.662 1.845,4.394c-0.245,0.727 -0.516,0.929 -0.931,1.633c-0.189,0.319 -0.385,0.637 -0.521,0.981c-0.089,0.223 0.093,0.651 -0.151,0.706c-0.217,0.05 -0.051,-0.434 -0.096,-0.649c-0.08,-0.386 -0.152,-0.775 -0.279,-1.151c-0.347,-1.021 -0.754,-2.024 -1.141,-3.033c-0.574,-1.498 -1.035,-2.671 -0.182,-4.115" style="fill:none;fill-rule:nonzero;stroke:#0c3d3a;stroke-width:1px;"/><path d="M664.322,234.343c-0.047,-0.002 -0.023,0.007 -0.043,-0.061" style="fill:none;fill-rule:nonzero;stroke:#0c3d3a;stroke-width:1px;"/><path d="M660.124,236.133c0.039,0.107 0.038,0.157 -0.018,0.252" style="fill:none;fill-rule:nonzero;stroke:#0c3d3a;stroke-width:1px;"/><path d="M662.286,229.787c-0.009,0.042 -0.001,0.02 -0.028,0.065" style="fill:none;fill-rule:nonzero;stroke:#0c3d3a;stroke-width:1px;"/><path d="M643.006,229.254c0.085,0.01 0.117,0.038 0.194,0.02" style="fill:none;fill-rule:nonzero;stroke:#0c3d3a;stroke-width:1px;"/><path d="M641.268,235.24c-0.021,-0.171 -0.062,-0.152 -0.005,-0.249" style="fill:none;fill-rule:nonzero;stroke:#0c3d3a;stroke-width:1px;"/><path d="M651.772,237.904c-0.01,0.001 -0.019,0.002 -0.025,0.004" style="fill:none;fill-rule:nonzero;stroke:#0c3d3a;stroke-width:1px;"/><path d="M650.177,222.143c-7.693,-2.558 -18.196,4.427 -18.412,9.607c-0.14,3.396 7.533,6.183 10.653,11.297c2.868,4.701 1.089,11.801 3.395,13.66c4.812,3.884 10.209,0.269 12.948,-5.471c0.968,-2.028 3.283,-8.27 2.433,-13.239c-1.305,-7.621 -6.845,-14.466 -11.017,-15.854Z" style="fill:none;fill-rule:nonzero;stroke:#0c3d3a;stroke-width:1px;"/><path d="M668.28,252.037c10.979,-12.467 -7.491,-19.315 -16.558,-11.349c-2.593,2.279 -5.379,7.034 -8.108,12.484c-2.509,5.009 -10.323,6.277 -10.545,9.465c-0.464,6.658 6.472,10.642 13.646,10.957c2.534,0.111 10.286,0.202 13.988,-3.276c4.495,-4.224 2.436,-12.444 7.577,-18.281Z" style="fill:none;fill-rule:nonzero;stroke:#0c3d3a;stroke-width:1px;"/><path d="M629.136,210.171c0.309,-0.315 0.291,-0.809 -0.036,-1.103l-1.186,-1.064c-0.327,-0.293 -0.841,-0.276 -1.149,0.039l-9.976,10.228c-0.306,0.315 -0.291,0.809 0.037,1.102l1.185,1.064c0.327,0.294 0.843,0.277 1.15,-0.038l9.975,-10.228Z" style="fill:#b9d4db;fill-rule:nonzero;"/><path d="M629.136,285.692c0.309,0.315 0.291,0.81 -0.036,1.103l-1.186,1.064c-0.327,0.294 -0.841,0.277 -1.149,-0.038l-9.976,-10.228c-0.306,-0.315 -0.291,-0.809 0.037,-1.103l1.185,-1.064c0.327,-0.294 0.843,-0.276 1.15,0.039l9.975,10.227Z" style="fill:#b9d4db;fill-rule:nonzero;"/><path d="M673.244,211.122c-0.307,-0.315 -0.291,-0.809 0.036,-1.103l1.186,-1.064c0.327,-0.293 0.841,-0.276 1.149,0.039l9.976,10.228c0.307,0.315 0.291,0.809 -0.036,1.102l-1.186,1.065c-0.327,0.293 -0.842,0.276 -1.15,-0.039l-9.975,-10.228Z" style="fill:#b9d4db;fill-rule:nonzero;"/><path d="M673.244,284.288c-0.307,0.315 -0.291,0.809 0.036,1.103l1.186,1.064c0.327,0.294 0.841,0.276 1.149,-0.039l9.976,-10.227c0.307,-0.315 0.291,-0.81 -0.036,-1.103l-1.186,-1.064c-0.327,-0.294 -0.842,-0.277 -1.15,0.038l-9.975,10.228Z" style="fill:#b9d4db;fill-rule:nonzero;"/><path d="M859.489,144.972c26.687,0 48.355,15.059 48.355,33.608c0,18.55 -21.668,33.609 -48.355,33.609c-26.689,0 -48.356,-15.059 -48.356,-33.609c0,-18.549 21.667,-33.608 48.356,-33.608" style="fill:#f2a490;fill-rule:nonzero;"/><path d="M859.215,144.972c26.688,0 48.356,7.529 48.356,16.804c-0,9.275 -21.668,16.804 -48.356,16.804c-26.688,0 -48.355,-7.529 -48.355,-16.804c-0,-9.275 21.667,-16.804 48.355,-16.804" style="fill:#f27070;fill-rule:nonzero;"/><rect x="856.448" y="-0" width="6.081" height="117.714" style="fill:#ffbbb6;"/><rect x="853.134" y="112.147" width="12.162" height="38.097" style="fill:#f27070;"/></g></svg>