<?xml version="1.0" encoding="UTF-8" standalone="no"?><!DOCTYPE svg PUBLIC "-//W3C//DTD SVG 1.1//EN" "http://www.w3.org/Graphics/SVG/1.1/DTD/svg11.dtd"><svg width="100%" height="100%" viewBox="0 0 1025 768" version="1.1" xmlns="http://www.w3.org/2000/svg" xmlns:xlink="http://www.w3.org/1999/xlink" xml:space="preserve" xmlns:serif="http://www.serif.com/" style="fill-rule:evenodd;clip-rule:evenodd;stroke-linecap:round;stroke-linejoin:round;"><g id="Layer-1" serif:id="Layer 1"><path d="M670.57,336.572c-23.651,9.39 -48.446,34.256 -67.849,56.34c-16.316,18.575 -36.083,39.181 -37.74,63.848c-3.501,52.06 28.585,132.45 88.947,146.012c36.172,8.129 76.077,3.901 110.865,-8.918c69.781,-25.712 95.98,-89.41 86.353,-159.979c-6.668,-48.893 -64.894,-86.906 -106.521,-97.303c-23.95,-5.982 -51.113,-9.109 -74.055,-0" style="fill:#478ba2;fill-rule:nonzero;"/><path d="M452.667,214.392c-5.448,22.926 -10.929,45.991 -13.245,69.441c-3.64,36.854 -15.758,129.445 35.749,154.663c28.707,14.054 63.955,-0.229 95.866,-2.046c25.378,-1.445 195.027,2.907 220.218,-56.768c8.101,-19.189 -29.578,-29.366 -43.514,-44.847c-21.824,-24.244 -45.35,-47.316 -63.718,-74.273c-36.847,-54.078 -32.132,-117.971 -119.442,-116.234c-28.893,0.575 -54.41,20.587 -78.905,35.922c-13.418,8.4 -23.422,21.545 -33.009,34.142" style="fill:#fce2e5;fill-rule:nonzero;"/><path d="M241.019,321.899c-21.717,20.178 -1.657,65.93 -8.435,97.965c-4.102,19.385 -84.279,145.264 -1.709,171.704c83.799,26.835 186.955,16.454 244.499,-55.956c53.352,-67.136 13.667,-131.086 -34.509,-181.399c-21.941,-22.914 -58.177,-30.75 -77.982,-55.418c-42.37,-52.773 -100.148,2.926 -121.864,23.104" style="fill:#b9d4db;fill-rule:nonzero;"/><path d="M378.111,185.77c-22.208,46.13 -50.83,173.743 -50.571,263.124c0.05,17.242 31.013,17.054 48.159,18.878c30.911,3.288 62.339,0.074 93.177,-3.842c15.23,-1.934 39.056,0.953 44.01,-13.578c25.79,-75.642 35.02,-156.513 41.15,-236.195c0.951,-12.36 -9.296,-25.869 -20.596,-30.965c-22.332,-10.068 -48.155,-11.35 -72.65,-11.077c-28.954,0.323 -70.562,-11.513 -82.679,13.655" style="fill:#dbe477;fill-rule:nonzero;"/><path d="M643.558,593.065c-23.606,9.591 -183.016,23.559 -238.864,-1.261c-36.744,-16.33 -45.904,-34.748 -68.719,-74.266c-19.56,-33.879 1.03,-107.327 0.958,-152.406c-0.051,-31.63 19.906,-72.275 44.054,-70.838c37.254,2.219 46.654,68.676 72.311,99.979c27.875,34.01 56.145,67.951 88.069,95.693c23.783,20.668 67.106,-0.429 87.231,25.766c19.549,25.442 38.567,67.742 14.96,77.333" style="fill:#dbe477;fill-rule:nonzero;"/><path d="M678.181,291.41c-0,-3.505 -2.846,-6.351 -6.351,-6.351l-320.463,0c-3.506,0 -6.352,2.846 -6.352,6.351l-0,216.927c-0,3.505 2.846,6.35 6.352,6.35l320.463,0c3.505,0 6.351,-2.845 6.351,-6.35l-0,-216.927Z" style="fill:#99d6d9;fill-rule:nonzero;"/><path d="M678.181,290.473c-0,-2.988 -2.425,-5.414 -5.413,-5.414l-322.339,0c-2.989,0 -5.414,2.426 -5.414,5.414l-0,184.895c-0,2.988 2.425,5.413 5.414,5.413l322.339,0c2.988,0 5.413,-2.425 5.413,-5.413l-0,-184.895Z" style="fill:#25b5ac;fill-rule:nonzero;"/><path d="M668.874,299.235c0,-2.649 -2.151,-4.8 -4.8,-4.8l-304.952,-0c-2.649,-0 -4.8,2.151 -4.8,4.8l-0,163.939c-0,2.649 2.151,4.799 4.8,4.799l304.952,-0c2.649,-0 4.8,-2.15 4.8,-4.799l0,-163.939Z" style="fill:#0c3d3a;fill-rule:nonzero;"/><path d="M513,488.398c4.5,0 8.154,3.653 8.154,8.153c0,4.5 -3.654,8.155 -8.154,8.155c-4.5,0 -8.154,-3.655 -8.154,-8.155c0,-4.5 3.654,-8.153 8.154,-8.153" style="fill:#0c3d3a;fill-rule:nonzero;"/><path d="M659.733,310.741c0,-2.292 -1.861,-4.153 -4.153,-4.153l-285.161,0c-2.292,0 -4.152,1.861 -4.152,4.153l0,141.837c0,2.291 1.86,4.152 4.152,4.152l285.161,0c2.292,0 4.153,-1.861 4.153,-4.152l0,-141.837Z" style="fill:#fff;fill-rule:nonzero;"/><path d="M659.733,307.085c0,-0.274 -0.224,-0.497 -0.497,-0.497l-292.472,0c-0.275,0 -0.497,0.223 -0.497,0.497l0,16.978c0,0.275 0.222,0.497 0.497,0.497l292.472,0c0.273,0 0.497,-0.222 0.497,-0.497l0,-16.978Z" style="fill:#99d6d9;fill-rule:nonzero;"/><path d="M631.401,352.742c0,-0.566 -0.46,-1.026 -1.026,-1.026l-35.035,0c-0.566,0 -1.025,0.46 -1.025,1.026l0,88.974c0,0.566 0.459,1.026 1.025,1.026l35.035,0c0.566,0 1.026,-0.46 1.026,-1.026l0,-88.974Z" style="fill:#58c4c4;fill-rule:nonzero;"/><path d="M631.89,339.287c-0,-0.115 -0.093,-0.209 -0.209,-0.209l-236.351,0c-0.116,0 -0.21,0.094 -0.21,0.209l-0,7.145c-0,0.115 0.094,0.209 0.21,0.209l236.351,0c0.116,0 0.209,-0.094 0.209,-0.209l-0,-7.145Z" style="fill:#58c4c4;fill-rule:nonzero;"/><path d="M586.148,355.18c0,-0.048 -0.04,-0.088 -0.089,-0.088l-190.851,0c-0.048,0 -0.088,0.04 -0.088,0.088l0,3.007c0,0.049 0.04,0.088 0.088,0.088l190.851,0c0.049,0 0.089,-0.039 0.089,-0.088l0,-3.007Z" style="fill:#58c4c4;fill-rule:nonzero;"/><path d="M549.242,361.869c0,-0.021 -0.018,-0.037 -0.037,-0.037l-154.048,0c-0.02,0 -0.037,0.016 -0.037,0.037l0,1.265c0,0.02 0.017,0.037 0.037,0.037l154.048,0c0.019,0 0.037,-0.017 0.037,-0.037l0,-1.265Z" style="fill:#58c4c4;fill-rule:nonzero;"/><path d="M586.148,368.366c0,-0.024 -0.021,-0.044 -0.045,-0.044l-65.731,0c-0.025,0 -0.043,0.02 -0.043,0.044l0,1.494c0,0.024 0.018,0.044 0.043,0.044l65.731,0c0.024,0 0.045,-0.02 0.045,-0.044l0,-1.494Z" style="fill:#58c4c4;fill-rule:nonzero;"/><path d="M586.148,389.824c0,-0.024 -0.021,-0.043 -0.045,-0.043l-65.731,0c-0.025,0 -0.043,0.019 -0.043,0.043l0,1.495c0,0.024 0.018,0.043 0.043,0.043l65.731,0c0.024,0 0.045,-0.019 0.045,-0.043l0,-1.495Z" style="fill:#58c4c4;fill-rule:nonzero;"/><path d="M586.148,411.283c0,-0.024 -0.021,-0.044 -0.045,-0.044l-65.731,0c-0.025,0 -0.043,0.02 -0.043,0.044l0,1.494c0,0.024 0.018,0.044 0.043,0.044l65.731,0c0.024,0 0.045,-0.02 0.045,-0.044l0,-1.494Z" style="fill:#58c4c4;fill-rule:nonzero;"/><path d="M586.148,431.967c0,-0.023 -0.021,-0.044 -0.045,-0.044l-65.731,-0c-0.025,-0 -0.043,0.021 -0.043,0.044l0,1.494c0,0.025 0.018,0.044 0.043,0.044l65.731,-0c0.024,-0 0.045,-0.019 0.045,-0.044l0,-1.494Z" style="fill:#58c4c4;fill-rule:nonzero;"/><path d="M586.148,375.482c0,-0.024 -0.021,-0.044 -0.045,-0.044l-65.731,-0c-0.025,-0 -0.043,0.02 -0.043,0.044l0,1.494c0,0.024 0.018,0.044 0.043,0.044l65.731,-0c0.024,-0 0.045,-0.02 0.045,-0.044l0,-1.494Z" style="fill:#58c4c4;fill-rule:nonzero;"/><path d="M586.148,396.941c0,-0.024 -0.021,-0.044 -0.045,-0.044l-65.731,0c-0.025,0 -0.043,0.02 -0.043,0.044l0,1.493c0,0.025 0.018,0.044 0.043,0.044l65.731,0c0.024,0 0.045,-0.019 0.045,-0.044l0,-1.493Z" style="fill:#58c4c4;fill-rule:nonzero;"/><path d="M586.148,418.399c0,-0.024 -0.021,-0.043 -0.045,-0.043l-65.731,0c-0.025,0 -0.043,0.019 -0.043,0.043l0,1.494c0,0.025 0.018,0.044 0.043,0.044l65.731,0c0.024,0 0.045,-0.019 0.045,-0.044l0,-1.494Z" style="fill:#58c4c4;fill-rule:nonzero;"/><path d="M586.148,439.083c0,-0.024 -0.021,-0.043 -0.045,-0.043l-65.731,0c-0.025,0 -0.043,0.019 -0.043,0.043l0,1.494c0,0.025 0.018,0.044 0.043,0.044l65.731,0c0.024,0 0.045,-0.019 0.045,-0.044l0,-1.494Z" style="fill:#58c4c4;fill-rule:nonzero;"/><path d="M586.148,382.599c0,-0.025 -0.021,-0.044 -0.045,-0.044l-65.731,0c-0.025,0 -0.043,0.019 -0.043,0.044l0,1.494c0,0.024 0.018,0.043 0.043,0.043l65.731,0c0.024,0 0.045,-0.019 0.045,-0.043l0,-1.494Z" style="fill:#58c4c4;fill-rule:nonzero;"/><path d="M586.148,404.057c0,-0.023 -0.021,-0.044 -0.045,-0.044l-65.731,-0c-0.025,-0 -0.043,0.021 -0.043,0.044l0,1.494c0,0.026 0.018,0.044 0.043,0.044l65.731,-0c0.024,-0 0.045,-0.018 0.045,-0.044l0,-1.494Z" style="fill:#58c4c4;fill-rule:nonzero;"/><path d="M586.148,425.516c0,-0.023 -0.021,-0.044 -0.045,-0.044l-65.731,-0c-0.025,-0 -0.043,0.021 -0.043,0.044l0,1.494c0,0.025 0.018,0.044 0.043,0.044l65.731,-0c0.024,-0 0.045,-0.019 0.045,-0.044l0,-1.494Z" style="fill:#58c4c4;fill-rule:nonzero;"/><path d="M513.505,370.419c-0,-1.157 -0.938,-2.097 -2.096,-2.097l-114.192,-0c-1.157,-0 -2.097,0.94 -2.097,2.097l-0,71.609c-0,1.157 0.94,2.097 2.097,2.097l114.192,-0c1.158,-0 2.096,-0.94 2.096,-2.097l-0,-71.609Z" style="fill:#58c4c4;fill-rule:nonzero;"/><path d="M377.786,311.536c2.229,0 4.039,1.809 4.039,4.038c0,2.229 -1.81,4.039 -4.039,4.039c-2.229,0 -4.038,-1.81 -4.038,-4.039c0,-2.229 1.809,-4.038 4.038,-4.038" style="fill:#0c3d3a;fill-rule:nonzero;"/><path d="M391.082,311.536c2.229,0 4.038,1.809 4.038,4.038c0,2.229 -1.809,4.039 -4.038,4.039c-2.229,0 -4.039,-1.81 -4.039,-4.039c0,-2.229 1.81,-4.038 4.039,-4.038" style="fill:#0c3d3a;fill-rule:nonzero;"/><path d="M404.378,311.536c2.228,0 4.038,1.809 4.038,4.038c-0,2.229 -1.81,4.039 -4.038,4.039c-2.229,0 -4.039,-1.81 -4.039,-4.039c-0,-2.229 1.81,-4.038 4.039,-4.038" style="fill:#0c3d3a;fill-rule:nonzero;"/><path d="M540.683,536.563l-57.595,-0l14.399,-21.818l28.799,-0l14.397,21.817Z" style="fill:#25b5ac;fill-rule:nonzero;"/><clipPath id="_clip1"><rect x="483.088" y="514.744" width="57.595" height="7.742" clip-rule="nonzero"/></clipPath><g clip-path="url(#_clip1)"><path d="M540.683,536.563l-57.595,-0l14.399,-21.818l28.799,-0l14.397,21.817Z" style="fill:#0d7973;fill-rule:nonzero;"/></g><rect x="466.692" y="536.565" width="90.387" height="8.401" style="fill:#99d6d9;"/><path d="M603.784,552.517l-200.562,-0l-32.096,15.398l263.811,-0l-31.153,-15.398Z" style="fill:#0c3d3a;fill-rule:nonzero;"/><rect x="371.126" y="567.914" width="263.812" height="4.329" style="fill:#25b5ac;"/><path d="M746.083,208.378c-1.475,-5.11 -6.821,-8.061 -11.931,-6.586l-91.919,26.537c-5.11,1.475 -8.061,6.821 -6.587,11.931l38.018,131.686c1.476,5.11 6.822,8.061 11.931,6.586l91.92,-26.537c5.109,-1.475 8.06,-6.821 6.585,-11.931l-38.017,-131.686Z" style="fill:#f2a490;fill-rule:nonzero;"/><path d="M741.499,216.866c-0.146,-0.502 -0.67,-0.792 -1.172,-0.647l-95.63,27.607c-0.502,0.145 -0.792,0.671 -0.647,1.173l2.608,9.033c0.145,0.502 0.67,0.792 1.172,0.647l95.63,-27.607c0.502,-0.145 0.792,-0.671 0.647,-1.173l-2.608,-9.033Z" style="fill:none;fill-rule:nonzero;stroke:#000;stroke-width:1px;"/><path d="M745.864,231.984c-0.064,-0.221 -0.296,-0.349 -0.519,-0.285l-96.645,27.901c-0.222,0.064 -0.35,0.296 -0.285,0.517l1.15,3.986c0.064,0.221 0.296,0.349 0.517,0.285l96.646,-27.901c0.222,-0.064 0.35,-0.296 0.285,-0.517l-1.149,-3.986Z" style="fill:none;fill-rule:nonzero;stroke:#000;stroke-width:1px;"/><path d="M748.797,242.144c-0.029,-0.098 -0.131,-0.154 -0.228,-0.126l-97.095,28.031c-0.098,0.028 -0.155,0.13 -0.126,0.228l0.508,1.758c0.027,0.098 0.13,0.154 0.227,0.126l97.095,-28.031c0.098,-0.028 0.155,-0.13 0.126,-0.228l-0.507,-1.758Z" style="fill:none;fill-rule:nonzero;stroke:#000;stroke-width:1px;"/><path d="M753.202,257.403c-0.028,-0.097 -0.13,-0.154 -0.229,-0.126l-97.094,28.031c-0.098,0.028 -0.155,0.131 -0.126,0.228l0.508,1.759c0.028,0.097 0.129,0.154 0.228,0.126l97.095,-28.031c0.097,-0.028 0.154,-0.131 0.126,-0.228l-0.508,-1.759Z" style="fill:none;fill-rule:nonzero;stroke:#000;stroke-width:1px;"/><path d="M757.607,272.663c-0.028,-0.098 -0.131,-0.154 -0.229,-0.126l-97.094,28.031c-0.099,0.028 -0.155,0.13 -0.126,0.228l0.508,1.758c0.028,0.098 0.129,0.154 0.227,0.126l97.096,-28.031c0.097,-0.028 0.153,-0.13 0.126,-0.228l-0.508,-1.758Z" style="fill:none;fill-rule:nonzero;stroke:#000;stroke-width:1px;"/><path d="M762.013,287.922c-0.028,-0.097 -0.131,-0.154 -0.229,-0.126l-97.093,28.031c-0.099,0.028 -0.156,0.131 -0.126,0.228l0.507,1.759c0.027,0.097 0.13,0.154 0.227,0.126l97.095,-28.031c0.098,-0.028 0.154,-0.131 0.126,-0.228l-0.507,-1.759Z" style="fill:none;fill-rule:nonzero;stroke:#000;stroke-width:1px;"/><path d="M766.418,303.182c-0.028,-0.098 -0.13,-0.154 -0.228,-0.126l-97.095,28.031c-0.098,0.028 -0.154,0.13 -0.126,0.228l0.507,1.758c0.029,0.098 0.131,0.154 0.229,0.126l97.095,-28.031c0.097,-0.028 0.154,-0.13 0.126,-0.228l-0.508,-1.758Z" style="fill:none;fill-rule:nonzero;stroke:#000;stroke-width:1px;"/><path d="M770.677,317.934c-0.027,-0.098 -0.131,-0.154 -0.228,-0.126l-97.095,28.031c-0.098,0.028 -0.154,0.13 -0.125,0.228l0.507,1.758c0.028,0.098 0.13,0.155 0.228,0.126l97.095,-28.03c0.097,-0.029 0.154,-0.131 0.125,-0.229l-0.507,-1.758Z" style="fill:none;fill-rule:nonzero;stroke:#000;stroke-width:1px;"/><path d="M750.984,249.72c-0.028,-0.098 -0.131,-0.154 -0.229,-0.126l-97.094,28.031c-0.099,0.028 -0.155,0.13 -0.126,0.228l0.507,1.758c0.029,0.098 0.13,0.154 0.229,0.126l97.094,-28.031c0.098,-0.028 0.154,-0.13 0.126,-0.228l-0.507,-1.758Z" style="fill:none;fill-rule:nonzero;stroke:#000;stroke-width:1px;"/><path d="M755.389,264.979c-0.027,-0.097 -0.13,-0.154 -0.228,-0.126l-97.094,28.031c-0.099,0.028 -0.155,0.131 -0.126,0.228l0.508,1.759c0.027,0.097 0.129,0.154 0.227,0.126l97.096,-28.031c0.097,-0.028 0.153,-0.131 0.125,-0.228l-0.508,-1.759Z" style="fill:none;fill-rule:nonzero;stroke:#000;stroke-width:1px;"/><path d="M759.794,280.239c-0.028,-0.098 -0.13,-0.154 -0.228,-0.126l-97.095,28.031c-0.097,0.028 -0.154,0.13 -0.126,0.228l0.509,1.758c0.027,0.098 0.129,0.154 0.227,0.126l97.095,-28.031c0.098,-0.028 0.154,-0.13 0.126,-0.228l-0.508,-1.758Z" style="fill:none;fill-rule:nonzero;stroke:#000;stroke-width:1px;"/><path d="M764.2,295.498c-0.028,-0.097 -0.131,-0.154 -0.229,-0.126l-97.094,28.031c-0.098,0.028 -0.155,0.131 -0.126,0.228l0.507,1.759c0.029,0.097 0.13,0.154 0.229,0.126l97.094,-28.031c0.098,-0.028 0.155,-0.131 0.126,-0.228l-0.507,-1.759Z" style="fill:none;fill-rule:nonzero;stroke:#000;stroke-width:1px;"/><path d="M768.606,310.758c-0.029,-0.098 -0.131,-0.154 -0.23,-0.126l-97.093,28.031c-0.1,0.028 -0.155,0.13 -0.126,0.228l0.507,1.758c0.029,0.098 0.13,0.154 0.227,0.126l97.096,-28.031c0.098,-0.028 0.154,-0.13 0.127,-0.228l-0.508,-1.758Z" style="fill:none;fill-rule:nonzero;stroke:#000;stroke-width:1px;"/><path d="M772.864,325.51c-0.028,-0.098 -0.13,-0.154 -0.229,-0.126l-97.094,28.031c-0.098,0.028 -0.155,0.13 -0.126,0.228l0.508,1.758c0.028,0.098 0.129,0.155 0.228,0.126l97.095,-28.03c0.097,-0.029 0.154,-0.131 0.126,-0.229l-0.508,-1.758Z" style="fill:none;fill-rule:nonzero;stroke:#000;stroke-width:1px;"/><path d="M775.295,333.932c-0.084,-0.292 -0.39,-0.461 -0.683,-0.377l-96.389,27.827c-0.292,0.085 -0.461,0.391 -0.377,0.683l1.52,5.263c0.084,0.292 0.39,0.461 0.683,0.377l96.389,-27.827c0.293,-0.085 0.461,-0.391 0.378,-0.683l-1.521,-5.263Z" style="fill:none;fill-rule:nonzero;stroke:#000;stroke-width:1px;"/><path d="M646.879,215.859c-0.092,-0.321 -0.427,-0.506 -0.748,-0.413l-5.764,1.664c-0.321,0.093 -0.506,0.428 -0.413,0.748l5.931,20.545c0.092,0.32 0.428,0.505 0.748,0.413l5.764,-1.664c0.321,-0.093 0.506,-0.428 0.413,-0.749l-5.931,-20.544Z" style="fill:#e9765b;fill-rule:nonzero;"/><path d="M692.153,202.789c-0.094,-0.321 -0.429,-0.506 -0.748,-0.413l-5.766,1.664c-0.32,0.093 -0.506,0.428 -0.413,0.748l5.932,20.545c0.092,0.32 0.428,0.505 0.748,0.413l5.765,-1.665c0.32,-0.092 0.504,-0.427 0.413,-0.748l-5.931,-20.544Z" style="fill:#e9765b;fill-rule:nonzero;"/><path d="M678.976,206.593c-0.093,-0.32 -0.428,-0.506 -0.749,-0.413l-5.764,1.664c-0.321,0.093 -0.506,0.428 -0.413,0.748l5.932,20.545c0.092,0.32 0.428,0.505 0.747,0.413l5.766,-1.664c0.32,-0.093 0.504,-0.428 0.413,-0.749l-5.932,-20.544Z" style="fill:#e9765b;fill-rule:nonzero;"/><path d="M724.249,193.523c-0.093,-0.321 -0.428,-0.506 -0.748,-0.413l-5.765,1.664c-0.32,0.093 -0.505,0.428 -0.413,0.748l5.931,20.545c0.093,0.32 0.428,0.505 0.748,0.413l5.765,-1.664c0.32,-0.093 0.504,-0.428 0.413,-0.749l-5.931,-20.544Z" style="fill:#e9765b;fill-rule:nonzero;"/><path d="M662.991,211.208c-0.092,-0.321 -0.429,-0.506 -0.748,-0.413l-5.765,1.664c-0.32,0.092 -0.506,0.428 -0.413,0.748l5.931,20.544c0.093,0.321 0.428,0.506 0.749,0.413l5.764,-1.664c0.321,-0.092 0.505,-0.428 0.413,-0.748l-5.931,-20.544Z" style="fill:#e9765b;fill-rule:nonzero;"/><path d="M708.265,198.137c-0.093,-0.32 -0.428,-0.505 -0.749,-0.413l-5.764,1.665c-0.321,0.092 -0.506,0.427 -0.413,0.748l5.931,20.544c0.093,0.321 0.429,0.506 0.748,0.413l5.766,-1.664c0.32,-0.092 0.504,-0.428 0.413,-0.748l-5.932,-20.545Z" style="fill:#e9765b;fill-rule:nonzero;"/><path d="M416.306,217.362c6.518,25.775 -8.69,51.885 -33.941,58.271c-25.251,6.386 -51.044,-9.355 -57.562,-35.13c-6.518,-25.774 8.69,-51.884 33.941,-58.27c25.251,-6.386 51.044,9.355 57.562,35.129" style="fill:#0c3d3a;fill-rule:nonzero;"/><g opacity="0"><path d="M416.307,217.362c-6.519,-25.774 -32.312,-41.515 -57.563,-35.129c-25.251,6.386 -40.459,32.496 -33.941,58.27c6.518,25.775 32.311,41.516 57.562,35.13c25.251,-6.386 40.46,-32.496 33.942,-58.271Z" style="fill:none;stroke:#000;stroke-width:1px;"/></g><path d="M410.013,218.651c5.502,21.754 -7.324,43.788 -28.622,49.175c-21.299,5.386 -43.057,-7.902 -48.559,-29.656c-5.501,-21.754 7.324,-43.788 28.623,-49.174c21.298,-5.387 43.057,7.901 48.558,29.655" style="fill:#b9d4db;fill-rule:nonzero;"/><path d="M388.994,197.243c-1.817,-7.184 -13.842,-10.349 -26.836,-7.063c-12.994,3.286 -22.068,11.787 -20.252,18.971c1.817,7.185 11.185,-7.864 24.179,-11.151c12.994,-3.286 24.725,6.427 22.909,-0.757" style="fill:#358081;fill-rule:nonzero;"/><path d="M337.662,223.954c-2.828,1.085 -2.285,9.366 1.212,18.481c3.497,9.114 8.632,15.633 11.46,14.548c2.828,-1.085 -5.195,-7.969 -8.692,-17.084c-3.497,-9.115 -1.152,-17.03 -3.98,-15.945" style="fill:#fff;fill-rule:nonzero;"/><path d="M339.798,265.713l-6.349,7.03l-4.9,-4.425l6.349,-7.03l4.9,4.425Z" style="fill:#99d6d9;"/><path d="M290.153,320.583c1.341,1.211 3.413,1.106 4.625,-0.235l39.665,-43.925c1.211,-1.341 1.105,-3.413 -0.236,-4.624l-4.86,-4.388c-1.341,-1.212 -3.413,-1.106 -4.624,0.235l-39.665,43.924c-1.211,1.342 -1.106,3.414 0.235,4.625l4.86,4.388Z" style="fill:#0c3d3a;fill-rule:nonzero;"/><g opacity="0"><path d="M290.153,320.583c1.341,1.211 3.413,1.106 4.625,-0.235l39.665,-43.925c1.211,-1.341 1.105,-3.413 -0.236,-4.624l-4.86,-4.388c-1.341,-1.212 -3.413,-1.106 -4.624,0.235l-39.665,43.924c-1.211,1.342 -1.106,3.414 0.235,4.625l4.86,4.388Z" style="fill:none;fill-rule:nonzero;stroke:#000;stroke-width:1px;"/></g><path d="M357.545,256.929c1.709,0 3.097,1.209 3.097,2.697c-0,1.489 -1.388,2.697 -3.097,2.697c-1.709,0 -3.096,-1.208 -3.096,-2.697c-0,-1.488 1.387,-2.697 3.096,-2.697" style="fill:#fff;fill-rule:nonzero;"/><path d="M393.49,198.197c0.808,-0 1.463,0.774 1.463,1.728c0,0.954 -0.655,1.728 -1.463,1.728c-0.808,-0 -1.464,-0.774 -1.464,-1.728c0,-0.954 0.656,-1.728 1.464,-1.728" style="fill:#fff;fill-rule:nonzero;"/><path d="M462.012,182.909l111.395,21.207l-12.223,64.203l-111.395,-21.207l12.223,-64.203Z" style="fill:#478ba2;"/><g opacity="0"><path d="M462.012,182.909l111.395,21.207l-12.223,64.203l-111.395,-21.207l12.223,-64.203Z" style="fill:none;stroke:#000;stroke-width:1px;"/></g><path d="M573.407,204.116l-111.395,-21.207l48.116,64.44l63.279,-43.233Z" style="fill:#546267;fill-rule:nonzero;"/><path d="M573.407,204.116l-111.395,-21.207l49.651,56.375l61.744,-35.168Z" style="fill:#b9d4db;fill-rule:nonzero;"/><path d="M370.13,543.641c1.182,1.002 1.328,2.776 0.326,3.958l-5.378,6.346c-1.003,1.181 -2.776,1.327 -3.958,0.325l-13.675,-11.593c-1.182,-1.002 -1.328,-2.775 -0.326,-3.958l5.379,-6.345c1.002,-1.181 2.775,-1.328 3.957,-0.326l13.675,11.593Z" style="fill:#fff;fill-rule:nonzero;"/><g opacity="0"><path d="M370.13,543.641c1.182,1.002 1.328,2.776 0.326,3.958l-5.378,6.346c-1.003,1.181 -2.776,1.327 -3.958,0.325l-13.675,-11.593c-1.182,-1.002 -1.328,-2.775 -0.326,-3.958l5.379,-6.345c1.002,-1.181 2.775,-1.328 3.957,-0.326l13.675,11.593Z" style="fill:none;fill-rule:nonzero;stroke:#e9765b;stroke-width:1px;"/></g><path d="M336.01,580.895c1.997,1.692 4.994,1.446 6.687,-0.552l20.933,-24.692c1.693,-1.996 1.446,-4.992 -0.551,-6.688l-10.721,-9.087c-1.997,-1.693 -4.994,-1.447 -6.687,0.551l-20.933,24.692c-1.693,1.998 -1.446,4.994 0.551,6.686l10.721,9.089Z" style="fill:#e9765b;fill-rule:nonzero;"/><path d="M361.06,556.488c0.598,0.506 1.494,0.432 2.001,-0.165l2.719,-3.208c0.506,-0.598 0.433,-1.494 -0.165,-2.001l-15.793,-13.389c-0.598,-0.507 -1.494,-0.432 -2.001,0.165l-2.719,3.207c-0.507,0.599 -0.433,1.495 0.165,2.001l15.793,13.39Z" style="fill:#6a6969;fill-rule:nonzero;"/><path d="M291.006,513.301c-0,-5.6 -4.547,-10.146 -10.147,-10.146l-82.406,-0c-5.6,-0 -10.147,4.546 -10.147,10.146l-0,8.887c-0,5.6 4.547,10.147 10.147,10.147l82.406,-0c5.6,-0 10.147,-4.547 10.147,-10.147l-0,-8.887Z" style="fill:#e9765b;fill-rule:nonzero;"/><path d="M286.761,490.768c-0,-2.277 -1.85,-4.128 -4.128,-4.128l-85.318,-0c-2.279,-0 -4.129,1.851 -4.129,4.128l-0,8.259c-0,2.277 1.85,4.128 4.129,4.128l85.318,-0c2.278,-0 4.128,-1.851 4.128,-4.128l-0,-8.259Z" style="fill:#fce2e5;fill-rule:nonzero;"/><path d="M286.761,480.631c-0,-1.104 -0.896,-2.002 -2.003,-2.002l-103.346,-0c-1.105,-0 -2.003,0.898 -2.003,2.002l-0,4.006c-0,1.105 0.898,2.003 2.003,2.003l103.346,-0c1.107,-0 2.003,-0.898 2.003,-2.003l-0,-4.006Z" style="fill:#b9d4db;fill-rule:nonzero;"/><path d="M283.245,466.086c0,-2.307 -1.873,-4.181 -4.181,-4.181l-86.577,-0c-2.308,-0 -4.181,1.874 -4.181,4.181l0,8.362c0,2.307 1.873,4.181 4.181,4.181l86.577,-0c2.308,-0 4.181,-1.874 4.181,-4.181l0,-8.362Z" style="fill:#f2a490;fill-rule:nonzero;"/><path d="M301.552,443.149c-0,-3.45 -2.801,-6.252 -6.252,-6.252l-92.874,0c-3.45,0 -6.252,2.802 -6.252,6.252l-0,12.504c-0,3.45 2.802,6.252 6.252,6.252l92.874,0c3.451,0 6.252,-2.802 6.252,-6.252l-0,-12.504Z" style="fill:#25b5ac;fill-rule:nonzero;"/><path d="M279.448,428.565c0,-1.533 -1.244,-2.778 -2.777,-2.778l-67.82,0c-1.533,0 -2.777,1.245 -2.777,2.778l0,5.555c0,1.533 1.244,2.777 2.777,2.777l67.82,0c1.533,0 2.777,-1.244 2.777,-2.777l0,-5.555Z" style="fill:#0e726a;fill-rule:nonzero;"/><path d="M342.526,418.704c-0,-3.909 -3.174,-7.083 -7.083,-7.083l-115.393,0c-3.91,0 -7.083,3.174 -7.083,7.083c-0,3.909 3.173,7.083 7.083,7.083l115.393,0c3.909,0 7.083,-3.174 7.083,-7.083" style="fill:#fce2e5;fill-rule:nonzero;"/><path d="M321.479,398.074c0,-2.492 -2.023,-4.517 -4.515,-4.517l-112.661,0c-2.492,0 -4.515,2.025 -4.515,4.517l-0,9.031c-0,2.491 2.023,4.516 4.515,4.516l112.661,0c2.492,0 4.515,-2.025 4.515,-4.516l0,-9.031Z" style="fill:#478ba2;fill-rule:nonzero;"/><path d="M325.131,388.547c-0,-0.922 -0.749,-1.671 -1.671,-1.671l-134.38,-0c-0.922,-0 -1.671,0.749 -1.671,1.671l-0,3.341c-0,0.922 0.749,1.67 1.671,1.67l134.38,-0c0.922,-0 1.671,-0.748 1.671,-1.67l-0,-3.341Z" style="fill:#e9765b;fill-rule:nonzero;"/><path d="M326.795,379.266c-0,-1.401 -1.137,-2.537 -2.537,-2.537l-150.79,0c-1.4,0 -2.537,1.136 -2.537,2.537l-0,5.073c-0,1.401 1.137,2.537 2.537,2.537l150.79,0c1.4,0 2.537,-1.136 2.537,-2.537l-0,-5.073Z" style="fill:#f2a490;fill-rule:nonzero;"/><path d="M309.557,353.708c0,-1.4 -1.137,-2.537 -2.537,-2.537l-123.337,-0c-1.4,-0 -2.537,1.137 -2.537,2.537l0,5.074c0,1.4 1.137,2.536 2.537,2.536l123.337,-0c1.4,-0 2.537,-1.136 2.537,-2.536l0,-5.074Z" style="fill:#de5b6d;fill-rule:nonzero;"/><path d="M302.595,341.757c0,-1.807 -1.467,-3.273 -3.273,-3.273l-107.098,-0c-1.807,-0 -3.274,1.466 -3.274,3.273l0,6.547c0,1.807 1.467,3.274 3.274,3.274l107.098,-0c1.806,-0 3.273,-1.467 3.273,-3.274l0,-6.547Z" style="fill:#25b5ac;fill-rule:nonzero;"/><path d="M289.527,325.811c-0,-2.331 -1.893,-4.224 -4.224,-4.224l-92.129,0c-2.331,0 -4.224,1.893 -4.224,4.224l-0,8.448c-0,2.332 1.893,4.225 4.224,4.225l92.129,0c2.331,0 4.224,-1.893 4.224,-4.225l-0,-8.448Z" style="fill:#e9765b;fill-rule:nonzero;"/><path d="M277.962,305.234c-0,-3.008 -2.443,-5.45 -5.451,-5.45l-72.987,-0c-3.009,-0 -5.451,2.442 -5.451,5.45l-0,10.902c-0,3.008 2.442,5.451 5.451,5.451l72.987,-0c3.008,-0 5.451,-2.443 5.451,-5.451l-0,-10.902Z" style="fill:#58c4c4;fill-rule:nonzero;"/><path d="M251.371,308.425c0,-1.248 -1.013,-2.261 -2.261,-2.261l-42.905,-0c-1.248,-0 -2.261,1.013 -2.261,2.261l0,4.521c0,1.247 1.013,2.26 2.261,2.26l42.905,-0c1.248,-0 2.261,-1.013 2.261,-2.26l0,-4.521Z" style="fill:#478ba2;fill-rule:nonzero;"/><path d="M293.217,346.998c-0,1.086 -0.882,1.968 -1.968,1.968l-37.911,-0c-1.086,-0 -1.967,-0.882 -1.967,-1.968l-0,-3.935c-0,-1.086 0.881,-1.967 1.967,-1.967l37.911,-0c1.086,-0 1.968,0.881 1.968,1.967l-0,3.935Z" style="fill:#0e726a;fill-rule:nonzero;"/><path d="M233.503,354.976c-0,-0.7 -0.568,-1.268 -1.268,-1.268l-38.536,0c-0.7,0 -1.269,0.568 -1.269,1.268l-0,2.537c-0,0.7 0.569,1.269 1.269,1.269l38.536,0c0.7,0 1.268,-0.569 1.268,-1.269l-0,-2.537Z" style="fill:#f2a490;fill-rule:nonzero;"/><path d="M222.478,380.889c0,-0.706 -0.573,-1.279 -1.279,-1.279l-31.614,0c-0.706,0 -1.279,0.573 -1.279,1.279l0,2.557c0,0.706 0.573,1.279 1.279,1.279l31.614,0c0.706,0 1.279,-0.573 1.279,-1.279l0,-2.557Z" style="fill:#de5b6d;fill-rule:nonzero;"/><path d="M264.699,469.176c0,-0.888 -0.72,-1.607 -1.608,-1.607l-56.091,-0c-0.888,-0 -1.608,0.719 -1.608,1.607l0,3.216c0,0.888 0.72,1.608 1.608,1.608l56.091,-0c0.888,-0 1.608,-0.72 1.608,-1.608l0,-3.216Z" style="fill:#de5b6d;fill-rule:nonzero;"/><path d="M280.071,514.988c-0,-1.225 -0.993,-2.217 -2.217,-2.217l-48.623,0c-1.224,0 -2.218,0.992 -2.218,2.217l-0,4.436c-0,1.222 0.994,2.216 2.218,2.216l48.623,0c1.224,0 2.217,-0.994 2.217,-2.216l-0,-4.436Z" style="fill:#478ba2;fill-rule:nonzero;"/><path d="M299.841,369.024c-0,-4.253 -3.452,-7.706 -7.705,-7.706l-97.022,-0c-4.252,-0 -7.705,3.453 -7.705,7.706c-0,4.252 3.453,7.705 7.705,7.705l97.022,-0c4.253,-0 7.705,-3.453 7.705,-7.705" style="fill:#dbe139;fill-rule:nonzero;"/><path d="M692.65,432.424l6.66,-1.58l15.909,67.054l-6.66,1.581l-15.909,-67.055Z" style="fill:#b9d4db;"/><path d="M692.643,419.08l6.084,12.002l-5.673,1.448l-0.411,-13.45Z" style="fill:#478ba2;fill-rule:nonzero;stroke:#478ba2;stroke-width:1px;"/><g><clipPath id="_clip2"><path d="M689.609,419.025l1.241,4.867l5.673,-1.447l-1.242,-4.868l-5.672,1.448Z" clip-rule="nonzero"/></clipPath><g clip-path="url(#_clip2)"><path d="M692.643,419.08l6.084,12.002l-5.673,1.448l-0.411,-13.45Z" style="fill:#2b5a6a;fill-rule:nonzero;stroke:#2b5a6a;stroke-width:1px;"/></g></g><path d="M736.185,409.813c-0.016,-0.94 -0.793,-1.69 -1.733,-1.674l-3.409,0.06c-0.941,0.017 -1.691,0.794 -1.673,1.734l1.359,76.673c0.017,0.94 0.793,1.69 1.733,1.673l3.41,-0.06c0.939,-0.017 1.691,-0.795 1.673,-1.733l-1.36,-76.673Z" style="fill:#0e726a;fill-rule:nonzero;"/><path d="M720.724,413.527c-0.032,-0.94 -0.821,-1.678 -1.763,-1.646l-3.407,0.118c-0.939,0.032 -1.677,0.822 -1.643,1.761l2.636,76.64c0.032,0.94 0.823,1.677 1.762,1.645l3.407,-0.119c0.941,-0.032 1.677,-0.821 1.646,-1.761l-2.638,-76.638Z" style="fill:#58c4c4;fill-rule:nonzero;"/><path d="M720.724,413.527c-0.032,-0.94 -0.821,-1.678 -1.763,-1.646l-3.407,0.118c-0.939,0.032 -1.677,0.822 -1.643,1.761l0.131,3.851c0.033,0.94 0.823,1.678 1.762,1.645l3.407,-0.118c0.941,-0.031 1.677,-0.821 1.646,-1.761l-0.133,-3.85Z" style="fill:#0e726a;fill-rule:nonzero;"/><clipPath id="_clip3"><path d="M713.85,412.057l0.101,2.91l6.814,-0.233l-0.1,-2.911l-6.815,0.234Z" clip-rule="nonzero"/></clipPath><g clip-path="url(#_clip3)"><path d="M720.724,413.527c-0.032,-0.94 -0.821,-1.678 -1.763,-1.646l-3.407,0.118c-0.939,0.032 -1.677,0.822 -1.643,1.761l0.131,3.851c0.033,0.94 0.823,1.678 1.762,1.645l3.407,-0.118c0.941,-0.031 1.677,-0.821 1.646,-1.761l-0.133,-3.85Z" style="fill:#003c36;fill-rule:nonzero;"/></g><path d="M736.186,409.886c-0.001,-0.94 -0.765,-1.704 -1.706,-1.703l-3.409,0.005c-0.942,-0 -1.703,0.764 -1.702,1.705l0.007,7.483c0.001,0.942 0.766,1.704 1.706,1.703l3.41,-0.004c0.94,-0.001 1.704,-0.766 1.703,-1.706l-0.009,-7.483Z" style="fill:#0c3d3a;fill-rule:nonzero;"/><clipPath id="_clip4"><path d="M729.367,408.19l0.004,4.638l6.818,-0.008l-0.005,-4.638l-6.817,0.008Z" clip-rule="nonzero"/></clipPath><g clip-path="url(#_clip4)"><path d="M736.186,409.886c-0.001,-0.94 -0.765,-1.704 -1.706,-1.703l-3.409,0.005c-0.942,-0 -1.703,0.764 -1.702,1.705l0.007,7.483c0.001,0.942 0.766,1.704 1.706,1.703l3.41,-0.004c0.94,-0.001 1.704,-0.766 1.703,-1.706l-0.009,-7.483Z" style="fill:#000602;fill-rule:nonzero;"/></g><path d="M749.237,468.989c0,-2.257 -1.833,-4.09 -4.091,-4.09l-46.204,0c-2.259,0 -4.091,1.833 -4.091,4.09l0,69.377c0,2.257 1.832,4.089 4.091,4.089l46.204,0c2.258,0 4.091,-1.832 4.091,-4.089l0,-69.377Z" style="fill:#de5b6d;fill-rule:nonzero;"/><path d="M749.237,465.516c0,-0.34 -0.277,-0.616 -0.617,-0.616l-53.153,-0c-0.339,-0 -0.616,0.276 -0.616,0.616l0,6.968c0,0.34 0.277,0.615 0.616,0.615l53.153,-0c0.34,-0 0.617,-0.275 0.617,-0.615l0,-6.968Z" style="fill:#e9765b;fill-rule:nonzero;"/><path d="M320.681,487.51c-0.208,-8.004 -6.874,-14.332 -14.878,-14.124l-22.56,0.586c-8.003,0.209 -14.332,6.875 -14.124,14.879l1.264,48.583c0.208,8.004 6.875,14.332 14.878,14.124l22.56,-0.587c8.004,-0.208 14.332,-6.875 14.124,-14.878l-1.264,-48.583Z" style="fill:#fce2e5;fill-rule:nonzero;"/><path d="M316.853,443.055c0.922,1.755 1.93,3.672 3.607,4.73c4.854,3.061 5.051,0.982 9.506,-2.38c1.171,-0.885 3.929,-0.036 4.145,-1.489c0.72,-4.85 -9.146,-4.849 -10.252,-4.595c-11.258,2.578 -16.927,4.167 -20.663,14.945c-1.166,3.362 -0.999,7.059 -1.142,10.614c-0.921,22.922 -1.382,22.863 1.81,45.605c0.68,4.843 1.016,9.757 2.125,14.521c0.757,3.256 2.109,6.355 3.447,9.418c-1.338,-3.063 -2.69,-6.162 -3.447,-9.418c-1.109,-4.764 -1.445,-9.678 -2.125,-14.521c-0.78,-5.562 3.358,-16.759 -2.257,-16.696c-5.607,0.064 -1.472,11.135 -1.663,16.74c-0.151,4.47 0.414,8.937 0.64,13.404c0.205,4.084 0.429,8.166 0.654,12.248c-0.225,-4.082 -0.449,-8.164 -0.654,-12.248c-0.762,-15.1 0.321,-14.949 1.023,-30.144c0.445,-9.627 0.879,-19.281 0.447,-28.909c-0.234,-5.211 -2.637,-10.245 -2.438,-15.458c0.568,-14.948 12.789,-22.576 2.541,-37.717c-0.881,-1.301 -4.123,-1.681 -4.713,-0.223c-1.484,3.668 -0.699,7.976 0,11.872c1.764,9.829 4.995,9.224 4.048,19.307c-0.218,2.33 0.429,6.366 -1.876,6.761c-2.678,0.461 -4.489,-3.212 -6.118,-5.386c-5.509,-7.348 -8.809,-21.246 -22.468,-17.809c-2.141,0.539 2.432,3.772 4.147,5.162c3.2,2.596 6.461,5.503 10.418,6.65c1.406,0.409 3.042,-1.226 3.536,-2.604c0.733,-2.047 -0.441,-4.35 -0.27,-6.517c0.204,-2.582 2.748,-19.418 3.713,-22.554c0.779,-2.535 1.085,-5.955 3.441,-7.171c1.634,-0.845 4.628,1.164 4.628,3.004c0,9.307 -6.425,5.991 -10.042,14.595c-3.708,8.824 0.029,9.221 -1.47,18.643c-0.581,3.648 -2.523,7.006 -3.004,10.668c-1.66,12.652 -1.063,26.556 -1.186,39.354c-0.019,2.035 1.931,6.108 -0.103,6.102c-2.778,-0.007 -2.914,-5.699 -5.66,-6.115c-1.731,-0.263 -2.062,3.366 -1.515,5.029c0.817,2.483 2.539,5.546 5.124,5.937c1.736,0.263 1.6,-6.547 2.051,-4.851c1.214,4.569 -0.171,9.488 0.428,14.179c0.98,7.67 2.617,15.248 4.293,22.796c0.674,3.035 1.714,5.979 2.749,8.911c-0.977,-2.952 -1.956,-5.906 -2.749,-8.911c-1.04,-3.943 -3.394,-7.893 -2.748,-11.917c0.602,-3.757 4.476,-6.192 6.195,-9.585c3.143,-6.205 4.849,-22.805 14.619,-23.404c1.279,-0.078 13.363,1.799 5.926,7.56c-1.988,1.54 -5.004,0.656 -7.429,1.324c-2.963,0.815 -6.842,5.573 -8.678,3.109c-1.987,-2.668 3.781,-5.73 4.274,-9.02c1.074,-7.16 1.67,-14.604 0.336,-21.721c-0.651,-3.471 -3.984,-5.831 -6.039,-8.702c-5.539,-7.737 -5.127,-8.258 -13.601,-12.827c-3.028,-1.633 -5.725,-4.769 -9.166,-4.745c-0.722,0.004 -8.137,6.942 -2.218,8.688c6.08,1.794 4.961,-3.622 11.384,-3.943c1.539,-0.076 2.774,1.53 3.713,2.752" style="fill:none;fill-rule:nonzero;stroke:#0e726a;stroke-width:1px;"/><path d="M314.751,467.016c0.041,1.604 -1.227,2.94 -2.83,2.982l-35.706,0.928c-1.603,0.042 -2.939,-1.225 -2.981,-2.83l-0.117,-4.52c-0.042,-1.604 1.226,-2.94 2.83,-2.982l35.705,-0.928c1.604,-0.042 2.939,1.226 2.981,2.83l0.118,4.52Z" style="fill:#fce2e5;fill-rule:nonzero;"/><path d="M310.086,472.337c0.014,0.542 -0.415,0.994 -0.957,1.008l-30.321,0.788c-0.542,0.015 -0.993,-0.414 -1.007,-0.956l-0.04,-1.527c-0.014,-0.542 0.415,-0.994 0.957,-1.008l30.32,-0.789c0.542,-0.014 0.994,0.415 1.008,0.957l0.04,1.527Z" style="fill:#f7a6a2;fill-rule:nonzero;"/><path d="M296.209,549.495c11.358,-0.031 20.575,-1.854 20.568,-4.064c-0.006,-2.212 -9.232,-3.982 -20.591,-3.951c-11.358,0.032 -20.575,1.853 -20.568,4.065c0.006,2.212 9.232,3.982 20.591,3.95" style="fill:#f7a6a2;fill-rule:nonzero;"/><path d="M280.254,478.203c1.746,1.051 -1.493,2.545 -3.203,5.384c-1.71,2.84 -1.248,5.957 -2.994,4.905c-1.746,-1.051 -1.775,-4.21 -0.065,-7.05c1.71,-2.84 4.516,-4.291 6.262,-3.239" style="fill:#fff;fill-rule:nonzero;"/><path d="M702.92,529.074c0.083,0.02 0.14,0.098 0.131,0.185c-0.01,0.094 -0.094,0.162 -0.188,0.152c-0.113,0.006 -0.209,-0.081 -0.293,-0.247c-0.035,-0.069 -0.066,-0.154 -0.085,-0.262c-0.012,-0.073 -0.01,-0.156 -0.011,-0.245c-0.008,-0.821 0.235,-2.234 0.344,-2.616c0.442,-1.555 1.061,-3.033 1.852,-4.415c0.789,-1.378 1.749,-2.66 2.876,-3.829c1.142,-1.184 2.389,-2.107 3.696,-2.919c1.955,-1.214 4.045,-2.177 6.112,-3.408c2.586,-1.541 5.193,-3.083 7.734,-4.725c1.688,-1.093 3.347,-2.231 4.95,-3.443c1.968,-1.486 3.736,-3.344 4.898,-5.467c1.054,-1.923 1.659,-4.074 1.331,-6.385c-0.034,-0.241 -0.087,-0.482 -0.144,-0.726c-0.016,-0.078 0.034,-0.156 0.113,-0.172c0.08,-0.017 0.157,0.034 0.174,0.113c0.046,0.252 0.078,0.503 0.11,0.751c0.307,2.388 -0.155,4.619 -1.215,6.618c-1.162,2.191 -2.986,4.093 -4.997,5.624c-1.61,1.222 -3.276,2.369 -4.972,3.47c-2.543,1.651 -5.153,3.199 -7.741,4.745c-2.063,1.232 -4.149,2.196 -6.1,3.411c-1.274,0.792 -2.49,1.691 -3.602,2.848c-1.097,1.139 -2.032,2.391 -2.802,3.735c-0.772,1.348 -1.377,2.789 -1.81,4.306c-0.057,0.199 -0.152,0.696 -0.227,1.232c-0.075,0.546 -0.107,1.13 -0.097,1.482c0.002,0.082 -0,0.191 -0,0.191c-0,0 -0.019,-0.001 -0.037,-0.004" style="fill:#fce2e5;fill-rule:nonzero;"/><path d="M734.841,482.951c-0.17,-0.13 -0.333,-0.271 -0.511,-0.391c-0.154,-0.102 -0.315,-0.191 -0.493,-0.253c-0.675,-0.243 -1.797,-0.027 -2.715,0.45c-0.903,0.468 -1.635,1.192 -1.444,2.05c0.099,0.447 0.423,0.646 0.812,0.752c0.703,0.193 1.598,0.119 2.137,0.299c0.075,0.026 0.393,0.405 0.585,0.498c0.164,-0.113 0.286,-0.383 0.412,-0.7c0.284,-0.719 0.516,-1.69 0.807,-2.233c0.122,-0.229 0.261,-0.39 0.41,-0.472m-1.627,3.406c0.06,0.028 0.106,0.029 0.13,-0.017c0.031,-0.06 -0.078,-0.011 -0.13,0.017m2.221,-3.019c-0.072,0.077 -0.192,0.093 -0.283,0.035c-0.064,-0.04 -0.117,-0.015 -0.165,0.037c-0.055,0.057 -0.103,0.135 -0.151,0.227c-0.279,0.535 -0.493,1.489 -0.764,2.193c-0.175,0.459 -0.391,0.814 -0.63,0.959c-0.052,0.031 -0.175,0.062 -0.326,-0.017c-0.176,-0.093 -0.553,-0.423 -0.644,-0.453c-0.633,-0.213 -1.758,-0.082 -2.485,-0.436c-0.378,-0.184 -0.667,-0.48 -0.774,-0.973c-0.189,-0.875 0.332,-1.67 1.155,-2.24c1.101,-0.763 2.722,-1.113 3.622,-0.781c0.211,0.083 0.403,0.196 0.582,0.329c0.196,0.145 0.383,0.306 0.559,0.474c0.171,0.163 0.329,0.332 0.512,0.468c0.06,0.036 0.079,0.115 0.042,0.175c-0.035,0.059 -0.114,0.079 -0.174,0.042l-0.076,-0.039Z" style="fill:#fce2e5;fill-rule:nonzero;"/><path d="M740.912,488.357c-0.023,0.012 -0.037,0.028 -0.021,0.035c0.02,0.01 0.024,-0.009 0.021,-0.035m-2.578,2.091c-0.201,-0.39 -0.568,-0.892 -0.981,-1.402c-0.618,-0.761 -1.345,-1.539 -1.82,-1.984c-0.182,-0.17 -0.39,-0.308 -0.609,-0.427c-0.23,-0.123 -0.474,-0.223 -0.716,-0.313l-0.415,0.098c-0.045,0.001 -0.116,0.004 -0.183,0.002c0.028,0.027 0.053,0.05 0.072,0.07c0.07,0.072 0.133,0.15 0.191,0.233c0.077,0.109 0.145,0.224 0.219,0.335c0.146,0.223 0.267,0.463 0.407,0.689c0.055,0.087 0.112,0.172 0.176,0.253c0.786,0.988 0.934,1.408 1.307,1.914c0.21,0.285 0.496,0.596 1.022,1.065c0.009,0.009 0.795,0.438 1.23,0.596c0.061,-0.315 0.102,-0.817 0.102,-1.069c0,-0.019 -0.001,-0.044 -0.002,-0.06m0.734,-5.369c-0.006,-0.076 -0.049,-0.155 -0.092,-0.231c-0.098,-0.173 -0.242,-0.327 -0.335,-0.428c-0.288,-0.311 -0.603,-0.695 -0.987,-0.936c-0.217,-0.137 -0.457,-0.226 -0.731,-0.205c-0.492,0.035 -1.052,0.263 -1.579,0.248c-0.274,-0.009 -0.54,-0.073 -0.79,-0.234c-0.137,-0.088 -0.178,-0.271 -0.09,-0.41c0.089,-0.137 0.272,-0.177 0.41,-0.089c0.211,0.134 0.442,0.153 0.677,0.131c0.45,-0.04 0.914,-0.213 1.328,-0.244c0.409,-0.029 0.77,0.092 1.094,0.294c0.43,0.269 0.79,0.689 1.112,1.036c0.139,0.151 0.364,0.403 0.486,0.67c0.108,0.238 0.138,0.487 0.045,0.716c-0.016,0.035 -0.033,0.068 -0.054,0.099c0.209,0.204 0.408,0.416 0.6,0.634c0.225,0.258 0.439,0.524 0.648,0.793c0.127,0.163 0.243,0.334 0.349,0.511c0.105,0.175 0.2,0.355 0.289,0.536c0.069,0.147 0.116,0.46 0.02,0.678c-0.082,0.188 -0.24,0.329 -0.517,0.325c-0.852,-0.012 -1.643,-0.247 -2.393,-0.591c-0.662,-0.302 -1.292,-0.69 -1.912,-1.076c0.382,0.406 0.803,0.884 1.184,1.355c0.459,0.569 0.86,1.131 1.07,1.554c0.015,0.031 0.04,0.106 0.044,0.218c0.006,0.182 -0.017,0.563 -0.059,0.903c-0.047,0.375 -0.148,0.701 -0.221,0.781c-0.061,0.066 -0.231,0.15 -0.481,0.08c-0.461,-0.13 -1.566,-0.762 -1.578,-0.773c-0.565,-0.513 -0.868,-0.855 -1.092,-1.167c-0.365,-0.505 -0.506,-0.923 -1.275,-1.912c-0.076,-0.097 -0.145,-0.201 -0.21,-0.306c-0.128,-0.211 -0.238,-0.434 -0.369,-0.643c0.291,1.015 0.685,2.011 0.9,3.039c0.128,0.603 0.195,1.217 0.153,1.851c-0.031,0.464 -0.136,1.127 -0.42,1.633c-0.214,0.385 -0.528,0.682 -0.966,0.788c-0.494,0.12 -0.921,-0.012 -1.272,-0.28c-0.476,-0.361 -0.802,-0.993 -0.941,-1.541c-0.168,-0.681 -0.231,-1.457 -0.211,-2.23c0.016,-0.588 0.079,-1.176 0.177,-1.722c-0.082,0.235 -0.159,0.472 -0.232,0.708c-0.397,1.279 -0.694,2.592 -1.128,3.859c-0.111,0.323 -0.356,0.772 -0.69,1.064c-0.255,0.223 -0.561,0.355 -0.893,0.318c-0.361,-0.04 -0.621,-0.242 -0.807,-0.52c-0.237,-0.354 -0.345,-0.839 -0.406,-1.186c-0.163,-0.914 -0.193,-1.874 -0.042,-2.798c0.152,-0.935 0.49,-1.834 1.052,-2.614c0.193,-0.266 0.399,-0.524 0.616,-0.773c0.077,-0.089 0.155,-0.176 0.235,-0.262l-0.026,0.014c-0.089,0.049 -0.172,0.104 -0.243,0.176c-0.343,0.337 -0.66,0.7 -0.966,1.072c-0.466,0.566 -0.907,1.157 -1.37,1.723c-0.061,0.076 -0.85,1.311 -1.494,1.666c-0.235,0.131 -0.46,0.158 -0.648,0.068c-0.149,-0.071 -0.29,-0.222 -0.382,-0.499c-0.319,-0.964 -0.186,-1.891 0.206,-2.739c0.561,-1.212 1.658,-2.265 2.667,-3.033c0.321,-0.244 0.863,-0.673 1.403,-0.812c0.372,-0.097 0.808,-0.125 1.049,0.2c0.029,0.037 0.037,0.07 0.053,0.118c0.05,0.051 0.049,0.132 -0.001,0.181c-0.05,0.049 -0.13,0.049 -0.181,-0.001c-0.036,-0.014 -0.065,-0.005 -0.098,-0.022c-0.248,-0.117 -0.467,-0.164 -0.717,-0.092c-0.486,0.137 -0.971,0.53 -1.261,0.753c-0.953,0.733 -1.997,1.733 -2.523,2.888c-0.341,0.75 -0.46,1.568 -0.173,2.417c0.044,0.129 0.087,0.213 0.159,0.237c0.132,0.047 0.278,-0.074 0.444,-0.213c0.538,-0.456 1.086,-1.348 1.137,-1.41c0.461,-0.57 0.899,-1.162 1.362,-1.731c0.315,-0.387 0.641,-0.763 0.994,-1.114c0.103,-0.104 0.219,-0.186 0.346,-0.256c0.247,-0.139 0.531,-0.227 0.78,-0.361c0.108,-0.058 0.208,-0.133 0.316,-0.191c0.06,-0.031 0.123,-0.058 0.188,-0.078c0.106,-0.032 0.314,-0.05 0.409,-0.011c0.139,0.058 0.208,0.163 0.175,0.325c-0.031,0.156 -0.13,0.279 -0.274,0.372c-0.173,0.112 -0.443,0.154 -0.54,0.25c-0.225,0.222 -0.44,0.454 -0.646,0.693c-0.206,0.238 -0.401,0.485 -0.584,0.74c-0.512,0.719 -0.812,1.545 -0.952,2.402c-0.139,0.869 -0.114,1.769 0.037,2.625c0.051,0.289 0.128,0.697 0.325,0.992c0.102,0.153 0.239,0.273 0.438,0.297c0.24,0.027 0.447,-0.123 0.616,-0.309c0.206,-0.225 0.356,-0.514 0.431,-0.731c0.435,-1.261 0.733,-2.569 1.132,-3.841c0.101,-0.324 0.208,-0.645 0.326,-0.962c0.058,-0.158 0.135,-0.309 0.222,-0.453c0.183,-0.304 0.414,-0.585 0.597,-0.89c0.094,-0.154 0.219,-0.437 0.392,-0.616c0.108,-0.113 0.235,-0.192 0.378,-0.218c0.134,-0.025 0.213,0.031 0.265,0.098c0.034,0.043 0.061,0.104 0.057,0.185c-0.003,0.082 -0.076,0.25 -0.12,0.327l-0.333,0.442c-0.113,0.227 -0.23,0.459 -0.324,0.695c-0.061,0.151 -0.111,0.305 -0.145,0.462c-0.139,0.641 -0.224,1.372 -0.235,2.102c-0.01,0.722 0.054,1.445 0.217,2.08c0.092,0.365 0.281,0.779 0.561,1.076c0.246,0.262 0.57,0.43 0.965,0.336c0.28,-0.067 0.471,-0.269 0.609,-0.512c0.244,-0.435 0.327,-1.004 0.355,-1.399c0.041,-0.582 -0.02,-1.147 -0.135,-1.702c-0.28,-1.354 -0.867,-2.656 -1.124,-4.015c-0.023,-0.117 0.016,-0.192 0.05,-0.238c0.045,-0.061 0.107,-0.101 0.191,-0.113c0.023,-0.003 0.052,-0.004 0.084,0.001c-0.028,-0.081 -0.026,-0.178 0.055,-0.293c0.219,-0.304 0.515,-0.427 0.841,-0.436c0.591,-0.018 1.311,0.41 1.666,0.61c0.988,0.553 1.971,1.264 3.032,1.748c0.657,0.302 1.347,0.514 2.091,0.531c-0.007,-0.036 -0.021,-0.08 -0.029,-0.095c-0.08,-0.166 -0.167,-0.329 -0.262,-0.489c-0.093,-0.155 -0.194,-0.306 -0.304,-0.45c-0.201,-0.26 -0.408,-0.516 -0.625,-0.764c-0.215,-0.246 -0.437,-0.483 -0.674,-0.707c-0.033,-0.033 -0.068,-0.063 -0.104,-0.093c-0.223,-0.018 -0.447,-0.085 -0.536,-0.124l-1.386,-0.67c-0.56,-0.122 -1.127,-0.218 -1.643,-0.39c-0.274,-0.092 -0.247,-0.305 -0.227,-0.382c0.015,-0.063 0.056,-0.16 0.182,-0.216c0.072,-0.033 0.403,-0.064 0.537,-0.062c0.11,0.001 0.221,0.005 0.33,0.022c0.088,0.014 0.173,0.038 0.254,0.073l0.757,0.367c0.387,0.084 0.772,0.18 1.134,0.322c0.264,0.106 0.518,0.234 0.754,0.396" style="fill:#fce2e5;fill-rule:nonzero;"/><path d="M723.145,499.388c-0.156,0.083 -0.303,0.187 -0.441,0.3c-0.167,0.138 -0.323,0.294 -0.47,0.45c-0.448,0.477 -0.845,0.999 -1.161,1.565c-0.315,0.562 -0.553,1.166 -0.687,1.808c-0.264,1.275 0.385,2.584 0.404,3.841c0.007,0.584 -0.113,1.155 -0.479,1.704c-0.032,0.052 -0.117,0.169 -0.231,0.316c0.286,-0.245 0.562,-0.52 0.774,-0.707c0.89,-0.785 1.671,-1.602 2.209,-2.548c0.523,-0.917 0.815,-1.956 0.752,-3.199c-0.009,-0.16 -0.037,-0.315 -0.079,-0.467c-0.189,-0.684 -0.609,-1.308 -0.695,-2.005c-0.028,-0.209 -0.022,-0.426 0.009,-0.637c0.021,-0.144 0.054,-0.284 0.095,-0.421m-3.893,10.499c0.025,-0.024 0.048,-0.051 0.073,-0.079c0.315,-0.355 0.628,-0.823 0.697,-0.938c0.302,-0.492 0.379,-0.997 0.36,-1.507c-0.047,-1.288 -0.684,-2.629 -0.422,-3.94c0.14,-0.686 0.39,-1.334 0.725,-1.935c0.333,-0.6 0.75,-1.153 1.223,-1.656c0.192,-0.206 0.398,-0.407 0.625,-0.579c0.155,-0.12 0.323,-0.225 0.501,-0.31l0.547,-0.265c0.093,-0.046 0.207,-0.02 0.273,0.062c0.065,0.081 0.066,0.196 0.002,0.279l-0.226,0.348c-0.061,0.158 -0.108,0.331 -0.133,0.506c-0.026,0.172 -0.03,0.347 -0.008,0.516c0.086,0.677 0.502,1.278 0.685,1.941c0.051,0.184 0.085,0.371 0.095,0.565c0.069,1.341 -0.245,2.459 -0.809,3.448c-0.561,0.988 -1.374,1.847 -2.301,2.666c-0.298,0.264 -0.721,0.694 -1.121,0.986c-0.228,0.165 -0.45,0.286 -0.644,0.329c-0.062,0.013 -0.126,-0 -0.176,-0.034c-0.2,0.141 -0.383,0.196 -0.495,0.134c-0.061,-0.033 -0.086,-0.109 -0.053,-0.172c0.033,-0.061 0.11,-0.086 0.172,-0.053c0.029,0.013 0.06,-0.016 0.103,-0.04c0.058,-0.037 0.123,-0.088 0.189,-0.152c0.023,-0.052 0.065,-0.096 0.118,-0.12" style="fill:#fce2e5;fill-rule:nonzero;"/><path d="M722.373,509.151c0.006,0.055 -0.014,0.076 -0.053,0.146c-0.022,0.041 -0.079,0.064 -0.131,0.094c-0.196,0.118 -0.527,0.225 -0.698,0.327c-0.449,0.272 -0.698,0.771 -0.825,1.3c-0.138,0.581 -0.125,1.205 -0.024,1.657c0.083,0.37 0.401,0.695 0.78,0.997c0.502,0.398 1.122,0.744 1.606,1.036c-0.085,-0.375 -0.095,-0.779 -0.07,-1.126c0.026,-0.344 0.154,-0.77 0.313,-1.22c0.19,-0.536 0.422,-1.115 0.51,-1.644c0.064,-0.387 0.06,-0.745 -0.149,-1.015c-0.136,-0.178 -0.371,-0.314 -0.621,-0.407c-0.215,-0.081 -0.442,-0.131 -0.638,-0.145m1.732,6.237c0.021,0.013 0.039,0.023 0.057,0.031c0.011,0.004 0.025,0.021 0.029,0.012c0.029,-0.08 -0.019,-0.075 -0.086,-0.043m-2.546,-6.32c0.16,-0.163 0.543,-0.307 0.647,-0.32c0.318,-0.026 0.752,0.042 1.131,0.192c0.274,0.108 0.515,0.265 0.676,0.454c0.309,0.365 0.378,0.858 0.309,1.403c-0.07,0.563 -0.288,1.188 -0.477,1.76c-0.13,0.398 -0.249,0.767 -0.269,1.068c-0.017,0.249 -0.014,0.531 0.031,0.802c0.039,0.24 0.111,0.473 0.238,0.661l0.007,0.006c0.1,0.083 0.333,0.263 0.435,0.348c0.217,0.182 0.123,0.432 0.111,0.45c-0.046,0.072 -0.12,0.135 -0.24,0.147c-0.045,0.004 -0.145,-0.004 -0.269,-0.067c-0.25,-0.125 -0.824,-0.522 -0.947,-0.601c-0.607,-0.393 -1.561,-0.897 -2.19,-1.496c-0.346,-0.33 -0.595,-0.694 -0.677,-1.075c-0.134,-0.623 -0.123,-1.524 0.156,-2.289c0.192,-0.525 0.51,-0.985 0.979,-1.262c0.09,-0.053 0.218,-0.119 0.349,-0.181" style="fill:#fce2e5;fill-rule:nonzero;"/></g></svg>